<svg width="27" height="27" viewBox="0 0 27 27" fill="none" xmlns="http://www.w3.org/2000/svg">
<path d="M25.6718 13.5791L17.1996 22.829C15.1162 25.1038 12.1726 26.3996 9.0882 26.3996H4.4C1.9701 26.3996 0 24.4295 0 21.9996V16.4996C0 14.0697 1.9701 12.0996 4.4 12.0996H12.9657C14.4771 12.0996 15.6717 13.4856 15.3461 15.0531C15.1338 16.0717 14.2417 16.8109 13.2121 16.9583L8.6339 17.5996C8.0322 17.6854 7.6142 18.2431 7.7011 18.8437C7.7869 19.4454 8.3446 19.8623 8.9452 19.7765L13.6224 19.1209C15.8906 18.7975 17.6011 16.8252 17.6011 14.5339C17.6011 14.293 17.5659 14.062 17.5296 13.8321L21.4247 9.7214C22.4235 8.5774 24.3562 8.4894 25.4639 9.5487C26.6211 10.6025 26.7157 12.4098 25.6718 13.5791ZM8.25 9.8996V7.6996C8.25 7.0924 8.7428 6.5996 9.35 6.5996C9.9572 6.5996 10.45 7.0924 10.45 7.6996V9.8996H14.3C15.0865 9.9898 15.8301 10.2692 16.5 10.6256V7.6996C16.5 5.8769 15.0227 4.3996 13.2 4.3996H12.2111C12.9393 3.9706 13.4937 3.5746 13.508 3.5636C14.5178 2.8057 14.5981 1.269 13.5399 0.416503C12.8172 -0.166497 11.8195 -0.138997 11.0858 0.430803C9.9154 1.3394 9.4721 2.8992 9.35 3.5999C9.2279 2.8992 8.7846 1.3405 7.6142 0.430803C6.8805 -0.138997 5.8839 -0.166497 5.1601 0.416503C4.1019 1.2701 4.1822 2.8068 5.192 3.5636C5.2063 3.5746 5.7607 3.9706 6.4889 4.3996H5.5C3.6773 4.3996 2.2 5.8769 2.2 7.6996V10.1405C2.7258 9.9887 3.2758 9.8996 3.85 9.8996H8.25Z" fill="#64748B"/>
</svg>
