<svg width="27" height="27" viewBox="0 0 27 27" fill="none" xmlns="http://www.w3.org/2000/svg">
<path d="M25.6244 12.1372C24.9974 11.4145 24.0888 10.9998 23.1307 10.9998H3.29769C2.34069 10.9998 1.43319 11.4145 0.805091 12.1372C0.176991 12.8599 -0.104609 13.818 0.0350913 14.7904L1.19779 20.7326C1.65979 23.9633 4.46919 26.3987 7.73179 26.3987H18.6977C21.9603 26.3987 24.7697 23.9622 25.2284 20.7557L26.3988 14.7662C26.5341 13.818 26.2514 12.8599 25.6244 12.1361V12.1372ZM8.79769 20.8998C8.79769 21.5081 8.30599 21.9998 7.69769 21.9998C7.08939 21.9998 6.59769 21.5081 6.59769 20.8998V16.4998C6.59769 15.8915 7.08939 15.3998 7.69769 15.3998C8.30599 15.3998 8.79769 15.8915 8.79769 16.4998V20.8998ZM14.2977 20.8998C14.2977 21.5081 13.806 21.9998 13.1977 21.9998C12.5894 21.9998 12.0977 21.5081 12.0977 20.8998V16.4998C12.0977 15.8915 12.5894 15.3998 13.1977 15.3998C13.806 15.3998 14.2977 15.8915 14.2977 16.4998V20.8998ZM19.7977 20.8998C19.7977 21.5081 19.306 21.9998 18.6977 21.9998C18.0894 21.9998 17.5977 21.5081 17.5977 20.8998V16.4998C17.5977 15.8915 18.0894 15.3998 18.6977 15.3998C19.306 15.3998 19.7977 15.8915 19.7977 16.4998V20.8998ZM4.39769 3.00942V2.19983C3.78939 2.19983 3.29769 1.70812 3.29769 1.09982C3.29769 0.491525 3.78939 -0.000175097 4.39769 -0.000175097H12.0977C12.706 -0.000175097 13.1977 0.491525 13.1977 1.09982C13.1977 1.70812 12.706 2.19983 12.0977 2.19983V3.00942C12.0977 3.77723 12.255 4.52413 12.5652 5.22813L13.5508 7.46443C13.7422 7.89893 13.8863 8.34662 14.0051 8.79982H3.29769C3.01939 8.79982 2.74439 8.82842 2.47269 8.86912C2.59259 8.39172 2.74329 7.92093 2.94459 7.46443L3.93019 5.22813C4.24039 4.52413 4.39769 3.77833 4.39769 3.00942ZM24.1383 8.89882C23.8083 8.83722 23.4728 8.79982 23.1307 8.79982H14.0326C14.3791 8.11012 14.6717 7.54693 14.6717 7.54693C15.1381 6.64493 15.6694 5.75502 16.2403 4.91682L18.6647 6.43263C18.8462 6.54703 19.0486 6.59983 19.2466 6.59983C19.6129 6.59983 19.9715 6.41723 20.1805 6.08283C20.5028 5.56693 20.3455 4.88823 19.8318 4.56703L17.5735 3.15573C19.5205 0.858925 21.726 -0.584275 23.5586 0.212125C24.0228 0.413425 24.6509 0.857825 25.0095 1.83352C25.5903 3.40873 25.2438 6.00912 24.1383 8.89772V8.89882Z" fill="#64748B"/>
</svg>
