<svg width="27" height="27" viewBox="0 0 27 27" fill="none" xmlns="http://www.w3.org/2000/svg">
<path d="M17.6 3.02494C17.6 5.40424 14.498 8.36104 12.9525 9.60074C12.7107 9.79462 12.41 9.90028 12.1 9.90028C11.79 9.90028 11.4893 9.79462 11.2475 9.60074C9.702 8.35994 6.6 5.40424 6.6 3.02494C6.56531 2.25958 6.83516 1.51164 7.35053 0.944735C7.86589 0.377834 8.58481 0.0381293 9.35 -6.10352e-05C10.1152 0.0381293 10.8341 0.377834 11.3495 0.944735C11.8648 1.51164 12.1347 2.25958 12.1 3.02494C12.0653 2.25958 12.3352 1.51164 12.8505 0.944735C13.3659 0.377834 14.0848 0.0381293 14.85 -6.10352e-05C15.6152 0.0381293 16.3341 0.377834 16.8495 0.944735C17.3648 1.51164 17.6347 2.25958 17.6 3.02494ZM25.6718 13.5849L17.2018 22.8348C16.1706 23.9593 14.9167 24.8569 13.5199 25.4706C12.1231 26.0844 10.6139 26.4009 9.0882 26.3999H4.4C3.23305 26.3999 2.11389 25.9364 1.28873 25.1112C0.46357 24.286 0 23.1669 0 21.9999V16.4999C0 15.333 0.46357 14.2138 1.28873 13.3887C2.11389 12.5635 3.23305 12.0999 4.4 12.0999H12.9657C13.3293 12.1006 13.6882 12.1826 14.016 12.3398C14.3439 12.4971 14.6324 12.7256 14.8606 13.0087C15.0888 13.2918 15.2508 13.6223 15.3348 13.9761C15.4188 14.3299 15.4227 14.698 15.3461 15.0534C15.227 15.5507 14.9588 15.9996 14.5774 16.3401C14.196 16.6806 13.7196 16.8965 13.2121 16.9586L8.6328 17.5999C8.34418 17.6413 8.08381 17.7956 7.9089 18.0289C7.73399 18.2622 7.65885 18.5554 7.7 18.844C7.74114 19.1329 7.89532 19.3935 8.12864 19.5686C8.36195 19.7438 8.65528 19.8191 8.9441 19.7779L13.6213 19.1179C14.7229 18.9557 15.73 18.4041 16.4599 17.5632C17.1898 16.7223 17.5943 15.6477 17.6 14.5342C17.5946 14.2988 17.5707 14.0641 17.5285 13.8324L21.4247 9.72174C21.9385 9.16541 22.6515 8.83498 23.4081 8.80262C24.1647 8.77026 24.9034 9.0386 25.4628 9.54904C26.0194 10.0591 26.3532 10.7675 26.3923 11.5215C26.4314 12.2754 26.1726 13.0145 25.6718 13.5794V13.5849Z" fill="#64748B"/>
</svg>
