<svg width="269" height="74" viewBox="0 0 269 74" fill="none" xmlns="http://www.w3.org/2000/svg">
<rect width="34.4498" height="34.4474" rx="8.25512" fill="#1BC469" fill-opacity="0.1"/>
<g clip-path="url(#clip0_299_475)">
<path d="M14.0192 17.0028C10.6047 17.0028 7.82785 14.226 7.82785 10.8115C7.82785 7.39693 10.6047 4.62012 14.0192 4.62012C17.4337 4.62012 20.2105 7.39693 20.2105 10.8115C20.2105 14.226 17.4337 17.0028 14.0192 17.0028ZM18.7607 26.7077C17.9528 25.8998 17.9528 24.5851 18.7607 23.7772L20.226 22.3119C21.035 21.5039 22.3496 21.5039 23.1566 22.3119L24.6219 20.8466C23.0059 19.2307 20.3767 19.2307 18.7607 20.8466L17.2954 22.3119C15.6795 23.9278 15.6795 26.556 17.2934 28.1709C17.2934 28.1709 17.2934 28.172 17.2944 28.173C18.9103 29.789 21.5396 29.789 23.1566 28.173L23.5528 27.7768C22.7015 27.7314 21.8595 27.5147 21.0825 27.1215C20.3189 27.4682 19.3881 27.3341 18.7607 26.7067V26.7077ZM28.2861 17.1834C26.6702 15.5674 24.0409 15.5674 22.4239 17.1834L22.0277 17.5796C22.879 17.625 23.721 17.8417 24.498 18.2349C25.2616 17.8882 26.1924 18.0223 26.8198 18.6497C27.6267 19.4577 27.6267 20.7723 26.8198 21.5803L25.3545 23.0456C24.5455 23.8535 23.2309 23.8535 22.4239 23.0456L20.9587 24.5108C21.7666 25.3188 22.8274 25.7223 23.8892 25.7223C24.951 25.7223 26.0118 25.3188 26.8198 24.5108L28.2851 23.0456C29.901 21.4296 29.901 18.8004 28.2851 17.1844L28.2861 17.1834ZM15.8363 20.8528L17.6215 19.0666H9.89163C7.04258 19.0666 4.73218 21.377 4.73218 24.226V29.3855H15.6341C13.4393 26.9492 13.4929 23.1962 15.8363 20.8528Z" fill="#1BC469"/>
</g>
<rect x="46.8325" width="34.4498" height="34.4474" rx="8.25512" fill="#1BC469" fill-opacity="0.1"/>
<path d="M54.9374 10.8115C54.9374 6.58801 56.9053 4.62036 61.1328 4.62036C65.3603 4.62036 67.3282 6.58801 67.3282 10.8115C67.3282 15.035 65.3603 17.0026 61.1328 17.0026C56.9053 17.0026 54.9374 15.035 54.9374 10.8115ZM75.3969 16.6176C75.2448 16.5422 73.8705 15.877 72.3882 15.877C68.8962 15.877 66.9632 17.8784 66.3707 19.0614C66.2536 19.2956 66.1927 19.5545 66.1927 19.8168V23.787C64.5988 23.9367 63.9399 24.7629 63.9399 26.5696C63.9399 28.58 64.7441 29.3837 66.756 29.3837C68.7678 29.3837 69.5721 28.58 69.5721 26.5696V20.3357C69.9179 19.9361 70.7492 19.2528 72.3882 19.2528C72.5706 19.2528 72.7644 19.2798 72.9514 19.3215V22.6602C71.3575 22.8099 70.6985 23.6361 70.6985 25.4428C70.6985 27.4532 71.5028 28.257 73.5146 28.257C75.5264 28.257 76.3307 27.4532 76.3307 25.4428V18.126C76.3307 17.4866 75.9691 16.9024 75.3969 16.6154V16.6176ZM63.9399 22.1401V19.8156C63.9399 19.7031 63.9692 19.5928 63.9793 19.4813C63.1164 19.3339 62.1747 19.2528 61.1317 19.2528C54.6806 19.2528 51.7293 22.0208 51.5648 28.2288C51.5569 28.5327 51.6718 28.8254 51.8836 29.0438C52.0954 29.261 52.3871 29.3849 52.6901 29.3849H62.3223C61.9123 28.6228 61.6859 27.6896 61.6859 26.5696C61.6859 24.423 62.4778 22.9247 63.9387 22.1401H63.9399Z" fill="#1BC469"/>
<rect x="93.665" width="34.4498" height="34.4474" rx="8.25512" fill="#1BC469" fill-opacity="0.1"/>
<path d="M115.37 15.9706C114.931 15.9706 114.495 15.854 114.1 15.6229C113.314 15.1637 112.845 14.3465 112.845 13.4364V7.15558C112.845 6.2455 113.314 5.42827 114.1 4.9691C114.886 4.512 115.826 4.50271 116.619 4.94847L121.896 8.10282C122.681 8.54445 123.164 9.36992 123.164 10.2965C123.164 11.2231 122.681 12.0486 121.873 12.5036L116.642 15.6301C116.238 15.8582 115.803 15.9706 115.37 15.9706ZM110.781 8.62596L107.55 7.01009C107.122 6.7965 106.644 6.68403 106.166 6.68403H103.558C100.713 6.68403 98.3982 8.99846 98.3982 11.8433V12.8751H110.781V8.62596ZM107.685 20.098H104.59C104.021 20.098 103.558 20.5613 103.558 21.1299V23.1936C103.558 23.7621 104.021 24.2254 104.59 24.2254H107.685C108.254 24.2254 108.717 23.7621 108.717 23.1936V21.1299C108.717 20.5613 108.254 20.098 107.685 20.098ZM117.701 17.3595C116.951 17.7826 116.162 17.992 115.37 17.992C114.563 17.992 113.763 17.7743 113.059 17.3626C112.098 16.8013 111.408 15.9417 111.053 14.9388H98.3982V24.2254C98.3982 27.0743 100.709 29.3846 103.558 29.3846H118.005C120.854 29.3846 123.164 27.0743 123.164 24.2254V14.9388H121.749L117.701 17.3595ZM113.877 24.2079C113.877 25.0715 112.891 25.5637 112.2 25.0457L110.693 23.8931C110.375 25.2624 109.15 26.2881 107.684 26.2881H104.589C102.882 26.2881 101.493 24.8992 101.493 23.1925V21.1288C101.493 19.4222 102.882 18.0333 104.589 18.0333H107.684C109.152 18.0333 110.377 19.061 110.695 20.4334L112.199 19.3045C112.889 18.7865 113.876 19.2798 113.876 20.1424V24.2068L113.877 24.2079Z" fill="#1BC469"/>
<rect x="140.498" width="34.4498" height="34.4474" rx="8.25512" fill="#1BC469" fill-opacity="0.1"/>
<g clip-path="url(#clip1_299_475)">
<path d="M162.539 15.0905C161.935 15.6941 160.954 15.6941 160.35 15.0905C159.747 14.4868 159.747 13.5055 160.35 12.9018C160.954 12.2982 161.935 12.2982 162.539 12.9018C163.143 13.5055 163.143 14.4868 162.539 15.0905ZM160.929 5.22559V7.28937C164.912 7.28937 168.153 10.5305 168.153 14.5126H170.216C170.216 9.39133 166.05 5.22559 160.929 5.22559ZM160.929 8.8372V10.901C162.921 10.901 164.541 12.5211 164.541 14.5126H166.605C166.605 11.3839 164.059 8.8372 160.929 8.8372ZM168.153 18.6464C168.146 23.7728 163.992 27.9272 158.866 27.9334H156.802C151.675 27.9272 147.521 23.7728 147.515 18.6464H145.451C145.458 24.912 150.536 29.9827 156.802 29.991H158.866C165.131 29.9837 170.209 24.913 170.216 18.6464H168.153ZM161.445 17.6083C159.451 17.6083 157.834 15.9913 157.834 13.9967C157.834 13.0143 158.229 12.1258 158.866 11.4747V5.30401C158.199 5.20804 157.509 5.19979 156.808 5.29988C153.634 5.75495 151.14 8.24283 150.684 11.4169H154.738V13.4869H150.61V16.5764H154.738V18.6464H150.684C151.25 22.5954 154.911 25.3371 158.859 24.7706C162.033 24.3145 164.527 21.8215 164.984 18.6464L165.057 16.5826V16.5764H163.967C163.316 17.2131 162.428 17.6083 161.445 17.6083Z" fill="#1BC469"/>
</g>
<rect x="187.33" width="34.4498" height="34.4474" rx="8.25512" fill="#1BC469" fill-opacity="0.1"/>
<g clip-path="url(#clip2_299_475)">
<path d="M212.7 12.8757C210.423 12.8757 208.572 11.0245 208.572 8.74817C208.572 6.47182 210.423 4.62061 212.7 4.62061C214.976 4.62061 216.827 6.47182 216.827 8.74817C216.827 11.0245 214.976 12.8757 212.7 12.8757ZM201.349 15.9714H198.253C197.685 15.9714 197.221 16.4337 197.221 17.0033V19.0671C197.221 19.6367 197.685 20.099 198.253 20.099H201.349C201.917 20.099 202.381 19.6367 202.381 19.0671V17.0033C202.381 16.4337 201.917 15.9714 201.349 15.9714ZM212.7 14.9395C209.286 14.9395 206.508 12.1627 206.508 8.74817C206.508 8.02378 206.639 7.33138 206.869 6.68439H197.221C194.376 6.68439 192.062 8.99892 192.062 11.8438V20.099C192.062 22.9439 194.376 25.2584 197.221 25.2584H203.413V27.3222H199.285C198.715 27.3222 198.253 27.7834 198.253 28.3541C198.253 28.9247 198.715 29.386 199.285 29.386H209.604C210.174 29.386 210.636 28.9247 210.636 28.3541C210.636 27.7834 210.174 27.3222 209.604 27.3222H205.476V25.2584H211.668C214.513 25.2584 216.827 22.9439 216.827 20.099V13.3504C215.73 14.3348 214.286 14.9395 212.7 14.9395ZM207.54 20.0814C207.54 20.9451 206.555 21.4373 205.863 20.9193L204.357 19.7667C204.038 21.136 202.813 22.1617 201.348 22.1617H198.252C196.545 22.1617 195.156 20.7728 195.156 19.066V17.0023C195.156 15.2955 196.545 13.9066 198.252 13.9066H201.348C202.815 13.9066 204.04 14.9343 204.358 16.3068L205.862 15.1779C206.553 14.6599 207.539 15.1531 207.539 16.0158V20.0804L207.54 20.0814Z" fill="#1BC469"/>
</g>
<rect x="234.163" width="34.4498" height="34.4474" rx="8.25512" fill="#1BC469" fill-opacity="0.1"/>
<g clip-path="url(#clip3_299_475)">
<path d="M254.86 7.94693C252.956 6.04309 250.318 5.05351 247.622 5.24957C242.951 5.57977 239.006 9.96118 239.006 14.8183V20.0169C239.006 22.1024 240.701 23.7999 242.784 23.7999H247.404C252.756 23.7999 257.216 20.0159 257.557 15.1846C257.748 12.4883 256.764 9.84974 254.86 7.9459V7.94693ZM243.65 16.0607C242.795 16.0607 242.102 15.3673 242.102 14.5128C242.102 13.6584 242.795 12.965 243.65 12.965C244.504 12.965 245.198 13.6584 245.198 14.5128C245.198 15.3673 244.504 16.0607 243.65 16.0607ZM248.293 16.0607C247.439 16.0607 246.746 15.3673 246.746 14.5128C246.746 13.6584 247.439 12.965 248.293 12.965C249.148 12.965 249.841 13.6584 249.841 14.5128C249.841 15.3673 249.148 16.0607 248.293 16.0607ZM252.937 16.0607C252.082 16.0607 251.389 15.3673 251.389 14.5128C251.389 13.6584 252.082 12.965 252.937 12.965C253.791 12.965 254.485 13.6584 254.485 14.5128C254.485 15.3673 253.791 16.0607 252.937 16.0607ZM263.772 21.7361V26.8955C263.772 28.6054 262.386 29.9912 260.676 29.9912H255.517C252.467 29.9912 249.805 28.3247 248.376 25.8595C248.367 25.8461 248.359 25.8347 248.351 25.8213C254.353 25.3921 259.219 20.9436 259.615 15.3301C259.633 15.0835 259.627 14.8379 259.628 14.5923C259.632 14.5933 259.636 14.5944 259.64 14.5954C262.105 16.0246 263.772 18.6868 263.772 21.7361Z" fill="#1BC469"/>
</g>
<rect y="39.4475" width="34.4498" height="34.4474" rx="8.25512" fill="#1BC469" fill-opacity="0.1"/>
<g clip-path="url(#clip4_299_475)">
<path d="M26.4029 52.9292H23.3072V49.3176C23.3072 48.4642 24.0017 47.7697 24.8551 47.7697H25.6568C26.0139 48.3837 26.6722 48.8016 27.4348 48.8016C28.575 48.8016 29.4986 47.8781 29.4986 46.7379C29.4986 45.5976 28.575 44.6741 27.4348 44.6741C26.6732 44.6741 26.0149 45.092 25.6568 45.706H24.8551C22.8635 45.706 21.2434 47.326 21.2434 49.3176V52.9292H18.1478V48.5664C18.7617 48.2093 19.1797 47.551 19.1797 46.7884C19.1797 45.6482 18.2561 44.7246 17.1159 44.7246C15.9756 44.7246 15.0521 45.6482 15.0521 46.7884C15.0521 47.55 15.47 48.2083 16.084 48.5664V52.9292H9.89265C9.00625 52.9292 8.16733 52.5453 7.58637 51.8983C8.15391 51.2648 8.97839 50.8654 9.89265 50.8654H12.9883C13.559 50.8654 14.0202 50.4031 14.0202 49.8335C14.0202 49.2639 13.559 48.8016 12.9883 48.8016H9.89265C7.02606 48.7965 4.72185 51.1595 4.7332 53.9611V64.28C4.7332 67.1249 7.04773 69.4394 9.89265 69.4394H26.4029C28.1096 69.4394 29.4986 68.0505 29.4986 66.3438V56.0249C29.4986 54.3181 28.1096 52.9292 26.4029 52.9292ZM23.8232 62.7322C22.9688 62.7322 22.2753 62.0387 22.2753 61.1843C22.2753 60.3299 22.9688 59.6365 23.8232 59.6365C24.6776 59.6365 25.371 60.3299 25.371 61.1843C25.371 62.0387 24.6776 62.7322 23.8232 62.7322Z" fill="#1BC469"/>
</g>
<rect x="46.8325" y="39.4475" width="34.4498" height="34.4474" rx="8.25512" fill="#1BC469" fill-opacity="0.1"/>
<g clip-path="url(#clip5_299_475)">
<path d="M64.0565 58.3152V61.4728C64.0565 61.8835 63.7242 62.2157 63.3136 62.2157H60.156C59.8557 62.2157 59.5843 62.0351 59.4698 61.7576C59.3542 61.48 59.4182 61.1601 59.6307 60.9475L60.4996 60.0787C59.7721 59.475 58.8486 59.12 57.8652 59.12C56.2234 59.12 54.7385 60.0921 54.0812 61.5966C53.8521 62.1198 53.2444 62.3581 52.7222 62.129C52.2001 61.901 51.9617 61.2922 52.1898 60.7711C53.1763 58.5143 55.4041 57.0563 57.8652 57.0563C59.4068 57.0563 60.8566 57.629 61.968 58.6103L62.7883 57.7899C63.0009 57.5774 63.3197 57.5144 63.5984 57.629C63.8759 57.7435 64.0565 58.0149 64.0565 58.3152ZM63.0081 64.3662C62.486 64.1361 61.8782 64.3755 61.6491 64.8986C60.9918 66.4031 59.5059 67.3752 57.8652 67.3752C56.8818 67.3752 55.9582 67.0202 55.2308 66.4165L56.0996 65.5477C56.3122 65.3351 56.3762 65.0163 56.2606 64.7377C56.146 64.4601 55.8747 64.2795 55.5744 64.2795H52.4168C52.0061 64.2795 51.6738 64.6118 51.6738 65.0225V68.18C51.6738 68.4803 51.8544 68.7517 52.132 68.8663C52.4106 68.9808 52.7295 68.9178 52.942 68.7053L53.7624 67.8849C54.8727 68.8663 56.3225 69.439 57.8652 69.439C60.3273 69.439 62.5551 67.9809 63.5406 65.7241C63.7686 65.202 63.5302 64.5932 63.0081 64.3662ZM76.4392 51.8968V62.2157C76.4392 63.9256 75.0534 65.3114 73.3435 65.3114H65.8499C66.0202 64.651 66.1203 63.9617 66.1203 63.2476V58.0882C66.1203 56.3783 64.7345 54.9925 63.0246 54.9925H57.8652C55.3959 54.9925 53.1866 56.0822 51.6738 57.8003V49.833C51.6738 46.984 53.9842 44.6736 56.8333 44.6736H75.4073C75.9779 44.6736 76.4392 45.1359 76.4392 45.7055C76.4392 46.2751 75.9779 46.7374 75.4073 46.7374H56.8333C55.918 46.7374 55.0935 47.1367 54.527 47.7703C55.108 48.4173 55.9469 48.8011 56.8333 48.8011H73.3435C75.0534 48.8011 76.4392 50.187 76.4392 51.8968ZM73.3435 57.0563C73.3435 56.2019 72.6501 55.5084 71.7957 55.5084C70.9413 55.5084 70.2479 56.2019 70.2479 57.0563C70.2479 57.9107 70.9413 58.6041 71.7957 58.6041C72.6501 58.6041 73.3435 57.9107 73.3435 57.0563Z" fill="#1BC469"/>
</g>
<rect x="93.665" y="39.4475" width="34.4498" height="34.4474" rx="8.25512" fill="#1BC469" fill-opacity="0.1"/>
<g clip-path="url(#clip6_299_475)">
<path d="M119.552 52.8391C117.56 52.8391 115.94 54.4592 115.94 56.4507C115.94 58.4423 117.56 60.0623 119.552 60.0623C121.543 60.0623 123.164 58.4423 123.164 56.4507C123.164 54.4592 121.543 52.8391 119.552 52.8391ZM119.552 57.9986C118.699 57.9986 118.004 57.3041 118.004 56.4507C118.004 55.5974 118.699 54.9029 119.552 54.9029C120.405 54.9029 121.1 55.5974 121.1 56.4507C121.1 57.3041 120.405 57.9986 119.552 57.9986ZM114.392 56.4507C114.392 58.4423 112.772 60.0623 110.781 60.0623C108.789 60.0623 107.169 58.4423 107.169 56.4507C107.169 54.4592 108.789 52.8391 110.781 52.8391C112.772 52.8391 114.392 54.4592 114.392 56.4507ZM105.621 56.4507C105.621 58.4423 104.001 60.0623 102.01 60.0623C100.018 60.0623 98.3982 58.4423 98.3982 56.4507C98.3982 54.4592 100.018 52.8391 102.01 52.8391C104.001 52.8391 105.621 54.4592 105.621 56.4507Z" fill="#1BC469"/>
</g>
<defs>
<clipPath id="clip0_299_475">
<rect width="24.7662" height="24.7645" fill="white" transform="translate(4.73315 4.62012)"/>
</clipPath>
<clipPath id="clip1_299_475">
<rect width="24.7662" height="24.7645" fill="white" transform="translate(145.451 5.2251)"/>
</clipPath>
<clipPath id="clip2_299_475">
<rect width="24.7662" height="24.7645" fill="white" transform="translate(192.062 4.62012)"/>
</clipPath>
<clipPath id="clip3_299_475">
<rect width="24.7662" height="24.7645" fill="white" transform="translate(239.006 5.2251)"/>
</clipPath>
<clipPath id="clip4_299_475">
<rect width="24.7662" height="24.7645" fill="white" transform="translate(4.73315 44.6736)"/>
</clipPath>
<clipPath id="clip5_299_475">
<rect width="24.7662" height="24.7645" fill="white" transform="translate(51.6748 44.6731)"/>
</clipPath>
<clipPath id="clip6_299_475">
<rect width="24.7662" height="24.7645" fill="white" transform="translate(98.3982 44.0681)"/>
</clipPath>
</defs>
</svg>
