<svg width="266" height="35" viewBox="0 0 266 35" fill="none" xmlns="http://www.w3.org/2000/svg">
<path d="M0 16.556C0 8.81406 0 4.94306 2.40513 2.53794C4.81025 0.132812 8.68124 0.132812 16.4232 0.132812H17.5768C25.3188 0.132812 29.1897 0.132812 31.5949 2.53794C34 4.94306 34 8.81406 34 16.556V17.7096C34 25.4516 34 29.3226 31.5949 31.7277C29.1897 34.1328 25.3188 34.1328 17.5768 34.1328H16.4232C8.68124 34.1328 4.81025 34.1328 2.40513 31.7277C0 29.3226 0 25.4516 0 17.7096V16.556Z" fill="#ED1C24" fill-opacity="0.1"/>
<g clip-path="url(#clip0_299_215)">
<path d="M13.9193 16.5562C10.5228 16.5562 7.76063 13.794 7.76063 10.3975C7.76063 7.00095 10.5228 4.23877 13.9193 4.23877C17.3159 4.23877 20.078 7.00095 20.078 10.3975C20.078 13.794 17.3159 16.5562 13.9193 16.5562ZM18.6359 26.21C17.8322 25.4063 17.8322 24.0986 18.6359 23.2948L20.0934 21.8373C20.8982 21.0336 22.2059 21.0336 23.0086 21.8373L24.4661 20.3797C22.8587 18.7723 20.2433 18.7723 18.6359 20.3797L17.1783 21.8373C15.5709 23.4447 15.5709 26.0591 17.1763 27.6655C17.1763 27.6655 17.1763 27.6665 17.1773 27.6675C18.7847 29.2749 21.4001 29.2749 23.0086 27.6675L23.4027 27.2734C22.5559 27.2282 21.7183 27.0126 20.9454 26.6216C20.1858 26.9665 19.26 26.833 18.6359 26.2089V26.21ZM28.1111 16.7358C26.5036 15.1284 23.8882 15.1284 22.2798 16.7358L21.8856 17.13C22.7324 17.1751 23.57 17.3907 24.343 17.7818C25.1025 17.4369 26.0284 17.5703 26.6525 18.1944C27.4552 18.9981 27.4552 20.3058 26.6525 21.1095L25.1949 22.5671C24.3902 23.3708 23.0825 23.3708 22.2798 22.5671L20.8222 24.0246C21.6259 24.8284 22.6811 25.2297 23.7373 25.2297C24.7936 25.2297 25.8488 24.8284 26.6525 24.0246L28.11 22.5671C29.7175 20.9597 29.7175 18.3443 28.11 16.7368L28.1111 16.7358ZM15.7269 20.3859L17.5027 18.6091H9.81353C6.9795 18.6091 4.68127 20.9073 4.68127 23.7413V28.8736H15.5257C13.3425 26.4502 13.3958 22.7169 15.7269 20.3859Z" fill="#ED1C24"/>
</g>
<rect x="46.0006" width="34.2683" height="34.2659" rx="8.21161" fill="#ED1C24" fill-opacity="0.1"/>
<path d="M54.0634 10.7547C54.0634 6.55347 56.0209 4.59619 60.2262 4.59619C64.4314 4.59619 66.3889 6.55347 66.3889 10.7547C66.3889 14.9559 64.4314 16.9132 60.2262 16.9132C56.0209 16.9132 54.0634 14.9559 54.0634 10.7547ZM74.4151 16.5302C74.2638 16.4552 72.8968 15.7935 71.4222 15.7935C67.9486 15.7935 66.0259 17.7843 65.4365 18.9612C65.32 19.1941 65.2594 19.4516 65.2594 19.7125V23.6618C63.6739 23.8107 63.0184 24.6326 63.0184 26.4297C63.0184 28.4296 63.8185 29.2291 65.8197 29.2291C67.8209 29.2291 68.6209 28.4296 68.6209 26.4297V20.2287C68.9649 19.8312 69.7919 19.1515 71.4222 19.1515C71.6037 19.1515 71.7964 19.1784 71.9824 19.2198V22.5409C70.3969 22.6898 69.7414 23.5117 69.7414 25.3089C69.7414 27.3087 70.5415 28.1082 72.5427 28.1082C74.5439 28.1082 75.3439 27.3087 75.3439 25.3089V18.0307C75.3439 17.3947 74.9843 16.8135 74.4151 16.528V16.5302ZM63.0184 22.0236V19.7114C63.0184 19.5994 63.0476 19.4897 63.0577 19.3788C62.1994 19.2321 61.2626 19.1515 60.225 19.1515C53.8079 19.1515 50.8722 21.9049 50.7086 28.0802C50.7008 28.3825 50.8151 28.6737 51.0257 28.8909C51.2364 29.107 51.5266 29.2302 51.828 29.2302H61.4094C61.0015 28.4721 60.7763 27.5439 60.7763 26.4297C60.7763 24.2944 61.564 22.8041 63.0173 22.0236H63.0184Z" fill="#ED1C24"/>
<rect x="92.2683" width="34.2683" height="34.2659" rx="8.21161" fill="#ED1C24" fill-opacity="0.1"/>
<path d="M113.86 15.8869C113.423 15.8869 112.99 15.7709 112.596 15.541C111.814 15.0842 111.348 14.2713 111.348 13.366V7.11829C111.348 6.213 111.814 5.40009 112.596 4.94334C113.379 4.48864 114.314 4.4794 115.102 4.92281L120.351 8.06053C121.133 8.49984 121.613 9.32096 121.613 10.2427C121.613 11.1644 121.133 11.9855 120.329 12.4382L115.126 15.5482C114.723 15.775 114.29 15.8869 113.86 15.8869ZM109.295 8.58092L106.081 6.97357C105.655 6.7611 105.18 6.64923 104.705 6.64923H102.11C99.2799 6.64923 96.9775 8.95146 96.9775 11.7813V12.8077H109.295V8.58092ZM106.216 19.9925H103.136C102.571 19.9925 102.11 20.4534 102.11 21.0189V23.0717C102.11 23.6373 102.571 24.0981 103.136 24.0981H106.216C106.781 24.0981 107.242 23.6373 107.242 23.0717V21.0189C107.242 20.4534 106.781 19.9925 106.216 19.9925ZM116.179 17.2684C115.433 17.6893 114.647 17.8976 113.86 17.8976C113.057 17.8976 112.262 17.681 111.561 17.2715C110.605 16.7131 109.918 15.8581 109.565 14.8605H96.9775V24.0981C96.9775 26.932 99.2758 29.2302 102.11 29.2302H116.481C119.315 29.2302 121.613 26.932 121.613 24.0981V14.8605H120.206L116.179 17.2684ZM112.375 24.0807C112.375 24.9398 111.394 25.4294 110.707 24.9141L109.208 23.7676C108.891 25.1297 107.672 26.1499 106.215 26.1499H103.135C101.438 26.1499 100.056 24.7684 100.056 23.0707V21.0179C100.056 19.3202 101.438 17.9387 103.135 17.9387H106.215C107.674 17.9387 108.893 18.961 109.209 20.3261L110.706 19.2032C111.392 18.6879 112.374 19.1786 112.374 20.0366V24.0797L112.375 24.0807Z" fill="#ED1C24"/>
<rect x="138.536" width="34.2683" height="34.2659" rx="8.21161" fill="#ED1C24" fill-opacity="0.1"/>
<g clip-path="url(#clip1_299_215)">
<path d="M164.798 13.4099H161.719V9.81727C161.719 8.9684 162.41 8.2776 163.259 8.2776H164.056C164.411 8.88834 165.066 9.30405 165.825 9.30405C166.959 9.30405 167.878 8.38537 167.878 7.25115C167.878 6.11692 166.959 5.19824 165.825 5.19824C165.067 5.19824 164.412 5.61396 164.056 6.22469H163.259C161.277 6.22469 159.666 7.83622 159.666 9.81727V13.4099H156.587V9.07002C157.197 8.71487 157.613 8.05999 157.613 7.30144C157.613 6.16721 156.694 5.24854 155.56 5.24854C154.426 5.24854 153.507 6.16721 153.507 7.30144C153.507 8.05896 153.923 8.71384 154.534 9.07002V13.4099H148.375C147.493 13.4099 146.659 13.028 146.081 12.3844C146.645 11.7542 147.466 11.357 148.375 11.357H151.454C152.022 11.357 152.481 10.8971 152.481 10.3305C152.481 9.7639 152.022 9.30405 151.454 9.30405H148.375C145.523 9.29892 143.231 11.6495 143.243 14.4363V24.7008C143.243 27.5307 145.545 29.8331 148.375 29.8331H164.798C166.496 29.8331 167.878 28.4515 167.878 26.7537V16.4892C167.878 14.7915 166.496 13.4099 164.798 13.4099ZM162.232 23.1611C161.382 23.1611 160.692 22.4714 160.692 21.6215C160.692 20.7716 161.382 20.0818 162.232 20.0818C163.082 20.0818 163.772 20.7716 163.772 21.6215C163.772 22.4714 163.082 23.1611 162.232 23.1611Z" fill="#ED1C24"/>
</g>
<rect x="184.805" width="34.2683" height="34.2659" rx="8.21161" fill="#ED1C24" fill-opacity="0.1"/>
<g clip-path="url(#clip2_299_215)">
<path d="M201.94 18.7674V21.9084C201.94 22.3169 201.609 22.6474 201.201 22.6474H198.06C197.761 22.6474 197.491 22.4678 197.377 22.1917C197.262 21.9156 197.326 21.5974 197.537 21.3859L198.401 20.5216C197.678 19.9212 196.759 19.5681 195.781 19.5681C194.148 19.5681 192.671 20.535 192.017 22.0316C191.789 22.552 191.184 22.7891 190.665 22.5612C190.146 22.3344 189.909 21.7288 190.135 21.2104C191.117 18.9655 193.333 17.5152 195.781 17.5152C197.314 17.5152 198.757 18.0849 199.862 19.061L200.678 18.245C200.89 18.0335 201.207 17.9709 201.484 18.0849C201.76 18.1988 201.94 18.4687 201.94 18.7674ZM200.897 24.7866C200.377 24.5577 199.773 24.7958 199.545 25.3162C198.891 26.8128 197.413 27.7797 195.781 27.7797C194.803 27.7797 193.884 27.4266 193.16 26.8261L194.025 25.9618C194.236 25.7504 194.3 25.4332 194.185 25.1561C194.071 24.88 193.801 24.7003 193.502 24.7003H190.361C189.953 24.7003 189.622 25.0308 189.622 25.4394V28.5803C189.622 28.879 189.802 29.149 190.078 29.2629C190.355 29.3768 190.672 29.3142 190.884 29.1028L191.7 28.2868C192.804 29.2629 194.246 29.8326 195.781 29.8326C198.23 29.8326 200.446 28.3822 201.426 26.1374C201.653 25.618 201.416 25.0124 200.897 24.7866ZM214.257 12.3829V22.6474C214.257 24.3483 212.879 25.7268 211.178 25.7268H203.724C203.893 25.0699 203.993 24.3842 203.993 23.6739V18.5416C203.993 16.8408 202.614 15.4623 200.913 15.4623H195.781C193.325 15.4623 191.127 16.5462 189.622 18.2552V10.33C189.622 7.49598 191.92 5.19775 194.754 5.19775H213.231C213.798 5.19775 214.257 5.6576 214.257 6.22421C214.257 6.79081 213.798 7.25066 213.231 7.25066H194.754C193.844 7.25066 193.024 7.64789 192.46 8.27813C193.038 8.92172 193.873 9.30356 194.754 9.30356H211.178C212.879 9.30356 214.257 10.6821 214.257 12.3829ZM211.178 17.5152C211.178 16.6653 210.488 15.9755 209.638 15.9755C208.788 15.9755 208.098 16.6653 208.098 17.5152C208.098 18.3651 208.788 19.0548 209.638 19.0548C210.488 19.0548 211.178 18.3651 211.178 17.5152Z" fill="#ED1C24"/>
</g>
<rect x="231.074" width="34.2683" height="34.2659" rx="8.21161" fill="#ED1C24" fill-opacity="0.1"/>
<g clip-path="url(#clip3_299_215)">
<path d="M256.823 13.3213C254.842 13.3213 253.23 14.9328 253.23 16.9139C253.23 18.8949 254.842 20.5064 256.823 20.5064C258.804 20.5064 260.416 18.8949 260.416 16.9139C260.416 14.9328 258.804 13.3213 256.823 13.3213ZM256.823 18.4535C255.974 18.4535 255.283 17.7627 255.283 16.9139C255.283 16.065 255.974 15.3742 256.823 15.3742C257.672 15.3742 258.363 16.065 258.363 16.9139C258.363 17.7627 257.672 18.4535 256.823 18.4535ZM251.691 16.9139C251.691 18.8949 250.079 20.5064 248.098 20.5064C246.117 20.5064 244.506 18.8949 244.506 16.9139C244.506 14.9328 246.117 13.3213 248.098 13.3213C250.079 13.3213 251.691 14.9328 251.691 16.9139ZM242.966 16.9139C242.966 18.8949 241.354 20.5064 239.373 20.5064C237.392 20.5064 235.781 18.8949 235.781 16.9139C235.781 14.9328 237.392 13.3213 239.373 13.3213C241.354 13.3213 242.966 14.9328 242.966 16.9139Z" fill="#ED1C24"/>
</g>
<defs>
<clipPath id="clip0_299_215">
<rect width="24.6357" height="24.634" fill="white" transform="translate(4.68213 4.23853)"/>
</clipPath>
<clipPath id="clip1_299_215">
<rect width="24.6357" height="24.634" fill="white" transform="translate(143.244 5.198)"/>
</clipPath>
<clipPath id="clip2_299_215">
<rect width="24.6357" height="24.634" fill="white" transform="translate(189.622 5.19775)"/>
</clipPath>
<clipPath id="clip3_299_215">
<rect width="24.6357" height="24.634" fill="white" transform="translate(235.781 4.59619)"/>
</clipPath>
</defs>
</svg>
