<svg width="23" height="23" viewBox="0 0 23 23" fill="none" xmlns="http://www.w3.org/2000/svg">
<path d="M21.8271 13.4024L21.8203 13.4059C21.0197 14.0444 20.6805 15.131 20.9655 16.1365L20.9689 16.1435C21.4234 17.7417 20.2972 19.3539 18.696 19.3962H18.6892C17.6783 19.4244 16.7895 20.0947 16.4536 21.0861V21.0896C15.9176 22.663 14.0926 23.2804 12.773 22.3313C11.9536 21.7495 10.8703 21.7191 10.0082 22.3313H10.0048C8.68526 23.2768 6.86017 22.663 6.32756 21.086C5.9887 20.0922 5.10122 19.4244 4.09203 19.3962H4.08523C2.48409 19.3538 1.35779 17.7416 1.81239 16.1435L1.81576 16.1364C2.10066 15.1309 1.76143 14.0443 0.960903 13.4058L0.954106 13.4023C-0.318035 12.3862 -0.318035 10.3966 0.954106 9.38054L0.960903 9.37703C1.76143 8.7385 2.10066 7.65188 1.81239 6.64644V6.63937C1.35437 5.04128 2.48404 3.429 4.08523 3.38668H4.09203C5.09953 3.35845 5.99171 2.68814 6.32756 1.69683V1.69332C6.86012 0.119898 8.68526 -0.497469 10.0048 0.451567H10.0082C10.8393 1.04777 11.9384 1.04777 12.773 0.451567C14.1059 -0.505676 15.9208 0.129339 16.4536 1.69332V1.69683C16.7895 2.68463 17.6782 3.3585 18.6892 3.38668H18.696C20.2972 3.429 21.4234 5.04128 20.9689 6.63937L20.9655 6.64644C20.6805 7.65188 21.0197 8.7385 21.8203 9.37703L21.8271 9.38054C23.0993 10.3966 23.0993 12.3863 21.8271 13.4024Z" fill="url(#paint0_linear_329_531)"/>
<path d="M11.3907 17.9622C14.8806 17.9622 17.7098 15.02 17.7098 11.3907C17.7098 7.76128 14.8806 4.81909 11.3907 4.81909C7.90079 4.81909 5.07166 7.76128 5.07166 11.3907C5.07166 15.02 7.90079 17.9622 11.3907 17.9622Z" fill="url(#paint1_linear_329_531)"/>
<path d="M9.88675 13.9634L8.48938 12.4173C8.12342 12.0124 8.14231 11.3756 8.53158 10.9951C8.92085 10.614 9.53338 10.6344 9.89902 11.0391L10.5661 11.7769L13.4014 8.40666C13.7529 7.9884 14.3642 7.94599 14.7667 8.31201C15.1689 8.67803 15.2095 9.31356 14.8577 9.73181L11.3197 13.9369C10.9428 14.3844 10.2776 14.3961 9.88675 13.9634Z" fill="url(#paint2_linear_329_531)"/>
<defs>
<linearGradient id="paint0_linear_329_531" x1="11.3907" y1="22.7813" x2="11.3907" y2="-3.66625e-05" gradientUnits="userSpaceOnUse">
<stop stop-color="#20C59D"/>
<stop offset="0.3103" stop-color="#38CE8C"/>
<stop offset="0.9631" stop-color="#75E461"/>
<stop offset="1" stop-color="#79E55E"/>
</linearGradient>
<linearGradient id="paint1_linear_329_531" x1="11.3907" y1="17.9622" x2="11.3907" y2="4.81909" gradientUnits="userSpaceOnUse">
<stop offset="0.0168" stop-color="#CCCCCC"/>
<stop offset="1" stop-color="#F2F2F2"/>
</linearGradient>
<linearGradient id="paint2_linear_329_531" x1="8.2268" y1="11.1717" x2="15.0971" y2="11.1717" gradientUnits="userSpaceOnUse">
<stop stop-color="#41262F"/>
<stop offset="1" stop-color="#543843"/>
</linearGradient>
</defs>
</svg>
