<svg width="41" height="41" viewBox="0 0 41 41" fill="none" xmlns="http://www.w3.org/2000/svg">
<path d="M1.0262 39.3963C1.0262 39.3963 1.21336 39.3477 1.5306 39.2377C4.42814 38.0321 6.26885 36.2884 7.0047 35.4945C8.27864 34.094 9.27994 32.3358 9.26746 30.3437C9.26746 29.832 9.20664 29.2948 9.06346 28.7177C8.5235 26.4973 7.1301 23.6905 5.81031 20.5455C4.50144 17.3939 3.26089 13.8424 3.25558 9.90964C3.2456 7.10533 3.92468 4.13591 5.57699 1.16772C3.57188 2.86493 -1.43994 8.0941 0.39797 16.7781C2.3254 25.8862 6.36711 32.0641 1.0262 39.3963Z" fill="#E54C3A"/>
<path d="M35.8508 19.9682C37.4154 19.0308 38.5384 17.792 39.2149 16.2557C39.8904 14.7204 40.23 13.2481 40.23 11.8399C40.23 10.1759 40.0083 8.63011 39.5632 7.20044C39.1182 5.77139 38.3895 4.52306 37.3735 3.4564C36.3589 2.39037 35.0586 1.54764 33.4708 0.928203C31.884 0.310032 29.9491 0 27.6649 0H11.2334C11.2237 0.122373 11.2131 0.310032 11.2131 0.558247C11.2312 1.78292 11.4508 4.26412 13.214 7.04053H13.2365L13.2327 7.0317H28.4139C28.5111 7.0317 28.5975 7.03769 28.69 7.04053H28.7429C28.7767 7.04053 28.8092 7.04463 28.843 7.04558C28.9002 7.04842 28.9587 7.05031 29.0137 7.05378C29.1254 7.06008 29.2354 7.07049 29.344 7.08532C30.3216 7.19507 30.8679 7.44171 30.8679 7.44171C30.8679 7.44171 34.1879 8.4475 36.3774 12.9352C36.3774 12.9352 35.3413 13.3651 33.9531 14.4895C32.1802 16.0586 30.7069 17.6185 29.6855 19.4872C29.0359 20.6608 28.5334 22.0255 27.9639 23.4889H28.7426C29.9697 23.4889 31.0277 23.9589 31.9156 24.8969C32.8044 25.8355 33.2494 26.9239 33.2494 28.1612C33.2494 29.6539 32.8257 30.8594 31.98 31.7762C31.1328 32.6946 30.0329 33.1523 28.6794 33.1523H22.3243C21.1587 34.4924 19.8615 35.7284 18.4207 36.8055C16.6888 38.0999 14.9837 39.1687 13.1574 40.1928H27.6652C29.9497 40.1928 31.8943 39.8519 33.5027 39.1687C35.1114 38.4859 36.4127 37.5902 37.4063 36.4809C38.3996 35.3714 39.1185 34.1029 39.5632 32.6729C40.0083 31.2435 40.23 29.7823 40.23 28.2895C40.23 26.711 39.8813 25.1643 39.1833 23.6495C38.4849 22.1346 37.3735 20.9074 35.8508 19.9682Z" fill="#26A75C"/>
<path d="M23.451 10.0067C20.7004 10.1585 17.9656 10.0448 17.9656 10.0448C17.0074 10.0008 16.1954 9.93512 16.1954 9.93512C20.574 16.1472 19.2474 21.6691 19.2474 21.6691C18.8706 19.5085 18.3998 15.8761 14.064 12.4464C6.76164 6.54163 7.8662 0.0380859 7.8662 0.0380859C-0.806779 11.2179 7.97038 20.653 9.8479 28.2144C11.726 35.7777 3.06836 40.2309 3.06836 40.2309C5.15831 39.9911 8.23927 39.1449 10.434 37.955C12.3558 36.9114 14.0808 35.8548 15.851 34.5532C18.6244 32.5131 20.8747 29.8125 22.5729 26.8416C23.0667 25.9773 23.5168 25.0901 23.9214 24.181C24.8048 22.2 25.4364 20.1193 26.4948 18.2155C27.6986 16.0502 29.3802 14.3338 31.2406 12.714C31.2646 12.6936 31.759 12.2602 31.7799 12.2832C29.7171 10.0067 26.2022 9.8552 23.451 10.0067ZM28.1222 12.0214C27.9041 12.0214 27.7269 11.8461 27.7269 11.6292C27.7269 11.4124 27.9038 11.2371 28.1222 11.2371C28.3405 11.2371 28.5171 11.4124 28.5171 11.6292C28.5168 11.8461 28.3402 12.0214 28.1222 12.0214Z" fill="#FAD117"/>
</svg>
