<svg width="18" height="18" viewBox="0 0 18 18" fill="none" xmlns="http://www.w3.org/2000/svg">
<g clip-path="url(#clip0_1812_3434)">
<path d="M17.4731 8.27551C17.0456 7.78276 16.4261 7.50001 15.7729 7.50001H2.25038C1.59788 7.50001 0.979129 7.78276 0.550879 8.27551C0.122629 8.76826 -0.069371 9.42151 0.025879 10.0845L0.818629 14.136C1.13363 16.3388 3.04913 17.9993 5.27363 17.9993H12.7504C14.9749 17.9993 16.8904 16.338 17.2031 14.1518L18.0011 10.068C18.0934 9.42151 17.9006 8.76826 17.4731 8.27476V8.27551ZM6.00038 14.25C6.00038 14.6648 5.66513 15 5.25038 15C4.83563 15 4.50038 14.6648 4.50038 14.25V11.25C4.50038 10.8353 4.83563 10.5 5.25038 10.5C5.66513 10.5 6.00038 10.8353 6.00038 11.25V14.25ZM9.75038 14.25C9.75038 14.6648 9.41513 15 9.00038 15C8.58563 15 8.25038 14.6648 8.25038 14.25V11.25C8.25038 10.8353 8.58563 10.5 9.00038 10.5C9.41513 10.5 9.75038 10.8353 9.75038 11.25V14.25ZM13.5004 14.25C13.5004 14.6648 13.1651 15 12.7504 15C12.3356 15 12.0004 14.6648 12.0004 14.25V11.25C12.0004 10.8353 12.3356 10.5 12.7504 10.5C13.1651 10.5 13.5004 10.8353 13.5004 11.25V14.25ZM3.00038 2.05201V1.50001C2.58563 1.50001 2.25038 1.16476 2.25038 0.750014C2.25038 0.335264 2.58563 1.37826e-05 3.00038 1.37826e-05H8.25038C8.66513 1.37826e-05 9.00038 0.335264 9.00038 0.750014C9.00038 1.16476 8.66513 1.50001 8.25038 1.50001V2.05201C8.25038 2.57551 8.35763 3.08476 8.56913 3.56476L9.24113 5.08951C9.37163 5.38576 9.46988 5.69101 9.55088 6.00001H2.25038C2.06063 6.00001 1.87313 6.01951 1.68788 6.04726C1.76963 5.72176 1.87238 5.40076 2.00963 5.08951L2.68163 3.56476C2.89313 3.08476 3.00038 2.57626 3.00038 2.05201ZM16.4599 6.06751C16.2349 6.02551 16.0061 6.00001 15.7729 6.00001H9.56963C9.80588 5.52976 10.0054 5.14576 10.0054 5.14576C10.3234 4.53076 10.6856 3.92401 11.0749 3.35251L12.7279 4.38601C12.8516 4.46401 12.9896 4.50001 13.1246 4.50001C13.3744 4.50001 13.6189 4.37551 13.7614 4.14751C13.9811 3.79576 13.8739 3.33301 13.5236 3.11401L11.9839 2.15176C13.3114 0.585764 14.8151 -0.398236 16.0646 0.144764C16.3811 0.282014 16.8094 0.585014 17.0539 1.25026C17.4499 2.32426 17.2136 4.09726 16.4599 6.06676V6.06751Z" fill="#8C8C91"/>
</g>
<defs>
<clipPath id="clip0_1812_3434">
<rect width="18" height="18" fill="white"/>
</clipPath>
</defs>
</svg>
