<svg width="18" height="18" viewBox="0 0 18 18" fill="none" xmlns="http://www.w3.org/2000/svg">
<g clip-path="url(#clip0_1812_3445)">
<path d="M9.7497 5.62502C9.7497 6.24602 9.2457 6.75002 8.6247 6.75002C8.0037 6.75002 7.4997 6.24602 7.4997 5.62502C7.4997 5.00402 8.0037 4.50002 8.6247 4.50002C9.2457 4.50002 9.7497 5.00402 9.7497 5.62502ZM4.1247 2.47681e-05C3.5037 2.47681e-05 2.9997 0.504025 2.9997 1.12502C2.9997 1.74602 3.5037 2.25002 4.1247 2.25002C4.7457 2.25002 5.2497 1.74602 5.2497 1.12502C5.2497 0.504025 4.7457 2.47681e-05 4.1247 2.47681e-05ZM5.31795 6.40578L8.69295 1.15577C8.91645 0.807775 8.81595 0.343525 8.4672 0.119275C8.11995 -0.104975 7.65495 -0.00372523 7.4307 0.345025L4.0557 5.59502C3.8322 5.94302 3.9327 6.40728 4.28145 6.63153C4.4067 6.71177 4.54695 6.75078 4.68645 6.75078C4.9332 6.75078 5.1747 6.62853 5.31795 6.40578ZM17.363 6.51077C16.9767 6.15902 16.4735 5.97678 15.9545 6.00228C15.4317 6.02628 14.9502 6.25278 14.609 6.62853L11.9532 9.43127C11.9772 9.58877 12.002 9.74627 12.002 9.90977C12.002 11.472 10.8357 12.8168 9.2892 13.0373L6.1002 13.4843C5.68995 13.5428 5.31045 13.2578 5.25195 12.8483C5.19345 12.438 5.47845 12.0585 5.88795 12L9.00945 11.5628C9.71145 11.4623 10.3205 10.9583 10.4645 10.2638C10.6865 9.19503 9.87195 8.25002 8.84145 8.25002H3.0012C1.3452 8.25002 0.00195312 9.59328 0.00195312 11.25V15C0.00195312 16.6568 1.3452 18 3.00195 18H6.19845C8.3022 18 10.3085 17.1165 11.729 15.5655L17.5055 9.25878C18.2165 8.46228 18.152 7.22853 17.3637 6.51003L17.363 6.51077Z" fill="#8C8C91"/>
</g>
<defs>
<clipPath id="clip0_1812_3445">
<rect width="18" height="18" fill="white"/>
</clipPath>
</defs>
</svg>
