<svg width="30" height="30" viewBox="0 0 30 30" fill="none" xmlns="http://www.w3.org/2000/svg">
<g clip-path="url(#clip0_1938_2528)">
<path d="M11.25 15C7.11375 15 3.75 11.6362 3.75 7.5C3.75 3.36375 7.11375 0 11.25 0C15.3862 0 18.75 3.36375 18.75 7.5C18.75 11.6362 15.3862 15 11.25 15ZM16.9937 26.7563C16.015 25.7775 16.015 24.185 16.9937 23.2063L18.7688 21.4313C19.7488 20.4525 21.3412 20.4525 22.3187 21.4313L24.0938 19.6562C22.1362 17.6987 18.9513 17.6987 16.9937 19.6562L15.2188 21.4313C13.2613 23.3888 13.2613 26.5725 15.2163 28.5287C15.2163 28.5287 15.2162 28.53 15.2175 28.5312C17.175 30.4888 20.36 30.4888 22.3187 28.5312L22.7987 28.0513C21.7675 27.9963 20.7475 27.7337 19.8062 27.2575C18.8813 27.6775 17.7537 27.515 16.9937 26.755V26.7563ZM28.5325 15.2188C26.575 13.2613 23.39 13.2613 21.4313 15.2188L20.9513 15.6987C21.9825 15.7537 23.0025 16.0163 23.9438 16.4925C24.8688 16.0725 25.9963 16.235 26.7563 16.995C27.7338 17.9737 27.7338 19.5663 26.7563 20.545L24.9813 22.32C24.0013 23.2988 22.4088 23.2988 21.4313 22.32L19.6562 24.095C20.635 25.0737 21.92 25.5625 23.2063 25.5625C24.4925 25.5625 25.7775 25.0737 26.7563 24.095L28.5312 22.32C30.4888 20.3625 30.4888 17.1775 28.5312 15.22L28.5325 15.2188ZM13.4513 19.6637L15.6138 17.5H6.25C2.79875 17.5 0 20.2987 0 23.75V30H13.2062C10.5475 27.0487 10.6125 22.5025 13.4513 19.6637Z" fill="#1BC469"/>
</g>
<defs>
<clipPath id="clip0_1938_2528">
<rect width="30" height="30" fill="white"/>
</clipPath>
</defs>
</svg>
