<svg width="30" height="30" viewBox="0 0 30 30" fill="none" xmlns="http://www.w3.org/2000/svg">
<path d="M20.5586 13.7501C20.0261 13.7501 19.4986 13.6089 19.0198 13.3289C18.0673 12.7727 17.4998 11.7827 17.4998 10.6802V3.07149C17.4998 1.969 18.0673 0.97901 19.0198 0.422765C19.9723 -0.13098 21.1111 -0.14223 22.0711 0.397765L28.4635 4.21898C29.4147 4.75398 29.9997 5.75397 29.9997 6.87646C29.9997 7.99895 29.4147 8.99894 28.436 9.55018L22.0998 13.3377C21.6098 13.6139 21.0823 13.7501 20.5586 13.7501ZM14.9999 4.85273L11.0862 2.89524C10.5674 2.6365 9.98866 2.50025 9.40992 2.50025H6.24994C2.80373 2.50025 0 5.30397 0 8.75019V10.0002H14.9999V4.85273ZM11.2499 18.7501H7.49993C6.81119 18.7501 6.24994 19.3113 6.24994 20.0001V22.5001C6.24994 23.1888 6.81119 23.7501 7.49993 23.7501H11.2499C11.9386 23.7501 12.4999 23.1888 12.4999 22.5001V20.0001C12.4999 19.3113 11.9386 18.7501 11.2499 18.7501ZM23.3823 15.4326C22.4735 15.9451 21.5173 16.1989 20.5586 16.1989C19.5811 16.1989 18.6123 15.9351 17.7586 15.4364C16.5949 14.7564 15.7586 13.7151 15.3286 12.5002H0V23.7501C0 27.2013 2.79873 30 6.24994 30H23.7498C27.201 30 29.9997 27.2013 29.9997 23.7501V12.5002H28.286L23.3823 15.4326ZM18.7498 23.7288C18.7498 24.775 17.5561 25.3713 16.7186 24.7438L14.8936 23.3476C14.5074 25.0063 13.0236 26.2488 11.2486 26.2488H7.49868C5.4312 26.2488 3.74872 24.5663 3.74872 22.4988V19.9988C3.74872 17.9314 5.4312 16.2489 7.49868 16.2489H11.2486C13.0261 16.2489 14.5099 17.4939 14.8949 19.1563L16.7174 17.7889C17.5536 17.1614 18.7486 17.7589 18.7486 18.8039V23.7276L18.7498 23.7288Z" fill="#1BC469"/>
</svg>
