<svg width="30" height="30" viewBox="0 0 30 30" fill="none" xmlns="http://www.w3.org/2000/svg">
<path d="M19.205 3.29641C16.8988 0.990161 13.7025 -0.208589 10.4362 0.028911C4.77875 0.428911 0 5.73641 0 11.6202V17.9177C0 20.4439 2.0525 22.5002 4.57625 22.5002H10.1725C16.6562 22.5002 22.0587 17.9164 22.4712 12.0639C22.7025 8.79766 21.5112 5.60141 19.205 3.29516V3.29641ZM5.625 13.1252C4.59 13.1252 3.75 12.2852 3.75 11.2502C3.75 10.2152 4.59 9.37516 5.625 9.37516C6.66 9.37516 7.5 10.2152 7.5 11.2502C7.5 12.2852 6.66 13.1252 5.625 13.1252ZM11.25 13.1252C10.215 13.1252 9.375 12.2852 9.375 11.2502C9.375 10.2152 10.215 9.37516 11.25 9.37516C12.285 9.37516 13.125 10.2152 13.125 11.2502C13.125 12.2852 12.285 13.1252 11.25 13.1252ZM16.875 13.1252C15.84 13.1252 15 12.2852 15 11.2502C15 10.2152 15.84 9.37516 16.875 9.37516C17.91 9.37516 18.75 10.2152 18.75 11.2502C18.75 12.2852 17.91 13.1252 16.875 13.1252ZM30 20.0002V26.2502C30 28.3214 28.3212 30.0002 26.25 30.0002H20C16.3062 30.0002 13.0813 27.9814 11.35 24.9952C11.3387 24.9789 11.33 24.9652 11.32 24.9489C18.59 24.4289 24.485 19.0402 24.965 12.2402C24.9862 11.9414 24.9787 11.6439 24.98 11.3464C24.985 11.3477 24.99 11.3489 24.995 11.3502C27.9813 13.0814 30 16.3064 30 20.0002Z" fill="#1BC469"/>
</svg>
