<svg width="30" height="30" viewBox="0 0 30 30" fill="none" xmlns="http://www.w3.org/2000/svg">
<path d="M26.25 10H22.5V5.625C22.5 4.59125 23.3413 3.75 24.375 3.75H25.3463C25.7788 4.49375 26.5763 5 27.5 5C28.8813 5 30 3.88125 30 2.5C30 1.11875 28.8813 0 27.5 0C26.5776 0 25.7801 0.50625 25.3463 1.25H24.375C21.9625 1.25 20 3.2125 20 5.625V10H16.25V4.715C16.9938 4.2825 17.5 3.485 17.5 2.56125C17.5 1.18 16.3813 0.06125 15 0.06125C13.6188 0.06125 12.5 1.18 12.5 2.56125C12.5 3.48375 13.0063 4.28125 13.75 4.715V10H6.25005C5.1763 10 4.16005 9.535 3.4563 8.75125C4.1438 7.98375 5.14255 7.5 6.25005 7.5H10C10.6913 7.5 11.25 6.94 11.25 6.25C11.25 5.56 10.6913 5 10 5H6.25005C2.77755 4.99375 -0.0136994 7.85625 5.05828e-05 11.25V23.75C5.05828e-05 27.1963 2.8038 30 6.25005 30H26.25C28.3176 30 30 28.3175 30 26.25V13.75C30 11.6825 28.3176 10 26.25 10ZM23.125 21.875C22.09 21.875 21.25 21.035 21.25 20C21.25 18.965 22.09 18.125 23.125 18.125C24.16 18.125 25 18.965 25 20C25 21.035 24.16 21.875 23.125 21.875Z" fill="#1BC469"/>
</svg>
