<svg width="30" height="30" viewBox="0 0 30 30" fill="none" xmlns="http://www.w3.org/2000/svg">
<path d="M15 16.525V20.35C15 20.8475 14.5975 21.25 14.1 21.25H10.275C9.91125 21.25 9.5825 21.0312 9.44375 20.695C9.30375 20.3587 9.38125 19.9713 9.63875 19.7137L10.6913 18.6612C9.81 17.93 8.69125 17.5 7.5 17.5C5.51125 17.5 3.7125 18.6775 2.91625 20.5C2.63875 21.1337 1.9025 21.4225 1.27 21.145C0.6375 20.8687 0.34875 20.1313 0.625 19.5C1.82 16.7663 4.51875 15 7.5 15C9.3675 15 11.1237 15.6937 12.47 16.8825L13.4637 15.8888C13.7212 15.6313 14.1075 15.555 14.445 15.6938C14.7812 15.8325 15 16.1613 15 16.525ZM13.73 23.855C13.0975 23.5763 12.3612 23.8663 12.0837 24.5C11.2875 26.3225 9.4875 27.5 7.5 27.5C6.30875 27.5 5.19 27.07 4.30875 26.3387L5.36125 25.2863C5.61875 25.0287 5.69625 24.6425 5.55625 24.305C5.4175 23.9688 5.08875 23.75 4.725 23.75H0.9C0.4025 23.75 0 24.1525 0 24.65V28.475C0 28.8388 0.21875 29.1675 0.555 29.3062C0.8925 29.445 1.27875 29.3687 1.53625 29.1112L2.53 28.1175C3.875 29.3062 5.63125 30 7.5 30C10.4825 30 13.1812 28.2337 14.375 25.5C14.6512 24.8675 14.3625 24.13 13.73 23.855ZM30 8.75V21.25C30 23.3212 28.3212 25 26.25 25H17.1725C17.3787 24.2 17.5 23.365 17.5 22.5V16.25C17.5 14.1788 15.8212 12.5 13.75 12.5H7.5C4.50875 12.5 1.8325 13.82 0 15.9012V6.25C0 2.79875 2.79875 0 6.25 0H28.75C29.4412 0 30 0.56 30 1.25C30 1.94 29.4412 2.5 28.75 2.5H6.25C5.14125 2.5 4.1425 2.98375 3.45625 3.75125C4.16 4.535 5.17625 5 6.25 5H26.25C28.3212 5 30 6.67875 30 8.75ZM26.25 15C26.25 13.965 25.41 13.125 24.375 13.125C23.34 13.125 22.5 13.965 22.5 15C22.5 16.035 23.34 16.875 24.375 16.875C25.41 16.875 26.25 16.035 26.25 15Z" fill="#1BC469"/>
</svg>
