<svg width="30" height="9" viewBox="0 0 30 9" fill="none" xmlns="http://www.w3.org/2000/svg">
<path d="M25.625 0C23.2125 0 21.25 1.9625 21.25 4.375C21.25 6.7875 23.2125 8.75 25.625 8.75C28.0375 8.75 30 6.7875 30 4.375C30 1.9625 28.0375 0 25.625 0ZM25.625 6.25C24.5912 6.25 23.75 5.40875 23.75 4.375C23.75 3.34125 24.5912 2.5 25.625 2.5C26.6588 2.5 27.5 3.34125 27.5 4.375C27.5 5.40875 26.6588 6.25 25.625 6.25ZM19.375 4.375C19.375 6.7875 17.4125 8.75 15 8.75C12.5875 8.75 10.625 6.7875 10.625 4.375C10.625 1.9625 12.5875 0 15 0C17.4125 0 19.375 1.9625 19.375 4.375ZM8.75 4.375C8.75 6.7875 6.7875 8.75 4.375 8.75C1.9625 8.75 0 6.7875 0 4.375C0 1.9625 1.9625 0 4.375 0C6.7875 0 8.75 1.9625 8.75 4.375Z" fill="#1BC469"/>
</svg>
