<svg width="18" height="18" viewBox="0 0 18 18" fill="none" xmlns="http://www.w3.org/2000/svg">
<path d="M9.74775 5.62502C9.74775 6.24602 9.24375 6.75002 8.62275 6.75002C8.00175 6.75002 7.49775 6.24602 7.49775 5.62502C7.49775 5.00402 8.00175 4.50002 8.62275 4.50002C9.24375 4.50002 9.74775 5.00402 9.74775 5.62502ZM4.12275 2.47681e-05C3.50175 2.47681e-05 2.99775 0.504025 2.99775 1.12502C2.99775 1.74602 3.50175 2.25002 4.12275 2.25002C4.74375 2.25002 5.24775 1.74602 5.24775 1.12502C5.24775 0.504025 4.74375 2.47681e-05 4.12275 2.47681e-05ZM5.316 6.40578L8.691 1.15577C8.9145 0.807775 8.814 0.343525 8.46525 0.119275C8.118 -0.104975 7.653 -0.00372523 7.42875 0.345025L4.05375 5.59502C3.83025 5.94302 3.93075 6.40728 4.2795 6.63153C4.40475 6.71177 4.545 6.75078 4.6845 6.75078C4.93125 6.75078 5.17275 6.62853 5.316 6.40578ZM17.361 6.51077C16.9747 6.15902 16.4715 5.97678 15.9525 6.00228C15.4297 6.02628 14.9482 6.25278 14.607 6.62853L11.9512 9.43127C11.9752 9.58877 12 9.74627 12 9.90977C12 11.472 10.8337 12.8168 9.28725 13.0373L6.09825 13.4843C5.688 13.5428 5.3085 13.2578 5.25 12.8483C5.1915 12.438 5.4765 12.0585 5.886 12L9.0075 11.5628C9.7095 11.4623 10.3185 10.9583 10.4625 10.2638C10.6845 9.19503 9.87 8.25002 8.8395 8.25002H2.99925C1.34325 8.25002 0 9.59328 0 11.25V15C0 16.6568 1.34325 18 3 18H6.1965C8.30025 18 10.3065 17.1165 11.727 15.5655L17.5035 9.25878C18.2145 8.46228 18.15 7.22853 17.3617 6.51003L17.361 6.51077Z" fill="#A69F91"/>
</svg>
