<svg width="18" height="18" viewBox="0 0 18 18" fill="none" xmlns="http://www.w3.org/2000/svg">
<g clip-path="url(#clip0_1812_3642)">
<path d="M17.49 3.075C17.0625 2.55 16.425 2.25 15.75 2.25H5.43L5.4 1.9875C5.265 0.855 4.305 0 3.165 0H2.25C1.8375 0 1.5 0.3375 1.5 0.75C1.5 1.1625 1.8375 1.5 2.25 1.5H3.165C3.5475 1.5 3.8625 1.785 3.9075 2.16L4.9425 10.935C5.1675 12.825 6.765 14.25 8.67 14.25H15C15.4125 14.25 15.75 13.9125 15.75 13.5C15.75 13.0875 15.4125 12.75 15 12.75H8.67C7.7025 12.75 6.87 12.1275 6.555 11.25H13.62C15.405 11.25 16.95 9.9825 17.295 8.235L17.955 4.9425C18.09 4.2825 17.9175 3.6 17.49 3.075ZM8.25 16.5C8.25 17.325 7.575 18 6.75 18C5.925 18 5.25 17.325 5.25 16.5C5.25 15.675 5.925 15 6.75 15C7.575 15 8.25 15.675 8.25 16.5ZM15 16.5C15 17.325 14.325 18 13.5 18C12.675 18 12 17.325 12 16.5C12 15.675 12.675 15 13.5 15C14.325 15 15 15.675 15 16.5ZM0 4.5C0 4.0875 0.3375 3.75 0.75 3.75H1.905C2.3175 3.75 2.655 4.0875 2.655 4.5C2.655 4.9125 2.3175 5.25 1.905 5.25H0.75C0.3375 5.25 0 4.9125 0 4.5ZM0 7.5C0 7.0875 0.3375 6.75 0.75 6.75H2.25C2.6625 6.75 3 7.0875 3 7.5C3 7.9125 2.6625 8.25 2.25 8.25H0.75C0.3375 8.25 0 7.9125 0 7.5ZM3.75 10.5C3.75 10.9125 3.4125 11.25 3 11.25H0.75C0.3375 11.25 0 10.9125 0 10.5C0 10.0875 0.3375 9.75 0.75 9.75H3C3.4125 9.75 3.75 10.0875 3.75 10.5Z" fill="#A69F91"/>
</g>
<defs>
<clipPath id="clip0_1812_3642">
<rect width="18" height="18" fill="white"/>
</clipPath>
</defs>
</svg>
