<svg width="27" height="27" viewBox="0 0 27 27" fill="none" xmlns="http://www.w3.org/2000/svg">
<path d="M25.652 4.50994C25.025 3.73994 24.09 3.29994 23.1 3.29994H7.964L7.92 2.91494C7.722 1.25394 6.314 -6.10352e-05 4.642 -6.10352e-05H3.3C2.695 -6.10352e-05 2.2 0.494939 2.2 1.09994C2.2 1.70494 2.695 2.19994 3.3 2.19994H4.642C5.203 2.19994 5.665 2.61794 5.731 3.16794L7.249 16.0379C7.579 18.8099 9.922 20.8999 12.716 20.8999H22C22.605 20.8999 23.1 20.4049 23.1 19.7999C23.1 19.1949 22.605 18.6999 22 18.6999H12.716C11.297 18.6999 10.076 17.7869 9.614 16.4999H19.976C22.594 16.4999 24.86 14.6409 25.366 12.0779L26.334 7.24894C26.532 6.28094 26.279 5.27994 25.652 4.50994ZM12.1 24.1999C12.1 25.4099 11.11 26.3999 9.9 26.3999C8.69 26.3999 7.7 25.4099 7.7 24.1999C7.7 22.9899 8.69 21.9999 9.9 21.9999C11.11 21.9999 12.1 22.9899 12.1 24.1999ZM22 24.1999C22 25.4099 21.01 26.3999 19.8 26.3999C18.59 26.3999 17.6 25.4099 17.6 24.1999C17.6 22.9899 18.59 21.9999 19.8 21.9999C21.01 21.9999 22 22.9899 22 24.1999ZM0 6.59994C0 5.99494 0.495 5.49994 1.1 5.49994H2.794C3.399 5.49994 3.894 5.99494 3.894 6.59994C3.894 7.20494 3.399 7.69994 2.794 7.69994H1.1C0.495 7.69994 0 7.20494 0 6.59994ZM0 10.9999C0 10.3949 0.495 9.89994 1.1 9.89994H3.3C3.905 9.89994 4.4 10.3949 4.4 10.9999C4.4 11.6049 3.905 12.0999 3.3 12.0999H1.1C0.495 12.0999 0 11.6049 0 10.9999ZM5.5 15.3999C5.5 16.0049 5.005 16.4999 4.4 16.4999H1.1C0.495 16.4999 0 16.0049 0 15.3999C0 14.7949 0.495 14.2999 1.1 14.2999H4.4C5.005 14.2999 5.5 14.7949 5.5 15.3999Z" fill="#F3B811"/>
</svg>
