<svg width="27" height="27" viewBox="0 0 27 27" fill="none" xmlns="http://www.w3.org/2000/svg">
<path d="M26.3877 18.1434V18.6934H9.88768C9.81947 18.0005 9.89645 17.301 10.1137 16.6395C10.331 15.978 10.6838 15.3691 11.1495 14.8516C11.6153 14.334 12.1838 13.9193 12.8189 13.6338C13.4539 13.3483 14.1414 13.1983 14.8377 13.1934H21.4377C22.7505 13.1934 24.0095 13.7149 24.9379 14.6432C25.8662 15.5715 26.3877 16.8306 26.3877 18.1434ZM20.0077 22.9053C19.827 23.0257 19.6148 23.0899 19.3977 23.0899C19.1806 23.0899 18.9684 23.0257 18.7878 22.9053L15.765 20.8934H9.88768C9.81964 21.5863 9.89675 22.2857 10.1141 22.9471C10.3314 23.6085 10.6842 24.2174 11.1499 24.7349C11.6157 25.2524 12.1841 25.6671 12.8191 25.9527C13.454 26.2382 14.1415 26.3883 14.8377 26.3934H21.4377C22.1339 26.3885 22.8215 26.2385 23.4565 25.953C24.0915 25.6675 24.6601 25.2528 25.1258 24.7352C25.5916 24.2177 25.9444 23.6088 26.1616 22.9473C26.3789 22.2858 26.4559 21.5863 26.3877 20.8934H23.0327L20.0077 22.9053ZM7.68767 18.1434V21.4434C7.68787 23.2964 8.41084 25.0762 9.70288 26.4044H7.17287C5.8329 26.4028 4.53948 25.9126 3.53507 25.0257C2.53066 24.1387 1.8842 22.9159 1.71687 21.5864L0.0525746 8.3226C-0.0330527 7.84704 -0.013903 7.35852 0.108688 6.89112C0.231279 6.42372 0.45436 5.9887 0.762372 5.61638C1.07038 5.24406 1.45591 4.94342 1.89206 4.73543C2.32821 4.52743 2.80449 4.41709 3.28767 4.4121H10.5664L10.7567 2.8897C10.8566 2.09211 11.2442 1.35842 11.8468 0.82636C12.4493 0.294301 13.2253 0.000461286 14.0292 0H17.5877C17.8794 4.34724e-09 18.1592 0.115893 18.3655 0.322183C18.5718 0.528473 18.6877 0.808262 18.6877 1.1C18.6877 1.39174 18.5718 1.67153 18.3655 1.87782C18.1592 2.08411 17.8794 2.2 17.5877 2.2H14.0292C12.8302 2.2 12.8995 3.5695 12.7818 4.4132H15.3877C15.8808 4.4167 16.3669 4.53005 16.8108 4.74501C17.2546 4.95997 17.6449 5.27113 17.9534 5.65588C18.2619 6.04062 18.4807 6.48927 18.594 6.96921C18.7073 7.44915 18.7123 7.94831 18.6085 8.4304L18.2862 10.9934H14.8377C12.9419 10.9951 11.1243 11.749 9.78379 13.0895C8.44328 14.43 7.68942 16.2476 7.68767 18.1434ZM12.5057 6.6132L12.234 8.7934H16.348L16.4415 8.0509C16.4926 7.88525 16.5042 7.70996 16.4756 7.539C16.4469 7.36804 16.3786 7.20616 16.2762 7.06627C16.1739 6.92638 16.0402 6.81237 15.8859 6.73332C15.7316 6.65427 15.561 6.61238 15.3877 6.611L12.5057 6.6132ZM10.0175 8.7934L10.2914 6.6088H3.28767C3.12338 6.60992 2.9614 6.6476 2.81349 6.71912C2.66557 6.79064 2.53544 6.89419 2.43254 7.02227C2.32963 7.15035 2.25654 7.29973 2.21856 7.45958C2.18058 7.61943 2.17867 7.78572 2.21297 7.9464L2.32297 8.7934H10.0175Z" fill="#CD7F32"/>
</svg>
