<svg width="27" height="27" viewBox="0 0 27 27" fill="none" xmlns="http://www.w3.org/2000/svg">
<path d="M14.2967 8.25004C14.2967 9.16084 13.5575 9.90004 12.6467 9.90004C11.7359 9.90004 10.9967 9.16084 10.9967 8.25004C10.9967 7.33924 11.7359 6.60004 12.6467 6.60004C13.5575 6.60004 14.2967 7.33924 14.2967 8.25004ZM6.0467 3.63266e-05C5.1359 3.63266e-05 4.3967 0.739236 4.3967 1.65004C4.3967 2.56084 5.1359 3.30004 6.0467 3.30004C6.9575 3.30004 7.6967 2.56084 7.6967 1.65004C7.6967 0.739236 6.9575 3.63266e-05 6.0467 3.63266e-05ZM7.7968 9.39514L12.7468 1.69514C13.0746 1.18474 12.9272 0.503836 12.4157 0.174936C11.9064 -0.153964 11.2244 -0.00546367 10.8955 0.506036L5.9455 8.20604C5.6177 8.71644 5.7651 9.39734 6.2766 9.72624C6.4603 9.84394 6.666 9.90114 6.8706 9.90114C7.2325 9.90114 7.5867 9.72184 7.7968 9.39514ZM25.4628 9.54914C24.8963 9.03324 24.1582 8.76594 23.397 8.80334C22.6303 8.83854 21.9241 9.17074 21.4236 9.72184L17.5285 13.8325C17.5637 14.0635 17.6 14.2945 17.6 14.5343C17.6 16.8256 15.8895 18.7979 13.6213 19.1213L8.9441 19.7769C8.3424 19.8627 7.7858 19.4447 7.7 18.8441C7.6142 18.2424 8.0322 17.6858 8.6328 17.6L13.211 16.9587C14.2406 16.8113 15.1338 16.0721 15.345 15.0535C15.6706 13.486 14.476 12.1 12.9646 12.1H4.3989C1.9701 12.1 0 14.0701 0 16.5V22C0 24.4299 1.9701 26.4 4.4 26.4H9.0882C12.1737 26.4 15.1162 25.1042 17.1996 22.8294L25.6718 13.5795C26.7146 12.4113 26.62 10.6018 25.4639 9.54804L25.4628 9.54914Z" fill="#CD7F32"/>
</svg>
