<svg width="35" height="35" viewBox="0 0 35 35" fill="none" xmlns="http://www.w3.org/2000/svg">
<g clip-path="url(#clip0_7_44085)">
<path d="M6.40172 24.2835C6.76703 24.1008 7.47578 23.7475 7.47578 22.4886C7.47578 21.5852 6.92672 20.241 4.7775 20.241H0.519531V29.0052H4.23063C6.02547 29.0052 6.50125 28.7 7.00109 28.2089C7.46266 27.7605 7.75578 27.0988 7.75578 26.4064C7.75578 25.5391 7.47578 24.6849 6.40172 24.2835ZM2.27828 21.758H4.37828C5.20734 21.758 5.72031 21.9767 5.72031 22.6964C5.72031 23.3942 5.14828 23.6742 4.42531 23.6742H2.27828V21.758ZM4.52156 27.4914H2.27828V25.1475H4.60906C5.26969 25.1475 5.92703 25.4439 5.92703 26.2096C5.92484 27.0988 5.41187 27.4914 4.52156 27.4914Z" fill="#ED1C24"/>
<path d="M0.52063 30.3931V31.1893H1.87688V34.8829H2.81204V31.1893H4.17157V30.3931H0.52063Z" fill="#ED1C24"/>
<path d="M30.6971 23.8294L34.2737 20.2397H31.9068L28.5621 23.8021V20.2397H26.7312V29.0018H28.5621V26.0366L29.4164 25.1572L32.1245 29.0018H34.4804L30.6971 23.8294Z" fill="#ED1C24"/>
<path d="M13.5199 20.2397H11.4089L8.28735 29.0029H10.2145L10.8238 27.1982H14.058L14.6202 29.0018H16.6086L13.5199 20.2397ZM11.3116 25.6822L12.4349 22.2172H12.46L13.545 25.6822H11.3116Z" fill="#ED1C24"/>
<path d="M21.688 3.06797C21.1389 2.41938 20.5341 1.81453 19.8231 1.29062C19.4709 1.02594 19.0947 0.782031 18.6824 0.563281C18.2667 0.348906 17.8413 0.142187 17.3327 0C17.3414 0.528281 17.4333 0.993125 17.5416 1.44813C17.6444 1.89 17.7833 2.30453 17.9452 2.70266C17.558 2.81641 17.0877 2.97609 16.5583 3.18172C16.2159 3.33484 15.8408 3.47266 15.4624 3.67719C15.0784 3.86094 14.6891 4.08406 14.2942 4.33344C13.8928 4.55984 13.5188 4.88141 13.1261 5.15922C12.7684 5.49937 12.3758 5.79359 12.0575 6.17969C11.7283 6.54938 11.4067 6.91906 11.1584 7.33906C11.0327 7.54359 10.8872 7.73281 10.7822 7.94172C10.6816 8.15391 10.5853 8.365 10.4913 8.57063C10.278 8.96875 10.1806 9.3975 10.0691 9.78797C9.93673 10.1752 9.8897 10.5547 9.8536 10.9047C9.82407 11.2536 9.75079 11.562 9.76829 11.8464C9.77704 12.1264 9.7836 12.3692 9.79017 12.5705C9.8022 12.9675 9.80548 13.1939 9.80548 13.1939C9.80548 13.1939 9.84813 12.9697 9.92032 12.5792C9.95642 12.3856 10.0013 12.1527 10.0527 11.8836C10.0931 11.6156 10.232 11.3313 10.3283 11.0173C10.4311 10.7034 10.5503 10.3687 10.7472 10.0472C10.9266 9.72016 11.0895 9.36687 11.3542 9.06172C11.4734 8.90531 11.5959 8.74344 11.7174 8.58266C11.8453 8.42625 12.0094 8.29172 12.1505 8.14516C12.4283 7.84219 12.7674 7.59719 13.1031 7.35437C13.4236 7.09953 13.8141 6.92781 14.152 6.71891C14.537 6.56469 14.8761 6.37219 15.2545 6.26062C15.6155 6.12937 15.9709 6.01891 16.3188 5.94016C16.6567 5.84172 16.9969 5.79797 17.2933 5.73453C17.4836 5.70719 17.6586 5.68422 17.827 5.66344C17.8074 5.71375 17.7866 5.76188 17.7691 5.81328C17.5963 6.28688 17.4617 6.78453 17.3677 7.30844C17.325 7.57422 17.29 7.84328 17.2627 8.11781C17.2408 8.39672 17.2364 8.68547 17.2561 8.98953C17.5416 8.88016 17.8008 8.75656 18.0469 8.62203C18.2842 8.48312 18.5172 8.33875 18.7392 8.19C19.18 7.88703 19.577 7.55781 19.9358 7.20562C20.662 6.50344 21.2625 5.71922 21.7667 4.87594L21.8313 4.76875C22.1408 4.24484 22.1047 3.55906 21.688 3.06797Z" fill="#ED1C24"/>
<path d="M8.28844 33.868C8.28844 33.0302 8.08719 32.8924 7.71859 32.7305C8.16266 32.5807 8.41313 32.1574 8.41313 31.6597C8.41313 31.2726 8.19547 30.3921 7.00109 30.3921H4.73047V34.8797H5.65141V33.1243H6.61938C7.31391 33.1243 7.35219 33.3627 7.35219 33.973C7.35219 34.4346 7.38828 34.6687 7.45062 34.8787H8.48859V34.7616C8.28844 34.6872 8.28844 34.5232 8.28844 33.868ZM6.74734 32.3707H5.65031V31.1676H6.81844C7.3675 31.1676 7.47469 31.5154 7.47469 31.7549C7.47359 32.1968 7.23734 32.3707 6.74734 32.3707Z" fill="#ED1C24"/>
<path d="M25.527 31.1893V30.3931H22.3333V34.884H23.2717V32.9962H25.247V32.2021H23.2717V31.1893H25.527Z" fill="#ED1C24"/>
<path d="M27.0757 34.0867V32.9273H29.2632V32.1332H27.0757V31.1904H29.459V30.3953H26.157V34.8829H29.564V34.0867H27.0757Z" fill="#ED1C24"/>
<path d="M20.4433 32.3235L19.3517 32.0544C19.1636 32.0096 18.8748 31.9341 18.8748 31.5841C18.8748 31.1783 19.3025 31.0482 19.6569 31.0482C20.4772 31.0482 20.5526 31.5218 20.5778 31.7219H21.4747C21.4681 31.1718 21.1006 30.2727 19.7247 30.2727C18.2678 30.2727 17.9998 31.1532 17.9998 31.653C17.9998 32.6418 18.6987 32.8069 19.425 32.9732L19.9051 33.0869C20.3787 33.2018 20.7178 33.2936 20.7178 33.6458C20.7178 34.115 20.2223 34.2244 19.7815 34.2244C18.9612 34.2244 18.8354 33.7497 18.8289 33.4993H17.932C17.932 34.0582 18.2109 34.9999 19.8494 34.9999C20.2409 34.9999 21.6179 34.8774 21.6179 33.531C21.6168 32.7249 21.0547 32.4722 20.4433 32.3235Z" fill="#ED1C24"/>
<path d="M33.8866 33.868C33.8866 33.0302 33.6832 32.8924 33.3167 32.7305C33.7586 32.5807 34.0135 32.1574 34.0135 31.6597C34.0135 31.2726 33.7936 30.3921 32.5992 30.3921H30.3308V34.8797H31.2517V33.1243H32.2197C32.9121 33.1243 32.9525 33.3627 32.9525 33.973C32.9525 34.4346 32.9886 34.6687 33.0521 34.8787H34.0867V34.7616C33.8866 34.6872 33.8866 34.5232 33.8866 33.868ZM32.3488 32.3707H31.2507V31.1676H32.4166C32.9678 31.1676 33.075 31.5154 33.075 31.7549C33.075 32.1968 32.8377 32.3707 32.3488 32.3707Z" fill="#ED1C24"/>
<path d="M23.1274 20.2432V26.3441H23.1044L19.6252 20.2432H17.6969V29.0063H19.4053L19.4075 22.7588H19.4305L23.0071 29.0074H24.8358V20.2432H23.1274Z" fill="#ED1C24"/>
<path d="M11.4559 30.3931H10.372L8.77185 34.8807H9.7606L10.0723 33.9543H11.7283L12.017 34.8807H13.0364L11.4559 30.3931ZM10.3239 33.1799L10.9003 31.4059H10.909L11.469 33.1799H10.3239Z" fill="#ED1C24"/>
<path d="M16.38 30.3931L16.3789 33.5168H16.368L14.5841 30.3931H13.5975V34.8807H14.4714V31.6793H14.4857L16.3166 34.8807H17.2561V30.3931H16.38Z" fill="#ED1C24"/>
<path d="M24.0155 6.19059C23.9947 5.79465 23.9772 5.56934 23.9772 5.56934C23.9772 5.56934 23.9455 5.79355 23.8788 6.18621C23.8471 6.3798 23.811 6.61496 23.7683 6.88512C23.7355 7.15418 23.6054 7.44184 23.5179 7.75902C23.4271 8.07621 23.3188 8.41309 23.1307 8.74121C22.9622 9.07371 22.8102 9.43027 22.5543 9.74418C22.4405 9.90496 22.3235 10.069 22.2075 10.2353C22.0818 10.3939 21.9243 10.5339 21.7832 10.6848C21.5163 10.9943 21.1849 11.2514 20.8557 11.5029C20.5461 11.7676 20.1589 11.9492 19.8264 12.169C19.448 12.3342 19.1144 12.5376 18.7393 12.659C18.3838 12.8023 18.0305 12.9226 17.6849 13.0112C17.3513 13.1206 17.0144 13.1742 16.7191 13.2453C16.5299 13.2792 16.3538 13.3076 16.1875 13.3328C16.2029 13.2814 16.2236 13.2332 16.2411 13.1818C16.3986 12.7017 16.5189 12.2007 16.5977 11.6746C16.6316 11.4078 16.6568 11.1376 16.6764 10.862C16.6907 10.5831 16.6863 10.2932 16.6589 9.99137C16.3768 10.1073 16.1208 10.2396 15.8791 10.3818C15.6439 10.5273 15.4197 10.6782 15.1999 10.8336C14.7711 11.1496 14.3839 11.4898 14.0361 11.854C13.3318 12.577 12.7554 13.3787 12.2763 14.2373L12.2139 14.3445C11.9197 14.8782 11.9766 15.5618 12.4086 16.0409C12.9774 16.672 13.6008 17.2593 14.3249 17.7614C14.6836 18.0162 15.0675 18.2481 15.4886 18.4537C15.9075 18.6571 16.3385 18.8518 16.8536 18.9776C16.8263 18.4515 16.7191 17.99 16.6021 17.5382C16.485 17.0996 16.3352 16.6884 16.1602 16.2957C16.5452 16.17 17.0079 15.9971 17.5318 15.7762C17.8686 15.6143 18.2394 15.4634 18.6124 15.2479C18.9886 15.0543 19.3736 14.8192 19.7554 14.5578C20.1491 14.3193 20.5144 13.9868 20.9005 13.697C21.2472 13.3481 21.6311 13.0396 21.9385 12.6459C22.2568 12.2664 22.5652 11.889 22.8014 11.4614C22.9218 11.2525 23.0585 11.0589 23.1591 10.8467C23.251 10.6312 23.3429 10.4179 23.4304 10.209C23.6316 9.80434 23.7169 9.3723 23.8175 8.97965C23.9357 8.59027 23.975 8.20855 23.9991 7.85855C24.0221 7.50965 24.0822 7.19793 24.0582 6.91465C24.0396 6.63574 24.0264 6.39184 24.0155 6.19059Z" fill="#ED1C24"/>
</g>
<defs>
<clipPath id="clip0_7_44085">
<rect width="35" height="35" fill="white"/>
</clipPath>
</defs>
</svg>
