<svg width="12" height="12" viewBox="0 0 12 12" fill="none" xmlns="http://www.w3.org/2000/svg">
<path d="M7.44871 6.63259H8.10274C9.95842 6.63259 11.4686 5.14513 11.4686 3.31629C11.4686 1.48769 9.95865 0 8.10274 0H0.642077C0.287399 0 0 0.283402 0 0.632631C0 0.982092 0.287634 1.26526 0.642077 1.26526H8.10298C9.2507 1.26526 10.1844 2.18522 10.1844 3.31606C10.1844 4.4469 9.2507 5.36686 8.10298 5.36686H7.44894C7.09427 5.36686 6.80687 5.65026 6.80687 5.99949C6.80687 6.34872 7.09427 6.63259 7.44871 6.63259Z" fill="#F3B811"/>
<path d="M0.642077 0H8.10274C9.95865 0 11.4686 1.48769 11.4686 3.31629C11.4686 5.14513 9.95842 6.63259 8.10274 6.63259H7.44871C7.09403 6.63259 6.80672 6.34918 6.80672 5.99995C6.80672 5.65073 7.09435 5.36732 7.44879 5.36732H8.10283C9.25055 5.36732 10.1842 4.44736 10.1842 3.31653C10.1842 2.18569 9.25055 1.26572 8.10283 1.26572H0.642161C0.287483 1.26572 8.3882e-05 0.982322 8.3882e-05 0.633093C-0.000150538 0.283402 0.287399 0 0.642077 0Z" fill="#F3B811"/>
<path d="M3.89703 12H11.3579C11.7126 12 12 11.7166 12 11.3674C12 11.0181 11.7124 10.7347 11.3579 10.7347H3.89703C2.7493 10.7347 1.81561 9.81478 1.81561 8.68394C1.81561 7.5531 2.7493 6.63314 3.89703 6.63314H4.55106C4.90574 6.63314 5.19314 6.34974 5.19314 6.00051C5.19314 5.65128 4.9055 5.36788 4.55106 5.36788H3.89703C2.04135 5.36788 0.531218 6.85534 0.531218 8.68417C0.531218 10.5125 2.04112 12 3.89703 12Z" fill="#F3B811"/>
<path d="M3.89703 5.36737H4.55106C4.90574 5.36737 5.19314 5.65077 5.19314 6C5.19314 6.34923 4.9055 6.63263 4.55106 6.63263H3.89703C2.7493 6.63263 1.81561 7.55259 1.81561 8.68343C1.81561 9.81404 2.7493 10.7342 3.89703 10.7342H11.3579C11.7126 10.7342 12 11.0176 12 11.3669C12 11.7161 11.7124 11.9995 11.3579 11.9995H3.89703C2.04135 11.9995 0.531218 10.512 0.531218 8.6832C0.531218 6.85483 2.04112 5.36737 3.89703 5.36737Z" fill="#F3B811"/>
<path d="M6.3568 8.57452C6.51175 8.57452 6.66741 8.51955 6.79071 8.40799C7.05209 8.17194 7.06967 7.77166 6.83009 7.51413L3.21533 3.6308C2.97575 3.3728 2.5695 3.35548 2.30813 3.59222C2.04651 3.82828 2.02917 4.22855 2.26874 4.48609L5.8835 8.36942C6.01009 8.50569 6.18309 8.57452 6.3568 8.57452Z" fill="#F3B811"/>
<path d="M9.25467 8.57441C9.40962 8.57441 9.56528 8.51944 9.68858 8.40788C9.9502 8.17183 9.96754 7.77156 9.72797 7.51402L6.11321 3.63069C5.87339 3.37269 5.46738 3.35537 5.206 3.59212C4.94439 3.82817 4.92704 4.22845 5.16662 4.48598L8.78138 8.36931C8.90797 8.50558 9.08097 8.57441 9.25467 8.57441Z" fill="#F3B811"/>
</svg>
