<svg width="22" height="22" viewBox="0 0 22 22" fill="none" xmlns="http://www.w3.org/2000/svg">
<path d="M10.9951 18.071C14.9022 18.071 18.0694 14.9037 18.0694 10.9967C18.0694 7.08964 14.9022 3.92236 10.9951 3.92236C7.08811 3.92236 3.92084 7.08964 3.92084 10.9967C3.92084 14.9037 7.08811 18.071 10.9951 18.071Z" fill="url(#paint0_linear_7_43428)"/>
<path d="M19.7164 2.63551L18.9115 3.3567C17.4863 1.88164 15.677 0.834431 13.688 0.333331C11.699 -0.167769 9.60957 -0.102802 7.65556 0.520895C5.70155 1.14459 3.96083 2.30218 2.62997 3.86293C1.29911 5.42369 0.431122 7.32544 0.124011 9.35345C-0.1831 11.3815 0.082904 13.4549 0.891986 15.3398C1.70107 17.2246 3.021 18.8457 4.70273 20.0199C6.38446 21.1942 8.36101 21.8749 10.4092 21.9852C12.4573 22.0954 14.4955 21.6309 16.2936 20.6439C16.385 20.5938 16.4528 20.5094 16.482 20.4093C16.5112 20.3092 16.4994 20.2016 16.4493 20.1102C16.3991 20.0188 16.3147 19.951 16.2146 19.9219C16.1145 19.8927 16.007 19.9044 15.9155 19.9546C14.2462 20.8723 12.3535 21.3051 10.4512 21.2043C8.5489 21.1035 6.71263 20.473 5.1496 19.384C3.58656 18.295 2.359 16.7908 1.60541 15.0413C0.851828 13.2917 0.602223 11.3663 0.884764 9.48236C1.16731 7.59844 1.97075 5.83099 3.20442 4.37943C4.4381 2.92788 6.05291 1.85001 7.86664 1.26745C9.68036 0.684884 11.6208 0.620822 13.469 1.08249C15.3172 1.54415 16.9996 2.51317 18.3263 3.8802L17.3493 4.75584C17.3194 4.78201 17.2982 4.81662 17.2884 4.85511C17.2785 4.8936 17.2806 4.93415 17.2943 4.97143C17.308 5.00871 17.3327 5.04096 17.3651 5.06393C17.3975 5.08691 17.4361 5.09952 17.4758 5.10012H19.843C19.8941 5.09889 19.9427 5.07781 19.9785 5.04134C20.0143 5.00488 20.0345 4.9559 20.0348 4.90479V2.7825C20.0355 2.74531 20.0254 2.70871 20.0056 2.67718C19.9859 2.64564 19.9574 2.62055 19.9236 2.60495C19.8899 2.58936 19.8523 2.58394 19.8155 2.58937C19.7787 2.5948 19.7442 2.61083 19.7164 2.63551Z" fill="url(#paint1_linear_7_43428)"/>
<path d="M20.9976 14.9268C20.9526 14.9267 20.9079 14.919 20.8655 14.904C20.8169 14.8866 20.7722 14.8599 20.7339 14.8253C20.6956 14.7906 20.6645 14.7488 20.6424 14.7022C20.6203 14.6555 20.6076 14.605 20.605 14.5534C20.6024 14.5019 20.61 14.4503 20.6274 14.4017C20.8025 13.9085 20.939 13.4025 21.0357 12.8882C21.0552 12.7858 21.1146 12.6953 21.2008 12.6367C21.287 12.578 21.3929 12.556 21.4953 12.5755C21.5977 12.595 21.6882 12.6544 21.7468 12.7406C21.8055 12.8268 21.8275 12.9328 21.808 13.0352C21.7035 13.5892 21.5563 14.1344 21.3678 14.6658C21.3405 14.7422 21.2903 14.8083 21.2241 14.855C21.1578 14.9017 21.0787 14.9268 20.9976 14.9268Z" fill="url(#paint2_linear_7_43428)"/>
<path d="M18.5296 18.8568C18.4523 18.8565 18.3769 18.8334 18.3127 18.7905C18.2484 18.7475 18.1983 18.6866 18.1685 18.6153C18.1388 18.544 18.1307 18.4655 18.1452 18.3896C18.1598 18.3138 18.1965 18.2439 18.2505 18.1887C18.7105 17.725 19.1248 17.2182 19.4878 16.6752C19.5456 16.5885 19.6355 16.5283 19.7378 16.5079C19.84 16.4874 19.9461 16.5085 20.0329 16.5663C20.1196 16.6242 20.1798 16.7141 20.2002 16.8163C20.2206 16.9186 20.1996 17.0247 20.1417 17.1114C19.7506 17.6955 19.3042 18.2405 18.8086 18.7389C18.7722 18.7761 18.7288 18.8056 18.6809 18.8258C18.633 18.8461 18.5816 18.8566 18.5296 18.8568Z" fill="url(#paint3_linear_7_43428)"/>
<path d="M21.6065 10.9968C21.5047 10.9968 21.4069 10.9574 21.3336 10.8868C21.2603 10.8163 21.2172 10.72 21.2134 10.6183C21.1951 10.1108 21.1376 9.60541 21.0413 9.10675C21.0229 9.00507 21.0453 8.90024 21.1036 8.81495C21.162 8.72966 21.2516 8.67077 21.353 8.65104C21.4544 8.6313 21.5595 8.6523 21.6456 8.70949C21.7316 8.76668 21.7917 8.85547 21.8128 8.95662C21.9171 9.49518 21.9795 10.041 21.9995 10.5892C22.0014 10.6408 21.9932 10.6923 21.9752 10.7408C21.9572 10.7892 21.9299 10.8336 21.8947 10.8715C21.8596 10.9093 21.8173 10.9399 21.7703 10.9614C21.7234 10.9829 21.6726 10.9949 21.621 10.9968H21.6065Z" fill="url(#paint4_linear_7_43428)"/>
<path d="M12.1066 11.4833H12.6062C14.0238 11.4833 15.1774 10.3471 15.1774 8.95004C15.1774 7.55318 14.024 6.41675 12.6062 6.41675H6.9071C6.63617 6.41675 6.41663 6.63324 6.41663 6.90001C6.41663 7.16696 6.63635 7.38327 6.9071 7.38327H12.6064C13.4832 7.38327 14.1964 8.08602 14.1964 8.94986C14.1964 9.8137 13.4832 10.5165 12.6064 10.5165H12.1068C11.8359 10.5165 11.6163 10.7329 11.6163 10.9997C11.6163 11.2665 11.8359 11.4833 12.1066 11.4833Z" fill="white"/>
<path d="M6.9071 6.41675H12.6062C14.024 6.41675 15.1774 7.55318 15.1774 8.95004C15.1774 10.3471 14.0238 11.4833 12.6062 11.4833H12.1066C11.8357 11.4833 11.6162 11.2668 11.6162 11.0001C11.6162 10.7333 11.8359 10.5168 12.1067 10.5168H12.6063C13.483 10.5168 14.1963 9.81405 14.1963 8.95022C14.1963 8.08638 13.483 7.38362 12.6063 7.38362H6.90717C6.63623 7.38362 6.41669 7.16714 6.41669 6.90036C6.41651 6.63324 6.63617 6.41675 6.9071 6.41675Z" fill="white"/>
<path d="M9.39353 15.5835H15.0929C15.3638 15.5835 15.5833 15.367 15.5833 15.1002C15.5833 14.8334 15.3636 14.6169 15.0929 14.6169H9.39353C8.5168 14.6169 7.80355 13.9142 7.80355 13.0503C7.80355 12.1865 8.5168 11.4838 9.39353 11.4838H9.89314C10.1641 11.4838 10.3836 11.2673 10.3836 11.0005C10.3836 10.7337 10.1639 10.5172 9.89314 10.5172H9.39353C7.976 10.5172 6.82242 11.6535 6.82242 13.0505C6.82242 14.4472 7.97582 15.5835 9.39353 15.5835Z" fill="white"/>
<path d="M9.39353 10.5168H9.89314C10.1641 10.5168 10.3836 10.7333 10.3836 11.0001C10.3836 11.2669 10.1639 11.4834 9.89314 11.4834H9.39353C8.5168 11.4834 7.80355 12.1861 7.80355 13.05C7.80355 13.9136 8.5168 14.6165 9.39353 14.6165H15.0929C15.3638 14.6165 15.5833 14.833 15.5833 15.0998C15.5833 15.3666 15.3636 15.5831 15.0929 15.5831H9.39353C7.976 15.5831 6.82242 14.4468 6.82242 13.0498C6.82242 11.6531 7.97582 10.5168 9.39353 10.5168Z" fill="white"/>
<path d="M11.2725 12.9668C11.3909 12.9668 11.5098 12.9248 11.604 12.8395C11.8037 12.6592 11.8171 12.3535 11.6341 12.1567L8.87279 9.19028C8.68978 8.9932 8.37945 8.97997 8.17978 9.16082C7.97994 9.34114 7.96669 9.64691 8.1497 9.84363L10.911 12.8101C11.0077 12.9142 11.1398 12.9668 11.2725 12.9668Z" fill="white"/>
<path d="M13.4862 12.9667C13.6046 12.9667 13.7235 12.9247 13.8177 12.8395C14.0175 12.6591 14.0308 12.3534 13.8477 12.1567L11.0865 9.1902C10.9033 8.99312 10.5931 8.97989 10.3934 9.16074C10.1936 9.34106 10.1804 9.64682 10.3634 9.84355L13.1247 12.81C13.2213 12.9141 13.3535 12.9667 13.4862 12.9667Z" fill="white"/>
<defs>
<linearGradient id="paint0_linear_7_43428" x1="10.9951" y1="3.92236" x2="10.9951" y2="18.071" gradientUnits="userSpaceOnUse">
<stop stop-color="#FFD270"/>
<stop offset="1" stop-color="#F79F63"/>
</linearGradient>
<linearGradient id="paint1_linear_7_43428" x1="10.0128" y1="-0.00791845" x2="10.0128" y2="22.001" gradientUnits="userSpaceOnUse">
<stop stop-color="#F2756B"/>
<stop offset="1" stop-color="#C44747"/>
</linearGradient>
<linearGradient id="paint2_linear_7_43428" x1="21.2098" y1="12.5687" x2="21.2098" y2="14.9268" gradientUnits="userSpaceOnUse">
<stop stop-color="#F2756B"/>
<stop offset="1" stop-color="#C44747"/>
</linearGradient>
<linearGradient id="paint3_linear_7_43428" x1="19.1722" y1="16.4987" x2="19.1722" y2="18.8568" gradientUnits="userSpaceOnUse">
<stop stop-color="#F2756B"/>
<stop offset="1" stop-color="#C44747"/>
</linearGradient>
<linearGradient id="paint4_linear_7_43428" x1="21.5169" y1="8.63828" x2="21.5169" y2="10.9968" gradientUnits="userSpaceOnUse">
<stop stop-color="#F2756B"/>
<stop offset="1" stop-color="#C44747"/>
</linearGradient>
</defs>
</svg>
