<svg width="35" height="35" viewBox="0 0 35 35" fill="none" xmlns="http://www.w3.org/2000/svg">
<path d="M32.0263 11.5719C30.8437 12.651 29.2851 13.1769 27.7197 13.0266L26.5234 12.9105C24.9511 12.7603 23.3652 13.0676 21.9502 13.8052L21.3828 14.0988C20.5556 14.5291 19.5371 14.2081 19.1064 13.3612C18.6894 12.5349 18.9628 11.5173 19.7216 11.0392L20.2412 10.7114C21.5195 9.89872 22.8525 9.18846 24.2334 8.5943C25.1904 8.18454 24.8964 7.67916 24.6914 7.57672L23.0097 6.77085C21.4511 6.02644 19.7285 5.7396 18.0263 5.93083C16.3994 6.11522 14.8613 6.81865 13.624 7.93868C13.0293 8.4782 12.1543 8.50552 11.5253 8.00014C10.6503 7.29671 10.6709 5.91034 11.5664 5.23423L12.1953 4.75617C13.665 3.64297 15.3603 2.89856 17.1445 2.57758L17.5478 2.50245C19.8242 2.08586 22.1552 2.0722 24.4384 2.45465L28.4853 3.44492C30.1396 3.84785 31.8554 3.9298 33.5371 3.67712L34.3369 3.56102C34.6855 3.50638 35 3.79322 35 4.16201V10.4451C35 10.7797 34.7402 11.0529 34.4189 11.0529H33.3662C32.874 11.0461 32.3955 11.2373 32.0263 11.5719Z" fill="url(#paint0_linear_7_44022)"/>
<path d="M30.7617 19.2894C30.7617 19.9996 29.9961 20.4504 29.374 20.1021C25.5049 17.944 21.6016 19.2757 17.5068 21.0309C13.1045 22.9158 8.9209 24.3158 4.77832 21.4202C4.4502 21.188 4.25195 20.8123 4.25195 20.4094V7.56325C4.25195 6.85299 5.01758 6.40225 5.63965 6.75055C9.50879 8.90865 13.4121 7.57691 17.5068 5.82175C21.9092 3.93682 26.0859 2.53679 30.2353 5.43247C30.5635 5.66467 30.7617 6.04029 30.7617 6.44322V19.2894Z" fill="url(#paint1_linear_7_44022)"/>
<path d="M30.7617 19.2894C30.7617 19.9996 29.9961 20.4504 29.374 20.1021C25.5049 17.944 21.6016 19.2757 17.5068 21.0309C13.1045 22.9158 8.9209 24.3158 4.77832 21.4202C4.4502 21.188 4.25195 20.8123 4.25195 20.4094V7.56325C4.25195 6.85299 5.01758 6.40225 5.63965 6.75055C9.50879 8.90865 13.4121 7.57691 17.5068 5.82175C21.9092 3.93682 26.0859 2.53679 30.2353 5.43247C30.5635 5.66467 30.7617 6.04029 30.7617 6.44322V19.2894Z" fill="url(#paint2_linear_7_44022)"/>
<path d="M18.0521 13.818H18.3466C19.1821 13.818 19.8621 13.1487 19.8621 12.3256C19.8621 11.5027 19.1822 10.8333 18.3466 10.8333H14.9873C14.8276 10.8333 14.6982 10.9608 14.6982 11.1179C14.6982 11.2752 14.8277 11.4026 14.9873 11.4026H18.3467C18.8635 11.4026 19.2839 11.8166 19.2839 12.3255C19.2839 12.8344 18.8635 13.2484 18.3467 13.2484H18.0522C17.8925 13.2484 17.7631 13.376 17.7631 13.5331C17.7631 13.6903 17.8925 13.818 18.0521 13.818Z" fill="#F2BE1D"/>
<path d="M14.9872 10.8333H18.3466C19.1821 10.8333 19.8621 11.5027 19.8621 12.3256C19.8621 13.1486 19.1822 13.818 18.3466 13.818H18.0521C17.8924 13.818 17.763 13.6905 17.763 13.5333C17.763 13.3762 17.8925 13.2486 18.0521 13.2486H18.3466C18.8633 13.2486 19.2838 12.8346 19.2838 12.3258C19.2838 11.8169 18.8633 11.4029 18.3466 11.4029H14.9873C14.8276 11.4029 14.6982 11.2753 14.6982 11.1182C14.6981 10.9608 14.8275 10.8333 14.9872 10.8333Z" fill="#F2BE1D"/>
<path d="M16.4476 16.2353H19.807C19.9667 16.2353 20.0961 16.1078 20.0961 15.9506C20.0961 15.7935 19.9666 15.6659 19.807 15.6659H16.4476C15.9309 15.6659 15.5104 15.2519 15.5104 14.743C15.5104 14.2341 15.9309 13.8201 16.4476 13.8201H16.7421C16.9018 13.8201 17.0312 13.6926 17.0312 13.5354C17.0312 13.3783 16.9017 13.2507 16.7421 13.2507H16.4476C15.6121 13.2507 14.9321 13.9201 14.9321 14.7431C14.9321 15.5659 15.612 16.2353 16.4476 16.2353Z" fill="#F2BE1D"/>
<path d="M16.4478 13.2476H16.7422C16.9019 13.2476 17.0313 13.3751 17.0313 13.5323C17.0313 13.6894 16.9018 13.8169 16.7422 13.8169H16.4478C15.931 13.8169 15.5106 14.2309 15.5106 14.7398C15.5106 15.2486 15.931 15.6627 16.4478 15.6627H19.8071C19.9668 15.6627 20.0962 15.7903 20.0962 15.9474C20.0962 16.1046 19.9667 16.2321 19.8071 16.2321H16.4478C15.6122 16.2321 14.9323 15.5628 14.9323 14.7397C14.9323 13.9169 15.6121 13.2476 16.4478 13.2476Z" fill="#F2BE1D"/>
<path d="M17.5656 14.692C17.6354 14.692 17.7055 14.6672 17.761 14.617C17.8787 14.5108 17.8866 14.3307 17.7787 14.2148L16.1512 12.4672C16.0433 12.3511 15.8604 12.3433 15.7427 12.4498C15.6249 12.5561 15.6171 12.7362 15.725 12.8521L17.3525 14.5997C17.4095 14.661 17.4874 14.692 17.5656 14.692Z" fill="#F2BE1D"/>
<path d="M18.8654 14.692C18.9352 14.692 19.0053 14.6672 19.0608 14.617C19.1786 14.5108 19.1864 14.3307 19.0785 14.2148L17.4509 12.4672C17.343 12.3511 17.1601 12.3433 17.0425 12.4498C16.9247 12.5561 16.9169 12.7362 17.0247 12.8521L18.6523 14.5997C18.7093 14.661 18.7872 14.692 18.8654 14.692Z" fill="#F2BE1D"/>
<path d="M28.7451 6.28617C27.5967 5.62371 26.3867 5.2959 25.0674 5.2959C23.0098 5.2959 20.877 6.03348 18.1016 7.2218C15.6475 8.27353 12.7969 9.39355 9.93262 9.39355C8.70898 9.39355 7.56055 9.1955 6.45312 8.79939C6.11816 8.67647 5.76953 8.92915 5.76953 9.27745V19.706C5.76953 20.0611 5.9541 20.3889 6.25488 20.5665C7.40332 21.229 8.61328 21.5568 9.93262 21.5568C12.2158 21.5568 14.7246 20.5665 16.8984 19.6309C19.3525 18.5791 22.2031 17.4591 25.0674 17.4591C26.291 17.4591 27.4395 17.6572 28.5469 18.0533C28.8818 18.1762 29.2305 17.9235 29.2305 17.5752V7.14667C29.2305 6.79154 29.0459 6.46373 28.7451 6.28617ZM17.5 17.4045C15.2988 17.4045 13.5215 15.622 13.5215 13.4297C13.5215 11.2375 15.3057 9.45502 17.5 9.45502C19.7012 9.45502 21.4785 11.2375 21.4785 13.4297C21.4785 15.622 19.7012 17.4045 17.5 17.4045Z" fill="url(#paint3_linear_7_44022)"/>
<path d="M12.1953 10.6297V11.4083C12.1953 11.538 12.1064 11.6473 11.9766 11.6678C11.2998 11.777 10.6162 11.8453 9.93262 11.8453C8.90039 11.8453 7.92285 11.7087 6.98633 11.4287C6.87695 11.3946 6.80176 11.2922 6.80176 11.1829V10.4248C6.80176 10.2541 6.96582 10.1243 7.13672 10.1721C8.03223 10.4248 8.96191 10.5477 9.93945 10.5477C10.5957 10.5477 11.252 10.4863 11.9014 10.3838C12.0518 10.3497 12.1953 10.4726 12.1953 10.6297Z" fill="url(#paint4_linear_7_44022)"/>
<path d="M28.1982 15.704V16.4347C28.1982 16.6191 28.0137 16.7489 27.8359 16.6738C26.9541 16.3118 26.0381 16.1274 25.0605 16.1274C24.4248 16.1274 23.7822 16.1957 23.1123 16.3323C22.9482 16.3665 22.7979 16.2435 22.7979 16.0796V15.3079C22.7979 15.185 22.8867 15.0757 23.0098 15.0552C23.7139 14.9118 24.3906 14.8298 25.0605 14.8298C26.1133 14.8298 27.1045 15.0415 28.041 15.465C28.1436 15.5059 28.1982 15.6016 28.1982 15.704Z" fill="url(#paint5_linear_7_44022)"/>
<path d="M8.17578 20.1842C8.77229 20.1842 9.25586 19.7011 9.25586 19.1052C9.25586 18.5092 8.77229 18.0261 8.17578 18.0261C7.57927 18.0261 7.0957 18.5092 7.0957 19.1052C7.0957 19.7011 7.57927 20.1842 8.17578 20.1842Z" fill="url(#paint6_linear_7_44022)"/>
<path d="M26.8242 8.81996C27.4207 8.81996 27.9043 8.33686 27.9043 7.74091C27.9043 7.14497 27.4207 6.66187 26.8242 6.66187C26.2277 6.66187 25.7441 7.14497 25.7441 7.74091C25.7441 8.33686 26.2277 8.81996 26.8242 8.81996Z" fill="url(#paint7_linear_7_44022)"/>
<path d="M30.2285 5.42568C27.1934 3.30856 24.1309 3.49295 20.9863 4.48322V19.6924C23.8369 18.7909 26.6123 18.5587 29.374 20.0953C29.9961 20.4436 30.7617 19.9928 30.7617 19.2826V6.43643C30.7617 6.0335 30.5566 5.65788 30.2285 5.42568Z" fill="url(#paint8_linear_7_44022)"/>
<path d="M4.23828 12.5625V20.4163C4.23828 20.8193 4.43652 21.1949 4.76465 21.4271C8.91406 24.3159 13.0908 22.9227 17.4932 21.0378C21.5879 19.2827 25.498 17.9509 29.3604 20.109C29.9824 20.4573 30.748 20.0066 30.748 19.2963V12.5693L4.23828 12.5625Z" fill="url(#paint9_linear_7_44022)"/>
<path d="M30.7617 17.2405V8.77197H22.6816L19.5713 11.8794L24.6436 16.9468C26.2363 16.8785 27.8086 17.179 29.374 18.0532C29.9893 18.3946 30.7617 17.9507 30.7617 17.2405Z" fill="url(#paint10_linear_7_44022)"/>
<path d="M15.1553 28.8026C15.4834 28.065 15.0391 27.2114 14.2735 27.0953C13.7266 27.0133 13.1934 27.3411 13.0088 27.8875C12.6192 29.0212 11.9082 29.9978 10.9717 30.7012C10.8213 30.8105 10.6641 30.9197 10.5069 31.0153C9.8301 31.4319 9.72073 32.4085 10.2881 32.9754C10.7051 33.3988 11.3614 33.4398 11.833 33.0778C12.0244 32.9276 12.2158 32.7773 12.4004 32.6203L12.6192 32.429C13.6104 31.589 14.4033 30.5236 14.9365 29.3148L15.1553 28.8026Z" fill="url(#paint11_linear_7_44022)"/>
<path d="M15.1553 28.8026C15.4834 28.065 15.0391 27.2114 14.2735 27.0953C13.7266 27.0133 13.1934 27.3411 13.0088 27.8875C12.6192 29.0212 11.9082 29.9978 10.9717 30.7012C10.8213 30.8105 10.6641 30.9197 10.5069 31.0153C9.8301 31.4319 9.72073 32.4085 10.2881 32.9754C10.7051 33.3988 11.3614 33.4398 11.833 33.0778C12.0244 32.9276 12.2158 32.7773 12.4004 32.6203L12.6192 32.429C13.6104 31.589 14.4033 30.5236 14.9365 29.3148L15.1553 28.8026Z" fill="url(#paint12_linear_7_44022)"/>
<path d="M17.8349 29.2192C18.3681 28.4338 18.0332 27.3275 17.1582 27.0133C16.5361 26.7879 15.8457 27.0543 15.5107 27.6553C14.8203 28.8914 13.7744 29.8817 12.5303 30.4895C12.332 30.5851 12.1269 30.6739 11.915 30.7558C11.0332 31.0905 10.7051 32.2105 11.2451 33.0096C11.6484 33.6037 12.4004 33.8018 13.0293 33.4808C13.2822 33.351 13.5351 33.2144 13.7881 33.071L14.0889 32.9003C15.4219 32.1422 16.5771 31.07 17.459 29.7792L17.8349 29.2192Z" fill="url(#paint13_linear_7_44022)"/>
<path d="M17.8349 29.2192C18.3681 28.4338 18.0332 27.3275 17.1582 27.0133C16.5361 26.7879 15.8457 27.0543 15.5107 27.6553C14.8203 28.8914 13.7744 29.8817 12.5303 30.4895C12.332 30.5851 12.1269 30.6739 11.915 30.7558C11.0332 31.0905 10.7051 32.2105 11.2451 33.0096C11.6484 33.6037 12.4004 33.8018 13.0293 33.4808C13.2822 33.351 13.5351 33.2144 13.7881 33.071L14.0889 32.9003C15.4219 32.1422 16.5771 31.07 17.459 29.7792L17.8349 29.2192Z" fill="url(#paint14_linear_7_44022)"/>
<path d="M20.9522 29.8134C21.6768 29.0144 21.4649 27.7168 20.5284 27.2182C19.8584 26.8631 19.045 27.0475 18.5801 27.6622C17.6094 28.9393 16.2901 29.8749 14.793 30.3529C14.5537 30.4281 14.3077 30.4964 14.0616 30.551C13.0225 30.7832 12.4756 31.9852 12.9678 32.9686C13.3301 33.7062 14.1504 34.0545 14.9024 33.8018C15.21 33.6994 15.5108 33.5901 15.8184 33.474L16.1807 33.3306C17.8008 32.6954 19.2569 31.6915 20.4463 30.3803L20.9522 29.8134Z" fill="url(#paint15_linear_7_44022)"/>
<path d="M20.9522 29.8134C21.6768 29.0144 21.4649 27.7168 20.5284 27.2182C19.8584 26.8631 19.045 27.0475 18.5801 27.6622C17.6094 28.9393 16.2901 29.8749 14.793 30.3529C14.5537 30.4281 14.3077 30.4964 14.0616 30.551C13.0225 30.7832 12.4756 31.9852 12.9678 32.9686C13.3301 33.7062 14.1504 34.0545 14.9024 33.8018C15.21 33.6994 15.5108 33.5901 15.8184 33.474L16.1807 33.3306C17.8008 32.6954 19.2569 31.6915 20.4463 30.3803L20.9522 29.8134Z" fill="url(#paint16_linear_7_44022)"/>
<path d="M2.97363 25.5997C4.15625 24.5206 5.71484 23.9948 7.28027 24.145L8.47656 24.2611C10.0488 24.4114 11.6348 24.104 13.0498 23.3665L13.6172 23.0728C14.4443 22.6426 15.4629 22.9635 15.8936 23.8104C16.3105 24.6367 16.0371 25.6543 15.2783 26.1324L14.7588 26.4602C13.4805 27.2729 12.1475 27.9832 10.7666 28.5773C9.80957 28.9871 10.1035 29.4925 10.3086 29.5949L11.9902 30.4008C13.5488 31.1452 15.2715 31.432 16.9736 31.2408C18.6006 31.0564 20.1387 30.353 21.376 29.2329C21.9707 28.6934 22.8457 28.6661 23.4746 29.1715C24.3496 29.8749 24.3291 31.2613 23.4336 31.9374L22.8047 32.4155C21.335 33.5287 19.6396 34.2731 17.8555 34.594L17.4521 34.6692C15.1758 35.0858 12.8447 35.0994 10.5615 34.717L6.51465 33.7267C4.86035 33.3238 3.14453 33.2418 1.46289 33.4945L0.663086 33.6106C0.314453 33.6652 0 33.3784 0 33.0096V26.7265C0 26.3919 0.259766 26.1187 0.581055 26.1187H1.63379C2.12598 26.1256 2.60449 25.9343 2.97363 25.5997Z" fill="url(#paint17_linear_7_44022)"/>
<path d="M12.2842 27.8738C11.7852 28.1265 11.2793 28.3655 10.7666 28.584C9.80957 28.9938 10.1035 29.4992 10.3086 29.6016L11.9902 30.4075C13.5488 31.1519 15.2715 31.4387 16.9736 31.2475C18.6006 31.0631 20.1387 30.3597 21.376 29.2397C21.9707 28.7001 22.8457 28.6728 23.4746 29.1782C24.3496 29.8816 24.3291 31.268 23.4336 31.9441L22.8047 32.4222C21.335 33.5354 19.6396 34.2798 17.8555 34.6008L17.4521 34.6759C15.1758 35.0925 12.8447 35.1061 10.5615 34.7237L6.51465 33.7334C4.86035 33.3305 3.14453 33.2485 1.46289 33.5012L0.663086 33.6173C0.314453 33.672 0 33.3851 0 33.0163V27.8874H12.2842V27.8738Z" fill="url(#paint18_linear_7_44022)"/>
<path d="M12.2842 27.8738C11.7852 28.1265 11.2793 28.3655 10.7666 28.584C9.80957 28.9938 10.1035 29.4992 10.3086 29.6016L11.9902 30.4075C13.5488 31.1519 15.2715 31.4387 16.9736 31.2475C18.6006 31.0631 20.1387 30.3597 21.376 29.2397C21.9707 28.7001 22.8457 28.6728 23.4746 29.1782C24.3496 29.8816 24.3291 31.268 23.4336 31.9441L22.8047 32.4222C21.335 33.5354 19.6396 34.2798 17.8555 34.6008L17.4521 34.6759C15.1758 35.0925 12.8447 35.1061 10.5615 34.7237L6.51465 33.7334C4.86035 33.3305 3.14453 33.2485 1.46289 33.5012L0.663086 33.6173C0.314453 33.672 0 33.3851 0 33.0163V27.8874H12.2842V27.8738Z" fill="url(#paint19_linear_7_44022)"/>
<path d="M10.3086 29.6017L9.52246 29.2876C8.27832 28.789 7.45801 27.5461 7.45801 26.1529V24.1587L8.4834 24.2543C10.0557 24.4045 11.6416 24.0972 13.0566 23.3596L13.624 23.066C14.4512 22.6357 15.4697 22.9567 15.9004 23.8035C16.3174 24.6299 16.0439 25.6475 15.2852 26.1256L14.8135 26.426C13.5283 27.2456 12.1885 27.9763 10.7871 28.5705C9.80273 28.9939 10.0967 29.4993 10.3086 29.6017Z" fill="url(#paint20_linear_7_44022)"/>
<path d="M35 1.97671V8.25978C35 8.59443 34.7402 8.8676 34.4189 8.8676H33.3662C32.874 8.8676 32.3955 9.052 32.0264 9.39347C31.6367 9.7486 31.2129 10.0423 30.7549 10.2676C29.8184 10.7389 28.7725 10.9437 27.7197 10.8481L26.5166 10.732C24.9443 10.5818 23.3584 10.8891 21.9434 11.6267L21.376 11.9204C20.5488 12.3506 19.5303 12.0296 19.0996 11.1828C18.6826 10.3564 18.9561 9.33883 19.7148 8.85394L20.2344 8.52613C21.5127 7.71343 22.8457 7.00317 24.2266 6.40901C25.1836 5.99924 24.8896 5.49386 24.6846 5.39142L23.0029 4.58555C21.4443 3.84114 19.7217 3.55431 18.0195 3.74553C17.3701 3.82065 16.7412 3.97773 16.1328 4.2031C16.0713 4.22359 16.0098 4.25091 15.9482 4.27823C15.9414 4.28506 15.9346 4.28506 15.9277 4.28506C14.3555 4.8997 12.8174 5.39825 11.293 5.59631C11.0127 5.26849 10.876 4.85873 10.876 4.44896C10.876 3.9231 11.1084 3.3904 11.5596 3.04893L12.1885 2.5777C13.6582 1.4645 15.3535 0.720094 17.1377 0.399111L17.5342 0.323987C19.8174 -0.0926078 22.1416 -0.106266 24.4248 0.276182L28.4717 1.26645C30.126 1.66938 31.8418 1.75134 33.5234 1.49865L34.3232 1.37572C34.6855 1.32791 35 1.60792 35 1.97671Z" fill="url(#paint21_linear_7_44022)"/>
<path d="M34.3369 1.38256L33.5371 1.49866C31.8555 1.75135 30.1396 1.66939 28.4854 1.26646L27.8838 1.11621V10.855C29.3945 10.9574 30.8779 10.4316 32.0264 9.38665C32.3955 9.04518 32.874 8.86078 33.3662 8.86078H34.4189C34.7402 8.86078 35 8.5876 35 8.25296V1.96989C35 1.60793 34.6855 1.32792 34.3369 1.38256Z" fill="url(#paint22_linear_7_44022)"/>
<path d="M23.2148 4.68115L24.6914 5.38458C24.8965 5.4802 25.1904 5.9924 24.2334 6.40217C22.8525 6.99633 21.5195 7.70659 20.2412 8.51929L19.7217 8.8471C18.9629 9.33199 18.6895 10.3427 19.1064 11.1691C19.5371 12.0228 20.5557 12.3369 21.3828 11.9067L21.9502 11.613C23.3652 10.8754 24.9512 10.5681 26.5234 10.7184L27.7197 10.8345C29.2852 10.9847 30.8369 10.4588 32.0264 9.3798C32.3955 9.03833 32.874 8.85393 33.3662 8.85393H34.419C34.7402 8.85393 35 8.58076 35 8.24611V4.68115H23.2148Z" fill="url(#paint23_linear_7_44022)"/>
<defs>
<linearGradient id="paint0_linear_7_44022" x1="21.0078" y1="0.214118" x2="26.043" y2="14.0194" gradientUnits="userSpaceOnUse">
<stop stop-color="#FFDFCF"/>
<stop offset="0.2453" stop-color="#FFDBCA"/>
<stop offset="0.4994" stop-color="#FFD0BE"/>
<stop offset="0.7566" stop-color="#FFBEA9"/>
<stop offset="1" stop-color="#FFA78F"/>
</linearGradient>
<linearGradient id="paint1_linear_7_44022" x1="10.0097" y1="3.56947" x2="24.261" y2="22.3573" gradientUnits="userSpaceOnUse">
<stop stop-color="#D1F19E"/>
<stop offset="0.1783" stop-color="#CEEF99"/>
<stop offset="0.363" stop-color="#C7EB8D"/>
<stop offset="0.5508" stop-color="#BBE378"/>
<stop offset="0.7406" stop-color="#A9D95B"/>
<stop offset="0.9303" stop-color="#94CC36"/>
<stop offset="1" stop-color="#8BC727"/>
</linearGradient>
<linearGradient id="paint2_linear_7_44022" x1="18.376" y1="9.98503" x2="19.7867" y2="4.43432" gradientUnits="userSpaceOnUse">
<stop stop-color="#017B4E" stop-opacity="0"/>
<stop offset="0.1753" stop-color="#017B4E" stop-opacity="0.034"/>
<stop offset="0.3569" stop-color="#017B4E" stop-opacity="0.135"/>
<stop offset="0.5415" stop-color="#017B4E" stop-opacity="0.304"/>
<stop offset="0.7281" stop-color="#017B4E" stop-opacity="0.54"/>
<stop offset="0.9146" stop-color="#017B4E" stop-opacity="0.841"/>
<stop offset="1" stop-color="#017B4E"/>
</linearGradient>
<linearGradient id="paint3_linear_7_44022" x1="1.32009" y1="-5.72721" x2="29.9992" y2="28.2856" gradientUnits="userSpaceOnUse">
<stop stop-color="#017B4E" stop-opacity="0"/>
<stop offset="0.1753" stop-color="#017B4E" stop-opacity="0.034"/>
<stop offset="0.3569" stop-color="#017B4E" stop-opacity="0.135"/>
<stop offset="0.5415" stop-color="#017B4E" stop-opacity="0.304"/>
<stop offset="0.7281" stop-color="#017B4E" stop-opacity="0.54"/>
<stop offset="0.9146" stop-color="#017B4E" stop-opacity="0.841"/>
<stop offset="1" stop-color="#017B4E"/>
</linearGradient>
<linearGradient id="paint4_linear_7_44022" x1="5.4386" y1="-1.69141" x2="14.3411" y2="25.9977" gradientUnits="userSpaceOnUse">
<stop stop-color="#017B4E" stop-opacity="0"/>
<stop offset="0.1753" stop-color="#017B4E" stop-opacity="0.034"/>
<stop offset="0.3569" stop-color="#017B4E" stop-opacity="0.135"/>
<stop offset="0.5415" stop-color="#017B4E" stop-opacity="0.304"/>
<stop offset="0.7281" stop-color="#017B4E" stop-opacity="0.54"/>
<stop offset="0.9146" stop-color="#017B4E" stop-opacity="0.841"/>
<stop offset="1" stop-color="#017B4E"/>
</linearGradient>
<linearGradient id="paint5_linear_7_44022" x1="18.4888" y1="-5.88717" x2="27.3913" y2="21.8019" gradientUnits="userSpaceOnUse">
<stop stop-color="#017B4E" stop-opacity="0"/>
<stop offset="0.1753" stop-color="#017B4E" stop-opacity="0.034"/>
<stop offset="0.3569" stop-color="#017B4E" stop-opacity="0.135"/>
<stop offset="0.5415" stop-color="#017B4E" stop-opacity="0.304"/>
<stop offset="0.7281" stop-color="#017B4E" stop-opacity="0.54"/>
<stop offset="0.9146" stop-color="#017B4E" stop-opacity="0.841"/>
<stop offset="1" stop-color="#017B4E"/>
</linearGradient>
<linearGradient id="paint6_linear_7_44022" x1="3.53124" y1="14.0507" x2="12.2008" y2="23.5115" gradientUnits="userSpaceOnUse">
<stop stop-color="#017B4E" stop-opacity="0"/>
<stop offset="0.1753" stop-color="#017B4E" stop-opacity="0.034"/>
<stop offset="0.3569" stop-color="#017B4E" stop-opacity="0.135"/>
<stop offset="0.5415" stop-color="#017B4E" stop-opacity="0.304"/>
<stop offset="0.7281" stop-color="#017B4E" stop-opacity="0.54"/>
<stop offset="0.9146" stop-color="#017B4E" stop-opacity="0.841"/>
<stop offset="1" stop-color="#017B4E"/>
</linearGradient>
<linearGradient id="paint7_linear_7_44022" x1="22.1834" y1="2.68639" x2="30.853" y2="12.1472" gradientUnits="userSpaceOnUse">
<stop stop-color="#017B4E" stop-opacity="0"/>
<stop offset="0.1753" stop-color="#017B4E" stop-opacity="0.034"/>
<stop offset="0.3569" stop-color="#017B4E" stop-opacity="0.135"/>
<stop offset="0.5415" stop-color="#017B4E" stop-opacity="0.304"/>
<stop offset="0.7281" stop-color="#017B4E" stop-opacity="0.54"/>
<stop offset="0.9146" stop-color="#017B4E" stop-opacity="0.841"/>
<stop offset="1" stop-color="#017B4E"/>
</linearGradient>
<linearGradient id="paint8_linear_7_44022" x1="28.0981" y1="11.996" x2="31.4666" y2="11.996" gradientUnits="userSpaceOnUse">
<stop stop-color="#017B4E" stop-opacity="0"/>
<stop offset="0.1753" stop-color="#017B4E" stop-opacity="0.034"/>
<stop offset="0.3569" stop-color="#017B4E" stop-opacity="0.135"/>
<stop offset="0.5415" stop-color="#017B4E" stop-opacity="0.304"/>
<stop offset="0.7281" stop-color="#017B4E" stop-opacity="0.54"/>
<stop offset="0.9146" stop-color="#017B4E" stop-opacity="0.841"/>
<stop offset="1" stop-color="#017B4E"/>
</linearGradient>
<linearGradient id="paint9_linear_7_44022" x1="18.0344" y1="19.2185" x2="18.7509" y2="22.8042" gradientUnits="userSpaceOnUse">
<stop stop-color="#017B4E" stop-opacity="0"/>
<stop offset="0.1753" stop-color="#017B4E" stop-opacity="0.034"/>
<stop offset="0.3569" stop-color="#017B4E" stop-opacity="0.135"/>
<stop offset="0.5415" stop-color="#017B4E" stop-opacity="0.304"/>
<stop offset="0.7281" stop-color="#017B4E" stop-opacity="0.54"/>
<stop offset="0.9146" stop-color="#017B4E" stop-opacity="0.841"/>
<stop offset="1" stop-color="#017B4E"/>
</linearGradient>
<linearGradient id="paint10_linear_7_44022" x1="26.7851" y1="15.3114" x2="24.8242" y2="9.2658" gradientUnits="userSpaceOnUse">
<stop stop-color="#017B4E" stop-opacity="0"/>
<stop offset="0.1753" stop-color="#017B4E" stop-opacity="0.034"/>
<stop offset="0.3569" stop-color="#017B4E" stop-opacity="0.135"/>
<stop offset="0.5415" stop-color="#017B4E" stop-opacity="0.304"/>
<stop offset="0.7281" stop-color="#017B4E" stop-opacity="0.54"/>
<stop offset="0.9146" stop-color="#017B4E" stop-opacity="0.841"/>
<stop offset="1" stop-color="#017B4E"/>
</linearGradient>
<linearGradient id="paint11_linear_7_44022" x1="12.1767" y1="29.8684" x2="13.5269" y2="30.9669" gradientUnits="userSpaceOnUse">
<stop stop-color="#FFDFCF"/>
<stop offset="0.2453" stop-color="#FFDBCA"/>
<stop offset="0.4994" stop-color="#FFD0BE"/>
<stop offset="0.7566" stop-color="#FFBEA9"/>
<stop offset="1" stop-color="#FFA78F"/>
</linearGradient>
<linearGradient id="paint12_linear_7_44022" x1="12.9668" y1="29.0329" x2="12.5589" y2="30.284" gradientUnits="userSpaceOnUse">
<stop stop-color="#F89580" stop-opacity="0"/>
<stop offset="0.1375" stop-color="#F6947F" stop-opacity="0.021"/>
<stop offset="0.2801" stop-color="#F3917C" stop-opacity="0.084"/>
<stop offset="0.4251" stop-color="#EE8E78" stop-opacity="0.19"/>
<stop offset="0.5717" stop-color="#E68873" stop-opacity="0.337"/>
<stop offset="0.7196" stop-color="#DD826B" stop-opacity="0.528"/>
<stop offset="0.8663" stop-color="#D17963" stop-opacity="0.757"/>
<stop offset="1" stop-color="#C5715A"/>
</linearGradient>
<linearGradient id="paint13_linear_7_44022" x1="14.1251" y1="29.7876" x2="15.4795" y2="31.3834" gradientUnits="userSpaceOnUse">
<stop stop-color="#FFDFCF"/>
<stop offset="0.2453" stop-color="#FFDBCA"/>
<stop offset="0.4994" stop-color="#FFD0BE"/>
<stop offset="0.7566" stop-color="#FFBEA9"/>
<stop offset="1" stop-color="#FFA78F"/>
</linearGradient>
<linearGradient id="paint14_linear_7_44022" x1="14.6899" y1="29.0398" x2="14.4926" y2="30.6595" gradientUnits="userSpaceOnUse">
<stop stop-color="#F89580" stop-opacity="0"/>
<stop offset="0.1375" stop-color="#F6947F" stop-opacity="0.021"/>
<stop offset="0.2801" stop-color="#F3917C" stop-opacity="0.084"/>
<stop offset="0.4251" stop-color="#EE8E78" stop-opacity="0.19"/>
<stop offset="0.5717" stop-color="#E68873" stop-opacity="0.337"/>
<stop offset="0.7196" stop-color="#DD826B" stop-opacity="0.528"/>
<stop offset="0.8663" stop-color="#D17963" stop-opacity="0.757"/>
<stop offset="1" stop-color="#C5715A"/>
</linearGradient>
<linearGradient id="paint15_linear_7_44022" x1="16.2705" y1="28.7084" x2="17.4275" y2="31.2185" gradientUnits="userSpaceOnUse">
<stop stop-color="#FFDFCF"/>
<stop offset="0.2453" stop-color="#FFDBCA"/>
<stop offset="0.4994" stop-color="#FFD0BE"/>
<stop offset="0.7566" stop-color="#FFBEA9"/>
<stop offset="1" stop-color="#FFA78F"/>
</linearGradient>
<linearGradient id="paint16_linear_7_44022" x1="17.0038" y1="29.2851" x2="17.1354" y2="31.1154" gradientUnits="userSpaceOnUse">
<stop stop-color="#F89580" stop-opacity="0"/>
<stop offset="0.1375" stop-color="#F6947F" stop-opacity="0.021"/>
<stop offset="0.2801" stop-color="#F3917C" stop-opacity="0.084"/>
<stop offset="0.4251" stop-color="#EE8E78" stop-opacity="0.19"/>
<stop offset="0.5717" stop-color="#E68873" stop-opacity="0.337"/>
<stop offset="0.7196" stop-color="#DD826B" stop-opacity="0.528"/>
<stop offset="0.8663" stop-color="#D17963" stop-opacity="0.757"/>
<stop offset="1" stop-color="#C5715A"/>
</linearGradient>
<linearGradient id="paint17_linear_7_44022" x1="12.7933" y1="25.0447" x2="10.8468" y2="34.7444" gradientUnits="userSpaceOnUse">
<stop stop-color="#FFDFCF"/>
<stop offset="0.2453" stop-color="#FFDBCA"/>
<stop offset="0.4994" stop-color="#FFD0BE"/>
<stop offset="0.7566" stop-color="#FFBEA9"/>
<stop offset="1" stop-color="#FFA78F"/>
</linearGradient>
<linearGradient id="paint18_linear_7_44022" x1="11.6742" y1="32.0823" x2="11.2634" y2="35.0844" gradientUnits="userSpaceOnUse">
<stop stop-color="#F89580" stop-opacity="0"/>
<stop offset="0.1375" stop-color="#F6947F" stop-opacity="0.021"/>
<stop offset="0.2801" stop-color="#F3917C" stop-opacity="0.084"/>
<stop offset="0.4251" stop-color="#EE8E78" stop-opacity="0.19"/>
<stop offset="0.5717" stop-color="#E68873" stop-opacity="0.337"/>
<stop offset="0.7196" stop-color="#DD826B" stop-opacity="0.528"/>
<stop offset="0.8663" stop-color="#D17963" stop-opacity="0.757"/>
<stop offset="1" stop-color="#C5715A"/>
</linearGradient>
<linearGradient id="paint19_linear_7_44022" x1="12.9512" y1="33.6587" x2="14.5385" y2="37.2438" gradientUnits="userSpaceOnUse">
<stop stop-color="#F89580" stop-opacity="0"/>
<stop offset="0.1375" stop-color="#F6947F" stop-opacity="0.021"/>
<stop offset="0.2801" stop-color="#F3917C" stop-opacity="0.084"/>
<stop offset="0.4251" stop-color="#EE8E78" stop-opacity="0.19"/>
<stop offset="0.5717" stop-color="#E68873" stop-opacity="0.337"/>
<stop offset="0.7196" stop-color="#DD826B" stop-opacity="0.528"/>
<stop offset="0.8663" stop-color="#D17963" stop-opacity="0.757"/>
<stop offset="1" stop-color="#C5715A"/>
</linearGradient>
<linearGradient id="paint20_linear_7_44022" x1="11.7083" y1="24.9633" x2="12.0139" y2="22.4049" gradientUnits="userSpaceOnUse">
<stop stop-color="white" stop-opacity="0"/>
<stop offset="0.1205" stop-color="white" stop-opacity="0.016"/>
<stop offset="0.2454" stop-color="white" stop-opacity="0.065"/>
<stop offset="0.3724" stop-color="white" stop-opacity="0.147"/>
<stop offset="0.5008" stop-color="white" stop-opacity="0.261"/>
<stop offset="0.6304" stop-color="white" stop-opacity="0.408"/>
<stop offset="0.761" stop-color="white" stop-opacity="0.588"/>
<stop offset="0.8898" stop-color="white" stop-opacity="0.797"/>
<stop offset="1" stop-color="white"/>
</linearGradient>
<linearGradient id="paint21_linear_7_44022" x1="21.0079" y1="-1.97138" x2="26.0431" y2="11.8337" gradientUnits="userSpaceOnUse">
<stop stop-color="#FFDFCF"/>
<stop offset="0.2453" stop-color="#FFDBCA"/>
<stop offset="0.4994" stop-color="#FFD0BE"/>
<stop offset="0.7566" stop-color="#FFBEA9"/>
<stop offset="1" stop-color="#FFA78F"/>
</linearGradient>
<linearGradient id="paint22_linear_7_44022" x1="32.998" y1="5.9929" x2="35.264" y2="5.9929" gradientUnits="userSpaceOnUse">
<stop stop-color="#F89580" stop-opacity="0"/>
<stop offset="0.1375" stop-color="#F6947F" stop-opacity="0.021"/>
<stop offset="0.2801" stop-color="#F3917C" stop-opacity="0.084"/>
<stop offset="0.4251" stop-color="#EE8E78" stop-opacity="0.19"/>
<stop offset="0.5717" stop-color="#E68873" stop-opacity="0.337"/>
<stop offset="0.7196" stop-color="#DD826B" stop-opacity="0.528"/>
<stop offset="0.8663" stop-color="#D17963" stop-opacity="0.757"/>
<stop offset="1" stop-color="#C5715A"/>
</linearGradient>
<linearGradient id="paint23_linear_7_44022" x1="27.0237" y1="7.98311" x2="27.5344" y2="10.9774" gradientUnits="userSpaceOnUse">
<stop stop-color="#F89580" stop-opacity="0"/>
<stop offset="0.1375" stop-color="#F6947F" stop-opacity="0.021"/>
<stop offset="0.2801" stop-color="#F3917C" stop-opacity="0.084"/>
<stop offset="0.4251" stop-color="#EE8E78" stop-opacity="0.19"/>
<stop offset="0.5717" stop-color="#E68873" stop-opacity="0.337"/>
<stop offset="0.7196" stop-color="#DD826B" stop-opacity="0.528"/>
<stop offset="0.8663" stop-color="#D17963" stop-opacity="0.757"/>
<stop offset="1" stop-color="#C5715A"/>
</linearGradient>
</defs>
</svg>
