<svg width="33" height="40" viewBox="0 0 33 40" fill="none" xmlns="http://www.w3.org/2000/svg">
<mask id="mask0_7_43921" style="mask-type:alpha" maskUnits="userSpaceOnUse" x="0" y="0" width="33" height="4">
<rect width="32.0881" height="3.07721" rx="1.53861" fill="#F3B811"/>
</mask>
<g mask="url(#mask0_7_43921)">
<path d="M0 0H11.8726V11.5396V16.9247H10.3559C6.68359 16.9247 3.19708 15.3099 0.822051 12.509L0 11.5396V0Z" fill="#E52021"/>
<rect x="11.8773" width="8.3429" height="16.9247" fill="#F7F7F7"/>
<path d="M20.2108 0H32.0834V11.5396L31.2614 12.509C28.8863 15.3099 25.3998 16.9247 21.7275 16.9247H20.2108V11.5396V0Z" fill="#268A42"/>
<rect width="32.0881" height="3.07721" rx="1.53861" fill="black" fill-opacity="0.05"/>
</g>
<path d="M11.869 14.5562L11.8436 14.5503C10.4855 14.2015 9.03795 14.8676 8.47644 16.1001L8.11121 16.9009C8.05745 17.019 7.97439 17.1233 7.86902 17.2036C7.76366 17.2839 7.63915 17.338 7.50671 17.3618L6.60828 17.5239C6.3578 17.5691 6.11979 17.6456 5.89832 17.7485C5.20237 17.1359 4.59461 16.4127 4.10632 15.5933L3.52527 14.6187V3.07861H11.869V14.5562Z" fill="#E52021"/>
<path d="M20.2148 14.5581L19.3643 14.7769C19.2341 14.8103 19.0972 14.8123 18.9658 14.7837C18.8344 14.755 18.7124 14.696 18.6104 14.6118L17.918 14.0415C16.8529 13.1641 15.2459 13.1641 14.1807 14.0415L13.4883 14.6118C13.3862 14.696 13.2642 14.755 13.1328 14.7837C13.0014 14.8124 12.8645 14.8103 12.7344 14.7769L11.8721 14.5552V3.07861H20.2148V14.5581Z" fill="#F7F7F7"/>
<path d="M28.5635 14.6187L27.9824 15.5933C27.4933 16.4141 26.884 17.1382 26.1865 17.7515C25.9638 17.6476 25.7248 17.5694 25.4727 17.5239L24.5742 17.3618C24.4419 17.338 24.3172 17.2839 24.2119 17.2036C24.1067 17.1233 24.0234 17.019 23.9697 16.9009L23.6055 16.1001C23.044 14.8676 21.5964 14.2014 20.2383 14.5503L20.2207 14.5542V3.07861H28.5635V14.6187Z" fill="#268A42"/>
<path d="M16.2088 1.75024L16.5513 5.23561L17.9038 1.98396L17.2085 5.42068L19.4616 2.66618L17.7848 5.77582L20.7558 3.74162L18.2333 6.27228L21.6816 5.12317L18.5179 6.86981L22.1641 6.6989L18.6154 7.52003L22.1641 8.34115L18.5179 8.17024L21.6816 9.91688L18.2333 8.76778L20.7558 11.2984L17.7848 9.26423L19.4616 12.3739L17.2085 9.61938L17.9038 13.0561L16.5513 9.80445L16.2088 13.2898L15.8663 9.80445L14.5137 13.0561L15.209 9.61938L12.956 12.3739L14.6328 9.26423L11.6618 11.2984L14.1842 8.76778L10.736 9.91688L13.8997 8.17024L10.2535 8.34115L13.8022 7.52003L10.2535 6.6989L13.8997 6.86981L10.736 5.12317L14.1842 6.27228L11.6618 3.74162L14.6328 5.77582L12.956 2.66618L15.209 5.42068L14.5137 1.98396L15.8663 5.23561L16.2088 1.75024Z" fill="#F7B70F"/>
<path fill-rule="evenodd" clip-rule="evenodd" d="M28.0544 27.9052C27.9982 27.8013 27.9688 27.6854 27.9688 27.5678C27.9688 27.4501 27.9982 27.3342 28.0544 27.2303L28.4353 26.5252C29.0213 25.4403 28.7029 24.0731 27.6945 23.3448L27.0392 22.8715C26.9425 22.8018 26.8647 22.7099 26.8126 22.6039C26.7605 22.4979 26.7357 22.381 26.7403 22.2635L26.7713 21.4662C26.819 20.2397 25.9266 19.1432 24.6957 18.9158L23.8957 18.768C23.7777 18.7462 23.6669 18.6965 23.573 18.6232C23.4792 18.5498 23.4051 18.4551 23.3572 18.3472L23.0321 17.6157C22.5319 16.4904 21.2426 15.8818 20.0328 16.2003L19.2465 16.4074C19.1305 16.4379 19.0087 16.4402 18.8917 16.414C18.7746 16.3878 18.6659 16.334 18.575 16.2572L17.9582 15.7363C17.0094 14.9352 15.5782 14.9352 14.6293 15.7363L14.0125 16.2572C13.9215 16.334 13.8128 16.3878 13.6958 16.414C13.5788 16.4402 13.457 16.4379 13.341 16.4074L12.5548 16.2003C11.3449 15.8819 10.0556 16.4904 9.55542 17.6157L9.23026 18.3472C9.18237 18.4551 9.10826 18.5498 9.0144 18.6232C8.92054 18.6965 8.80978 18.7462 8.6918 18.768L7.89173 18.9158C6.66081 19.1432 5.76847 20.2397 5.81611 21.4662L5.84707 22.2635C5.8517 22.381 5.82688 22.4979 5.7748 22.6039C5.72272 22.7099 5.64494 22.8018 5.54827 22.8715L4.89288 23.3449C3.88458 24.0731 3.56613 25.4404 4.15212 26.5252L4.53302 27.2303C4.58924 27.3343 4.61863 27.4501 4.61863 27.5678C4.61863 27.6854 4.58924 27.8013 4.53302 27.9052L4.15212 28.6103C3.56613 29.6951 3.88458 31.0624 4.89288 31.7907L5.54821 32.264C5.6449 32.3337 5.72268 32.4256 5.77477 32.5317C5.82685 32.6377 5.85166 32.7546 5.84701 32.8721L5.81605 33.6693C5.76841 34.8959 6.66075 35.9924 7.89167 36.2197L8.31119 36.2973L8.31127 36.2971L8.69162 36.3674C8.80962 36.3891 8.9204 36.4389 9.01427 36.5122C9.10814 36.5856 9.18225 36.6804 9.23015 36.7883L9.55524 37.5196C10.0554 38.645 11.3448 39.2536 12.5546 38.935L13.3409 38.7281C13.4568 38.6975 13.5786 38.6952 13.6956 38.7214C13.8127 38.7476 13.9214 38.8014 14.0123 38.8783L14.6291 39.399C14.6803 39.4421 14.7333 39.4831 14.7879 39.522L14.7878 39.5222L14.788 39.5221C15.233 39.8405 15.7633 40.0001 16.2937 40.0001C16.816 40.0001 17.3382 39.8456 17.779 39.537L17.7789 39.5368C17.8408 39.4936 17.9006 39.4476 17.9581 39.399L18.5749 38.8783C18.6659 38.8014 18.7746 38.7476 18.8916 38.7214C19.0086 38.6952 19.1304 38.6975 19.2464 38.7281L20.0326 38.935C20.2491 38.992 20.4678 39.0193 20.6844 39.0193C21.6782 39.0192 22.6213 38.4436 23.032 37.5196L23.3571 36.7882C23.405 36.6803 23.4791 36.5856 23.5729 36.5122C23.6668 36.4388 23.7776 36.3891 23.8955 36.3674L24.2498 36.302L24.2499 36.3022L24.2499 36.3021L24.6958 36.2197C25.9267 35.9923 26.819 34.8958 26.7714 33.6692L26.7404 32.8721C26.7358 32.7545 26.7606 32.6376 26.8127 32.5316C26.8647 32.4256 26.9425 32.3338 27.0392 32.264L27.6946 31.7907C28.7029 31.0624 29.0214 29.6952 28.4353 28.6103L28.0544 27.9052Z" fill="#F3B811"/>
<ellipse cx="16.2988" cy="27.6329" rx="8.13001" ry="7.96661" fill="url(#paint0_linear_7_43921)"/>
<path d="M19.3525 30.4774H13.231C12.9146 30.4774 12.6572 30.7297 12.6572 31.0398C12.6572 31.3498 12.9146 31.6021 13.231 31.6021H19.3525C19.6689 31.6021 19.9264 31.3498 19.9264 31.0398C19.9264 30.7297 19.6689 30.4774 19.3525 30.4774ZM21.0741 25.6037C21.0741 25.9884 20.7757 26.3026 20.3946 26.3453L19.6578 30.1025H12.9257L12.1889 26.3453C11.8078 26.3026 11.5094 25.9884 11.5094 25.6037C11.5094 25.1902 11.8526 24.8539 12.2746 24.8539C12.6966 24.8539 13.0398 25.1902 13.0398 25.6037C13.0398 25.8816 12.8829 26.1218 12.653 26.2516C13.0952 27.2788 13.7889 27.909 14.4316 27.852C15.1494 27.7947 15.7347 26.9631 16.0576 25.5719C15.6437 25.4691 15.3353 25.1036 15.3353 24.6665C15.3353 24.1495 15.7642 23.7292 16.2918 23.7292C16.8194 23.7292 17.2482 24.1495 17.2482 24.6665C17.2482 25.1036 16.9399 25.4692 16.5259 25.5719C16.8488 26.9631 17.4342 27.7947 18.1519 27.852C18.7974 27.909 19.4879 27.2788 19.9306 26.2516C19.7006 26.1218 19.5438 25.8815 19.5438 25.6037C19.5438 25.1902 19.887 24.8539 20.309 24.8539C20.7309 24.8539 21.0741 25.1902 21.0741 25.6037Z" fill="#F3B811"/>
<defs>
<linearGradient id="paint0_linear_7_43921" x1="16.2844" y1="45.4545" x2="16.2844" y2="19.6663" gradientUnits="userSpaceOnUse">
<stop stop-color="#FFE59A"/>
<stop offset="1" stop-color="#FFFFD5"/>
</linearGradient>
</defs>
</svg>
