<svg width="269" height="74" viewBox="0 0 269 74" fill="none" xmlns="http://www.w3.org/2000/svg">
<rect width="34.4498" height="34.4474" rx="8.25512" fill="#ED9D23" fill-opacity="0.1"/>
<g clip-path="url(#clip0_7_2532)">
<path d="M14.0191 17.0028C10.6045 17.0028 7.82773 14.226 7.82773 10.8115C7.82773 7.39693 10.6045 4.62012 14.0191 4.62012C17.4336 4.62012 20.2104 7.39693 20.2104 10.8115C20.2104 14.226 17.4336 17.0028 14.0191 17.0028ZM18.7606 26.7077C17.9526 25.8998 17.9526 24.5851 18.7606 23.7772L20.2259 22.3119C21.0349 21.5039 22.3495 21.5039 23.1565 22.3119L24.6217 20.8466C23.0058 19.2307 20.3765 19.2307 18.7606 20.8466L17.2953 22.3119C15.6794 23.9278 15.6794 26.556 17.2933 28.1709C17.2933 28.1709 17.2933 28.172 17.2943 28.173C18.9102 29.789 21.5395 29.789 23.1565 28.173L23.5527 27.7768C22.7014 27.7314 21.8594 27.5147 21.0824 27.1215C20.3188 27.4682 19.388 27.3341 18.7606 26.7067V26.7077ZM28.286 17.1834C26.67 15.5674 24.0408 15.5674 22.4238 17.1834L22.0276 17.5796C22.8789 17.625 23.7209 17.8417 24.4979 18.2349C25.2615 17.8882 26.1923 18.0223 26.8197 18.6497C27.6266 19.4577 27.6266 20.7723 26.8197 21.5803L25.3544 23.0456C24.5454 23.8535 23.2308 23.8535 22.4238 23.0456L20.9585 24.5108C21.7665 25.3188 22.8273 25.7223 23.8891 25.7223C24.9509 25.7223 26.0117 25.3188 26.8197 24.5108L28.285 23.0456C29.9009 21.4296 29.9009 18.8004 28.285 17.1844L28.286 17.1834ZM15.8362 20.8528L17.6214 19.0666H9.89151C7.04246 19.0666 4.73206 21.377 4.73206 24.226V29.3855H15.634C13.4391 26.9492 13.4928 23.1962 15.8362 20.8528Z" fill="#ED9D23"/>
</g>
<rect x="46.8325" width="34.4498" height="34.4474" rx="8.25512" fill="#ED9D23" fill-opacity="0.1"/>
<path d="M54.9374 10.8115C54.9374 6.58801 56.9053 4.62036 61.1328 4.62036C65.3603 4.62036 67.3282 6.58801 67.3282 10.8115C67.3282 15.035 65.3603 17.0026 61.1328 17.0026C56.9053 17.0026 54.9374 15.035 54.9374 10.8115ZM75.3969 16.6176C75.2448 16.5422 73.8705 15.877 72.3882 15.877C68.8962 15.877 66.9632 17.8784 66.3707 19.0614C66.2536 19.2956 66.1927 19.5545 66.1927 19.8168V23.787C64.5988 23.9367 63.9399 24.7629 63.9399 26.5696C63.9399 28.58 64.7441 29.3837 66.756 29.3837C68.7678 29.3837 69.5721 28.58 69.5721 26.5696V20.3357C69.9179 19.9361 70.7492 19.2528 72.3882 19.2528C72.5706 19.2528 72.7644 19.2798 72.9514 19.3215V22.6602C71.3575 22.8099 70.6985 23.6361 70.6985 25.4428C70.6985 27.4532 71.5028 28.257 73.5146 28.257C75.5264 28.257 76.3307 27.4532 76.3307 25.4428V18.126C76.3307 17.4866 75.9691 16.9024 75.3969 16.6154V16.6176ZM63.9399 22.1401V19.8156C63.9399 19.7031 63.9692 19.5928 63.9793 19.4813C63.1164 19.3339 62.1747 19.2528 61.1317 19.2528C54.6806 19.2528 51.7293 22.0208 51.5648 28.2288C51.5569 28.5327 51.6718 28.8254 51.8836 29.0438C52.0954 29.261 52.3871 29.3849 52.6901 29.3849H62.3223C61.9123 28.6228 61.6859 27.6896 61.6859 26.5696C61.6859 24.423 62.4778 22.9247 63.9387 22.1401H63.9399Z" fill="#ED9D23"/>
<rect x="93.665" width="34.4498" height="34.4474" rx="8.25512" fill="#ED9D23" fill-opacity="0.1"/>
<path d="M115.37 15.9706C114.931 15.9706 114.495 15.854 114.1 15.6229C113.314 15.1637 112.845 14.3465 112.845 13.4364V7.15558C112.845 6.2455 113.314 5.42827 114.1 4.9691C114.886 4.512 115.826 4.50271 116.619 4.94847L121.896 8.10282C122.681 8.54445 123.164 9.36992 123.164 10.2965C123.164 11.2231 122.681 12.0486 121.873 12.5036L116.643 15.6301C116.238 15.8582 115.803 15.9706 115.37 15.9706ZM110.781 8.62596L107.55 7.01009C107.122 6.7965 106.644 6.68403 106.167 6.68403H103.558C100.713 6.68403 98.3983 8.99846 98.3983 11.8433V12.8751H110.781V8.62596ZM107.686 20.098H104.59C104.021 20.098 103.558 20.5613 103.558 21.1299V23.1936C103.558 23.7621 104.021 24.2254 104.59 24.2254H107.686C108.254 24.2254 108.717 23.7621 108.717 23.1936V21.1299C108.717 20.5613 108.254 20.098 107.686 20.098ZM117.701 17.3595C116.951 17.7826 116.162 17.992 115.37 17.992C114.563 17.992 113.764 17.7743 113.059 17.3626C112.098 16.8013 111.408 15.9417 111.053 14.9388H98.3983V24.2254C98.3983 27.0743 100.709 29.3846 103.558 29.3846H118.005C120.854 29.3846 123.164 27.0743 123.164 24.2254V14.9388H121.75L117.701 17.3595ZM113.877 24.2079C113.877 25.0715 112.892 25.5637 112.2 25.0457L110.694 23.8931C110.375 25.2624 109.15 26.2881 107.685 26.2881H104.589C102.882 26.2881 101.493 24.8992 101.493 23.1925V21.1288C101.493 19.4222 102.882 18.0333 104.589 18.0333H107.685C109.152 18.0333 110.377 19.061 110.695 20.4334L112.199 19.3045C112.89 18.7865 113.876 19.2798 113.876 20.1424V24.2068L113.877 24.2079Z" fill="#ED9D23"/>
<rect x="140.498" width="34.4498" height="34.4474" rx="8.25512" fill="#ED9D23" fill-opacity="0.1"/>
<g clip-path="url(#clip1_7_2532)">
<path d="M162.539 15.0905C161.935 15.6941 160.954 15.6941 160.35 15.0905C159.747 14.4868 159.747 13.5055 160.35 12.9018C160.954 12.2982 161.935 12.2982 162.539 12.9018C163.143 13.5055 163.143 14.4868 162.539 15.0905ZM160.929 5.22559V7.28937C164.912 7.28937 168.152 10.5305 168.152 14.5126H170.216C170.216 9.39133 166.049 5.22559 160.929 5.22559ZM160.929 8.8372V10.901C162.921 10.901 164.541 12.5211 164.541 14.5126H166.604C166.604 11.3839 164.059 8.8372 160.929 8.8372ZM168.152 18.6463C168.146 23.7728 163.992 27.9272 158.865 27.9334H156.802C151.675 27.9272 147.521 23.7728 147.515 18.6463H145.451C145.458 24.912 150.536 29.9827 156.802 29.991H158.865C165.131 29.9837 170.209 24.913 170.216 18.6463H168.152ZM161.445 17.6083C159.45 17.6083 157.833 15.9913 157.833 13.9967C157.833 13.0143 158.229 12.1258 158.865 11.4747V5.30401C158.199 5.20804 157.508 5.19979 156.808 5.29988C153.634 5.75495 151.14 8.24283 150.683 11.4169H154.738V13.4869H150.61V16.5764H154.738V18.6463H150.683C151.25 22.5954 154.911 25.3371 158.859 24.7706C162.033 24.3145 164.527 21.8215 164.983 18.6463L165.057 16.5826V16.5764H163.967C163.316 17.2131 162.427 17.6083 161.445 17.6083Z" fill="#ED9D23"/>
</g>
<rect x="187.331" width="34.4498" height="34.4474" rx="8.25512" fill="#ED9D23" fill-opacity="0.1"/>
<g clip-path="url(#clip2_7_2532)">
<path d="M212.7 12.8757C210.424 12.8757 208.572 11.0245 208.572 8.74817C208.572 6.47182 210.424 4.62061 212.7 4.62061C214.976 4.62061 216.827 6.47182 216.827 8.74817C216.827 11.0245 214.976 12.8757 212.7 12.8757ZM201.349 15.9714H198.253C197.685 15.9714 197.222 16.4337 197.222 17.0033V19.0671C197.222 19.6367 197.685 20.099 198.253 20.099H201.349C201.918 20.099 202.381 19.6367 202.381 19.0671V17.0033C202.381 16.4337 201.918 15.9714 201.349 15.9714ZM212.7 14.9395C209.286 14.9395 206.509 12.1627 206.509 8.74817C206.509 8.02378 206.64 7.33138 206.87 6.68439H197.222C194.377 6.68439 192.062 8.99892 192.062 11.8438V20.099C192.062 22.9439 194.377 25.2584 197.222 25.2584H203.413V27.3222H199.285C198.716 27.3222 198.253 27.7834 198.253 28.3541C198.253 28.9247 198.716 29.386 199.285 29.386H209.604C210.174 29.386 210.636 28.9247 210.636 28.3541C210.636 27.7834 210.174 27.3222 209.604 27.3222H205.477V25.2584H211.668C214.513 25.2584 216.827 22.9439 216.827 20.099V13.3504C215.731 14.3348 214.286 14.9395 212.7 14.9395ZM207.54 20.0814C207.54 20.9451 206.555 21.4373 205.864 20.9193L204.357 19.7667C204.038 21.136 202.813 22.1617 201.348 22.1617H198.252C196.546 22.1617 195.157 20.7728 195.157 19.066V17.0023C195.157 15.2955 196.546 13.9066 198.252 13.9066H201.348C202.815 13.9066 204.04 14.9343 204.358 16.3068L205.863 15.1779C206.553 14.6599 207.539 15.1531 207.539 16.0158V20.0804L207.54 20.0814Z" fill="#ED9D23"/>
</g>
<rect x="234.163" width="34.4498" height="34.4474" rx="8.25512" fill="#ED9D23" fill-opacity="0.1"/>
<g clip-path="url(#clip3_7_2532)">
<path d="M254.86 7.94693C252.956 6.04309 250.318 5.05351 247.621 5.24957C242.951 5.57977 239.006 9.96118 239.006 14.8183V20.0169C239.006 22.1024 240.701 23.7999 242.784 23.7999H247.404C252.756 23.7999 257.216 20.0159 257.557 15.1846C257.747 12.4883 256.764 9.84974 254.86 7.9459V7.94693ZM243.65 16.0607C242.795 16.0607 242.102 15.3673 242.102 14.5128C242.102 13.6584 242.795 12.965 243.65 12.965C244.504 12.965 245.198 13.6584 245.198 14.5128C245.198 15.3673 244.504 16.0607 243.65 16.0607ZM248.293 16.0607C247.439 16.0607 246.745 15.3673 246.745 14.5128C246.745 13.6584 247.439 12.965 248.293 12.965C249.148 12.965 249.841 13.6584 249.841 14.5128C249.841 15.3673 249.148 16.0607 248.293 16.0607ZM252.937 16.0607C252.082 16.0607 251.389 15.3673 251.389 14.5128C251.389 13.6584 252.082 12.965 252.937 12.965C253.791 12.965 254.485 13.6584 254.485 14.5128C254.485 15.3673 253.791 16.0607 252.937 16.0607ZM263.772 21.7361V26.8955C263.772 28.6054 262.386 29.9912 260.676 29.9912H255.516C252.467 29.9912 249.805 28.3247 248.376 25.8595C248.367 25.8461 248.359 25.8347 248.351 25.8213C254.352 25.3921 259.219 20.9436 259.615 15.3301C259.633 15.0835 259.626 14.8379 259.628 14.5923C259.632 14.5933 259.636 14.5944 259.64 14.5954C262.105 16.0246 263.772 18.6868 263.772 21.7361Z" fill="#ED9D23"/>
</g>
<rect y="39.4475" width="34.4498" height="34.4474" rx="8.25512" fill="#ED9D23" fill-opacity="0.1"/>
<g clip-path="url(#clip4_7_2532)">
<path d="M26.4028 52.9292H23.3071V49.3176C23.3071 48.4642 24.0016 47.7697 24.8549 47.7697H25.6567C26.0138 48.3837 26.6721 48.8016 27.4347 48.8016C28.5749 48.8016 29.4984 47.8781 29.4984 46.7379C29.4984 45.5976 28.5749 44.6741 27.4347 44.6741C26.6731 44.6741 26.0148 45.092 25.6567 45.706H24.8549C22.8634 45.706 21.2433 47.326 21.2433 49.3176V52.9292H18.1476V48.5664C18.7616 48.2093 19.1795 47.551 19.1795 46.7884C19.1795 45.6482 18.256 44.7246 17.1158 44.7246C15.9755 44.7246 15.052 45.6482 15.052 46.7884C15.052 47.55 15.4699 48.2083 16.0839 48.5664V52.9292H9.89253C9.00613 52.9292 8.16721 52.5453 7.58625 51.8983C8.15379 51.2648 8.97827 50.8654 9.89253 50.8654H12.9882C13.5588 50.8654 14.0201 50.4031 14.0201 49.8335C14.0201 49.2639 13.5588 48.8016 12.9882 48.8016H9.89253C7.02593 48.7965 4.72172 51.1595 4.73307 53.9611V64.28C4.73307 67.1249 7.0476 69.4394 9.89253 69.4394H26.4028C28.1095 69.4394 29.4984 68.0505 29.4984 66.3438V56.0249C29.4984 54.3181 28.1095 52.9292 26.4028 52.9292ZM23.823 62.7322C22.9686 62.7322 22.2752 62.0387 22.2752 61.1843C22.2752 60.3299 22.9686 59.6365 23.823 59.6365C24.6775 59.6365 25.3709 60.3299 25.3709 61.1843C25.3709 62.0387 24.6775 62.7322 23.823 62.7322Z" fill="#ED9D23"/>
</g>
<rect x="46.8325" y="39.4475" width="34.4498" height="34.4474" rx="8.25512" fill="#ED9D23" fill-opacity="0.1"/>
<g clip-path="url(#clip5_7_2532)">
<path d="M64.0567 58.3152V61.4728C64.0567 61.8835 63.7244 62.2157 63.3137 62.2157H60.1561C59.8559 62.2157 59.5845 62.0351 59.4699 61.7576C59.3544 61.48 59.4183 61.1601 59.6309 60.9475L60.4998 60.0787C59.7723 59.475 58.8487 59.12 57.8654 59.12C56.2236 59.12 54.7387 60.0921 54.0814 61.5966C53.8523 62.1198 53.2445 62.3581 52.7224 62.129C52.2003 61.901 51.9619 61.2922 52.19 60.7711C53.1764 58.5143 55.4043 57.0563 57.8654 57.0563C59.407 57.0563 60.8568 57.629 61.9681 58.6103L62.7885 57.7899C63.0011 57.5774 63.3199 57.5144 63.5985 57.629C63.8761 57.7435 64.0567 58.0149 64.0567 58.3152ZM63.0083 64.3662C62.4862 64.1361 61.8784 64.3755 61.6493 64.8986C60.992 66.4031 59.5061 67.3752 57.8654 67.3752C56.882 67.3752 55.9584 67.0202 55.2309 66.4165L56.0998 65.5477C56.3124 65.3351 56.3763 65.0163 56.2608 64.7377C56.1462 64.4601 55.8748 64.2795 55.5746 64.2795H52.417C52.0063 64.2795 51.674 64.6118 51.674 65.0225V68.18C51.674 68.4803 51.8546 68.7517 52.1322 68.8663C52.4108 68.9808 52.7296 68.9178 52.9422 68.7053L53.7626 67.8849C54.8729 68.8663 56.3227 69.4389 57.8654 69.4389C60.3274 69.4389 62.5553 67.9809 63.5407 65.7241C63.7688 65.202 63.5304 64.5932 63.0083 64.3662ZM76.4394 51.8968V62.2157C76.4394 63.9256 75.0535 65.3114 73.3437 65.3114H65.8501C66.0204 64.651 66.1205 63.9617 66.1205 63.2476V58.0882C66.1205 56.3783 64.7346 54.9925 63.0248 54.9925H57.8654C55.396 54.9925 53.1868 56.0822 51.674 57.8003V49.833C51.674 46.984 53.9844 44.6736 56.8335 44.6736H75.4075C75.9781 44.6736 76.4394 45.1359 76.4394 45.7055C76.4394 46.2751 75.9781 46.7374 75.4075 46.7374H56.8335C55.9182 46.7374 55.0937 47.1367 54.5272 47.7703C55.1081 48.4173 55.9471 48.8011 56.8335 48.8011H73.3437C75.0535 48.8011 76.4394 50.187 76.4394 51.8968ZM73.3437 57.0563C73.3437 56.2019 72.6503 55.5084 71.7959 55.5084C70.9415 55.5084 70.248 56.2019 70.248 57.0563C70.248 57.9107 70.9415 58.6041 71.7959 58.6041C72.6503 58.6041 73.3437 57.9107 73.3437 57.0563Z" fill="#ED9D23"/>
</g>
<rect x="93.665" y="39.4475" width="34.4498" height="34.4474" rx="8.25512" fill="#ED9D23" fill-opacity="0.1"/>
<g clip-path="url(#clip6_7_2532)">
<path d="M119.552 52.8391C117.561 52.8391 115.94 54.4592 115.94 56.4507C115.94 58.4423 117.561 60.0623 119.552 60.0623C121.544 60.0623 123.164 58.4423 123.164 56.4507C123.164 54.4592 121.544 52.8391 119.552 52.8391ZM119.552 57.9986C118.699 57.9986 118.004 57.3041 118.004 56.4507C118.004 55.5974 118.699 54.9029 119.552 54.9029C120.405 54.9029 121.1 55.5974 121.1 56.4507C121.1 57.3041 120.405 57.9986 119.552 57.9986ZM114.393 56.4507C114.393 58.4423 112.773 60.0623 110.781 60.0623C108.789 60.0623 107.169 58.4423 107.169 56.4507C107.169 54.4592 108.789 52.8391 110.781 52.8391C112.773 52.8391 114.393 54.4592 114.393 56.4507ZM105.622 56.4507C105.622 58.4423 104.001 60.0623 102.01 60.0623C100.018 60.0623 98.3983 58.4423 98.3983 56.4507C98.3983 54.4592 100.018 52.8391 102.01 52.8391C104.001 52.8391 105.622 54.4592 105.622 56.4507Z" fill="#ED9D23"/>
</g>
<defs>
<clipPath id="clip0_7_2532">
<rect width="24.7662" height="24.7645" fill="white" transform="translate(4.73303 4.62012)"/>
</clipPath>
<clipPath id="clip1_7_2532">
<rect width="24.7662" height="24.7645" fill="white" transform="translate(145.451 5.2251)"/>
</clipPath>
<clipPath id="clip2_7_2532">
<rect width="24.7662" height="24.7645" fill="white" transform="translate(192.062 4.62012)"/>
</clipPath>
<clipPath id="clip3_7_2532">
<rect width="24.7662" height="24.7645" fill="white" transform="translate(239.006 5.2251)"/>
</clipPath>
<clipPath id="clip4_7_2532">
<rect width="24.7662" height="24.7645" fill="white" transform="translate(4.73303 44.6736)"/>
</clipPath>
<clipPath id="clip5_7_2532">
<rect width="24.7662" height="24.7645" fill="white" transform="translate(51.6749 44.6731)"/>
</clipPath>
<clipPath id="clip6_7_2532">
<rect width="24.7662" height="24.7645" fill="white" transform="translate(98.3983 44.0681)"/>
</clipPath>
</defs>
</svg>
