<svg width="18" height="18" viewBox="0 0 18 18" fill="none" xmlns="http://www.w3.org/2000/svg">
<g clip-path="url(#clip0_1812_3526)">
<path d="M17.5035 9.25886L11.727 15.5656C10.3065 17.1166 8.2995 18.0001 6.1965 18.0001H3C1.34325 18.0001 0 16.6569 0 15.0001V11.2501C0 9.59336 1.34325 8.25011 3 8.25011H8.84025C9.87075 8.25011 10.6853 9.19511 10.4633 10.2639C10.3185 10.9584 9.71025 11.4624 9.00825 11.5629L5.88675 12.0001C5.4765 12.0586 5.1915 12.4389 5.25075 12.8484C5.30925 13.2586 5.6895 13.5429 6.099 13.4844L9.288 13.0374C10.8345 12.8169 12.0007 11.4721 12.0007 9.90986C12.0007 9.74561 11.9768 9.58811 11.952 9.43136L14.6077 6.62861C15.2887 5.84861 16.6065 5.78861 17.3617 6.51086C18.1507 7.22936 18.2153 8.46161 17.5035 9.25886ZM5.625 6.75011V5.25011C5.625 4.83611 5.961 4.50011 6.375 4.50011C6.789 4.50011 7.125 4.83611 7.125 5.25011V6.75011H9.75C10.2863 6.81161 10.7933 7.00211 11.25 7.24511V5.25011C11.25 4.00736 10.2428 3.00011 9 3.00011H8.32575C8.82225 2.70761 9.20025 2.43761 9.21 2.43011C9.8985 1.91336 9.95325 0.865607 9.23175 0.284357C8.739 -0.113143 8.05875 -0.0943934 7.5585 0.294107C6.7605 0.913607 6.45825 1.97711 6.375 2.45486C6.29175 1.97711 5.9895 0.914357 5.1915 0.294107C4.69125 -0.0943934 4.01175 -0.113143 3.51825 0.284357C2.79675 0.866357 2.8515 1.91411 3.54 2.43011C3.54975 2.43761 3.92775 2.70761 4.42425 3.00011H3.75C2.50725 3.00011 1.5 4.00736 1.5 5.25011V6.91436C1.8585 6.81086 2.2335 6.75011 2.625 6.75011H5.625Z" fill="#00D1FF"/>
</g>
<defs>
<clipPath id="clip0_1812_3526">
<rect width="18" height="18" fill="white"/>
</clipPath>
</defs>
</svg>
