<svg width="18" height="18" viewBox="0 0 18 18" fill="none" xmlns="http://www.w3.org/2000/svg">
<g clip-path="url(#clip0_1812_3533)">
<path d="M12 2.0625C12 3.68475 9.885 5.70075 8.83125 6.546C8.66636 6.67819 8.46134 6.75023 8.25 6.75023C8.03866 6.75023 7.83364 6.67819 7.66875 6.546C6.615 5.7 4.5 3.68475 4.5 2.0625C4.47635 1.54066 4.66034 1.0307 5.01172 0.644179C5.36311 0.257656 5.85328 0.0260389 6.375 0C6.89672 0.0260389 7.38689 0.257656 7.73828 0.644179C8.08966 1.0307 8.27365 1.54066 8.25 2.0625C8.22635 1.54066 8.41034 1.0307 8.76172 0.644179C9.11311 0.257656 9.60328 0.0260389 10.125 0C10.6467 0.0260389 11.1369 0.257656 11.4883 0.644179C11.8397 1.0307 12.0237 1.54066 12 2.0625ZM17.5035 9.2625L11.7285 15.5693C11.0254 16.3359 10.1705 16.9479 9.21813 17.3664C8.26576 17.7849 7.23675 18.0006 6.1965 18H3C2.20435 18 1.44129 17.6839 0.87868 17.1213C0.316071 16.5587 0 15.7956 0 15V11.25C0 10.4544 0.316071 9.69129 0.87868 9.12868C1.44129 8.56607 2.20435 8.25 3 8.25H8.84025C9.08817 8.25048 9.33284 8.30636 9.55638 8.41357C9.77992 8.52077 9.97667 8.67659 10.1322 8.86962C10.2878 9.06265 10.3983 9.28801 10.4555 9.52922C10.5128 9.77043 10.5155 10.0214 10.4633 10.2638C10.3821 10.6028 10.1992 10.9089 9.93912 11.141C9.67907 11.3732 9.35427 11.5204 9.00825 11.5627L5.886 12C5.68922 12.0282 5.51169 12.1334 5.39243 12.2925C5.27317 12.4515 5.22194 12.6514 5.25 12.8483C5.27805 13.0452 5.38317 13.2229 5.54225 13.3423C5.70133 13.4617 5.90133 13.513 6.09825 13.485L9.28725 13.035C10.0384 12.9244 10.725 12.5483 11.2226 11.975C11.7203 11.4016 11.9961 10.6689 12 9.90975C11.9963 9.74922 11.98 9.58922 11.9513 9.43125L14.6078 6.6285C14.9581 6.24918 15.4442 6.02389 15.9601 6.00183C16.476 5.97977 16.9796 6.16273 17.361 6.51075C17.7405 6.85854 17.9681 7.34153 17.9947 7.85558C18.0214 8.36964 17.845 8.87358 17.5035 9.25875V9.2625Z" fill="#00D1FF"/>
</g>
<defs>
<clipPath id="clip0_1812_3533">
<rect width="18" height="18" fill="white"/>
</clipPath>
</defs>
</svg>
