<svg width="18" height="18" viewBox="0 0 18 18" fill="none" xmlns="http://www.w3.org/2000/svg">
<g clip-path="url(#clip0_1812_3537)">
<path d="M18.0004 12.3749V12.7499H6.75039C6.70388 12.2775 6.75637 11.8005 6.90451 11.3495C7.05264 10.8985 7.29317 10.4833 7.61074 10.1305C7.92831 9.77761 8.31594 9.49483 8.74892 9.30017C9.18189 9.10551 9.65068 9.00324 10.1254 8.9999H14.6254C15.5205 8.9999 16.3789 9.35547 17.0119 9.98841C17.6448 10.6213 18.0004 11.4798 18.0004 12.3749ZM13.6504 15.6216C13.5272 15.7037 13.3825 15.7475 13.2345 15.7475C13.0865 15.7475 12.9418 15.7037 12.8186 15.6216L10.7576 14.2499H6.75039C6.704 14.7223 6.75657 15.1992 6.90475 15.6502C7.05293 16.1011 7.29346 16.5163 7.61101 16.8691C7.92855 17.2219 8.31614 17.5047 8.74906 17.6994C9.18198 17.8941 9.65072 17.9964 10.1254 17.9999H14.6254C15.1001 17.9965 15.5689 17.8943 16.0019 17.6996C16.4348 17.505 16.8225 17.2222 17.14 16.8693C17.4576 16.5165 17.6981 16.1013 17.8463 15.6503C17.9944 15.1993 18.0469 14.7223 18.0004 14.2499H15.7129L13.6504 15.6216ZM5.25039 12.3749V14.6249C5.25052 15.8883 5.74346 17.1018 6.62439 18.0074H4.89939C3.98576 18.0063 3.10389 17.6721 2.41907 17.0674C1.73424 16.4626 1.29347 15.6289 1.17939 14.7224L0.0446354 5.67889C-0.0137469 5.35465 -0.000690224 5.02157 0.0828947 4.70289C0.16648 4.38421 0.31858 4.0876 0.528588 3.83374C0.738596 3.57989 1.00146 3.37491 1.29883 3.2331C1.59621 3.09128 1.92094 3.01605 2.25039 3.01264H7.21314L7.34289 1.97464C7.41103 1.43083 7.67532 0.930589 8.08614 0.567822C8.49697 0.205054 9.02607 0.00470904 9.57414 0.00439453H12.0004C12.1993 0.00439453 12.3901 0.0834122 12.5307 0.224064C12.6714 0.364717 12.7504 0.555482 12.7504 0.754395C12.7504 0.953307 12.6714 1.14407 12.5307 1.28472C12.3901 1.42538 12.1993 1.50439 12.0004 1.50439H9.57414C8.75664 1.50439 8.80389 2.43814 8.72364 3.01339H10.5004C10.8366 3.01578 11.1681 3.09306 11.4707 3.23963C11.7733 3.38619 12.0394 3.59835 12.2497 3.86067C12.4601 4.123 12.6093 4.4289 12.6865 4.75613C12.7638 5.08336 12.7672 5.4237 12.6964 5.75239L12.4766 7.4999H10.1254C8.83282 7.50109 7.59354 8.01508 6.67956 8.92907C5.76557 9.84305 5.25158 11.0823 5.25039 12.3749ZM8.53539 4.51339L8.35014 5.99989H11.1551L11.2189 5.49364C11.2537 5.3807 11.2617 5.26118 11.2421 5.14462C11.2226 5.02806 11.176 4.91768 11.1062 4.82231C11.0364 4.72693 10.9453 4.64919 10.8401 4.59529C10.7349 4.5414 10.6186 4.51284 10.5004 4.51189L8.53539 4.51339ZM6.83889 5.99989L7.02564 4.51039H2.25039C2.13837 4.51116 2.02793 4.53685 1.92708 4.58561C1.82623 4.63437 1.7375 4.70498 1.66734 4.79231C1.59717 4.87963 1.54734 4.98149 1.52144 5.09047C1.49555 5.19946 1.49425 5.31284 1.51764 5.42239L1.59264 5.99989H6.83889Z" fill="#00D1FF"/>
</g>
<defs>
<clipPath id="clip0_1812_3537">
<rect width="18" height="18" fill="white"/>
</clipPath>
</defs>
</svg>
