<svg width="216" height="103" viewBox="0 0 216 103" fill="none" xmlns="http://www.w3.org/2000/svg">
<g filter="url(#filter0_d_1752_1468)">
<rect x="28" y="28" width="160" height="47" rx="8.75" fill="white" shape-rendering="crispEdges"/>
<mask id="mask0_1752_1468" style="mask-type:alpha" maskUnits="userSpaceOnUse" x="33" y="31" width="32" height="4">
<rect x="33" y="31.75" width="31.25" height="2.99686" rx="1.49843" fill="#F3B811"/>
</mask>
<g mask="url(#mask0_1752_1468)">
<path d="M33 31.75H44.5625V42.9882V48.2327H43.2366C39.5643 48.2327 36.0778 46.6179 33.7028 43.817L33 42.9882V31.75Z" fill="#E52021"/>
<rect x="44.5664" y="31.75" width="8.12499" height="16.4827" fill="#F7F7F7"/>
<path d="M52.6836 31.75H64.2461V42.9882L63.5433 43.817C61.1683 46.6179 57.6818 48.2327 54.0095 48.2327H52.6836V42.9882V31.75Z" fill="#268A42"/>
<rect x="33" y="31.75" width="31.25" height="2.99686" rx="1.49843" fill="black" fill-opacity="0.05"/>
</g>
<path d="M44.5566 45.9258L44.5322 45.9199C43.2096 45.5804 41.7997 46.2294 41.2529 47.4297L40.8975 48.21C40.8452 48.3248 40.7645 48.4258 40.6621 48.5039C40.5596 48.5821 40.4385 48.636 40.3096 48.6592L39.4346 48.8164C39.1905 48.8604 38.959 48.9358 38.7432 49.0361C38.0651 48.4393 37.4728 47.7349 36.9971 46.9365L36.4316 45.9873V34.749H44.5566V45.9258Z" fill="#E52021"/>
<path d="M52.6875 45.9268L51.8584 46.1406C51.7317 46.1732 51.5977 46.1754 51.4697 46.1475C51.342 46.1195 51.2233 46.0623 51.124 45.9805L50.4492 45.4248C49.412 44.5706 47.8479 44.5706 46.8105 45.4248L46.1357 45.9805C46.0365 46.0623 45.9178 46.1195 45.79 46.1475C45.6621 46.1754 45.5281 46.1732 45.4014 46.1406L44.5625 45.9248V34.749H52.6875V45.9268Z" fill="#F7F7F7"/>
<path d="M60.8125 45.9873L60.2471 46.9365C59.771 47.7355 59.1778 48.44 58.499 49.0371C58.2824 48.9361 58.0498 48.8606 57.8047 48.8164L56.9297 48.6592C56.8007 48.636 56.6798 48.5821 56.5771 48.5039C56.4746 48.4257 56.3932 48.325 56.3408 48.21L55.9854 47.4297C55.4385 46.2294 54.0287 45.5801 52.7061 45.9199L52.6875 45.9238V34.749H60.8125V45.9873Z" fill="#268A42"/>
<path d="M48.7793 33.4541L49.1128 36.8484L50.4301 33.6817L49.7529 37.0287L51.9471 34.3461L50.3141 37.3746L53.2075 35.3935L50.751 37.858L54.1092 36.739L51.0281 38.44L54.579 38.2735L51.123 39.0732L54.579 39.8729L51.0281 39.7065L54.1092 41.4075L50.751 40.2884L53.2075 42.753L50.3141 40.7719L51.9471 43.8003L49.7529 41.1177L50.4301 44.4647L49.1128 41.298L48.7793 44.6923L48.4457 41.298L47.1285 44.4647L47.8057 41.1177L45.6115 43.8003L47.2445 40.7719L44.3511 42.753L46.8076 40.2884L43.4494 41.4075L46.5305 39.7065L42.9796 39.8729L46.4355 39.0732L42.9796 38.2735L46.5305 38.44L43.4494 36.739L46.8076 37.858L44.3511 35.3935L47.2445 37.3746L45.6115 34.3461L47.8057 37.0287L47.1285 33.6817L48.4457 36.8484L48.7793 33.4541Z" fill="#F7B70F"/>
<path fill-rule="evenodd" clip-rule="evenodd" d="M60.3246 58.9263C60.2699 58.825 60.2412 58.7122 60.2412 58.5976C60.2412 58.483 60.2698 58.3702 60.3246 58.2689L60.6955 57.5822C61.2662 56.5257 60.9561 55.1942 59.9741 54.4849L59.3359 54.024C59.2417 53.9561 59.166 53.8666 59.1152 53.7634C59.0645 53.6601 59.0403 53.5463 59.0448 53.4318L59.075 52.6554C59.1214 51.4609 58.2524 50.3931 57.0536 50.1716L56.2745 50.0276C56.1595 50.0064 56.0517 49.958 55.9603 49.8866C55.8689 49.8151 55.7967 49.7229 55.75 49.6178L55.4334 48.9054C54.9463 47.8095 53.6907 47.2168 52.5124 47.527L51.7467 47.7286C51.6338 47.7584 51.5152 47.7606 51.4012 47.7351C51.2872 47.7096 51.1813 47.6572 51.0928 47.5824L50.4921 47.0751C49.5681 46.2949 48.1742 46.2949 47.2501 47.0751L46.6494 47.5824C46.5608 47.6572 46.455 47.7096 46.341 47.7351C46.227 47.7606 46.1084 47.7584 45.9955 47.7286L45.2298 47.527C44.0515 47.2169 42.7959 47.8095 42.3088 48.9054L41.9921 49.6178C41.9455 49.7229 41.8733 49.8152 41.7819 49.8866C41.6905 49.958 41.5826 50.0064 41.4677 50.0276L40.6885 50.1716C39.4897 50.3931 38.6207 51.4609 38.6671 52.6554L38.6973 53.4318C38.7018 53.5463 38.6776 53.6601 38.6269 53.7633C38.5762 53.8666 38.5004 53.9561 38.4063 54.024L37.768 54.485C36.786 55.1942 36.4759 56.5258 37.0466 57.5823L37.4175 58.269C37.4723 58.3702 37.5009 58.483 37.5009 58.5976C37.5009 58.7122 37.4723 58.825 37.4175 58.9263L37.0466 59.6129C36.4759 60.6694 36.786 62.001 37.768 62.7102L38.4062 63.1712C38.5004 63.2391 38.5761 63.3286 38.6268 63.4319C38.6776 63.5351 38.7017 63.649 38.6972 63.7635L38.6671 64.5399C38.6207 65.7344 39.4897 66.8022 40.6885 67.0237L41.097 67.0991L41.0971 67.099L41.4675 67.1674C41.5824 67.1886 41.6903 67.2371 41.7817 67.3085C41.8732 67.38 41.9453 67.4722 41.992 67.5773L42.3086 68.2896C42.7957 69.3855 44.0514 69.9783 45.2296 69.668L45.9953 69.4665C46.1082 69.4367 46.2269 69.4345 46.3408 69.46C46.4548 69.4855 46.5607 69.5379 46.6493 69.6127L47.2499 70.1199C47.2998 70.1618 47.3514 70.2018 47.4046 70.2396L47.4045 70.2399L47.4047 70.2398C47.8381 70.5498 48.3545 70.7053 48.871 70.7053C49.3797 70.7053 49.8883 70.5548 50.3175 70.2542L50.3175 70.2541C50.3777 70.212 50.4359 70.1672 50.492 70.1199L51.0927 69.6127C51.1812 69.5379 51.2871 69.4855 51.4011 69.46C51.5151 69.4345 51.6337 69.4367 51.7466 69.4665L52.5123 69.668C52.7231 69.7235 52.9362 69.7501 53.147 69.7501C54.1149 69.75 55.0333 69.1895 55.4333 68.2896L55.75 67.5773C55.7966 67.4722 55.8688 67.3799 55.9602 67.3085C56.0516 67.237 56.1594 67.1886 56.2743 67.1674L56.6193 67.1037L56.6194 67.1039L56.6194 67.1038L57.0537 67.0236C58.2525 66.8021 59.1215 65.7343 59.0751 64.5397L59.0449 63.7634C59.0404 63.6489 59.0646 63.5351 59.1153 63.4319C59.166 63.3286 59.2417 63.2391 59.3359 63.1712L59.9741 62.7102C60.9562 62.001 61.2663 60.6694 60.6956 59.6129L60.3246 58.9263Z" fill="#F3B811"/>
<ellipse cx="48.8708" cy="58.6604" rx="7.91767" ry="7.75857" fill="url(#paint0_linear_1752_1468)"/>
<path d="M51.8511 61.4313H45.8896C45.5814 61.4313 45.3307 61.6771 45.3307 61.979C45.3307 62.281 45.5814 62.5267 45.8896 62.5267H51.8511C52.1593 62.5267 52.41 62.281 52.41 61.979C52.41 61.6771 52.1593 61.4313 51.8511 61.4313ZM53.5278 56.6849C53.5278 57.0595 53.2372 57.3655 52.8661 57.4071L52.1484 61.0662H45.5922L44.8746 57.4071C44.5035 57.3655 44.2129 57.0595 44.2129 56.6849C44.2129 56.2822 44.5471 55.9547 44.9581 55.9547C45.369 55.9547 45.7033 56.2822 45.7033 56.6849C45.7033 56.9555 45.5505 57.1895 45.3266 57.3158C45.7573 58.3162 46.4328 58.93 47.0588 58.8745C47.7578 58.8186 48.3279 58.0088 48.6423 56.6539C48.2392 56.5538 47.9389 56.1979 47.9389 55.7721C47.9389 55.2687 48.3565 54.8594 48.8704 54.8594C49.3842 54.8594 49.8019 55.2687 49.8019 55.7721C49.8019 56.1979 49.5015 56.5539 49.0984 56.6539C49.4129 58.0088 49.9829 58.8186 50.6819 58.8745C51.3105 58.93 51.983 58.3162 52.4141 57.3158C52.1902 57.1895 52.0374 56.9555 52.0374 56.6849C52.0374 56.2822 52.3717 55.9547 52.7826 55.9547C53.1936 55.9547 53.5278 56.2822 53.5278 56.6849Z" fill="#F3B811"/>
<path d="M70.7925 45.8525L73.9425 37.1C74.1525 36.56 74.4375 36.1475 74.7975 35.8625C75.1575 35.5625 75.7425 35.4125 76.5525 35.4125C77.2725 35.4125 77.82 35.5475 78.195 35.8175C78.585 36.0875 78.885 36.515 79.095 37.1L82.3125 45.8525H79.815L78.8475 43.1525H73.515L72.57 45.8525H70.7925ZM73.875 42.185H78.42L77.0025 38.0675C76.9425 37.8725 76.86 37.7 76.755 37.55C76.665 37.4 76.4625 37.325 76.1475 37.325C75.8175 37.325 75.6 37.4075 75.495 37.5725C75.39 37.7225 75.3075 37.8875 75.2475 38.0675L73.875 42.185ZM88.7018 45.9875C87.4868 45.9875 86.5043 45.8675 85.7543 45.6275C85.0043 45.3875 84.4643 44.945 84.1343 44.3C83.8043 43.655 83.6393 42.71 83.6393 41.465C83.6393 40.175 83.8043 39.1925 84.1343 38.5175C84.4643 37.8275 85.0043 37.3625 85.7543 37.1225C86.5043 36.8675 87.4868 36.74 88.7018 36.74C89.0918 36.74 89.4593 36.755 89.8043 36.785C90.1643 36.815 90.5768 36.8675 91.0418 36.9425C91.2968 36.9725 91.4993 37.0325 91.6493 37.1225C91.8143 37.2125 91.9343 37.3475 92.0093 37.5275C92.0843 37.6925 92.1218 37.94 92.1218 38.27C91.9418 38.195 91.6793 38.1275 91.3343 38.0675C90.9893 38.0075 90.6218 37.9625 90.2318 37.9325C89.8418 37.9025 89.4968 37.8875 89.1968 37.8875C88.3418 37.8875 87.6593 38 87.1493 38.225C86.6543 38.435 86.3018 38.7875 86.0918 39.2825C85.8968 39.7775 85.7993 40.46 85.7993 41.33C85.7993 42.2 85.8968 42.89 86.0918 43.4C86.3018 43.91 86.6543 44.27 87.1493 44.48C87.6443 44.69 88.3268 44.795 89.1968 44.795C89.6018 44.795 89.9918 44.78 90.3668 44.75C90.7418 44.705 91.0793 44.6525 91.3793 44.5925C91.6943 44.5175 91.9418 44.45 92.1218 44.39V44.9975C92.1218 45.2675 91.9718 45.4775 91.6718 45.6275C91.3718 45.7625 90.9668 45.8525 90.4568 45.8975C89.9618 45.9575 89.3768 45.9875 88.7018 45.9875ZM98.0908 45.9875C97.1608 45.9875 96.4033 45.9425 95.8183 45.8525C95.2333 45.7775 94.7833 45.635 94.4683 45.425C94.1533 45.215 93.9358 44.93 93.8158 44.57C93.7108 44.21 93.6583 43.76 93.6583 43.22C93.6583 42.455 93.7408 41.8775 93.9058 41.4875C94.0858 41.0825 94.3858 40.805 94.8058 40.655C95.2408 40.505 95.8183 40.43 96.5383 40.43C96.9133 40.43 97.3258 40.4375 97.7758 40.4525C98.2408 40.4675 98.6833 40.49 99.1033 40.52C99.5383 40.535 99.9133 40.5575 100.228 40.5875C100.558 40.6175 100.776 40.655 100.881 40.7C100.881 40.07 100.828 39.575 100.723 39.215C100.618 38.855 100.446 38.585 100.206 38.405C99.9808 38.225 99.6958 38.105 99.3508 38.045C99.0058 37.985 98.6008 37.955 98.1358 37.955C97.6258 37.955 97.1158 37.97 96.6058 38C96.1108 38.03 95.6383 38.0825 95.1883 38.1575C94.7533 38.2325 94.3933 38.33 94.1083 38.45V38.0225C94.1083 37.6775 94.1983 37.43 94.3783 37.28C94.5733 37.13 94.8058 37.0325 95.0758 36.9875C95.3758 36.9125 95.8183 36.8525 96.4033 36.8075C96.9883 36.7625 97.6108 36.7475 98.2708 36.7625C99.1108 36.7625 99.8233 36.8075 100.408 36.8975C101.008 36.9725 101.488 37.1375 101.848 37.3925C102.223 37.6475 102.493 38.03 102.658 38.54C102.838 39.05 102.928 39.7325 102.928 40.5875V45.1775C102.793 45.4625 102.336 45.6725 101.556 45.8075C100.776 45.9275 99.6208 45.9875 98.0908 45.9875ZM98.0908 45.0425C98.6908 45.0425 99.1783 45.0275 99.5533 44.9975C99.9433 44.9525 100.243 44.9 100.453 44.84C100.663 44.765 100.806 44.675 100.881 44.57V41.465C100.746 41.42 100.506 41.3825 100.161 41.3525C99.8158 41.3075 99.4558 41.27 99.0808 41.24C98.7058 41.21 98.3908 41.195 98.1358 41.195C97.5808 41.195 97.1308 41.2325 96.7858 41.3075C96.4408 41.3825 96.1933 41.555 96.0433 41.825C95.8933 42.095 95.8183 42.515 95.8183 43.085C95.8183 43.55 95.8708 43.925 95.9758 44.21C96.0808 44.495 96.2908 44.705 96.6058 44.84C96.9358 44.975 97.4308 45.0425 98.0908 45.0425ZM104.909 41.33C104.909 40.115 105.074 39.185 105.404 38.54C105.734 37.88 106.214 37.43 106.844 37.19C107.474 36.935 108.231 36.8075 109.116 36.8075C109.386 36.8075 109.694 36.8225 110.039 36.8525C110.399 36.8675 110.751 36.8975 111.096 36.9425C111.441 36.9875 111.749 37.04 112.019 37.1C112.289 37.145 112.476 37.1975 112.581 37.2575L112.019 37.5275V34.49H114.089L114.066 41.33C114.066 42.35 113.991 43.1675 113.841 43.7825C113.691 44.3825 113.444 44.8325 113.099 45.1325C112.754 45.4325 112.274 45.635 111.659 45.74C111.044 45.845 110.279 45.8975 109.364 45.8975C108.509 45.8975 107.789 45.845 107.204 45.74C106.634 45.62 106.176 45.4025 105.831 45.0875C105.501 44.7725 105.261 44.315 105.111 43.715C104.976 43.115 104.909 42.32 104.909 41.33ZM109.319 44.75C109.904 44.75 110.376 44.7125 110.736 44.6375C111.096 44.5475 111.366 44.39 111.546 44.165C111.741 43.94 111.869 43.625 111.929 43.22C111.989 42.8 112.019 42.26 112.019 41.6L111.996 38.1575C111.846 38.1425 111.644 38.1275 111.389 38.1125C111.134 38.0975 110.864 38.09 110.579 38.09C110.294 38.075 110.031 38.0675 109.791 38.0675C109.116 38.0675 108.576 38.1575 108.171 38.3375C107.766 38.5025 107.474 38.825 107.294 39.305C107.114 39.785 107.024 40.475 107.024 41.375C107.024 42.335 107.091 43.055 107.226 43.535C107.376 44.015 107.616 44.3375 107.946 44.5025C108.291 44.6675 108.749 44.75 109.319 44.75ZM117.175 45.8525C116.83 45.8525 116.598 45.8 116.478 45.695C116.373 45.59 116.32 45.365 116.32 45.02V37.505C116.485 37.46 116.695 37.4 116.95 37.325C117.22 37.25 117.528 37.175 117.873 37.1C118.233 37.01 118.623 36.9425 119.043 36.8975C119.478 36.8525 119.928 36.83 120.393 36.83C120.933 36.83 121.398 36.875 121.788 36.965C122.178 37.04 122.515 37.19 122.8 37.415C123.085 37.625 123.318 37.9325 123.498 38.3375L123.138 38.315C123.258 38.03 123.438 37.79 123.678 37.595C123.918 37.385 124.188 37.2275 124.488 37.1225C124.803 37.0025 125.125 36.92 125.455 36.875C125.785 36.83 126.093 36.8075 126.378 36.8075C127.278 36.8075 127.983 36.8975 128.493 37.0775C129.018 37.2425 129.385 37.5275 129.595 37.9325C129.82 38.3375 129.933 38.8925 129.933 39.5975V45.0875C129.933 45.4025 129.873 45.6125 129.753 45.7175C129.648 45.8075 129.438 45.8525 129.123 45.8525H127.84C127.84 44.8025 127.84 43.7525 127.84 42.7025C127.84 41.6525 127.84 40.595 127.84 39.53C127.825 38.885 127.675 38.45 127.39 38.225C127.105 38 126.67 37.8875 126.085 37.8875C125.815 37.8875 125.53 37.925 125.23 38C124.945 38.075 124.698 38.18 124.488 38.315C124.293 38.45 124.195 38.6075 124.195 38.7875V45.8525H122.08V39.0575C122.08 38.6975 121.915 38.42 121.585 38.225C121.255 38.015 120.828 37.91 120.303 37.91C119.988 37.91 119.695 37.94 119.425 38C119.155 38.045 118.93 38.1125 118.75 38.2025C118.57 38.2925 118.465 38.4125 118.435 38.5625V45.8525H117.175ZM134.32 45.9425C133.525 45.9425 132.985 45.755 132.7 45.38C132.415 44.99 132.272 44.4125 132.272 43.6475L132.295 36.875H134.387V43.535C134.387 44.105 134.455 44.495 134.59 44.705C134.74 44.915 134.987 45.02 135.332 45.02C135.467 45.02 135.617 45.005 135.782 44.975C135.947 44.945 136.052 44.9225 136.097 44.9075V45.7625C136.037 45.7775 135.94 45.8 135.805 45.83C135.67 45.86 135.482 45.8825 135.242 45.8975C135.002 45.9275 134.695 45.9425 134.32 45.9425ZM133.375 35.6375C133.03 35.6375 132.767 35.5925 132.587 35.5025C132.422 35.3975 132.34 35.21 132.34 34.94C132.34 34.67 132.422 34.49 132.587 34.4C132.752 34.295 133.015 34.2425 133.375 34.2425C133.72 34.2425 133.967 34.295 134.117 34.4C134.282 34.49 134.365 34.67 134.365 34.94C134.365 35.21 134.282 35.3975 134.117 35.5025C133.967 35.5925 133.72 35.6375 133.375 35.6375ZM142.183 45.9875C140.968 45.9875 139.986 45.8675 139.236 45.6275C138.486 45.3875 137.946 44.945 137.616 44.3C137.286 43.655 137.121 42.71 137.121 41.465C137.121 40.175 137.286 39.1925 137.616 38.5175C137.946 37.8275 138.486 37.3625 139.236 37.1225C139.986 36.8675 140.968 36.74 142.183 36.74C142.573 36.74 142.941 36.755 143.286 36.785C143.646 36.815 144.058 36.8675 144.523 36.9425C144.778 36.9725 144.981 37.0325 145.131 37.1225C145.296 37.2125 145.416 37.3475 145.491 37.5275C145.566 37.6925 145.603 37.94 145.603 38.27C145.423 38.195 145.161 38.1275 144.816 38.0675C144.471 38.0075 144.103 37.9625 143.713 37.9325C143.323 37.9025 142.978 37.8875 142.678 37.8875C141.823 37.8875 141.141 38 140.631 38.225C140.136 38.435 139.783 38.7875 139.573 39.2825C139.378 39.7775 139.281 40.46 139.281 41.33C139.281 42.2 139.378 42.89 139.573 43.4C139.783 43.91 140.136 44.27 140.631 44.48C141.126 44.69 141.808 44.795 142.678 44.795C143.083 44.795 143.473 44.78 143.848 44.75C144.223 44.705 144.561 44.6525 144.861 44.5925C145.176 44.5175 145.423 44.45 145.603 44.39V44.9975C145.603 45.2675 145.453 45.4775 145.153 45.6275C144.853 45.7625 144.448 45.8525 143.938 45.8975C143.443 45.9575 142.858 45.9875 142.183 45.9875Z" fill="#1C274C"/>
<path d="M71.9525 66.1025V58.735C71.9525 58.42 71.9817 58.2275 72.04 58.1575C72.11 58.0875 72.2733 58.0525 72.53 58.0525H73.4925L76.38 64.475L76.415 64.5975L76.45 64.545L76.485 64.4225L79.3725 58.0525H80.3875C80.6325 58.0525 80.79 58.0817 80.86 58.14C80.9417 58.1867 80.9825 58.3325 80.9825 58.5775V65.56C80.9825 65.7234 80.965 65.84 80.93 65.91C80.9067 65.98 80.8542 66.0325 80.7725 66.0675C80.7025 66.0909 80.5917 66.1025 80.44 66.1025H79.6175V59.5225L79.5475 59.7675L76.695 66.1025H75.785L72.985 59.89L72.9325 59.645V66.1025H71.9525ZM86.8037 66.225C86.1154 66.225 85.5554 66.19 85.1237 66.12C84.692 66.05 84.3595 65.9334 84.1262 65.77C83.9045 65.595 83.747 65.3675 83.6537 65.0875C83.572 64.8075 83.5312 64.4634 83.5312 64.055C83.5312 63.46 83.6012 63.005 83.7412 62.69C83.8812 62.375 84.1262 62.1592 84.4762 62.0425C84.8262 61.9259 85.2929 61.8675 85.8762 61.8675C86.1679 61.8675 86.4829 61.8792 86.8212 61.9025C87.1712 61.9142 87.5037 61.9317 87.8187 61.955C88.1454 61.9667 88.4254 61.9842 88.6587 62.0075C88.9037 62.0309 89.067 62.06 89.1487 62.095C89.1487 61.5584 89.102 61.1325 89.0087 60.8175C88.9154 60.5025 88.7695 60.2692 88.5712 60.1175C88.3845 59.9659 88.1454 59.8667 87.8537 59.82C87.5737 59.7734 87.247 59.75 86.8737 59.75C86.4887 59.75 86.0979 59.7675 85.7012 59.8025C85.3162 59.8259 84.9604 59.8725 84.6337 59.9425C84.307 60.0009 84.0562 60.0825 83.8812 60.1875V59.925C83.8812 59.68 83.9512 59.5109 84.0912 59.4175C84.2429 59.3125 84.412 59.2425 84.5987 59.2075C84.8204 59.1492 85.1412 59.1025 85.5612 59.0675C85.9929 59.0325 86.442 59.0209 86.9087 59.0325C87.5037 59.0325 88.0112 59.0617 88.4312 59.12C88.8629 59.1784 89.2187 59.3067 89.4987 59.505C89.7787 59.6917 89.9887 59.9775 90.1287 60.3625C90.2687 60.7475 90.3387 61.2725 90.3387 61.9375V65.5425C90.2687 65.7759 89.9595 65.9509 89.4112 66.0675C88.8629 66.1725 87.9937 66.225 86.8037 66.225ZM86.8037 65.63C87.3404 65.63 87.7662 65.6125 88.0812 65.5775C88.4079 65.5425 88.6529 65.4959 88.8162 65.4375C88.9912 65.3792 89.102 65.3034 89.1487 65.21V62.6025C89.0437 62.5675 88.8454 62.5325 88.5537 62.4975C88.2737 62.4625 87.9762 62.4334 87.6612 62.41C87.3462 62.375 87.0779 62.3575 86.8562 62.3575C86.3545 62.3575 85.9462 62.3867 85.6312 62.445C85.3279 62.5034 85.1062 62.6492 84.9662 62.8825C84.8379 63.1159 84.7737 63.4775 84.7737 63.9675C84.7737 64.3525 84.8204 64.6675 84.9137 64.9125C85.007 65.1575 85.1937 65.3384 85.4737 65.455C85.7654 65.5717 86.2087 65.63 86.8037 65.63ZM93.0407 66.1025C92.7724 66.1025 92.6382 65.9625 92.6382 65.6825V59.6275C92.9765 59.4759 93.4199 59.3417 93.9682 59.225C94.5282 59.1084 95.1699 59.05 95.8932 59.05C96.5699 59.05 97.1182 59.0967 97.5382 59.19C97.9582 59.2834 98.279 59.4234 98.5007 59.61C98.7224 59.7967 98.8682 60.0417 98.9382 60.345C99.0199 60.6367 99.0607 60.9925 99.0607 61.4125V65.5775C99.0607 65.7059 99.0432 65.8109 99.0082 65.8925C98.9849 65.9742 98.9324 66.0325 98.8507 66.0675C98.7807 66.0909 98.6699 66.1025 98.5182 66.1025H97.8357V61.1675C97.8357 60.7009 97.684 60.3567 97.3807 60.135C97.0774 59.9134 96.5815 59.8025 95.8932 59.8025C95.6715 59.8025 95.4265 59.82 95.1582 59.855C94.9015 59.89 94.6565 59.9425 94.4232 60.0125C94.1899 60.0709 93.9974 60.1525 93.8457 60.2575V66.1025H93.0407ZM104.388 66.225C103.7 66.225 103.14 66.19 102.708 66.12C102.277 66.05 101.944 65.9334 101.711 65.77C101.489 65.595 101.332 65.3675 101.238 65.0875C101.157 64.8075 101.116 64.4634 101.116 64.055C101.116 63.46 101.186 63.005 101.326 62.69C101.466 62.375 101.711 62.1592 102.061 62.0425C102.411 61.9259 102.878 61.8675 103.461 61.8675C103.753 61.8675 104.068 61.8792 104.406 61.9025C104.756 61.9142 105.088 61.9317 105.403 61.955C105.73 61.9667 106.01 61.9842 106.243 62.0075C106.488 62.0309 106.652 62.06 106.733 62.095C106.733 61.5584 106.687 61.1325 106.593 60.8175C106.5 60.5025 106.354 60.2692 106.156 60.1175C105.969 59.9659 105.73 59.8667 105.438 59.82C105.158 59.7734 104.832 59.75 104.458 59.75C104.073 59.75 103.683 59.7675 103.286 59.8025C102.901 59.8259 102.545 59.8725 102.218 59.9425C101.892 60.0009 101.641 60.0825 101.466 60.1875V59.925C101.466 59.68 101.536 59.5109 101.676 59.4175C101.828 59.3125 101.997 59.2425 102.183 59.2075C102.405 59.1492 102.726 59.1025 103.146 59.0675C103.578 59.0325 104.027 59.0209 104.493 59.0325C105.088 59.0325 105.596 59.0617 106.016 59.12C106.448 59.1784 106.803 59.3067 107.083 59.505C107.363 59.6917 107.573 59.9775 107.713 60.3625C107.853 60.7475 107.923 61.2725 107.923 61.9375V65.5425C107.853 65.7759 107.544 65.9509 106.996 66.0675C106.448 66.1725 105.578 66.225 104.388 66.225ZM104.388 65.63C104.925 65.63 105.351 65.6125 105.666 65.5775C105.993 65.5425 106.238 65.4959 106.401 65.4375C106.576 65.3792 106.687 65.3034 106.733 65.21V62.6025C106.628 62.5675 106.43 62.5325 106.138 62.4975C105.858 62.4625 105.561 62.4334 105.246 62.41C104.931 62.375 104.663 62.3575 104.441 62.3575C103.939 62.3575 103.531 62.3867 103.216 62.445C102.913 62.5034 102.691 62.6492 102.551 62.8825C102.423 63.1159 102.358 63.4775 102.358 63.9675C102.358 64.3525 102.405 64.6675 102.498 64.9125C102.592 65.1575 102.778 65.3384 103.058 65.455C103.35 65.5717 103.793 65.63 104.388 65.63ZM113.198 68.0975C112.941 68.0975 112.65 68.0859 112.323 68.0625C112.008 68.0509 111.705 68.0159 111.413 67.9575C111.121 67.9109 110.876 67.835 110.678 67.73C110.491 67.6367 110.398 67.5142 110.398 67.3625C110.398 67.3159 110.398 67.2575 110.398 67.1875C110.398 67.1175 110.398 67.0709 110.398 67.0475C110.561 67.1292 110.795 67.205 111.098 67.275C111.413 67.345 111.745 67.3975 112.095 67.4325C112.445 67.4675 112.749 67.485 113.005 67.485C113.682 67.485 114.207 67.3859 114.58 67.1875C114.954 66.9892 115.205 66.6567 115.333 66.19C115.473 65.735 115.525 65.1284 115.49 64.37H115.753C115.636 64.7667 115.438 65.07 115.158 65.28C114.878 65.49 114.545 65.6359 114.16 65.7175C113.775 65.7992 113.361 65.84 112.918 65.84C112.241 65.84 111.681 65.7642 111.238 65.6125C110.795 65.4492 110.468 65.1342 110.258 64.6675C110.048 64.1892 109.943 63.4892 109.943 62.5675C109.943 61.8209 110.007 61.22 110.135 60.765C110.275 60.2984 110.491 59.9425 110.783 59.6975C111.075 59.4525 111.454 59.2892 111.92 59.2075C112.399 59.1142 112.976 59.0675 113.653 59.0675C113.91 59.0675 114.195 59.0792 114.51 59.1025C114.825 59.1259 115.14 59.1492 115.455 59.1725C115.77 59.1842 116.045 59.2017 116.278 59.225C116.523 59.2484 116.686 59.2717 116.768 59.295C116.756 59.33 116.745 59.4292 116.733 59.5925C116.721 59.7442 116.715 59.925 116.715 60.135C116.715 60.3334 116.715 60.5259 116.715 60.7125V64.86C116.715 65.6767 116.593 66.3184 116.348 66.785C116.115 67.2634 115.741 67.6017 115.228 67.8C114.715 67.9984 114.038 68.0975 113.198 68.0975ZM113.198 65.105C113.63 65.105 114.015 65.0584 114.353 64.965C114.691 64.86 114.965 64.6967 115.175 64.475C115.385 64.2417 115.49 63.9325 115.49 63.5475V59.9425C115.385 59.9192 115.146 59.89 114.773 59.855C114.4 59.8084 113.968 59.785 113.478 59.785C112.906 59.785 112.457 59.8609 112.13 60.0125C111.804 60.1525 111.565 60.415 111.413 60.8C111.273 61.1734 111.203 61.7159 111.203 62.4275C111.203 63.1509 111.267 63.7109 111.395 64.1075C111.524 64.4925 111.734 64.755 112.025 64.895C112.317 65.035 112.708 65.105 113.198 65.105ZM122.425 66.2075C121.749 66.2075 121.177 66.1609 120.71 66.0675C120.255 65.9742 119.888 65.7992 119.608 65.5425C119.34 65.2859 119.141 64.93 119.013 64.475C118.896 64.0084 118.838 63.4075 118.838 62.6725C118.838 61.8325 118.943 61.1442 119.153 60.6075C119.363 60.0709 119.736 59.6742 120.273 59.4175C120.81 59.1609 121.562 59.0325 122.53 59.0325C123.277 59.0325 123.872 59.1317 124.315 59.33C124.77 59.5284 125.097 59.8317 125.295 60.24C125.505 60.6484 125.61 61.1792 125.61 61.8325V62.83H120.675C120.675 62.69 120.71 62.5734 120.78 62.48C120.85 62.375 120.979 62.3225 121.165 62.3225H124.508L124.49 61.815C124.479 61.0917 124.321 60.5667 124.018 60.24C123.726 59.9134 123.213 59.75 122.478 59.75C121.86 59.75 121.375 59.8434 121.025 60.03C120.675 60.2167 120.43 60.52 120.29 60.94C120.15 61.36 120.08 61.9317 120.08 62.655C120.08 63.425 120.156 64.0142 120.308 64.4225C120.471 64.8192 120.74 65.0934 121.113 65.245C121.486 65.385 121.994 65.455 122.635 65.455C122.857 65.455 123.108 65.4492 123.388 65.4375C123.68 65.4142 123.971 65.3909 124.263 65.3675C124.555 65.3442 124.811 65.315 125.033 65.28C125.266 65.2334 125.43 65.1867 125.523 65.14V65.35C125.523 65.4667 125.488 65.5775 125.418 65.6825C125.36 65.7875 125.231 65.875 125.033 65.945C124.776 66.05 124.426 66.12 123.983 66.155C123.551 66.19 123.032 66.2075 122.425 66.2075ZM135.422 66.225C134.734 66.225 134.174 66.19 133.742 66.12C133.311 66.05 132.978 65.9334 132.745 65.77C132.523 65.595 132.366 65.3675 132.272 65.0875C132.191 64.8075 132.15 64.4634 132.15 64.055C132.15 63.46 132.22 63.005 132.36 62.69C132.5 62.375 132.745 62.1592 133.095 62.0425C133.445 61.9259 133.911 61.8675 134.495 61.8675C134.786 61.8675 135.101 61.8792 135.44 61.9025C135.79 61.9142 136.122 61.9317 136.437 61.955C136.764 61.9667 137.044 61.9842 137.277 62.0075C137.522 62.0309 137.686 62.06 137.767 62.095C137.767 61.5584 137.721 61.1325 137.627 60.8175C137.534 60.5025 137.388 60.2692 137.19 60.1175C137.003 59.9659 136.764 59.8667 136.472 59.82C136.192 59.7734 135.866 59.75 135.492 59.75C135.107 59.75 134.716 59.7675 134.32 59.8025C133.935 59.8259 133.579 59.8725 133.252 59.9425C132.926 60.0009 132.675 60.0825 132.5 60.1875V59.925C132.5 59.68 132.57 59.5109 132.71 59.4175C132.861 59.3125 133.031 59.2425 133.217 59.2075C133.439 59.1492 133.76 59.1025 134.18 59.0675C134.611 59.0325 135.061 59.0209 135.527 59.0325C136.122 59.0325 136.63 59.0617 137.05 59.12C137.481 59.1784 137.837 59.3067 138.117 59.505C138.397 59.6917 138.607 59.9775 138.747 60.3625C138.887 60.7475 138.957 61.2725 138.957 61.9375V65.5425C138.887 65.7759 138.578 65.9509 138.03 66.0675C137.481 66.1725 136.612 66.225 135.422 66.225ZM135.422 65.63C135.959 65.63 136.385 65.6125 136.7 65.5775C137.026 65.5425 137.271 65.4959 137.435 65.4375C137.61 65.3792 137.721 65.3034 137.767 65.21V62.6025C137.662 62.5675 137.464 62.5325 137.172 62.4975C136.892 62.4625 136.595 62.4334 136.28 62.41C135.965 62.375 135.696 62.3575 135.475 62.3575C134.973 62.3575 134.565 62.3867 134.25 62.445C133.946 62.5034 133.725 62.6492 133.585 62.8825C133.456 63.1159 133.392 63.4775 133.392 63.9675C133.392 64.3525 133.439 64.6675 133.532 64.9125C133.626 65.1575 133.812 65.3384 134.092 65.455C134.384 65.5717 134.827 65.63 135.422 65.63ZM144.774 66.2075C143.864 66.2075 143.129 66.1142 142.569 65.9275C142.009 65.7409 141.601 65.3967 141.344 64.895C141.099 64.3817 140.977 63.635 140.977 62.655C140.977 61.6634 141.099 60.905 141.344 60.38C141.601 59.855 142.009 59.4992 142.569 59.3125C143.129 59.1142 143.864 59.015 144.774 59.015C145.078 59.015 145.358 59.0267 145.614 59.05C145.883 59.0734 146.186 59.1142 146.524 59.1725C146.711 59.1959 146.863 59.2425 146.979 59.3125C147.096 59.3709 147.178 59.4584 147.224 59.575C147.271 59.68 147.294 59.8375 147.294 60.0475C147.166 59.9775 146.962 59.9192 146.682 59.8725C146.413 59.8259 146.128 59.7909 145.824 59.7675C145.521 59.7325 145.253 59.715 145.019 59.715C144.319 59.715 143.765 59.8084 143.357 59.995C142.948 60.17 142.657 60.4675 142.482 60.8875C142.318 61.2959 142.237 61.8617 142.237 62.585C142.237 63.3084 142.318 63.8859 142.482 64.3175C142.645 64.7375 142.931 65.035 143.339 65.21C143.748 65.385 144.308 65.4725 145.019 65.4725C145.346 65.4725 145.655 65.4609 145.947 65.4375C146.238 65.4025 146.501 65.3617 146.734 65.315C146.979 65.2567 147.166 65.1925 147.294 65.1225V65.5075C147.294 65.6825 147.183 65.8225 146.962 65.9275C146.752 66.0209 146.46 66.0909 146.087 66.1375C145.713 66.1842 145.276 66.2075 144.774 66.2075ZM152.729 66.2075C151.819 66.2075 151.084 66.1142 150.524 65.9275C149.964 65.7409 149.556 65.3967 149.299 64.895C149.054 64.3817 148.932 63.635 148.932 62.655C148.932 61.6634 149.054 60.905 149.299 60.38C149.556 59.855 149.964 59.4992 150.524 59.3125C151.084 59.1142 151.819 59.015 152.729 59.015C153.033 59.015 153.313 59.0267 153.569 59.05C153.838 59.0734 154.141 59.1142 154.479 59.1725C154.666 59.1959 154.818 59.2425 154.934 59.3125C155.051 59.3709 155.133 59.4584 155.179 59.575C155.226 59.68 155.249 59.8375 155.249 60.0475C155.121 59.9775 154.917 59.9192 154.637 59.8725C154.368 59.8259 154.083 59.7909 153.779 59.7675C153.476 59.7325 153.208 59.715 152.974 59.715C152.274 59.715 151.72 59.8084 151.312 59.995C150.903 60.17 150.612 60.4675 150.437 60.8875C150.273 61.2959 150.192 61.8617 150.192 62.585C150.192 63.3084 150.273 63.8859 150.437 64.3175C150.6 64.7375 150.886 65.035 151.294 65.21C151.703 65.385 152.263 65.4725 152.974 65.4725C153.301 65.4725 153.61 65.4609 153.902 65.4375C154.193 65.4025 154.456 65.3617 154.689 65.315C154.934 65.2567 155.121 65.1925 155.249 65.1225V65.5075C155.249 65.6825 155.138 65.8225 154.917 65.9275C154.707 66.0209 154.415 66.0909 154.042 66.1375C153.668 66.1842 153.231 66.2075 152.729 66.2075ZM160.474 66.2075C159.798 66.2075 159.226 66.1609 158.759 66.0675C158.304 65.9742 157.937 65.7992 157.657 65.5425C157.388 65.2859 157.19 64.93 157.062 64.475C156.945 64.0084 156.887 63.4075 156.887 62.6725C156.887 61.8325 156.992 61.1442 157.202 60.6075C157.412 60.0709 157.785 59.6742 158.322 59.4175C158.858 59.1609 159.611 59.0325 160.579 59.0325C161.326 59.0325 161.921 59.1317 162.364 59.33C162.819 59.5284 163.146 59.8317 163.344 60.24C163.554 60.6484 163.659 61.1792 163.659 61.8325V62.83H158.724C158.724 62.69 158.759 62.5734 158.829 62.48C158.899 62.375 159.028 62.3225 159.214 62.3225H162.557L162.539 61.815C162.528 61.0917 162.37 60.5667 162.067 60.24C161.775 59.9134 161.262 59.75 160.527 59.75C159.908 59.75 159.424 59.8434 159.074 60.03C158.724 60.2167 158.479 60.52 158.339 60.94C158.199 61.36 158.129 61.9317 158.129 62.655C158.129 63.425 158.205 64.0142 158.357 64.4225C158.52 64.8192 158.788 65.0934 159.162 65.245C159.535 65.385 160.043 65.455 160.684 65.455C160.906 65.455 161.157 65.4492 161.437 65.4375C161.728 65.4142 162.02 65.3909 162.312 65.3675C162.603 65.3442 162.86 65.315 163.082 65.28C163.315 65.2334 163.478 65.1867 163.572 65.14V65.35C163.572 65.4667 163.537 65.5775 163.467 65.6825C163.408 65.7875 163.28 65.875 163.082 65.945C162.825 66.05 162.475 66.12 162.032 66.155C161.6 66.19 161.081 66.2075 160.474 66.2075ZM168.101 66.1725C167.903 66.1725 167.652 66.1667 167.349 66.155C167.057 66.1434 166.754 66.12 166.439 66.085C166.136 66.0384 165.861 65.9742 165.616 65.8925C165.5 65.8459 165.406 65.7992 165.336 65.7525C165.266 65.7059 165.214 65.6242 165.179 65.5075C165.156 65.3909 165.144 65.2159 165.144 64.9825C165.401 65.1109 165.704 65.2159 166.054 65.2975C166.404 65.3675 166.754 65.4142 167.104 65.4375C167.454 65.4609 167.746 65.4725 167.979 65.4725C168.329 65.4725 168.667 65.4609 168.994 65.4375C169.332 65.4025 169.636 65.3384 169.904 65.245C170.172 65.14 170.382 64.9884 170.534 64.79C170.697 64.5917 170.779 64.3292 170.779 64.0025C170.779 63.5242 170.656 63.2209 170.411 63.0925C170.166 62.9525 169.834 62.8825 169.414 62.8825H167.646C167.215 62.8825 166.806 62.8592 166.421 62.8125C166.048 62.7542 165.739 62.6084 165.494 62.375C165.261 62.13 165.144 61.7217 165.144 61.15C165.144 60.5317 165.296 60.0709 165.599 59.7675C165.902 59.4642 166.328 59.2659 166.876 59.1725C167.436 59.0792 168.084 59.0325 168.819 59.0325C169.087 59.0325 169.408 59.0384 169.781 59.05C170.155 59.0617 170.511 59.0967 170.849 59.155C171.082 59.19 171.275 59.2367 171.426 59.295C171.59 59.3417 171.706 59.4117 171.776 59.505C171.858 59.5984 171.899 59.7325 171.899 59.9075V60.2575C171.794 60.1409 171.619 60.0475 171.374 59.9775C171.129 59.9075 170.843 59.855 170.516 59.82C170.201 59.785 169.875 59.7675 169.536 59.7675C169.198 59.7559 168.883 59.75 168.591 59.75C168.218 59.75 167.856 59.7734 167.506 59.82C167.156 59.8667 166.871 59.9834 166.649 60.17C166.439 60.345 166.334 60.6484 166.334 61.08C166.334 61.4067 166.404 61.6459 166.544 61.7975C166.684 61.9492 166.871 62.0484 167.104 62.095C167.349 62.13 167.623 62.1475 167.926 62.1475H169.729C170.172 62.1475 170.563 62.1884 170.901 62.27C171.251 62.34 171.52 62.5092 171.706 62.7775C171.905 63.0342 172.004 63.4425 172.004 64.0025C172.004 64.6209 171.835 65.0875 171.496 65.4025C171.158 65.7175 170.691 65.9275 170.096 66.0325C169.513 66.1259 168.848 66.1725 168.101 66.1725ZM176.33 66.1725C176.132 66.1725 175.881 66.1667 175.577 66.155C175.286 66.1434 174.982 66.12 174.667 66.085C174.364 66.0384 174.09 65.9742 173.845 65.8925C173.728 65.8459 173.635 65.7992 173.565 65.7525C173.495 65.7059 173.442 65.6242 173.407 65.5075C173.384 65.3909 173.372 65.2159 173.372 64.9825C173.629 65.1109 173.932 65.2159 174.282 65.2975C174.632 65.3675 174.982 65.4142 175.332 65.4375C175.682 65.4609 175.974 65.4725 176.207 65.4725C176.557 65.4725 176.896 65.4609 177.222 65.4375C177.561 65.4025 177.864 65.3384 178.132 65.245C178.401 65.14 178.611 64.9884 178.762 64.79C178.926 64.5917 179.007 64.3292 179.007 64.0025C179.007 63.5242 178.885 63.2209 178.64 63.0925C178.395 62.9525 178.062 62.8825 177.642 62.8825H175.875C175.443 62.8825 175.035 62.8592 174.65 62.8125C174.277 62.7542 173.967 62.6084 173.722 62.375C173.489 62.13 173.372 61.7217 173.372 61.15C173.372 60.5317 173.524 60.0709 173.827 59.7675C174.131 59.4642 174.557 59.2659 175.105 59.1725C175.665 59.0792 176.312 59.0325 177.047 59.0325C177.316 59.0325 177.637 59.0384 178.01 59.05C178.383 59.0617 178.739 59.0967 179.077 59.155C179.311 59.19 179.503 59.2367 179.655 59.295C179.818 59.3417 179.935 59.4117 180.005 59.505C180.087 59.5984 180.127 59.7325 180.127 59.9075V60.2575C180.022 60.1409 179.847 60.0475 179.602 59.9775C179.357 59.9075 179.072 59.855 178.745 59.82C178.43 59.785 178.103 59.7675 177.765 59.7675C177.427 59.7559 177.112 59.75 176.82 59.75C176.447 59.75 176.085 59.7734 175.735 59.82C175.385 59.8667 175.099 59.9834 174.877 60.17C174.667 60.345 174.562 60.6484 174.562 61.08C174.562 61.4067 174.632 61.6459 174.772 61.7975C174.912 61.9492 175.099 62.0484 175.332 62.095C175.577 62.13 175.852 62.1475 176.155 62.1475H177.957C178.401 62.1475 178.792 62.1884 179.13 62.27C179.48 62.34 179.748 62.5092 179.935 62.7775C180.133 63.0342 180.232 63.4425 180.232 64.0025C180.232 64.6209 180.063 65.0875 179.725 65.4025C179.387 65.7175 178.92 65.9275 178.325 66.0325C177.742 66.1259 177.077 66.1725 176.33 66.1725Z" fill="#1C274C" fill-opacity="0.5"/>
</g>
<defs>
<filter id="filter0_d_1752_1468" x="0" y="0" width="216" height="103" filterUnits="userSpaceOnUse" color-interpolation-filters="sRGB">
<feFlood flood-opacity="0" result="BackgroundImageFix"/>
<feColorMatrix in="SourceAlpha" type="matrix" values="0 0 0 0 0 0 0 0 0 0 0 0 0 0 0 0 0 0 127 0" result="hardAlpha"/>
<feOffset/>
<feGaussianBlur stdDeviation="14"/>
<feComposite in2="hardAlpha" operator="out"/>
<feColorMatrix type="matrix" values="0 0 0 0 0.74902 0 0 0 0 0.74902 0 0 0 0 0.74902 0 0 0 0.25 0"/>
<feBlend mode="normal" in2="BackgroundImageFix" result="effect1_dropShadow_1752_1468"/>
<feBlend mode="normal" in="SourceGraphic" in2="effect1_dropShadow_1752_1468" result="shape"/>
</filter>
<linearGradient id="paint0_linear_1752_1468" x1="48.8568" y1="76.0166" x2="48.8568" y2="50.9019" gradientUnits="userSpaceOnUse">
<stop stop-color="#FFE59A"/>
<stop offset="1" stop-color="#FFFFD5"/>
</linearGradient>
</defs>
</svg>
