<svg width="30" height="30" viewBox="0 0 30 30" fill="none" xmlns="http://www.w3.org/2000/svg">
<rect width="30" height="30" rx="14" fill="#F2F2F2"/>
<g clip-path="url(#clip0_1870_4680)">
<path d="M21.5 18C21.5 18.621 20.996 19.125 20.375 19.125C19.754 19.125 19.25 18.621 19.25 18C19.25 17.379 19.754 16.875 20.375 16.875C20.996 16.875 21.5 17.379 21.5 18ZM13.625 8.25C13.004 8.25 12.5 8.754 12.5 9.375C12.5 9.996 13.004 10.5 13.625 10.5C14.246 10.5 14.75 9.996 14.75 9.375C14.75 8.754 14.246 8.25 13.625 8.25ZM21.125 10.5C21.746 10.5 22.25 9.996 22.25 9.375C22.25 8.754 21.746 8.25 21.125 8.25C20.504 8.25 20 8.754 20 9.375C20 9.996 20.504 10.5 21.125 10.5ZM24.5 9V21.75C24.5 22.9905 23.4905 24 22.25 24H10.25C8.18225 24 6.5 22.3177 6.5 20.25V12.75C6.5 12.099 6.6695 11.4667 6.98225 10.911C7.18625 10.5465 7.451 10.2188 7.76975 9.9375C8.08025 9.66375 8.55425 9.69225 8.82875 10.0035C9.1025 10.314 9.07325 10.788 8.76275 11.0625C8.696 11.1217 8.633 11.184 8.5745 11.25C8.99675 11.7203 9.6065 12 10.2508 12V9C10.25 7.3455 11.5955 6 13.25 6H21.5C23.1545 6 24.5 7.3455 24.5 9ZM11.75 12H15.125C15.125 10.7572 16.1322 9.75 17.375 9.75C18.6178 9.75 19.625 10.7572 19.625 12H22.25C22.514 12 22.7645 12.054 23 12.138V9C23 8.17275 22.3273 7.5 21.5 7.5H13.25C12.4227 7.5 11.75 8.17275 11.75 9V12ZM23 14.25C23 13.8368 22.664 13.5 22.25 13.5H10.25C9.428 13.5 8.6405 13.2277 8 12.7477V20.25C8 21.4905 9.0095 22.5 10.25 22.5H22.25C22.664 22.5 23 22.1632 23 21.75V14.25Z" fill="#8C8C91"/>
</g>
<defs>
<clipPath id="clip0_1870_4680">
<rect width="18" height="18" fill="white" transform="translate(6.5 6)"/>
</clipPath>
</defs>
</svg>
