<svg width="30" height="30" viewBox="0 0 30 30" fill="none" xmlns="http://www.w3.org/2000/svg">
<rect width="30" height="30" rx="14" fill="#F2F2F2"/>
<g clip-path="url(#clip0_1870_4282)">
<path d="M16.5833 13.4167C17.8928 13.4167 18.9583 12.3511 18.9583 11.0417C18.9583 9.73225 17.8928 8.66667 16.5833 8.66667C15.2739 8.66667 14.2083 9.73225 14.2083 11.0417C14.2083 12.3511 15.2739 13.4167 16.5833 13.4167ZM16.5833 10.25C17.0195 10.25 17.375 10.6055 17.375 11.0417C17.375 11.4779 17.0195 11.8333 16.5833 11.8333C16.1471 11.8333 15.7917 11.4779 15.7917 11.0417C15.7917 10.6055 16.1471 10.25 16.5833 10.25ZM13.4167 20.5417C13.4167 20.9787 13.062 21.3333 12.625 21.3333H8.66667C6.92025 21.3333 5.5 19.9131 5.5 18.1667V12.2292C5.5 11.7922 5.85467 11.4375 6.29167 11.4375C6.72867 11.4375 7.08333 11.7922 7.08333 12.2292V18.1667C7.08333 19.0399 7.79346 19.75 8.66667 19.75H12.625C13.062 19.75 13.4167 20.1047 13.4167 20.5417ZM17.375 20.5417C17.375 20.9787 17.0203 21.3333 16.5833 21.3333H15.7917C15.3547 21.3333 15 20.9787 15 20.5417C15 20.1047 15.3547 19.75 15.7917 19.75H16.5833C17.0203 19.75 17.375 20.1047 17.375 20.5417ZM11.8333 16.5833H21.3333C23.0798 16.5833 24.5 15.1631 24.5 13.4167V8.66667C24.5 6.92025 23.0798 5.5 21.3333 5.5H11.8333C10.0869 5.5 8.66667 6.92025 8.66667 8.66667V13.4167C8.66667 15.1631 10.0869 16.5833 11.8333 16.5833ZM10.25 8.66667C10.25 7.79346 10.9601 7.08333 11.8333 7.08333H21.3333C22.2065 7.08333 22.9167 7.79346 22.9167 8.66667V13.4167C22.9167 14.2899 22.2065 15 21.3333 15H11.8333C10.9601 15 10.25 14.2899 10.25 13.4167V8.66667ZM24.0654 21.5914L22.3055 23.4598C22.1495 23.6252 21.9398 23.7083 21.7292 23.7083C21.5344 23.7083 21.3389 23.6371 21.1861 23.493C20.8678 23.193 20.8528 22.6918 21.1528 22.3736L22.1329 21.3333H19.75C19.313 21.3333 18.9583 20.9787 18.9583 20.5417C18.9583 20.1047 19.313 19.75 19.75 19.75H22.1337L21.1528 18.7098C20.8536 18.3915 20.8678 17.8904 21.1861 17.5903C21.5035 17.2911 22.0047 17.3053 22.3055 17.6236L24.082 19.5085C24.6441 20.0698 24.6441 21.0127 24.0654 21.5914ZM11.0417 13.0208C11.0417 12.3653 11.5737 11.8333 12.2292 11.8333C12.8847 11.8333 13.4167 12.3653 13.4167 13.0208C13.4167 13.6763 12.8847 14.2083 12.2292 14.2083C11.5737 14.2083 11.0417 13.6763 11.0417 13.0208ZM11.0417 9.0625C11.0417 8.407 11.5737 7.875 12.2292 7.875C12.8847 7.875 13.4167 8.407 13.4167 9.0625C13.4167 9.718 12.8847 10.25 12.2292 10.25C11.5737 10.25 11.0417 9.718 11.0417 9.0625ZM19.75 13.0208C19.75 12.3653 20.282 11.8333 20.9375 11.8333C21.593 11.8333 22.125 12.3653 22.125 13.0208C22.125 13.6763 21.593 14.2083 20.9375 14.2083C20.282 14.2083 19.75 13.6763 19.75 13.0208ZM19.75 9.0625C19.75 8.407 20.282 7.875 20.9375 7.875C21.593 7.875 22.125 8.407 22.125 9.0625C22.125 9.718 21.593 10.25 20.9375 10.25C20.282 10.25 19.75 9.718 19.75 9.0625Z" fill="#8C8C91"/>
</g>
<defs>
<clipPath id="clip0_1870_4282">
<rect width="19" height="19" fill="white" transform="translate(5.5 5.5)"/>
</clipPath>
</defs>
</svg>
