<svg width="30" height="30" viewBox="0 0 30 30" fill="none" xmlns="http://www.w3.org/2000/svg">
<rect width="30" height="30" rx="14" fill="#F2F2F2"/>
<path d="M17.6731 15.9489H18.6541C21.4376 15.9489 23.7028 13.7177 23.7028 10.9744C23.7028 8.23153 21.438 6 18.6541 6H7.46312C6.9311 6 6.5 6.4251 6.5 6.94895C6.5 7.47314 6.93145 7.89789 7.46312 7.89789H18.6545C20.3761 7.89789 21.7766 9.27783 21.7766 10.9741C21.7766 12.6703 20.3761 14.0503 18.6545 14.0503H17.6734C17.1414 14.0503 16.7103 14.4754 16.7103 14.9992C16.7103 15.5231 17.1414 15.9489 17.6731 15.9489Z" fill="#8C8C91"/>
<path d="M7.46312 6H18.6541C21.438 6 23.7028 8.23153 23.7028 10.9744C23.7028 13.7177 21.4376 15.9489 18.6541 15.9489H17.6731C17.141 15.9489 16.7101 15.5238 16.7101 14.9999C16.7101 14.4761 17.1415 14.051 17.6732 14.051H18.6542C20.3758 14.051 21.7764 12.671 21.7764 10.9748C21.7764 9.27853 20.3758 7.89859 18.6542 7.89859H7.46324C6.93122 7.89859 6.50013 7.47348 6.50013 6.94964C6.49977 6.4251 6.9311 6 7.46312 6Z" fill="#8C8C91"/>
<path d="M12.3455 24H23.5369C24.0689 24 24.5 23.5749 24.5 23.0511C24.5 22.5272 24.0686 22.1021 23.5369 22.1021H12.3455C10.624 22.1021 9.22341 20.7222 9.22341 19.0259C9.22341 17.3297 10.624 15.9497 12.3455 15.9497H13.3266C13.8586 15.9497 14.2897 15.5246 14.2897 15.0008C14.2897 14.4769 13.8583 14.0518 13.3266 14.0518H12.3455C9.56203 14.0518 7.29683 16.283 7.29683 19.0263C7.29683 21.7688 9.56168 24 12.3455 24Z" fill="#8C8C91"/>
<path d="M12.3455 14.0511H13.3266C13.8586 14.0511 14.2897 14.4762 14.2897 15C14.2897 15.5238 13.8583 15.9489 13.3266 15.9489H12.3455C10.624 15.9489 9.22341 17.3289 9.22341 19.0251C9.22341 20.7211 10.624 22.1013 12.3455 22.1013H23.5369C24.0689 22.1013 24.5 22.5265 24.5 23.0503C24.5 23.5741 24.0686 23.9992 23.5369 23.9992H12.3455C9.56203 23.9992 7.29683 21.7681 7.29683 19.0248C7.29683 16.2822 9.56168 14.0511 12.3455 14.0511Z" fill="#8C8C91"/>
<path d="M16.0352 18.8618C16.2676 18.8618 16.5011 18.7793 16.6861 18.612C17.0781 18.2579 17.1045 17.6575 16.7451 17.2712L11.323 11.4462C10.9636 11.0592 10.3543 11.0332 9.96219 11.3883C9.56977 11.7424 9.54375 12.3428 9.90311 12.7291L15.3253 18.5541C15.5151 18.7585 15.7746 18.8618 16.0352 18.8618Z" fill="#8C8C91"/>
<path d="M20.382 18.8616C20.6144 18.8616 20.8479 18.7792 21.0329 18.6118C21.4253 18.2577 21.4513 17.6573 21.0919 17.271L15.6698 11.446C15.3101 11.059 14.7011 11.0331 14.309 11.3882C13.9166 11.7423 13.8906 12.3427 14.2499 12.729L19.6721 18.554C19.8619 18.7584 20.1215 18.8616 20.382 18.8616Z" fill="#8C8C91"/>
</svg>
