<svg width="24" height="24" viewBox="0 0 24 24" fill="none" xmlns="http://www.w3.org/2000/svg">
<path d="M22.9949 14.1194L22.9877 14.1231C22.1442 14.7957 21.7869 15.9404 22.0871 16.9997L22.0907 17.0072C22.5695 18.6908 21.3831 20.3892 19.6962 20.4339H19.6891C18.624 20.4636 17.6877 21.1697 17.3339 22.2141V22.2178C16.7692 23.8754 14.8465 24.5258 13.4563 23.526C12.5931 22.913 11.4519 22.881 10.5436 23.526H10.5401C9.1499 24.5221 7.22717 23.8754 6.66607 22.2141C6.30909 21.1671 5.37413 20.4635 4.31095 20.4338H4.30379C2.61698 20.3892 1.43043 18.6908 1.90935 17.0071L1.9129 16.9997C2.21304 15.9404 1.85566 14.7957 1.01231 14.123L1.00515 14.1193C-0.335049 13.0489 -0.335049 10.9528 1.00515 9.88238L1.01231 9.87868C1.85566 9.20599 2.21304 8.06124 1.90935 7.00201V6.99456C1.42683 5.31097 2.61693 3.61244 4.30379 3.56786H4.31095C5.37235 3.53812 6.31226 2.83195 6.66607 1.78761V1.78391C7.22713 0.126312 9.1499 -0.524082 10.5401 0.475725H10.5436C11.4192 1.10383 12.5771 1.10383 13.4563 0.475725C14.8605 -0.532729 16.7725 0.136258 17.3339 1.78391V1.78761C17.6877 2.82825 18.624 3.53817 19.6891 3.56786H19.6962C21.383 3.61244 22.5695 5.31097 22.0907 6.99456L22.0871 7.00201C21.7869 8.06124 22.1442 9.20599 22.9877 9.87868L22.9949 9.88238C24.3351 10.9528 24.3351 13.0489 22.9949 14.1194Z" fill="url(#paint0_linear_1957_5348)"/>
<path d="M11.9999 18.9232C15.6765 18.9232 18.657 15.8236 18.657 12C18.657 8.17649 15.6765 5.0769 11.9999 5.0769C8.32326 5.0769 5.34277 8.17649 5.34277 12C5.34277 15.8236 8.32326 18.9232 11.9999 18.9232Z" fill="url(#paint1_linear_1957_5348)"/>
<path d="M10.4157 14.7102L8.94361 13.0814C8.55808 12.6548 8.57797 11.984 8.98807 11.5831C9.39816 11.1816 10.0435 11.2032 10.4287 11.6295L11.1314 12.4067L14.1185 8.85619C14.4887 8.41557 15.1327 8.37088 15.5567 8.75648C15.9804 9.14208 16.0232 9.81162 15.6526 10.2522L11.9253 14.6823C11.5283 15.1537 10.8275 15.1661 10.4157 14.7102Z" fill="url(#paint2_linear_1957_5348)"/>
<defs>
<linearGradient id="paint0_linear_1957_5348" x1="12" y1="24" x2="12" y2="-3.86239e-05" gradientUnits="userSpaceOnUse">
<stop stop-color="#20C59D"/>
<stop offset="0.3103" stop-color="#38CE8C"/>
<stop offset="0.9631" stop-color="#75E461"/>
<stop offset="1" stop-color="#79E55E"/>
</linearGradient>
<linearGradient id="paint1_linear_1957_5348" x1="11.9999" y1="18.9231" x2="11.9999" y2="5.0769" gradientUnits="userSpaceOnUse">
<stop offset="0.0168" stop-color="#CCCCCC"/>
<stop offset="1" stop-color="#F2F2F2"/>
</linearGradient>
<linearGradient id="paint2_linear_1957_5348" x1="8.66698" y1="11.7691" x2="15.9048" y2="11.7691" gradientUnits="userSpaceOnUse">
<stop stop-color="#41262F"/>
<stop offset="1" stop-color="#543843"/>
</linearGradient>
</defs>
</svg>
