<svg width="85" height="108" viewBox="0 0 85 108" fill="none" xmlns="http://www.w3.org/2000/svg">
<path fill-rule="evenodd" clip-rule="evenodd" d="M0 88.1283V77.8757H54.1763V88.1283C54.1763 95.3935 42.0484 101.283 27.0881 101.283C12.1278 101.283 0 95.3935 0 88.1283Z" fill="url(#paint0_linear_1957_5019)"/>
<path fill-rule="evenodd" clip-rule="evenodd" d="M0 77.8776V67.6248H54.1763V77.8776C54.1763 85.1428 42.0484 91.0325 27.0881 91.0325C12.1278 91.0325 0 85.1428 0 77.8776Z" fill="url(#paint1_linear_1957_5019)"/>
<path fill-rule="evenodd" clip-rule="evenodd" d="M0 67.6247V57.3721H54.1763V67.6247C54.1763 74.8901 42.0484 80.7796 27.0881 80.7796C12.1278 80.7796 0 74.8898 0 67.6247Z" fill="url(#paint2_linear_1957_5019)"/>
<path fill-rule="evenodd" clip-rule="evenodd" d="M0 57.3715V47.1189H54.1763V57.3715C54.1763 64.6369 42.0484 70.5264 27.0881 70.5264C12.1278 70.5264 0 64.6367 0 57.3715Z" fill="url(#paint3_linear_1957_5019)"/>
<path fill-rule="evenodd" clip-rule="evenodd" d="M0 47.1154V36.8628H54.1763V47.1154C54.1763 54.3808 42.0484 60.2703 27.0881 60.2703C12.1278 60.2703 0 54.3806 0 47.1154Z" fill="url(#paint4_linear_1957_5019)"/>
<path d="M27.0881 50.0204C42.0485 50.0204 54.1763 44.1308 54.1763 36.8656C54.1763 29.6003 42.0485 23.7107 27.0881 23.7107C12.1278 23.7107 0 29.6003 0 36.8656C0 44.1308 12.1278 50.0204 27.0881 50.0204Z" fill="#F4C848"/>
<path d="M27.0909 46.8134C40.2805 46.8134 50.9728 42.3591 50.9728 36.8645C50.9728 31.3698 40.2805 26.9155 27.0909 26.9155C13.9013 26.9155 3.20898 31.3698 3.20898 36.8645C3.20898 42.3591 13.9013 46.8134 27.0909 46.8134Z" fill="#F19A00"/>
<path fill-rule="evenodd" clip-rule="evenodd" d="M28.1121 26.9263C40.8234 27.1512 50.9634 31.5145 50.9634 36.8651C50.9634 42.2158 40.8234 46.5791 28.1121 46.8042C15.4007 46.5793 5.26074 42.2158 5.26074 36.8651C5.26074 31.5145 15.4007 27.1512 28.1121 26.9263Z" fill="url(#paint5_linear_1957_5019)"/>
<path fill-rule="evenodd" clip-rule="evenodd" d="M30.8242 94.5832V84.3306H85.0005V94.5832C85.0005 101.848 72.8727 107.738 57.9123 107.738C42.952 107.738 30.8242 101.848 30.8242 94.5832Z" fill="url(#paint6_linear_1957_5019)"/>
<path fill-rule="evenodd" clip-rule="evenodd" d="M30.8242 84.3298V74.0771H85.0005V84.3298C85.0005 91.5949 72.8727 97.4846 57.9123 97.4846C42.952 97.4846 30.8242 91.5949 30.8242 84.3298Z" fill="url(#paint7_linear_1957_5019)"/>
<path d="M57.9123 87.2306C72.8727 87.2306 85.0005 81.341 85.0005 74.0758C85.0005 66.8105 72.8727 60.9209 57.9123 60.9209C42.952 60.9209 30.8242 66.8105 30.8242 74.0758C30.8242 81.341 42.952 87.2306 57.9123 87.2306Z" fill="#F4C848"/>
<path d="M57.9161 84.0239C71.1057 84.0239 81.798 79.5696 81.798 74.0749C81.798 68.5803 71.1057 64.126 57.9161 64.126C44.7265 64.126 34.0342 68.5803 34.0342 74.0749C34.0342 79.5696 44.7265 84.0239 57.9161 84.0239Z" fill="#D93C65"/>
<path fill-rule="evenodd" clip-rule="evenodd" d="M57.8886 64.1501C70.9303 64.3716 81.3338 68.6676 81.3338 73.9356C81.3338 79.2037 70.9303 83.4997 57.8886 83.7213C44.8469 83.4999 34.4434 79.2037 34.4434 73.9356C34.4434 68.6676 44.8469 64.3716 57.8886 64.1501Z" fill="#FF8D28"/>
<path fill-rule="evenodd" clip-rule="evenodd" d="M57.6636 65.5986C69.7023 65.7904 79.3057 69.5103 79.3057 74.072C79.3057 78.6336 69.7023 82.3536 57.6636 82.5455C45.6249 82.3538 36.0215 78.6336 36.0215 74.072C36.0215 69.5103 45.6249 65.7904 57.6636 65.5986Z" fill="#FDF5D6"/>
<path d="M26.1874 38.5982C36.1581 38.5982 44.241 30.5087 44.241 20.5297C44.241 10.5507 36.1581 2.46118 26.1874 2.46118C16.2167 2.46118 8.13379 10.5507 8.13379 20.5297C8.13379 30.5087 16.2167 38.5982 26.1874 38.5982Z" fill="url(#paint8_linear_1957_5019)"/>
<path d="M26.1954 37.9976C35.8346 37.9976 43.6487 30.1771 43.6487 20.5299C43.6487 10.8828 35.8346 3.06226 26.1954 3.06226C16.5563 3.06226 8.74219 10.8828 8.74219 20.5299C8.74219 30.1771 16.5563 37.9976 26.1954 37.9976Z" fill="url(#paint9_linear_1957_5019)"/>
<path d="M11.7938 13.7844C11.717 13.7844 11.639 13.7669 11.5658 13.7299C11.3158 13.6036 11.2154 13.2985 11.3416 13.0482C14.1873 7.40587 19.8753 3.90088 26.186 3.90088C27.1931 3.90088 28.2016 3.9916 29.1835 4.17088C29.459 4.22115 29.6416 4.48529 29.5912 4.76096C29.5409 5.03686 29.2769 5.21968 29.0016 5.16903C28.0794 5.00085 27.1321 4.91547 26.1859 4.91547C20.2601 4.91547 14.919 8.207 12.2468 13.5054C12.1577 13.6824 11.9791 13.7844 11.7938 13.7844Z" fill="white"/>
<path opacity="0.78" d="M37.0289 31.3623C42.7977 25.5886 42.7977 16.2278 37.0289 10.4541C31.2602 4.68052 21.9073 4.68052 16.1386 10.4541C10.3698 16.2278 10.3698 25.5886 16.1385 31.3623C21.9073 37.1359 31.2602 37.1359 37.0289 31.3623Z" fill="white"/>
<path d="M29.1497 21.7804H30.2441C33.3491 21.7804 35.876 19.2912 35.876 16.2308C35.876 13.1707 33.3495 10.6812 30.2441 10.6812H17.7605C17.167 10.6812 16.6861 11.1554 16.6861 11.7398C16.6861 12.3246 17.1674 12.7985 17.7605 12.7985H30.2445C32.1649 12.7985 33.7272 14.338 33.7272 16.2304C33.7272 18.1227 32.1649 19.6622 30.2445 19.6622H29.1501C28.5567 19.6622 28.0758 20.1365 28.0758 20.7209C28.0758 21.3053 28.5567 21.7804 29.1497 21.7804Z" fill="#F3B811"/>
<path d="M17.7591 10.6812H30.2431C33.3481 10.6812 35.875 13.1707 35.875 16.2308C35.875 19.2908 33.3485 21.7804 30.2431 21.7804H29.1488C28.5553 21.7804 28.0744 21.3061 28.0744 20.7217C28.0744 20.1373 28.5557 19.663 29.1488 19.663H30.2431C32.1636 19.663 33.7259 18.1235 33.7259 16.2311C33.7259 14.3388 32.1636 12.7993 30.2431 12.7993H17.7595C17.166 12.7993 16.6851 12.325 16.6851 11.7406C16.6847 11.1554 17.1656 10.6812 17.7591 10.6812Z" fill="#F3B811"/>
<path d="M23.2082 30.7652H35.6922C36.2857 30.7652 36.7666 30.2909 36.7666 29.7065C36.7666 29.1221 36.2853 28.6478 35.6922 28.6478H23.2082C21.2878 28.6478 19.7254 27.1083 19.7254 25.216C19.7254 23.3236 21.2878 21.7841 23.2082 21.7841H24.3026C24.896 21.7841 25.3769 21.3098 25.3769 20.7254C25.3769 20.141 24.8956 19.6667 24.3026 19.6667H23.2082C20.1032 19.6667 17.5763 22.1559 17.5763 25.2163C17.5763 28.276 20.1028 30.7652 23.2082 30.7652Z" fill="#F3B811"/>
<path d="M23.2082 19.6665H24.3026C24.896 19.6665 25.3769 20.1408 25.3769 20.7252C25.3769 21.3096 24.8956 21.7838 24.3026 21.7838H23.2082C21.2878 21.7838 19.7254 23.3233 19.7254 25.2157C19.7254 27.1077 21.2878 28.6476 23.2082 28.6476H35.6922C36.2857 28.6476 36.7666 29.1218 36.7666 29.7063C36.7666 30.2907 36.2853 30.7649 35.6922 30.7649H23.2082C20.1032 30.7649 17.5763 28.2758 17.5763 25.2153C17.5763 22.1557 20.1028 19.6665 23.2082 19.6665Z" fill="#F3B811"/>
<path d="M27.3114 25.0384C27.5707 25.0384 27.8311 24.9464 28.0374 24.7597C28.4748 24.3647 28.5042 23.6948 28.1033 23.2639L22.0549 16.7654C21.654 16.3336 20.9743 16.3046 20.5369 16.7008C20.0992 17.0958 20.0701 17.7657 20.471 18.1966L26.5194 24.6951C26.7313 24.9232 27.0207 25.0384 27.3114 25.0384Z" fill="#F3B811"/>
<path d="M32.1814 25.0379C32.4406 25.0379 32.7011 24.9459 32.9074 24.7592C33.3452 24.3642 33.3742 23.6943 32.9733 23.2634L26.9249 16.7649C26.5236 16.3331 25.8442 16.3041 25.4069 16.7003C24.9691 17.0953 24.9401 17.7652 25.341 18.1962L31.3894 24.6947C31.6012 24.9227 31.8907 25.0379 32.1814 25.0379Z" fill="#F3B811"/>
<path d="M60.1741 74.0526H60.8273C62.6804 74.0526 64.1885 72.5671 64.1885 70.7408C64.1885 68.9146 62.6806 67.429 60.8273 67.429H53.3768C53.0226 67.429 52.7356 67.712 52.7356 68.0607C52.7356 68.4097 53.0229 68.6925 53.3768 68.6925H60.8275C61.9737 68.6925 62.9061 69.6112 62.9061 70.7405C62.9061 71.8698 61.9737 72.7886 60.8275 72.7886H60.1744C59.8202 72.7886 59.5332 73.0716 59.5332 73.4203C59.5332 73.7691 59.8202 74.0526 60.1741 74.0526Z" fill="#F3B811"/>
<path d="M53.3766 67.429H60.8273C62.6804 67.429 64.1885 68.9146 64.1885 70.7408C64.1885 72.5669 62.6806 74.0526 60.8273 74.0526H60.1741C59.8199 74.0526 59.5329 73.7696 59.5329 73.4208C59.5329 73.072 59.8202 72.789 60.1741 72.789H60.8273C61.9734 72.789 62.9058 71.8703 62.9058 70.741C62.9058 69.6117 61.9734 68.693 60.8273 68.693H53.3768C53.0226 68.693 52.7356 68.41 52.7356 68.0612C52.7354 67.712 53.0224 67.429 53.3766 67.429Z" fill="#F3B811"/>
<path d="M56.6279 79.4166H64.0785C64.4327 79.4166 64.7197 79.1336 64.7197 78.7848C64.7197 78.4361 64.4325 78.1531 64.0785 78.1531H56.6279C55.4817 78.1531 54.5493 77.2343 54.5493 76.105C54.5493 74.9757 55.4817 74.057 56.6279 74.057H57.281C57.6352 74.057 57.9222 73.774 57.9222 73.4252C57.9222 73.0765 57.6349 72.7935 57.281 72.7935H56.6279C54.7747 72.7935 53.2667 74.2789 53.2667 76.1053C53.2667 77.9312 54.7745 79.4166 56.6279 79.4166Z" fill="#F3B811"/>
<path d="M56.6279 72.7935H57.281C57.6352 72.7935 57.9222 73.0765 57.9222 73.4252C57.9222 73.774 57.6349 74.057 57.281 74.057H56.6279C55.4817 74.057 54.5493 74.9757 54.5493 76.105C54.5493 77.2341 55.4817 78.1531 56.6279 78.1531H64.0785C64.4327 78.1531 64.7197 78.4361 64.7197 78.7848C64.7197 79.1336 64.4325 79.4166 64.0785 79.4166H56.6279C54.7747 79.4166 53.2667 77.9312 53.2667 76.1048C53.2667 74.2789 54.7745 72.7935 56.6279 72.7935Z" fill="#F3B811"/>
<path d="M59.0766 75.9998C59.2313 75.9998 59.3868 75.9449 59.5099 75.8335C59.7709 75.5978 59.7885 75.1981 59.5492 74.9409L55.9394 71.0628C55.7002 70.8051 55.2945 70.7878 55.0335 71.0243C54.7722 71.26 54.7549 71.6597 54.9941 71.9169L58.6039 75.795C58.7304 75.9311 58.9031 75.9998 59.0766 75.9998Z" fill="#F3B811"/>
<path d="M61.9818 75.9998C62.1365 75.9998 62.292 75.9449 62.4151 75.8335C62.6763 75.5978 62.6937 75.1981 62.4544 74.9409L58.8446 71.0628C58.6051 70.8051 58.1997 70.7878 57.9386 71.0243C57.6774 71.26 57.6601 71.6597 57.8993 71.9169L61.5091 75.795C61.6355 75.9311 61.8083 75.9998 61.9818 75.9998Z" fill="#F3B811"/>
<defs>
<linearGradient id="paint0_linear_1957_5019" x1="22.9538" y1="44.8287" x2="-48.5493" y2="120.714" gradientUnits="userSpaceOnUse">
<stop stop-color="#FDF53F"/>
<stop offset="1" stop-color="#D93C65"/>
</linearGradient>
<linearGradient id="paint1_linear_1957_5019" x1="22.9538" y1="34.5774" x2="-48.5501" y2="110.462" gradientUnits="userSpaceOnUse">
<stop stop-color="#FDF53F"/>
<stop offset="1" stop-color="#D93C65"/>
</linearGradient>
<linearGradient id="paint2_linear_1957_5019" x1="22.9538" y1="24.3251" x2="-48.5493" y2="100.21" gradientUnits="userSpaceOnUse">
<stop stop-color="#FDF53F"/>
<stop offset="1" stop-color="#D93C65"/>
</linearGradient>
<linearGradient id="paint3_linear_1957_5019" x1="22.9538" y1="14.0719" x2="-48.5493" y2="89.9569" gradientUnits="userSpaceOnUse">
<stop stop-color="#FDF53F"/>
<stop offset="1" stop-color="#D93C65"/>
</linearGradient>
<linearGradient id="paint4_linear_1957_5019" x1="22.9538" y1="3.81579" x2="-48.5493" y2="79.7008" gradientUnits="userSpaceOnUse">
<stop stop-color="#FDF53F"/>
<stop offset="1" stop-color="#D93C65"/>
</linearGradient>
<linearGradient id="paint5_linear_1957_5019" x1="5.26074" y1="34.874" x2="40.0163" y2="42.6709" gradientUnits="userSpaceOnUse">
<stop stop-color="#FBE941"/>
<stop offset="0.985577" stop-color="#F3B811"/>
</linearGradient>
<linearGradient id="paint6_linear_1957_5019" x1="53.778" y1="51.2836" x2="-17.7251" y2="127.169" gradientUnits="userSpaceOnUse">
<stop stop-color="#FDF53F"/>
<stop offset="1" stop-color="#D93C65"/>
</linearGradient>
<linearGradient id="paint7_linear_1957_5019" x1="53.778" y1="41.0301" x2="-17.7251" y2="116.915" gradientUnits="userSpaceOnUse">
<stop stop-color="#FDF53F"/>
<stop offset="1" stop-color="#D93C65"/>
</linearGradient>
<linearGradient id="paint8_linear_1957_5019" x1="1.48275" y1="49.2285" x2="25.7213" y2="21.1178" gradientUnits="userSpaceOnUse">
<stop stop-color="#FDF53F"/>
<stop offset="1" stop-color="#D93C65"/>
</linearGradient>
<linearGradient id="paint9_linear_1957_5019" x1="39.3897" y1="0.580754" x2="-32.2987" y2="108.792" gradientUnits="userSpaceOnUse">
<stop stop-color="#FDF53F"/>
<stop offset="1" stop-color="#D93C65"/>
</linearGradient>
</defs>
</svg>
