<svg width="24" height="24" viewBox="0 0 24 24" fill="none" xmlns="http://www.w3.org/2000/svg">
<path d="M11.9947 19.7136C16.2569 19.7136 19.7121 16.2584 19.7121 11.9962C19.7121 7.734 16.2569 4.27881 11.9947 4.27881C7.73254 4.27881 4.27734 7.734 4.27734 11.9962C4.27734 16.2584 7.73254 19.7136 11.9947 19.7136Z" fill="url(#paint0_linear_1870_760)"/>
<path d="M21.5087 2.87509L20.6307 3.66184C19.0758 2.05269 17.1021 0.910284 14.9323 0.363632C12.7625 -0.18302 10.4831 -0.112148 8.35148 0.568247C6.21985 1.24864 4.32089 2.51145 2.86905 4.21409C1.41721 5.91672 0.470313 7.99136 0.135284 10.2037C-0.199745 12.4161 0.0904404 14.6781 0.973071 16.7342C1.8557 18.7904 3.29562 20.5588 5.13023 21.8398C6.96484 23.1208 9.12107 23.8634 11.3554 23.9837C13.5898 24.104 15.8133 23.5972 17.7748 22.5206C17.8745 22.4659 17.9484 22.3738 17.9803 22.2646C18.0121 22.1554 17.9993 22.038 17.9446 21.9383C17.8899 21.8386 17.7978 21.7647 17.6886 21.7328C17.5794 21.701 17.4621 21.7138 17.3623 21.7685C15.5412 22.7696 13.4765 23.2418 11.4013 23.1319C9.32604 23.0219 7.32284 22.3341 5.61772 21.1461C3.9126 19.9581 2.57344 18.3172 1.75135 16.4086C0.929263 14.4999 0.656968 12.3995 0.965194 10.3443C1.27342 8.28918 2.1499 6.36105 3.49572 4.77754C4.84155 3.19404 6.60315 2.01818 8.58175 1.38266C10.5603 0.747144 12.6772 0.677258 14.6934 1.18089C16.7096 1.68452 18.5449 2.74163 19.9923 4.23292L18.9264 5.18816C18.8938 5.21672 18.8706 5.25448 18.8599 5.29646C18.8492 5.33845 18.8515 5.38269 18.8665 5.42336C18.8814 5.46402 18.9083 5.49921 18.9437 5.52427C18.979 5.54933 19.0211 5.56309 19.0645 5.56374H21.6468C21.7025 5.56241 21.7555 5.53941 21.7946 5.49963C21.8337 5.45984 21.8557 5.40641 21.856 5.35066V3.03544C21.8568 2.99487 21.8458 2.95494 21.8242 2.92054C21.8027 2.88614 21.7716 2.85877 21.7348 2.84175C21.6979 2.82474 21.6569 2.81884 21.6168 2.82476C21.5766 2.83068 21.5391 2.84817 21.5087 2.87509Z" fill="url(#paint1_linear_1870_760)"/>
<path d="M22.9064 16.2837C22.8573 16.2836 22.8086 16.2752 22.7623 16.2588C22.7093 16.2399 22.6605 16.2107 22.6187 16.173C22.5769 16.1352 22.543 16.0896 22.5189 16.0387C22.4948 15.9878 22.4809 15.9327 22.4781 15.8764C22.4753 15.8202 22.4836 15.7639 22.5025 15.7109C22.6936 15.1729 22.8425 14.6209 22.9479 14.0598C22.9692 13.9481 23.034 13.8494 23.128 13.7854C23.222 13.7215 23.3376 13.6975 23.4494 13.7187C23.5611 13.74 23.6598 13.8048 23.7237 13.8988C23.7877 13.9928 23.8117 14.1084 23.7904 14.2202C23.6765 14.8246 23.5159 15.4193 23.3102 15.999C23.2805 16.0823 23.2257 16.1544 23.1534 16.2054C23.0811 16.2564 22.9948 16.2837 22.9064 16.2837Z" fill="url(#paint2_linear_1870_760)"/>
<path d="M20.2141 20.571C20.1298 20.5707 20.0475 20.5455 19.9774 20.4986C19.9074 20.4518 19.8527 20.3853 19.8202 20.3075C19.7877 20.2298 19.7789 20.1441 19.7948 20.0614C19.8107 19.9786 19.8507 19.9024 19.9097 19.8422C20.4114 19.3363 20.8634 18.7834 21.2594 18.1911C21.3225 18.0965 21.4206 18.0308 21.5321 18.0085C21.6436 17.9863 21.7594 18.0092 21.854 18.0723C21.9486 18.1354 22.0143 18.2335 22.0366 18.3451C22.0588 18.4566 22.0359 18.5724 21.9728 18.667C21.5461 19.3041 21.0591 19.8987 20.5185 20.4424C20.4788 20.4829 20.4314 20.5152 20.3792 20.5372C20.3269 20.5593 20.2708 20.5708 20.2141 20.571Z" fill="url(#paint3_linear_1870_760)"/>
<path d="M23.5706 11.9963C23.4596 11.9964 23.3529 11.9534 23.2729 11.8764C23.193 11.7994 23.146 11.6944 23.1419 11.5834C23.1219 11.0298 23.0591 10.4785 22.9541 9.93448C22.9341 9.82356 22.9585 9.7092 23.0221 9.61616C23.0858 9.52311 23.1835 9.45887 23.2941 9.43734C23.4048 9.41581 23.5194 9.43872 23.6133 9.50111C23.7072 9.5635 23.7727 9.66035 23.7957 9.7707C23.9095 10.3582 23.9776 10.9537 23.9994 11.5517C24.0015 11.608 23.9925 11.6642 23.9729 11.717C23.9533 11.7699 23.9235 11.8183 23.8851 11.8596C23.8468 11.9009 23.8007 11.9342 23.7494 11.9577C23.6982 11.9811 23.6428 11.9943 23.5865 11.9963H23.5706Z" fill="url(#paint4_linear_1870_760)"/>
<path d="M13.2073 12.5272H13.7523C15.2987 12.5272 16.5571 11.2876 16.5571 9.76358C16.5571 8.23974 15.2989 7 13.7523 7H7.53506C7.2395 7 7 7.23617 7 7.52719C7 7.81841 7.23969 8.05439 7.53506 8.05439H13.7525C14.7089 8.05439 15.487 8.82102 15.487 9.76338C15.487 10.7057 14.7089 11.4724 13.7525 11.4724H13.2075C12.9119 11.4724 12.6724 11.7086 12.6724 11.9996C12.6724 12.2906 12.9119 12.5272 13.2073 12.5272Z" fill="white"/>
<path d="M7.53506 7H13.7523C15.2989 7 16.5571 8.23974 16.5571 9.76358C16.5571 11.2876 15.2987 12.5272 13.7523 12.5272H13.2073C12.9117 12.5272 12.6723 12.291 12.6723 12C12.6723 11.7089 12.912 11.4728 13.2073 11.4728H13.7524C14.7088 11.4728 15.4869 10.7061 15.4869 9.76377C15.4869 8.82141 14.7088 8.05477 13.7524 8.05477H7.53513C7.23957 8.05477 7.00007 7.8186 7.00007 7.52758C6.99987 7.23617 7.2395 7 7.53506 7Z" fill="white"/>
<path d="M10.2475 17H16.4649C16.7605 17 17 16.7638 17 16.4728C17 16.1818 16.7603 15.9456 16.4649 15.9456H10.2475C9.29109 15.9456 8.51301 15.179 8.51301 14.2366C8.51301 13.2943 9.29109 12.5276 10.2475 12.5276H10.7925C11.0881 12.5276 11.3276 12.2915 11.3276 12.0004C11.3276 11.7094 11.0879 11.4732 10.7925 11.4732H10.2475C8.70113 11.4732 7.44268 12.7128 7.44268 14.2368C7.44268 15.7605 8.70093 17 10.2475 17Z" fill="white"/>
<path d="M10.2475 11.4728H10.7925C11.0881 11.4728 11.3276 11.709 11.3276 12C11.3276 12.291 11.0879 12.5272 10.7925 12.5272H10.2475C9.29109 12.5272 8.51301 13.2938 8.51301 14.2362C8.51301 15.1784 9.29109 15.9452 10.2475 15.9452H16.4649C16.7605 15.9452 17 16.1814 17 16.4724C17 16.7634 16.7603 16.9996 16.4649 16.9996H10.2475C8.70113 16.9996 7.44268 15.76 7.44268 14.236C7.44268 12.7124 8.70093 11.4728 10.2475 11.4728Z" fill="white"/>
<path d="M12.2973 14.1454C12.4265 14.1454 12.5562 14.0996 12.6589 14.0067C12.8767 13.8099 12.8914 13.4764 12.6917 13.2618L9.67944 10.0257C9.47979 9.81067 9.14125 9.79623 8.92344 9.99352C8.70543 10.1902 8.69097 10.5238 8.89062 10.7384L11.9029 13.9745C12.0084 14.0881 12.1526 14.1454 12.2973 14.1454Z" fill="white"/>
<path d="M14.7122 14.1453C14.8414 14.1453 14.9711 14.0995 15.0738 14.0066C15.2918 13.8099 15.3063 13.4763 15.1066 13.2617L12.0943 10.0256C11.8945 9.81058 11.5561 9.79614 11.3383 9.99343C11.1203 10.1901 11.1059 10.5237 11.3055 10.7383L14.3178 13.9744C14.4233 14.088 14.5675 14.1453 14.7122 14.1453Z" fill="white"/>
<defs>
<linearGradient id="paint0_linear_1870_760" x1="11.9947" y1="4.27881" x2="11.9947" y2="19.7136" gradientUnits="userSpaceOnUse">
<stop stop-color="#FFD270"/>
<stop offset="1" stop-color="#F79F63"/>
</linearGradient>
<linearGradient id="paint1_linear_1870_760" x1="10.923" y1="-0.00863827" x2="10.923" y2="24.001" gradientUnits="userSpaceOnUse">
<stop stop-color="#F2756B"/>
<stop offset="1" stop-color="#C44747"/>
</linearGradient>
<linearGradient id="paint2_linear_1870_760" x1="23.1379" y1="13.7112" x2="23.1379" y2="16.2837" gradientUnits="userSpaceOnUse">
<stop stop-color="#F2756B"/>
<stop offset="1" stop-color="#C44747"/>
</linearGradient>
<linearGradient id="paint3_linear_1870_760" x1="20.9151" y1="17.9986" x2="20.9151" y2="20.571" gradientUnits="userSpaceOnUse">
<stop stop-color="#F2756B"/>
<stop offset="1" stop-color="#C44747"/>
</linearGradient>
<linearGradient id="paint4_linear_1870_760" x1="23.4729" y1="9.42342" x2="23.4729" y2="11.9963" gradientUnits="userSpaceOnUse">
<stop stop-color="#F2756B"/>
<stop offset="1" stop-color="#C44747"/>
</linearGradient>
</defs>
</svg>
