<svg width="220" height="104" viewBox="0 0 220 104" fill="none" xmlns="http://www.w3.org/2000/svg">
<g filter="url(#filter0_d_1739_1022)">
<rect x="28.4531" y="28.4541" width="162.595" height="47" rx="8.89189" fill="white" shape-rendering="crispEdges"/>
<mask id="mask0_1739_1022" style="mask-type:alpha" maskUnits="userSpaceOnUse" x="33" y="32" width="33" height="4">
<rect x="33.5352" y="32.2649" width="31.7569" height="3.04544" rx="1.52272" fill="#F3B811"/>
</mask>
<g mask="url(#mask0_1739_1022)">
<path d="M33.5352 32.2649H45.2852V43.6853V49.0148H43.9378C40.2059 49.0148 36.6629 47.3739 34.2494 44.5276L33.5352 43.6853V32.2649Z" fill="#E52021"/>
<rect x="45.2891" y="32.2649" width="8.25678" height="16.75" fill="#F7F7F7"/>
<path d="M53.5371 32.2649H65.2872V43.6853L64.573 44.5276C62.1594 47.3739 58.6164 49.0148 54.8845 49.0148H53.5371V43.6853V32.2649Z" fill="#268A42"/>
<rect x="33.5352" y="32.2649" width="31.7569" height="3.04544" rx="1.52272" fill="black" fill-opacity="0.05"/>
</g>
<path d="M45.2783 46.6692L45.2539 46.6633C43.9098 46.3183 42.4776 46.9778 41.9219 48.1975L41.5605 48.9905C41.5074 49.1072 41.4254 49.2099 41.3213 49.2893C41.2171 49.3687 41.0939 49.4229 40.9629 49.4465L40.0732 49.6067C39.8256 49.6514 39.5901 49.7266 39.3711 49.8284C38.6818 49.2218 38.0802 48.5051 37.5967 47.6936L37.0215 46.7297V35.3088H45.2783V46.6692Z" fill="#E52021"/>
<path d="M53.542 46.6702L52.6963 46.887C52.5675 46.9201 52.4318 46.9232 52.3018 46.8948C52.1719 46.8664 52.0511 46.808 51.9502 46.7249L51.2646 46.1604C50.2105 45.292 48.6207 45.292 47.5664 46.1604L46.8809 46.7249C46.7799 46.808 46.6592 46.8664 46.5293 46.8948C46.3994 46.9231 46.2644 46.92 46.1357 46.887L45.2852 46.6692V35.3088H53.542V46.6702Z" fill="#F7F7F7"/>
<path d="M61.7959 46.7288L61.2207 47.6936C60.7367 48.5058 60.1344 49.2224 59.4443 49.8293C59.225 49.7274 58.9893 49.6514 58.7412 49.6067L57.8525 49.4465C57.7215 49.423 57.5984 49.3688 57.4941 49.2893C57.39 49.2099 57.3081 49.1072 57.2549 48.9905L56.8936 48.1975C56.3379 46.9778 54.9055 46.3182 53.5615 46.6633L53.5391 46.6682V35.3088H61.7959V46.7288Z" fill="#268A42"/>
<path d="M49.5696 33.9978L49.9086 37.4472L51.2472 34.2291L50.5591 37.6303L52.7888 34.9043L51.1294 37.9818L54.0697 35.9686L51.5733 38.4731L54.986 37.3359L51.8549 39.0645L55.4635 38.8954L51.9514 39.708L55.4635 40.5207L51.8549 40.3515L54.986 42.0801L51.5733 40.9429L54.0697 43.4474L51.1294 41.4342L52.7888 44.5118L50.5591 41.7857L51.2472 45.1869L49.9086 41.9689L49.5696 45.4182L49.2307 41.9689L47.8921 45.1869L48.5802 41.7857L46.3504 44.5118L48.0099 41.4342L45.0696 43.4474L47.566 40.9429L44.1533 42.0801L47.2844 40.3515L43.6758 40.5207L47.1879 39.708L43.6758 38.8954L47.2844 39.0645L44.1533 37.3359L47.566 38.4731L45.0696 35.9686L48.0099 37.9818L46.3504 34.9043L48.5802 37.6303L47.8921 34.2291L49.2307 37.4472L49.5696 33.9978Z" fill="#F7B70F"/>
<path fill-rule="evenodd" clip-rule="evenodd" d="M61.053 60.082C60.9974 59.9791 60.9683 59.8644 60.9683 59.748C60.9683 59.6315 60.9973 59.5169 61.0529 59.414L61.4298 58.7162C62.0098 57.6425 61.6947 56.2894 60.6968 55.5687L60.0484 55.1002C59.9527 55.0312 59.8757 54.9403 59.8242 54.8354C59.7726 54.7305 59.7481 54.6148 59.7526 54.4985L59.7833 53.7094C59.8305 52.4956 58.9475 51.4105 57.7294 51.1854L56.9377 51.0391C56.821 51.0176 56.7114 50.9683 56.6185 50.8958C56.5256 50.8232 56.4523 50.7294 56.4049 50.6226L56.0832 49.8987C55.5882 48.785 54.3124 48.1827 53.1152 48.4979L52.3372 48.7028C52.2225 48.7331 52.1019 48.7353 51.9861 48.7094C51.8703 48.6835 51.7627 48.6302 51.6727 48.5542L51.0624 48.0387C50.1236 47.2459 48.7073 47.2459 47.7683 48.0387L47.1579 48.5542C47.068 48.6302 46.9604 48.6835 46.8446 48.7094C46.7288 48.7353 46.6083 48.7331 46.4935 48.7028L45.7155 48.4979C44.5183 48.1828 43.2425 48.785 42.7475 49.8987L42.4258 50.6227C42.3784 50.7294 42.3051 50.8232 42.2122 50.8958C42.1193 50.9684 42.0097 51.0176 41.893 51.0391L41.1012 51.1854C39.8832 51.4105 39.0002 52.4956 39.0474 53.7094L39.078 54.4985C39.0826 54.6148 39.058 54.7305 39.0065 54.8354C38.9549 54.9403 38.878 55.0312 38.7823 55.1002L38.1338 55.5687C37.136 56.2894 36.8209 57.6426 37.4008 58.7162L37.7777 59.414C37.8333 59.5169 37.8624 59.6316 37.8624 59.748C37.8624 59.8644 37.8333 59.9791 37.7777 60.082L37.4008 60.7798C36.8209 61.8534 37.136 63.2065 38.1338 63.9273L38.7823 64.3957C38.8779 64.4648 38.9549 64.5557 39.0064 64.6606C39.058 64.7656 39.0825 64.8813 39.0779 64.9976L39.0473 65.7866C39.0001 67.0005 39.8831 68.0856 41.1012 68.3107L41.5163 68.3874L41.5164 68.3872L41.8928 68.4568C42.0095 68.4783 42.1192 68.5275 42.212 68.6001C42.3049 68.6727 42.3783 68.7665 42.4257 68.8733L42.7474 69.5971C43.2423 70.7108 44.5181 71.3132 45.7153 70.9979L46.4934 70.7931C46.6081 70.7629 46.7286 70.7606 46.8444 70.7865C46.9603 70.8124 47.0678 70.8657 47.1578 70.9417L47.7681 71.4571C47.8188 71.4997 47.8713 71.5403 47.9253 71.5788L47.9252 71.579L47.9254 71.5789C48.3657 71.894 48.8904 72.052 49.4153 72.052C49.9322 72.052 50.4489 71.8991 50.885 71.5936L50.885 71.5935C50.9462 71.5507 51.0054 71.5052 51.0623 71.4571L51.6727 70.9417C51.7626 70.8657 51.8702 70.8124 51.986 70.7865C52.1018 70.7606 52.2224 70.7628 52.3371 70.7931L53.1151 70.9979C53.3293 71.0542 53.5458 71.0813 53.76 71.0813C54.7435 71.0812 55.6767 70.5116 56.0831 69.5971L56.4048 68.8732C56.4522 68.7665 56.5255 68.6727 56.6184 68.6001C56.7113 68.5275 56.8209 68.4783 56.9376 68.4568L57.2881 68.392L57.2882 68.3922L57.2883 68.3922L57.7295 68.3106C58.9475 68.0856 59.8305 67.0004 59.7834 65.7865L59.7527 64.9976C59.7481 64.8812 59.7727 64.7655 59.8242 64.6606C59.8757 64.5557 59.9527 64.4648 60.0484 64.3957L60.6969 63.9273C61.6947 63.2066 62.0098 61.8534 61.4299 60.7798L61.053 60.082Z" fill="#CEDAD9"/>
<ellipse cx="49.4141" cy="59.8104" rx="8.04494" ry="7.88435" fill="white"/>
<path d="M72.58 41.2103C72.58 40.128 72.6944 39.2439 72.923 38.558C73.1517 37.8568 73.5175 37.308 74.0205 36.9117C74.5388 36.5154 75.2095 36.241 76.0326 36.0886C76.871 35.9209 77.8923 35.8371 79.0965 35.8371C79.6758 35.8371 80.2245 35.8599 80.7428 35.9057C81.2763 35.9362 81.8251 35.9971 82.3891 36.0886C82.8921 36.1648 83.2198 36.2868 83.3723 36.4544C83.5399 36.6069 83.6238 36.8203 83.6238 37.0946V37.8492C83.2732 37.6968 82.8311 37.5748 82.2976 37.4833C81.7641 37.3766 81.2153 37.3004 80.6513 37.2547C80.1026 37.1937 79.6072 37.1632 79.1651 37.1632C78.1591 37.1632 77.3436 37.2776 76.7186 37.5062C76.1088 37.7349 75.6668 38.1388 75.3924 38.718C75.118 39.2973 74.9808 40.128 74.9808 41.2103C74.9808 42.2926 75.1104 43.131 75.3696 43.7255C75.6439 44.3047 76.0936 44.7086 76.7186 44.9373C77.3588 45.1659 78.2277 45.2803 79.3252 45.2803C79.752 45.2803 80.2169 45.2574 80.7199 45.2117C81.223 45.1507 81.726 45.0745 82.229 44.983C82.732 44.8916 83.197 44.7849 83.6238 44.6629V45.3717C83.6238 45.6156 83.5399 45.8214 83.3723 45.9891C83.2198 46.1568 82.8768 46.2787 82.3433 46.3549C81.7946 46.4616 81.2458 46.5302 80.6971 46.5607C80.1483 46.5912 79.5919 46.6064 79.0279 46.6064C77.7932 46.6064 76.7567 46.5302 75.9183 46.3778C75.0952 46.2253 74.4397 45.951 73.9519 45.5546C73.4641 45.1583 73.1136 44.6096 72.9001 43.9084C72.6867 43.2072 72.58 42.3078 72.58 41.2103ZM87.527 37.3462V43.4511C87.527 44.1523 87.7176 44.6477 88.0987 44.9373C88.4798 45.2269 89.0742 45.3717 89.8821 45.3717C90.751 45.3717 91.3683 45.2193 91.7342 44.9144C92.1153 44.6096 92.3058 44.1218 92.3058 43.4511V37.3462C92.321 37.3462 92.382 37.3462 92.4887 37.3462C92.6107 37.3462 92.7402 37.3462 92.8774 37.3462C93.0146 37.3462 93.1442 37.3462 93.2661 37.3462C93.3881 37.3462 93.4643 37.3462 93.4948 37.3462C93.7387 37.3462 93.9292 37.3614 94.0664 37.3919C94.2036 37.4071 94.295 37.4757 94.3408 37.5977C94.4018 37.7044 94.4322 37.8873 94.4322 38.1464V43.131C94.4322 43.9389 94.3103 44.6019 94.0664 45.1202C93.8225 45.6232 93.3652 45.9967 92.6945 46.2406C92.039 46.4692 91.094 46.5836 89.8593 46.5836C88.7008 46.5836 87.7938 46.4845 87.1383 46.2863C86.4981 46.0882 86.0408 45.7528 85.7665 45.2803C85.5073 44.7925 85.3778 44.1294 85.3778 43.291V38.1464C85.3778 37.8263 85.4311 37.6129 85.5378 37.5062C85.6445 37.3995 85.8579 37.3462 86.178 37.3462C86.4067 37.3462 86.6277 37.3462 86.8411 37.3462C87.0698 37.3462 87.2984 37.3462 87.527 37.3462ZM99.0106 46.5607C98.2027 46.5607 97.6234 46.4006 97.2728 46.0805C96.9222 45.7452 96.7469 45.1583 96.7469 44.3199V35.8371C96.7469 35.5932 96.7622 35.4103 96.7927 35.2883C96.8384 35.1511 96.9222 35.0597 97.0442 35.0139C97.1661 34.953 97.3491 34.9225 97.5929 34.9225H98.9191C98.9191 34.953 98.9039 35.0749 98.8734 35.2883C98.8581 35.5017 98.8505 35.7532 98.8505 36.0429V44.0456C98.8505 44.6096 98.9191 45.0135 99.0563 45.2574C99.1935 45.5013 99.4526 45.6232 99.8337 45.6232C99.9557 45.6232 100.1 45.608 100.268 45.5775C100.451 45.547 100.565 45.5242 100.611 45.5089V46.3778C100.52 46.393 100.36 46.4235 100.131 46.4692C99.9023 46.5302 99.5288 46.5607 99.0106 46.5607ZM104.76 46.5378C104.15 46.5378 103.67 46.4692 103.319 46.332C102.984 46.1949 102.74 45.951 102.588 45.6004C102.435 45.2498 102.359 44.7772 102.359 44.1828V38.5123H101.444V37.3462H102.359V35.8371C102.359 35.5627 102.382 35.3645 102.428 35.2426C102.473 35.1054 102.55 35.0216 102.656 34.9911C102.778 34.9453 102.954 34.9225 103.182 34.9225H104.508C104.508 34.953 104.508 35.0216 104.508 35.1283C104.508 35.2197 104.508 35.3569 104.508 35.5398V37.3462H106.658V38.5123H104.508V43.977C104.508 44.5715 104.569 44.9983 104.691 45.2574C104.813 45.5013 105.103 45.6232 105.56 45.6232C105.713 45.6232 105.88 45.608 106.063 45.5775C106.261 45.547 106.398 45.5165 106.475 45.486V46.3778C106.383 46.393 106.185 46.4235 105.88 46.4692C105.575 46.515 105.202 46.5378 104.76 46.5378ZM110.484 46.5607C109.676 46.5607 109.127 46.3702 108.838 45.9891C108.548 45.5928 108.403 45.0059 108.403 44.2285L108.426 37.3462H110.553V44.1142C110.553 44.6934 110.621 45.0897 110.758 45.3031C110.911 45.5165 111.162 45.6232 111.513 45.6232C111.65 45.6232 111.802 45.608 111.97 45.5775C112.138 45.547 112.245 45.5242 112.29 45.5089V46.3778C112.229 46.393 112.13 46.4159 111.993 46.4464C111.856 46.4769 111.665 46.4997 111.421 46.515C111.177 46.5455 110.865 46.5607 110.484 46.5607ZM109.524 36.0886C109.173 36.0886 108.906 36.0429 108.723 35.9514C108.556 35.8447 108.472 35.6542 108.472 35.3798C108.472 35.1054 108.556 34.9225 108.723 34.831C108.891 34.7243 109.158 34.671 109.524 34.671C109.874 34.671 110.126 34.7243 110.278 34.831C110.446 34.9225 110.53 35.1054 110.53 35.3798C110.53 35.6542 110.446 35.8447 110.278 35.9514C110.126 36.0429 109.874 36.0886 109.524 36.0886ZM116.647 46.4692C116.388 46.4692 116.167 46.4388 115.984 46.3778C115.801 46.3168 115.641 46.2025 115.504 46.0348C115.382 45.8519 115.26 45.608 115.138 45.3031L112.348 37.3462H114.566L116.464 43.3368C116.571 43.6873 116.693 43.9236 116.83 44.0456C116.967 44.1675 117.226 44.2285 117.607 44.2285C117.927 43.1767 118.232 42.1249 118.522 41.0731C118.827 40.0213 119.139 38.9772 119.459 37.9406C119.505 37.7577 119.581 37.6129 119.688 37.5062C119.81 37.3995 119.993 37.3462 120.237 37.3462H121.06L117.996 46.4692H116.647ZM126.699 46.6064C125.754 46.6064 124.984 46.5607 124.389 46.4692C123.795 46.393 123.338 46.2482 123.018 46.0348C122.697 45.8214 122.476 45.5318 122.355 45.1659C122.248 44.8001 122.194 44.3428 122.194 43.794C122.194 43.0166 122.278 42.4298 122.446 42.0335C122.629 41.6219 122.934 41.3399 123.361 41.1875C123.803 41.035 124.389 40.9588 125.121 40.9588C125.502 40.9588 125.921 40.9664 126.379 40.9817C126.851 40.9969 127.301 41.0198 127.728 41.0503C128.17 41.0655 128.551 41.0884 128.871 41.1189C129.206 41.1493 129.427 41.1875 129.534 41.2332C129.534 40.593 129.481 40.0899 129.374 39.7241C129.267 39.3583 129.092 39.0839 128.848 38.901C128.619 38.718 128.33 38.5961 127.979 38.5351C127.629 38.4742 127.217 38.4437 126.745 38.4437C126.226 38.4437 125.708 38.4589 125.19 38.4894C124.687 38.5199 124.207 38.5732 123.749 38.6495C123.307 38.7257 122.941 38.8248 122.652 38.9467V38.5123C122.652 38.1617 122.743 37.9102 122.926 37.7577C123.124 37.6053 123.361 37.5062 123.635 37.4605C123.94 37.3843 124.389 37.3233 124.984 37.2776C125.578 37.2318 126.211 37.2166 126.882 37.2318C127.735 37.2318 128.459 37.2776 129.054 37.369C129.664 37.4452 130.151 37.6129 130.517 37.872C130.898 38.1312 131.173 38.5199 131.34 39.0382C131.523 39.5564 131.615 40.25 131.615 41.1189V45.7833C131.478 46.0729 131.013 46.2863 130.22 46.4235C129.427 46.5455 128.254 46.6064 126.699 46.6064ZM126.699 45.6461C127.309 45.6461 127.804 45.6309 128.185 45.6004C128.581 45.5546 128.886 45.5013 129.1 45.4403C129.313 45.3641 129.458 45.2726 129.534 45.1659V42.0106C129.397 41.9649 129.153 41.9268 128.802 41.8963C128.452 41.8505 128.086 41.8124 127.705 41.7819C127.324 41.7515 127.004 41.7362 126.745 41.7362C126.181 41.7362 125.723 41.7743 125.373 41.8505C125.022 41.9268 124.771 42.102 124.618 42.3764C124.466 42.6508 124.389 43.0776 124.389 43.6569C124.389 44.1294 124.443 44.5105 124.55 44.8001C124.656 45.0897 124.87 45.3031 125.19 45.4403C125.525 45.5775 126.028 45.6461 126.699 45.6461ZM136.646 46.5378C136.036 46.5378 135.556 46.4692 135.205 46.332C134.87 46.1949 134.626 45.951 134.473 45.6004C134.321 45.2498 134.245 44.7772 134.245 44.1828V38.5123H133.33V37.3462H134.245V35.8371C134.245 35.5627 134.268 35.3645 134.313 35.2426C134.359 35.1054 134.435 35.0216 134.542 34.9911C134.664 34.9453 134.839 34.9225 135.068 34.9225H136.394C136.394 34.953 136.394 35.0216 136.394 35.1283C136.394 35.2197 136.394 35.3569 136.394 35.5398V37.3462H138.543V38.5123H136.394V43.977C136.394 44.5715 136.455 44.9983 136.577 45.2574C136.699 45.5013 136.989 45.6232 137.446 45.6232C137.598 45.6232 137.766 45.608 137.949 45.5775C138.147 45.547 138.284 45.5165 138.36 45.486V46.3778C138.269 46.393 138.071 46.4235 137.766 46.4692C137.461 46.515 137.088 46.5378 136.646 46.5378ZM144.66 46.6064C143.731 46.6064 142.946 46.5455 142.305 46.4235C141.68 46.3016 141.177 46.0729 140.796 45.7376C140.43 45.4022 140.171 44.9373 140.019 44.3428C139.866 43.7483 139.79 42.9785 139.79 42.0335C139.79 40.9055 139.935 39.9909 140.225 39.2897C140.514 38.5885 141.025 38.0778 141.757 37.7577C142.504 37.4224 143.54 37.2547 144.866 37.2547C145.903 37.2547 146.726 37.3843 147.336 37.6434C147.961 37.8873 148.41 38.276 148.685 38.8095C148.959 39.343 149.096 40.0213 149.096 40.8445V42.3078H142.671C142.671 42.0639 142.725 41.8658 142.831 41.7133C142.938 41.5609 143.136 41.4847 143.426 41.4847H147.176L147.153 40.8902C147.137 40.0366 146.955 39.4116 146.604 39.0153C146.269 38.619 145.659 38.4208 144.775 38.4208C144.043 38.4208 143.471 38.5351 143.06 38.7638C142.648 38.9924 142.359 39.3659 142.191 39.8842C142.023 40.3872 141.94 41.0884 141.94 41.9877C141.94 42.9176 142.031 43.6264 142.214 44.1142C142.412 44.5867 142.732 44.9068 143.174 45.0745C143.632 45.2422 144.264 45.326 145.072 45.326C145.362 45.326 145.697 45.3184 146.078 45.3031C146.474 45.2879 146.871 45.265 147.267 45.2345C147.679 45.204 148.044 45.1659 148.365 45.1202C148.685 45.0745 148.898 45.0288 149.005 44.983V45.3031C149.005 45.4708 148.967 45.6385 148.89 45.8062C148.814 45.9738 148.654 46.111 148.41 46.2177C148.09 46.3702 147.618 46.4692 146.993 46.515C146.383 46.5759 145.606 46.6064 144.66 46.6064ZM150.776 41.8734C150.776 40.6387 150.944 39.6936 151.279 39.0382C151.614 38.3675 152.102 37.9102 152.742 37.6663C153.383 37.4071 154.152 37.2776 155.052 37.2776C155.326 37.2776 155.639 37.2928 155.989 37.3233C156.355 37.3385 156.713 37.369 157.064 37.4148C157.415 37.4605 157.727 37.5138 158.001 37.5748C158.276 37.6205 158.466 37.6739 158.573 37.7349L158.001 38.0092V34.9225H160.105L160.082 41.8734C160.082 42.9099 160.006 43.7407 159.853 44.3657C159.701 44.9754 159.449 45.4327 159.099 45.7376C158.748 46.0424 158.261 46.2482 157.636 46.3549C157.011 46.4616 156.233 46.515 155.303 46.515C154.434 46.515 153.703 46.4616 153.108 46.3549C152.529 46.233 152.064 46.0119 151.714 45.6918C151.378 45.3717 151.134 44.9068 150.982 44.2971C150.845 43.6873 150.776 42.8795 150.776 41.8734ZM155.258 45.3489C155.852 45.3489 156.332 45.3108 156.698 45.2345C157.064 45.1431 157.338 44.983 157.521 44.7544C157.719 44.5257 157.849 44.2056 157.91 43.794C157.971 43.3672 158.001 42.8185 158.001 42.1478L157.979 38.6495C157.826 38.6342 157.62 38.619 157.361 38.6037C157.102 38.5885 156.828 38.5809 156.538 38.5809C156.248 38.5656 155.982 38.558 155.738 38.558C155.052 38.558 154.503 38.6495 154.091 38.8324C153.68 39 153.383 39.3278 153.2 39.8156C153.017 40.3033 152.925 41.0045 152.925 41.9191C152.925 42.8947 152.994 43.6264 153.131 44.1142C153.284 44.6019 153.527 44.9297 153.863 45.0973C154.213 45.265 154.678 45.3489 155.258 45.3489Z" fill="#1BC469"/>
<path d="M72.4428 62.9735C72.4428 62.1317 72.5258 61.4381 72.6918 60.8927C72.8697 60.3474 73.1483 59.9206 73.5277 59.6123C73.907 59.3041 74.3931 59.0907 74.9859 58.9721C75.5906 58.8535 76.3197 58.7943 77.1733 58.7943C77.612 58.7943 78.0329 58.812 78.436 58.8476C78.8509 58.8713 79.2718 58.9187 79.6986 58.9899C80.0543 59.0492 80.2796 59.1322 80.3744 59.2389C80.4811 59.3337 80.5345 59.47 80.5345 59.6479V60.0925C80.3092 59.9858 79.995 59.8969 79.5919 59.8257C79.1888 59.7427 78.7739 59.6835 78.3471 59.6479C77.9203 59.6123 77.5409 59.5945 77.2089 59.5945C76.379 59.5945 75.7151 59.6953 75.2171 59.8969C74.731 60.0865 74.3813 60.4244 74.1679 60.9105C73.9545 61.3966 73.8478 62.0843 73.8478 62.9735C73.8478 63.8626 73.9485 64.5562 74.1501 65.0542C74.3516 65.5402 74.7014 65.8841 75.1993 66.0856C75.7091 66.2872 76.4086 66.3879 77.2978 66.3879C77.6179 66.3879 77.9795 66.3702 78.3826 66.3346C78.7857 66.299 79.177 66.2457 79.5564 66.1745C79.9357 66.0915 80.2618 66.0085 80.5345 65.9256V66.3346C80.5345 66.4887 80.4811 66.6251 80.3744 66.7436C80.2677 66.8503 80.0306 66.9274 79.6631 66.9748C79.2481 67.0578 78.8332 67.1111 78.4182 67.1349C78.0032 67.1704 77.5764 67.1882 77.1378 67.1882C76.2604 67.1882 75.5194 67.1289 74.9148 67.0104C74.3101 66.88 73.8241 66.6665 73.4565 66.3702C73.1008 66.0619 72.84 65.6351 72.674 65.0897C72.5199 64.5444 72.4428 63.8389 72.4428 62.9735ZM83.5977 59.968V64.7874C83.5977 65.3802 83.7637 65.8011 84.0957 66.05C84.4395 66.2872 84.9611 66.4057 85.6606 66.4057C86.4076 66.4057 86.9411 66.2812 87.2612 66.0323C87.5931 65.7714 87.7591 65.3565 87.7591 64.7874V59.968C87.771 59.968 87.8066 59.968 87.8658 59.968C87.937 59.968 88.0081 59.968 88.0792 59.968C88.1622 59.968 88.2393 59.968 88.3104 59.968C88.3816 59.968 88.429 59.968 88.4527 59.968C88.595 59.968 88.7076 59.9798 88.7906 60.0036C88.8736 60.0154 88.9269 60.0569 88.9506 60.128C88.9862 60.1992 89.004 60.3177 89.004 60.4837V64.5562C89.004 65.149 88.9151 65.641 88.7372 66.0323C88.5594 66.4116 88.2274 66.6962 87.7413 66.8859C87.2553 67.0637 86.5558 67.1526 85.6429 67.1526C84.813 67.1526 84.155 67.0756 83.6689 66.9215C83.1946 66.7673 82.8567 66.5065 82.6552 66.139C82.4536 65.7714 82.3529 65.2735 82.3529 64.6451V60.4837C82.3529 60.2822 82.3825 60.1458 82.4418 60.0747C82.5129 60.0036 82.6433 59.968 82.833 59.968C82.9634 59.968 83.0879 59.968 83.2065 59.968C83.3369 59.968 83.4673 59.968 83.5977 59.968ZM92.5712 67.0637H91.7887C91.6346 67.0637 91.516 67.0282 91.433 66.957C91.3619 66.874 91.3263 66.7258 91.3263 66.5124V60.3237C91.5871 60.2407 91.9428 60.1518 92.3933 60.0569C92.8557 59.9621 93.4248 59.9146 94.1006 59.9146C94.7408 59.9146 95.2447 59.9621 95.6122 60.0569C95.9916 60.1399 96.2643 60.2585 96.4303 60.4126C96.6081 60.5667 96.7207 60.7564 96.7681 60.9817C96.8274 61.1951 96.8571 61.4381 96.8571 61.7108H95.6656L95.6478 61.4618C95.6359 61.1891 95.547 60.9935 95.381 60.875C95.215 60.7445 95.0194 60.6675 94.7941 60.6438C94.5689 60.6082 94.3436 60.5904 94.1184 60.5904C93.7745 60.5904 93.4663 60.6201 93.1936 60.6793C92.9328 60.7386 92.7253 60.8157 92.5712 60.9105V67.0637ZM99.8736 67.0637H99.0912C98.937 67.0637 98.8185 67.0282 98.7355 66.957C98.6643 66.874 98.6288 66.7258 98.6288 66.5124V60.3237C98.8896 60.2407 99.2453 60.1518 99.6958 60.0569C100.158 59.9621 100.727 59.9146 101.403 59.9146C102.043 59.9146 102.547 59.9621 102.915 60.0569C103.294 60.1399 103.567 60.2585 103.733 60.4126C103.911 60.5667 104.023 60.7564 104.071 60.9817C104.13 61.1951 104.16 61.4381 104.16 61.7108H102.968L102.95 61.4618C102.938 61.1891 102.849 60.9935 102.683 60.875C102.517 60.7445 102.322 60.6675 102.097 60.6438C101.871 60.6082 101.646 60.5904 101.421 60.5904C101.077 60.5904 100.769 60.6201 100.496 60.6793C100.235 60.7386 100.028 60.8157 99.8736 60.9105V67.0637ZM109.292 67.1704C108.605 67.1704 108.024 67.123 107.55 67.0282C107.087 66.9333 106.714 66.7555 106.429 66.4946C106.157 66.2338 105.955 65.8722 105.825 65.4098C105.706 64.9356 105.647 64.325 105.647 63.5781C105.647 62.7245 105.753 62.025 105.967 61.4796C106.18 60.9342 106.56 60.5311 107.105 60.2703C107.65 60.0095 108.415 59.8791 109.399 59.8791C110.158 59.8791 110.763 59.9798 111.213 60.1814C111.675 60.3829 112.007 60.6912 112.209 61.1062C112.422 61.5211 112.529 62.0605 112.529 62.7245V63.7382H107.514C107.514 63.5959 107.55 63.4773 107.621 63.3825C107.692 63.2758 107.822 63.2224 108.012 63.2224H111.409L111.391 62.7067C111.379 61.9716 111.219 61.4381 110.911 61.1062C110.614 60.7742 110.093 60.6082 109.346 60.6082C108.717 60.6082 108.225 60.7031 107.87 60.8927C107.514 61.0824 107.265 61.3907 107.123 61.8175C106.98 62.2443 106.909 62.8253 106.909 63.5603C106.909 64.3428 106.986 64.9415 107.141 65.3565C107.307 65.7596 107.579 66.0382 107.959 66.1923C108.338 66.3346 108.854 66.4057 109.506 66.4057C109.731 66.4057 109.986 66.3998 110.27 66.3879C110.567 66.3642 110.863 66.3405 111.16 66.3168C111.456 66.2931 111.717 66.2635 111.942 66.2279C112.179 66.1805 112.345 66.133 112.44 66.0856V66.299C112.44 66.4176 112.405 66.5302 112.333 66.6369C112.274 66.7436 112.144 66.8325 111.942 66.9037C111.681 67.0104 111.326 67.0815 110.875 67.1171C110.436 67.1526 109.909 67.1704 109.292 67.1704ZM114.963 67.0637C114.69 67.0637 114.554 66.9215 114.554 66.6369V60.4837C114.897 60.3296 115.348 60.1933 115.905 60.0747C116.474 59.9561 117.126 59.8969 117.861 59.8969C118.549 59.8969 119.106 59.9443 119.533 60.0391C119.96 60.134 120.286 60.2762 120.511 60.4659C120.736 60.6556 120.885 60.9046 120.956 61.2129C121.039 61.5093 121.08 61.8709 121.08 62.2977V66.5302C121.08 66.6606 121.062 66.7673 121.027 66.8503C121.003 66.9333 120.95 66.9926 120.867 67.0282C120.796 67.0519 120.683 67.0637 120.529 67.0637H119.835V62.0487C119.835 61.5745 119.681 61.2247 119.373 60.9995C119.065 60.7742 118.561 60.6616 117.861 60.6616C117.636 60.6616 117.387 60.6793 117.114 60.7149C116.854 60.7505 116.605 60.8038 116.368 60.875C116.13 60.9342 115.935 61.0172 115.781 61.1239V67.0637H114.963ZM125.25 67.1171C124.846 67.1171 124.532 67.0696 124.307 66.9748C124.082 66.8681 123.916 66.6903 123.809 66.4413C123.702 66.1923 123.649 65.8544 123.649 65.4276V60.6616H122.973V59.968H123.649V58.6876C123.649 58.5097 123.661 58.3793 123.685 58.2963C123.72 58.2015 123.774 58.1422 123.845 58.1185C123.916 58.0948 124.017 58.0829 124.147 58.0829H124.912C124.912 58.1066 124.906 58.16 124.894 58.243C124.894 58.3141 124.894 58.4208 124.894 58.5631V59.968H126.548V60.6616H124.894V65.2853C124.894 65.7477 124.941 66.0738 125.036 66.2635C125.131 66.4531 125.344 66.548 125.676 66.548C125.807 66.548 125.943 66.5361 126.085 66.5124C126.228 66.4887 126.328 66.465 126.388 66.4413V66.9926C126.317 67.0044 126.18 67.0282 125.979 67.0637C125.777 67.0993 125.534 67.1171 125.25 67.1171ZM136.289 67.1882C135.589 67.1882 135.02 67.1526 134.581 67.0815C134.143 67.0104 133.805 66.8918 133.568 66.7258C133.343 66.548 133.182 66.3168 133.088 66.0323C133.005 65.7477 132.963 65.398 132.963 64.983C132.963 64.3784 133.034 63.916 133.177 63.5959C133.319 63.2758 133.568 63.0564 133.923 62.9379C134.279 62.8193 134.753 62.76 135.346 62.76C135.643 62.76 135.963 62.7719 136.306 62.7956C136.662 62.8075 137 62.8253 137.32 62.849C137.652 62.8608 137.937 62.8786 138.174 62.9023C138.423 62.926 138.589 62.9557 138.672 62.9912C138.672 62.4459 138.624 62.0131 138.529 61.693C138.435 61.3729 138.286 61.1358 138.085 60.9817C137.895 60.8275 137.652 60.7268 137.356 60.6793C137.071 60.6319 136.739 60.6082 136.36 60.6082C135.969 60.6082 135.571 60.626 135.168 60.6616C134.777 60.6853 134.415 60.7327 134.084 60.8038C133.752 60.8631 133.497 60.9461 133.319 61.0528V60.786C133.319 60.5371 133.39 60.3652 133.532 60.2703C133.686 60.1636 133.858 60.0925 134.048 60.0569C134.273 59.9976 134.599 59.9502 135.026 59.9146C135.465 59.8791 135.921 59.8672 136.395 59.8791C137 59.8791 137.516 59.9087 137.943 59.968C138.381 60.0273 138.743 60.1577 139.027 60.3592C139.312 60.5489 139.525 60.8394 139.668 61.2306C139.81 61.6219 139.881 62.1554 139.881 62.8312V66.4946C139.81 66.7318 139.496 66.9096 138.938 67.0282C138.381 67.1349 137.498 67.1882 136.289 67.1882ZM136.289 66.5836C136.834 66.5836 137.267 66.5658 137.587 66.5302C137.919 66.4946 138.168 66.4472 138.334 66.3879C138.512 66.3287 138.624 66.2516 138.672 66.1567V63.507C138.565 63.4714 138.363 63.4358 138.067 63.4003C137.783 63.3647 137.48 63.3351 137.16 63.3113C136.84 63.2758 136.567 63.258 136.342 63.258C135.832 63.258 135.417 63.2876 135.097 63.3469C134.789 63.4062 134.564 63.5544 134.421 63.7915C134.291 64.0286 134.226 64.3962 134.226 64.8941C134.226 65.2853 134.273 65.6055 134.368 65.8544C134.463 66.1034 134.653 66.2872 134.937 66.4057C135.234 66.5243 135.684 66.5836 136.289 66.5836ZM145.792 67.1704C144.868 67.1704 144.121 67.0756 143.552 66.8859C142.983 66.6962 142.568 66.3464 142.307 65.8366C142.058 65.315 141.933 64.5562 141.933 63.5603C141.933 62.5526 142.058 61.7819 142.307 61.2484C142.568 60.7149 142.983 60.3533 143.552 60.1636C144.121 59.9621 144.868 59.8613 145.792 59.8613C146.101 59.8613 146.385 59.8731 146.646 59.8969C146.919 59.9206 147.227 59.9621 147.571 60.0213C147.76 60.0451 147.915 60.0925 148.033 60.1636C148.152 60.2229 148.235 60.3118 148.282 60.4304C148.329 60.5371 148.353 60.6971 148.353 60.9105C148.223 60.8394 148.015 60.7801 147.731 60.7327C147.458 60.6853 147.168 60.6497 146.859 60.626C146.551 60.5904 146.278 60.5726 146.041 60.5726C145.33 60.5726 144.767 60.6675 144.352 60.8572C143.937 61.035 143.641 61.3373 143.463 61.7642C143.297 62.1791 143.214 62.7541 143.214 63.4892C143.214 64.2242 143.297 64.8111 143.463 65.2498C143.629 65.6766 143.919 65.9789 144.334 66.1567C144.749 66.3346 145.318 66.4235 146.041 66.4235C146.373 66.4235 146.687 66.4116 146.984 66.3879C147.28 66.3524 147.547 66.3109 147.784 66.2635C148.033 66.2042 148.223 66.139 148.353 66.0678V66.4591C148.353 66.6369 148.241 66.7792 148.015 66.8859C147.802 66.9807 147.506 67.0519 147.126 67.0993C146.747 67.1467 146.302 67.1704 145.792 67.1704ZM153.876 67.1704C152.952 67.1704 152.205 67.0756 151.636 66.8859C151.066 66.6962 150.652 66.3464 150.391 65.8366C150.142 65.315 150.017 64.5562 150.017 63.5603C150.017 62.5526 150.142 61.7819 150.391 61.2484C150.652 60.7149 151.066 60.3533 151.636 60.1636C152.205 59.9621 152.952 59.8613 153.876 59.8613C154.185 59.8613 154.469 59.8731 154.73 59.8969C155.003 59.9206 155.311 59.9621 155.655 60.0213C155.844 60.0451 155.999 60.0925 156.117 60.1636C156.236 60.2229 156.319 60.3118 156.366 60.4304C156.413 60.5371 156.437 60.6971 156.437 60.9105C156.307 60.8394 156.099 60.7801 155.815 60.7327C155.542 60.6853 155.252 60.6497 154.943 60.626C154.635 60.5904 154.362 60.5726 154.125 60.5726C153.414 60.5726 152.851 60.6675 152.436 60.8572C152.021 61.035 151.724 61.3373 151.547 61.7642C151.381 62.1791 151.298 62.7541 151.298 63.4892C151.298 64.2242 151.381 64.8111 151.547 65.2498C151.713 65.6766 152.003 65.9789 152.418 66.1567C152.833 66.3346 153.402 66.4235 154.125 66.4235C154.457 66.4235 154.771 66.4116 155.068 66.3879C155.364 66.3524 155.631 66.3109 155.868 66.2635C156.117 66.2042 156.307 66.139 156.437 66.0678V66.4591C156.437 66.6369 156.325 66.7792 156.099 66.8859C155.886 66.9807 155.589 67.0519 155.21 67.0993C154.831 67.1467 154.386 67.1704 153.876 67.1704ZM161.747 67.1704C161.059 67.1704 160.478 67.123 160.004 67.0282C159.542 66.9333 159.168 66.7555 158.884 66.4946C158.611 66.2338 158.409 65.8722 158.279 65.4098C158.16 64.9356 158.101 64.325 158.101 63.5781C158.101 62.7245 158.208 62.025 158.421 61.4796C158.635 60.9342 159.014 60.5311 159.559 60.2703C160.105 60.0095 160.87 59.8791 161.854 59.8791C162.612 59.8791 163.217 59.9798 163.668 60.1814C164.13 60.3829 164.462 60.6912 164.663 61.1062C164.877 61.5211 164.984 62.0605 164.984 62.7245V63.7382H159.969C159.969 63.5959 160.004 63.4773 160.075 63.3825C160.146 63.2758 160.277 63.2224 160.466 63.2224H163.863L163.845 62.7067C163.834 61.9716 163.673 61.4381 163.365 61.1062C163.069 60.7742 162.547 60.6082 161.8 60.6082C161.172 60.6082 160.68 60.7031 160.324 60.8927C159.969 61.0824 159.72 61.3907 159.577 61.8175C159.435 62.2443 159.364 62.8253 159.364 63.5603C159.364 64.3428 159.441 64.9415 159.595 65.3565C159.761 65.7596 160.034 66.0382 160.413 66.1923C160.792 66.3346 161.308 66.4057 161.96 66.4057C162.186 66.4057 162.44 66.3998 162.725 66.3879C163.021 66.3642 163.318 66.3405 163.614 66.3168C163.911 66.2931 164.171 66.2635 164.397 66.2279C164.634 66.1805 164.8 66.133 164.895 66.0856V66.299C164.895 66.4176 164.859 66.5302 164.788 66.6369C164.729 66.7436 164.598 66.8325 164.397 66.9037C164.136 67.0104 163.78 67.0815 163.33 67.1171C162.891 67.1526 162.363 67.1704 161.747 67.1704ZM169.498 67.1349C169.296 67.1349 169.041 67.1289 168.733 67.1171C168.437 67.1052 168.128 67.0815 167.808 67.0459C167.5 66.9985 167.222 66.9333 166.973 66.8503C166.854 66.8029 166.759 66.7555 166.688 66.708C166.617 66.6606 166.564 66.5776 166.528 66.4591C166.504 66.3405 166.492 66.1627 166.492 65.9256C166.753 66.056 167.061 66.1627 167.417 66.2457C167.773 66.3168 168.128 66.3642 168.484 66.3879C168.84 66.4116 169.136 66.4235 169.373 66.4235C169.729 66.4235 170.073 66.4116 170.405 66.3879C170.749 66.3524 171.057 66.2872 171.33 66.1923C171.602 66.0856 171.816 65.9315 171.97 65.7299C172.136 65.5284 172.219 65.2616 172.219 64.9297C172.219 64.4436 172.094 64.1353 171.845 64.0049C171.596 63.8626 171.258 63.7915 170.832 63.7915H169.035C168.597 63.7915 168.182 63.7678 167.791 63.7204C167.411 63.6611 167.097 63.5129 166.848 63.2758C166.611 63.0268 166.492 62.6118 166.492 62.0309C166.492 61.4025 166.647 60.9342 166.955 60.626C167.263 60.3177 167.696 60.1162 168.253 60.0213C168.822 59.9265 169.48 59.8791 170.227 59.8791C170.5 59.8791 170.826 59.885 171.205 59.8969C171.584 59.9087 171.946 59.9443 172.29 60.0036C172.527 60.0391 172.723 60.0865 172.877 60.1458C173.043 60.1933 173.161 60.2644 173.232 60.3592C173.315 60.4541 173.357 60.5904 173.357 60.7683V61.1239C173.25 61.0054 173.072 60.9105 172.823 60.8394C172.574 60.7683 172.284 60.7149 171.952 60.6793C171.632 60.6438 171.3 60.626 170.956 60.626C170.612 60.6141 170.292 60.6082 169.996 60.6082C169.616 60.6082 169.249 60.6319 168.893 60.6793C168.538 60.7268 168.247 60.8453 168.022 61.035C167.808 61.2129 167.702 61.5211 167.702 61.9598C167.702 62.2917 167.773 62.5348 167.915 62.6889C168.057 62.843 168.247 62.9438 168.484 62.9912C168.733 63.0268 169.012 63.0446 169.32 63.0446H171.152C171.602 63.0446 171.999 63.0861 172.343 63.1691C172.699 63.2402 172.972 63.4121 173.161 63.6848C173.363 63.9456 173.464 64.3606 173.464 64.9297C173.464 65.558 173.292 66.0323 172.948 66.3524C172.604 66.6725 172.13 66.8859 171.525 66.9926C170.932 67.0874 170.257 67.1349 169.498 67.1349ZM177.86 67.1349C177.658 67.1349 177.403 67.1289 177.095 67.1171C176.799 67.1052 176.49 67.0815 176.17 67.0459C175.862 66.9985 175.583 66.9333 175.334 66.8503C175.216 66.8029 175.121 66.7555 175.05 66.708C174.979 66.6606 174.925 66.5776 174.89 66.4591C174.866 66.3405 174.854 66.1627 174.854 65.9256C175.115 66.056 175.423 66.1627 175.779 66.2457C176.135 66.3168 176.49 66.3642 176.846 66.3879C177.202 66.4116 177.498 66.4235 177.735 66.4235C178.091 66.4235 178.435 66.4116 178.767 66.3879C179.11 66.3524 179.419 66.2872 179.691 66.1923C179.964 66.0856 180.178 65.9315 180.332 65.7299C180.498 65.5284 180.581 65.2616 180.581 64.9297C180.581 64.4436 180.456 64.1353 180.207 64.0049C179.958 63.8626 179.62 63.7915 179.193 63.7915H177.397C176.959 63.7915 176.544 63.7678 176.152 63.7204C175.773 63.6611 175.459 63.5129 175.21 63.2758C174.973 63.0268 174.854 62.6118 174.854 62.0309C174.854 61.4025 175.008 60.9342 175.317 60.626C175.625 60.3177 176.058 60.1162 176.615 60.0213C177.184 59.9265 177.842 59.8791 178.589 59.8791C178.862 59.8791 179.188 59.885 179.567 59.8969C179.946 59.9087 180.308 59.9443 180.652 60.0036C180.889 60.0391 181.084 60.0865 181.239 60.1458C181.405 60.1933 181.523 60.2644 181.594 60.3592C181.677 60.4541 181.719 60.5904 181.719 60.7683V61.1239C181.612 61.0054 181.434 60.9105 181.185 60.8394C180.936 60.7683 180.646 60.7149 180.314 60.6793C179.994 60.6438 179.662 60.626 179.318 60.626C178.974 60.6141 178.654 60.6082 178.358 60.6082C177.978 60.6082 177.611 60.6319 177.255 60.6793C176.899 60.7268 176.609 60.8453 176.384 61.035C176.17 61.2129 176.064 61.5211 176.064 61.9598C176.064 62.2917 176.135 62.5348 176.277 62.6889C176.419 62.843 176.609 62.9438 176.846 62.9912C177.095 63.0268 177.374 63.0446 177.682 63.0446H179.514C179.964 63.0446 180.361 63.0861 180.705 63.1691C181.061 63.2402 181.333 63.4121 181.523 63.6848C181.725 63.9456 181.825 64.3606 181.825 64.9297C181.825 65.558 181.654 66.0323 181.31 66.3524C180.966 66.6725 180.492 66.8859 179.887 66.9926C179.294 67.0874 178.618 67.1349 177.86 67.1349Z" fill="#1BC469"/>
</g>
<defs>
<filter id="filter0_d_1739_1022" x="-0.000926971" y="4.95911e-05" width="219.502" height="103.908" filterUnits="userSpaceOnUse" color-interpolation-filters="sRGB">
<feFlood flood-opacity="0" result="BackgroundImageFix"/>
<feColorMatrix in="SourceAlpha" type="matrix" values="0 0 0 0 0 0 0 0 0 0 0 0 0 0 0 0 0 0 127 0" result="hardAlpha"/>
<feOffset/>
<feGaussianBlur stdDeviation="14.227"/>
<feComposite in2="hardAlpha" operator="out"/>
<feColorMatrix type="matrix" values="0 0 0 0 0.74902 0 0 0 0 0.74902 0 0 0 0 0.74902 0 0 0 0.25 0"/>
<feBlend mode="normal" in2="BackgroundImageFix" result="effect1_dropShadow_1739_1022"/>
<feBlend mode="normal" in="SourceGraphic" in2="effect1_dropShadow_1739_1022" result="shape"/>
</filter>
</defs>
</svg>
