<svg width="13" height="13" viewBox="0 0 13 13" fill="none" xmlns="http://www.w3.org/2000/svg">
<path d="M8.06944 7.1853H8.77797C10.7883 7.1853 12.4243 5.57389 12.4243 3.59265C12.4243 1.61166 10.7885 0 8.77797 0H0.695584C0.311349 0 0 0.307019 0 0.685351C0 1.06393 0.311603 1.3707 0.695584 1.3707H8.77823C10.0216 1.3707 11.0331 2.36732 11.0331 3.5924C11.0331 4.81747 10.0216 5.8141 8.77823 5.8141H8.06969C7.68546 5.8141 7.37411 6.12112 7.37411 6.49945C7.37411 6.87778 7.68546 7.1853 8.06944 7.1853Z" fill="white"/>
<path d="M0.695584 0H8.77797C10.7885 0 12.4243 1.61166 12.4243 3.59265C12.4243 5.57389 10.7883 7.1853 8.77797 7.1853H8.06944C7.6852 7.1853 7.37394 6.87828 7.37394 6.49995C7.37394 6.12162 7.68555 5.8146 8.06953 5.8146H8.77806C10.0214 5.8146 11.0329 4.81798 11.0329 3.5929C11.0329 2.36783 10.0214 1.3712 8.77806 1.3712H0.695675C0.31144 1.3712 9.08722e-05 1.06418 9.08722e-05 0.685851C-0.000163083 0.307019 0.311349 0 0.695584 0Z" fill="white"/>
<path d="M4.22178 13H12.3044C12.6887 13 13 12.693 13 12.3146C13 11.9363 12.6884 11.6293 12.3044 11.6293H4.22178C2.97841 11.6293 1.96691 10.6327 1.96691 9.4076C1.96691 8.18253 2.97841 7.18591 4.22178 7.18591H4.93031C5.31455 7.18591 5.6259 6.87889 5.6259 6.50056C5.6259 6.12222 5.31429 5.81521 4.93031 5.81521H4.22178C2.21147 5.81521 0.575487 7.42662 0.575487 9.40786C0.575487 11.3886 2.21121 13 4.22178 13Z" fill="white"/>
<path d="M4.22178 5.81465H4.93031C5.31455 5.81465 5.6259 6.12167 5.6259 6.5C5.6259 6.87833 5.31429 7.18535 4.93031 7.18535H4.22178C2.97841 7.18535 1.96691 8.18198 1.96691 9.40705C1.96691 10.6319 2.97841 11.6288 4.22178 11.6288H12.3044C12.6887 11.6288 13 11.9358 13 12.3141C13 12.6924 12.6884 12.9995 12.3044 12.9995H4.22178C2.21147 12.9995 0.575487 11.388 0.575487 9.4068C0.575487 7.42606 2.21121 5.81465 4.22178 5.81465Z" fill="white"/>
<path d="M6.88653 9.28906C7.0544 9.28906 7.22302 9.22951 7.35661 9.10865C7.63977 8.85293 7.65881 8.4193 7.39927 8.14031L3.48328 3.93336C3.22373 3.65387 2.78363 3.6351 2.50047 3.89157C2.21705 4.1473 2.19826 4.58093 2.4578 4.85993L6.3738 9.06687C6.51093 9.2145 6.69835 9.28906 6.88653 9.28906Z" fill="white"/>
<path d="M10.0259 9.28895C10.1938 9.28895 10.3624 9.22939 10.496 9.10854C10.7794 8.85281 10.7982 8.41918 10.5386 8.14019L6.62264 3.93325C6.36284 3.65375 5.923 3.63498 5.63983 3.89146C5.35642 4.14718 5.33763 4.58082 5.59717 4.85981L9.51316 9.06675C9.6503 9.21438 9.83772 9.28895 10.0259 9.28895Z" fill="white"/>
</svg>
