<svg width="225" height="106" viewBox="0 0 225 106" fill="none" xmlns="http://www.w3.org/2000/svg">
<g filter="url(#filter0_d_1739_1862)">
<rect x="29.0508" y="29.05" width="166" height="47" rx="9.07813" fill="white" shape-rendering="crispEdges"/>
<mask id="mask0_1739_1862" style="mask-type:alpha" maskUnits="userSpaceOnUse" x="34" y="32" width="33" height="5">
<rect x="34.2383" y="32.9407" width="32.4219" height="3.10924" rx="1.55462" fill="#F3B811"/>
</mask>
<g mask="url(#mask0_1739_1862)">
<path d="M34.2383 32.9407H46.2344V44.6003V50.0415H44.8588C41.0488 50.0415 37.4315 48.3661 34.9674 45.4602L34.2383 44.6003V32.9407Z" fill="#E52021"/>
<rect x="46.2383" y="32.9407" width="8.42969" height="17.1008" fill="#F7F7F7"/>
<path d="M54.6582 32.9407H66.6543V44.6003L65.9252 45.4602C63.4611 48.3661 59.8438 50.0415 56.0338 50.0415H54.6582V44.6003V32.9407Z" fill="#268A42"/>
<rect x="34.2383" y="32.9407" width="32.4219" height="3.10924" rx="1.55462" fill="black" fill-opacity="0.05"/>
</g>
<path d="M46.2285 47.6477L46.2031 47.6418C44.8309 47.2895 43.3682 47.9621 42.8008 49.2073L42.4326 50.0168C42.3783 50.1362 42.2939 50.2413 42.1875 50.3225C42.081 50.4037 41.9551 50.4586 41.8213 50.4827L40.9141 50.6467C40.6612 50.6923 40.4209 50.7694 40.1973 50.8733C39.4937 50.2541 38.8793 49.5229 38.3857 48.6946L37.7988 47.7092V36.05H46.2285V47.6477Z" fill="#E52021"/>
<path d="M54.6641 47.6487L53.8018 47.8704C53.6703 47.9041 53.5321 47.9071 53.3994 47.8782C53.2667 47.8492 53.1431 47.7893 53.04 47.7043L52.3408 47.1282C51.2646 46.2416 49.6408 46.2416 48.5645 47.1282L47.8652 47.7043C47.7621 47.7893 47.6386 47.8492 47.5059 47.8782C47.3732 47.9071 47.2349 47.9042 47.1035 47.8704L46.2344 47.6467V36.05H54.6641V47.6487Z" fill="#F7F7F7"/>
<path d="M63.0898 47.7102L62.5029 48.6946C62.009 49.5235 61.3937 50.2548 60.6895 50.8743C60.4655 50.7701 60.225 50.6924 59.9717 50.6467L59.0635 50.4827C58.9299 50.4586 58.8046 50.4036 58.6982 50.3225C58.5918 50.2413 58.5074 50.1362 58.4531 50.0168L58.084 49.2073C57.5165 47.9623 56.0546 47.2894 54.6826 47.6418L54.6602 47.6467V36.05H63.0898V47.7102Z" fill="#268A42"/>
<path d="M50.6084 34.7104L50.9545 38.2321L52.3211 34.9466L51.6185 38.4191L53.895 35.6359L52.2008 38.7779L55.2027 36.7226L52.654 39.2795L56.1382 38.1185L52.9415 39.8833L56.6256 39.7106L53.04 40.5403L56.6256 41.37L52.9415 41.1973L56.1382 42.9621L52.654 41.801L55.2027 44.358L52.2008 42.3026L53.895 45.4447L51.6185 42.6615L52.3211 46.134L50.9545 42.8485L50.6084 46.3701L50.2623 42.8485L48.8957 46.134L49.5983 42.6615L47.3218 45.4447L49.016 42.3026L46.0141 44.358L48.5628 41.801L45.0787 42.9621L48.2753 41.1973L44.5912 41.37L48.1768 40.5403L44.5912 39.7106L48.2753 39.8833L45.0787 38.1185L48.5628 39.2795L46.0141 36.7226L49.016 38.7779L47.3218 35.6359L49.5983 38.4191L48.8957 34.9466L50.2623 38.2321L50.6084 34.7104Z" fill="#F7B70F"/>
<path fill-rule="evenodd" clip-rule="evenodd" d="M62.5871 61.136C62.5303 61.031 62.5007 60.9139 62.5006 60.795C62.5006 60.6762 62.5303 60.5591 62.5871 60.454L62.9719 59.7416C63.5641 58.6455 63.2423 57.264 62.2235 56.5282L61.5613 56.0499C61.4636 55.9794 61.385 55.8866 61.3324 55.7795C61.2798 55.6724 61.2547 55.5543 61.2594 55.4356L61.2907 54.63C61.3388 53.3907 60.4372 52.2829 59.1935 52.053L58.3851 51.9037C58.2659 51.8817 58.154 51.8315 58.0591 51.7574C57.9643 51.6832 57.8894 51.5875 57.841 51.4785L57.5126 50.7394C57.0072 49.6024 55.7044 48.9875 54.482 49.3093L53.6875 49.5185C53.5704 49.5494 53.4473 49.5517 53.3291 49.5252C53.2108 49.4988 53.101 49.4444 53.0091 49.3667L52.3859 48.8405C51.4272 48.031 49.9811 48.031 49.0223 48.8405L48.3991 49.3667C48.3072 49.4444 48.1974 49.4988 48.0791 49.5252C47.9609 49.5517 47.8378 49.5494 47.7207 49.5185L46.9262 49.3093C45.7038 48.9876 44.4011 49.6024 43.8957 50.7394L43.5671 51.4786C43.5188 51.5875 43.4439 51.6833 43.349 51.7574C43.2542 51.8315 43.1423 51.8817 43.0231 51.9037L42.2147 52.053C40.971 52.2829 40.0693 53.3907 40.1175 54.63L40.1488 55.4356C40.1534 55.5543 40.1284 55.6724 40.0757 55.7795C40.0231 55.8866 39.9445 55.9794 39.8468 56.0499L39.1846 56.5282C38.1658 57.264 37.8441 58.6455 38.4362 59.7417L38.821 60.4541C38.8778 60.5591 38.9075 60.6762 38.9075 60.7951C38.9075 60.9139 38.8778 61.031 38.821 61.136L38.4362 61.8485C37.8441 62.9445 38.1658 64.326 39.1846 65.0619L39.8468 65.5402C39.9445 65.6106 40.0231 65.7035 40.0757 65.8106C40.1283 65.9177 40.1534 66.0359 40.1487 66.1546L40.1174 66.9601C40.0693 68.1995 40.9709 69.3073 42.2146 69.5371L42.6385 69.6154L42.6386 69.6153L43.0229 69.6863C43.1421 69.7082 43.254 69.7585 43.3489 69.8326C43.4437 69.9068 43.5186 70.0025 43.567 70.1115L43.8955 70.8505C44.4009 71.9875 45.7036 72.6025 46.926 72.2806L47.7205 72.0715C47.8376 72.0407 47.9607 72.0384 48.079 72.0648C48.1972 72.0913 48.3071 72.1457 48.399 72.2233L49.0221 72.7495C49.0739 72.793 49.1274 72.8344 49.1826 72.8737L49.1825 72.8739L49.1827 72.8738C49.6324 73.1955 50.1681 73.3568 50.7041 73.3568C51.2318 73.3568 51.7594 73.2007 52.2048 72.8888L52.2047 72.8887C52.2672 72.845 52.3276 72.7986 52.3858 72.7495L53.009 72.2233C53.1009 72.1457 53.2107 72.0912 53.329 72.0648C53.4472 72.0383 53.5703 72.0407 53.6874 72.0715L54.4819 72.2806C54.7006 72.3382 54.9216 72.3657 55.1404 72.3657C56.1446 72.3657 57.0975 71.7841 57.5124 70.8505L57.841 70.1115C57.8893 70.0025 57.9642 69.9067 58.059 69.8326C58.1539 69.7585 58.2658 69.7082 58.385 69.6863L58.7429 69.6202L58.743 69.6204L58.743 69.6203L59.1936 69.537C60.4373 69.3073 61.3389 68.1994 61.2908 66.96L61.2594 66.1546C61.2548 66.0358 61.2798 65.9177 61.3325 65.8106C61.3851 65.7035 61.4637 65.6107 61.5613 65.5402L62.2235 65.0619C63.2424 64.3261 63.5642 62.9446 62.972 61.8485L62.5871 61.136Z" fill="#F3B811"/>
<ellipse cx="50.7009" cy="60.861" rx="8.21459" ry="8.04953" fill="url(#paint0_linear_1739_1862)"/>
<g filter="url(#filter1_i_1739_1862)">
<path d="M56.3705 60.6496C56.6679 60.3657 56.7733 59.9491 56.6449 59.5618C56.5166 59.1746 56.1815 58.8982 55.7711 58.8393L53.192 58.4717C53.1684 58.4683 53.1459 58.4593 53.1267 58.4456C53.1074 58.4318 53.0918 58.4136 53.0813 58.3926L51.9283 56.1027C51.7446 55.738 51.3725 55.5112 50.9573 55.5112C50.5422 55.5112 50.17 55.7386 49.9863 56.1027L48.8334 58.3926C48.8229 58.4137 48.8074 58.4319 48.7881 58.4457C48.7688 58.4595 48.7463 58.4684 48.7227 58.4717L46.1447 58.8393C45.7337 58.8982 45.3981 59.1746 45.2703 59.5618C45.1425 59.9491 45.2473 60.3657 45.5447 60.6496L47.4102 62.4317C47.4455 62.4652 47.4608 62.5131 47.4525 62.5598L47.0121 65.0759C46.9771 65.2712 46.9989 65.4722 47.0752 65.6558C47.1514 65.8394 47.279 65.9983 47.4431 66.1141C47.6062 66.2312 47.7996 66.301 48.0012 66.3154C48.2028 66.3297 48.4045 66.2882 48.5831 66.1955L50.889 65.0073C50.9102 64.9962 50.9339 64.9904 50.9579 64.9904C50.9819 64.9904 51.0056 64.9962 51.0268 65.0073L53.3327 66.1955C53.5113 66.288 53.7128 66.3294 53.9143 66.315C54.1158 66.3006 54.3091 66.231 54.4721 66.1141C54.6363 65.9983 54.7639 65.8395 54.8401 65.6558C54.9164 65.4722 54.9382 65.2712 54.9031 65.0759L54.4627 62.5598C54.4587 62.5367 54.4605 62.513 54.4678 62.4907C54.4752 62.4684 54.488 62.4481 54.5051 62.4317L56.3705 60.6496Z" fill="#F3B811"/>
</g>
<path d="M74.9187 47.0469V37.1958C74.9187 36.8534 74.9653 36.62 75.0587 36.4955C75.1677 36.371 75.3933 36.3087 75.7357 36.3087H85.4467V37.6393H77.3231V40.7907H84.7464V42.1213H77.3231V45.7163H85.4467V47.0469H74.9187ZM87.2553 42.3548C87.2553 41.0942 87.4265 40.1293 87.7689 39.4601C88.1112 38.7754 88.6092 38.3085 89.2629 38.0595C89.9165 37.795 90.7024 37.6627 91.6206 37.6627C91.9007 37.6627 92.2197 37.6782 92.5777 37.7094C92.9512 37.7249 93.3169 37.7561 93.6748 37.8027C94.0328 37.8494 94.3518 37.9039 94.6319 37.9661C94.9121 38.0128 95.1066 38.0673 95.2155 38.1296L94.6319 38.4097V35.2583H96.7796L96.7562 42.3548C96.7562 43.413 96.6784 44.2612 96.5228 44.8992C96.3671 45.5217 96.1104 45.9886 95.7524 46.2999C95.3945 46.6111 94.8965 46.8212 94.2584 46.9302C93.6204 47.0391 92.8267 47.0936 91.8774 47.0936C90.9903 47.0936 90.2433 47.0391 89.6364 46.9302C89.045 46.8057 88.5703 46.58 88.2124 46.2532C87.87 45.9264 87.621 45.4517 87.4654 44.8292C87.3253 44.2067 87.2553 43.3819 87.2553 42.3548ZM91.8307 45.903C92.4376 45.903 92.9278 45.8641 93.3013 45.7863C93.6748 45.6929 93.955 45.5295 94.1417 45.2961C94.344 45.0627 94.4763 44.7358 94.5386 44.3157C94.6008 43.8799 94.6319 43.3197 94.6319 42.6349L94.6086 39.0633C94.453 39.0477 94.2429 39.0322 93.9783 39.0166C93.7137 39.0011 93.4336 38.9933 93.1379 38.9933C92.8422 38.9777 92.5699 38.9699 92.3209 38.9699C91.6206 38.9699 91.0603 39.0633 90.6401 39.2501C90.22 39.4212 89.9165 39.7558 89.7297 40.2538C89.543 40.7518 89.4496 41.4677 89.4496 42.4015C89.4496 43.3975 89.5196 44.1445 89.6597 44.6425C89.8153 45.1405 90.0643 45.4751 90.4067 45.6462C90.7646 45.8174 91.2393 45.903 91.8307 45.903ZM101.102 37.7327V43.9655C101.102 44.6814 101.297 45.1872 101.686 45.4828C102.075 45.7785 102.682 45.9264 103.506 45.9264C104.393 45.9264 105.024 45.7707 105.397 45.4595C105.786 45.1482 105.981 44.6502 105.981 43.9655V37.7327C105.996 37.7327 106.059 37.7327 106.168 37.7327C106.292 37.7327 106.424 37.7327 106.564 37.7327C106.704 37.7327 106.837 37.7327 106.961 37.7327C107.086 37.7327 107.164 37.7327 107.195 37.7327C107.444 37.7327 107.638 37.7483 107.778 37.7794C107.918 37.795 108.012 37.865 108.058 37.9895C108.121 38.0984 108.152 38.2852 108.152 38.5497V43.6387C108.152 44.4635 108.027 45.1405 107.778 45.6696C107.529 46.1832 107.062 46.5644 106.378 46.8134C105.708 47.0469 104.744 47.1636 103.483 47.1636C102.3 47.1636 101.374 47.0624 100.705 46.8601C100.052 46.6578 99.5846 46.3154 99.3045 45.833C99.0399 45.335 98.9077 44.658 98.9077 43.8021V38.5497C98.9077 38.2229 98.9621 38.0051 99.0711 37.8961C99.18 37.7872 99.3979 37.7327 99.7247 37.7327C99.9581 37.7327 100.184 37.7327 100.402 37.7327C100.635 37.7327 100.869 37.7327 101.102 37.7327ZM115.464 47.1869C114.203 47.1869 113.184 47.0624 112.406 46.8134C111.628 46.5644 111.067 46.1053 110.725 45.4362C110.383 44.767 110.212 43.7865 110.212 42.4948C110.212 41.1565 110.383 40.1371 110.725 39.4368C111.067 38.7209 111.628 38.2385 112.406 37.9895C113.184 37.7249 114.203 37.5926 115.464 37.5926C115.868 37.5926 116.25 37.6082 116.608 37.6393C116.981 37.6705 117.409 37.7249 117.892 37.8027C118.156 37.8339 118.366 37.8961 118.522 37.9895C118.693 38.0829 118.818 38.2229 118.895 38.4097C118.973 38.5809 119.012 38.8376 119.012 39.18C118.825 39.1022 118.553 39.0322 118.195 38.9699C117.837 38.9077 117.456 38.861 117.051 38.8299C116.647 38.7987 116.289 38.7832 115.977 38.7832C115.09 38.7832 114.382 38.8999 113.853 39.1333C113.34 39.3512 112.974 39.7169 112.756 40.2305C112.554 40.7441 112.453 41.4522 112.453 42.3548C112.453 43.2574 112.554 43.9733 112.756 44.5024C112.974 45.0315 113.34 45.405 113.853 45.6229C114.367 45.8408 115.075 45.9497 115.977 45.9497C116.398 45.9497 116.802 45.9342 117.191 45.903C117.58 45.8563 117.931 45.8019 118.242 45.7396C118.569 45.6618 118.825 45.5918 119.012 45.5295V46.1598C119.012 46.4399 118.856 46.6578 118.545 46.8134C118.234 46.9535 117.814 47.0469 117.285 47.0936C116.771 47.1558 116.164 47.1869 115.464 47.1869ZM125.205 47.1869C124.24 47.1869 123.454 47.1403 122.847 47.0469C122.24 46.9691 121.773 46.8212 121.447 46.6033C121.12 46.3855 120.894 46.0898 120.77 45.7163C120.661 45.3428 120.606 44.8759 120.606 44.3157C120.606 43.522 120.692 42.9228 120.863 42.5182C121.05 42.098 121.361 41.8101 121.797 41.6545C122.248 41.4988 122.847 41.421 123.594 41.421C123.983 41.421 124.411 41.4288 124.878 41.4444C125.361 41.4599 125.82 41.4833 126.255 41.5144C126.707 41.53 127.096 41.5533 127.423 41.5844C127.765 41.6156 127.991 41.6545 128.1 41.7012C128.1 41.0475 128.045 40.534 127.936 40.1605C127.827 39.787 127.648 39.5068 127.399 39.3201C127.166 39.1333 126.87 39.0088 126.512 38.9466C126.154 38.8843 125.734 38.8532 125.252 38.8532C124.723 38.8532 124.193 38.8688 123.664 38.8999C123.151 38.931 122.66 38.9855 122.194 39.0633C121.742 39.1411 121.369 39.2423 121.073 39.3668V38.9232C121.073 38.5653 121.166 38.3085 121.353 38.1529C121.556 37.9973 121.797 37.8961 122.077 37.8494C122.388 37.7716 122.847 37.7094 123.454 37.6627C124.061 37.616 124.707 37.6004 125.392 37.616C126.263 37.616 127.002 37.6627 127.609 37.7561C128.232 37.8339 128.73 38.0051 129.103 38.2696C129.492 38.5342 129.773 38.931 129.944 39.4601C130.131 39.9893 130.224 40.6974 130.224 41.5844V46.3466C130.084 46.6422 129.609 46.8601 128.8 47.0002C127.991 47.1247 126.792 47.1869 125.205 47.1869ZM125.205 46.2065C125.827 46.2065 126.333 46.1909 126.722 46.1598C127.127 46.1131 127.438 46.0587 127.656 45.9964C127.874 45.9186 128.022 45.8252 128.1 45.7163V42.4948C127.96 42.4482 127.711 42.4092 127.353 42.3781C126.995 42.3314 126.621 42.2925 126.232 42.2614C125.843 42.2303 125.516 42.2147 125.252 42.2147C124.676 42.2147 124.209 42.2536 123.851 42.3314C123.493 42.4092 123.236 42.5882 123.081 42.8683C122.925 43.1485 122.847 43.5842 122.847 44.1756C122.847 44.658 122.902 45.0471 123.011 45.3428C123.12 45.6385 123.337 45.8563 123.664 45.9964C124.007 46.1365 124.52 46.2065 125.205 46.2065ZM135.36 47.1169C134.738 47.1169 134.247 47.0469 133.889 46.9068C133.547 46.7667 133.298 46.5177 133.142 46.1598C132.987 45.8019 132.909 45.3194 132.909 44.7125V38.9232H131.975V37.7327H132.909V36.192C132.909 35.9119 132.932 35.7096 132.979 35.5851C133.026 35.445 133.103 35.3594 133.212 35.3283C133.337 35.2816 133.516 35.2583 133.749 35.2583H135.103C135.103 35.2894 135.103 35.3594 135.103 35.4684C135.103 35.5617 135.103 35.7018 135.103 35.8886V37.7327H137.298V38.9232H135.103V44.5024C135.103 45.1093 135.166 45.5451 135.29 45.8097C135.415 46.0587 135.71 46.1832 136.177 46.1832C136.333 46.1832 136.504 46.1676 136.691 46.1365C136.893 46.1053 137.033 46.0742 137.111 46.0431V46.9535C137.017 46.9691 136.815 47.0002 136.504 47.0469C136.193 47.0936 135.811 47.1169 135.36 47.1169ZM143.543 47.1869C142.593 47.1869 141.792 47.1247 141.138 47.0002C140.5 46.8757 139.987 46.6422 139.598 46.2999C139.224 45.9575 138.96 45.4828 138.804 44.8759C138.648 44.269 138.571 43.4831 138.571 42.5182C138.571 41.3666 138.718 40.4328 139.014 39.7169C139.31 39.0011 139.831 38.4797 140.578 38.1529C141.341 37.8105 142.399 37.6393 143.753 37.6393C144.811 37.6393 145.652 37.7716 146.274 38.0362C146.912 38.2852 147.371 38.682 147.651 39.2267C147.931 39.7714 148.071 40.4639 148.071 41.3043V42.7983H141.512C141.512 42.5493 141.566 42.347 141.675 42.1914C141.784 42.0357 141.987 41.9579 142.282 41.9579H146.111L146.087 41.351C146.072 40.4795 145.885 39.8414 145.527 39.4368C145.185 39.0322 144.562 38.8299 143.66 38.8299C142.913 38.8299 142.329 38.9466 141.909 39.18C141.489 39.4135 141.193 39.7947 141.022 40.3239C140.85 40.8374 140.765 41.5533 140.765 42.4715C140.765 43.4208 140.858 44.1445 141.045 44.6425C141.247 45.1249 141.574 45.4517 142.025 45.6229C142.492 45.7941 143.138 45.8797 143.963 45.8797C144.259 45.8797 144.601 45.8719 144.99 45.8563C145.395 45.8408 145.799 45.8174 146.204 45.7863C146.624 45.7552 146.998 45.7163 147.324 45.6696C147.651 45.6229 147.869 45.5762 147.978 45.5295V45.8563C147.978 46.0275 147.939 46.1987 147.861 46.3699C147.784 46.5411 147.62 46.6812 147.371 46.7901C147.044 46.9457 146.562 47.0469 145.924 47.0936C145.301 47.1558 144.508 47.1869 143.543 47.1869ZM149.787 42.3548C149.787 41.0942 149.958 40.1293 150.3 39.4601C150.642 38.7754 151.14 38.3085 151.794 38.0595C152.448 37.795 153.234 37.6627 154.152 37.6627C154.432 37.6627 154.751 37.6782 155.109 37.7094C155.482 37.7249 155.848 37.7561 156.206 37.8027C156.564 37.8494 156.883 37.9039 157.163 37.9661C157.443 38.0128 157.638 38.0673 157.747 38.1296L157.163 38.4097V35.2583H159.311L159.287 42.3548C159.287 43.413 159.21 44.2612 159.054 44.8992C158.898 45.5217 158.642 45.9886 158.284 46.2999C157.926 46.6111 157.428 46.8212 156.79 46.9302C156.152 47.0391 155.358 47.0936 154.409 47.0936C153.522 47.0936 152.775 47.0391 152.168 46.9302C151.576 46.8057 151.102 46.58 150.744 46.2532C150.401 45.9264 150.152 45.4517 149.997 44.8292C149.857 44.2067 149.787 43.3819 149.787 42.3548ZM154.362 45.903C154.969 45.903 155.459 45.8641 155.833 45.7863C156.206 45.6929 156.486 45.5295 156.673 45.2961C156.875 45.0627 157.008 44.7358 157.07 44.3157C157.132 43.8799 157.163 43.3197 157.163 42.6349L157.14 39.0633C156.984 39.0477 156.774 39.0322 156.51 39.0166C156.245 39.0011 155.965 38.9933 155.669 38.9933C155.373 38.9777 155.101 38.9699 154.852 38.9699C154.152 38.9699 153.592 39.0633 153.171 39.2501C152.751 39.4212 152.448 39.7558 152.261 40.2538C152.074 40.7518 151.981 41.4677 151.981 42.4015C151.981 43.3975 152.051 44.1445 152.191 44.6425C152.347 45.1405 152.596 45.4751 152.938 45.6462C153.296 45.8174 153.771 45.903 154.362 45.903Z" fill="#1C274C"/>
<path d="M74.6515 68.0938V60.45C74.6515 60.1231 74.6818 59.9234 74.7423 59.8508C74.8149 59.7782 74.9844 59.7419 75.2507 59.7419H76.2493L79.245 66.4052L79.2813 66.5323L79.3177 66.4778L79.354 66.3507L82.3498 59.7419H83.4028C83.657 59.7419 83.8204 59.7721 83.893 59.8326C83.9778 59.8811 84.0201 60.0324 84.0201 60.2866V67.5309C84.0201 67.7004 84.002 67.8214 83.9657 67.894C83.9415 67.9667 83.887 68.0211 83.8023 68.0574C83.7296 68.0816 83.6146 68.0938 83.4573 68.0938H82.6039V61.267L82.5313 61.5212L79.5718 68.0938H78.6277L75.7227 61.6483L75.6683 61.3941V68.0938H74.6515ZM90.0596 68.2208C89.3455 68.2208 88.7645 68.1845 88.3166 68.1119C87.8688 68.0393 87.5238 67.9182 87.2817 67.7488C87.0518 67.5672 86.8884 67.3312 86.7915 67.0407C86.7068 66.7502 86.6644 66.3931 86.6644 65.9695C86.6644 65.3522 86.737 64.8801 86.8823 64.5533C87.0275 64.2265 87.2817 64.0025 87.6449 63.8815C88.008 63.7605 88.4922 63.6999 89.0974 63.6999C89.4 63.6999 89.7268 63.712 90.0778 63.7362C90.4409 63.7484 90.7859 63.7665 91.1127 63.7907C91.4516 63.8028 91.7421 63.821 91.9842 63.8452C92.2384 63.8694 92.4079 63.8997 92.4926 63.936C92.4926 63.3792 92.4442 62.9374 92.3473 62.6106C92.2505 62.2837 92.0992 62.0417 91.8934 61.8843C91.6998 61.727 91.4516 61.6241 91.149 61.5757C90.8585 61.5272 90.5196 61.503 90.1323 61.503C89.7328 61.503 89.3273 61.5212 88.9158 61.5575C88.5164 61.5817 88.1472 61.6301 87.8083 61.7027C87.4694 61.7633 87.2091 61.848 87.0275 61.9569V61.6846C87.0275 61.4304 87.1002 61.2549 87.2454 61.1581C87.4028 61.0491 87.5783 60.9765 87.772 60.9402C88.0019 60.8797 88.3348 60.8312 88.7706 60.7949C89.2184 60.7586 89.6844 60.7465 90.1686 60.7586C90.7859 60.7586 91.3124 60.7889 91.7482 60.8494C92.196 60.9099 92.5652 61.0431 92.8557 61.2488C93.1462 61.4425 93.3641 61.7391 93.5093 62.1385C93.6546 62.5379 93.7272 63.0826 93.7272 63.7726V67.5127C93.6546 67.7548 93.3338 67.9364 92.7649 68.0574C92.196 68.1664 91.2943 68.2208 90.0596 68.2208ZM90.0596 67.6035C90.6164 67.6035 91.0582 67.5854 91.3851 67.5491C91.724 67.5127 91.9782 67.4643 92.1476 67.4038C92.3292 67.3433 92.4442 67.2646 92.4926 67.1678V64.4625C92.3836 64.4262 92.1779 64.3899 91.8753 64.3536C91.5848 64.3172 91.2761 64.287 90.9493 64.2628C90.6225 64.2265 90.3441 64.2083 90.1141 64.2083C89.5936 64.2083 89.17 64.2386 88.8432 64.2991C88.5285 64.3596 88.2985 64.5109 88.1532 64.753C88.0201 64.9951 87.9535 65.3703 87.9535 65.8787C87.9535 66.2781 88.0019 66.6049 88.0988 66.8591C88.1956 67.1133 88.3893 67.3009 88.6798 67.422C88.9824 67.543 89.4423 67.6035 90.0596 67.6035ZM96.5305 68.0938C96.2521 68.0938 96.1129 67.9485 96.1129 67.658V61.3759C96.4639 61.2186 96.9239 61.0794 97.4928 60.9583C98.0738 60.8373 98.7395 60.7768 99.49 60.7768C100.192 60.7768 100.761 60.8252 101.197 60.922C101.632 61.0189 101.965 61.1641 102.195 61.3578C102.425 61.5514 102.577 61.8056 102.649 62.1203C102.734 62.4229 102.776 62.7921 102.776 63.2279V67.5491C102.776 67.6822 102.758 67.7911 102.722 67.8759C102.698 67.9606 102.643 68.0211 102.558 68.0574C102.486 68.0816 102.371 68.0938 102.213 68.0938H101.505V62.9737C101.505 62.4895 101.348 62.1324 101.033 61.9025C100.719 61.6725 100.204 61.5575 99.49 61.5575C99.26 61.5575 99.0058 61.5757 98.7274 61.612C98.4611 61.6483 98.2069 61.7027 97.9649 61.7754C97.7228 61.8359 97.5231 61.9206 97.3657 62.0296V68.0938H96.5305ZM108.304 68.2208C107.59 68.2208 107.009 68.1845 106.561 68.1119C106.113 68.0393 105.768 67.9182 105.526 67.7488C105.296 67.5672 105.133 67.3312 105.036 67.0407C104.951 66.7502 104.909 66.3931 104.909 65.9695C104.909 65.3522 104.981 64.8801 105.127 64.5533C105.272 64.2265 105.526 64.0025 105.889 63.8815C106.252 63.7605 106.736 63.6999 107.342 63.6999C107.644 63.6999 107.971 63.712 108.322 63.7362C108.685 63.7484 109.03 63.7665 109.357 63.7907C109.696 63.8028 109.986 63.821 110.228 63.8452C110.483 63.8694 110.652 63.8997 110.737 63.936C110.737 63.3792 110.688 62.9374 110.592 62.6106C110.495 62.2837 110.343 62.0417 110.138 61.8843C109.944 61.727 109.696 61.6241 109.393 61.5757C109.103 61.5272 108.764 61.503 108.376 61.503C107.977 61.503 107.572 61.5212 107.16 61.5575C106.761 61.5817 106.391 61.6301 106.052 61.7027C105.714 61.7633 105.453 61.848 105.272 61.9569V61.6846C105.272 61.4304 105.344 61.2549 105.49 61.1581C105.647 61.0491 105.822 60.9765 106.016 60.9402C106.246 60.8797 106.579 60.8312 107.015 60.7949C107.463 60.7586 107.929 60.7465 108.413 60.7586C109.03 60.7586 109.557 60.7889 109.992 60.8494C110.44 60.9099 110.809 61.0431 111.1 61.2488C111.39 61.4425 111.608 61.7391 111.754 62.1385C111.899 62.5379 111.971 63.0826 111.971 63.7726V67.5127C111.899 67.7548 111.578 67.9364 111.009 68.0574C110.44 68.1664 109.538 68.2208 108.304 68.2208ZM108.304 67.6035C108.861 67.6035 109.302 67.5854 109.629 67.5491C109.968 67.5127 110.222 67.4643 110.392 67.4038C110.573 67.3433 110.688 67.2646 110.737 67.1678V64.4625C110.628 64.4262 110.422 64.3899 110.119 64.3536C109.829 64.3172 109.52 64.287 109.194 64.2628C108.867 64.2265 108.588 64.2083 108.358 64.2083C107.838 64.2083 107.414 64.2386 107.087 64.2991C106.773 64.3596 106.543 64.5109 106.397 64.753C106.264 64.9951 106.198 65.3703 106.198 65.8787C106.198 66.2781 106.246 66.6049 106.343 66.8591C106.44 67.1133 106.633 67.3009 106.924 67.422C107.227 67.543 107.687 67.6035 108.304 67.6035ZM117.444 70.1636C117.177 70.1636 116.875 70.1515 116.536 70.1273C116.209 70.1151 115.894 70.0788 115.592 70.0183C115.289 69.9699 115.035 69.8912 114.829 69.7823C114.636 69.6854 114.539 69.5584 114.539 69.401C114.539 69.3526 114.539 69.2921 114.539 69.2194C114.539 69.1468 114.539 69.0984 114.539 69.0742C114.708 69.1589 114.95 69.2376 115.265 69.3102C115.592 69.3828 115.937 69.4373 116.3 69.4736C116.663 69.5099 116.978 69.5281 117.244 69.5281C117.946 69.5281 118.491 69.4252 118.878 69.2194C119.265 69.0137 119.526 68.6687 119.659 68.1845C119.804 67.7125 119.858 67.0831 119.822 66.2963H120.095C119.973 66.7078 119.768 67.0225 119.477 67.2404C119.187 67.4583 118.842 67.6096 118.442 67.6943C118.043 67.779 117.613 67.8214 117.153 67.8214C116.451 67.8214 115.87 67.7427 115.41 67.5854C114.95 67.4159 114.611 67.0891 114.393 66.6049C114.176 66.1087 114.067 65.3824 114.067 64.4262C114.067 63.6515 114.133 63.0282 114.266 62.5561C114.412 62.0719 114.636 61.7027 114.938 61.4486C115.241 61.1944 115.634 61.0249 116.118 60.9402C116.615 60.8433 117.214 60.7949 117.916 60.7949C118.182 60.7949 118.479 60.807 118.805 60.8312C119.132 60.8555 119.459 60.8797 119.786 60.9039C120.113 60.916 120.397 60.9341 120.639 60.9583C120.893 60.9825 121.063 61.0068 121.148 61.031C121.135 61.0673 121.123 61.1702 121.111 61.3396C121.099 61.497 121.093 61.6846 121.093 61.9025C121.093 62.1082 121.093 62.308 121.093 62.5016V66.8047C121.093 67.6519 120.966 68.3177 120.712 68.8018C120.47 69.2981 120.082 69.6491 119.55 69.8549C119.017 70.0607 118.315 70.1636 117.444 70.1636ZM117.444 67.0588C117.892 67.0588 118.291 67.0104 118.642 66.9136C118.993 66.8047 119.277 66.6352 119.495 66.4052C119.713 66.1631 119.822 65.8424 119.822 65.4429V61.7027C119.713 61.6785 119.465 61.6483 119.078 61.612C118.69 61.5635 118.243 61.5393 117.734 61.5393C117.141 61.5393 116.675 61.618 116.336 61.7754C115.997 61.9206 115.749 62.193 115.592 62.5924C115.447 62.9797 115.374 63.5426 115.374 64.2809C115.374 65.0314 115.44 65.6124 115.574 66.0239C115.707 66.4234 115.925 66.6957 116.227 66.841C116.53 66.9862 116.935 67.0588 117.444 67.0588ZM127.017 68.2027C126.315 68.2027 125.722 68.1543 125.238 68.0574C124.766 67.9606 124.384 67.779 124.094 67.5127C123.816 67.2465 123.61 66.8773 123.477 66.4052C123.356 65.9211 123.295 65.2977 123.295 64.5351C123.295 63.6636 123.404 62.9495 123.622 62.3927C123.84 61.8359 124.227 61.4243 124.784 61.1581C125.341 60.8918 126.121 60.7586 127.126 60.7586C127.901 60.7586 128.518 60.8615 128.978 61.0673C129.45 61.273 129.789 61.5878 129.995 62.0114C130.213 62.435 130.322 62.9858 130.322 63.6636V64.6985H125.202C125.202 64.5533 125.238 64.4322 125.31 64.3354C125.383 64.2265 125.516 64.172 125.71 64.172H129.178L129.16 63.6455C129.147 62.895 128.984 62.3503 128.669 62.0114C128.367 61.6725 127.834 61.503 127.072 61.503C126.43 61.503 125.928 61.5999 125.565 61.7935C125.202 61.9872 124.947 62.3019 124.802 62.7377C124.657 63.1734 124.584 63.7665 124.584 64.517C124.584 65.3158 124.663 65.9271 124.82 66.3507C124.99 66.7623 125.268 67.0467 125.655 67.2041C126.043 67.3493 126.569 67.422 127.235 67.422C127.465 67.422 127.725 67.4159 128.016 67.4038C128.318 67.3796 128.621 67.3554 128.924 67.3312C129.226 67.307 129.492 67.2767 129.722 67.2404C129.965 67.192 130.134 67.1436 130.231 67.0952V67.313C130.231 67.4341 130.194 67.5491 130.122 67.658C130.061 67.7669 129.928 67.8577 129.722 67.9303C129.456 68.0393 129.093 68.1119 128.633 68.1482C128.185 68.1845 127.647 68.2027 127.017 68.2027ZM140.501 68.2208C139.787 68.2208 139.206 68.1845 138.758 68.1119C138.311 68.0393 137.966 67.9182 137.724 67.7488C137.494 67.5672 137.33 67.3312 137.233 67.0407C137.149 66.7502 137.106 66.3931 137.106 65.9695C137.106 65.3522 137.179 64.8801 137.324 64.5533C137.469 64.2265 137.724 64.0025 138.087 63.8815C138.45 63.7605 138.934 63.6999 139.539 63.6999C139.842 63.6999 140.169 63.712 140.52 63.7362C140.883 63.7484 141.228 63.7665 141.555 63.7907C141.893 63.8028 142.184 63.821 142.426 63.8452C142.68 63.8694 142.85 63.8997 142.934 63.936C142.934 63.3792 142.886 62.9374 142.789 62.6106C142.692 62.2837 142.541 62.0417 142.335 61.8843C142.142 61.727 141.893 61.6241 141.591 61.5757C141.3 61.5272 140.961 61.503 140.574 61.503C140.175 61.503 139.769 61.5212 139.358 61.5575C138.958 61.5817 138.589 61.6301 138.25 61.7027C137.911 61.7633 137.651 61.848 137.469 61.9569V61.6846C137.469 61.4304 137.542 61.2549 137.687 61.1581C137.845 61.0491 138.02 60.9765 138.214 60.9402C138.444 60.8797 138.777 60.8312 139.212 60.7949C139.66 60.7586 140.126 60.7465 140.61 60.7586C141.228 60.7586 141.754 60.7889 142.19 60.8494C142.638 60.9099 143.007 61.0431 143.298 61.2488C143.588 61.4425 143.806 61.7391 143.951 62.1385C144.096 62.5379 144.169 63.0826 144.169 63.7726V67.5127C144.096 67.7548 143.776 67.9364 143.207 68.0574C142.638 68.1664 141.736 68.2208 140.501 68.2208ZM140.501 67.6035C141.058 67.6035 141.5 67.5854 141.827 67.5491C142.166 67.5127 142.42 67.4643 142.589 67.4038C142.771 67.3433 142.886 67.2646 142.934 67.1678V64.4625C142.825 64.4262 142.62 64.3899 142.317 64.3536C142.027 64.3172 141.718 64.287 141.391 64.2628C141.064 64.2265 140.786 64.2083 140.556 64.2083C140.035 64.2083 139.612 64.2386 139.285 64.2991C138.97 64.3596 138.74 64.5109 138.595 64.753C138.462 64.9951 138.395 65.3703 138.395 65.8787C138.395 66.2781 138.444 66.6049 138.541 66.8591C138.637 67.1133 138.831 67.3009 139.122 67.422C139.424 67.543 139.884 67.6035 140.501 67.6035ZM150.204 68.2027C149.26 68.2027 148.497 68.1059 147.916 67.9122C147.335 67.7185 146.912 67.3614 146.645 66.841C146.391 66.3084 146.264 65.5337 146.264 64.517C146.264 63.4881 146.391 62.7013 146.645 62.1567C146.912 61.612 147.335 61.2428 147.916 61.0491C148.497 60.8433 149.26 60.7405 150.204 60.7405C150.519 60.7405 150.809 60.7526 151.076 60.7768C151.354 60.801 151.669 60.8433 152.02 60.9039C152.213 60.9281 152.371 60.9765 152.492 61.0491C152.613 61.1096 152.698 61.2004 152.746 61.3215C152.794 61.4304 152.819 61.5938 152.819 61.8117C152.685 61.7391 152.474 61.6785 152.183 61.6301C151.905 61.5817 151.608 61.5454 151.293 61.5212C150.979 61.4849 150.7 61.4667 150.458 61.4667C149.732 61.4667 149.157 61.5635 148.733 61.7572C148.31 61.9388 148.007 62.2474 147.826 62.6832C147.656 63.1068 147.571 63.6939 147.571 64.4443C147.571 65.1948 147.656 65.794 147.826 66.2418C147.995 66.6776 148.292 66.9862 148.715 67.1678C149.139 67.3493 149.72 67.4401 150.458 67.4401C150.797 67.4401 151.118 67.428 151.421 67.4038C151.723 67.3675 151.996 67.3251 152.238 67.2767C152.492 67.2162 152.685 67.1496 152.819 67.077V67.4764C152.819 67.658 152.704 67.8032 152.474 67.9122C152.256 68.009 151.953 68.0816 151.566 68.1301C151.179 68.1785 150.725 68.2027 150.204 68.2027ZM158.457 68.2027C157.513 68.2027 156.751 68.1059 156.17 67.9122C155.589 67.7185 155.165 67.3614 154.899 66.841C154.645 66.3084 154.518 65.5337 154.518 64.517C154.518 63.4881 154.645 62.7013 154.899 62.1567C155.165 61.612 155.589 61.2428 156.17 61.0491C156.751 60.8433 157.513 60.7405 158.457 60.7405C158.772 60.7405 159.063 60.7526 159.329 60.7768C159.607 60.801 159.922 60.8433 160.273 60.9039C160.467 60.9281 160.624 60.9765 160.745 61.0491C160.866 61.1096 160.951 61.2004 160.999 61.3215C161.048 61.4304 161.072 61.5938 161.072 61.8117C160.939 61.7391 160.727 61.6785 160.436 61.6301C160.158 61.5817 159.862 61.5454 159.547 61.5212C159.232 61.4849 158.954 61.4667 158.712 61.4667C157.985 61.4667 157.41 61.5635 156.987 61.7572C156.563 61.9388 156.261 62.2474 156.079 62.6832C155.909 63.1068 155.825 63.6939 155.825 64.4443C155.825 65.1948 155.909 65.794 156.079 66.2418C156.248 66.6776 156.545 66.9862 156.969 67.1678C157.392 67.3493 157.973 67.4401 158.712 67.4401C159.051 67.4401 159.371 67.428 159.674 67.4038C159.976 67.3675 160.249 67.3251 160.491 67.2767C160.745 67.2162 160.939 67.1496 161.072 67.077V67.4764C161.072 67.658 160.957 67.8032 160.727 67.9122C160.509 68.009 160.206 68.0816 159.819 68.1301C159.432 68.1785 158.978 68.2027 158.457 68.2027ZM166.493 68.2027C165.791 68.2027 165.198 68.1543 164.714 68.0574C164.241 67.9606 163.86 67.779 163.57 67.5127C163.291 67.2465 163.086 66.8773 162.952 66.4052C162.831 65.9211 162.771 65.2977 162.771 64.5351C162.771 63.6636 162.88 62.9495 163.098 62.3927C163.315 61.8359 163.703 61.4243 164.26 61.1581C164.816 60.8918 165.597 60.7586 166.602 60.7586C167.376 60.7586 167.994 60.8615 168.454 61.0673C168.926 61.273 169.265 61.5878 169.47 62.0114C169.688 62.435 169.797 62.9858 169.797 63.6636V64.6985H164.677C164.677 64.5533 164.714 64.4322 164.786 64.3354C164.859 64.2265 164.992 64.172 165.186 64.172H168.653L168.635 63.6455C168.623 62.895 168.46 62.3503 168.145 62.0114C167.842 61.6725 167.31 61.503 166.547 61.503C165.906 61.503 165.403 61.5999 165.04 61.7935C164.677 61.9872 164.423 62.3019 164.278 62.7377C164.133 63.1734 164.06 63.7665 164.06 64.517C164.06 65.3158 164.139 65.9271 164.296 66.3507C164.465 66.7623 164.744 67.0467 165.131 67.2041C165.518 67.3493 166.045 67.422 166.711 67.422C166.941 67.422 167.201 67.4159 167.491 67.4038C167.794 67.3796 168.097 67.3554 168.399 67.3312C168.702 67.307 168.968 67.2767 169.198 67.2404C169.44 67.192 169.61 67.1436 169.707 67.0952V67.313C169.707 67.4341 169.67 67.5491 169.598 67.658C169.537 67.7669 169.404 67.8577 169.198 67.9303C168.932 68.0393 168.569 68.1119 168.109 68.1482C167.661 68.1845 167.122 68.2027 166.493 68.2027ZM174.406 68.1664C174.2 68.1664 173.94 68.1603 173.625 68.1482C173.323 68.1361 173.008 68.1119 172.681 68.0756C172.367 68.0272 172.082 67.9606 171.828 67.8759C171.707 67.8275 171.61 67.779 171.537 67.7306C171.465 67.6822 171.41 67.5975 171.374 67.4764C171.35 67.3554 171.338 67.1738 171.338 66.9317C171.604 67.0649 171.919 67.1738 172.282 67.2586C172.645 67.3312 173.008 67.3796 173.371 67.4038C173.734 67.428 174.037 67.4401 174.279 67.4401C174.642 67.4401 174.993 67.428 175.332 67.4038C175.683 67.3675 175.998 67.3009 176.276 67.2041C176.555 67.0952 176.773 66.9378 176.93 66.732C177.099 66.5263 177.184 66.2539 177.184 65.915C177.184 65.4187 177.057 65.104 176.803 64.9709C176.549 64.8256 176.204 64.753 175.768 64.753H173.934C173.486 64.753 173.063 64.7288 172.663 64.6804C172.276 64.6199 171.955 64.4685 171.701 64.2265C171.459 63.9723 171.338 63.5486 171.338 62.9555C171.338 62.314 171.495 61.8359 171.81 61.5212C172.125 61.2065 172.566 61.0007 173.135 60.9039C173.716 60.807 174.388 60.7586 175.151 60.7586C175.429 60.7586 175.762 60.7647 176.149 60.7768C176.536 60.7889 176.906 60.8252 177.257 60.8857C177.499 60.922 177.698 60.9704 177.856 61.031C178.025 61.0794 178.146 61.152 178.219 61.2488C178.304 61.3457 178.346 61.4849 178.346 61.6664V62.0296C178.237 61.9085 178.056 61.8117 177.801 61.7391C177.547 61.6664 177.251 61.612 176.912 61.5757C176.585 61.5393 176.246 61.5212 175.895 61.5212C175.544 61.5091 175.217 61.503 174.915 61.503C174.527 61.503 174.152 61.5272 173.789 61.5757C173.426 61.6241 173.129 61.7451 172.899 61.9388C172.681 62.1203 172.572 62.435 172.572 62.8829C172.572 63.2218 172.645 63.47 172.79 63.6273C172.935 63.7847 173.129 63.8875 173.371 63.936C173.625 63.9723 173.91 63.9904 174.225 63.9904H176.095C176.555 63.9904 176.96 64.0328 177.311 64.1175C177.674 64.1902 177.953 64.3657 178.146 64.6441C178.352 64.9104 178.455 65.334 178.455 65.915C178.455 66.5565 178.279 67.0407 177.928 67.3675C177.577 67.6943 177.093 67.9122 176.476 68.0211C175.871 68.118 175.181 68.1664 174.406 68.1664ZM182.943 68.1664C182.737 68.1664 182.477 68.1603 182.162 68.1482C181.86 68.1361 181.545 68.1119 181.218 68.0756C180.904 68.0272 180.619 67.9606 180.365 67.8759C180.244 67.8275 180.147 67.779 180.074 67.7306C180.002 67.6822 179.947 67.5975 179.911 67.4764C179.887 67.3554 179.875 67.1738 179.875 66.9317C180.141 67.0649 180.456 67.1738 180.819 67.2586C181.182 67.3312 181.545 67.3796 181.908 67.4038C182.271 67.428 182.574 67.4401 182.816 67.4401C183.179 67.4401 183.53 67.428 183.869 67.4038C184.22 67.3675 184.535 67.3009 184.813 67.2041C185.092 67.0952 185.309 66.9378 185.467 66.732C185.636 66.5263 185.721 66.2539 185.721 65.915C185.721 65.4187 185.594 65.104 185.34 64.9709C185.086 64.8256 184.741 64.753 184.305 64.753H182.471C182.023 64.753 181.6 64.7288 181.2 64.6804C180.813 64.6199 180.492 64.4685 180.238 64.2265C179.996 63.9723 179.875 63.5486 179.875 62.9555C179.875 62.314 180.032 61.8359 180.347 61.5212C180.661 61.2065 181.103 61.0007 181.672 60.9039C182.253 60.807 182.925 60.7586 183.688 60.7586C183.966 60.7586 184.299 60.7647 184.686 60.7768C185.073 60.7889 185.443 60.8252 185.794 60.8857C186.036 60.922 186.235 60.9704 186.393 61.031C186.562 61.0794 186.683 61.152 186.756 61.2488C186.841 61.3457 186.883 61.4849 186.883 61.6664V62.0296C186.774 61.9085 186.593 61.8117 186.338 61.7391C186.084 61.6664 185.788 61.612 185.449 61.5757C185.122 61.5393 184.783 61.5212 184.432 61.5212C184.081 61.5091 183.754 61.503 183.452 61.503C183.064 61.503 182.689 61.5272 182.326 61.5757C181.963 61.6241 181.666 61.7451 181.436 61.9388C181.218 62.1203 181.109 62.435 181.109 62.8829C181.109 63.2218 181.182 63.47 181.327 63.6273C181.472 63.7847 181.666 63.8875 181.908 63.936C182.162 63.9723 182.447 63.9904 182.762 63.9904H184.632C185.092 63.9904 185.497 64.0328 185.848 64.1175C186.211 64.1902 186.49 64.3657 186.683 64.6441C186.889 64.9104 186.992 65.334 186.992 65.915C186.992 66.5565 186.816 67.0407 186.465 67.3675C186.114 67.6943 185.63 67.9122 185.013 68.0211C184.408 68.118 183.718 68.1664 182.943 68.1664Z" fill="#1C274C" fill-opacity="0.5"/>
</g>
<defs>
<filter id="filter0_d_1739_1862" x="0.00075531" y="2.28882e-05" width="224.1" height="105.1" filterUnits="userSpaceOnUse" color-interpolation-filters="sRGB">
<feFlood flood-opacity="0" result="BackgroundImageFix"/>
<feColorMatrix in="SourceAlpha" type="matrix" values="0 0 0 0 0 0 0 0 0 0 0 0 0 0 0 0 0 0 127 0" result="hardAlpha"/>
<feOffset/>
<feGaussianBlur stdDeviation="14.525"/>
<feComposite in2="hardAlpha" operator="out"/>
<feColorMatrix type="matrix" values="0 0 0 0 0.74902 0 0 0 0 0.74902 0 0 0 0 0.74902 0 0 0 0.25 0"/>
<feBlend mode="normal" in2="BackgroundImageFix" result="effect1_dropShadow_1739_1862"/>
<feBlend mode="normal" in="SourceGraphic" in2="effect1_dropShadow_1739_1862" result="shape"/>
</filter>
<filter id="filter1_i_1739_1862" x="45.2168" y="55.5112" width="11.4824" height="17.2913" filterUnits="userSpaceOnUse" color-interpolation-filters="sRGB">
<feFlood flood-opacity="0" result="BackgroundImageFix"/>
<feBlend mode="normal" in="SourceGraphic" in2="BackgroundImageFix" result="shape"/>
<feColorMatrix in="SourceAlpha" type="matrix" values="0 0 0 0 0 0 0 0 0 0 0 0 0 0 0 0 0 0 127 0" result="hardAlpha"/>
<feOffset dy="6.48438"/>
<feGaussianBlur stdDeviation="6.48438"/>
<feComposite in2="hardAlpha" operator="arithmetic" k2="-1" k3="1"/>
<feColorMatrix type="matrix" values="0 0 0 0 0 0 0 0 0 0 0 0 0 0 0 0 0 0 0.1 0"/>
<feBlend mode="normal" in2="shape" result="effect1_innerShadow_1739_1862"/>
</filter>
<linearGradient id="paint0_linear_1739_1862" x1="50.6864" y1="78.8681" x2="50.6864" y2="52.8115" gradientUnits="userSpaceOnUse">
<stop stop-color="#FFE59A"/>
<stop offset="1" stop-color="#FFFFD5"/>
</linearGradient>
</defs>
</svg>
