<svg width="22" height="27" viewBox="0 0 22 27" fill="none" xmlns="http://www.w3.org/2000/svg">
<mask id="mask0_1892_3628" style="mask-type:alpha" maskUnits="userSpaceOnUse" x="0" y="0" width="22" height="3">
<rect width="21.5508" height="2.06669" rx="1.03334" fill="#F3B811"/>
</mask>
<g mask="url(#mask0_1892_3628)">
<path d="M0 0H7.97378V7.75009V11.3668H7.80879C4.80096 11.3668 1.9453 10.0442 0 7.75009V0Z" fill="#E52021"/>
<rect x="7.97559" width="5.60319" height="11.3668" fill="#F7F7F7"/>
<path d="M13.5732 0H21.547V7.75009C19.6017 10.0442 16.7461 11.3668 13.7382 11.3668H13.5732V7.75009V0Z" fill="#268A42"/>
<rect width="21.5508" height="2.06669" rx="1.03334" fill="black" fill-opacity="0.05"/>
</g>
<path d="M7.96875 9.77466L7.95215 9.77075C7.04018 9.5367 6.06859 9.9843 5.69141 10.8118L5.44629 11.3499C5.41019 11.4292 5.35394 11.499 5.2832 11.553C5.21246 11.6069 5.12896 11.6434 5.04004 11.6594L4.43652 11.7688C4.26915 11.799 4.11001 11.8496 3.96191 11.9182C3.49384 11.5064 3.08417 11.0209 2.75586 10.47L2.36621 9.81567V2.06567H7.96875V9.77466Z" fill="#E52021"/>
<path d="M13.5762 9.77466L13.002 9.9231C12.9145 9.94557 12.8226 9.94724 12.7344 9.92798C12.6463 9.90874 12.5646 9.86912 12.4961 9.81274L12.0303 9.42993C11.3149 8.8407 10.2359 8.84066 9.52051 9.42993L9.05566 9.81274C8.98723 9.86913 8.90545 9.90871 8.81738 9.92798C8.7292 9.94722 8.63716 9.94553 8.5498 9.9231L7.97266 9.77466V2.06567H13.5762V9.77466Z" fill="#F7F7F7"/>
<path d="M19.1787 9.81567L18.7881 10.47C18.4597 11.021 18.0502 11.5064 17.582 11.9182C17.4337 11.8494 17.2741 11.7991 17.1064 11.7688L16.5029 11.6594C16.414 11.6434 16.3305 11.6069 16.2598 11.553C16.189 11.499 16.1328 11.4292 16.0967 11.3499L15.8516 10.8118C15.4744 9.9843 14.5027 9.53665 13.5908 9.77075L13.5752 9.77466V2.06567H19.1787V9.81567Z" fill="#268A42"/>
<path d="M10.8816 1.17603L11.1116 3.51683L12.02 1.33299L11.553 3.64113L13.0662 1.79118L11.94 3.87965L13.9354 2.51346L12.2413 4.21307L14.5572 3.44132L12.4324 4.61438L14.8812 4.4996L12.4979 5.05107L14.8812 5.60255L12.4324 5.48776L14.5572 6.66082L12.2413 5.88908L13.9354 7.58869L11.94 6.2225L13.0662 8.31097L11.553 6.46102L12.02 8.76915L11.1116 6.58531L10.8816 8.92612L10.6516 6.58531L9.74317 8.76915L10.2101 6.46102L8.69698 8.31097L9.82313 6.2225L7.82778 7.58869L9.52186 5.88908L7.20598 6.66082L9.33075 5.48776L6.88195 5.60255L9.26528 5.05107L6.88195 4.4996L9.33075 4.61438L7.20598 3.44132L9.52186 4.21307L7.82778 2.51346L9.82313 3.87965L8.69698 1.79118L10.2101 3.64113L9.74317 1.33299L10.6516 3.51683L10.8816 1.17603Z" fill="#F7B70F"/>
<path fill-rule="evenodd" clip-rule="evenodd" d="M18.675 18.8771C18.6372 18.8072 18.6175 18.7294 18.6175 18.6504C18.6175 18.5714 18.6372 18.4936 18.6749 18.4237L18.9307 17.9502C19.3242 17.2216 19.1104 16.3033 18.4333 15.8142L17.9932 15.4964C17.9283 15.4495 17.876 15.3878 17.8411 15.3166C17.8061 15.2454 17.7894 15.167 17.7925 15.088L17.8133 14.5525C17.8453 13.7288 17.2461 12.9924 16.4195 12.8397L15.8823 12.7404C15.803 12.7258 15.7287 12.6924 15.6656 12.6431C15.6026 12.5939 15.5528 12.5302 15.5207 12.4578L15.3024 11.9665C14.9665 11.2108 14.1007 10.802 13.2883 11.0159L12.7603 11.155C12.6824 11.1755 12.6006 11.177 12.522 11.1594C12.4434 11.1419 12.3704 11.1057 12.3094 11.0541L11.8952 10.7043C11.258 10.1663 10.297 10.1663 9.65974 10.7043L9.24553 11.0541C9.18449 11.1057 9.11148 11.1419 9.03289 11.1594C8.9543 11.177 8.87251 11.1755 8.79467 11.155L8.26666 11.0159C7.45421 10.8021 6.58845 11.2108 6.25256 11.9665L6.03421 12.4578C6.00205 12.5303 5.95229 12.5939 5.88926 12.6431C5.82623 12.6924 5.75185 12.7258 5.67263 12.7404L5.13536 12.8397C4.30878 12.9924 3.70956 13.7288 3.74155 14.5525L3.76234 15.088C3.76545 15.1669 3.74879 15.2454 3.71381 15.3166C3.67883 15.3878 3.62661 15.4495 3.56169 15.4964L3.12159 15.8143C2.44449 16.3034 2.23065 17.2217 2.62415 17.9502L2.87993 18.4238C2.91769 18.4936 2.93743 18.5714 2.93743 18.6504C2.93743 18.7294 2.91769 18.8073 2.87993 18.8771L2.62415 19.3506C2.23065 20.0792 2.44449 20.9974 3.12159 21.4866L3.56165 21.8045C3.62658 21.8513 3.67881 21.913 3.71379 21.9842C3.74877 22.0554 3.76542 22.1339 3.7623 22.2129L3.74151 22.7483C3.70952 23.5721 4.30874 24.3085 5.13532 24.4612L5.41703 24.5132L5.41709 24.5131L5.67251 24.5603C5.75174 24.575 5.82613 24.6084 5.88916 24.6576C5.9522 24.7069 6.00197 24.7705 6.03413 24.843L6.25244 25.3342C6.58833 26.09 7.45413 26.4987 8.26654 26.2848L8.79455 26.1458C8.8724 26.1253 8.95419 26.1238 9.03279 26.1413C9.11138 26.1589 9.1844 26.1951 9.24545 26.2467L9.65962 26.5964C9.69402 26.6253 9.7296 26.6529 9.76628 26.679L9.76619 26.6791L9.76635 26.6791C10.0652 26.8929 10.4212 27.0001 10.7774 27.0001C11.1282 27.0001 11.4788 26.8964 11.7748 26.6891L11.7748 26.689C11.8163 26.6599 11.8565 26.6291 11.8951 26.5964L12.3093 26.2467C12.3704 26.1951 12.4434 26.1589 12.522 26.1413C12.6006 26.1237 12.6823 26.1253 12.7602 26.1458L13.2882 26.2848C13.4335 26.323 13.5804 26.3414 13.7258 26.3414C14.3932 26.3413 15.0265 25.9548 15.3023 25.3342L15.5206 24.843C15.5528 24.7705 15.6025 24.7069 15.6656 24.6576C15.7286 24.6083 15.803 24.5749 15.8822 24.5603L16.1201 24.5164L16.1201 24.5165L16.1201 24.5165L16.4196 24.4611C17.2461 24.3084 17.8454 23.572 17.8134 22.7482L17.7925 22.2129C17.7894 22.1339 17.8061 22.0554 17.8411 21.9842C17.8761 21.913 17.9283 21.8513 17.9932 21.8045L18.4333 21.4866C19.1104 20.9975 19.3243 20.0792 18.9307 19.3506L18.675 18.8771Z" fill="#CEDAD9"/>
<ellipse cx="10.7758" cy="18.6927" rx="5.45944" ry="5.35045" fill="white"/>
</svg>
