<svg width="100" height="100" viewBox="0 0 100 100" fill="none" xmlns="http://www.w3.org/2000/svg">
<path d="M92.5321 76.3656C89.6585 81.2371 85.9256 85.6233 81.4737 89.1045C80.9792 89.0698 80.8121 88.6333 80.5623 88.3225C79.2423 86.6207 77.1653 85.6435 75.0057 85.9169C74.3879 85.9317 72.9894 86.5509 72.5903 86.0031C72.4932 85.7142 72.7 85.5569 72.8645 85.3867C73.4899 84.6957 74.3035 84.2186 74.9078 83.5116C75.4606 82.9127 75.8927 82.2213 76.3847 81.5759C76.9923 80.785 75.8285 80.0908 75.3171 79.6157C74.3069 79.0079 75.5087 78.1751 75.9475 77.6461C77.2624 76.22 78.7866 74.9968 80.0956 73.5719C80.7083 72.9149 79.8685 72.1407 79.1166 72.2617C78.822 72.2734 78.5562 72.1172 78.2617 72.12C78.0253 72.1192 77.7899 72.1157 77.5536 72.1219C77.0793 72.0641 76.6193 71.929 76.1332 71.9915C75.8251 72.0388 75.5466 71.8678 75.2428 71.8549C74.5111 71.9096 73.825 71.6776 73.0941 71.7124C71.6037 71.4536 70.5369 72.9089 69.5166 73.7456C68.2582 74.8208 67.0573 75.9627 65.782 77.0192C64.587 78.4816 64.0621 77.2659 64.0494 75.9334C63.1531 67.8521 62.1758 55.0948 53.2721 52.0552C52.845 51.8202 52.7708 52.138 53.018 52.5182C53.6746 53.1683 58.4877 68.0543 56.123 65.6861C54.3566 60.4169 52.4847 55.073 49.3249 50.4671C49.2363 49.696 50.2355 49.8952 50.5368 50.2875C51.1774 50.8832 51.801 51.0577 52.6104 50.5646C53.9633 49.7528 54.8022 52.008 56.1415 50.7476C56.431 50.5002 56.8167 50.44 57.1838 50.3578C57.6699 50.2502 58.0202 50.0172 58.102 49.4613C58.3223 48.1064 59.73 48.8436 60.644 48.0945C61.8813 47.3751 63.2519 48.1615 63.4544 46.1973C63.4856 45.9829 63.4316 45.7499 63.5945 45.5643C64.4959 45.2271 65.171 47.9022 68.0211 46.2397C85.7619 38.0262 101.998 60.89 92.5321 76.3656Z" fill="#64242A"/>
<path d="M5.74023 26.8464C22.5825 -9.24913 77.5661 -8.71263 94.5134 27.0439C94.5985 27.2094 94.9158 27.4345 94.5188 27.6311C94.073 27.5582 93.9587 27.1551 93.7824 26.8419C92.2981 24.1372 84.7527 12.6733 81.7886 12.958C76.8227 13.0114 72.3291 14.459 68.2954 17.3647C67.9064 17.6459 67.5519 18.0018 67.038 18.0605C66.5072 17.9724 66.3051 17.4244 65.863 17.2126C65.6459 17.0667 65.3889 17 65.1602 16.8763C64.8793 16.7357 64.5701 16.8247 64.2803 16.7624C63.5103 16.5097 63.4695 15.604 62.8244 15.2286C62.765 15.1058 62.7101 15.1307 62.6543 15.2321C62.353 15.3958 61.9781 15.2997 61.7114 15.1111C60.7101 14.2445 61.1921 12.7205 59.2674 12.0656C57.9586 11.7169 57.2125 12.5078 56.0898 12.3797C55.0477 12.0692 54.4105 10.5398 53.1948 11.0656C52.7409 11.0941 52.2798 11.0656 51.824 11.0674C50.6673 10.8894 50.1077 9.50328 48.8634 9.67499C48.739 9.63051 48.6201 9.6741 48.5003 9.69991C48.2313 9.75328 47.9454 9.70613 47.7052 9.86628C46.574 10.5852 46.0852 12.5381 44.4836 12.2454C43.1554 11.7676 42.6892 13.8602 41.4356 13.8646C41.044 13.8566 40.6501 13.8851 40.2609 13.8406C38.5625 13.3184 36.9694 15.1707 36.976 16.782C36.9679 17.7055 36.3994 18.5623 35.472 18.7652C35.056 18.7536 34.6567 19.0107 34.2382 18.8675C33.1884 18.4413 31.8718 17.8701 30.8756 18.7038C28.3055 20.3586 31.8341 22.5046 29.2048 23.6995C28.524 23.9949 27.9232 24.3881 27.536 25.0483C27.151 25.7173 27.2901 26.5092 27.7377 27.0617C29.9206 29.8038 25.5739 30.5467 27.6211 32.7505C29.071 34.3618 26.9196 34.7176 27.6693 36.256C28.1359 37.2177 29.1897 38.135 28.1845 39.1422C25.3861 41.7259 29.162 41.6485 28.6231 43.7713C28.4489 44.589 28.5998 44.8274 29.346 45.25C29.7476 45.4573 30.1874 45.3577 30.6085 45.4093C30.9849 45.5187 31.1575 45.8248 31.3201 46.1433C31.5868 46.6504 30.96 46.9764 30.5844 47.14C28.4613 48.1664 26.4017 49.3095 24.3592 50.4866C24.064 50.6568 23.7611 50.905 23.3898 50.6329C23.0837 50.2499 23.0923 49.7627 22.9648 49.3216C22.7385 48.2456 21.8224 46.8894 21.9877 45.8461C28.2133 35.8992 18.3027 22.7724 6.8713 26.7432C6.50975 26.8571 6.14387 27.1124 5.74023 26.8464Z" fill="#F7F7F4"/>
<path d="M66.9565 18.0116C69.7477 15.3259 80.5367 10.8273 83.7731 13.3931C94.861 24.0677 101.633 39.5197 99.6596 55.0477C99.2346 55.1316 99.0847 54.7862 98.9021 54.5297C94.7954 48.6164 87.8386 45.7845 80.8423 45.6011C76.2322 44.4036 71.2114 44.614 66.9927 46.982C66.3606 47.3276 65.8674 47.331 65.3295 46.8451C60.6588 43.7131 66.938 45.8631 66.2066 42.6821C66.1813 39.9642 70.8385 41.3383 68.8916 37.5489C67.6855 35.191 72.0691 34.2267 69.9875 31.9306C68.778 30.8091 68.698 30.2649 69.4337 28.7885C70.2434 26.8379 67.3681 26.8954 68.209 24.4776C68.8293 22.1535 65.2201 22.7603 66.6114 19.788C66.7798 19.417 66.8303 19.0274 66.805 18.6218C66.7916 18.4063 66.7394 18.1722 66.9565 18.0116Z" fill="#F47224"/>
<path d="M22.133 45.8776C22.0658 46.2296 22.2458 46.5248 22.3609 46.8301C22.8283 48.0696 23.3081 49.3047 23.5002 50.6275C23.6087 50.9271 23.4029 51.0993 23.2097 51.228C16.5439 55.277 17.3904 66.5481 14.0324 63.9334C10.29 62.2486 6.37674 61.6449 2.3026 62.0347C2.00964 62.0631 1.72849 62.0524 1.49874 61.8323C-0.865589 52.5274 -0.407964 42.4107 2.69752 33.3399C3.188 32.9545 3.75947 33.0826 4.28909 33.1456C11.9771 33.9411 19.0041 38.7534 22.133 45.8776Z" fill="#F1463A"/>
<path d="M35.1341 97.8809C31.8103 97.036 28.5768 95.7508 25.6101 94.0252C24.8042 88.6509 30.4153 86.0465 34.9085 85.6995C37.8356 85.2852 38.6492 83.0053 40.7523 81.485C42.6842 80.2736 44.8522 79.5655 46.9266 78.6481C47.9421 78.2074 48.9868 78.4885 49.5776 79.2861C49.6249 81.5647 50.7686 83.5089 51.7538 85.477C51.8633 85.8525 52.168 86.0949 52.382 86.3991C52.8656 87.1557 53.1109 88.04 53.645 88.7708C53.8876 89.436 53.9718 90.134 54.0532 90.829C54.1 91.2283 54.0703 91.6297 53.6434 91.853C53.1736 91.9854 52.7341 91.7417 52.2747 91.739C51.4386 91.7343 50.5991 91.6809 49.7701 91.8476C48.1677 92.17 46.5614 91.9248 44.9617 91.8495C40.9833 91.5552 38.7532 95.1925 35.9994 97.4283C35.748 97.6634 35.4658 97.8133 35.1341 97.8809Z" fill="#F47224"/>
<path d="M29.1931 87.5259C27.241 88.8006 25.7468 90.844 25.7451 93.2645C25.7402 93.5233 25.7975 93.7977 25.6099 94.0258C24.819 93.6388 24.0585 93.1969 23.3242 92.7109C23.1078 92.3919 23.1307 92.0522 23.2065 91.6935C23.7227 88.8681 25.6312 88.0947 24.2624 87.5232C21.6288 86.0072 18.5041 85.5637 15.5202 86.0127C15.2546 86.067 14.9953 86.0439 14.7507 85.9147C12.8314 84.1056 11.1711 82.0774 9.70515 79.8854C9.58152 79.5368 9.73857 79.2319 9.8646 78.9282C13.0523 71.3312 15.4082 63.4863 18.7883 55.9737C21.2075 51.0302 26.8654 48.5727 31.5868 46.5596C31.6342 46.8951 31.4025 47.0905 31.2073 47.2947C28.7706 49.8414 26.8201 52.7083 25.4012 55.9507C24.7786 57.3716 23.9751 58.7268 22.839 59.7952C19.1262 63.2422 20.5506 68.7484 18.6274 73.0788C17.4869 76.5522 17.0429 80.8931 20.375 83.2994C22.4307 84.7681 25.846 87.0711 28.3803 85.8745C29.6919 85.0277 29.5071 86.7689 29.1931 87.5259Z" fill="#D14820"/>
<path d="M35.1338 97.8813C38.8604 94.6824 41.3228 90.5359 46.8962 91.713C49.1238 91.9918 51.3823 90.9658 53.5756 91.7528C53.6267 92.2025 53.254 92.356 52.9842 92.5528C51.6649 93.5171 50.3644 94.5075 49.0403 95.4655C48.9522 95.5296 48.8694 95.6046 48.7598 95.6338C52.2704 94.5056 55.6108 92.6277 59.1443 91.5967C61.3887 90.9982 61.3759 91.9906 62.7827 91.9991C65.1011 92.0378 73.4619 91.1571 74.0977 93.9867C62.3548 100.519 47.9504 101.588 35.1338 97.8813Z" fill="#D14820"/>
<path d="M22.1336 45.8762C21.5581 45.4778 21.3785 44.8046 21.0515 44.244C17.3611 37.7129 10.1937 33.3816 2.69824 33.339C3.17244 31.4754 4.06682 29.762 4.79396 27.9921C4.99496 27.5062 5.2928 27.1176 5.74118 26.8456C17.3152 21.8301 29.0794 35.1565 22.1336 45.8762Z" fill="#F47224"/>
<path d="M15.3936 64.2292C14.1299 69.5012 11.8029 74.5825 9.83153 79.6527C9.58111 80.4395 7.38617 76.3201 7.04709 75.8659C4.52391 71.4758 2.52896 66.8044 1.49902 61.832C6.30284 61.2181 11.0626 62.1064 15.3936 64.2292Z" fill="#64242A"/>
<path d="M81.2607 45.6844C87.9394 44.9417 95.497 49.0967 99.2492 54.6246C100.374 60.1308 96.3853 69.2943 93.7156 74.4153C93.1677 75.5498 93.1852 74.6753 93.518 74.0343C97.8564 63.1143 92.292 49.7841 81.2607 45.6844Z" fill="#F1463A"/>
<path d="M74.0967 93.9851C71.6712 91.3148 66.5422 92.4008 63.3002 92.2798C62.5405 92.3052 61.8225 92.2392 61.1547 91.7968C60.7821 91.5501 60.3268 91.565 59.8752 91.6657C58.7938 92.1198 58.6897 91.5271 59.728 91.1824C63.9156 89.4459 67.9582 87.2983 72.2944 85.9655C72.4991 85.9534 72.6714 86.1329 72.8846 86.063C76.6515 85.0597 79.2178 85.8409 81.4731 89.1031C79.2486 91.0516 76.7398 92.6749 74.0967 93.9851Z" fill="#F47224"/>
<path d="M14.751 85.9146C18.2796 85.2068 21.6283 85.6342 24.7471 87.5117C25.3032 87.8463 25.3191 87.872 24.9384 88.4198C24.0383 89.7147 23.4383 91.1194 23.3248 92.7107C20.1573 90.8793 17.2387 88.6017 14.751 85.9146Z" fill="#F47224"/>
<path d="M93.1615 75.251C93.1418 75.1256 93.1544 75.0175 93.3031 74.98C93.3268 75.1077 93.2873 75.2018 93.1615 75.251Z" fill="#F1463A"/>
<path d="M93.127 75.3789C92.9666 75.4113 93.0535 75.2493 93.1665 75.2435C93.153 75.2887 93.1404 75.3336 93.127 75.3789Z" fill="#F1463A"/>
<path d="M66.9565 18.0112C67.1788 18.7932 67.0476 19.517 66.7111 20.2556C65.5563 22.6449 69.6118 22.1644 68.3753 24.9118C67.7346 26.9501 70.9874 26.6509 69.4019 29.5154C68.0472 31.6497 72.9673 32.0256 69.7377 35.1233C67.3317 37.2127 71.4752 38.9092 68.5991 40.6925C67.6343 41.142 66.2039 41.3869 66.4679 42.7602C66.6964 44.0227 65.7501 44.8178 64.5621 44.8946C63.2939 44.9287 63.862 45.8354 63.632 46.6608C63.3757 47.583 62.9489 47.9651 61.9917 47.9706C60.7467 47.9155 60.4232 48.9455 59.1411 48.7967C57.7286 48.7572 58.9543 50.3583 57.4229 50.556C56.8471 50.6482 56.343 50.8326 55.8853 51.2333C54.5685 52.2556 53.937 49.7035 52.1478 51.0566C51.027 51.8216 50.5307 49.8453 49.4192 50.153C48.8456 50.084 48.5979 49.8096 48.7878 49.2253C48.9969 48.5797 48.7299 48.2651 48.2706 47.8969C47.3551 47.1242 45.0225 44.7248 44.8858 43.5181C44.9808 43.1345 45.7828 43.9421 45.9364 44.1637C47.308 45.5905 51.7294 49.5244 53.6646 48.727C54.651 48.2898 55.3234 47.4288 56.0019 46.6313C58.0852 44.4954 60.4148 41.9557 60.5166 38.7984C60.3399 38.5341 60.0581 38.6209 59.8127 38.5883C59.4599 38.5077 58.854 38.1094 58.9227 37.6684C59.4468 36.8973 61.3626 38.3341 61.9863 35.5937C61.7656 35.4201 61.4715 35.6255 61.216 35.5689C60.7305 35.4604 60.1369 35.9332 59.7332 35.4868C59.7471 33.9096 61.4113 34.8288 62.2665 34.294C62.7358 33.5756 62.7845 32.7208 63.0261 31.9303C63.1612 31.4335 63.2831 30.9328 63.341 30.4213C63.3804 29.8618 63.4799 27.6422 62.6023 27.8235C61.6915 27.8669 60.7297 27.9444 60.045 27.2229C59.1612 26.4169 57.9231 25.7271 56.712 26.1107C54.8101 26.854 55.0509 26.6959 53.1466 26.1255C50.6858 25.5527 52.1108 28.3544 50.0992 28.9519C49.4678 29.1922 49.1552 29.5619 49.1313 30.271C49.0571 33.7554 45.3884 32.4844 45.8036 35.4364C46.4204 40.6816 42.3324 40.9095 40.5215 44.7806C39.1356 48.3379 36.8023 46.6949 34.0967 45.9726C33.7242 45.9121 33.3078 45.7316 32.9602 45.9462C32.4291 46.1749 31.798 46.6794 31.2209 46.25C30.9048 46.1229 30.9511 45.675 30.6174 45.5642C30.1598 45.4355 29.68 45.613 29.2239 45.4611C28.489 45.0914 28.1783 44.7016 28.3471 44.0351C28.566 43.1702 28.4283 42.5347 27.6075 42.1084C27.4971 42.0511 27.4232 41.9224 27.3322 41.8271C27.2599 41.81 27.2513 41.7356 27.2039 41.6907C27.1518 41.6783 27.123 41.6465 27.1215 41.5915C26.523 40.3243 27.1732 39.6733 28.1087 38.9185C29.421 37.5653 25.9612 36.416 27.7614 34.3398C28.9397 33.1726 25.7166 32.7494 27.2004 30.4105C27.7618 29.5874 28.6468 28.8837 27.9097 27.8568C25.1007 23.6788 30.0983 24.2391 30.0941 22.1784C29.9907 21.8381 29.8511 21.5026 29.7418 21.1616C29.068 19.4504 30.9616 17.7647 32.6573 18.1855C32.8467 18.3398 33.0885 18.1941 33.2864 18.3235C33.3595 18.3987 33.4917 18.387 33.5699 18.4374C33.6566 18.594 33.858 18.4599 33.9556 18.5901C34.5458 18.9296 34.9584 18.7567 35.5382 18.5762C37.1919 17.9112 36.3905 16.6534 37.0293 15.411C37.6138 14.1431 38.9288 13.3379 40.3193 13.6386C40.612 13.8215 41.1529 13.7393 41.5204 13.6789C42.0082 13.5549 42.3193 13.203 42.6327 12.8411C42.8419 12.5985 43.065 12.3606 43.3583 12.2095C43.4378 12.0661 43.7373 12.2172 43.7504 12.0382C44.2382 11.9545 44.7176 12.318 45.2108 12.0568C45.2209 12.0343 45.2209 12.0126 45.2116 11.9909C45.2679 12.0057 45.3081 11.9878 45.332 11.9336C45.7673 11.8003 45.9758 11.419 46.2336 11.0942C46.655 10.544 47.0626 9.93716 47.728 9.67212C48.1448 9.52719 48.6403 9.66204 49.0765 9.53184C49.1899 9.47527 49.3597 9.44736 49.4585 9.53184C51.1497 10.0643 51.1822 11.4058 53.3049 10.8269C53.555 10.8098 53.8799 10.7532 54.0891 10.8695C54.1902 11.0043 54.3863 10.8772 54.4859 11.0144C55.2431 11.3454 55.8158 12.5722 56.7606 12.1979C56.8594 12.0963 57.0362 12.1917 57.1435 12.0731C57.2631 12.0064 57.4129 12.039 57.5171 11.9406C57.5618 11.9367 57.6066 11.9328 57.6506 11.9289C57.7479 11.8545 57.8613 11.877 57.9702 11.8724C58.3384 11.8724 58.7066 11.8724 59.0748 11.8724C59.1836 11.8693 59.3071 11.8638 59.3935 11.9251C59.4869 12.0746 59.6876 11.9406 59.7864 12.0762C61.4676 12.9116 60.9466 14.2663 61.9084 15.0049C62.5475 15.566 63.2198 14.6562 63.6791 15.8644C64.1816 17.3199 65.8913 16.0868 66.9565 18.0112Z" fill="#121010"/>
<path d="M53.178 57.2828C54.6038 59.9543 55.3711 62.9573 56.3889 65.7577C56.3024 66.0396 56.6497 66.218 56.7924 66.4332C57.1024 66.8975 57.021 67.5 57.2869 67.989C57.5694 69.0852 57.8445 70.1819 57.5534 71.324C53.6691 75.2942 49.0117 78.0514 43.3079 78.2742C42.9933 78.2593 42.6838 78.2327 42.521 77.8961C42.2752 76.2775 42.4821 74.5859 42.4259 72.9426C42.2058 64.974 41.0855 55.8685 36.263 49.2757C36.0923 49.0208 35.89 48.7699 36.0138 48.4259C36.3605 48.0749 36.6654 48.3373 36.9588 48.5081C40.3892 50.6618 44.352 52.186 48.4329 51.537C50.6347 52.8604 51.8163 55.2195 53.178 57.2828Z" fill="#F7F7F4"/>
<path d="M55.0258 26.476C54.3953 26.2055 53.7371 26.0151 53.0755 25.8463C50.359 25.2925 52.0204 28.2525 49.8831 28.8103C48.9488 29.1275 48.8894 29.2082 48.8773 30.1774C48.9306 33.6715 45.0901 32.181 45.5593 35.4358C45.7415 37.8555 45.0968 39.9072 42.9798 41.315C42.518 41.6221 42.1407 42.0342 41.7701 42.4456C39.971 44.0947 40.0702 47.706 36.9649 46.5957C33.6914 45.5675 32.076 44.8843 35.4912 48.0835C35.6087 48.1567 35.7531 48.175 35.8618 48.2665C35.9219 48.3194 35.9901 48.3641 36.0711 48.3729C36.3492 48.2265 36.4883 48.4888 36.6631 48.598C37.6082 49.189 38.5297 49.8214 39.5916 50.1976C41.7188 50.1657 41.8774 44.889 43.4773 46.4229C44.9213 48.0625 45.5181 50.5487 47.334 51.8317C47.7424 51.865 48.107 51.6657 48.4985 51.6121C49.4605 51.4637 49.5814 50.8998 49.4193 50.1535C48.8739 49.9603 48.7719 49.593 49.0393 49.1111C49.3336 48.5817 49.177 48.2631 48.6916 47.9147C47.1524 46.8513 45.5984 44.9446 45.0374 43.4657C46.6556 45.4699 48.7935 47.1631 51.1198 48.3628C51.1671 48.2882 51.2171 48.217 51.2717 48.1526C51.3386 47.8327 51.1043 47.5609 50.974 47.2871C50.1869 45.6265 49.931 43.8832 50.087 42.0619C50.3901 39.6903 51.7105 37.6447 52.0866 35.2772C52.2439 34.3594 52.3944 33.2106 53.5521 32.7985C53.3827 32.1193 52.6543 32.4433 52.2216 32.2589C52.3883 32.12 52.6347 32.0848 52.7711 31.8855C53.5488 30.3089 53.7756 28.4951 54.9185 27.0799C55.0461 26.9104 55.1818 26.7112 55.0258 26.476Z" fill="#D14C38"/>
<path d="M57.0275 67.8864C56.9071 67.4826 56.7867 67.0782 56.6664 66.675C56.7315 66.5609 56.6596 66.4771 56.6038 66.3901C56.5706 66.3451 56.5663 66.2964 56.5896 66.2459C56.1647 61.3316 54.5381 56.5714 52.5597 52.0782C52.4829 51.9118 52.2723 51.7194 52.4455 51.5431C61.5677 53.908 62.9567 65.2039 64.0466 73.2323C64.1743 74.6636 64.2535 76.1026 64.5225 77.5186C64.4795 77.6849 64.361 77.7923 64.2081 77.8247C63.6487 77.8758 60.8493 78.6863 61.378 77.4401C61.6174 76.6219 61.7488 76.8326 61.4308 76.032C60.8597 74.2783 60.1867 72.5757 59.1705 71.0214C57.9725 69.035 59.8128 64.9395 58.0578 62.2095C57.8398 61.7521 57.3425 61.7872 57.4082 62.3562C57.41 63.0196 57.3713 63.6824 57.4634 64.3464C57.5893 65.2496 57.5574 66.162 57.4954 67.0677C57.4739 67.3858 57.5076 67.8026 57.0275 67.8864Z" fill="#F47224"/>
<path d="M74.3611 71.6265C74.9167 71.8342 75.5115 71.6366 76.0813 71.7822C76.5134 71.9545 76.9718 71.7772 77.4081 71.8869C77.8673 72.102 78.3821 71.9146 78.8634 72.0102C78.9491 72.027 79.0341 72.0434 79.1198 72.0599C79.3711 72.2121 79.671 72.0297 79.9231 72.1777C80.695 72.5842 80.8293 73.1385 80.2316 73.7358C73.385 80.302 77.868 77.2596 70.4429 77.7008C70.0273 77.7227 69.6589 77.9756 69.299 78.1919C68.3221 79.027 67.2903 79.0699 68.3393 77.6297C68.9569 76.8114 68.5913 76.8903 67.8522 77.0851C63.4942 78.0674 65.9314 76.7622 67.7187 75.0624C68.7634 74.1173 69.8253 73.1901 70.88 72.2558C71.1949 71.9767 71.5255 71.7237 71.9489 71.63C72.2931 71.5929 72.6345 71.4902 72.9844 71.582C73.4428 71.6199 73.9091 71.5328 74.3611 71.6265Z" fill="#F7F7F4"/>
<path d="M65.3369 77.2374C66.1265 77.2034 66.8808 76.9141 67.6742 76.9164C67.9507 76.9656 68.0713 77.2331 68.2797 77.3904C68.9853 77.8405 67.9687 78.147 67.9885 78.7138C67.7987 79.344 66.5845 79.3654 66.0354 79.5763C62.7065 80.4046 59.2358 80.0322 55.9337 81.0153C54.538 81.344 53.1301 81.554 51.6831 81.511C50.0122 81.4611 49.7376 81.2437 49.5542 79.5333C49.5144 79.3506 49.6235 79.2416 49.7543 79.1519C51.703 77.721 53.6747 76.1348 56.1557 75.835C57.7688 75.6445 59.3865 75.9408 61.0093 75.9111C61.4737 75.876 62.04 76.3495 61.8252 76.8473C61.4031 76.9593 60.983 76.5498 60.6097 76.9344C60.8611 77.3162 61.3839 76.9847 61.6411 77.3369C61.4365 77.9112 61.4673 77.9865 62.0048 77.887C62.8412 77.7323 63.6994 77.7437 64.5236 77.5192C64.8142 77.5949 65.2131 77.454 65.3369 77.2374Z" fill="#ED7655"/>
<path d="M72.3394 86.1511C71.3742 86.4469 70.4772 86.9491 69.466 87.1052C69.175 86.9893 69.1248 86.7148 69.0746 86.4606C68.9074 85.1622 66.5892 84.7116 67.4119 83.2277C67.3817 83.1403 67.2737 83.2234 67.2008 83.2418C66.927 83.271 66.8685 83.0337 66.7467 82.8733C66.6518 82.5566 66.8816 82.272 67.068 82.0409C67.747 81.5142 67.9203 81.5623 68.1198 82.3677C68.225 82.792 68.4452 83.1372 68.7465 83.4385C68.8208 83.5127 68.9006 83.649 69.0134 83.5806C69.1991 83.36 68.935 82.8128 68.8139 82.5879C68.4913 81.8898 67.8632 80.5472 68.8565 80.1146C69.0271 80.1314 69.1317 80.2517 69.1922 80.386C69.7591 81.4494 70.2151 80.2302 71.1404 81.3448C71.4891 81.6845 71.8241 82.0374 72.1743 82.3755C72.272 82.4703 72.3758 82.6999 72.532 82.552C72.6338 82.4555 72.5127 82.256 72.4171 82.1353C71.8482 81.4201 71.1734 80.8193 70.4277 80.295C70.1216 80.0803 69.7811 79.8773 69.8512 79.4096C70.0053 78.9919 70.2832 78.4558 70.8102 78.5237C71.0908 78.7303 71.4465 78.8142 71.7003 79.0672C72.1337 79.5751 72.7122 79.8956 73.2419 80.2794C76.5596 82.24 74.4388 84.3728 72.3394 86.1511Z" fill="#ED7655"/>
<path d="M67.0369 82.4246C66.4869 82.7834 65.3395 82.6116 66.0896 81.8406C66.2985 81.5865 66.53 81.3401 66.8164 81.1836C68.0336 80.5175 68.6213 79.3935 69.0563 78.1512C69.4502 77.6039 70.0496 77.3943 70.6544 77.3958C71.986 77.399 73.3334 77.1823 74.6431 77.7222C75.0617 77.8944 75.6021 77.7667 76.0871 77.7765C75.7247 78.1782 75.3624 78.5799 75 78.9816C74.5226 79.3299 74.1766 78.9883 73.8465 78.7287C72.8231 77.8214 71.8737 78.6139 70.7352 78.6127C70.4886 78.9032 70.0811 78.9333 69.7934 79.1644C69.5687 79.3533 69.6043 79.6914 69.4372 79.9252C69.3241 80.0807 69.1967 80.2095 68.981 80.1716C68.4837 80.4199 68.4891 80.8642 68.5816 81.3069C68.7851 82.4824 69.4611 82.612 69.2988 83.9413C69.2947 84.0971 69.2707 84.3239 69.0549 84.1151C68.5515 83.6267 67.9973 83.1652 67.8802 82.4008C67.8514 82.2162 67.9665 81.9237 67.7535 81.8691C67.5233 81.8098 67.2986 81.978 67.1979 82.2334C67.1739 82.3228 67.1178 82.3836 67.0369 82.4246Z" fill="#FAE3C7"/>
<path d="M71.9354 78.2871C73.5733 77.2748 73.79 79.0687 75.0001 78.9824C75.6315 79.8968 77.6556 80.6073 76.4483 81.8656C75.9864 82.4804 75.5703 83.132 75.0244 83.6805C74.743 83.4662 74.7993 83.1801 74.8611 82.8947C75.1042 81.7656 74.8667 81.1871 73.8866 80.6233C73.1399 80.1931 72.4105 79.7382 71.7319 79.2065C71.5152 78.8372 72.1577 78.6588 71.9354 78.2871Z" fill="#ED7655"/>
<path d="M48.5 51.6119C48.8521 51.2833 49.3878 51.1251 49.4779 50.5523C50.034 50.4713 54.5417 59.1898 52.5643 56.7571C51.745 55.3434 50.8533 53.9819 49.6946 52.8163C49.296 52.415 48.7338 52.178 48.5 51.6119Z" fill="#FAE3C7"/>
<path d="M71.6156 79.0661C72.66 79.5307 73.6196 80.1518 74.5683 80.7773C75.2404 81.2208 75.2274 81.9824 75.1045 82.698C74.9365 83.822 75.2124 83.8123 74.1305 84.4685C74.0636 84.2604 74.1449 84.0926 74.2453 83.9103C75.765 81.2313 73.5028 81.0603 71.895 79.5425C71.742 79.412 71.5699 79.3121 71.5774 79.0782L71.6156 79.0661Z" fill="#D14C38"/>
<path d="M74.3496 44.9065C75.1032 44.713 75.8568 44.7137 76.6104 44.9065C75.8568 44.9065 75.1032 44.9065 74.3496 44.9065Z" fill="#D14820"/>
<path d="M72.3408 86.1503C72.4286 86.0616 72.5165 85.973 72.6043 85.8844C72.6635 85.9996 72.7813 86.021 72.8857 86.064C72.7194 86.1897 72.5291 86.1639 72.3408 86.1503Z" fill="#D14C38"/>
<path d="M80.8418 45.6014C80.8833 45.6179 80.9247 45.6351 80.9655 45.6516C80.924 45.6344 80.8833 45.6179 80.8418 45.6014Z" fill="#F1463A"/>
<path d="M74.8846 85.6642C74.8359 85.6833 74.7871 85.7029 74.7383 85.722C74.7877 85.7025 74.8359 85.6833 74.8846 85.6642Z" fill="#D14820"/>
<path d="M76.6137 85.7258C76.5669 85.7106 76.5201 85.6958 76.4727 85.681C76.5201 85.6962 76.5669 85.711 76.6137 85.7258Z" fill="#D14820"/>
<path d="M40.3196 13.6382C39.8757 13.6405 39.431 13.6428 38.9873 13.6458C39.4303 13.4612 39.8749 13.4732 40.3196 13.6382Z" fill="#FAE3C7"/>
<path d="M44.4164 12.0391C44.1923 12.0673 43.9728 12.0961 43.751 12.0384C43.9728 11.8841 44.1946 11.8955 44.4164 12.0391Z" fill="#FAE3C7"/>
<path d="M45.3313 11.9331C45.3078 11.9878 45.2715 12.0151 45.2109 11.9908C45.251 11.9711 45.2912 11.9521 45.3313 11.9331Z" fill="#FAE3C7"/>
<path d="M69.0569 78.1521C69.3369 78.6718 68.907 79.0552 68.7654 79.4745C68.313 80.8904 66.6512 81.2508 65.8667 82.4255C64.763 84.8827 59.205 86.1512 56.6519 86.294C55.2509 86.3608 53.8067 86.5919 52.4294 86.2332C51.074 85.5753 48.8209 80.4774 49.5803 79.3726C50.0218 80.2596 49.7142 81.2141 51.0367 81.2356C54.689 81.5143 58.0865 79.8391 61.724 79.8918C63.2165 79.8524 64.6909 79.6115 66.1653 79.3902C66.081 79.8368 65.7155 79.852 65.3763 79.9074C65.2695 79.9273 65.2154 79.9344 65.348 79.9121C66.0006 79.8391 66.4659 79.3609 67.0419 79.1235C67.4049 78.9904 67.7453 78.7667 68.1244 78.696C68.2138 78.7159 68.2093 78.6148 68.2628 78.5882C68.5273 78.4426 68.7924 78.2974 69.0569 78.1521Z" fill="#D14C38"/>
<path d="M40.8478 81.6633C40.236 82.0733 39.7016 82.593 39.2806 83.1738C37.7575 85.3399 35.3975 86.0422 32.9082 86.2865C32.6466 86.0587 32.6222 85.7504 32.6297 85.436C32.4675 81.2727 32.8542 74.0419 30.0405 70.8332C29.7644 70.3036 29.7705 69.7077 29.7555 69.1471C29.7672 67.3571 29.3846 65.5628 29.4329 63.7892C29.5173 63.5605 29.7053 63.4084 29.8497 63.6725C34.444 69.2799 34.2307 70.8934 34.6057 78.0112C34.8921 81.3414 38.7007 78.7272 39.0392 76.7286C39.1329 76.4156 39.1053 75.9091 39.6908 76.0094C39.9168 76.1859 39.9852 76.4443 40.0344 76.7055C40.2613 78.3591 40.8051 80.0004 40.8478 81.6633Z" fill="#D14820"/>
<path d="M52.8912 86.1296C56.3323 86.2944 59.7342 85.7931 62.957 84.5528C63.283 84.6929 63.3259 85.0256 63.4516 85.2977C63.9916 86.4693 64.6847 87.5245 65.7069 88.3342C65.7946 88.4423 65.8431 88.5615 65.807 88.7028C60.1225 91.4383 54.2157 93.7565 48.3302 96.0255C48.2195 96.0623 48.0695 96.1895 47.9949 96.0314C47.9463 95.9295 48.1168 95.8725 48.2014 95.8097C49.9696 94.4265 51.8783 93.2174 53.5749 91.7518C54.3626 91.4247 53.1419 87.8946 52.8545 87.2239C52.7394 86.8839 52.5652 86.5286 52.773 86.1554L52.7773 86.1628C52.8041 86.1136 52.842 86.1007 52.8912 86.1296Z" fill="#64242A"/>
<path d="M30.1412 70.7475C33.2599 73.2124 32.7401 82.3927 32.9086 86.2863C31.6216 86.5542 30.3481 86.8608 29.1932 87.5255C28.939 87.219 29.1489 86.9015 29.167 86.5869C29.1835 86.3049 29.175 86.0217 29.178 85.739C28.847 85.1726 29.1801 84.6146 29.2308 84.0639C29.3579 82.681 29.5044 81.3019 29.5897 79.9134C29.7607 77.114 29.8722 74.3147 29.8468 71.5102C29.8439 71.2223 29.8519 70.9268 30.1412 70.7475Z" fill="#64242A"/>
<path d="M49.5798 79.3718C48.6498 78.705 47.7682 78.4118 46.6696 78.9986C45.3858 79.6396 44.0455 80.1545 42.6897 80.6234C42.1954 80.1659 42.5435 79.5026 42.4837 78.9373C42.4325 78.5953 42.3807 78.2533 42.7455 78.0335C48.6527 78.0632 53.0844 75.0866 57.3727 71.3824C58.2342 72.0081 56.1102 75.5592 55.514 76.1555C53.7565 76.5969 52.2661 77.5341 50.8659 78.6507C50.4815 78.9568 50.1437 79.3761 49.5798 79.3718Z" fill="#FAE3C7"/>
<path d="M42.6394 79.6272C42.6557 79.9591 42.672 80.2909 42.6884 80.6227C42.1148 81.0414 41.4629 81.3211 40.8466 81.6631C40.6031 81.5155 40.6194 81.2618 40.569 81.024C40.139 79.0914 40.0391 77.0507 39.2325 75.2618C39.1591 74.3199 38.3429 71.6778 38.7613 71.0421C39.2998 70.8786 39.2527 71.3657 39.3253 71.616C39.9065 73.7228 40.4037 75.8536 40.9893 77.9599C41.1464 78.5411 41.4293 78.9197 42.1085 78.7861C42.733 78.7191 42.6134 79.2062 42.6394 79.6272Z" fill="#64242A"/>
<path d="M52.7735 86.1566C53.0071 86.9952 53.3858 87.7979 53.3946 88.6919C52.887 88.0114 52.5786 87.2255 52.2217 86.4654C52.2244 86.1515 52.5317 86.1289 52.7735 86.1566Z" fill="#D14820"/>
<path d="M52.5329 86.148C52.4297 86.2538 52.3259 86.3592 52.2216 86.4646C51.9043 86.2054 51.6595 85.897 51.5654 85.4867C51.9984 85.5444 52.2594 85.8556 52.5329 86.148Z" fill="#64242A"/>
<path d="M38.8656 70.9969C38.9794 72.6891 39.4291 74.3304 39.5943 76.0165C39.3667 76.1213 39.4114 76.3443 39.3656 76.5318C39.2203 78.7775 34.7816 81.8257 34.3595 78.2495C34.038 74.0608 34.4131 69.2004 31.2499 65.9452C30.6351 65.34 29.9893 64.7588 29.7501 63.878C29.6545 63.6179 29.5479 63.7743 29.5993 63.9462C30.3661 71.15 30.4197 78.6001 29.1784 85.7383C26.1135 87.7724 22.1554 84.9993 19.7353 83.0812C14.6122 78.3016 19.9585 71.363 19.9253 65.6412C20.0319 60.8701 23.7227 59.626 25.2899 55.622C26.2218 53.2864 31.0096 45.3654 33.5657 45.6993C39.2584 51.1172 41.5587 59.0731 42.2884 66.8581C42.1857 68.1693 41.0167 69.2426 39.8274 68.2381C39.2882 67.8221 38.7225 67.4366 38.2563 66.9313C37.5879 65.9635 39.2794 70.6641 38.8656 70.9969Z" fill="#F47224"/>
<path d="M65.8084 88.7047C65.3077 88.0309 64.6575 87.4555 64.5132 86.5743C64.3018 85.7509 64.7071 84.2701 65.753 85.1169C66.0462 85.25 66.9831 86.0984 67.1017 85.4496C67.1165 84.9932 66.7479 84.6765 66.7118 84.2354C66.5597 83.9766 66.4805 82.8971 66.8484 82.8268C67.0727 82.8647 67.0392 83.1435 67.2177 83.2242C67.2892 83.2617 67.3285 83.3301 67.342 83.4089C67.3117 84.0793 67.7647 84.6332 68.2396 84.9318C69.1025 85.4445 69.3048 86.2171 69.4672 87.1052C69.0071 87.5031 68.4188 87.6366 67.882 87.8728C67.2003 88.1722 66.5411 88.5314 65.8084 88.7047Z" fill="#D14C38"/>
<path d="M52.6245 31.9101C53.189 29.9936 53.7785 28.0886 55.0259 26.4764C55.6127 26.3374 56.1054 25.9284 56.7244 25.8839C57.0248 25.784 57.3495 25.8103 57.6647 25.8009C57.8314 25.8893 58.033 25.7766 58.1943 25.8947C60.0151 26.22 60.292 27.9792 62.4361 27.6695C62.6538 27.6277 62.8703 27.5102 63.09 27.6034C63.3717 27.739 63.4147 28.0177 63.451 28.2741C63.9544 30.4457 63.1371 32.452 62.5644 34.5467C61.6349 34.8038 60.0863 34.2019 59.7496 35.4813C59.2663 35.7715 58.9296 36.2189 58.6487 36.6987C58.9155 36.2689 59.1877 35.8323 59.6394 35.5684C59.9122 35.5387 60.1838 35.534 60.4526 35.4577C60.7033 35.3417 60.987 35.4928 61.235 35.3578C61.5899 35.3612 61.9461 35.2188 62.2949 35.3167C62.4885 35.5448 62.2963 35.7297 62.2116 35.9126C61.446 37.2737 61.0528 38.153 59.3967 37.5996C59.0553 37.5065 59.0553 37.5065 58.9706 37.7434C59.1561 37.9101 59.3416 38.0767 59.5271 38.2441C59.5688 38.3278 59.6206 38.3932 59.7294 38.3602C60.0648 38.6031 60.4594 38.3663 60.8035 38.5302C60.7383 41.8956 58.3536 44.599 56.0832 46.8313C55.7411 46.5931 55.9716 46.1174 56.1914 45.8825C56.4804 45.5444 56.6787 45.1544 56.8729 44.761C57.1586 44.1846 57.0705 44.0159 56.4293 43.852C55.6833 43.6603 54.9345 43.5449 54.1683 43.719C53.9095 43.7501 53.6945 43.5004 53.4424 43.6083C53.3275 43.6725 53.1709 43.6657 53.0842 43.5658C53.148 44.6813 54.0695 45.5323 54.6375 46.4413C54.7027 46.6997 54.8969 46.8097 55.1194 46.9224C55.3344 47.0318 55.6241 47.1229 55.5697 47.4718C55.0858 48.0825 54.542 48.6176 53.7966 48.8997C52.9813 49.0556 51.9624 49.0913 51.3239 48.5015C51.2601 48.4901 51.2157 48.399 51.1686 48.3882C51.1229 47.9536 50.8427 47.6209 50.6672 47.243C48.2839 41.8356 51.3441 39.0154 52.1338 33.9515C52.4094 32.4858 53.6252 32.5526 54.6966 33.1916C55.0401 33.4008 55.3459 33.6681 55.7169 33.8321C56.0489 34.0109 56.3278 34.2855 56.7224 34.3159C56.7654 34.3301 56.7855 34.3773 56.8259 34.3969C56.3157 33.2409 55.1321 32.7166 54.011 32.3508C53.6279 32.2516 53.2495 32.1227 52.8563 32.0701C52.7609 32.0431 52.6816 31.9931 52.6245 31.9101Z" fill="#ED7655"/>
<path d="M36.5254 34.7903C36.9445 31.8191 39.1014 32.0726 39.1157 30.8735C39.1313 30.4579 39.1996 30.0443 39.2452 29.6294C39.5003 29.4078 39.7665 29.2621 40.09 29.5059C40.1108 30.0469 39.9793 30.5854 40.06 31.1277C40.2293 31.2636 39.7906 31.6152 39.8498 31.9432C39.9038 33.9304 42.2325 33.3841 42.1004 36.2201C42.1661 33.1521 39.7554 34.0395 39.8654 31.7616C39.9754 31.0918 40.664 31.1787 41.1723 31.2885C41.8732 31.3682 42.4102 31.7583 42.8156 32.2902C44.17 34.065 44.6288 36.0273 43.9325 38.2014C43.6721 39.0142 43.2198 39.3351 42.4987 38.6758C42.2742 38.4712 41.926 38.4366 41.7515 38.1543C41.6956 37.9445 41.814 37.7472 41.9201 37.5819C41.3402 39.7912 36.9113 36.5194 36.5254 34.7903Z" fill="#F7F7F4"/>
<path d="M36.5251 34.7898C37.9351 36.328 38.5738 37.5534 40.8192 38.074C41.1002 38.1407 41.3812 38.2247 41.6347 37.9984C41.6813 37.9567 41.7254 37.9599 41.7663 38.008C42.1865 38.3094 42.7127 38.4036 43.101 38.8056C43.3718 39.0865 43.4886 38.6703 43.5678 38.4812C44.7372 35.7625 43.5289 32.6886 41.2222 31.258C46.0323 31.5594 46.3835 40.0432 41.7695 41.0678C38.1491 42.1239 35.4522 38.0208 36.5251 34.7898Z" fill="#9AA4B4"/>
<path d="M57.2742 15.8078C57.0465 15.7573 56.8179 15.7076 56.5894 15.6571C56.3017 15.4908 55.9556 15.6979 55.662 15.542C54.4875 15.3645 53.2428 15.4804 52.1053 15.6667C51.9396 15.7989 51.72 15.6675 51.5499 15.7811C51.4648 15.7908 51.3805 15.7997 51.2955 15.8086C51.1971 15.9214 50.9723 15.793 50.9175 15.946C50.7999 16.041 50.6239 15.9385 50.5159 16.0662L50.5093 16.0551C48.8179 16.5222 47.1893 17.4786 45.753 18.6147C45.296 18.7187 45.1895 18.4774 45.2338 18.0853C46.3617 17.0821 47.636 16.3232 49.0464 15.7915C49.5338 15.5843 50.0456 15.4507 50.5492 15.262C50.6801 15.1269 50.8761 15.2613 51.0129 15.1507C51.0773 15.141 51.1409 15.1299 51.2052 15.1202C51.3406 14.9984 51.5366 15.1343 51.6697 15.0081C51.7244 15.0051 51.7791 15.0014 51.8331 14.9977C52.055 14.8388 52.3479 15.0289 52.5601 14.8492C52.7791 14.7534 53.0106 14.8187 53.2361 14.7994C54.0726 14.8306 54.9246 14.7363 55.7522 14.8388C55.9992 15.0526 56.3394 14.8158 56.5968 15.0059C56.7735 15.0512 56.951 15.0972 57.1285 15.1425C57.2447 15.2479 57.4214 15.1462 57.5338 15.2672C57.6366 15.3883 57.8223 15.2717 57.9221 15.4016C58.005 15.4737 58.124 15.4573 58.2098 15.5212C58.939 15.8086 59.615 16.1836 60.1852 16.7331C60.2851 16.8058 60.3546 16.9313 60.4626 16.9781C60.5291 17.1266 60.5417 17.2484 60.3258 17.2566C59.7977 16.9395 59.3 16.569 58.7231 16.3373C58.6299 16.1947 58.4265 16.3306 58.3355 16.1813C58.0027 16.0343 57.6189 15.943 57.2742 15.8078Z" fill="#F7F7F4"/>
<path d="M45.2338 18.0855C45.3669 18.3014 45.4711 18.5454 45.753 18.6148C42.9722 21.0559 41.3571 24.349 40.0806 27.7476C38.1505 31.4884 40.8659 20.8249 45.2338 18.0855Z" fill="#9AA4B4"/>
<path d="M39.422 28.578C40.2802 27.0206 40.6774 25.2477 41.6234 23.7358C41.7304 23.5781 41.8443 23.5044 41.9053 23.7717C41.1103 25.5611 40.5045 27.4153 40.167 29.3522C39.4 29.68 39.1771 29.3708 39.422 28.578Z" fill="#F7F7F4"/>
<path d="M56.0277 46.4921C56.1735 46.8882 55.869 47.2306 55.5702 47.4719C55.264 47.0905 54.5841 47.1363 54.4873 46.5163C54.9967 46.2496 55.5111 46.3073 56.0277 46.4921Z" fill="#D14C38"/>
<path d="M60.3252 17.2562C60.3709 17.163 60.4167 17.0704 60.4624 16.9778C61.0656 17.4137 61.483 18.0142 61.9047 18.6118C61.9475 18.6352 61.9555 18.7146 61.9287 18.7328C61.9236 18.8064 61.8053 18.7561 61.7726 18.7175C61.3639 18.1571 60.8021 17.7482 60.3252 17.2562Z" fill="#F7F7F4"/>
<path d="M39.354 28.9264C39.2965 29.6959 40.2184 29.1768 40.1205 29.5314L40.0904 29.5052C39.809 29.5465 39.5277 29.5871 39.2456 29.6284C39.2352 29.3872 39.166 29.1368 39.354 28.9264Z" fill="#9AA4B4"/>
<path d="M41.2219 31.2562C41.2142 31.2915 41.2129 31.3275 41.2187 31.3635C40.8281 31.361 40.4375 31.3577 40.0469 31.3552C40.0386 30.9849 40.9721 31.188 41.2219 31.2562Z" fill="#F7F7F4"/>
<path d="M60.463 16.9792C60.4158 16.9369 60.3678 16.8946 60.3213 16.8523C60.3998 16.8596 60.4477 16.9012 60.463 16.9792Z" fill="#F7F7F4"/>
<path d="M60.3213 16.8518C60.2755 16.8124 60.2304 16.7729 60.1846 16.7328C60.2609 16.7371 60.306 16.7773 60.3213 16.8518Z" fill="#F7F7F4"/>
<path d="M55.5664 76.0408C56.0973 74.4475 57.4346 73.1719 57.3732 71.383C57.5873 70.1846 57.2211 69.0449 57.0278 67.8866C57.5223 66.7757 57.2455 65.6204 57.2157 64.4807C57.1966 63.7506 57.128 63.0218 57.0922 62.2923C57.0761 61.9539 57.0767 61.5838 57.4823 61.4712C57.8856 61.3598 58.0782 61.6922 58.2566 61.9665C59.4353 63.9632 59.1632 66.4313 58.9867 68.6532C58.8292 69.6114 59.0648 70.4906 59.6154 71.2991C60.6241 72.7802 61.251 74.4278 61.6614 76.1649C59.7866 76.3613 57.9369 75.813 56.0722 76.0713C55.9004 76.1153 55.7287 76.1556 55.5664 76.0408Z" fill="#64242A"/>
<path d="M38.8649 70.9994C38.39 69.4637 38.1225 67.8754 37.6929 66.3266C37.6755 66.2469 37.677 66.1112 37.7222 66.0808C37.8088 66.0233 37.8714 66.1247 37.9204 66.1972C38.5031 67.0609 39.4018 67.5739 40.1736 68.2246C40.6913 68.6613 41.3177 68.484 41.7406 67.8406C41.946 67.5275 42.0336 67.1469 42.2881 66.8604C42.8568 70.5574 42.6855 74.3084 42.7452 78.0353C42.698 78.1763 42.713 79.2396 42.5422 78.9913C41.0497 79.0864 41.0305 79.0917 40.6138 77.572C40.0148 75.3856 39.4466 73.1911 38.8649 70.9994Z" fill="#D14820"/>
<path d="M39.5918 50.1994C42.6303 48.2144 41.7418 42.3198 45.2229 48.723C45.8156 49.7091 46.4158 50.6884 47.2033 51.537C47.2729 51.6115 47.2918 51.7336 47.3346 51.8334C44.9254 52.3804 41.7663 51.2784 39.5918 50.1994Z" fill="#ED7655"/>
<path d="M56.5684 66.494C56.6131 66.217 56.7524 66.5423 56.6658 66.6765C56.6335 66.6151 56.6006 66.5548 56.5684 66.494Z" fill="#ED7655"/>
<path d="M53.4263 31.9905C54.5471 32.3792 56.8407 32.8558 56.8292 34.3418C56.5735 34.9796 55.864 34.0633 55.5377 33.8919C55.4832 33.7995 55.3366 33.8377 55.2979 33.7224C55.275 33.7441 55.1817 33.6549 55.1487 33.6166C55.1068 33.5542 54.9012 33.544 54.9094 33.4624C54.8047 33.4586 54.7724 33.3324 54.6816 33.3178C54.5921 33.3293 54.5375 33.2751 54.4887 33.2114C54.4366 33.1521 54.2837 33.163 54.2247 33.0763C54.1593 32.9654 53.9023 33.1031 53.849 32.9068C53.7747 32.9042 53.6192 32.8972 53.5526 32.7991C53.0417 32.4614 52.3994 32.5633 51.8213 32.4627C51.0622 32.26 52.4293 31.9644 52.6254 31.9108C52.8925 31.9427 53.1635 31.9357 53.4263 31.9905Z" fill="#121010"/>
<path d="M35.8616 48.2561C35.744 48.1985 35.6915 48.0907 35.6475 47.9765C35.8836 47.9528 36.3558 48.387 35.8616 48.2561Z" fill="#FAE3C7"/>
<path d="M35.8613 48.2567C35.9678 48.261 36.13 48.1804 36.1231 48.3422C36.0198 48.4722 35.9036 48.3648 35.8613 48.2567Z" fill="#F7F7F4"/>
<path d="M61.6402 77.3366C61.3615 77.3498 61.0822 77.3737 60.8036 77.3737C60.3621 77.3737 60.108 77.1815 60.1705 76.6982C60.7261 76.6385 62.3345 76.3898 61.6402 77.3366Z" fill="#121010"/>
<path d="M68.1272 77.5352C67.849 77.4672 67.7706 77.2322 67.8073 76.9609C68.0039 76.7426 68.6444 76.7184 68.9008 76.8641C69.1597 77.0581 68.7639 77.4777 68.5641 77.5668C68.4176 77.5687 68.2699 77.5906 68.1272 77.5352Z" fill="#121010"/>
<path d="M67.9388 76.8617C67.9033 76.934 67.8804 77.0495 67.7756 77.0144C67.5781 76.8746 67.8112 76.9039 67.9388 76.8617Z" fill="#ED7655"/>
<path d="M58.46 77.9137C62.6961 78.0305 56.9053 78.4852 55.7454 78.4403C55.6471 78.4403 55.4892 78.4935 55.4675 78.367C55.3487 78.0769 58.1754 77.8517 58.46 77.9137Z" fill="#D14C38"/>
<path d="M67.0415 79.1241C66.2936 80.0575 64.2931 80.2044 65.1328 79.8787C65.4879 79.7398 65.9222 79.769 66.1652 79.3907C66.4573 79.3021 66.7494 79.2131 67.0415 79.1241Z" fill="#64242A"/>
<path d="M61.6546 76.6957C61.1602 76.6964 60.6663 76.6972 60.1719 76.6984C60.6657 76.4598 61.1602 76.5212 61.6546 76.6957Z" fill="#64242A"/>
<path d="M69.3146 79.8313C69.2866 79.7122 69.2833 79.5975 69.3685 79.4967C69.5603 79.4214 69.7268 79.2203 69.9652 79.3746C69.9472 79.6544 70.1003 79.8138 70.3261 79.952C71.1331 80.4958 72.409 81.4858 72.8112 82.3646C72.8778 82.6055 72.9744 82.8628 72.7093 83.0194C72.425 83.1876 72.3504 82.8655 72.1999 82.7339C71.5254 82.1409 71.0186 81.3625 70.2122 80.9139C69.8986 80.5649 69.499 80.2876 69.3146 79.8313Z" fill="#D14C38"/>
<path d="M66.848 82.826C66.8632 83.8844 65.318 84.6555 64.6602 83.7501C64.7484 83.2539 65.3048 83.3488 65.4762 82.8194C65.5587 82.7573 65.6539 82.6503 65.744 82.5531C65.7314 82.5703 65.9003 82.4173 65.8663 82.425C66.2507 82.4149 67.1474 82.1596 66.848 82.826Z" fill="#9AA4B4"/>
<path d="M69.3147 79.8305C69.7962 80.0386 70.1719 80.3357 70.2122 80.9131C69.5567 81.3316 69.1953 81.1142 68.9805 80.1713C69.0921 80.0577 69.2031 79.9441 69.3147 79.8305Z" fill="#121010"/>
<path d="M71.6154 79.0652C71.2744 79.0625 70.9155 78.9492 70.7354 78.6124C70.9208 78.3707 71.2274 78.396 71.469 78.2801C71.6108 78.1966 71.7809 78.2922 71.9352 78.286C72.0597 78.4128 72.3683 78.3707 72.3153 78.6518C72.2339 78.9423 71.8405 78.925 71.6154 79.0652Z" fill="#121010"/>
<path d="M67.2177 83.2233C67.2641 83.0199 67.0483 82.688 67.2431 82.6404C67.483 82.5822 67.5243 82.957 67.6538 83.1409C67.8873 83.4364 67.6538 83.7698 67.3351 83.4852C67.2774 83.4634 67.2717 83.2814 67.2044 83.2189L67.2177 83.2233Z" fill="#121010"/>
<path d="M31.6577 46.4038C31.6594 46.4707 31.6261 46.4997 31.5605 46.4926C31.5933 46.463 31.6255 46.4334 31.6577 46.4038Z" fill="#D14820"/>
<path d="M65.0975 84.9377C64.4259 85.7786 64.6804 86.6157 65.1111 87.4503C65.2794 87.7767 65.5909 88.0305 65.604 88.4353C64.241 87.5171 63.4192 86.0913 62.958 84.5524C63.5141 83.779 65.01 83.8262 65.0975 84.9377Z" fill="#D14820"/>
<path d="M65.0972 84.9399C64.8536 84.5651 64.4061 84.3956 64.1719 84.0111C64.5153 83.4813 65.1559 83.9084 65.6085 84.0084C66.0674 83.976 66.5358 83.9037 66.8956 84.3051C66.9196 84.3921 66.9429 84.4788 66.9663 84.5659C66.0094 85.1456 67.1071 85.0749 67.3223 85.5056C67.0364 86.0572 66.9208 86.1017 66.4317 85.8007C65.981 85.5235 65.5416 85.2276 65.0972 84.9399Z" fill="#64242A"/>
<path d="M52.8923 86.1312C52.8559 86.1476 52.8179 86.1589 52.7783 86.1644C52.8017 86.1023 52.838 86.0863 52.8923 86.1312Z" fill="#BF272A"/>
<path d="M37.6033 65.6381L37.6195 65.6899C37.5539 65.6836 37.5804 65.6818 37.6033 65.6381Z" fill="#D14820"/>
<path d="M67.322 85.504C67.0656 85.5185 65.1183 84.8424 66.1911 84.6963C66.45 84.6546 66.7076 84.6085 66.9665 84.5643C67.2892 84.7998 67.3574 85.132 67.322 85.504Z" fill="#D14820"/>
<path d="M66.8961 84.3054C66.4328 84.3554 66.0261 84.1594 65.6094 84.0087C65.996 83.7412 66.4429 83.5636 66.7773 83.2173C66.8169 83.58 66.8565 83.9427 66.8961 84.3054Z" fill="#F7F7F4"/>
<path d="M56.0276 46.4934C55.5176 46.718 55.0025 46.6429 54.4868 46.5181C53.9215 45.8915 53.4132 45.2248 53.0652 44.4482C52.9295 44.1463 52.7829 43.8376 52.9585 43.4968C53.0858 43.2924 53.0898 43.5272 53.3236 43.5959C53.5569 43.4229 53.7732 43.6595 54.0002 43.624C54.8872 43.1028 56.0002 43.4453 56.9112 43.7351C57.416 43.9052 57.4155 44.2643 57.1616 44.7397C56.8302 45.3606 56.4657 45.9476 56.0276 46.4934Z" fill="#BF272A"/>
<path d="M52.5014 36.1509C52.3976 35.9248 52.0355 35.6746 52.2043 35.5076C52.3798 35.3332 52.6394 35.6764 52.8475 35.8071C53.3563 36.1263 53.9148 36.2877 54.4886 36.4239C54.7482 36.4855 55.079 36.4528 55.1747 36.8158C54.6089 36.9705 54.0154 37.1744 53.441 36.9286C53.2366 36.7794 53.0242 36.8675 52.9524 36.6094C52.7475 36.7073 52.8426 36.4374 52.7953 36.5206L52.8193 36.4966C52.6683 36.5077 52.7192 36.3278 52.6223 36.2871C52.5873 36.2372 52.5474 36.191 52.5014 36.1509Z" fill="#121010"/>
<path d="M57.6919 42.1815C56.8822 42.8868 56.2679 41.213 55.3335 41.4454C55.1641 41.4652 54.9448 41.2381 54.9756 41.0605C55.1003 40.8467 55.1641 41.3173 55.8938 41.089C56.2528 41.0302 56.5817 41.0721 56.8555 41.3749C56.9964 41.5299 57.2168 41.6126 57.4007 41.7284C57.4802 41.8909 57.7018 41.9614 57.6919 42.1815Z" fill="#D14C38"/>
<path d="M59.6504 35.4764C59.6136 35.9447 58.551 36.6222 58.6055 37.2209C58.6122 37.3249 58.7667 37.5181 58.5252 37.5058C58.3432 37.4966 58.2997 37.2818 58.3536 37.1372C58.6098 36.4487 58.9273 35.8007 59.6504 35.4764Z" fill="#D14C38"/>
<path d="M57.691 42.1809C57.4515 42.1218 57.1924 42.0755 57.4001 41.7278C57.7221 41.7128 58.2507 41.4364 58.4908 41.7319C58.38 42.1618 58.0216 42.1473 57.691 42.1809Z" fill="#BF272A"/>
<path d="M53.4367 36.9256C54.0239 37.0227 54.5912 36.7993 55.1742 36.8163C55.9429 37.1126 53.2535 37.2668 53.4367 36.9256Z" fill="#D14C38"/>
<path d="M58.4917 41.732C57.5314 41.7431 58.5704 41.1198 58.6844 41.4689C58.7324 41.6286 58.6213 41.692 58.4917 41.732Z" fill="#D14C38"/>
<path d="M52.959 36.6092C53.148 36.6712 53.3195 36.7613 53.4407 36.928C53.2068 36.9334 52.9602 36.9572 52.959 36.6092Z" fill="#D14C38"/>
<path d="M52.6836 36.4515C52.7133 36.4814 52.7564 36.4985 52.819 36.4973C52.8117 36.4686 52.802 36.4424 52.7898 36.4186C52.7546 36.4308 52.7194 36.4418 52.6836 36.4515Z" fill="#D14C38"/>
<path d="M52.8125 36.4919C52.8586 36.5315 52.9047 36.5704 52.9514 36.61C52.8574 36.6277 52.8125 36.5863 52.8125 36.4919Z" fill="#D14C38"/>
<path d="M39.8894 31.7705C40.1479 33.9699 42.4473 33.3684 42.1455 36.2421C42.0984 36.3578 42.0946 36.3661 42.0602 36.2383C41.9488 33.2482 39.5768 33.8388 39.8022 32.1962C39.8436 32.0811 39.7404 31.5896 39.8894 31.7705Z" fill="#9AA4B4"/>
<path d="M39.2571 32.4947C39.2691 32.9325 38.9053 33.3417 38.4598 33.4168C38.3964 33.4269 38.3178 33.4441 38.3109 33.3697C38.3058 33.32 38.3603 33.2392 38.4097 33.2138C38.7273 33.0496 38.8648 32.7696 38.9554 32.4413C38.9922 32.3096 38.9047 32.0538 39.079 32.0697C39.2546 32.0849 39.24 32.3433 39.2571 32.4947Z" fill="#F7F7F4"/>
<path d="M39.8894 31.769C39.8639 31.7799 39.8377 31.7901 39.8116 31.7991C39.772 31.5877 39.8677 31.448 40.0476 31.3558C40.0464 31.5134 40.0425 31.6703 39.8894 31.769Z" fill="#F7F7F4"/>
<path d="M41.7669 38.0075C41.4784 38.0443 41.7489 37.6125 41.9072 37.6107C41.9078 37.76 41.9024 37.907 41.7669 38.0075Z" fill="#F7F7F4"/>
<path d="M41.8961 37.6011C41.8889 37.4723 41.9058 37.349 41.9539 37.2293C42.0647 37.2789 42.0316 37.3732 42.0087 37.4506C41.9955 37.4844 41.928 37.6144 41.8961 37.6011Z" fill="#F7F7F4"/>
<path d="M42.0606 36.238C42.0886 36.2454 42.1171 36.2472 42.1457 36.2423C42.2528 36.7626 41.945 36.7504 42.0606 36.238Z" fill="#F7F7F4"/>
<path d="M37.3809 34.8019C37.3846 34.6538 37.3951 34.5077 37.5048 34.3914C37.6293 34.4156 37.4756 34.925 37.3809 34.8019Z" fill="#F7F7F4"/>
<path d="M37.6792 34.1618C37.678 34.2447 37.604 34.5049 37.5059 34.392C37.5469 34.3502 37.6363 34.0888 37.6792 34.1618Z" fill="#F7F7F4"/>
<path d="M37.4175 34.8341C37.3953 34.8824 37.3947 34.9864 37.3281 34.9499C37.2701 34.9177 37.338 34.8458 37.3811 34.8031C37.3805 34.8031 37.4175 34.8341 37.4175 34.8341Z" fill="#F7F7F4"/>
<path d="M37.9445 33.7616C37.9433 33.8323 37.8635 34.0647 37.7842 34.0046C37.7817 33.9338 37.866 33.6852 37.9445 33.7616Z" fill="#F7F7F4"/>
<path d="M37.6523 34.1369C37.6971 34.1119 37.7656 33.977 37.806 34.0288C37.7606 34.0569 37.694 34.1981 37.6523 34.1369Z" fill="#F7F7F4"/>
<path d="M37.917 33.7377C37.9426 33.7145 37.9538 33.6813 37.9831 33.7245C37.9557 33.7515 37.9463 33.779 37.917 33.7377Z" fill="#F7F7F4"/>
</svg>
