<svg width="100" height="100" viewBox="0 0 100 100" fill="none" xmlns="http://www.w3.org/2000/svg">
<path d="M11.6436 22.9829C25.1704 0.535801 57.4287 -7.38112 78.7758 7.8702C77.591 10.6726 73.5997 11.5709 70.9045 11.9234C70.4808 11.979 70.4261 12.0384 70.4873 12.4635C71.0204 15.2253 69.9264 15.2857 72.5298 15.6203C74.69 15.9172 76.8298 17.1398 77.6846 19.2917C78.3605 21.0487 77.1979 23.3902 75.1192 23.6569C72.7671 23.8143 70.3992 23.6748 68.0425 23.7201C67.642 23.7182 67.2386 23.6616 67.2183 24.1829C66.4636 30.7283 59.6427 34.4403 53.7489 34.6722C53.3364 34.7438 52.8691 34.7825 53.0777 34.183C53.1547 33.8964 53.1936 33.5844 53.3716 33.3403C53.5348 33.1819 53.7499 33.1244 53.9492 33.0415C54.4211 32.8473 54.8532 32.5834 55.2435 32.2544C55.9852 31.6266 56.1289 30.7038 55.6273 29.8564C55.4576 29.4945 55.0766 29.2381 55.008 28.8356C55.0126 28.7734 55.0386 28.7168 55.0553 28.6574C55.3288 28.3671 55.6004 28.0805 55.7043 27.6677C55.8748 27.2577 55.7321 26.7411 56.0779 26.4216C56.7408 25.7881 56.8641 25.002 56.2337 24.2866C55.6459 23.6531 56.0974 22.6446 55.2166 22.1723C54.8615 21.9593 54.6158 21.6341 54.4313 21.2495C53.6655 19.5679 52.2934 19.4067 50.6968 19.3068C49.9412 18.6385 49.2144 17.957 48.1676 17.8533C47.2406 17.7081 46.2834 17.9768 45.5156 18.5197C45.336 18.6441 45.1603 18.7752 44.9271 18.7573C44.2104 18.5254 43.5677 18.0871 42.8076 17.9824C42.4884 17.8335 42.1322 17.9919 41.7907 17.9334C41.5746 17.8448 41.3791 17.9843 41.1656 17.9947C40.8524 18.0173 40.5443 18.1436 40.232 18.1314C39.6099 18.0663 38.9715 17.8608 38.3455 18.0352C36.9664 18.122 35.5426 19.2578 35.842 20.8065C36.0539 21.4701 35.4132 21.3805 34.994 21.3984C31.828 21.0261 33.2414 22.7859 31.9921 23.0131C31.5238 23.0923 31.0877 23.2865 30.7028 23.589C29.1901 24.871 31.9672 25.9173 29.248 26.9164C28.2504 27.4311 27.9665 28.4849 28.5628 29.4596C28.7613 29.7838 29.0298 30.0647 29.1493 30.438C29.6739 32.1017 24.7516 29.8649 24.1587 29.5915C23.1293 29.0825 22.1867 28.4303 21.3812 27.5961C20.5304 26.7157 19.8791 25.6958 19.4976 24.5071C19.3421 24.0226 19.3399 24.0349 18.8497 24.0952C16.5104 24.3827 14.2226 24.1961 12.0174 23.2855C11.8661 23.2233 11.6853 23.1913 11.6436 22.9829Z" fill="#FDF2C3"/>
<path d="M53.1109 34.5599C59.1535 34.5396 66.402 30.8499 67.0934 24.0726C67.13 23.6799 67.3742 23.5824 67.7134 23.5833C69.9743 23.5851 72.2362 23.5868 74.498 23.5771C76.125 23.5709 77.3388 22.5948 77.678 21.0293C78.1767 17.8609 74.7351 15.9337 72.1054 15.6828C71.7147 15.6278 71.3215 15.5773 70.9509 15.4284C70.7425 15.3459 70.5899 15.2103 70.5899 14.9621C70.3737 10.3727 69.3936 12.5685 74.0594 11.1581C75.9829 10.5916 77.6466 9.63333 78.7757 7.86742C90.9481 16.4638 97.3203 31.9111 97.4459 46.799C97.2575 46.8814 97.1189 46.7608 96.9872 46.6624C94.5135 44.8079 91.5384 43.8026 88.5171 43.4108C82.492 42.5181 74.8311 45.0756 73.8022 52.0337C73.7193 52.4947 73.599 52.5878 73.1543 52.477C72.3181 52.266 71.4636 52.1313 70.61 52.1366C67.3062 52.0275 63.7495 53.8307 62.8889 57.3332C62.8383 57.5176 62.8148 57.7152 62.6378 57.8319C61.3342 57.8524 61.2531 58.5168 60.8773 57.2499C60.5224 56.4778 59.8964 55.1924 58.8745 55.5372C57.652 55.9122 59.0471 59.0034 57.938 58.4443C56.6205 57.8568 55.2629 57.838 53.8808 58.1232C53.7282 58.1542 53.5739 58.2163 53.4187 58.1307C52.9975 57.5478 53.2521 57.1781 53.1763 56.5682C53.0307 55.9166 52.933 55.2571 52.9269 54.5869C52.926 54.4734 52.9069 54.3644 52.8554 54.2642C52.4805 53.5381 52.2721 52.7403 51.9268 52.0001C50.8648 49.4966 48.8506 47.4798 46.2417 46.7839C46.1397 46.7555 46.0699 46.682 46.022 46.5942C45.2302 44.9533 43.6555 45.1474 43.8718 44.2521C43.9406 43.8106 44.1944 43.4542 44.422 43.0898C44.5039 42.9578 44.6495 42.9533 44.796 42.9932C46.7762 43.6297 48.2463 43.8451 48.8872 41.402C49.2935 40.6387 49.5019 40.925 49.6571 39.894C50.8342 38.1423 52.6592 38.6813 52.9356 36.0759C53.0237 35.6911 52.7316 34.7452 53.1109 34.5599Z" fill="#FBC04B"/>
<path d="M11.6442 22.9816C14.0492 24.0888 16.6519 24.3006 19.2387 23.9141C19.3788 23.8952 19.4625 23.9323 19.5051 24.0798C20.6741 28.238 24.5987 30.0781 28.3979 30.9002C28.7812 30.9721 28.926 31.146 28.4818 31.32C27.6426 31.6127 27.0013 32.3607 26.7318 33.2229C26.6442 33.474 26.673 33.7516 26.5819 34.0027C26.4732 34.5359 26.9041 35.5993 27.2534 36.0349C28.1861 37.3002 29.3461 36.8608 28.9659 37.7124C28.8061 38.2108 28.8911 38.614 29.289 38.9649C30.1948 39.7643 31.074 40.5993 32.2174 41.0463C32.9755 41.2876 33.3675 41.3148 33.9225 41.9887C34.0779 42.1974 33.9284 42.4689 33.6859 42.4848C33.0938 42.5922 32.579 42.8312 32.2234 43.3553C31.8752 43.5285 31.4914 43.5943 31.135 43.7441C30.5489 43.9906 29.9872 44.2841 29.4605 44.6456C29.1717 44.8876 28.8048 44.8839 28.4564 44.9481C27.6298 45.0949 27.2328 45.7809 26.7585 46.392C26.2059 46.5659 25.7669 46.9244 25.3433 47.3086C25.0228 47.6989 24.7066 47.568 24.6726 47.0764C24.5803 45.8338 22.5868 41.4865 21.0973 43.2623C20.4395 44.303 20.3906 45.7317 20.922 46.8367C21.1239 47.149 20.8545 47.3782 20.5718 47.1468C20.1203 46.8737 19.6687 46.5977 19.1218 46.5863C16.6674 46.6302 17.891 49.6048 19.2288 50.4315C19.6258 50.7363 20.0678 50.9639 20.4997 51.2082C20.6612 51.3232 21.0363 51.4215 20.9817 51.6726C20.8996 51.8564 20.6655 51.7316 20.5254 51.696C19.1339 51.178 17.0815 50.8671 16.3013 52.5121C15.8721 53.791 17.7904 55.8414 18.7592 56.5199C19.1652 56.8095 19.5854 57.0735 20.0305 57.2958C20.6406 57.5492 20.3647 57.9485 19.8054 57.829C19.0599 57.7678 18.3142 57.7171 17.5653 57.7156C17.0854 57.7156 17.0493 57.6332 17.0506 57.1438C17.0691 56.3066 16.6579 53.7706 15.409 54.7554C13.7988 55.883 14.3074 57.7428 13.4319 56.991C13.196 56.8042 12.9339 56.6651 12.6568 56.5554C12.5271 56.504 12.3952 56.4586 12.3272 56.3187C10.4313 55.1917 9.40407 56.5758 9.41821 55.374C9.14073 52.2391 7.44671 46.0388 3.30503 48.1875C2.94587 48.3735 3.09927 48.0256 3.10358 47.9326C3.60319 39.0216 7.00803 30.451 11.6442 22.9816Z" fill="#FBC04B"/>
<path d="M62.6445 57.7788C63.7078 52.7015 69.0242 51.2376 73.2877 52.3888C73.5367 52.4527 73.6285 52.3755 73.6678 52.133C75.6274 41.2233 90.349 41.2491 97.4459 46.7998C97.729 51.6267 97.1043 56.4739 95.9598 61.1544C95.7553 61.9581 95.5203 62.7531 95.2993 63.552C95.0171 63.8324 94.637 63.79 94.2963 63.8481C92.3838 64.1766 90.4678 64.4863 88.5457 64.7545C86.2584 65.0808 83.9694 65.273 81.6655 65.1948C81.3081 65.19 80.956 65.2105 80.6127 65.3162C80.4912 65.3529 80.2702 65.3914 80.2073 65.2481C80.1653 65.1276 80.2702 65.0602 80.3549 65.0205C81.7135 64.4513 83.2818 63.6512 83.5884 62.0236C83.7186 60.5035 81.1552 61.8782 80.5471 62.2115C80.2981 62.401 79.9635 62.3495 80.1129 61.9725C80.458 61.2527 80.5533 60.4643 80.7088 59.6924C80.7979 59.2438 80.9202 58.8079 81.1133 58.3947C81.2199 58.1653 81.2181 57.9474 81.0897 57.7295C80.4231 56.5832 78.0379 59.2674 77.7112 59.9741C77.4167 60.5748 76.7388 59.8086 76.2399 59.8483C74.5257 59.7911 74.4585 61.7288 74.9958 62.9785C75.2491 63.7922 74.1754 63.0056 73.2606 63.3087C72.0314 63.6498 73.0265 64.5584 73.5254 65.0921C73.5787 65.1786 73.6363 65.2725 73.5603 65.3709C73.3436 65.5543 72.9688 65.242 72.7321 65.1878C71.6251 64.7322 70.4098 64.4854 69.2461 64.8454C68.5288 64.9497 68.9447 64.029 69.0041 63.6403C69.6445 61.0867 67.6018 60.5556 68.5384 59.8763C69.101 59.3626 69.6908 58.8681 70.1896 58.2908C70.2237 58.1667 70.0376 58.1701 69.9625 58.1387C69.6384 57.971 69.3055 58.2204 68.9586 58.1287C68.3505 57.9439 67.7346 58.147 67.1152 58.0745C66.5953 57.912 66.0571 58.0151 65.5294 58.0391C65.1319 58.0164 64.7475 57.8788 64.3465 57.9268C64.0031 57.9544 63.6615 57.8623 63.3181 57.9243C63.0989 57.964 62.7441 58.0409 62.6445 57.7788Z" fill="#FDF2C3"/>
<path d="M94.8784 95.5586C96.1879 95.781 101.111 96.0038 99.3577 97.9934C98.7182 98.5577 97.9123 98.7381 97.1145 98.8718C94.7863 99.2623 92.4447 99.5532 90.087 99.6794C76.2636 100.198 62.4124 100.07 48.5944 99.4139C35.6518 98.7342 22.741 97.3631 9.76533 97.5264C8.84595 97.5924 0.037711 97.1958 2.74005 96.4414C4.95528 96.054 7.21254 96.1741 9.4496 96.1378C9.51874 96.1374 9.61194 96.1806 9.65362 96.0736C7.04886 95.6587 4.36361 96.1453 1.75448 95.6019C1.30637 95.5198 0.864341 95.4049 0.474191 95.149C-0.0748088 94.8956 -0.157366 93.8561 0.566137 93.8958C2.23308 93.8451 3.89189 94.0159 5.55669 94.0692C6.43314 94.2059 5.04463 92.5831 6.91094 92.0809C8.47092 91.5698 9.80657 92.5871 9.50282 91.748C9.30354 91.2545 9.75335 90.7032 10.2629 90.9382C11.4396 91.7852 11.5384 90.5451 12.1188 91.1465C12.7616 91.8882 13.5336 90.5634 14.5639 91.1068C15.158 91.4248 14.2631 90.3612 14.2202 90.2101C14.1326 90.0348 14.0943 89.8571 14.2619 89.7143C14.5454 89.4155 15.1254 90.176 15.3583 90.355C15.5821 90.5844 15.8227 90.7941 16.0642 91.0015C16.3353 91.2335 16.6458 91.3296 17.0012 91.2256C17.3603 91.1413 17.0467 90.788 17.0377 90.5604C16.9535 90.1026 17.3345 89.9776 17.5751 90.3617C17.7066 90.7137 17.9584 90.7849 18.3029 90.7408C19.2735 90.5923 19.8929 91.4502 20.2251 92.2718C20.3441 92.5714 20.537 92.8077 20.8279 92.9501C20.937 93.0038 21.0409 93.0733 21.0745 93.1982C21.2429 93.825 21.7537 93.9338 22.2667 94.0106C22.695 94.0748 23.1071 93.9399 23.5147 93.8184C23.6475 93.7791 23.779 93.7302 23.9199 93.7826C24.1038 93.8896 24.1308 94.0901 24.1906 94.2693C24.5587 95.549 25.7115 96.4366 27.0128 96.4449C27.9838 96.5096 28.9126 96.3109 29.8136 95.9478C29.9862 95.8779 30.1546 95.7827 30.3514 95.8033C35.2106 97.5041 40.669 97.4452 45.3289 95.1223C45.5659 95.0136 45.7967 94.9913 46.048 95.0519C52.0988 96.3431 57.1675 91.3868 61.4411 87.7024C61.806 87.3782 62.1522 87.0306 62.5484 86.7445C62.7148 86.675 62.8588 86.7497 62.9983 86.8262C64.2621 87.5167 65.551 88.1566 66.8166 88.8438C67.0143 88.9512 67.237 89.0329 67.3408 89.2662C67.3837 89.4675 67.2889 89.6422 67.237 89.8248C67.1529 90.2878 66.7138 91.0269 67.322 91.2877C67.9516 91.4986 68.6421 91.7441 68.44 92.5893C68.389 92.8885 68.2933 93.1772 68.2227 93.472C68.1493 93.6481 68.2799 93.6743 68.347 93.5289C69.3505 92.252 68.6055 91.2212 69.0536 91.037C69.7718 90.8779 69.8845 91.9118 69.8183 92.436C69.7995 92.7684 69.8013 92.7696 70.1162 92.6443C70.4757 92.501 70.8075 92.298 71.1635 92.1481C71.3737 92.0599 71.5866 91.9804 71.7968 91.8917C71.8487 91.8699 71.9301 91.8637 71.9372 91.7995C71.9444 91.7322 71.8657 91.7135 71.8156 91.6881C71.3916 91.4728 70.9766 91.2361 70.541 91.0465C70.0115 90.8163 69.5205 90.5167 69.0294 90.2153C68.9105 90.1423 68.7969 90.0589 68.7504 89.913C69.2548 88.106 72.4086 86.0487 73.9935 87.7522C74.3209 88.0898 74.3289 88.0881 74.5928 87.712C74.8897 87.3905 75.8002 85.6446 76.0784 85.8591C76.2841 85.9656 76.1366 86.1727 76.1035 86.3378C76.0883 86.468 74.1429 89.6339 75.1867 88.9455C75.811 88.6883 76.5981 88.3663 77.2045 88.838C77.2859 89.0206 77.209 89.1814 77.1392 89.343C76.6383 90.2484 76.1527 91.1635 75.6482 92.0677C75.48 92.3692 75.5158 92.4631 75.8262 92.6002C76.9058 93.0698 78.0524 93.379 79.0855 93.9574C80.1087 94.347 78.4835 96.1309 79.4289 98.3275C79.5622 98.6407 79.7384 98.867 80.1078 98.8391C82.2321 99.0395 84.3912 98.8565 86.5262 98.9168C90.2649 98.9976 91.9635 99.077 94.5072 95.8142C94.6038 95.6945 94.6834 95.5337 94.8784 95.5586Z" fill="#2D3E47"/>
<path d="M91.5273 70.3549C91.5584 72.6241 90.9561 74.8858 90.7177 77.0799C90.8146 77.1694 90.9178 77.0497 91.0086 77.0013C91.6927 76.6348 92.4125 76.5251 93.1616 76.7082C93.9347 77.0768 94.3795 71.8095 94.4827 71.1464C94.4916 71.0547 94.4391 70.9004 94.5637 70.8908C94.6722 70.883 94.6731 71.0424 94.6989 71.1337C95.2327 73.0399 95.0227 75.0059 94.5281 76.8895C94.1918 77.7084 96.4035 77.3328 96.7665 79.4229C97.0938 80.7516 95.9978 81.9629 96.7389 81.7964C99.7255 81.4955 98.8954 84.4867 99.6116 86.3069C100.061 87.4063 99.0751 88.3559 99.487 88.9137C100.333 90.2201 99.9933 91.932 99.4692 93.2974C99.0209 94.4562 98.0538 94.773 96.9524 94.7991C96.4604 94.8109 95.9667 94.7685 95.4738 94.7506C95.359 94.5261 95.5156 94.3649 95.6054 94.1954C96.1215 93.2292 96.6606 92.2749 97.0796 91.258C97.6944 89.7995 98.3483 87.7819 97.0049 86.5361C95.8635 85.8233 94.625 85.7813 93.4961 86.4807C91.6794 87.5849 89.7613 88.3887 87.6893 88.8145C87.1279 88.9298 86.5888 89.1312 86.1048 89.4614C86.0309 89.5121 85.95 89.5523 85.8575 89.5527C84.7712 89.8742 83.7757 89.5999 82.8219 89.0626C81.3157 88.1768 79.7544 87.3246 78.4181 86.1828C78.3692 86.095 78.3541 86.0015 78.3736 85.9024C78.5364 84.5159 77.3354 83.2633 76.1513 83.4231C75.6059 83.6253 75.2011 83.0601 74.8043 82.7736C74.0979 82.2224 73.3996 81.6593 72.7216 81.07C72.4014 80.7913 72.3551 80.6547 72.4957 80.2511C73.9814 76.2412 72.2323 73.2671 68.1835 72.5075C68.0723 72.3563 68.1007 72.179 68.1016 72.0099C68.1034 71.6954 68.0945 71.3862 67.9922 71.0835C67.7484 70.3645 66.8526 69.8927 66.1426 70.1208C65.922 70.1911 65.704 70.2776 65.527 70.0334C65.4238 69.7343 66.0545 68.5029 66.2378 68.2862C68.9806 67.6546 71.6362 68.6347 73.323 70.9817C73.4645 71.1739 73.5161 71.163 73.6344 70.9477C74.6575 68.2648 77.5347 69.7067 77.4697 72.0235C77.4902 72.5564 77.4929 72.5673 77.9893 72.6997C79.5551 73.1762 79.8442 75.0981 79.6387 76.5404C79.6129 76.685 79.6841 76.7235 79.8095 76.6955C80.467 76.533 81.1565 76.4832 81.7748 76.8078C81.9136 76.8754 82.0408 76.9672 82.0292 77.1463C82.0177 77.3301 81.87 77.3961 81.725 77.435C81.2775 77.5551 80.8246 77.6525 80.3958 77.8443C79.3229 78.2929 78.6147 79.3215 78.4021 80.4441C78.4599 80.521 78.5667 80.4564 78.6485 80.4354C80.4359 79.8523 82.459 79.8601 83.4367 81.7733C83.66 82.1694 83.8504 82.5792 84.0096 83.0055C84.0764 83.1898 84.1858 83.5166 84.4189 83.4362C84.5977 83.3658 84.4669 83.1846 84.4304 83.0641C84.3068 82.6482 84.1724 82.235 84.0194 81.8288C83.7481 81.1072 83.3557 80.4739 82.7686 79.9785C82.6431 79.8724 82.5177 79.754 82.5888 79.5688C82.6573 79.3914 82.8264 79.3731 82.9874 79.3644C83.9322 79.3154 84.6813 79.7527 85.353 80.3746C85.8779 80.8682 86.3094 81.4549 86.7791 81.9982C86.8307 82.0467 86.8859 82.0939 86.9624 82.0664C87.3601 81.6711 86.4918 80.4039 86.1564 80.1007C85.4269 79.4875 86.0087 78.3907 84.9082 78.1007C84.337 77.9439 83.8833 77.9259 83.6982 77.2559C83.5959 76.9397 83.5016 76.6173 83.2783 76.3596C83.0559 75.8909 82.918 75.3899 82.7508 74.8998C82.4581 74.2734 82.3691 73.5654 82.1974 72.8918C82.1556 72.6935 82.1538 72.507 82.3913 72.4284C82.8442 72.424 83.5479 74.0476 83.7347 74.459C84.1324 75.3816 84.5292 76.3037 84.8824 77.2454C84.9767 77.4573 85.0906 77.8299 85.2845 77.4686C85.7747 76.751 85.8486 75.9778 85.5639 75.1601C85.1475 73.6226 84.5603 72.151 83.9998 70.6663C83.7329 69.9644 83.3673 69.3114 83.0942 68.6138C82.8308 67.9779 83.4394 68.1613 83.7365 68.4176C85.3931 70.2365 86.1653 72.7158 86.8494 75.0514C86.9775 75.5257 87.2071 75.6506 87.6608 75.5319C87.8645 75.4786 87.9108 75.382 87.8281 75.1876C87.1804 73.5667 86.45 71.9824 85.3806 70.6052C85.2738 70.4318 85.0238 70.2007 85.1751 69.9924C85.3717 69.8495 85.6164 70.0784 85.7916 70.1723C87.9793 71.6854 89.4677 75.1095 89.473 77.4848C90.0077 74.394 90.562 71.2577 90.4276 68.108C90.4721 67.5149 90.0655 64.8643 90.513 64.7014C91.2328 64.5337 91.9134 69.9216 91.5273 70.3549Z" fill="#354E52"/>
<path d="M11.8571 91.0407C10.6709 91.9911 10.2236 90.6187 9.7609 91.0931C9.23547 91.5369 9.93662 91.8256 9.65693 92.1873C9.48852 92.3611 9.24406 92.2384 9.03698 92.1877C8.292 92.0056 7.55089 92.013 6.82009 92.2502C6.11378 92.4791 5.84311 92.9359 6.00981 93.6588C6.10604 94.0751 6.01281 94.2324 5.57588 94.2092C3.75941 94.114 1.93864 93.9284 0.120019 94.0812C-0.404129 92.4253 1.00634 91.3665 0.216685 89.1768C-0.0191813 88.4207 0.100684 87.6533 0.410446 86.9256C0.526446 86.653 0.587883 86.3726 0.599483 86.0738C0.672091 84.5162 2.23079 82.9572 3.69625 82.9734C3.77401 82.8729 3.36888 82.437 3.32634 82.2164C3.21464 81.9827 2.48341 81.1034 2.65225 80.9388C2.76353 80.8112 2.89328 80.9908 3.01916 81.0178C3.27908 80.9405 3.53772 81.4459 3.68981 81.0567C3.93856 80.4417 4.40128 79.9953 4.84594 79.5353C5.20168 79.4065 5.50113 79.192 5.76019 78.9129C6.15244 78.5346 7.21835 78.3285 7.76656 78.3228C8.44538 78.4001 9.26468 78.7539 9.62729 77.9179C9.83952 77.5217 10.9063 75.9584 11.3196 76.1217C11.6001 76.2606 12.0556 76.372 12.0457 76.766C11.9507 77.0814 11.6762 77.2587 11.4923 77.5055C11.2556 77.8222 11.0584 78.1559 10.9127 78.5241C10.8354 78.7185 10.893 78.8098 11.1005 78.8102C11.9164 78.8172 12.7528 78.7438 13.5365 79.0247C14.0864 79.1876 13.8763 79.6 13.387 79.5995C12.0818 79.8717 10.7284 80.4648 10.0028 81.6713C9.80129 81.9251 10.0204 82.1007 10.2502 81.9146C11.0519 81.3232 11.8949 80.775 12.8787 80.5723C13.3801 80.4592 15.4019 80.3443 14.5792 81.3092C14.0228 81.6656 13.4742 81.4485 12.9762 82.1837C12.8491 82.3658 12.6781 82.461 12.4495 82.4702C11.3419 82.5161 10.4062 83.3338 10.3641 84.5585C10.325 85.7086 10.1884 86.8552 10.1437 88.0066C10.1205 88.6003 10.3392 89.0637 10.8461 89.3817C11.2994 89.6661 11.6994 90.0098 11.8691 90.5562C11.9185 90.7148 12.0023 90.883 11.8571 91.0407Z" fill="#354E52"/>
<path d="M12.326 56.3186C12.814 56.435 13.2616 56.6392 13.6299 56.994C14.1222 57.5491 13.6638 55.7861 15.4605 54.5395C16.7537 53.6728 17.2667 56.4214 17.1529 57.3132C17.1429 57.4845 17.1185 57.5989 17.3492 57.6047C18.3442 57.6286 19.3391 57.668 20.3339 57.7023C18.7326 56.6243 17.054 55.6963 16.2463 53.5681C15.9718 52.9154 16.0564 52.4236 16.5484 51.9105C17.3277 51.0975 18.2922 51.0535 19.3048 51.2325C19.8222 51.3243 20.3206 51.4872 20.8151 51.663C20.9492 51.6972 20.9817 51.6584 20.8653 51.5647C19.3919 50.7899 17.5889 49.6919 17.5709 47.7808C17.6791 46.0986 19.6926 46.2246 20.7115 47.0958C20.7681 47.1359 20.8272 47.2367 20.906 47.1604C20.3575 45.948 20.257 44.7098 20.8221 43.4864C22.2295 40.9208 24.479 45.2113 24.7149 46.6557C24.7854 46.9323 24.7543 47.2367 24.931 47.4829C25.3499 47.194 26.8373 45.5752 26.9117 46.7947C26.8996 47.1197 27.0375 47.5644 26.7178 47.7679C23.6641 50.3892 22.7545 54.6519 21.9415 58.4642C21.9027 58.9935 21.5035 58.9509 21.119 58.8546C18.2566 58.4442 15.5679 60.3281 14.179 62.7916C13.7545 63.529 12.4939 64.0137 11.9247 63.2466C11.3155 62.4872 10.424 62.1098 9.52648 61.8216C8.49882 61.4959 11.8392 59.6553 12.2435 59.7083C12.4514 59.6676 12.4497 59.506 12.3998 59.3264C12.2129 58.6568 12.0239 57.9873 11.8555 57.312C11.7421 56.8589 11.9178 56.5248 12.326 56.3186Z" fill="#487368"/>
<path d="M9.31069 61.6119C10.2917 61.9137 11.2588 62.2674 11.9456 63.0895C12.2589 63.4648 12.5669 63.6163 13.0101 63.4643C13.3936 63.3323 13.7607 63.2469 14.0166 62.8142C15.5423 60.0477 18.5741 58.1011 21.7415 58.8129C22.0032 58.913 21.5904 60.4041 21.5579 60.6875C21.4233 60.985 21.01 61.038 20.7605 61.2192C19.754 61.8396 18.6581 61.6735 17.541 61.6757C17.333 61.6416 17.1223 61.5946 16.9563 61.7909C16.4711 62.0364 15.9721 62.2549 15.5418 62.6022C14.4454 63.4854 13.6862 64.6023 13.3016 65.9825C13.2585 66.1356 13.2378 66.3038 13.0915 66.4044C12.8468 66.4926 12.6052 66.4071 12.3643 66.3833C11.761 66.3249 11.1849 66.4196 10.6529 66.7149C10.1651 66.9858 10.031 67.4677 10.2427 68.0778C10.2922 68.2195 10.3667 68.3558 10.3156 68.5149C10.2076 68.7198 9.99642 68.7772 9.81448 68.8702C8.50943 69.5365 7.60682 70.5723 7.09383 71.9704C7.00275 72.2176 6.9512 72.4756 6.88933 72.7298C6.86656 73.0224 6.65643 73.1159 6.40555 72.9748C5.71557 72.5875 5.1188 73.2198 5.30999 73.9483C5.42298 74.4941 5.59785 75.0209 5.78558 75.5439C6.06828 76.0701 5.78175 76.4255 5.23998 76.1285C5.01745 76.0387 4.74072 76.0674 4.57921 75.8332C3.58292 72.2219 2.8723 68.5278 2.55694 64.7872C2.4465 63.6623 3.84752 63.6558 4.62645 63.6195C4.85116 63.6184 4.96846 63.5579 4.92979 63.3102C5.21035 62.6005 6.19978 62.0029 6.86268 61.7006C7.65405 61.5556 8.50001 61.5967 9.31069 61.6119Z" fill="#2D3E47"/>
<path d="M86.5829 74.3287C85.7464 72.3046 85.1788 70.1455 83.6828 68.48C83.6296 68.3092 83.7584 68.2213 83.8443 68.117C84.1929 67.6915 84.5673 67.2879 84.9005 66.8486C85.5223 66.1095 84.3879 65.6355 83.8391 65.4158C83.7034 65.356 83.5222 65.339 83.499 65.131C87.4614 64.8441 91.3817 64.2133 95.2977 63.5511C94.8305 65.4241 94.2741 67.2652 93.502 69.0347C93.18 69.9084 92.268 70.0315 91.526 70.3529C91.4727 68.5499 91.3851 66.7171 90.7144 65.021C90.6758 64.9122 90.6457 64.7331 90.5247 64.7488C90.4285 64.761 90.4645 64.9419 90.4585 65.0476C90.4044 65.9789 90.4937 66.9062 90.5341 67.8353C90.5178 68.8871 90.8536 70.7544 90.158 71.5791C89.6186 72.0486 89.0793 72.5164 88.5426 72.9882C88.4387 73.0786 88.3365 73.1804 88.1845 73.1777C87.9741 72.8488 87.7671 72.5182 87.5533 72.1915C87.0088 71.3581 86.363 70.6277 85.5008 70.1276C85.4046 70.0716 85.2741 69.9459 85.1891 70.0424C85.123 70.1171 85.2629 70.2311 85.3248 70.3163C86.1226 71.4279 86.9204 72.5719 87.3764 73.8823C87.1832 74.1649 86.9187 74.3148 86.5829 74.3287Z" fill="#FBC04B"/>
<path d="M4.58022 75.8336C4.89364 75.9176 5.20751 76.0024 5.52093 76.0869C5.77765 76.2153 5.88435 76.0642 5.758 75.8245C5.59683 75.3257 5.42271 74.8313 5.27091 74.3298C4.83024 73.1373 5.63344 72.2726 6.75094 72.9907C7.20813 72.9916 7.42689 73.529 7.77514 73.766C7.91309 73.9998 8.01802 74.2512 8.14258 74.4913C8.26804 74.7337 8.2917 74.736 8.44752 74.5018C8.69129 74.1672 9.29268 73.268 9.75209 73.49C9.94898 73.6257 9.82844 73.8209 9.77442 73.9852C9.61547 74.4664 9.54359 74.9652 9.45474 75.4618C9.41233 75.6992 9.51769 75.7759 9.72709 75.7709C10.1142 75.7719 10.9321 75.7596 11.087 76.2008C10.5481 76.8794 9.95925 77.514 9.5293 78.2838C9.36099 78.5839 8.99533 78.6819 8.65959 78.5948C7.93274 78.4073 7.22375 78.4023 6.51699 78.6792C5.73121 78.957 5.37984 77.9965 4.47977 78.5571C4.4119 78.5998 4.33645 78.6256 4.25877 78.5748C2.85418 78.2162 2.94526 75.8304 4.58022 75.8336Z" fill="#659271"/>
<path d="M96.9237 86.363C99.4734 88.458 96.4868 92.4871 95.4733 94.7501C94.1458 96.5179 92.6547 98.493 90.3863 98.9172C90.0812 98.9726 89.8671 98.9639 90.1307 98.6153C93.7735 95.9897 95.7749 91.7541 96.6106 87.3437C96.7097 87.0637 96.6619 86.5125 96.9237 86.363Z" fill="#FBC04B"/>
<path d="M7.17874 61.6523C6.79034 61.9081 6.35171 62.0662 5.96844 62.3389C5.57709 62.6171 5.30683 63.0223 4.93003 63.3108C4.40291 62.5904 2.26465 59.0767 3.10755 58.408C3.88863 57.7132 6.98756 60.751 7.17874 61.6523Z" fill="#487368"/>
<path d="M4.86395 79.607C4.55032 80.018 4.18041 80.3902 3.91318 80.8357C3.58666 81.4215 3.58709 81.4219 3.01912 81.0179C3.11665 80.896 3.00924 80.8156 2.96112 80.7243C2.80259 80.4238 2.61012 80.1347 2.55856 79.7913C2.38972 78.7474 3.29752 78.6168 4.09191 78.8151C4.25087 79.1174 4.45709 79.3668 4.78447 79.4882C4.82829 79.5044 4.85321 79.5559 4.86395 79.607Z" fill="#659271"/>
<path d="M4.86334 79.6068C4.48226 79.4697 4.05263 79.3827 4.0913 78.8149C4.22749 78.7935 4.29021 78.7188 4.25756 78.5742C4.88912 78.1081 5.66116 78.1776 6.11013 78.7411C5.72174 79.0704 5.43088 79.5487 4.86334 79.6068Z" fill="#487368"/>
<path d="M3.32601 82.2168C3.5159 82.354 3.64135 82.5484 3.7552 82.7484C4.06153 83.0987 3.9524 83.1813 3.51246 83.1031C2.91786 83.0979 3.40248 82.7821 3.32601 82.2168Z" fill="#659271"/>
<path d="M26.5265 33.683C26.576 32.9512 26.9811 32.2856 27.5147 31.8038C27.6788 31.8369 27.6577 31.9734 27.6568 32.0885C27.6492 32.8156 27.7544 33.5198 28.0453 34.187C28.8521 36.369 31.8402 35.5426 30.6639 33.8621C29.4802 32.732 30.0478 32.1547 30.9676 31.1485C31.4724 30.3496 31.155 29.9593 32.2302 29.4609C32.5263 29.3221 32.8326 29.207 33.1206 29.0508C33.4619 28.8655 33.4782 28.7945 33.2602 28.4759C32.418 27.2504 34.4129 27.6976 34.5967 26.3964C34.6634 26.0628 34.5998 25.9445 34.2794 25.8869C32.7514 25.4374 33.2238 23.1797 34.4555 22.7112C34.7689 22.5614 35.0838 22.4171 35.3979 22.2696C35.4972 22.2231 35.5942 22.1766 35.6834 22.1111C36.0456 21.8446 36.0813 21.5142 35.7757 21.2105C35.5321 19.4685 36.1806 18.4031 37.7024 18.0467C38.2865 17.8708 38.9194 17.8795 39.5275 17.9308C39.806 17.9591 40.0899 18.0853 40.3706 18.0341C40.8135 17.9268 41.2634 17.8692 41.7195 17.8117C42.8644 17.7194 43.9456 18.1248 44.9346 18.6768C45.0827 18.7004 45.1851 18.784 45.2503 18.922C45.6552 19.907 46.7395 20.0292 47.4958 20.6049C47.6083 20.7311 47.7075 20.5931 47.637 20.474C47.5291 20.2043 47.3608 19.9858 47.1095 19.8392C47.0001 19.7753 46.852 19.7264 46.8605 19.5695C46.8698 19.3999 47.0242 19.3518 47.1537 19.3061C47.4423 19.2028 47.7231 19.0774 48.0225 19.0048C49.6963 18.6468 49.5334 19.6909 50.541 20.3186C51.5214 20.7271 51.1662 22.3367 52.5631 21.8493C53.0378 21.6285 53.6902 21.5583 53.8996 22.1679C54.0625 22.5283 53.6002 22.5165 54.0609 22.9273C54.5814 23.4959 54.4728 24.35 54.8466 25.0029C55.5137 26.267 54.4053 27.3206 54.4441 26.3735C54.4472 26.1322 54.4348 25.8925 54.4084 25.6527C54.4247 25.8641 54.4247 26.0786 54.448 26.2876C54.6147 27.9373 53.3822 27.7315 53.0254 28.9562C52.8866 29.3513 53.4055 29.5043 53.6599 29.6643C54.2781 29.9388 55.5959 31.4087 54.8389 31.9773C53.5529 33.2477 52.8416 31.9197 53.3768 33.1334C53.5397 33.366 53.3279 33.6239 53.2674 33.8581C53.2403 33.9464 53.2015 34.0308 53.1759 34.1199C53.172 34.1365 53.1674 34.1523 53.1627 34.1688C53.1154 34.2201 53.1681 34.3068 53.0999 34.351C53.0456 34.4425 53.1208 34.5671 53.0479 34.6443C53.217 36.2018 52.9098 38.003 51.312 38.6426C51.0258 38.7687 50.7605 38.943 50.4852 39.0952C50.2959 38.9619 50.3828 38.7892 50.4332 38.6323C50.797 37.5062 51.1158 36.3178 51.0196 35.1191C50.9637 34.9969 50.8528 35.0323 50.7605 35.0308C50.3083 35.0221 49.9298 34.8218 49.5714 34.5631C49.4628 34.2043 49.5932 34.0245 49.9469 34.0758C50.223 34.0718 51.0684 34.388 51.0956 33.993C51.1995 33.2919 51.3306 32.5971 51.5346 31.9182C51.5874 31.7431 51.5106 31.7029 51.3469 31.7541C51.0863 31.8346 50.8435 32.0049 50.5503 31.9308C50.3378 31.6934 50.3812 31.4127 50.6612 31.1942C50.8505 31.046 51.0964 31.001 51.2763 30.8378C51.3159 30.8125 51.3585 30.7968 51.4043 30.7889C51.6928 30.7589 51.6975 30.7447 51.5331 30.4119C51.4377 29.5342 51.1747 28.6944 51.0087 27.8324C50.8551 27.2804 50.8094 27.2291 50.2478 27.2481C48.757 27.2946 46.9714 27.0091 46.0988 25.6204C46.0197 25.4138 45.8832 25.4004 45.8475 25.6433C45.7428 25.9485 45.6528 26.2592 45.545 26.5636C45.1937 27.3309 44.4087 27.7528 43.6757 28.058C43.1855 28.1818 42.3811 28.2504 42.3935 28.927C42.399 29.3205 42.3043 29.6872 42.1764 30.05C42.1802 30.2053 42.1205 30.3544 42.0135 30.4648C41.431 30.9245 40.7786 31.2944 40.2807 31.8669C40.0387 32.1398 39.8114 31.7297 39.7354 31.516C39.4717 30.9742 39.1218 30.5034 38.6789 30.1044C37.6729 29.1115 36.4559 29.9877 36.4575 29.0066C36.2224 26.0289 37.4185 22.9344 39.8928 21.265C40.9826 20.4771 42.2314 19.9709 43.5694 19.8802C43.7463 19.9251 43.9208 19.9054 44.0922 19.8502C44.5196 19.7572 44.6026 19.6491 44.5025 19.3163C44.4033 19.1594 44.2101 19.116 44.0519 19.049C38.8713 18.355 35.3072 22.8319 35.1939 27.8703C35.1513 28.524 35.2032 29.1612 35.256 29.8047C35.2777 30.0626 35.1885 30.2826 35.0365 30.4782C33.9459 31.8945 34.2383 33.9338 34.9682 35.4542C35.3894 36.2097 36.0386 36.9021 36.9229 36.9991C37.085 37.0985 37.2835 37.0141 37.4402 37.1324C37.7621 37.3619 38.3896 37.1718 38.4144 37.7246C38.4532 39.3728 38.2004 42.2701 36.0689 42.1723C35.6423 42.1502 35.2203 42.2007 34.803 42.2946C34.7386 42.304 34.6735 42.304 34.6083 42.2953C34.3562 42.2015 34.0661 42.2181 33.8521 42.017C33.3921 41.5217 32.7734 41.3727 32.1723 41.1495C30.8804 40.6708 29.8923 39.7214 28.9428 38.7474C28.609 38.4052 28.7666 37.9431 28.9032 37.5385C28.9638 37.3595 28.9513 37.2964 28.7589 37.2294C27.1632 36.6821 26.3056 35.2405 26.5265 33.683Z" fill="#0B0D13"/>
<path d="M35.7762 21.21C35.9023 21.2569 36.119 21.134 36.1454 21.3551C36.1824 21.6714 36.0895 21.9877 35.8275 22.1611C35.5081 22.373 35.1525 22.5373 34.7969 22.6831C33.4355 23.0324 32.7439 25.4298 34.4465 25.7776C34.6527 25.8098 34.7297 25.915 34.7387 26.1199C34.7667 26.7555 34.3778 27.2944 33.7013 27.5432C32.2456 27.9807 34.177 28.5541 33.3306 29.0808C32.987 29.2573 32.6291 29.4039 32.2811 29.5721C31.0768 30.101 31.6461 30.7112 30.8699 31.4758C29.1421 33.1293 30.7911 33.2176 31.0564 34.3852C31.1387 35.0577 30.6729 35.5897 29.9777 35.6334C28.1557 35.7946 27.4155 33.5377 27.5555 31.9763C27.4133 31.5518 28.1797 31.3522 28.4629 31.1987C28.566 31.1511 28.691 31.1373 28.7546 31.0206C29.1507 30.917 29.1584 30.6583 28.9909 30.3535C27.9753 29.0401 27.6023 27.5301 29.3595 26.7233C31.6846 25.918 29.109 24.8103 30.55 23.5598C31.4067 22.74 32.4661 23.057 32.4555 22.5373C32.5748 21.3613 33.5767 21.1479 34.5606 21.2254C34.6957 21.2707 34.8422 21.253 34.9811 21.2937C35.2477 21.3536 35.5127 21.2423 35.7762 21.21Z" fill="#1A272D"/>
<path d="M53.428 33.4224C53.147 33.1721 53.1773 32.7545 52.935 32.4704C52.8302 32.3488 53.0127 32.3488 53.0818 32.3772C53.8434 32.689 54.3613 32.2367 54.88 31.7828C54.9941 31.6834 55.0088 31.576 54.9576 31.4323C54.7014 30.7108 54.2821 30.1338 53.6051 29.7762C52.7153 29.3081 52.595 28.6569 53.4304 28.079C54.3908 27.4152 54.4467 26.554 54.2852 25.5554C54.2681 25.4528 54.1851 25.302 54.3388 25.2752C54.4871 25.2491 54.5174 25.4196 54.5228 25.5341C54.5383 25.8277 54.5282 26.1214 54.5352 26.415C54.5376 26.4971 54.4871 26.6242 54.6067 26.6455C54.7037 26.6629 54.7456 26.55 54.7876 26.4703C55.0189 26.0322 54.9871 25.5814 54.7806 25.1575C54.3093 24.3855 54.5189 23.2559 53.6687 22.7547C53.609 22.7215 53.484 22.6291 53.5996 22.5905C53.8916 22.4926 53.9024 22.3394 53.751 22.1192C53.5833 21.8729 53.3861 21.6882 53.0577 21.8153C52.8915 21.8792 52.7215 21.9321 52.5522 21.989C50.9893 22.476 51.4854 20.7102 50.3363 20.3518C50.1547 20.2823 50.0436 20.1623 49.9474 20.0044C49.3666 19.0288 48.7159 18.8504 47.6856 19.2356C47.4465 19.3279 47.0661 19.3643 47.0024 19.5292C46.9193 19.7447 47.3603 19.7345 47.4675 19.9579C47.5148 20.0558 47.6057 20.13 47.6592 20.2255C47.7656 20.4165 47.9356 20.6446 47.733 20.8286C47.535 21.0093 47.4651 20.6873 47.3207 20.6202C46.0885 19.9816 45.6599 19.976 44.9355 18.6775C45.1165 18.6838 45.2453 18.5701 45.3789 18.4699C46.1747 17.8502 47.2074 17.5929 48.1864 17.7437C49.2462 17.8439 50.0079 18.4904 50.7409 19.2198C50.9823 19.3208 51.2556 19.1985 51.508 19.2577C52.9863 19.3019 54.0321 20.0155 54.6431 21.3953C54.7588 21.6566 54.9405 21.869 55.1727 21.9921C56.2775 22.592 55.7379 23.4627 56.2418 24.1203C57.6223 25.7417 55.9988 26.1372 55.9274 27.1231C55.8831 27.7554 55.6758 28.3269 55.1129 28.6892C55.0974 28.7445 55.0252 28.7634 55.0267 28.8305C55.9483 29.897 56.6114 31.2823 55.3023 32.3551C54.7658 32.8761 54.0391 33.0553 53.428 33.4224Z" fill="#1A272D"/>
<path d="M39.5279 17.9307C39.118 17.9299 38.708 17.9299 38.2988 17.9291C38.7088 17.8377 39.118 17.8345 39.5279 17.9307Z" fill="#354E52"/>
<path d="M38.1044 17.9531C38.0603 18.0065 38.0053 18.0143 37.9434 17.991C37.9968 17.9787 38.051 17.9663 38.1044 17.9531Z" fill="#354E52"/>
<path d="M39.7704 17.9861C39.7154 17.9721 39.6605 17.9582 39.6055 17.9443C39.6543 17.9598 39.7921 17.9156 39.7704 17.9861Z" fill="#354E52"/>
<path d="M51.4439 30.8664C51.0343 31.005 50.4934 31.1642 50.4209 31.6729C50.3919 31.7893 50.426 31.8712 50.555 31.8881C50.8712 31.7753 51.1873 31.6625 51.5041 31.5512C51.5665 31.5291 51.6281 31.4797 51.697 31.535C51.7782 31.6014 51.7405 31.6802 51.718 31.7569C51.486 32.5405 51.3004 33.3344 51.2105 34.1497C51.1945 34.2971 51.1496 34.3974 50.9669 34.3635C50.6297 34.3001 50.286 34.2706 49.9518 34.1932C49.632 34.1187 49.5175 34.2028 49.6212 34.5352C49.7966 35.0328 49.896 35.5554 50.1048 36.0419C50.128 36.0958 50.1171 36.1614 50.1098 36.2211C49.9228 36.4503 49.8778 36.7245 49.8757 37.012C49.6857 37.2236 49.4348 37.1654 49.2079 37.1447C48.8091 37.1086 48.4234 37.1388 48.0456 37.2737C47.9992 37.2907 47.9492 37.2951 47.9028 37.3098C47.8303 37.3334 47.7012 37.2663 47.694 37.3437C47.7237 37.6607 48.7272 37.5524 49.0042 37.7138C49.1767 37.7728 49.3834 37.7632 49.4928 37.9578C49.545 38.3367 49.4319 38.6883 49.3312 39.0421C48.952 39.5449 48.216 39.225 47.6933 39.4955C47.3365 39.623 46.9762 39.6186 46.6166 39.4984C46.4665 39.4181 46.4447 39.4911 46.5934 39.5685C47.4207 40.2496 48.4662 39.9894 49.4131 39.8243C49.5284 39.8058 49.6509 39.7741 49.7365 39.8994C49.7792 41.0509 48.994 41.2492 48.0391 41.0627C47.9282 41.0649 47.7556 40.9344 47.7244 41.0538C47.6846 41.2064 47.8832 41.2565 48.0058 41.303C48.2719 41.4475 48.8185 41.2035 48.9679 41.4246C48.9026 42.0829 48.5749 42.5981 48.1326 43.0522C47.1923 43.6766 46.088 43.4053 45.0809 43.1311C43.0182 42.6298 41.6007 40.9705 40.0926 39.5773C39.8069 39.2957 39.572 38.9699 39.3581 38.6279C38.3199 36.729 41.0112 36.7268 40.838 34.306C40.8604 33.2857 40.656 32.1306 41.381 31.308C41.671 30.9394 41.903 30.531 42.0908 30.1042C42.4541 29.4356 42.9558 28.868 43.3821 28.2451C44.0332 27.6215 44.9823 27.4261 45.4507 26.5622C46.286 26.1059 48.0195 28.3159 49.7249 28.0306C50.0562 28.0063 50.36 27.9023 50.6703 27.8043C50.8059 27.7615 50.9458 27.6664 51.0894 27.7888C51.3635 28.652 51.5549 29.5344 51.6506 30.4374C51.7245 30.6534 51.6912 30.8141 51.4439 30.8664Z" fill="#E57547"/>
<path d="M76.9874 35.1547C74.9039 35.1547 72.8205 35.1539 70.737 35.1555C70.1638 35.1563 69.6168 35.0427 69.1062 34.7767C66.2973 33.0808 69.1657 28.5574 71.6646 28.1511C75.0078 27.3467 80.1847 27.7376 80.9093 32.0096C80.9601 32.3143 81.1178 32.4199 81.4175 32.4287C82.3816 32.4408 83.3892 32.5835 84.0171 33.4653C84.2613 33.8497 84.5443 34.2431 84.3009 34.7235C84.0718 35.1749 83.6294 35.1547 83.2085 35.1539C81.1353 35.1539 79.0566 35.1499 76.9874 35.1547Z" fill="#FDF2C3"/>
<path d="M46.2241 46.7132C50.6384 47.6557 52.9166 52.541 53.3073 56.7588C53.3832 57.1777 53.3492 57.6576 53.4232 58.1054C53.5773 58.2485 53.5858 58.4434 53.5834 58.6328C53.6082 60.3358 54.2046 59.4297 54.2113 59.9731C53.9073 60.2248 53.7672 60.5425 53.8188 60.9471C53.8339 61.4208 53.2363 61.3055 52.9372 61.3487C52.4167 61.4295 51.9155 61.5608 51.4271 61.7595C50.8726 62.0413 50.8314 61.6583 50.8508 61.1914C50.8308 61.0316 50.9096 60.762 50.6997 60.762C50.4613 60.7614 50.5935 61.0316 50.5717 61.1809C50.5256 61.4893 50.6645 61.8008 50.5778 62.1135C50.3909 62.4182 50.2034 62.5046 49.8904 62.4312C48.8523 59.4908 47.5837 56.4967 47.1335 53.3638C46.9018 51.2703 46.9849 49.1163 46.2441 47.116C46.1968 46.9889 46.1215 46.8526 46.2241 46.7132Z" fill="#F68A2F"/>
<path d="M65.6099 57.8985C66.7343 57.9358 67.8622 57.9566 68.9872 58.0004C69.4086 58.0262 69.8603 57.9638 70.2556 58.1353C70.3657 58.3262 70.1546 58.4374 70.0685 58.5716C69.8363 58.8148 69.5893 59.0602 69.35 59.2942C69.0154 59.597 68.6802 59.8998 68.3456 60.2027C68.2715 60.3699 68.1649 60.5105 68.0181 60.6181C67.6045 60.9202 67.2763 61.3364 66.8119 61.5725C66.4082 61.6629 66.0256 61.4965 65.6332 61.4527C65.0608 61.3336 64.4602 61.4168 63.8793 61.3178C63.5899 61.3056 63.0549 61.2116 62.9885 61.6113C62.9773 61.7821 63.0732 61.8933 63.2215 61.9607C63.8235 62.3095 65.2097 62.0598 65.552 62.6396C65.6876 63.1319 64.1623 62.9847 63.8313 63.1268C63.2081 63.2574 62.582 63.3034 61.9503 63.1964C61.7569 63.1864 61.4788 63.1684 61.4351 63.4225C61.3094 64.2434 62.8544 63.7547 62.9483 64.3754C62.9525 64.5276 62.858 64.6187 62.7309 64.6696C62.0922 64.8397 61.6877 64.7593 61.1774 65.3097C61.0426 65.5429 60.802 65.6836 60.6121 65.8651C60.1237 66.295 59.7235 66.8533 59.1348 67.1748C58.4029 67.6807 58.2505 67.2946 57.5002 67.4539C56.9348 67.4754 56.3857 67.3125 55.8592 67.1116C55.6291 66.9918 55.3122 66.9681 55.2 66.6925C55.243 66.1888 55.9509 66.5748 56.2573 66.5239C56.757 66.5153 56.9137 66.2957 56.7605 65.8063C56.7026 65.6233 56.6814 65.4619 56.9235 65.4116C57.2108 65.426 57.4 65.713 57.6576 65.8235C57.7917 65.8989 57.9194 65.9233 58.0352 65.7999C58.465 65.2495 56.8487 63.9635 56.3652 63.7935C56.03 63.6435 55.706 63.4691 55.3722 63.3163C55.2395 63.2553 55.0955 63.1907 55.0771 63.0077C55.1844 62.6733 56.0928 62.7178 56.3998 62.641C56.5819 62.6159 56.7683 62.6094 56.9511 62.5822C57.3449 62.5305 57.7225 62.7845 58.1142 62.6669C58.2858 62.6216 58.3754 62.4846 58.3944 62.3152C58.3867 62.011 57.8298 62.0368 57.6696 61.8301C57.5228 61.4599 58.6937 60.5823 58.9047 60.2084C59.5675 59.5166 60.2387 58.8342 60.9092 58.1496C60.9975 58.0592 61.0836 57.9487 61.2353 57.9831C61.9002 57.6889 62.6166 57.8353 63.316 57.8303C64.0748 57.8906 64.8674 57.8439 65.6099 57.8985Z" fill="#0B0D13"/>
<path d="M41.9563 30.3955C41.973 30.736 41.8094 30.9983 41.5983 31.2336C40.8089 32.0318 40.9537 33.1841 40.9585 34.2226C41.1536 36.8314 38.4255 36.7411 39.4574 38.5623C39.9098 39.3321 40.5922 39.8802 41.2179 40.4787C43.026 42.2544 45.5598 44.089 48.132 43.0534C47.0644 44.0201 45.7317 43.2232 44.5537 43.0733C44.2607 43.2211 43.923 44.421 44.0698 44.7537C44.1663 44.8944 44.2775 45.0217 44.2922 45.2029C44.3292 45.5 44.5082 45.7581 44.5173 46.0637C44.3579 46.2742 44.5425 46.4974 44.5194 46.7334C44.5236 46.8535 44.553 47.0042 44.4005 47.0362C44.2397 47.071 44.1405 46.9509 44.1013 46.8037C43.9181 46.2464 43.8111 45.6735 43.7056 45.097C43.6287 44.829 43.5105 44.7807 43.27 44.9179C41.9269 45.9969 40.3747 46.5407 38.7044 46.7632C36.6538 47.243 37.6732 47.1371 36.2238 45.3792C35.8302 44.888 35.3582 44.5035 34.8304 44.1815C34.4332 43.9938 34.5654 43.7123 34.9408 43.6362C35.7106 43.3761 36.3315 42.9382 36.8132 42.2736C38.0088 41.1497 38.3206 39.4444 38.3073 37.8557C38.3059 37.6012 38.273 37.4264 37.9899 37.4107C38.0297 37.3112 38.1192 37.2906 38.2059 37.2806C39.0911 37.1797 39.6658 36.6537 40.0545 35.8689C40.3426 35.4083 40.595 34.942 40.374 34.3875C40.3957 33.7044 40.1874 33.0625 40.0412 32.4093C39.7196 31.7283 41.4878 30.7537 41.9563 30.3955Z" fill="#A34037"/>
<path d="M65.366 42.9321C63.2699 42.6692 61.1643 42.87 59.0648 42.801C58.1457 42.893 58.0771 41.5925 59.0216 41.5598C59.774 41.5911 60.1972 41.1574 60.643 40.6309C62.2637 38.7175 64.7754 39.1087 66.1582 40.4705C67.1053 41.4775 67.117 43.1706 65.366 42.9321Z" fill="#FDF2C3"/>
<path d="M61.2347 57.9846C57.8681 61.2263 60.1405 60.2757 56.1091 59.8601C55.688 59.837 55.267 59.9117 54.8518 59.9883C54.6159 60.059 54.3839 59.9823 54.1734 59.8687C53.7575 59.9685 53.5678 59.7676 53.532 59.3607C53.4956 58.9418 53.4586 58.5236 53.4209 58.1041C55.0136 57.6826 56.5828 57.6602 58.1098 58.3862C58.2768 58.4655 58.3106 58.4153 58.2989 58.2363C58.2606 57.6503 58.2236 57.0643 58.2164 56.4776C58.2106 56.0264 58.3594 55.6267 58.7902 55.4279C60.1677 54.9509 60.9572 56.9051 61.2347 57.9846Z" fill="#659271"/>
<path d="M44.4554 46.0955C44.2956 45.6772 44.1242 45.2614 44.1016 44.8033C45.0878 45.0871 45.73 45.8291 46.2235 46.7098C46.8792 48.2179 47.0414 49.8357 47.099 51.449C47.1712 55.3224 48.8836 58.7595 49.9249 62.3963C49.9757 62.7163 49.8025 62.8588 49.4339 62.8028C48.2469 58.9885 46.4684 55.2222 45.9492 51.1926C45.8586 50.3697 45.8109 49.5431 45.5917 48.7396C45.3744 47.9908 45.0352 47.2918 44.6244 46.6351C44.5277 46.4764 44.3801 46.2953 44.4554 46.0955Z" fill="#CE4520"/>
<path d="M51.1669 35.0101C51.2086 36.2826 50.9546 37.5019 50.5442 38.6945C50.5012 38.8202 50.4037 38.9479 50.4857 39.0975C50.3836 39.2689 50.2795 39.4376 50.0947 39.5305C49.8374 39.482 49.6365 39.3686 49.5888 39.0749C49.6553 38.6712 49.48 38.2812 49.5223 37.8789C49.5418 37.1931 50.5408 37.3782 50.2002 36.5968C50.2284 36.3646 50.1175 36.1645 50.0463 35.9596C49.9731 35.7499 49.9341 35.5306 49.8528 35.3243C49.7729 35.1652 49.9684 34.9733 50.0819 35.1454C50.4131 35.5286 50.7853 34.9268 51.1669 35.0101Z" fill="#E57547"/>
<path d="M49.6628 39.1066C49.7275 39.333 50.0293 39.3034 50.0953 39.5292C49.9755 39.6523 49.8564 39.7761 49.7359 39.8992C48.5846 40.0941 47.1749 40.4766 46.2768 39.4568C46.2263 39.4028 46.1615 39.2863 46.1829 39.2554C46.2366 39.1764 46.3247 39.2402 46.394 39.2738C46.8751 39.5141 47.3614 39.5194 47.8523 39.3067C48.3101 39.127 48.8287 39.3245 49.26 39.0368C49.4122 38.9512 49.5495 38.9584 49.6628 39.1066Z" fill="#A34037"/>
<path d="M48.9677 41.4249C48.4772 41.4392 47.8789 41.6195 47.5428 41.1357C47.4803 41.0598 47.4611 40.9723 47.5192 40.8854C47.5728 40.8043 47.6519 40.8076 47.7297 40.8413C48.6832 41.2719 49.6419 40.5566 48.9677 41.4249Z" fill="#A34037"/>
<path d="M34.6176 43.899C35.9941 44.5788 36.7213 45.8587 37.5419 47.0804C38.1396 48.4451 38.3874 49.9206 38.8176 51.3385C39.8785 54.8908 41.2974 58.3608 41.8328 62.0543C41.877 62.5316 42.4616 66.4536 41.5464 65.9313C40.8479 65.4984 40.564 65.3743 40.5403 64.7192C40.6742 65.1224 40.4407 65.3268 40.0385 65.2332C38.8848 65.0458 37.7274 65.0363 36.5644 65.1249C34.9102 65.2996 32.799 65.4591 32.1378 63.5007C31.6982 62.5075 31.8377 61.4283 31.9031 60.3744C31.9305 59.1521 32.1067 57.919 32.0606 56.7031C32.06 56.4809 31.9709 55.7238 31.7132 55.7485C31.2979 56.003 31.8545 58.9565 31.918 59.5698C31.8209 62.3898 31.5986 65.268 30.7911 67.9759C28.221 69.1672 28.8063 67.3594 24.8049 69.9514C24.77 69.9711 24.7389 69.9964 24.709 70.0223C24.7451 70.0375 24.775 70.0128 24.8049 70.0014C26.8339 69.5489 28.8281 69.0165 30.694 68.0537C30.7855 68.0246 30.8621 67.9512 30.9654 67.9594C31.4206 67.9791 31.8364 67.8044 32.2555 67.6683C34.6562 66.8448 37.1546 66.5061 39.6487 66.1358C40.3255 66.0168 40.8995 66.1839 41.3148 66.7796C41.9555 67.8366 42.5432 69.0937 42.3253 70.3616C41.9741 70.7066 41.5159 70.8572 41.0907 71.0617C38.119 72.4397 35.0328 73.5886 31.8887 74.4596C31.73 74.4121 31.5787 74.3918 31.4834 74.576C31.0794 74.8001 30.6324 74.8932 30.1959 75.0172C29.696 75.1894 29.6393 74.3988 29.183 74.8311C28.2945 75.6319 27.3009 76.3547 26.1111 76.568C23.9332 76.9985 22.0169 75.485 20.796 73.7753C20.7325 73.5936 20.6877 73.4037 20.6895 73.2151C20.6976 72.5498 20.5818 71.889 20.6217 71.2244C20.6503 70.7496 20.5196 70.2819 20.5775 69.8084C20.5302 68.1379 20.6752 66.4681 20.8116 64.8084C20.8956 63.5387 21.1185 62.2854 21.2804 61.0263C21.2872 60.9409 21.3321 60.8776 21.3794 60.8143C21.87 58.4406 22.19 56.0232 23.0006 53.7261C24.1748 49.7465 27.8288 44.0218 32.2604 47.7185C34.3075 49.5617 35.3261 52.2127 36.5053 54.661C37.2044 55.9884 38.1377 57.9279 38.5629 59.0248C37.3277 56.4404 36.6254 53.6407 35.4687 51.0195C34.272 48.4116 31.5432 47.1868 29.549 45.3207C29.3716 45.1694 29.1026 45.0745 29.1039 44.7643C30.0247 44.0446 31.0489 43.5522 32.1776 43.292C32.4989 43.0837 34.5018 43.5465 34.6176 43.899Z" fill="#F68A2F"/>
<path d="M37.5219 56.8042C35.1471 53.0158 33.0767 44.3291 27.1491 47.3114C27.055 47.3645 26.956 47.4096 26.8588 47.459C26.8151 47.09 26.7708 46.721 26.7266 46.3521C27.1891 45.2909 28.0066 44.7456 29.1039 44.7656C30.1231 45.6942 31.2197 46.5222 32.2986 47.3739C33.2754 48.1456 34.3081 48.8616 35.0074 49.936C36.2548 51.9796 36.8102 54.3603 37.6406 56.596C37.6824 56.7241 37.7316 57.0168 37.5219 56.8042Z" fill="#CE4520"/>
<path d="M34.6166 43.9011C33.8329 43.5756 33.0058 43.4298 32.1768 43.2936C32.5233 42.4904 33.2989 42.5352 33.9562 42.2532C34.1329 42.0249 34.36 42.2199 34.5581 42.1764C35.2186 42.1604 35.8853 42.1982 36.5438 42.1291C36.6992 42.0952 36.8426 42.108 36.8734 42.3165C36.4055 43.2367 35.4903 43.5513 34.6166 43.9011Z" fill="#CE4520"/>
<path d="M66.8214 61.5079C67.3292 61.0731 67.8378 60.6382 68.3456 60.2026C68.3336 60.2856 68.3392 60.3581 68.4009 60.4265C69.306 61.4395 69.3844 62.6251 69.0889 63.8914C69.0256 64.1642 68.8094 64.5086 68.9647 64.6983C69.1426 64.9137 69.4557 64.5982 69.7232 64.5982C70.9399 64.406 72.1445 64.7659 73.2546 65.2649C74.1012 65.5969 72.6867 64.5265 72.6611 64.2643C72.0676 62.8735 74.1604 63.051 74.9413 63.2627C74.7932 62.6895 74.5561 62.1431 74.5657 61.5356C74.5561 60.0576 75.6806 59.2995 76.9717 59.9485C77.8439 60.5324 77.7638 58.6481 80.0826 57.473C80.8466 56.9185 81.6308 57.7214 81.1782 58.5593C80.6688 59.6472 80.773 60.9208 80.2315 61.9981C80.1947 62.0738 80.089 62.1618 80.1643 62.2375C80.2387 62.3132 80.322 62.2041 80.3933 62.1626C81.0813 61.7384 83.8518 60.3027 83.7196 61.9867C83.4593 63.7033 81.7926 64.5387 80.4149 65.182C81.0829 64.9575 82.5607 65.0408 83.501 65.1313C84.2426 65.4689 85.8717 65.9647 84.9282 67.0126C84.5197 67.5071 84.0993 67.9915 83.6844 68.4802C83.4817 68.3885 83.2767 68.3003 83.0741 68.2068C83.1365 68.5379 83.4032 68.8 83.3832 69.1581C82.7601 69.8334 82.0481 70.3436 81.1134 70.4397C80.0842 69.9689 78.9076 69.7597 78.0642 68.9406C77.7374 68.6275 77.3618 68.478 76.8988 68.5968C75.5092 69.0123 76.3926 66.3369 72.8797 65.7537C70.8622 65.3794 68.7213 65.7162 67.0249 66.944C66.8247 67.1528 66.4875 67.0908 66.3897 66.8051C66.3553 66.6605 66.4266 66.5509 66.5083 66.4474C67.149 65.638 67.66 64.7342 68.2575 63.8922C68.5987 63.4126 68.4962 62.8995 68.0381 62.4981C67.7369 62.2343 67.4005 62.0242 67.0633 61.8157C66.9488 61.7457 66.8062 61.6887 66.8214 61.5079Z" fill="#659271"/>
<path d="M62.6058 86.7778C58.1534 90.7741 52.6708 96.4146 46.2338 95.2186C45.7888 95.1028 45.4353 95.2006 45.0522 95.3837C40.451 97.5546 35.0718 97.6411 30.3311 95.8929C30.339 95.7327 30.464 95.6777 30.5746 95.6169C34.1009 94.3686 33.8119 90.6151 34.5597 87.5265C34.6117 87.2159 34.7999 86.9805 35.1258 87.088C40.9118 87.3068 46.6096 80.8907 51.6156 78.3148C52.1995 78.0678 51.2233 76.9134 52.2384 75.0857C52.4009 74.8407 52.8137 73.7646 53.0862 73.9339C53.4785 73.9968 52.8347 75.6057 52.8051 75.9222C52.6728 76.4302 52.5497 76.9415 52.4293 77.4528C52.37 77.7024 52.4141 77.9179 52.6096 78.0852C53.6312 78.9599 54.4521 80.0279 55.3117 81.0575C57.218 83.3323 59.7925 84.8293 62.255 86.3759C62.4064 86.4708 62.6131 86.5306 62.6058 86.7778Z" fill="#1A272D"/>
<path d="M62.6066 86.7802C60.1536 85.1683 57.5402 83.7392 55.5408 81.5167C54.6357 80.5095 53.8422 79.3707 52.8403 78.4617C52.2352 78.0974 52.2182 77.5959 52.4051 76.974C52.6637 76.1135 52.8617 75.2342 53.0834 74.3623C53.2134 73.9989 52.9969 73.8496 52.8477 74.2413C52.2514 75.218 51.7438 76.2458 51.8672 77.4519C52.1428 78.114 51.7926 78.3695 51.2584 78.6679C49.4881 79.6568 47.881 80.9122 46.2208 82.0806C42.7814 84.2991 39.1344 87.6672 34.8046 87.1536C34.662 87.0492 34.7027 86.9051 34.7256 86.7666C34.9502 85.6401 35.0906 84.5013 35.4423 83.4128C39.0487 79.5978 43.3865 76.2397 47.635 73.1105C48.2039 72.7029 48.8416 72.3954 49.3019 71.8359C50.0474 71.148 50.9185 70.607 51.6825 69.9346C52.1546 69.7799 52.5403 69.4276 52.9814 69.1992C54.1606 68.5705 55.543 67.8591 56.8989 68.2392C57.0577 68.3909 57.0755 68.596 57.0791 68.7981C57.0976 69.9091 57.2772 70.9916 57.586 72.0552C58.0648 73.7067 58.9721 75.0455 60.3604 76.0205C65.2983 79.4834 70.3284 82.807 75.4813 85.9231C75.5899 85.9886 75.7177 86.038 75.7539 86.1839C75.3224 86.833 74.8954 87.4847 74.458 88.1289C74.3264 88.3229 74.2186 88.1674 74.1299 88.0682C72.6677 86.2499 70.2376 87.7586 69.1603 89.2568C69.0221 89.4542 68.8714 89.6407 68.816 89.884C68.7731 89.9325 68.7133 89.9596 68.6579 89.9386C68.1798 89.7565 67.6693 89.6429 67.2755 89.2747C65.7615 88.3613 64.1641 87.6092 62.6066 86.7802Z" fill="#354E52"/>
<path d="M35.3126 84.1541C35.1427 85.1531 34.9733 86.1521 34.8033 87.1511C34.1515 89.2128 34.2608 91.4746 33.297 93.4367C32.8435 94.3439 32.1713 95.0105 31.2541 95.418C30.1986 95.9719 29.0895 96.4738 27.8893 96.5642C25.8592 96.7009 24.5282 96.1003 23.9139 93.8294C23.6694 93.6643 23.7466 93.3843 23.7209 93.1624C23.2122 88.4684 23.9621 83.7274 25.231 79.2164C25.3076 78.6457 25.6223 78.6147 26.1063 78.6125C29.3468 78.3542 32.3943 77.1508 35.4949 76.2548C31.7001 77.3399 27.8437 78.9651 23.8383 78.6446C22.8423 78.4163 22.0521 77.8658 21.5118 76.966C21.1103 76.2968 20.9275 75.5561 20.8616 74.7817C20.8482 74.4775 20.6756 74.0639 20.9302 73.829C22.7233 76.2172 25.7102 77.589 28.3117 75.3921C28.6108 75.1615 28.8906 74.9048 29.1844 74.6667C29.3993 74.4928 29.6052 74.4383 29.7639 74.7479C29.8668 74.949 30.0383 74.9533 30.2243 74.8928C32.8687 74.0301 35.5479 73.2393 38.1483 72.1983C39.5507 71.6533 40.9117 71.0119 42.2658 70.3529C42.5134 70.3813 42.5124 70.5829 42.5392 70.765C42.6957 71.7601 42.4513 72.8142 41.5368 73.3156C40.1886 74.1843 38.9208 75.2198 37.4241 75.8155C37.3035 75.8635 37.2193 75.936 37.1824 76.0602C36.8098 77.3138 36.1853 78.4615 35.7291 79.6796C35.1159 81.283 34.9411 82.4728 35.3126 84.1541Z" fill="#CE4520"/>
<path d="M25.5056 78.7567C24.0611 83.6202 23.3098 88.7557 23.9148 93.8307C22.9399 94.1757 21.4203 94.5067 20.9758 93.2238C20.9598 93.1811 20.9244 93.1274 20.8866 93.1154C20.3902 92.9508 20.2109 92.519 20.0014 92.0848C18.9806 89.8946 17.9028 91.5379 17.5338 90.5279C17.455 90.3917 17.3719 90.1609 17.2167 90.23C17.0397 90.3077 17.1553 90.5236 17.1931 90.6882C17.2346 90.8724 17.4706 91.0615 17.2889 91.237C17.1082 91.4112 16.8411 91.4189 16.5872 91.3911C16.1351 91.3407 15.8685 90.9914 15.5566 90.7232C15.247 90.4565 14.9629 90.1604 14.6642 89.8817C14.5656 89.7905 14.4608 89.65 14.3112 89.7809C14.1569 89.9162 14.2579 90.0534 14.3419 90.1825C14.4523 90.4229 15.112 91.1752 14.9667 91.346C14.8818 91.4549 14.7808 91.3589 14.7043 91.3114C13.4226 90.4987 12.8408 92.3218 11.8574 91.0413C11.6398 89.1539 9.71307 89.9196 10.0236 87.396C10.2671 85.5388 9.80084 82.4255 12.3916 82.3483C13.0239 82.3838 12.9229 81.5024 14.1248 81.3667C14.2485 81.3484 14.3763 81.3081 14.4854 81.2467C14.7543 81.0687 14.7737 80.6926 14.3858 80.7036C12.804 80.3639 11.486 81.1551 10.2709 82.059C10.1279 82.1458 9.96506 82.2427 9.81453 82.0767C9.67154 81.9175 9.78621 81.7702 9.8688 81.6373C10.4134 80.7545 11.2062 80.1994 12.1377 79.8228C12.6804 79.6035 13.2589 79.5272 13.8129 79.3569C14.0456 79.152 14.3108 79.2446 14.5675 79.2696C14.8907 79.3502 15.1262 79.224 15.3522 78.9832C15.6745 78.6396 16.0756 78.4314 16.5499 78.3801C17.018 78.3287 17.3852 78.0294 17.7787 77.8058C17.9547 77.7065 17.9623 77.3265 17.7698 77.1504C17.0822 76.5195 17.0246 75.75 17.2228 74.8974C17.6348 73.1913 11.7276 76.1674 11.0868 76.2014C9.37991 75.2481 8.82921 77.0703 9.71638 73.7752C9.85511 73.5588 9.67626 73.4341 9.49316 73.5915C9.01891 73.8789 8.69566 74.3102 8.42715 74.789C8.32192 74.9766 8.24264 75.0169 8.14873 74.7871C8.00764 74.444 7.76791 74.147 7.69618 73.7714C8.39412 72.451 9.38652 71.4997 10.8433 71.135C11.7531 70.9033 12.6955 71.1437 13.6095 70.9585C14.4547 70.7627 12.4784 70.022 12.2486 70.0325C11.5157 69.8761 10.7989 69.9279 10.0939 70.1712C8.79476 70.6116 8.14118 71.8873 7.46118 73.0028C7.26865 73.4451 7.02704 73.1865 6.75098 72.9913C7.00486 70.875 8.37996 69.3143 10.2609 68.5289C10.4322 68.3221 10.6734 68.3034 10.9089 68.2929C12.7691 68.0587 14.4311 69.3138 15.4056 70.8721C15.5188 71.0664 15.6736 71.1868 15.8826 71.2502C19.2218 72.4419 17.0699 72.3906 19.5431 70.0906C19.8376 69.9428 20.376 69.5259 20.6597 69.8118C20.8229 71.8998 20.7403 74.0381 21.2481 76.0762C21.7535 77.872 23.5826 78.8181 25.4244 78.5778C25.4989 78.6147 25.5542 78.6612 25.5056 78.7567Z" fill="#1A272D"/>
<path d="M96.9239 86.3606C96.1151 90.8221 94.487 95.6116 90.6585 98.2625C90.3961 98.4369 90.2198 98.6945 90.0338 98.9431C89.9504 99.0147 89.8297 98.9466 89.7367 98.9924C86.5007 98.9318 83.2533 99.0252 80.0216 98.9562C79.6923 99.0191 79.5333 98.8312 79.3934 98.5548C78.7002 97.1828 79.0659 95.7081 79.3796 94.2986C79.555 94.1632 79.721 94.2658 79.8826 94.3269C81.4559 95.056 83.2741 94.8896 84.122 93.1987C85.3365 90.9802 84.9308 89.0819 87.9523 88.6158C89.8036 88.2218 91.5342 87.5155 93.1535 86.5165C94.3272 85.7766 95.7033 85.57 96.9239 86.3606Z" fill="#FDF2C3"/>
<path d="M75.7536 86.1827C70.7944 83.3417 66.0695 80.078 61.3349 76.861C60.2115 76.0865 59.0972 75.3098 58.3548 74.0942C57.5436 72.7655 57.1777 71.3013 57.022 69.766C56.9729 69.2843 56.9426 68.8009 56.9033 68.3182C56.9736 68.1322 57.2269 68.219 57.3667 68.2582C60.1646 69.1329 62.5089 71.1489 64.5871 73.1891C64.7443 73.4076 64.9129 73.412 65.1238 73.2962C65.6038 73.0341 66.1036 72.8231 66.6312 72.6829C67.1082 72.6017 67.7644 72.3414 68.2233 72.4899C72.1831 72.679 74.2053 76.7605 72.5936 80.3103C72.4628 80.6375 72.5755 80.7939 72.7932 80.9704C74.2061 82.1729 75.7301 83.2431 77.0894 84.501C77.4213 84.7815 77.7289 85.0929 78.0593 85.3773C78.3035 85.5873 78.5356 85.839 78.4872 86.188C78.5371 86.2478 78.5424 86.3191 78.5167 86.3858C78.3541 86.8143 78.1818 87.2385 77.9399 87.6281C77.7289 87.8959 77.391 87.5736 77.1877 87.4552C76.9473 87.2721 76.0083 86.6912 75.9789 86.42C75.9456 86.1941 76.1452 86.0998 76.0567 85.9158C75.9554 86.005 75.8549 86.0936 75.7536 86.1827Z" fill="#487368"/>
<path d="M85.1646 90.9109C83.2982 97.5778 80.0329 94.1515 75.6588 92.6694C75.4796 92.5956 75.3227 92.4598 75.4334 92.251C75.9544 91.2673 76.4451 90.2649 77.0569 89.3336C77.107 89.314 77.162 89.3196 77.1963 89.355C77.675 89.8604 78.3362 89.9836 78.9424 90.209C79.8967 90.5636 80.8256 90.993 81.8157 91.2451C82.8433 91.5067 83.8295 91.432 84.7807 90.9445C84.9017 90.8826 85.0268 90.7961 85.1646 90.9109Z" fill="#A34037"/>
<path d="M85.1644 90.9104C83.6479 91.8343 81.8687 91.5595 80.3089 90.8825C79.4968 90.5719 78.6848 90.2605 77.8711 89.9542C77.5378 89.8289 77.255 89.6407 77.0566 89.3331C77.1892 88.743 77.3289 88.1346 77.7844 87.7091C78.0181 87.202 78.2526 86.6948 78.4872 86.1877C80.5515 87.3142 83.1306 89.9394 85.6013 89.4991C86.2439 89.3768 85.2118 90.6257 85.1644 90.9104Z" fill="#E57547"/>
<path d="M67.275 89.274C67.7894 89.4771 68.3024 89.6802 68.8161 89.8834C69.3112 90.311 69.893 90.5879 70.4656 90.8788C71.0539 91.2134 71.7226 91.4239 72.265 91.8306C71.4994 92.1421 70.7439 92.4775 69.9985 92.8383C69.9103 92.8776 69.8227 92.9598 69.7237 92.8838C69.619 92.8034 69.6527 92.6867 69.6713 92.5762C69.761 92.108 69.7495 90.9854 69.0572 91.1365C68.9517 91.2108 68.9883 91.3423 69.0077 91.4471C69.1698 92.322 68.875 93.0589 68.357 93.7272C68.2938 93.8089 68.2163 93.9552 68.1109 93.9085C67.8626 93.8076 68.3799 92.6832 68.3448 92.3718C68.423 91.8009 67.9207 91.6131 67.4817 91.4869C66.907 91.2903 66.7915 91.1086 66.9278 90.497C67.0203 90.0839 67.1581 89.6811 67.275 89.274Z" fill="#1A272D"/>
<path d="M73.3679 95.1739C72.5343 94.8083 71.747 94.2352 70.934 93.8011C70.688 93.6595 70.6314 93.5206 70.9068 93.345C71.5179 92.9571 72.1274 92.5662 72.7333 92.1696C72.9213 92.0464 73.088 92.0128 73.3084 92.1158C73.7733 92.3338 74.2521 92.5221 74.7302 92.7094C74.9953 92.8138 75.0276 92.9563 74.8719 93.1908C74.4878 93.7665 74.1147 94.3492 73.7373 94.9293C73.6535 95.0573 73.5661 95.1809 73.3679 95.1739Z" fill="#1A272D"/>
<path d="M77.7833 87.7086C76.9659 89.8406 77.156 87.9842 74.9719 89.1824C74.899 89.2186 74.8058 89.2107 74.7217 89.2234C74.7855 88.2908 75.4677 87.2037 75.9779 86.4192C76.5797 86.8489 77.1815 87.2787 77.7833 87.7086Z" fill="#354E52"/>
<path d="M66.6886 67.0185C69.1647 65.0603 74.5007 64.5112 76.0346 67.9161C76.2702 68.5211 76.3867 68.5966 76.9833 68.4459C77.3532 68.3525 77.715 68.4389 77.9538 68.6827C78.8418 69.6104 80.0771 69.769 81.135 70.3592C81.2856 70.4715 81.496 70.4762 81.6142 70.6449C81.9 71.1253 82.1598 71.6206 82.4059 72.123C82.707 72.6362 82.1574 72.3558 82.3095 72.8341C82.4269 73.4211 82.6503 73.9841 82.6884 74.5891C82.7815 75.1556 81.8587 75.5152 82.4472 75.7611C82.7394 75.9419 83.0113 76.1556 83.3189 76.3114C83.9843 76.6046 83.4428 77.7258 84.7711 77.9385C86.1707 78.1206 85.4729 79.1795 86.1666 79.9308C86.6709 80.4208 87.091 81.0464 87.1874 81.7676C87.261 82.293 86.8992 82.4477 86.6013 81.9859C85.6567 80.8293 84.5582 79.3534 82.9102 79.4861C82.7038 79.4608 82.5289 79.6748 82.7491 79.8076C83.8402 80.607 84.2102 81.9103 84.5946 83.1535C84.6392 83.3025 84.7306 83.4977 84.5558 83.5904C83.9843 83.8009 83.8961 82.8823 83.6832 82.5272C82.7547 80.0396 80.6631 79.8425 78.4379 80.6218C78.3497 80.6463 78.242 80.7472 78.1708 80.6436C78.14 80.5995 78.2088 80.479 78.2404 80.3964C78.4954 79.7403 78.6921 79.0585 79.1939 78.5295C79.8836 77.7957 80.7853 77.5079 81.7203 77.3065C82.0109 77.2671 82.0392 77.0265 81.7518 76.9226C80.4235 76.1961 79.304 77.4223 79.508 76.5041C79.6748 75.3146 79.6019 74.176 78.7155 73.2547C78.4816 73.0114 78.1983 72.8341 77.864 72.8014C76.9323 72.7376 77.7296 71.477 76.7615 70.3002C75.7124 68.9889 74.0879 69.7249 73.6605 71.1895C73.5649 71.3966 73.4872 71.4215 73.3375 71.2162C71.7971 68.816 68.9494 67.8345 66.2539 68.346C66.2337 68.3232 66.2053 68.2979 66.2094 68.2703C66.2733 67.8143 66.3842 67.3776 66.6886 67.0185Z" fill="#487368"/>
<path d="M66.6877 67.0188C66.3843 68.0406 65.9826 69.0214 65.5562 69.9947C65.5877 70.1357 65.5255 70.2496 65.4613 70.3649C65.078 71.0582 64.6694 71.7375 64.284 72.4301C64.2219 72.5419 64.1604 72.6656 64.0087 72.6781C61.9104 71.0408 59.9707 69.1507 57.3702 68.3525C57.2432 68.1142 58.0986 67.4974 58.2913 67.373C58.3732 67.3369 58.4812 67.3904 58.5564 67.3314C59.3824 67.0354 59.9297 66.3443 60.5836 65.8031C60.8459 65.528 61.329 64.8938 61.6132 65.4787C61.9931 66.7624 62.856 67.4897 64.1078 67.7398C64.6502 67.8794 65.1374 67.8426 65.4455 67.2911C66.385 66.8305 66.1431 66.4679 66.6877 67.0188Z" fill="#F68A2F"/>
<path d="M64.0107 72.678C64.5261 71.7836 65.0422 70.8892 65.5575 69.9947C65.6982 70.0933 65.8388 70.1018 66.003 70.0391C67.0483 69.6405 68.194 70.4363 68.2231 71.5786C68.2307 71.8815 68.2245 72.185 68.2245 72.4885C67.6273 72.6435 67.0081 72.6801 66.4172 72.871C65.9642 73.0182 65.5361 73.2154 65.1191 73.4428C64.8752 73.5759 64.6764 73.564 64.5192 73.2949C64.3841 73.0625 64.1063 72.9484 64.0107 72.678Z" fill="#2D3E47"/>
<path d="M82.4535 72.4853C82.1891 71.8629 81.785 71.3125 81.5596 70.6699C82.2725 70.1484 83.2997 70.2 84.0952 70.5935C84.2992 71.1373 84.5024 71.6811 84.7057 72.2253C84.7199 72.4189 84.631 72.5617 84.4731 72.6469C83.9459 72.9312 83.3863 73.0221 82.798 72.9142C82.6829 72.7709 82.5678 72.6281 82.4535 72.4853Z" fill="#659271"/>
<path d="M82.7949 72.9143C83.4425 72.7531 84.3116 72.8977 84.7026 72.2254C85.0952 73.1659 85.4406 74.1687 85.6421 75.1577C85.6285 75.1965 85.6085 75.2341 85.5717 75.2494C85.1663 75.4184 84.753 75.5683 84.3652 75.7819C84.322 75.8054 84.2693 75.7876 84.2213 75.7788C83.668 74.8698 83.4346 73.7844 82.7949 72.9143Z" fill="#FBC04B"/>
<path d="M84.2217 75.7802C84.6429 75.446 85.1172 75.2403 85.6427 75.159C86.1105 75.9034 85.7511 77.2714 85.1902 77.7816C85.0955 77.8677 85.0008 77.8549 84.9535 77.7318C84.7055 77.0827 84.399 76.4567 84.2217 75.7802Z" fill="#659271"/>
<path d="M78.4756 85.8793C78.0966 85.5499 77.7041 85.235 77.341 84.8877C76.8138 84.3841 76.2201 83.9538 75.7549 83.3812C77.366 83.075 78.6087 84.2164 78.4756 85.8793Z" fill="#2D3E47"/>
<path d="M84.0934 70.5964C83.527 70.5493 82.9724 70.3413 82.3933 70.4759C81.9817 70.5339 81.3741 70.8947 81.1348 70.3623C83.523 69.9207 83.0079 67.8219 84.0934 70.5964Z" fill="#FBC04B"/>
<path d="M81.2286 82.4959C81.1622 82.6348 81.0726 82.5623 80.9976 82.544C79.8413 82.2151 78.532 82.0932 77.4984 82.8331C77.4289 82.8777 77.3679 82.9912 77.2744 82.903C77.3957 81.3305 80.3758 81.7586 81.2286 82.4959Z" fill="#487368"/>
<path d="M83.3189 76.3113C82.9043 76.4127 82.6812 75.9335 82.3483 75.8304C81.8308 75.7579 82.0554 75.564 82.2321 75.3272C82.4786 75.0813 82.7417 74.0972 82.8886 74.9642C83.0401 75.4106 83.1768 75.8619 83.3189 76.3113Z" fill="#FBC04B"/>
<path d="M11.3235 76.1987C11.3187 76.0483 11.3846 75.9471 11.5242 75.8997C12.944 75.4122 14.3083 74.7618 15.767 74.3914C16.2905 74.2699 17.6222 73.954 17.3512 74.9175C16.7181 77.0446 18.905 77.0925 17.6719 78.0281C17.2291 78.2756 16.7888 78.4885 16.277 78.5662C15.8704 78.6278 15.5479 78.9117 15.2778 79.2325C14.9384 79.665 14.4519 79.3092 14.2407 78.9379C13.732 78.2175 13.1949 77.5264 12.4426 77.0464C12.2869 76.9475 12.087 76.9155 11.9767 76.743C11.9055 76.3766 11.4758 76.4631 11.3235 76.1987Z" fill="#2D3E47"/>
<path d="M11.9762 76.7429C13.1569 77.0543 14.0204 78.363 14.6434 79.3676C13.324 79.4113 14.1463 79.2357 13.1981 79.0632C12.4823 78.8671 11.7481 78.9409 11.0207 78.9413C10.0279 79.006 11.7417 76.991 11.9762 76.7429Z" fill="#487368"/>
<path d="M20.6586 69.8091C20.243 69.775 19.9316 70.0598 19.5672 70.1836C19.3918 70.2728 19.2861 70.1559 19.1901 70.04C18.4096 69.1023 17.3811 68.6005 16.2479 68.3003C15.3022 68.0492 14.3453 68.0219 13.3879 68.2463C13.0927 68.3157 12.8242 68.4925 12.508 68.4782C11.7573 68.4276 11.006 68.3385 10.2601 68.5262C8.97092 65.519 13.4079 66.157 15.0108 66.739C15.7153 67.0659 16.4291 67.6916 17.2413 67.3329C17.5468 67.2121 17.576 67.165 17.5073 66.8381C17.4016 66.3294 17.5419 65.9782 17.9258 65.7845C18.091 65.7018 18.2717 65.678 18.3964 65.8172C18.9129 66.3967 19.6154 66.4245 20.2956 66.5295C20.4681 66.5557 20.6556 66.5473 20.7799 66.7118C20.7394 67.7441 20.699 68.7768 20.6586 69.8091Z" fill="#354E52"/>
<path d="M14.9952 66.8286C14.364 66.6682 13.7328 66.5083 13.1016 66.3478C13.6291 63.9926 15.1396 62.1632 17.4624 61.5477C18.6166 61.5382 19.7692 61.7197 20.8104 61.0359C20.9868 60.9311 21.1569 60.7969 21.3803 60.8142C21.4406 61.4391 21.2627 62.0327 21.1564 62.6356C19.4499 62.8815 17.7796 63.2176 16.4062 64.4094C15.7626 64.9363 15.3356 65.618 15.1706 66.4579C15.1433 66.5948 15.1257 66.7411 14.9952 66.8286Z" fill="#1A272D"/>
<path d="M7.09863 73.2383C7.37755 73.0636 7.45214 72.7385 7.61986 72.4832C8.04935 71.8304 8.43066 71.1445 9.04779 70.6386C10.4706 69.4822 12.6139 69.5383 13.97 70.7328C14.1123 70.8831 14.0993 70.9519 13.9042 71.0155C12.5361 71.364 11.0854 70.8708 9.80299 71.6787C7.80982 72.7112 8.14433 74.6953 7.09863 73.2383Z" fill="#2D3E47"/>
<path d="M40.2486 35.6985C39.8365 36.8429 38.5572 37.8669 37.3831 37.1954C37.3785 37.1118 37.4369 37.0735 37.4938 37.0336C36.9433 37.1821 36.3098 37.0954 35.8715 36.7037C34.3477 35.5742 33.6426 32.567 34.6314 30.9263C35.0335 30.2579 35.0865 29.6498 35.0681 28.9236C34.8444 24.8775 36.7949 20.3297 40.8914 19.2048C41.199 19.0977 41.5226 19.0446 41.8448 18.9672C41.9125 18.9195 41.9893 18.9484 42.0624 18.9398C42.19 18.9523 42.3123 18.9187 42.4407 18.9101C42.4606 18.9328 42.4799 18.9312 42.4975 18.907C42.7336 18.8468 42.9781 18.9148 43.2134 18.8554C43.4325 18.8601 43.6508 18.8687 43.8661 18.9047C43.9322 18.9797 44.0345 18.9054 44.1045 18.9648C44.1221 18.9664 44.1398 18.9711 44.156 18.9789C44.3205 19.0321 44.452 19.1642 44.6011 19.2572C44.5073 19.4182 44.349 19.387 44.2052 19.4002C39.0846 19.5019 36.0907 23.5002 36.0407 28.5445C36.013 29.6248 36.562 30.5894 37.4685 31.0271C37.1386 30.8559 36.8295 30.6152 36.6489 30.2657C36.3744 29.7045 36.7096 29.8241 36.8365 29.477C39.5928 28.9236 41.1013 33.5699 40.2486 35.6985Z" fill="#FDF2C3"/>
<path d="M36.8364 29.4735C36.9008 29.5429 37.0533 29.6286 37.1024 29.687C37.061 29.8351 36.464 29.4291 36.6885 30.0977C36.8433 30.5324 37.2733 30.7179 37.52 31.0701C35.6976 30.5932 35.7696 28.3079 36.0976 26.7893C36.477 23.0375 39.2544 19.8102 42.9821 19.3972C43.5162 19.3162 44.0604 19.299 44.6007 19.2531C44.78 19.6333 44.6244 19.8764 44.1577 19.9465C39.5609 20.0268 36.1421 24.3356 36.5889 28.9655C36.5958 29.1478 36.5345 29.419 36.8364 29.4735Z" fill="#FBC04B"/>
<path d="M51.09 27.7904C49.4225 28.6143 48.0007 27.9778 46.6294 27.0096C46.2769 26.7605 45.8827 26.6044 45.4512 26.5635C45.5843 26.1099 45.7145 25.6548 45.8527 25.2027C45.8958 25.0592 45.9785 25.086 46.029 25.1975C46.8539 26.965 48.6941 27.1598 50.3521 27.113C50.8648 27.0989 51.0388 27.2565 51.09 27.7904Z" fill="#A34037"/>
<path d="M30.9427 32.5324C31.2352 32.2042 31.4513 32.2608 31.6551 32.645C31.8395 32.9942 32.1134 33.2692 32.4562 33.4721C32.6957 33.6128 32.7219 33.7849 32.5085 34.0039C31.9958 34.5315 31.9772 34.5413 31.4734 34.0137C31.1781 33.6148 30.271 33.0222 30.6736 32.4715C30.7321 32.3931 30.7617 32.2511 30.8684 32.272C30.9957 32.2965 30.9221 32.4463 30.9427 32.5324Z" fill="#1A272D"/>
<path d="M51.2051 22.7971C50.5204 22.5911 50.0339 21.8873 49.8229 21.2097C49.624 20.7914 50.0824 20.4696 50.3823 20.7883C50.8582 21.3085 51.1618 21.9452 51.4358 22.5926C51.4966 22.7339 51.4055 22.8041 51.2051 22.7971Z" fill="#1A272D"/>
<path d="M43.682 27.9638C43.2016 28.7171 42.7069 29.4588 42.0908 30.1055C42.1786 29.6642 42.2664 29.2259 42.2857 28.7708C42.3364 28.0806 43.1801 28.1002 43.682 27.9638Z" fill="#A34037"/>
<path d="M51.1672 35.0085C50.9991 35.1443 50.1566 35.6508 50.0549 35.3241C50.0265 35.2656 50.0509 35.156 49.9356 35.1622C49.9214 35.4902 50.4413 36.4419 50.2678 36.6169C50.0624 36.5735 50.0617 36.3978 50.0346 36.2393C49.9871 35.8148 49.7485 35.4537 49.657 35.045C49.209 33.9328 50.4121 35.1567 51.1015 34.9196C51.1177 34.9169 51.1449 34.9775 51.1672 35.0085Z" fill="#A34037"/>
<path d="M50.5545 31.8874C49.9177 32.1112 50.6039 30.8115 51.3375 30.8944C50.9885 31.1189 50.2486 31.325 50.5545 31.8874Z" fill="#A34037"/>
<path d="M54.0353 23.8828C53.9544 24.1915 53.6619 23.7379 53.5543 23.6496C53.4882 23.5726 53.3241 23.4978 53.3991 23.399C53.5721 23.2307 54.0041 23.685 54.0353 23.8828Z" fill="#1A272D"/>
<path d="M36.9697 37.0809C37.2463 36.9897 37.5308 36.934 37.8152 36.8776C37.7242 37.0581 37.5195 37.0769 37.3836 37.1943C37.2648 37.146 37.0258 37.1789 36.9697 37.0809Z" fill="#FBC04B"/>
<path d="M51.4434 30.8659C51.5978 30.7664 51.6258 30.6023 51.6502 30.4374C51.8068 30.6954 51.8096 30.8744 51.4434 30.8659Z" fill="#A34037"/>
<path d="M44.5645 31.1031C44.1861 31.0519 43.8071 31.0013 43.4287 30.9479C43.3355 30.935 43.2108 30.9593 43.1807 30.8353C43.1828 30.4307 43.9079 30.3132 44.2148 30.2604C45.2119 30.1465 46.1935 30.4414 47.1709 30.6202C47.5745 30.6472 47.9598 31.1395 47.7959 31.5348C47.6845 31.7699 47.4449 31.6346 47.262 31.6004C46.3616 31.4372 45.4669 31.2171 44.5645 31.1031Z" fill="#0B0D13"/>
<path d="M50.2786 36.6629C50.7356 37.309 49.7468 37.3292 49.6113 37.818C49.565 37.8759 49.5564 37.9841 49.4426 37.9512C48.9717 37.855 48.5174 37.6755 48.0254 37.6876C47.7013 37.7347 47.4057 37.3164 47.4791 37.0354C47.5862 36.9486 47.5862 37.2492 47.8613 37.2035C48.4208 36.9318 49.0127 37.0159 49.5987 37.0226C49.8718 37.0239 50.0557 36.792 50.2786 36.6629Z" fill="#A34037"/>
<path d="M46.7704 34.176C46.2706 35.9052 43.3797 34.5752 43.2568 33.2181C43.3333 33.1091 43.5429 33.198 43.6924 33.2354C44.2073 34.0143 45.2034 34.6155 46.1887 34.2503C46.3682 34.183 46.556 34.0192 46.7704 34.176Z" fill="#A34037"/>
<path d="M46.7701 34.1778C45.7273 34.6785 44.4213 34.535 43.7167 33.5247C43.652 33.4352 43.5742 33.3451 43.6915 33.2376C44.023 33.3693 44.3537 33.5011 44.6845 33.6335C45.1196 33.7452 45.5268 33.9671 45.9851 33.9546C46.0411 33.9442 46.097 33.9331 46.1522 33.9227C46.2218 33.8499 46.305 33.9067 46.3814 33.8963C46.4475 33.8852 46.5151 33.8734 46.5819 33.8617C46.8827 33.784 46.9045 33.7972 46.8997 34.0579C46.8567 34.0981 46.8131 34.1376 46.7701 34.1778Z" fill="#0B0D13"/>
<path d="M49.4423 37.9507C49.4986 37.9061 49.5549 37.8622 49.6112 37.8176C49.5366 38.2095 50.0934 39.437 49.2598 39.0364C49.3206 38.6745 49.3815 38.3126 49.4423 37.9507Z" fill="#FDF2C3"/>
<path d="M50.279 36.661C50.2816 36.9512 50.1077 36.989 49.882 36.9526C49.6788 36.6569 49.7525 36.4234 50.036 36.2371C50.1781 36.337 50.2086 36.524 50.279 36.661Z" fill="#FDF2C3"/>
<path d="M49.4521 62.7549C49.6644 62.7117 49.8806 62.675 49.9262 62.3985C50.1468 62.3579 50.3414 62.2645 50.5012 62.0995C50.6153 61.9338 50.7338 61.7734 50.9646 61.794C51.8527 61.4066 52.7681 61.1475 53.7436 61.1637C53.9953 60.9536 54.2932 61.0406 54.5633 61.0651C55.2714 61.1695 57.2156 61.3209 57.6796 61.7714C57.937 61.9016 58.6469 61.9519 58.5436 62.3611C58.4796 62.6099 58.3331 62.7775 58.0644 62.8264C57.6992 62.8935 57.3734 62.7143 57.026 62.6802C56.3991 62.6286 55.781 62.4733 55.1465 62.5229C54.9893 62.5229 54.0016 62.6093 54.5905 62.7858C54.7661 62.8774 54.9867 62.8735 55.1211 63.0527C56.2774 63.6076 57.5769 64.1193 58.207 65.3645C58.4479 65.7454 57.9591 66.2339 57.6086 65.9432C57.4108 65.8014 57.2073 65.6442 57.0165 65.5043C56.4238 64.8456 54.8682 64.3694 54.4542 64.3262C54.9379 64.4693 55.4032 64.6645 55.8615 64.8727C56.1347 64.9971 56.2311 65.2613 56.1836 65.6184C56.1417 65.9322 56.0213 66.0889 55.691 66.1282C55.2327 66.1823 54.7712 66.2236 54.3078 66.2319C54.2533 66.2326 54.1639 66.2062 54.1544 66.2674C54.2691 66.3886 54.6387 66.4246 54.8149 66.4839C55.1142 66.5368 55.3347 66.7604 55.5953 66.9048C55.7626 67.091 55.6916 67.2973 55.6441 67.5022C55.0089 67.8129 54.2165 67.5074 53.5389 67.4874C52.6679 67.4101 51.7988 67.2999 50.9297 67.1961C48.6812 66.9763 46.358 66.9744 44.2439 67.8844C43.9415 68.0082 43.6385 68.1461 43.3025 68.0836C42.6179 67.9547 42.2236 67.5061 42.0258 66.8442C41.9637 66.6367 41.9948 66.3918 41.8052 66.2332C41.783 66.2081 41.7697 66.1778 41.7646 66.1443C41.8838 65.9419 42.0949 65.8736 42.2851 65.7795C43.4946 65.1821 44.7554 64.7116 45.989 64.1754C47.0407 63.7513 48.1589 63.489 49.1193 62.8445C49.2194 62.7762 49.3259 62.724 49.4521 62.7549Z" fill="#E57547"/>
<path d="M57.6778 61.7732C56.3809 61.4673 55.0834 61.1647 53.742 61.1653C53.5874 60.4391 53.6866 60.1649 54.1757 59.9561C54.2629 59.8804 54.3678 59.9095 54.4671 59.9037C54.7482 59.863 55.0293 59.819 55.3111 59.7821C56.5844 59.5881 57.7745 60 58.9931 60.282C58.5543 60.7793 58.116 61.2766 57.6778 61.7732Z" fill="#487368"/>
<path d="M49.264 53.1583C49.2237 52.6978 49.4134 51.5288 50.0286 51.6451C50.1739 51.7003 50.1681 51.8433 50.1225 51.9555C49.0819 54.4187 50.4558 56.8262 50.3852 59.3203C50.3805 59.4206 50.3589 59.4668 50.3204 59.3422C49.9965 57.2801 49.4682 55.2311 49.264 53.1583Z" fill="#CE4520"/>
<path d="M50.9638 61.7918C50.8405 61.944 50.6686 62.0191 50.5002 62.0979C50.4814 61.6749 50.4556 61.2519 50.4497 60.8283C50.4479 60.7245 50.3552 60.5127 50.5741 60.5395C50.7378 60.5598 50.972 60.5783 50.9726 60.8527C50.9726 61.166 50.9667 61.4792 50.9638 61.7918Z" fill="#CE4520"/>
<path d="M65.4898 67.3247C65.3729 67.7344 65.1144 67.9371 64.6901 67.9399C63.2338 67.9476 62.0044 67.064 61.5719 65.6735C61.4867 65.4002 61.3471 65.2583 61.0576 65.3198C61.3993 64.727 62.045 64.6277 62.6569 64.5802C62.7697 64.562 62.8756 64.5012 62.8804 64.3733C62.8859 64.2132 62.7491 64.2314 62.6446 64.2111C62.3248 64.1482 62.0044 64.0922 61.6881 64.0139C61.0356 63.9028 61.1931 62.8486 61.8573 63.0555C63.0461 63.3093 64.1861 62.8388 65.3564 62.8213C65.4726 62.8192 65.5118 62.7549 65.4884 62.6417C65.6459 62.3439 67.3951 63.2072 67.2603 63.5665C67.1366 63.9972 66.0034 63.1632 65.5936 63.2205C65.364 63.1765 65.0388 63.2736 65.2443 63.5582C65.5042 63.9909 65.9367 64.2418 66.2998 64.5662C66.592 64.8256 66.4181 65.2156 66.0337 65.0975C65.8143 65.0842 65.0876 64.7382 65.0051 65.008C64.7513 65.4365 65.0566 65.6679 65.3344 65.9553C65.7834 66.5914 64.816 66.3866 65.1653 66.8668C65.2519 67.0346 65.4568 67.115 65.4898 67.3247Z" fill="#A34037"/>
<path d="M67.2172 63.6086C67.0697 63.2641 66.7475 63.1332 66.4525 62.9917C66.097 62.7894 65.6384 62.783 65.3267 62.5064C64.7332 62.1053 64.9558 61.2013 65.7393 61.3449C66.0997 61.3986 66.4602 61.4531 66.8206 61.5069C67.2234 61.8125 67.6875 62.0226 68.0709 62.3621C68.6763 62.8991 68.7326 63.4508 68.2657 64.108C67.6395 64.9887 67.037 65.8864 66.424 66.7764C66.106 66.9461 65.9042 67.3267 65.4895 67.3225C65.2724 67.244 65.1228 67.0763 65.0268 66.8782C64.9238 66.6639 64.7402 66.376 65.2279 66.3993C65.365 66.4057 65.3963 66.3052 65.3448 66.192C65.0581 65.6954 64.5126 65.5858 64.9183 64.8515C65.038 64.5707 65.7588 64.9541 66.0218 64.9725C66.1331 65.0022 66.2758 65.0779 66.344 64.9484C66.417 64.8119 66.2973 64.6973 66.1951 64.6216C65.7602 64.3478 64.1947 63.0087 65.5925 63.0872C66.177 63.1268 66.6522 63.5272 67.2172 63.6086Z" fill="#E57547"/>
<path d="M55.4931 67.504C55.7778 67.5346 55.5733 67.0959 55.833 67.0143C56.2399 67.124 56.6469 67.2337 57.0545 67.344C57.5343 69.1693 56.1841 67.5582 53.8777 68.8747C53.1678 69.2133 52.5188 69.6806 51.7964 69.9924C51.7663 69.9484 51.7506 69.8993 51.7813 69.8521C52.0359 69.4339 52.4404 68.6331 52.6837 68.4482C52.2516 68.8964 52.0159 69.4728 51.7105 70.0019C51.491 70.2754 49.4561 72.0115 50.1998 70.7829C50.6532 69.9975 51.0859 69.1635 51.2088 68.2474C51.1781 67.2502 53.7654 68.6191 55.4931 67.504Z" fill="#F68A2F"/>
<path d="M55.2624 66.6985C54.7976 66.6547 54.3591 66.5029 53.9225 66.3473C53.712 66.2616 53.8213 66.1187 53.9893 66.1307C54.4797 66.0952 54.9719 66.0698 55.4629 66.0412C55.9863 66.0101 56.0875 65.8964 56.0725 65.3928C56.065 65.1565 55.9557 65.0257 55.7446 64.9457C55.6084 64.8536 53.5577 64.2115 54.073 64.1626C54.9894 64.31 56.5616 64.5818 57.0151 65.5045C56.8103 65.4817 56.7378 65.5223 56.8577 65.7471C57.1369 66.2704 56.8915 66.6718 56.3037 66.6553C56.05 66.6483 55.7983 66.588 55.5453 66.5613C55.431 66.5492 55.2742 66.4749 55.2624 66.6985Z" fill="#A34037"/>
<path d="M65.45 61.33C64.948 61.6728 65.0906 62.0856 65.3277 62.5088C64.7899 62.3391 62.6576 62.3838 62.8501 61.5581C62.8995 61.2751 63.115 61.1789 63.3562 61.1913C64.0548 61.2256 64.7521 61.2826 65.45 61.33Z" fill="#A34037"/>
<path d="M54.2852 62.5559C55.2124 62.2723 56.1252 62.3281 57.0256 62.6796C56.1833 62.7081 54.9222 63.3051 54.2852 62.5559Z" fill="#A34037"/>
<path d="M57.0267 68.2824C57.0968 67.9715 56.8688 67.6503 57.0564 67.3432C57.4734 67.3528 57.8993 67.304 58.3093 67.3914C57.9972 67.7119 57.6845 68.0325 57.3717 68.353C57.2567 68.3293 57.1417 68.3055 57.0267 68.2824Z" fill="#FBC04B"/>
<path d="M65.7404 61.3469C65.72 61.3422 65.699 61.3368 65.6787 61.332C65.6997 61.3368 65.72 61.3422 65.7404 61.3469Z" fill="#A34037"/>
<path d="M37.4692 47.0749C37.4643 47.0369 37.46 46.9989 37.4551 46.9614C38.3843 46.6035 39.3853 46.5729 40.3324 46.2992C41.3076 46.0179 42.2062 45.5714 43.014 44.9366C43.1919 44.7969 43.3808 44.6142 43.6249 44.714C43.8672 44.8131 43.8273 45.0806 43.8678 45.2927C43.9304 45.6194 43.9733 45.9518 44.0598 46.2717C44.1058 46.4426 44.3088 46.5667 44.1843 46.7912C44.1733 46.8111 44.2996 46.9633 44.3603 46.9621C44.4996 46.9583 44.4014 46.8398 44.3984 46.7775C44.3898 46.6172 44.3511 46.4582 44.3456 46.2973C44.3432 46.2237 44.2579 46.0684 44.4554 46.0977C44.8118 46.6839 45.1841 47.3281 45.465 47.9773C43.5292 49.5569 39.067 48.9476 37.4692 47.0749Z" fill="#E57547"/>
<path d="M40.249 35.6978C40.3334 35.2716 40.4177 34.8442 40.5021 34.4174C40.5892 34.8798 40.546 35.3156 40.249 35.6978Z" fill="#E57547"/>
<path d="M37.4688 47.0729C39.4768 48.5912 41.8565 49.126 44.2745 48.4822C44.6976 48.377 45.0136 48.0107 45.4643 47.976C45.9114 48.9934 45.9713 50.0887 46.085 51.1743C46.5064 55.2342 48.5413 58.8208 49.4505 62.753C48.828 63.2294 48.1295 63.5623 47.3957 63.7947C45.5763 64.4166 43.8196 65.2052 42.0803 66.0243C41.9935 66.0645 41.8948 66.0772 41.802 66.1028C41.7458 66.0413 41.7248 65.9829 41.8152 65.9342C42.2677 59.369 38.9196 53.3278 37.4688 47.0729Z" fill="#FDF2C3"/>
<path d="M41.816 65.9366C41.816 66.3056 41.6377 66.7011 41.2439 66.8408C40.7902 66.2873 40.2213 66.1643 39.54 66.2776C37.5766 66.6034 35.594 66.8225 33.6725 67.3814C32.8946 67.6075 32.1182 67.8384 31.3424 68.0704C31.0898 68.1718 30.755 67.97 30.8956 67.6792C31.3382 66.0747 31.4613 64.4076 31.7208 62.7713C31.7531 62.6445 31.7701 62.5026 31.9484 62.5096C32.8797 66.4071 35.7431 64.6774 38.6129 64.9493C39.2534 64.9849 39.8876 65.0572 40.5175 65.1797C40.6024 65.1435 40.6613 65.1883 40.7143 65.2482C41.1012 65.4451 41.4074 65.7764 41.816 65.9366Z" fill="#CE4520"/>
<path d="M41.2441 66.8399C41.4236 66.6143 41.6037 66.3887 41.7837 66.1638C41.9878 66.1451 42.0818 66.2194 42.0947 66.4512C42.1476 67.4441 43.0055 68.3282 44.2101 67.769C47.8072 66.1313 51.7416 67.3704 55.4942 67.5034C54.6984 68.5213 52.4939 67.9508 51.3489 67.9958C50.998 68.2076 50.5242 68.1039 50.1296 68.1027C48.2564 68.1751 46.4889 68.8768 44.8074 69.6791C44.1314 70.0103 43.4812 70.3914 42.8045 70.7188C42.6902 70.7738 42.5821 70.8613 42.4456 70.7826C42.4352 70.6176 42.367 70.4783 42.2668 70.3527C42.3362 69.0643 41.8409 67.9327 41.2441 66.8399Z" fill="#A34037"/>
<path d="M14.9941 66.8311C15.2462 64.0721 18.1812 62.9741 20.4832 62.5868C20.7039 62.5473 20.9358 62.5581 21.1556 62.6382C21.0303 63.9971 20.9055 65.3561 20.7802 66.7151C20.0088 66.5949 19.1016 66.6447 18.4903 66.0751C18.361 65.9611 18.2797 65.7254 18.0327 65.8579C17.0193 66.4598 18.0453 66.9657 17.5745 67.3103C16.7465 67.9318 15.7236 67.3463 14.9941 66.8311Z" fill="#2D3E47"/>
<path d="M30.7056 68.1092C30.5952 68.3389 30.3521 68.35 30.164 68.4358C28.6379 69.1318 27.0739 69.707 25.4104 69.958C25.1498 69.9975 24.9015 70.115 24.6456 70.1887C24.5599 70.2133 24.4476 70.3438 24.3898 70.2263C24.3282 70.1006 24.4599 70.0163 24.5651 69.9532C26.0282 69.0798 27.5112 68.0104 29.3036 68.3332C29.5002 68.4257 30.8127 67.7416 30.7056 68.1092Z" fill="#CE4520"/>
<path d="M36.9156 53.094C36.9634 53.3272 36.7431 53.3561 36.6905 53.0749C35.8288 50.8922 35.9656 48.5002 35.4669 46.2332C35.4494 46.1526 35.4004 46.0597 35.4833 45.9822C36.9634 48.0302 36.6021 50.6535 36.9156 53.094Z" fill="#CE4520"/>
<path d="M30.7051 68.111C31.7403 64.5093 31.71 60.78 31.9534 57.0749C31.9745 56.9127 31.9469 56.6988 32.1724 56.6317C32.0875 58.5909 31.9577 60.549 31.948 62.5105C31.71 62.7782 31.7019 63.1252 31.67 63.4507C31.5759 64.0369 31.2113 68.2534 30.7051 68.111Z" fill="#A34037"/>
<path d="M32.1722 56.632C31.9367 57.5838 32.0156 58.5957 31.8326 59.5403C31.745 58.8809 31.0761 55.8111 31.6907 55.5326C32.0194 55.4831 32.204 56.3725 32.1722 56.632Z" fill="#CE4520"/>
<path d="M27.3359 65.2459C27.8297 65.5163 28.1577 65.9919 28.6046 66.3215C29.1301 66.738 29.7094 67.1073 30.1905 67.573C29.0964 67.1083 27.9788 66.2872 27.3359 65.2459Z" fill="#CE4520"/>
<path d="M27.2666 65.1336C27.2788 65.1715 27.3488 65.2272 27.3224 65.2571C27.3033 65.2183 27.2872 65.1655 27.2666 65.1336Z" fill="#CE4520"/>
<path d="M30.3486 67.6874C30.4032 67.7006 30.4084 67.7021 30.352 67.6845L30.3486 67.6874Z" fill="#CE4520"/>
<path d="M30.3521 67.6849C30.3317 67.6754 30.3284 67.6735 30.3483 67.6877L30.3521 67.6849Z" fill="#CE4520"/>
<path d="M27.2061 65.0752C27.2266 65.0924 27.2472 65.1213 27.2673 65.1326C27.2472 65.1174 27.2261 65.0772 27.2061 65.0752Z" fill="#CE4520"/>
<path d="M27.2098 65.0693C27.1916 65.0615 27.1882 65.06 27.2063 65.0728L27.2098 65.0693Z" fill="#CE4520"/>
<path d="M83.0873 68.2317C83.0755 68.2059 83.074 68.2076 83.0991 68.2192C83.0991 68.2188 83.0873 68.2317 83.0873 68.2317Z" fill="#487368"/>
<path d="M42.4452 70.7819C43.0242 70.3315 49.6979 67.0696 49.5399 68.3494C49.3488 69.9236 49.127 71.6767 48.0663 72.9129C46.6326 73.9631 45.1318 75.038 43.7323 76.1765C40.978 78.3864 38.3828 80.7912 35.6921 83.0776C35.5786 83.0041 35.581 82.8869 35.6122 82.7821C35.856 81.9321 36.1721 81.0243 36.9758 80.5846C36.9758 80.5846 37.0024 80.5881 37.0013 80.5893C37.0007 80.5911 36.9787 80.5775 36.9781 80.5781C36.9723 80.5993 36.9607 80.6134 36.9422 80.624C36.4819 80.9284 36.6475 80.2119 36.8015 80.0189C37.516 78.4271 38.4378 76.923 38.9531 75.2447C39.0029 75.0786 39.0695 74.9232 39.183 74.7925C39.8425 74.3334 40.4788 73.8324 41.1679 73.4256C42.2252 72.8428 42.583 71.9828 42.4452 70.7819Z" fill="#FDF2C3"/>
<path d="M39.1824 74.7949C38.7456 76.9877 37.2432 78.8766 36.6279 80.937C35.8417 81.8509 35.7522 83.0686 35.3128 84.1561C34.2066 81.5407 36.083 78.9252 36.8949 76.53C36.9854 75.9405 37.3214 75.6732 37.8349 75.4828C38.3036 75.3091 38.7348 75.0282 39.1824 74.7949Z" fill="#F68A2F"/>
<path d="M48.0654 72.9147C48.9089 71.4055 49.3472 69.7928 49.4313 68.0554C49.6452 67.9337 49.8762 68.009 50.0995 67.994C50.414 68.3854 49.7956 70.5221 49.6647 71.0918C49.6487 71.1357 49.6304 71.2224 49.6659 71.1309C50.0047 70.4576 50.4111 69.8199 50.6782 69.1087C50.8606 68.7558 50.8198 68.2794 51.0988 67.9921C51.8676 67.9675 50.5799 70.3968 50.3346 70.8033C49.9259 71.5856 48.8621 72.519 48.0654 72.9147Z" fill="#CE4520"/>
<path d="M51.7109 70.0032C51.8873 69.3402 52.1664 68.7446 52.7534 68.3563C52.4946 68.8121 52.2358 69.2679 51.9746 69.7219C51.8945 69.8203 51.8538 70.0099 51.7109 70.0032Z" fill="#A34037"/>
<path d="M12.5088 68.4809C14.6199 67.3603 17.4352 68.112 19.1263 69.7607C19.272 69.9035 19.3306 70.1431 19.5677 70.1862C19.0544 70.7468 18.544 71.3083 18.1936 72.0005C18.097 72.1902 17.9175 72.2241 17.7323 72.136C17.0519 71.8127 16.3572 71.5314 15.6445 71.2875C15.2736 71.1611 15.1998 70.7148 14.977 70.4253C14.3199 69.5492 13.4034 69.038 12.5088 68.4809Z" fill="#2D3E47"/>
<path d="M37.6982 31.3169C38.7449 32.503 39.3761 35.5416 38.0541 36.7256C38.8434 34.9076 38.6603 32.9875 37.6982 31.3169Z" fill="#E57547"/>
<path d="M38.8125 36.6541C40.0612 35.0574 39.6196 33.2876 39.0665 31.555L39.0638 31.5579C39.7781 32.8428 40.0819 34.6472 39.4057 36.011C39.2742 36.2333 39.0797 36.6738 38.8125 36.6541Z" fill="#E57547"/>
<path d="M37.8887 30.0849C38.2322 30.2417 38.8799 30.891 38.8589 31.2751C38.8189 31.2516 38.7692 31.2367 38.7411 31.2024C38.4747 30.8382 38.0212 30.5025 37.8887 30.0849Z" fill="#FBC04B"/>
<path d="M38.837 36.6885C38.6432 37.0294 38.2821 37.0341 37.9719 37.1397C37.9514 37.1471 37.9216 37.1282 37.8965 37.1215C38.1584 36.909 38.5155 36.8203 38.8125 36.6555C38.8251 36.6629 38.833 36.6737 38.837 36.6885Z" fill="#FBC04B"/>
<path d="M37.2819 29.7766C37.2637 29.7661 37.2637 29.7562 37.2847 29.7548C37.3044 29.7619 37.3016 29.771 37.2819 29.7766Z" fill="#FBC04B"/>
<path d="M37.5508 31.1448C37.5515 31.1614 37.5529 31.1781 37.5536 31.1941C37.5515 31.1788 37.5563 31.1559 37.5508 31.1448Z" fill="#E57547"/>
<path d="M37.7035 31.3138C37.691 31.3076 37.6535 31.2972 37.6854 31.2986C37.693 31.302 37.6965 31.327 37.7035 31.3138Z" fill="#E57547"/>
<path d="M39.0667 31.5557L39.0508 31.5495C39.0542 31.5502 39.0639 31.5634 39.0667 31.5557Z" fill="#E57547"/>
<path d="M37.5504 31.1428C37.5469 31.1266 37.5323 31.0785 37.5205 31.0715C37.5302 31.0955 37.5407 31.1195 37.5504 31.1428Z" fill="#FBC04B"/>
<path d="M38.0535 36.7285C38.0469 36.7418 38.0442 36.755 38.0264 36.749C38.0343 36.7418 38.064 36.7391 38.0535 36.7285Z" fill="#E57547"/>
<path d="M37.8709 30.1033C37.8505 30.0689 37.854 30.0682 37.8891 30.0857C37.8891 30.085 37.8709 30.1033 37.8709 30.1033Z" fill="#FBC04B"/>
<path d="M30.9419 32.5301L30.9268 32.5459C30.9268 32.5452 30.9446 32.5308 30.9419 32.5301Z" fill="#0B0D13"/>
<path d="M67.2173 63.6098C67.2386 63.6249 67.2352 63.6236 67.2139 63.6133L67.2173 63.6098Z" fill="#A34037"/>
<path d="M51.0995 67.9924C50.9244 69.293 50.2023 70.3707 49.6011 71.4915C49.5647 71.5554 49.5377 71.6707 49.436 71.6134C49.3432 71.562 49.4084 71.4724 49.4325 71.3983C49.7915 70.2913 50.0177 69.1574 50.1 67.9942C50.4338 67.9936 50.7664 67.9924 51.0995 67.9924Z" fill="#F68A2F"/>
</svg>
