<svg width="100" height="100" viewBox="0 0 100 100" fill="none" xmlns="http://www.w3.org/2000/svg">
<path d="M89.2578 100H10.7422C4.81895 100 0 95.1811 0 89.2578V10.7422C0 4.81895 4.81895 0 10.7422 0H89.2578C95.1811 0 100 4.81895 100 10.7422V89.2578C100 95.1811 95.1811 100 89.2578 100Z" fill="url(#paint0_linear_1859_1797)" fill-opacity="0.74"/>
<path d="M100 89.2578V10.7422C100 4.81895 95.1811 0 89.2578 0H50V100H89.2578C95.1811 100 100 95.1811 100 89.2578Z" fill="url(#paint1_linear_1859_1797)"/>
<path d="M73.4375 56.8359H26.5625C21.7162 56.8359 17.7734 52.8932 17.7734 48.0469V20.7031C17.7734 15.8568 21.7162 11.9141 26.5625 11.9141H73.4375C78.2838 11.9141 82.2266 15.8568 82.2266 20.7031V48.0469C82.2266 52.8932 78.2838 56.8359 73.4375 56.8359Z" fill="#FF6378"/>
<path d="M73.4375 11.9141H50V56.8359H73.4375C78.2838 56.8359 82.2266 52.8932 82.2266 48.0469V20.7031C82.2266 15.8568 78.2838 11.9141 73.4375 11.9141Z" fill="#FF1F3D"/>
<path d="M27.7127 83.284C27.7072 83.284 27.7014 83.284 27.6959 83.284C26.3707 83.2914 24.9744 83.2969 23.8027 83.2992V66.6989C23.8027 65.0809 22.491 63.7692 20.873 63.7692C19.2551 63.7692 17.9434 65.0809 17.9434 66.6989V86.2137C17.9434 87.6408 18.9717 88.8602 20.3781 89.1014C20.5891 89.1375 20.7287 89.1615 22.9096 89.1615C23.9617 89.1615 25.4895 89.1561 27.7287 89.1436C29.3467 89.1346 30.651 87.8155 30.642 86.1975C30.633 84.5848 29.323 83.284 27.7127 83.284Z" fill="#FFF5F5"/>
<path d="M79.1271 83.3004H73.8271V79.3942H78.5201C80.1381 79.3942 81.4498 78.0824 81.4498 76.4645C81.4498 74.8465 80.1381 73.5348 78.5201 73.5348H73.8271V69.6285H79.1271C80.7451 69.6285 82.0568 68.3168 82.0568 66.6989C82.0568 65.0809 80.7451 63.7692 79.1271 63.7692H70.8975C69.2795 63.7692 67.9678 65.0809 67.9678 66.6989V86.2301C67.9678 87.8481 69.2795 89.1598 70.8975 89.1598H79.1271C80.7451 89.1598 82.0568 87.8481 82.0568 86.2301C82.0568 84.6121 80.7451 83.3004 79.1271 83.3004Z" fill="white"/>
<path d="M62.0553 63.9544C60.5196 63.4436 58.8614 64.2756 58.3514 65.811L54.2856 78.0504L50.0118 65.7381C49.4811 64.2096 47.8116 63.4002 46.2832 63.9313C44.7547 64.4618 43.9457 66.1311 44.4762 67.6596L51.154 86.8977C51.1563 86.9042 51.1584 86.9106 51.1608 86.917C51.6377 88.261 52.9124 89.16 54.337 89.16H54.3598C55.7936 89.1504 57.0668 88.2319 57.5284 86.8743C57.5305 86.8678 57.5327 86.8616 57.5348 86.8551L63.912 67.6586C64.4221 66.1227 63.5909 64.4645 62.0553 63.9544Z" fill="#FFF5F5"/>
<path d="M62.0551 63.9543C60.5193 63.4435 58.8611 64.2755 58.3512 65.8109L54.2854 78.0504L50.0115 65.7381C50.0082 65.7283 50.0035 65.7195 50 65.7097V83.5736L51.1537 86.8974C51.1561 86.9039 51.1582 86.9103 51.1605 86.9168C51.6375 88.2607 52.9121 89.1597 54.3367 89.1597H54.3596C55.7934 89.1502 57.0666 88.2316 57.5281 86.874C57.5303 86.8675 57.5324 86.8613 57.5346 86.8548L63.9117 67.6584C64.4219 66.1226 63.5906 64.4644 62.0551 63.9543Z" fill="white"/>
<path d="M37.4785 63.7692C35.8605 63.7692 34.5488 65.0809 34.5488 66.6989V86.2301C34.5488 87.8481 35.8605 89.1598 37.4785 89.1598C39.0965 89.1598 40.4082 87.8481 40.4082 86.2301V66.6989C40.4082 65.0809 39.0965 63.7692 37.4785 63.7692Z" fill="#FFF5F5"/>
<path d="M41.2109 42.1875V26.5625C41.2109 24.3131 43.641 22.9027 45.5941 24.0187L59.266 31.8312C61.2342 32.9558 61.2342 35.7939 59.266 36.9185L45.5941 44.731C43.641 45.8472 41.2109 44.4369 41.2109 42.1875Z" fill="#FFF5F5"/>
<path d="M59.266 31.8312L50 26.5365V42.2136L59.266 36.9187C61.2342 35.7939 61.2342 32.956 59.266 31.8312Z" fill="#DFDEF5"/>
<defs>
<linearGradient id="paint0_linear_1859_1797" x1="65.5" y1="63.5" x2="50" y2="100" gradientUnits="userSpaceOnUse">
<stop offset="0.254808" stop-color="#64748B"/>
<stop offset="1" stop-color="#1B1F25"/>
</linearGradient>
<linearGradient id="paint1_linear_1859_1797" x1="75" y1="0" x2="75" y2="100" gradientUnits="userSpaceOnUse">
<stop stop-color="#D8DEE8"/>
<stop offset="0.5" stop-color="#A9ADB5"/>
<stop offset="1" stop-color="#797C82"/>
</linearGradient>
</defs>
</svg>
