<svg width="52" height="52" viewBox="0 0 52 52" fill="none" xmlns="http://www.w3.org/2000/svg">
<g clip-path="url(#clip0_1938_3810)">
<path d="M5.28125 52H1.52344C0.682094 52 0 51.3179 0 50.4766V32.1953C0 31.354 0.682094 30.6719 1.52344 30.6719H5.28125C6.12259 30.6719 6.80469 31.354 6.80469 32.1953V50.4766C6.80469 51.3179 6.12259 52 5.28125 52Z" fill="#FBA94A"/>
<path d="M50.0959 35.4262C48.9214 34.7797 47.4881 34.8238 46.3556 35.5412L40.7818 39.0712C40.6133 40.5093 39.9802 41.8438 38.9486 42.9001C37.6949 44.1836 36.018 44.8906 34.2266 44.8906H26.6524C25.8321 44.8906 25.1263 44.2602 25.0877 43.4408C25.0464 42.566 25.7436 41.8438 26.6094 41.8438H34.2266C36.2151 41.8438 37.8276 40.2023 37.7802 38.2032C37.7343 36.2628 36.1009 34.7344 34.1598 34.7344H25.5938L24.6001 33.9891C22.6211 32.5049 20.169 31.6875 17.6952 31.6875C15.61 31.6875 13.5626 32.2546 11.7743 33.3274L9.85156 34.4812V49.9688H35.4581C36.9388 49.9688 38.3874 49.5372 39.6266 48.7269L50.3353 41.7251C51.3776 41.0434 52 39.8929 52 38.6475C52 37.3069 51.2704 36.0726 50.0959 35.4262Z" fill="#FBA94A"/>
<path d="M21.5312 -0.00213623C28.5425 -0.0020615 34.2266 5.68187 34.2266 12.6932C34.2265 19.7044 28.5425 25.3884 21.5312 25.3885C14.52 25.3884 8.83601 19.7044 8.83594 12.6932C8.83594 5.68189 14.52 -0.00203727 21.5312 -0.00213623ZM18.1602 10.7713C17.9007 10.4922 17.4608 10.4733 17.1777 10.7293C16.8945 10.985 16.8754 11.4191 17.1348 11.6981L18.1045 12.7401C18.0068 12.7615 17.91 12.7852 17.8154 12.8143C17.7014 12.8493 17.5895 12.8899 17.4805 12.9354C17.3716 12.9808 17.2653 13.0315 17.1621 13.0867C17.1105 13.1144 17.0598 13.1437 17.0098 13.1736C16.7591 13.3238 16.5277 13.5026 16.3213 13.7059C16.2801 13.7464 16.2403 13.7885 16.2012 13.8309C16.0441 14.0011 15.9032 14.1861 15.7812 14.3836C15.7508 14.4329 15.7214 14.4832 15.6934 14.534C15.4469 14.9804 15.2947 15.4838 15.2607 16.0184C15.2559 16.0936 15.252 16.1695 15.252 16.2459C15.252 18.2265 16.8881 19.8384 18.8984 19.8387H26.9814C27.3656 19.8387 27.6767 19.5314 27.6768 19.1531C27.6768 19.0583 27.6575 18.9677 27.6221 18.8856C27.5869 18.8037 27.5364 18.7297 27.4736 18.6678C27.4421 18.6367 27.4072 18.6085 27.3701 18.5838C27.2592 18.5101 27.1253 18.4666 26.9814 18.4666H18.8984C18.4322 18.4665 17.9985 18.3266 17.6387 18.0867C17.5187 18.0067 17.4067 17.9159 17.3047 17.8152C17.1007 17.6142 16.9355 17.3747 16.8213 17.1092C16.7642 16.9763 16.7195 16.8368 16.6895 16.6922C16.6594 16.5478 16.6436 16.3979 16.6436 16.2449C16.6436 16.1685 16.6476 16.0929 16.6553 16.0184C16.6865 15.7165 16.7801 15.4326 16.9219 15.1785C17.3056 14.4913 18.0477 14.0244 18.8984 14.0242H19.2998L21.0508 15.9051C21.1879 16.0527 21.3754 16.1277 21.5635 16.1277C21.7312 16.1277 21.8997 16.0677 22.0332 15.9471C22.3164 15.6914 22.3357 15.2573 22.0762 14.9783L20.1123 12.868C20.1079 12.8634 20.1042 12.8578 20.0996 12.8533C20.0978 12.8516 20.0955 12.8502 20.0938 12.8484L18.1602 10.7713ZM15.3721 6.83771C15.1803 6.83787 15.0066 6.91506 14.8809 7.03888C14.7549 7.163 14.6766 7.33475 14.6768 7.52423C14.6768 7.71332 14.755 7.8846 14.8809 8.00861C14.9123 8.0395 14.9465 8.06803 14.9834 8.09259C15.0944 8.16649 15.229 8.20974 15.373 8.20978H23.4551C23.8437 8.20978 24.2098 8.30705 24.5293 8.47833C24.5931 8.51252 24.655 8.54977 24.7148 8.58966C25.0747 8.82943 25.3608 9.1687 25.5322 9.5672C25.6464 9.83279 25.7099 10.1244 25.71 10.4305C25.71 11.6556 24.6985 12.6522 23.4551 12.6522H23.0508L21.2998 10.7713C21.04 10.4919 20.5995 10.4729 20.3164 10.7293C20.0332 10.985 20.015 11.4191 20.2744 11.6981L24.1904 15.9051C24.3275 16.0526 24.5151 16.1267 24.7031 16.1268C24.8708 16.1267 25.0394 16.0677 25.1729 15.9471C25.4563 15.6914 25.4754 15.2573 25.2158 14.9783L24.2461 13.9363C25.8773 13.5792 27.1016 12.144 27.1016 10.4305C27.1014 8.44967 25.4655 6.83775 23.4551 6.83771H15.3721Z" fill="#FBA94A"/>
<path d="M51.8565 20.4959C51.6058 19.9606 51.068 19.6186 50.4769 19.6186H48.2594C46.913 14.3008 43.8774 9.48837 39.6207 5.96324C37.6406 4.32341 35.4347 2.99914 33.0879 2.01794C35.6843 4.82594 37.2738 8.57827 37.2738 12.6953C37.2738 13.9616 37.1225 15.1929 36.8389 16.3734C37.5462 17.3872 38.1444 18.4756 38.6147 19.6186H37.2738C36.6827 19.6186 36.1449 19.9606 35.8942 20.4959C35.6434 21.0313 35.7251 21.6633 36.1035 22.1174L42.705 30.0392C42.9945 30.3866 43.4232 30.5874 43.8754 30.5874C44.3275 30.5874 44.7563 30.3865 45.0457 30.0392L51.6472 22.1174C52.0256 21.6633 52.1073 21.0312 51.8565 20.4959Z" fill="#FBA94A"/>
</g>
<defs>
<clipPath id="clip0_1938_3810">
<rect width="52" height="52" fill="white"/>
</clipPath>
</defs>
</svg>
