<svg width="29" height="49" viewBox="0 0 29 49" fill="none" xmlns="http://www.w3.org/2000/svg">
<path d="M9.36818 46.5349C9.36818 47.7265 10.3376 48.6958 11.5291 48.6958H21.0925C22.284 48.6958 23.2534 47.7264 23.2534 46.5349V43.8416H9.36818V46.5349ZM27.7857 35.9735C28.3607 35.2379 28.6737 34.3314 28.675 33.3977V30.0208C28.675 28.1769 27.4386 26.5285 25.6683 26.0126L17.6463 23.6745V14.2997C17.6463 12.401 16.1015 10.8561 14.2027 10.8561C12.3039 10.8561 10.7592 12.401 10.7592 14.2997V29.3469L8.28868 26.3827C7.23832 25.1225 5.36961 24.8818 4.03411 25.8344C2.83514 26.6899 2.38893 28.2389 2.9491 29.6011C2.95538 29.6165 2.96224 29.6317 2.96966 29.6466L8.58695 40.9855H24.3658L27.7857 35.9735Z" fill="#3E66F3"/>
<path d="M14.2028 5.12213C9.19626 5.12213 5.12305 9.19525 5.12305 14.2018C5.12305 14.9905 5.76242 15.6298 6.55107 15.6298C7.33973 15.6298 7.9791 14.9905 7.9791 14.2018C7.9791 10.7701 10.7711 7.97819 14.2028 7.97819C17.6346 7.97819 20.4265 10.7701 20.4265 14.2018C20.4265 14.9905 21.0658 15.6298 21.8545 15.6298C22.6431 15.6298 23.2825 14.9905 23.2825 14.2018C23.2825 9.19525 19.2094 5.12213 14.2028 5.12213Z" fill="#3E66F3"/>
<path d="M14.2022 2.85605C20.4583 2.85605 25.548 7.94573 25.548 14.2018C25.548 14.9905 26.1874 15.6299 26.976 15.6299C27.7647 15.6299 28.4041 14.9905 28.4041 14.2018C28.4041 6.37091 22.0331 0 14.2022 0C6.37139 0 0.000488281 6.37091 0.000488281 14.2018C0.000488281 14.9905 0.639864 15.6299 1.42852 15.6299C2.21717 15.6299 2.85654 14.9905 2.85654 14.2018C2.85654 7.94573 7.94622 2.85605 14.2022 2.85605Z" fill="#3E66F3"/>
</svg>
