<svg width="24" height="30" viewBox="0 0 24 30" fill="none" xmlns="http://www.w3.org/2000/svg">
<mask id="mask0_1870_700" style="mask-type:alpha" maskUnits="userSpaceOnUse" x="0" y="0" width="24" height="3">
<rect width="24" height="2.30159" rx="1.15079" fill="#F3B811"/>
</mask>
<g mask="url(#mask0_1870_700)">
<path d="M0 0H8.88V8.63096V12.6587H8.69628C5.3466 12.6587 2.16638 11.1858 0 8.63096V0Z" fill="#E52021"/>
<rect x="8.88184" width="6.24" height="12.6587" fill="#F7F7F7"/>
<path d="M15.1162 0H23.9962V8.63096C21.8298 11.1858 18.6496 12.6587 15.2999 12.6587H15.1162V8.63096V0Z" fill="#268A42"/>
<rect width="24" height="2.30159" rx="1.15079" fill="black" fill-opacity="0.05"/>
</g>
<path d="M8.875 10.8865L8.85645 10.8826C7.8406 10.6217 6.75786 11.1199 6.33789 12.0417L6.06543 12.6404C6.02522 12.7288 5.9626 12.8069 5.88379 12.8669C5.8051 12.9269 5.71217 12.9673 5.61328 12.9851L4.94141 13.1062C4.75472 13.1399 4.57727 13.1976 4.41211 13.2742C3.89091 12.8157 3.43493 12.2753 3.06934 11.6619L2.63477 10.9324V2.30151H8.875V10.8865Z" fill="#E52021"/>
<path d="M15.123 10.8875L14.4844 11.0515C14.3871 11.0765 14.2847 11.0788 14.1865 11.0574C14.0883 11.0359 13.9972 10.9914 13.9209 10.9285L13.4033 10.5017C12.6067 9.84543 11.4042 9.84543 10.6074 10.5017L10.0898 10.9285C10.0135 10.9914 9.92246 11.0359 9.82422 11.0574C9.72597 11.0788 9.62368 11.0765 9.52637 11.0515L8.88281 10.8865V2.30151H15.123V10.8875Z" fill="#F7F7F7"/>
<path d="M21.3574 10.9324L20.9229 11.6619C20.557 12.2757 20.0997 12.8155 19.5781 13.2742C19.413 13.1976 19.2355 13.1399 19.0488 13.1062L18.3779 12.9851C18.2789 12.9673 18.1853 12.927 18.1064 12.8669C18.0277 12.8069 17.966 12.7287 17.9258 12.6404L17.6523 12.0417C17.2324 11.1199 16.1496 10.6216 15.1338 10.8826L15.1172 10.8865V2.30151H21.3574V10.9324Z" fill="#268A42"/>
<path d="M12.1172 1.31006L12.3734 3.91692L13.385 1.48487L12.8649 4.05534L14.5501 1.99513L13.2959 4.32097L15.5181 2.7995L13.6314 4.69229L16.2105 3.83282L13.8443 5.13921L16.5714 5.01138L13.9172 5.62554L16.5714 6.23969L13.8443 6.11186L16.2105 7.41825L13.6314 6.55879L15.5181 8.45158L13.2959 6.93011L14.5501 9.25595L12.8649 7.19574L13.385 9.76621L12.3734 7.33416L12.1172 9.94102L11.861 7.33416L10.8494 9.76621L11.3694 7.19574L9.6843 9.25595L10.9384 6.93011L8.71631 8.45158L10.6029 6.55879L8.02384 7.41825L10.3901 6.11186L7.66299 6.23969L10.3172 5.62554L7.66299 5.01138L10.3901 5.13921L8.02384 3.83282L10.6029 4.69229L8.71631 2.7995L10.9384 4.32097L9.6843 1.99513L11.3694 4.05534L10.8494 1.48487L11.861 3.91692L12.1172 1.31006Z" fill="#F7B70F"/>
<path fill-rule="evenodd" clip-rule="evenodd" d="M20.985 20.8714C20.9429 20.7936 20.9209 20.7069 20.9209 20.6189C20.9209 20.531 20.9429 20.4443 20.9849 20.3665L21.2698 19.8392C21.7081 19.0278 21.47 18.0051 20.7158 17.4604L20.2256 17.1064C20.1533 17.0543 20.0951 16.9855 20.0562 16.9063C20.0172 16.827 19.9986 16.7396 20.0021 16.6516L20.0253 16.0553C20.0609 15.138 19.3935 14.3179 18.4729 14.1478L17.8744 14.0372C17.7862 14.0209 17.7034 13.9838 17.6331 13.9289C17.5629 13.874 17.5075 13.8032 17.4717 13.7225L17.2286 13.1754C16.8544 12.3337 15.8901 11.8785 14.9852 12.1168L14.3971 12.2716C14.3104 12.2944 14.2193 12.2962 14.1318 12.2766C14.0442 12.257 13.9629 12.2167 13.8949 12.1593L13.4336 11.7697C12.724 11.1705 11.6535 11.1705 10.9437 11.7697L10.4824 12.1593C10.4144 12.2167 10.3331 12.257 10.2456 12.2766C10.158 12.2961 10.0669 12.2944 9.98022 12.2716L9.39212 12.1168C8.4872 11.8786 7.52291 12.3337 7.1488 13.1754L6.9056 13.7225C6.86978 13.8032 6.81435 13.8741 6.74415 13.9289C6.67394 13.9838 6.5911 14.0209 6.50286 14.0372L5.90445 14.1478C4.9838 14.3179 4.31638 15.138 4.35201 16.0553L4.37517 16.6516C4.37863 16.7396 4.36007 16.827 4.32111 16.9062C4.28216 16.9855 4.22399 17.0542 4.15169 17.1064L3.66149 17.4605C2.90734 18.0052 2.66916 19.0278 3.10744 19.8392L3.39233 20.3666C3.43438 20.4443 3.45637 20.531 3.45637 20.619C3.45637 20.707 3.43438 20.7936 3.39233 20.8714L3.10744 21.3987C2.66916 22.2101 2.90734 23.2327 3.66149 23.7775L4.15164 24.1315C4.22396 24.1837 4.28213 24.2524 4.32109 24.3317C4.36005 24.411 4.3786 24.4984 4.37512 24.5863L4.35197 25.1826C4.31633 26.1 4.98375 26.9201 5.90441 27.0902L6.21818 27.1481L6.21824 27.148L6.50273 27.2006C6.59098 27.2169 6.67383 27.2541 6.74404 27.3089C6.81425 27.3638 6.86969 27.4347 6.90551 27.5154L7.14866 28.0624C7.52278 28.9041 8.48711 29.3593 9.39199 29.121L9.98008 28.9663C10.0668 28.9434 10.1579 28.9417 10.2454 28.9613C10.333 28.9809 10.4143 29.0211 10.4823 29.0786L10.9436 29.4681C10.9819 29.5003 11.0216 29.531 11.0624 29.56L11.0623 29.5602L11.0625 29.5601C11.3953 29.7983 11.7919 29.9176 12.1886 29.9176C12.5793 29.9176 12.9699 29.8021 13.2995 29.5713L13.2995 29.5712C13.3457 29.5388 13.3905 29.5044 13.4335 29.4681L13.8949 29.0786C13.9629 29.0211 14.0442 28.9808 14.1317 28.9613C14.2192 28.9417 14.3103 28.9434 14.397 28.9663L14.9851 29.121C15.147 29.1636 15.3106 29.184 15.4726 29.184C16.2159 29.184 16.9213 28.7535 17.2285 28.0624L17.4717 27.5153C17.5075 27.4346 17.5629 27.3638 17.6331 27.3089C17.7033 27.254 17.7861 27.2168 17.8744 27.2006L18.1393 27.1517L18.1394 27.1518L18.1394 27.1518L18.4729 27.0901C19.3936 26.92 20.061 26.1 20.0253 25.1825L20.0021 24.5863C19.9987 24.4984 20.0172 24.4109 20.0562 24.3317C20.0951 24.2524 20.1533 24.1837 20.2256 24.1315L20.7158 23.7775C21.47 23.2328 21.7082 22.2101 21.2699 21.3987L20.985 20.8714Z" fill="#F3B811"/>
<ellipse cx="12.1843" cy="20.6678" rx="6.08077" ry="5.95858" fill="url(#paint0_linear_1870_700)"/>
<g filter="url(#filter0_i_1870_700)">
<path d="M16.3834 20.5122C16.6035 20.302 16.6815 19.9936 16.5865 19.7069C16.4915 19.4203 16.2435 19.2156 15.9397 19.1721L14.0305 18.9C14.013 18.8974 13.9964 18.8908 13.9822 18.8806C13.9679 18.8704 13.9563 18.857 13.9486 18.8414L13.0951 17.1464C12.9591 16.8764 12.6836 16.7085 12.3763 16.7085C12.069 16.7085 11.7935 16.8768 11.6575 17.1464L10.8041 18.8414C10.7964 18.857 10.7848 18.8705 10.7706 18.8807C10.7563 18.8909 10.7396 18.8975 10.7221 18.9L8.81385 19.1721C8.5096 19.2156 8.26115 19.4203 8.16656 19.7069C8.07198 19.9936 8.14956 20.302 8.36968 20.5122L9.75056 21.8313C9.77671 21.8561 9.78805 21.8915 9.78195 21.9261L9.4559 23.7887C9.42998 23.9332 9.44617 24.082 9.50261 24.2179C9.55904 24.3539 9.65344 24.4714 9.77497 24.5572C9.89567 24.6439 10.0388 24.6955 10.1881 24.7061C10.3373 24.7168 10.4866 24.686 10.6188 24.6174L12.3258 23.7378C12.3415 23.7296 12.359 23.7254 12.3768 23.7254C12.3945 23.7254 12.4121 23.7296 12.4278 23.7378L14.1347 24.6174C14.2669 24.6859 14.4161 24.7165 14.5652 24.7059C14.7143 24.6952 14.8574 24.6437 14.9781 24.5572C15.0997 24.4715 15.1941 24.3539 15.2505 24.2179C15.307 24.082 15.3231 23.9332 15.2972 23.7887L14.9711 21.9261C14.9682 21.909 14.9695 21.8915 14.9749 21.8749C14.9804 21.8584 14.9899 21.8435 15.0025 21.8313L16.3834 20.5122Z" fill="#F3B811"/>
</g>
<defs>
<filter id="filter0_i_1870_700" x="8.12695" y="16.7085" width="8.49902" height="14.4841" filterUnits="userSpaceOnUse" color-interpolation-filters="sRGB">
<feFlood flood-opacity="0" result="BackgroundImageFix"/>
<feBlend mode="normal" in="SourceGraphic" in2="BackgroundImageFix" result="shape"/>
<feColorMatrix in="SourceAlpha" type="matrix" values="0 0 0 0 0 0 0 0 0 0 0 0 0 0 0 0 0 0 127 0" result="hardAlpha"/>
<feOffset dy="6.48438"/>
<feGaussianBlur stdDeviation="6.48438"/>
<feComposite in2="hardAlpha" operator="arithmetic" k2="-1" k3="1"/>
<feColorMatrix type="matrix" values="0 0 0 0 0 0 0 0 0 0 0 0 0 0 0 0 0 0 0.1 0"/>
<feBlend mode="normal" in2="shape" result="effect1_innerShadow_1870_700"/>
</filter>
<linearGradient id="paint0_linear_1870_700" x1="12.1735" y1="33.9974" x2="12.1735" y2="14.7092" gradientUnits="userSpaceOnUse">
<stop stop-color="#FFE59A"/>
<stop offset="1" stop-color="#FFFFD5"/>
</linearGradient>
</defs>
</svg>
