<svg width="19" height="31" viewBox="0 0 19 31" fill="none" xmlns="http://www.w3.org/2000/svg">
<path d="M10.5788 15.9534H11.1014C12.5843 15.9534 13.791 14.7648 13.791 13.3034C13.791 11.8421 12.5845 10.6533 11.1014 10.6533H5.13972C4.8563 10.6533 4.62664 10.8798 4.62664 11.1589C4.62664 11.4381 4.85649 11.6644 5.13972 11.6644H11.1016C12.0188 11.6644 12.7649 12.3995 12.7649 13.3032C12.7649 14.2068 12.0188 14.942 11.1016 14.942H10.579C10.2956 14.942 10.0659 15.1684 10.0659 15.4475C10.0659 15.7266 10.2956 15.9534 10.5788 15.9534Z" fill="#F2BE1D"/>
<path d="M5.13953 10.6533H11.1014C12.5843 10.6533 13.791 11.8421 13.791 13.3034C13.791 14.7646 12.5845 15.9534 11.1014 15.9534H10.5788C10.2954 15.9534 10.0657 15.7269 10.0657 15.4479C10.0657 15.1688 10.2956 14.9423 10.5788 14.9423H11.1014C12.0186 14.9423 12.7647 14.2072 12.7647 13.3035C12.7647 12.3999 12.0186 11.6648 11.1014 11.6648H5.13972C4.8563 11.6648 4.62664 11.4383 4.62664 11.1592C4.62645 10.8798 4.85611 10.6533 5.13953 10.6533Z" fill="#F2BE1D"/>
<path d="M7.74084 20.2411H13.7027C13.9862 20.2411 14.2158 20.0146 14.2158 19.7356C14.2158 19.4565 13.986 19.23 13.7027 19.23H7.74084C6.82371 19.23 6.07761 18.4949 6.07761 17.5913C6.07761 16.6876 6.82371 15.9525 7.74084 15.9525H8.26347C8.54689 15.9525 8.77654 15.726 8.77654 15.4469C8.77654 15.1679 8.5467 14.9414 8.26347 14.9414H7.74084C6.258 14.9414 5.05127 16.13 5.05127 17.5914C5.05127 19.0525 6.25781 20.2411 7.74084 20.2411Z" fill="#F2BE1D"/>
<path d="M7.74084 14.9409H8.26347C8.54689 14.9409 8.77654 15.1674 8.77654 15.4465C8.77654 15.7255 8.5467 15.952 8.26347 15.952H7.74084C6.82371 15.952 6.07761 16.6871 6.07761 17.5908C6.07761 18.4942 6.82371 19.2296 7.74084 19.2296H13.7027C13.9862 19.2296 14.2158 19.456 14.2158 19.7351C14.2158 20.0142 13.986 20.2406 13.7027 20.2406H7.74084C6.258 20.2406 5.05127 19.052 5.05127 17.5906C5.05127 16.1295 6.25781 14.9409 7.74084 14.9409Z" fill="#F2BE1D"/>
<path d="M9.7047 17.5053C9.82852 17.5053 9.95291 17.4614 10.0514 17.3722C10.2603 17.1836 10.2744 16.8637 10.0829 16.6579L7.1944 13.5548C7.00295 13.3486 6.67833 13.3348 6.46946 13.5239C6.26041 13.7126 6.24655 14.0324 6.43799 14.2382L9.3265 17.3414C9.42765 17.4503 9.5659 17.5053 9.7047 17.5053Z" fill="#F2BE1D"/>
<path d="M12.022 17.5053C12.1458 17.5053 12.2702 17.4614 12.3688 17.3722C12.5778 17.1836 12.5917 16.8637 12.4002 16.6579L9.51172 13.5548C9.32009 13.3486 8.99565 13.3348 8.78678 13.5239C8.57773 13.7126 8.56387 14.0324 8.75531 14.2382L11.6438 17.3414C11.745 17.4503 11.8832 17.5053 12.022 17.5053Z" fill="#F2BE1D"/>
<path d="M10.2881 5.89136V7.54363C14.016 7.91354 16.9804 10.876 17.3495 14.6049H19C18.6208 9.96713 14.925 6.27086 10.2881 5.89136Z" fill="url(#paint0_linear_1870_920)"/>
<path d="M1.6505 16.1785H2.28882e-05C0.379499 20.8155 4.07502 24.5118 8.71191 24.8913V23.2395C4.98451 22.87 2.0199 19.9066 1.6505 16.1785Z" fill="url(#paint1_linear_1870_920)"/>
<path d="M16.8531 30.0715C16.8531 29.7464 16.6328 29.475 16.3338 29.3911V22.0345C17.8311 20.4935 18.8145 18.4497 19 16.1785H17.3495C16.9801 19.9066 14.0157 22.87 10.2881 23.2395V24.8913C10.7093 24.8567 11.1226 24.7944 11.5265 24.7069V28.5041C11.2158 28.5801 10.9852 28.8587 10.9852 29.1921C10.9852 29.5839 11.3021 29.9018 11.6941 29.9018C12.0867 29.9018 12.4036 29.5839 12.4036 29.1921C12.4036 28.8663 12.1836 28.595 11.8846 28.5108V24.6211C12.6625 24.4206 13.4011 24.1241 14.0886 23.7458V27.1134C13.7787 27.1889 13.5476 27.4675 13.5476 27.8012C13.5476 28.1929 13.8647 28.5108 14.2564 28.5108C14.6488 28.5108 14.966 28.1929 14.966 27.8012C14.966 27.4754 14.7459 27.204 14.447 27.1196V23.5384C14.995 23.2047 15.5075 22.8187 15.9757 22.3853V29.3837C15.6657 29.459 15.4344 29.7378 15.4344 30.0708C15.4344 30.4623 15.7516 30.7806 16.1433 30.7806C16.5359 30.7814 16.8531 30.463 16.8531 30.0715Z" fill="url(#paint2_linear_1870_920)"/>
<path d="M8.71191 7.54263V5.89036C8.29073 5.92512 7.87745 5.98721 7.47376 6.07447V2.27679C7.7842 2.20103 8.01505 1.9227 8.01505 1.58898C8.01505 1.19725 7.6979 0.879118 7.3062 0.879118C6.91378 0.879118 6.59663 1.19725 6.59663 1.58898C6.59663 1.91455 6.81669 2.18617 7.11586 2.27032V6.16054C6.33821 6.36096 5.59939 6.65728 4.91188 7.03582V3.66727C5.22184 3.59199 5.45293 3.31342 5.45293 2.97994C5.45293 2.58797 5.13577 2.27032 4.74383 2.27032C4.35165 2.27032 4.03426 2.58797 4.03426 2.97994C4.03426 3.30574 4.25457 3.57689 4.5535 3.66127V7.24248C4.0055 7.57667 3.49298 7.96241 3.02481 8.39585V1.39671C3.335 1.32167 3.56609 1.0431 3.56609 0.709623C3.56609 0.318132 3.2487 0 2.857 0C2.46482 0 2.14743 0.318132 2.14743 0.709623C2.14743 1.03495 2.36797 1.30609 2.6669 1.38976V8.74707C1.16841 10.2881 0.185803 12.3319 0.000260353 14.6039H1.65073C2.01966 10.875 4.98427 7.91182 8.71191 7.54263Z" fill="url(#paint3_linear_1870_920)"/>
<defs>
<linearGradient id="paint0_linear_1870_920" x1="14.6441" y1="-0.657169" x2="14.6441" y2="27.7241" gradientUnits="userSpaceOnUse">
<stop stop-color="#FFFF00"/>
<stop offset="1" stop-color="#FF8800"/>
</linearGradient>
<linearGradient id="paint1_linear_1870_920" x1="4.35597" y1="-0.658363" x2="4.35597" y2="27.7229" gradientUnits="userSpaceOnUse">
<stop stop-color="#FFFF00"/>
<stop offset="1" stop-color="#FF8800"/>
</linearGradient>
<linearGradient id="paint2_linear_1870_920" x1="14.6441" y1="-0.65874" x2="14.6441" y2="27.7235" gradientUnits="userSpaceOnUse">
<stop stop-color="#FFFF00"/>
<stop offset="1" stop-color="#FF8800"/>
</linearGradient>
<linearGradient id="paint3_linear_1870_920" x1="4.35597" y1="-0.658511" x2="4.35597" y2="27.7235" gradientUnits="userSpaceOnUse">
<stop stop-color="#FFFF00"/>
<stop offset="1" stop-color="#FF8800"/>
</linearGradient>
</defs>
</svg>
