<svg width="95" height="95" viewBox="0 0 95 95" fill="none" xmlns="http://www.w3.org/2000/svg">
<path d="M93.6806 65.6524C90.9136 76.1194 83.1219 85.8139 64.2479 90.8295C57.4275 92.6428 49.4901 93.5331 42.4138 92.9831C31.9996 92.1731 21.0843 87.5479 12.4101 82.3039C6.4071 78.675 4.01792 73.7783 3.17217 68.2429C2.64862 64.8204 2.71497 61.1542 2.88192 57.3925C3.13306 51.7336 2.21861 46.0351 0.864723 40.5289C-1.2188 32.051 0.497507 23.1583 5.63828 15.8656C10.7791 8.57294 18.9024 3.49905 28.1677 1.79417C43.7771 -1.07724 59.6128 0.817608 59.6128 0.817608C80.4697 2.949 91.0272 23.3203 93.6024 39.9019C94.7798 47.4801 96.0105 56.84 93.6806 65.6524Z" fill="#F4F7FA"/>
<path d="M40.4765 21.5446L40.3846 24.1982C40.3577 24.9767 40.9924 25.579 41.8018 25.5435L43.2728 25.479C43.4133 26.7403 43.695 27.9518 44.104 29.0987L42.8615 29.832C42.1479 30.253 41.8781 31.1253 42.2592 31.78L43.5571 34.0093C43.9374 34.6627 45.7742 35.0512 46.4859 34.6291L46.7102 33.7305C47.4968 34.6975 48.3974 35.5695 49.394 36.3307L48.7141 37.4369C48.2891 38.1284 48.4978 38.9746 49.18 39.3268L51.5017 40.5252C52.1818 40.8761 54.3896 40.9307 54.8125 40.2404L54.1499 38.8477C55.3554 39.2524 56.6288 39.5278 57.9534 39.6602L57.9127 40.8359C57.886 41.6074 58.5092 42.1986 59.3042 42.1568L62.0093 42.0143C62.8014 41.9726 63.4647 41.3153 63.4914 40.5461L63.5319 39.3738C64.861 39.106 66.1456 38.7011 67.3686 38.1755L67.94 39.1686C68.3108 39.813 70.5875 40.1445 71.2818 39.7258L72.2322 38.152C72.9244 37.7345 73.1863 36.8752 72.8174 36.2318L72.2266 35.2015C73.2545 34.3504 74.1941 33.4004 75.0272 32.3691L76.1248 32.9472C76.7879 33.2964 78.752 33.4751 79.1648 32.7948L79.4787 30.0311C79.8908 29.352 79.6891 28.5179 79.0279 28.1675L77.8744 27.556C78.3482 26.3891 78.7026 25.1707 78.9237 23.9161L80.3402 23.854C81.1179 23.8199 81.7693 23.1744 81.7957 22.4121L81.8856 19.8138C81.912 19.0514 81.3035 18.4594 80.5259 18.4914L79.0261 18.553C78.8556 17.3464 78.5545 16.1881 78.136 15.091L79.5087 14.277C80.1961 13.8691 80.4563 13.0154 80.09 12.3694L80.3512 9.78745C79.9843 9.14029 77.6177 9.32331 76.9284 9.73001L75.4839 10.5824C74.7335 9.68997 73.8838 8.88105 72.9494 8.16895L73.839 6.71708C74.2536 6.04061 74.0505 5.20084 73.3852 4.84116L72.3957 3.43248C71.7283 3.07171 69.5675 3.50865 69.1509 4.18641L68.2366 5.67418C67.1215 5.29798 65.9472 5.03069 64.7257 4.88656L64.7846 3.18331C64.8113 2.41404 64.1916 1.81127 63.4 1.83678L60.6969 1.92398C59.9024 1.94959 59.2364 2.59563 59.2096 3.3671L59.1505 5.07517C57.9076 5.30344 56.7008 5.65318 55.5435 6.10948L56.0807 4.3075C55.7043 3.65118 53.4647 3.81421 52.7583 4.22407L50.3466 5.62355C49.638 6.03467 49.37 6.90131 49.7483 7.55851L50.5591 8.96726C49.5496 9.75797 48.6184 10.6423 47.7821 11.6056L47.8431 10.7029C47.1586 10.3402 44.7653 10.7471 44.3384 11.4349L42.8822 13.7812C42.4546 14.4701 42.6647 15.3221 43.3512 15.6838L44.7192 16.4042C44.2069 17.5576 43.8116 18.7647 43.5484 20.0109L41.9911 20.0749C41.1818 20.108 40.5034 20.766 40.4765 21.5446ZM47.362 22.8444C47.6219 15.3368 54.1182 9.01659 61.8293 8.72925C69.4936 8.44367 75.4644 14.2327 75.2073 21.6581C74.9503 29.0835 68.5605 35.399 60.8934 35.7665C53.1795 36.1363 47.1022 30.3519 47.362 22.8444Z" fill="#BFC8D6"/>
<path d="M42.2821 21.5255L42.1903 24.1791C42.1633 24.9576 42.7981 25.5598 43.6075 25.5244L45.0785 25.4599C45.219 26.7212 45.5006 27.9326 45.9096 29.0796L44.6672 29.8129C43.9535 30.2339 43.6838 31.1062 44.0648 31.7609L45.3627 33.9902C45.7431 34.6437 46.6286 34.8307 47.3403 34.4087L48.5159 33.7114C49.3025 34.6784 50.2032 35.5504 51.1996 36.3116L50.5197 37.4178C50.0948 38.1093 50.3035 38.9555 50.9857 39.3077L53.3074 40.5061C53.9875 40.857 54.8813 40.5817 55.3043 39.8914L55.9556 38.8286C57.1611 39.2333 58.4345 39.5087 59.759 39.641L59.7183 40.8168C59.6916 41.5882 60.3149 42.1795 61.1098 42.1376L63.8149 41.9952C64.607 41.9535 65.2703 41.2962 65.297 40.5269L65.3376 39.3546C66.6667 39.0869 67.9513 38.682 69.1742 38.1563L69.7457 39.1495C70.1165 39.7938 70.9802 39.9763 71.6746 39.5577L74.0379 38.1328C74.7301 37.7153 74.992 36.856 74.623 36.2126L74.0322 35.1823C75.0601 34.3312 75.9997 33.3812 76.8328 32.3499L77.9304 32.928C78.5935 33.2773 79.4655 33.0087 79.8783 32.3284L81.2843 30.0119C81.6964 29.3328 81.4947 28.4988 80.8335 28.1484L79.68 27.5369C80.1539 26.3699 80.5082 25.1515 80.7293 23.8969L82.1458 23.8348C82.9236 23.8007 83.5749 23.1553 83.6013 22.3929L83.6913 19.7946C83.7176 19.0322 83.1091 18.4403 82.3315 18.4722L80.8317 18.5338C80.6612 17.3273 80.3601 16.1689 79.9417 15.0718L81.3143 14.2577C82.0017 13.8499 82.2619 12.9962 81.8956 12.3502L80.6461 10.1465C80.2793 9.49931 79.4233 9.30411 78.734 9.71082L77.2895 10.5632C76.5391 9.67078 75.6894 8.86189 74.7549 8.14973L75.6446 6.69789C76.0592 6.02138 75.8561 5.18161 75.1908 4.82194L72.9194 3.59372C72.252 3.23296 71.3731 3.48942 70.9565 4.16721L70.0421 5.65495C68.927 5.27875 67.7528 5.01143 66.5312 4.8673L66.5902 3.16408C66.6168 2.39482 65.9972 1.79201 65.2056 1.81756L62.5024 1.90479C61.708 1.9304 61.0419 2.57644 61.0152 3.34787L60.9561 5.05594C59.7131 5.28421 58.5064 5.63395 57.3491 6.09029L56.524 4.65148C56.1476 3.99513 55.2702 3.79502 54.5638 4.20484L52.1522 5.60437C51.4436 6.01545 51.1756 6.88208 51.5539 7.53928L52.3646 8.94803C51.3551 9.73874 50.424 10.6231 49.5877 11.5864L48.1564 10.8277C47.4719 10.4649 46.5708 10.7279 46.144 11.4156L44.6878 13.7619C44.2602 14.4509 44.4703 15.3028 45.1568 15.6645L46.5248 16.385C46.0125 17.5384 45.6172 18.7455 45.354 19.9917L43.7967 20.0557C42.9874 20.0889 42.3091 20.7469 42.2821 21.5255ZM48.5771 22.8505C48.848 15.0244 55.6199 8.43608 63.6581 8.13656C71.6475 7.83884 77.8716 13.8736 77.6037 21.6139C77.3358 29.3543 70.6749 35.9377 62.6825 36.3208C54.6413 36.7062 48.3062 30.6765 48.5771 22.8505Z" fill="#EAEDF3"/>
<path d="M78.162 45.2475C74.6004 56.67 72.9165 64.7467 69.7777 63.7995C69.5254 63.7233 69.2954 63.5874 69.0881 63.3975C68.2911 62.6706 67.8247 61.137 67.6802 59.0241C67.6211 58.1664 67.6152 57.2126 67.6618 56.1778C67.7169 54.9726 67.8425 53.6595 68.0372 52.2608C68.1669 51.3366 68.2886 50.3643 68.4804 49.3714C68.7967 47.7187 69.2445 45.9917 69.6203 44.1669L69.623 44.1583C69.6235 44.1565 69.6235 44.1565 69.6241 44.1548L70.4883 41.383C70.9448 39.9189 71.3905 38.4896 71.9936 37.1628C71.9974 37.1507 72.0023 37.1408 72.0078 37.1292L72.0084 37.1274C72.0723 36.9225 72.141 36.7209 72.216 36.5231C72.2225 36.5023 72.2315 36.4803 72.2397 36.4599C72.3667 36.1144 72.5063 35.7785 72.6501 35.4475C72.667 35.4051 72.6854 35.3651 72.7018 35.3244C72.8253 35.0405 72.9485 34.7566 73.0701 34.4779C73.0779 34.4593 73.0856 34.4408 73.0933 34.4222C73.7913 32.7782 74.5168 31.2567 75.2495 29.8855C75.7381 28.9688 76.2325 28.1205 76.7224 27.3486C78.9349 23.8702 81.0968 21.9537 82.6768 22.4305C82.7227 22.4443 82.7663 22.4594 82.8088 22.4779C85.6981 23.6805 81.6728 33.9882 78.162 45.2475Z" fill="url(#paint0_linear_1870_4690)"/>
<path opacity="0.4" d="M79.2798 29.6358C79.0409 30.4017 77.572 30.6405 76.0009 30.1663C75.7361 30.0864 75.4838 29.9913 75.251 29.883C75.7396 28.9664 76.234 28.118 76.7238 27.3462C76.772 27.3588 76.8197 27.3732 76.8673 27.3876C78.4385 27.8617 79.5191 28.8681 79.2798 29.6358Z" fill="url(#paint1_linear_1870_4690)"/>
<path opacity="0.4" d="M75.5257 36.7099C75.2869 37.4758 73.8224 37.7003 72.2512 37.2262C72.1578 37.198 72.058 37.1895 71.9678 37.1566C72.3205 36.2236 72.6977 35.3178 73.0584 34.4766L73.1043 34.4904C74.6755 34.9645 75.765 35.9423 75.5257 36.7099Z" fill="url(#paint2_linear_1870_4690)"/>
<path opacity="0.4" d="M72.2638 43.4794C72.058 44.1393 70.9373 44.4073 69.626 44.1654L69.6287 44.1567C69.6292 44.155 69.6292 44.155 69.6297 44.1533L70.4707 41.4561C71.6949 41.9776 72.4701 42.8177 72.2638 43.4794Z" fill="url(#paint3_linear_1870_4690)"/>
<path opacity="0.4" d="M70.8842 51.6175C70.6676 52.3122 69.4411 52.5729 68.041 52.2625C68.1708 51.3383 68.2925 50.366 68.4842 49.373C70.0489 49.8491 71.1231 50.8516 70.8842 51.6175Z" fill="url(#paint4_linear_1870_4690)"/>
<path opacity="0.4" d="M69.5829 58.2556C69.4166 58.7888 68.6559 59.0666 67.6802 59.0248C67.6211 58.1672 67.6152 57.2134 67.6618 56.1785C68.9605 56.6959 69.7962 57.5714 69.5829 58.2556Z" fill="url(#paint5_linear_1870_4690)"/>
<path opacity="0.4" d="M78.158 45.2452C74.5964 56.6677 72.9124 64.7444 69.7737 63.7972C69.5213 63.721 69.2913 63.5851 69.084 63.3952C69.6272 62.5141 70.4617 61.4358 71.3867 60.1416C73.2565 57.5212 75.8388 50.3047 76.6874 44.4175C77.5339 38.5317 80.6257 29.9164 82.1761 25.5389C82.6829 24.1052 82.8333 23.1341 82.8048 22.4756C85.694 23.6782 81.6687 33.9859 78.158 45.2452Z" fill="url(#paint6_linear_1870_4690)"/>
<path d="M73.1122 48.5533C73.0344 48.9635 73.078 49.3903 73.1374 49.7997C73.1959 50.2026 73.3018 50.5919 73.6551 50.843C73.7312 50.8971 73.8129 50.9459 73.9001 50.981C73.9956 51.0194 74.1135 51.0327 74.1978 51.0931C74.3368 51.1928 74.396 51.4059 74.5058 51.5357C74.7711 51.8495 75.1377 52.031 75.5484 52.0716C75.6464 52.0813 75.7512 52.0847 75.8417 52.1268C75.9439 52.1743 76.0222 52.2666 76.1102 52.3344C76.2768 52.4628 76.465 52.5228 76.6756 52.5245C76.8726 52.5261 77.0682 52.4762 77.256 52.4218C77.4776 52.3575 77.6986 52.2913 77.9199 52.226C78.1403 52.161 78.3624 52.1001 78.5812 52.0299C78.7622 51.9719 78.9403 51.8948 79.0805 51.7651C79.232 51.6249 79.2944 51.4384 79.3677 51.2528C79.4025 51.1648 79.4404 51.066 79.5155 51.0028C79.5897 50.9404 79.6906 50.917 79.783 50.8942C80.1609 50.801 80.5173 50.6599 80.7868 50.3712C81.02 50.1216 81.1427 49.7695 81.0896 49.4313C81.0849 49.4013 81.0783 49.3718 81.0708 49.3426C81.1083 49.322 81.1385 49.2908 81.1521 49.2495C81.3778 48.5692 81.1304 47.7709 80.5241 47.3566C80.3549 47.241 80.1763 47.1856 79.9903 47.1049C79.8122 47.0277 79.7262 46.8534 79.5989 46.718C79.3236 46.4251 78.9681 46.4543 78.6008 46.5075C78.4337 46.5316 78.2734 46.5486 78.1139 46.4817C77.9303 46.4048 77.7696 46.2845 77.5869 46.2058C77.401 46.1256 77.203 46.0939 77.0026 46.1317C76.8243 46.1654 76.6519 46.2463 76.4698 46.2565C76.2669 46.2678 76.0683 46.1691 75.8724 46.1302C75.693 46.0946 75.505 46.0855 75.3226 46.0996C74.9433 46.1288 74.5478 46.2645 74.2539 46.5064C74.0945 46.6376 73.9538 46.798 73.8815 46.9923C73.8451 47.0902 73.8277 47.187 73.8166 47.2902C73.8068 47.381 73.8017 47.4693 73.7414 47.5428C73.6764 47.6219 73.5874 47.6817 73.514 47.7529C73.4409 47.824 73.3804 47.9044 73.3261 47.9901C73.2175 48.1615 73.1498 48.3551 73.1122 48.5533Z" fill="url(#paint7_linear_1870_4690)"/>
<path opacity="0.3" d="M73.5505 47.7202C73.8995 48.3651 74.32 48.9811 74.6613 49.6312C74.8872 50.0079 75.2702 50.2452 75.6302 50.4637C76.0322 50.6783 76.5224 50.6971 76.9512 50.5124C77.7936 50.2071 78.3181 49.4498 79.2638 49.3442C79.8929 49.2879 80.5069 49.2951 81.0943 49.4699C81.1329 49.7963 81.0113 50.1316 80.7868 50.372C80.5172 50.6606 80.1608 50.8017 79.783 50.8949C79.6906 50.9177 79.5897 50.9411 79.5155 51.0035C79.4404 51.0667 79.4025 51.1655 79.3677 51.2535C79.2944 51.4391 79.232 51.6256 79.0805 51.7658C78.9404 51.8955 78.7622 51.9726 78.5812 52.0306C78.3624 52.1008 78.1403 52.1617 77.9199 52.2267C77.6986 52.292 77.4776 52.3582 77.256 52.4225C77.0682 52.4769 76.8726 52.5268 76.6756 52.5252C76.465 52.5235 76.2768 52.4635 76.1102 52.3351C76.0222 52.2673 75.9439 52.175 75.8417 52.1275C75.7512 52.0854 75.6464 52.082 75.5484 52.0723C75.1377 52.0317 74.7711 51.8501 74.5057 51.5364C74.396 51.4066 74.3368 51.1934 74.1978 51.0938C74.1135 51.0334 73.9956 51.0201 73.9001 50.9816C73.8129 50.9466 73.7312 50.8977 73.6551 50.8436C73.3018 50.5926 73.1959 50.2033 73.1374 49.8004C73.078 49.3909 73.0344 48.9641 73.1122 48.554C73.1498 48.3558 73.2175 48.1622 73.3262 47.9908C73.3805 47.9051 73.4409 47.8247 73.5141 47.7536C73.5259 47.7422 73.5381 47.7312 73.5505 47.7202Z" fill="url(#paint8_linear_1870_4690)"/>
<path d="M78.5946 43.4103C78.2403 43.0082 77.7438 42.7104 77.211 42.6267C77.3543 42.0991 77.1622 41.4986 76.6779 41.1638C76.0463 40.7272 75.2997 40.7995 74.6346 41.0807C74.0767 40.9135 73.4481 40.9384 72.916 41.1678C71.7397 41.6751 71.2353 42.9917 71.5909 44.1439C71.0784 44.2929 70.6609 44.6866 70.5058 45.2088C70.3091 45.8713 70.5859 46.5389 71.1148 46.9658C71.3832 47.1825 71.6919 47.3428 71.9809 47.5301C72.2988 47.7361 72.4984 47.9916 72.7393 48.2748C73.2108 48.8293 73.924 49.1487 74.662 49.1091C75.3169 49.0739 75.9096 48.7417 76.3141 48.2504C76.7112 48.475 77.194 48.5212 77.6481 48.4218C78.2945 48.2804 78.8132 47.8582 79.1124 47.2811C79.7181 46.113 79.4616 44.3939 78.5946 43.4103Z" fill="url(#paint9_linear_1870_4690)"/>
<path d="M84.0144 49.366C84.3619 49.3178 85.3341 49.038 85.8446 48.5374C86.3828 48.0097 86.292 46.9435 86.5104 46.6735C86.7287 46.4035 87.3727 46.2127 87.7931 45.7032C88.4017 44.9656 88.6014 43.9502 88.1617 43.3274C87.9724 43.0592 87.4196 42.6297 87.4947 42.2365C87.5798 42.043 88.2052 41.6831 88.1187 40.4855C88.0497 39.5296 87.49 38.0781 85.5668 37.6912C85.1905 37.4757 85.2372 36.645 84.2533 36.2445C83.2693 35.844 82.6497 36.4614 82.2907 36.2557C81.9317 36.05 81.0673 35.5341 80.1859 35.5104C79.159 35.4829 78.1788 35.9477 77.4307 36.7561C77.2444 36.9575 77.088 37.1773 76.9522 37.4051C76.8953 37.5007 76.8797 37.5355 76.7679 37.5405C76.6355 37.5464 76.5076 37.5445 76.3736 37.5585C75.8984 37.6082 75.3449 37.7053 74.9148 37.9678C74.0459 38.4981 73.5419 39.4792 73.4841 40.3627C73.4293 41.2005 74.2828 42.7021 74.1929 42.9529C74.103 43.2036 73.2218 44.0225 73.2621 45.0265C73.3132 46.3034 73.956 47.3569 75.1306 47.9153C75.6485 48.1615 77.0779 48.4869 77.4555 48.7353C77.8331 48.9837 77.7586 50.1762 78.3512 50.7054C78.9945 51.28 79.6992 51.2422 80.6867 50.9656C81.2207 50.816 81.5429 50.8855 81.9848 50.5251C82.4943 50.6791 83.1645 50.402 83.5904 49.9921C83.7828 49.8068 83.667 49.4142 84.0144 49.366Z" fill="url(#paint10_linear_1870_4690)"/>
<g opacity="0.3">
<path d="M85.4878 38.9676C84.1323 38.7757 83.1522 39.8872 81.8924 40.0418C80.6327 40.1965 80.3337 38.5729 79.6405 37.7367C79.3993 37.424 79.0737 37.119 78.7482 37.0437C78.2444 36.9129 77.7227 36.9054 77.2197 37.0176C77.2878 36.9278 77.3602 36.8403 77.438 36.7561C78.186 35.9477 79.1663 35.4829 80.1931 35.5104C81.0746 35.5341 81.939 36.05 82.298 36.2557C82.657 36.4614 83.2766 35.844 84.2605 36.2445C85.2445 36.6449 85.1978 37.4757 85.574 37.6912C87.2146 38.0212 87.8628 39.1258 88.0609 40.0367C88.0342 40.0168 88.0074 39.9968 87.9807 39.9769C87.2914 39.4119 86.4337 39.0918 85.4878 38.9676Z" fill="url(#paint11_linear_1870_4690)"/>
<path d="M74.9148 37.9705C75.2102 37.7902 75.5639 37.6879 75.9104 37.6255C75.3789 38.0686 74.6246 38.6545 74.9773 39.2848C75.5633 40.3395 76.7926 41.0023 77.1412 42.2454C77.4975 43.5714 76.1728 44.4004 75.0931 44.8941C74.7064 45.075 74.6758 45.4329 74.8137 45.7757C75.1776 46.7249 76.0125 47.4858 77.0081 47.689C79.3669 48.1671 81.5992 47.5075 83.9848 47.3564C84.6166 47.2998 85.1681 47.7518 85.6467 48.1058C85.8715 47.9094 86.0889 47.7055 86.3005 47.4958C86.2287 47.8664 86.1177 48.2725 85.8447 48.5401C85.3341 49.0407 84.362 49.3205 84.0145 49.3687C83.6671 49.4169 83.7829 49.8095 83.5904 49.9948C83.1644 50.4047 82.4943 50.6818 81.9848 50.5278C81.5429 50.8882 81.2207 50.8187 80.6867 50.9683C79.6992 51.2449 78.9945 51.2827 78.3512 50.7081C77.7586 50.1788 77.8331 48.9864 77.4555 48.738C77.0779 48.4896 75.6485 48.1642 75.1306 47.918C73.956 47.3596 73.3132 46.3061 73.2621 45.0292C73.2218 44.0252 74.103 43.2063 74.1929 42.9555C74.2828 42.7048 73.4293 41.2032 73.4841 40.3655C73.5419 39.4819 74.0459 38.5008 74.9148 37.9705Z" fill="url(#paint12_linear_1870_4690)"/>
</g>
<path d="M76.3036 44.3701C79.7797 47.1094 80.7686 52.037 80.7686 52.037L84.0035 50.0457C79.5731 45.0418 80.6062 42.9752 80.569 40.838C80.569 40.838 80.2995 40.3177 80.1126 40.9147C80.0139 41.2302 79.8806 42.5076 80.0995 43.9276C79.0531 42.4037 79.2174 41.0725 78.8536 40.6648C78.73 40.5262 78.3854 40.5653 78.3854 40.5653C78.3854 40.5653 78.8899 44.1597 80.8781 48.05C80.8781 48.05 78.658 44.2614 77.411 43.4038C77.1776 43.2478 77.017 43.4439 77.2036 43.8067C77.2036 43.8067 77.7746 44.4595 78.4062 45.5734C77.2913 44.6246 77.1047 44.3964 76.7119 44.0744C76.319 43.7523 76.1239 44.0096 76.3036 44.3701Z" fill="url(#paint13_linear_1870_4690)"/>
<path d="M88.9465 43.9506C89.3865 43.8539 89.7015 43.4552 89.7821 42.9996C89.8806 42.4421 89.7156 41.8463 89.4115 41.3744C88.8499 40.5031 87.7727 40.1068 86.7739 40.3246C86.6196 40.0257 86.3126 39.8016 85.9673 39.7747C85.649 39.7499 85.366 39.8803 85.1697 40.0968C84.9911 40.0888 84.8139 40.102 84.6434 40.1442C84.221 40.2487 83.8623 40.624 83.8582 41.0443C83.2752 41.2517 82.9643 41.9695 82.9227 42.5479C82.8931 42.9609 82.9531 43.4224 83.27 43.7248C83.4015 43.8504 83.5772 43.8763 83.5935 44.0709C83.609 44.256 83.6282 44.4359 83.7014 44.6097C83.8477 44.9574 84.1183 45.2407 84.4545 45.4178C84.5983 45.4936 84.7609 45.5473 84.9222 45.572C85.1074 45.6003 85.3314 45.5291 85.5057 45.579C85.6063 45.6078 85.7008 45.7133 85.7857 45.7712C85.8662 45.8262 85.9499 45.8765 86.0413 45.912C86.2124 45.9784 86.3954 46.0024 86.5787 45.9939C86.9305 45.9775 87.2687 45.8267 87.5656 45.6501C88.1842 45.282 88.8414 44.6835 88.9465 43.9506Z" fill="url(#paint14_linear_1870_4690)"/>
<path opacity="0.3" d="M83.9614 43.6584C84.1261 43.8317 84.3674 44.1443 84.4861 44.0501C85.5696 43.1383 86.9673 43.786 88.1774 44.0118C88.8896 44.136 89.2647 43.3713 89.4714 42.8513C89.57 42.6261 89.6655 42.3479 89.7234 42.0591C89.8101 42.3648 89.8369 42.6865 89.7821 42.9964C89.7016 43.4519 89.3866 43.8506 88.9466 43.9474C88.8415 44.6803 88.1842 45.2788 87.5656 45.6467C87.2687 45.8233 86.9305 45.9741 86.5787 45.9905C86.3954 45.999 86.2124 45.975 86.0412 45.9086C85.9499 45.8732 85.8662 45.8228 85.7857 45.7678C85.7008 45.7099 85.6063 45.6044 85.5057 45.5756C85.3314 45.5257 85.1074 45.5969 84.9222 45.5686C84.7609 45.5439 84.5983 45.4902 84.4545 45.4144C84.1183 45.2374 83.8478 44.9541 83.7014 44.6064C83.6282 44.4326 83.609 44.2527 83.5935 44.0676C83.5772 43.873 83.4015 43.847 83.27 43.7215C82.9531 43.419 82.8931 42.9576 82.9228 42.5446C82.925 42.5141 82.9281 42.483 82.9318 42.4518C83.2705 42.8497 83.5892 43.2603 83.9614 43.6584Z" fill="url(#paint15_linear_1870_4690)"/>
<path d="M77.5155 42.6404C77.1373 42.3391 76.6756 42.1493 76.2231 41.9846C75.7778 41.8226 75.3206 41.7151 74.8701 41.9288C74.7729 41.9748 74.6782 42.0293 74.5946 42.0966C74.503 42.1704 74.4249 42.2803 74.317 42.331C74.1389 42.4146 73.8878 42.3569 73.6947 42.395C73.2279 42.4872 72.8414 42.752 72.5754 43.1376C72.5119 43.2297 72.4512 43.3319 72.3586 43.3987C72.254 43.4742 72.1166 43.5016 71.9989 43.5519C71.7762 43.6472 71.6119 43.8013 71.4951 44.0095C71.3858 44.2043 71.3302 44.4257 71.2835 44.6419C71.2284 44.8971 71.1756 45.1527 71.1217 45.4081C71.068 45.6625 71.0091 45.9163 70.9616 46.1719C70.9223 46.3833 70.9041 46.6023 70.9605 46.8123C71.0216 47.0393 71.1788 47.2031 71.3292 47.3773C71.4005 47.4599 71.4812 47.5516 71.505 47.6607C71.5285 47.7684 71.4974 47.8814 71.4703 47.9856C71.3595 48.4116 71.3096 48.8427 71.4585 49.268C71.5873 49.6359 71.8815 49.9501 72.2574 50.082C72.2907 50.0938 72.3246 50.1034 72.3586 50.1119C72.3594 50.1604 72.3748 50.2073 72.4097 50.2435C72.9843 50.8391 73.9385 51.0295 74.6947 50.6538C74.9058 50.549 75.0601 50.4019 75.2445 50.2612C75.421 50.1266 75.6468 50.1363 75.8552 50.0839C76.3062 49.9706 76.4704 49.6017 76.6164 49.2079C76.6829 49.0287 76.753 48.8603 76.9088 48.7384C77.088 48.5981 77.2992 48.5043 77.4797 48.3659C77.6635 48.225 77.8042 48.0458 77.8749 47.8261C77.9377 47.6307 77.9488 47.4153 78.0379 47.2289C78.1371 47.0213 78.3468 46.878 78.4937 46.7047C78.6283 46.546 78.7403 46.3643 78.8254 46.1755C79.0026 45.7829 79.0795 45.3162 78.9919 44.8921C78.9443 44.6623 78.8566 44.4349 78.6967 44.257C78.6162 44.1673 78.5264 44.0972 78.4266 44.0298C78.3388 43.9705 78.251 43.9171 78.2086 43.8172C78.1629 43.7094 78.1501 43.5884 78.1171 43.4767C78.0841 43.3651 78.0347 43.2612 77.9765 43.1605C77.8599 42.9589 77.6983 42.786 77.5155 42.6404Z" fill="url(#paint16_linear_1870_4690)"/>
<path d="M71.9989 43.548C72.1166 43.4977 72.254 43.4703 72.3586 43.3948C72.4512 43.328 72.5119 43.2258 72.5754 43.1337C72.7878 42.8258 73.0772 42.5953 73.4227 42.4678C73.3936 42.5132 73.3645 42.5587 73.3353 42.6041C73.297 42.6494 73.2473 42.8 73.232 42.8641C72.8492 43.546 72.1562 44.3184 72.5393 45.0153C72.7231 45.3957 73.2477 45.5576 73.4508 45.9155C73.7954 46.4278 73.5811 47.0946 73.7 47.6898C73.7613 48.123 73.681 48.6316 74.1864 48.8161C75.0217 49.1134 75.9581 49.1206 76.791 48.854C76.712 48.957 76.6632 49.0778 76.6164 49.2039C76.4703 49.5977 76.3061 49.9666 75.8552 50.08C75.6468 50.1324 75.421 50.1226 75.2445 50.2572C75.0601 50.3979 74.9058 50.545 74.6947 50.6498C73.9385 51.0255 72.9844 50.8351 72.4097 50.2395C72.3748 50.2033 72.3593 50.1563 72.3586 50.1079C72.3246 50.0994 72.2907 50.0897 72.2574 50.0781C71.8815 49.9461 71.5873 49.6319 71.4585 49.264C71.3096 48.8387 71.3595 48.4077 71.4703 47.9816C71.4974 47.8774 71.5285 47.7644 71.505 47.6567C71.4812 47.5477 71.4005 47.456 71.3292 47.3733C71.1788 47.1992 71.0216 47.0354 70.9605 46.8083C70.9041 46.5983 70.9223 46.3793 70.9616 46.1679C71.0091 45.9123 71.0679 45.6585 71.1217 45.4041C71.1756 45.1487 71.2284 44.8931 71.2835 44.638C71.3302 44.4217 71.3858 44.2003 71.4951 44.0055C71.6119 43.7974 71.7763 43.6433 71.9989 43.548Z" fill="url(#paint17_linear_1870_4690)"/>
<path d="M82.1052 37.4988C81.5459 37.4888 80.9698 37.6584 80.536 38.0036C80.2226 37.5304 79.6204 37.2604 79.0238 37.3952C78.2458 37.5711 77.7859 38.1859 77.5457 38.8836C77.0293 39.19 76.614 39.6827 76.4254 40.2439C76.0083 41.4847 76.6885 42.7768 77.8351 43.3046C77.597 43.7953 77.616 44.3835 77.917 44.862C78.2988 45.4689 79.012 45.7212 79.7114 45.6164C80.0664 45.5631 80.4052 45.4405 80.7514 45.3514C81.1323 45.2534 81.4701 45.279 81.858 45.2927C82.6175 45.3194 83.3604 45.0008 83.8399 44.415C84.2652 43.8953 84.4155 43.2171 84.3112 42.5714C84.7614 42.4262 85.1314 42.0929 85.3678 41.6807C85.7042 41.0939 85.7329 40.4095 85.4888 39.784C84.9947 38.518 83.4736 37.5233 82.1052 37.4988Z" fill="url(#paint18_linear_1870_4690)"/>
<path opacity="0.3" d="M77.0425 41.7714C77.3988 42.6378 78.4097 42.777 79.2789 42.7618C80.2936 42.7127 80.7112 43.7825 81.5192 44.2532C81.6763 44.3436 81.8486 44.37 82.0055 44.2306C82.7023 43.4996 82.526 42.5127 82.4187 41.5822C82.342 41.213 82.6368 40.9568 83.0082 40.8399C83.3413 40.7683 83.6362 40.9717 83.866 41.16C84.5107 40.2985 84.6064 39.0681 84.0949 38.1528C84.7214 38.5643 85.2377 39.1372 85.4888 39.7804C85.7329 40.4058 85.7042 41.0903 85.3678 41.6771C85.1314 42.0893 84.7614 42.4226 84.3112 42.5677C84.4154 43.2135 84.2652 43.8916 83.8399 44.4114C83.3604 44.9972 82.6175 45.3157 81.858 45.289C81.4701 45.2754 81.1323 45.2497 80.7514 45.3477C80.4052 45.4368 80.0664 45.5595 79.7114 45.6127C79.012 45.7176 78.2988 45.4653 77.917 44.8583C77.616 44.3799 77.597 43.7917 77.8351 43.301C76.6885 42.7732 76.0083 41.4811 76.4254 40.2403C76.545 39.8842 76.7562 39.5559 77.0263 39.2851C76.7353 40.0814 76.7116 40.9746 77.0425 41.7714Z" fill="url(#paint19_linear_1870_4690)"/>
<path d="M83.972 49.9535C83.5183 49.5816 80.6344 50.8357 80.7371 51.9448C80.8397 53.0538 84.8676 50.6875 83.972 49.9535Z" fill="url(#paint20_linear_1870_4690)"/>
<path d="M67.8235 30.9498L58.1338 30.8794V28.6781C58.1338 28.4706 58.3111 28.3057 58.5217 28.3176L67.4773 28.8193C67.6716 28.8302 67.8235 28.9884 67.8235 29.1798V30.9498Z" fill="url(#paint21_linear_1870_4690)"/>
<path d="M67.9368 30.9498L58.2471 30.4069V28.6781C58.2471 28.4706 58.4244 28.3057 58.635 28.3176L67.5905 28.8193C67.7848 28.8302 67.9367 28.9884 67.9367 29.1798L67.9368 30.9498Z" fill="#D8DEE8"/>
<path d="M72.8952 59.2064L63.4375 59.7235V32.6689L72.8952 33.1859V59.2064Z" fill="#D8DEE8"/>
<path d="M69.7891 36.8397C67.374 37.4411 71.155 40.5253 69.0215 41.1699C67.3274 41.6817 67.5293 37.0399 65.9791 38.3576C64.409 39.6922 66.4935 43.6721 67.5501 46.7279C68.5975 49.7573 68.6521 54.1309 65.5001 53.3642C64.6187 53.1498 63.9777 52.8361 63.4375 52.4884V59.7233L72.8952 59.2061V37.8705C72.1432 37.0368 71.0638 36.5223 69.7891 36.8397Z" fill="url(#paint22_linear_1870_4690)"/>
<path d="M63.4448 59.7207L53.9932 58.0119V35.6355L63.4448 32.6832V59.7207Z" fill="url(#paint23_linear_1870_4690)"/>
<path d="M63.4448 32.6862L53.9932 35.6386L58.2732 30.3L63.4448 32.6862Z" fill="url(#paint24_linear_1870_4690)"/>
<g opacity="0.3">
<path d="M58.2732 30.3L53.9932 35.6386L59.5273 30.8786L58.2732 30.3Z" fill="#E6E6E6"/>
</g>
<path d="M53.9932 52.7725V58.0129L63.4448 59.7217V52.495C61.8325 51.4895 61.0771 50.3526 58.4531 50.1021C56.7416 49.9387 55.1214 51.3816 53.9932 52.7725Z" fill="#D8DEE8"/>
<path d="M56.3195 45.0469V45.0563L57.7704 45.6026V46.3595L56.3195 46.997V47.0064L58.6899 46.9932V47.803L54.958 47.7487V46.9547L57.0677 46.008V45.9983L54.958 45.1842V44.372L58.6899 44.0812V44.9111L56.3195 45.0469Z" fill="url(#paint25_linear_1870_4690)"/>
<path d="M58.6899 43.2395L54.958 43.6082V42.7549L58.6899 42.299V43.2395Z" fill="url(#paint26_linear_1870_4690)"/>
<path d="M54.958 41.1968L57.9108 40.7099V39.1909L58.6899 39.0324V41.4616L54.958 41.9954L54.958 41.1968Z" fill="url(#paint27_linear_1870_4690)"/>
<path d="M54.958 38.432L56.4699 38.0684V38.0589L54.958 37.4144V36.5155L56.6569 37.2593L58.6899 35.3718V36.3626L56.8457 37.9684V37.978L58.6899 37.5345V38.3895L54.958 39.2077V38.432Z" fill="url(#paint28_linear_1870_4690)"/>
<path d="M58.2744 30.2999L67.9395 30.7277L72.8987 33.1859L63.446 32.6861L58.2744 30.2999Z" fill="url(#paint29_linear_1870_4690)"/>
<path d="M63.446 32.6861L58.2744 30.2999L58.9986 31.2647L63.446 32.6861Z" fill="#E6E6E6"/>
<path d="M71.1173 35.8884C71.0686 35.7754 70.9705 35.69 70.8506 35.6562C70.5618 35.5747 70.2536 35.7668 70.1032 36.0226C69.4226 37.1796 70.0359 40.0397 70.0359 40.0397H70.4946C70.2581 37.9421 70.7629 36.9332 71.1015 36.3078C71.1602 36.1994 71.166 36.0015 71.1173 35.8884Z" fill="url(#paint30_linear_1870_4690)"/>
<path d="M77.8334 43.3985C77.6835 44.2703 77.5001 45.2895 77.2156 46.2808C76.8883 47.4204 76.4283 48.5242 75.7338 49.3259C74.6035 50.6314 73.4731 49.9061 70.9174 49.9061C69.2745 49.9061 68.7461 49.2084 67.862 47.9938C66.8609 46.6192 65.6111 45.4638 65.2169 43.758C64.8562 42.1952 65.4597 40.5022 66.8176 40.0361H66.8181C67.2137 39.5699 67.6738 39.6998 68.1922 39.723C68.5933 39.7409 68.9746 39.7261 69.3462 39.7338C70.2171 39.7512 71.0383 39.6836 71.9559 39.3829C73.2932 38.9443 76.3246 38.2176 77.367 39.644C78.0771 40.6154 78.0226 42.2932 77.8334 43.3985Z" fill="url(#paint31_linear_1870_4690)"/>
<path opacity="0.3" d="M77.2156 46.2838C76.8883 47.4234 76.4283 48.5273 75.7338 49.3289C74.6035 50.6344 73.4731 49.9091 70.9174 49.9091C69.2745 49.9091 68.7461 49.2114 67.862 47.9969C66.8609 46.6222 65.6111 45.4668 65.2169 43.761C64.8562 42.1982 65.4597 40.5052 66.8176 40.0391H66.8181C66.8181 40.0391 65.1427 44.0796 68.1898 44.9257C71.2369 45.7719 71.4581 49.1702 74.1611 47.6954C75.3711 47.0355 76.4189 46.4859 77.2156 46.2838Z" fill="url(#paint32_linear_1870_4690)"/>
<path opacity="0.5" d="M75.1022 39.7241C75.1022 39.7241 72.6449 39.3142 73.3821 41.0586C74.1193 42.8029 76.1343 44.4759 76.8224 43.2768C77.5104 42.0777 76.5275 40.1749 75.1022 39.7241Z" fill="white"/>
<path d="M58.8055 56.1042L57.5699 71.0173L57.3705 74.5254C56.9331 76.7891 56.4723 78.3713 56.0527 78.38C55.0811 78.3973 53.6988 76.662 52.663 75.2443C52.2431 74.6669 51.8823 74.1414 51.6269 73.8093C50.7465 72.6544 51.847 62.26 52.1405 60.8885C52.434 59.517 52.6306 48.7848 52.5309 48.2564C52.434 47.728 53.3144 43.2036 53.3144 43.2036L54.5999 44.6473L54.685 44.7426L56.6396 43.6367L57.5201 44.9851C57.5201 44.9851 58.3389 51.7877 58.8055 56.1042Z" fill="url(#paint33_linear_1870_4690)"/>
<path opacity="0.7" d="M58.8036 56.1003L57.5681 71.0134L57.3686 74.5214C56.9313 76.7851 56.4704 78.3674 56.0508 78.376C55.0792 78.3934 53.6969 76.6581 52.6611 75.2404C53.4329 72.3415 55.3082 65.1954 55.2027 64.4707C55.0881 63.6536 54.6831 47.9926 54.598 44.6434L54.6831 44.7387L56.6378 43.6328L57.5182 44.9812C57.5182 44.9812 58.3371 51.7837 58.8036 56.1003Z" fill="url(#paint34_linear_1870_4690)"/>
<path d="M89.5006 75.1147C89.533 76.2927 88.9137 77.3409 87.9599 77.9241C87.4993 78.2042 86.9622 78.3745 86.3809 78.4005C77.4269 78.7672 56.7303 80.8749 56.0525 78.3774C55.2718 75.4901 58.3035 62.4018 58.2066 60.7647C58.1069 59.1304 57.5199 44.9825 57.5199 44.9825L59.0314 45.3521L59.4774 45.4619L62.7057 44.0182L65.5437 45.56L69.2592 44.0182L72.0971 45.6553L74.9351 44.5004L77.283 45.6553L80.2178 44.0182L82.0755 45.4619L85.1073 44.0182L86.8682 45.6553L88.7288 44.0182L88.8257 45.56C88.8257 45.56 89.2805 66.805 89.5006 75.1147Z" fill="url(#paint35_linear_1870_4690)"/>
<path opacity="0.2" d="M87.9598 77.9231C87.4993 78.2032 86.9622 78.3735 86.3809 78.3995C77.4269 78.7662 56.7303 80.8739 56.0525 78.3764C55.2718 75.4891 58.3035 62.4008 58.2066 60.7637C58.1069 59.1294 57.5199 44.9815 57.5199 44.9815L59.0314 45.3511C60.2699 46.0874 61.7989 47.4357 61.9866 47.687C65.2943 52.0873 60.9829 60.4057 66.7087 63.3479C70.395 65.239 75.0908 63.7203 78.6624 65.8887C80.0857 66.7549 81.1776 68.1842 81.6296 69.7693C82.1048 71.4411 81.5591 73.4218 82.8182 74.8337C84.0274 76.1907 86.1021 76.9674 87.9598 77.9231Z" fill="url(#paint36_linear_1870_4690)"/>
<path d="M47.6946 4.86412C50.8095 30.7652 53.9245 56.3958 57.0396 81.7564C57.1794 82.8934 56.3809 83.899 55.2637 83.9926C42.7447 85.1609 30.2256 86.3551 17.7065 87.5748C15.4733 87.6814 14.2469 86.4537 14.1032 85.2246C10.8969 57.8478 7.69063 30.1843 4.48435 2.23441C4.34058 0.979119 5.4215 -0.0998801 7.65469 0.00736833C20.2354 0.889852 32.8162 1.76067 45.3969 2.61981C46.5216 2.69299 47.5549 3.70226 47.6946 4.86412Z" fill="#26264F"/>
<path d="M49.4298 4.81198C52.5644 30.826 55.699 56.5663 58.8336 82.0329C58.9742 83.1736 58.1709 84.1851 57.0466 84.2794C44.0472 85.3625 31.0477 86.4669 18.0482 87.5931C16.8619 87.6969 15.7715 86.7725 15.6269 85.5375C12.4005 58.0352 9.17401 30.2433 5.94753 2.16077C5.80285 0.900146 6.66278 -0.0676005 7.85703 0.0120978C20.9439 0.870933 34.0308 1.71932 47.1177 2.55773C48.2495 2.63179 49.2891 3.64501 49.4298 4.81198Z" fill="url(#paint37_linear_1870_4690)"/>
<path d="M48.6795 9.06839C51.5828 33.1701 54.4863 57.0368 57.3896 80.6687C57.521 81.7368 56.7702 82.68 55.7198 82.7641C43.4945 83.7478 31.2691 84.7501 19.0438 85.7712C17.9392 85.8643 16.9238 84.999 16.7888 83.8515C13.8055 58.4493 10.8223 32.799 7.83904 6.90076C7.70423 5.72907 8.50446 4.82222 9.616 4.88706C21.9174 5.59169 34.219 6.28916 46.5204 6.97893C47.5772 7.03834 48.5484 7.97972 48.6795 9.06839Z" fill="url(#paint38_linear_1870_4690)"/>
<path opacity="0.2" d="M46.5209 6.97667C34.3652 6.29508 22.2094 5.60571 10.0537 4.90967C10.4295 7.03516 11.0846 9.34845 12.1894 11.7066C16.2215 20.3127 22.1449 20.7866 24.4624 28.2862C26.8498 36.0126 21.4655 38.4306 24.096 45.4065C26.9504 52.9762 33.951 51.8806 37.6512 60.184C40.8404 67.3408 36.7348 70.6124 40.0325 74.9615C43.6471 79.7285 50.334 78.1123 57.2749 79.7268C54.4099 56.4016 51.545 32.8488 48.68 9.06606C48.549 7.97739 47.5777 7.03604 46.5209 6.97667Z" fill="white"/>
<path d="M28.7641 3.79805C28.8136 4.21707 28.5274 4.53796 28.1247 4.51509C27.7217 4.49101 27.3548 4.13075 27.3054 3.70973C27.2559 3.28993 27.5426 2.96724 27.9455 2.99316C28.3484 3.01765 28.7147 3.37825 28.7641 3.79805Z" fill="#DE8BDF"/>
<path d="M33.1533 27.0936C34.7072 27.0936 35.9668 25.6316 35.9668 23.828C35.9668 22.0245 34.7072 20.5624 33.1533 20.5624C31.5995 20.5624 30.3398 22.0245 30.3398 23.828C30.3398 25.6316 31.5995 27.0936 33.1533 27.0936Z" fill="url(#paint39_linear_1870_4690)"/>
<path d="M44.3496 27.0936C45.9035 27.0936 47.1631 25.6316 47.1631 23.828C47.1631 22.0245 45.9035 20.5624 44.3496 20.5624C42.7958 20.5624 41.5361 22.0245 41.5361 23.828C41.5361 25.6316 42.7958 27.0936 44.3496 27.0936Z" fill="url(#paint40_linear_1870_4690)"/>
<path d="M38.7169 27.0937C40.2929 27.0937 41.5705 25.6316 41.5705 23.8281C41.5705 22.0246 40.2929 20.5625 38.7169 20.5625C37.1409 20.5625 35.8633 22.0246 35.8633 23.8281C35.8633 25.6316 37.1409 27.0937 38.7169 27.0937Z" fill="#D8DEE8"/>
<path d="M55.5547 27.0936C57.1086 27.0936 58.3682 25.6316 58.3682 23.828C58.3682 22.0245 57.1086 20.5624 55.5547 20.5624C54.0009 20.5624 52.7412 22.0245 52.7412 23.828C52.7412 25.6316 54.0009 27.0936 55.5547 27.0936Z" fill="url(#paint41_linear_1870_4690)"/>
<path d="M49.9249 27.0937C51.5009 27.0937 52.7785 25.6316 52.7785 23.8281C52.7785 22.0246 51.5009 20.5625 49.9249 20.5625C48.3489 20.5625 47.0713 22.0246 47.0713 23.8281C47.0713 25.6316 48.3489 27.0937 49.9249 27.0937Z" fill="#D8DEE8"/>
<path d="M61.1221 27.0937C62.6981 27.0937 63.9757 25.6316 63.9757 23.8281C63.9757 22.0246 62.6981 20.5625 61.1221 20.5625C59.5461 20.5625 58.2686 22.0246 58.2686 23.8281C58.2686 25.6316 59.5461 27.0937 61.1221 27.0937Z" fill="#D8DEE8"/>
<path d="M27.5206 27.0937C29.0966 27.0937 30.3742 25.6316 30.3742 23.8281C30.3742 22.0246 29.0966 20.5625 27.5206 20.5625C25.9446 20.5625 24.667 22.0246 24.667 23.8281C24.667 25.6316 25.9446 27.0937 27.5206 27.0937Z" fill="#D8DEE8"/>
<path d="M7.27441 4.56445L24.7334 24.2708H69.7952L47.9598 7.06038L7.27441 4.56445Z" fill="url(#paint42_linear_1870_4690)"/>
<path d="M7.27441 4.56458L24.7334 24.2708H30.3795L11.9708 4.85266L7.27441 4.56458Z" fill="#F4F7FA"/>
<path d="M17.0127 5.16162L35.9429 24.2705H41.5202L22.0925 5.47329L17.0127 5.16162Z" fill="#F4F7FA"/>
<path d="M27.21 5.78381L47.1105 24.267H52.7147L32.3663 6.10013L27.21 5.78381Z" fill="#F4F7FA"/>
<path d="M42.7923 6.74402L37.5566 6.42285L58.3272 24.271H63.9588L42.7923 6.74402Z" fill="#F4F7FA"/>
<path d="M63.9678 24.2701C64.1542 25.8639 65.3282 27.0934 66.7525 27.0934C68.1768 27.0934 69.3508 25.8638 69.5372 24.2701H63.9678Z" fill="url(#paint43_linear_1870_4690)"/>
<g opacity="0.8">
<g opacity="0.35">
<path d="M49.4816 62.4912C49.5449 63.2313 48.9968 63.8542 48.2562 63.8841L21.1191 64.9795C20.3214 65.0117 19.5893 64.4161 19.4852 63.6473L18.7071 57.9019C18.6007 57.1164 19.1723 56.459 19.9825 56.4354L47.5322 55.6321C48.2836 55.6101 48.9442 56.2064 49.0088 56.962L49.4816 62.4912Z" fill="url(#paint44_linear_1870_4690)"/>
<path d="M49.9984 68.4682C50.0604 69.1938 49.5176 69.8095 48.7849 69.845L21.945 71.1462C21.1564 71.1844 20.4333 70.6064 20.3314 69.8533L20.2543 69.284C20.1518 68.5276 20.713 67.8846 21.5065 67.8496L48.5052 66.6578C49.2422 66.6253 49.8891 67.191 49.9514 67.9197L49.9984 68.4682Z" fill="url(#paint45_linear_1870_4690)"/>
</g>
<g opacity="0.3">
<path d="M44.1637 40.9204L20.5478 41.1037C20.1504 41.1068 19.7892 40.8146 19.7418 40.4507L19.5394 38.8971C19.4917 38.5309 19.7776 38.2338 20.1772 38.2338L43.9184 38.2344C44.2675 38.2344 44.5751 38.5114 44.6059 38.8527L44.7367 40.3014C44.7674 40.6407 44.5111 40.9177 44.1637 40.9204Z" fill="url(#paint46_linear_1870_4690)"/>
<path d="M21.5693 41.6747L24.5855 49.1748C24.7732 49.6414 25.2767 49.9561 25.8059 49.9391L41.2604 49.4417C41.7443 49.4261 42.1348 49.0984 42.2091 48.6464L43.387 41.471L21.5693 41.6747ZM28.3466 48.6646C28.3812 48.9582 28.151 49.2039 27.832 49.2136L27.2803 49.2303C26.9598 49.2401 26.6705 49.009 26.6349 48.714L25.9333 42.9086C25.8969 42.6077 26.1313 42.3606 26.4561 42.3569L27.0152 42.3505C27.3385 42.3469 27.6289 42.5869 27.6643 42.8863L28.3466 48.6646ZM31.3979 48.5764C31.4309 48.8677 31.2036 49.1112 30.8899 49.1207L30.3476 49.1372C30.0324 49.1467 29.749 48.9176 29.7151 48.625L29.0482 42.8685C29.0136 42.5702 29.245 42.3252 29.5643 42.3216L30.1138 42.3154C30.4316 42.3118 30.7162 42.5497 30.7498 42.8466L31.3979 48.5764ZM34.3981 48.4898C34.4294 48.7786 34.205 49.0201 33.8966 49.0295L33.3633 49.0456C33.0534 49.055 32.7757 48.8277 32.7435 48.5376L32.1102 42.8292C32.0774 42.5334 32.3058 42.2905 32.6197 42.287L33.1599 42.2808C33.4723 42.2773 33.7512 42.5133 33.783 42.8077L34.3981 48.4898ZM37.3485 48.4046C37.3781 48.691 37.1565 48.9305 36.8532 48.9397L36.3288 48.9556C36.0241 48.9649 35.7518 48.7393 35.7213 48.4516L35.1207 42.7905C35.0896 42.4972 35.315 42.2564 35.6237 42.2529L36.1549 42.2469C36.462 42.2434 36.7353 42.4774 36.7655 42.7694L37.3485 48.4046ZM40.2501 48.3208C40.2782 48.6049 40.0594 48.8424 39.761 48.8514L39.2452 48.8671C38.9455 48.8762 38.6786 48.6524 38.6497 48.367L38.0807 42.7525C38.0513 42.4617 38.2739 42.2228 38.5774 42.2194L39.0998 42.2135C39.4019 42.21 39.6697 42.4422 39.6982 42.7317L40.2501 48.3208Z" fill="url(#paint47_linear_1870_4690)"/>
<path d="M23.7763 37.4504C23.4439 37.7478 22.878 37.7113 22.5117 37.3678C22.1444 37.0233 22.1176 36.5012 22.4524 36.203C22.7869 35.9051 23.3544 35.9445 23.7192 36.2899C24.0831 36.6342 24.1083 37.1533 23.7763 37.4504Z" fill="url(#paint48_linear_1870_4690)"/>
<path d="M30.6729 30.0805C30.5372 29.9451 30.2889 29.9583 30.1185 30.1103L23.1719 36.3063C22.9975 36.4618 22.9709 36.6963 23.1125 36.8297C23.2538 36.9629 23.5095 36.9448 23.6834 36.7894L30.6106 30.6003C30.7806 30.4485 30.8085 30.2158 30.6729 30.0805Z" fill="url(#paint49_linear_1870_4690)"/>
<path d="M40.5558 37.4865C40.9185 37.7711 41.4228 37.7379 41.6829 37.4133C41.9429 37.0888 41.8615 36.5946 41.5005 36.3086C41.1384 36.0218 40.6322 36.0527 40.3705 36.3785C40.1086 36.7046 40.192 37.201 40.5558 37.4865Z" fill="url(#paint50_linear_1870_4690)"/>
<path d="M32.4365 30.119C32.542 29.9898 32.7912 30.0144 32.993 30.1738L40.8739 36.3983C41.0636 36.5481 41.1353 36.7714 41.0343 36.8973C40.9333 37.0232 40.6976 37.0042 40.5076 36.8547L32.6118 30.6413C32.4096 30.4823 32.331 30.2483 32.4365 30.119Z" fill="url(#paint51_linear_1870_4690)"/>
</g>
<path d="M49.9445 62.0374C50.0078 62.7775 49.4597 63.4004 48.7191 63.4303L21.582 64.5257C20.7843 64.5579 20.0522 63.9623 19.9481 63.1935L19.17 57.4481C19.0636 56.6626 19.6352 56.0052 20.4454 55.9815L47.9951 55.1783C48.7465 55.1563 49.407 55.7525 49.4717 56.5082L49.9445 62.0374Z" fill="white"/>
<path d="M50.4593 68.0151C50.5213 68.7407 49.9786 69.3564 49.2458 69.3919L22.4059 70.6931C21.6173 70.7313 20.8943 70.1533 20.7923 69.4002L20.7152 68.8309C20.6128 68.0745 21.174 67.4315 21.9674 67.3964L48.9662 66.2047C49.7031 66.1722 50.3501 66.7379 50.4124 67.4665L50.4593 68.0151Z" fill="white"/>
<path d="M44.4859 40.6085L20.87 40.7917C20.4726 40.7948 20.1114 40.5026 20.064 40.1387L19.8616 38.5851C19.8139 38.219 20.0998 37.9219 20.4995 37.9219L44.2406 37.9225C44.5898 37.9225 44.8973 38.1994 44.9282 38.5408L45.059 39.9894C45.0896 40.3288 44.8333 40.6058 44.4859 40.6085Z" fill="white"/>
<path d="M21.8857 41.3649L24.902 48.8649C25.0896 49.3316 25.5931 49.6463 26.1223 49.6292L41.5768 49.1319C42.0607 49.1163 42.4512 48.7886 42.5255 48.3366L43.7034 41.1611L21.8857 41.3649ZM28.663 48.3547C28.6976 48.6484 28.4674 48.894 28.1484 48.9037L27.5968 48.9205C27.2762 48.9302 26.9869 48.6992 26.9513 48.4042L26.2497 42.5987C26.2133 42.2978 26.4477 42.0507 26.7726 42.047L27.3316 42.0407C27.6549 42.037 27.9453 42.277 27.9807 42.5765L28.663 48.3547ZM31.7143 48.2666C31.7473 48.5578 31.52 48.8014 31.2063 48.8109L30.664 48.8273C30.3489 48.8369 30.0654 48.6077 30.0315 48.3152L29.3646 42.5587C29.3301 42.2604 29.5614 42.0154 29.8807 42.0118L30.4303 42.0056C30.7481 42.002 31.0326 42.2399 31.0662 42.5368L31.7143 48.2666ZM34.7145 48.18C34.7458 48.4688 34.5214 48.7103 34.213 48.7196L33.6797 48.7358C33.3698 48.7452 33.0921 48.5178 33.0599 48.2277L32.4266 42.5194C32.3938 42.2236 32.6222 41.9807 32.9361 41.9771L33.4763 41.971C33.7888 41.9674 34.0676 42.2034 34.0994 42.4979L34.7145 48.18ZM37.6649 48.0948C37.6945 48.3812 37.4729 48.6207 37.1696 48.6299L36.6452 48.6458C36.3404 48.6551 36.0682 48.4295 36.0377 48.1417L35.437 42.4807C35.4059 42.1874 35.6314 41.9466 35.94 41.9431L36.4712 41.937C36.7784 41.9336 37.0517 42.1676 37.0819 42.4596L37.6649 48.0948ZM40.5665 48.011C40.5946 48.2951 40.3758 48.5326 40.0774 48.5416L39.5616 48.5573C39.2619 48.5664 38.995 48.3426 38.9661 48.0572L38.3972 42.4427C38.3677 42.1518 38.5903 41.913 38.8938 41.9096L39.4162 41.9037C39.7182 41.9002 39.9861 42.1324 40.0147 42.4219L40.5665 48.011Z" fill="white"/>
<path d="M24.0859 37.1394C23.7534 37.4368 23.1875 37.4004 22.8213 37.0568C22.454 36.7123 22.4271 36.1903 22.762 35.892C23.0965 35.5941 23.6639 35.6335 24.0288 35.9789C24.3926 36.3233 24.4179 36.8424 24.0859 37.1394Z" fill="white"/>
<path d="M30.9844 29.7646C30.8487 29.6292 30.6005 29.6424 30.43 29.7945L23.4834 35.9904C23.309 36.146 23.2824 36.3805 23.424 36.5139C23.5654 36.6471 23.821 36.629 23.9949 36.4736L30.9222 30.2845C31.0921 30.1326 31.12 29.8999 30.9844 29.7646Z" fill="white"/>
<path d="M40.878 37.1726C41.2408 37.4573 41.7451 37.4241 42.0052 37.0994C42.2651 36.7749 42.1838 36.2807 41.8227 35.9947C41.4607 35.7079 40.9544 35.7388 40.6927 36.0646C40.4309 36.3907 40.5142 36.8872 40.878 37.1726Z" fill="white"/>
<path d="M32.749 29.8049C32.8544 29.6757 33.1037 29.7003 33.3055 29.8597L41.1864 36.0842C41.3761 36.234 41.4478 36.4573 41.3468 36.5832C41.2458 36.7091 41.0101 36.6901 40.8201 36.5406L32.9243 30.3273C32.7221 30.1682 32.6435 29.9342 32.749 29.8049Z" fill="white"/>
</g>
<path d="M76.6024 89.2455C76.6024 89.2455 76.6706 89.7795 76.6248 89.9584C76.579 90.1374 75.0008 90.2666 74.4651 90.2044C73.9294 90.1422 74.7842 89.6039 75.1255 89.5029C75.4668 89.4018 76.6024 89.2455 76.6024 89.2455Z" fill="url(#paint52_linear_1870_4690)"/>
<path d="M75.8125 88.3533L75.9788 89.4247C75.9788 89.4247 76.403 89.6122 76.6069 89.4269L76.6294 88.3054L75.8125 88.3533Z" fill="url(#paint53_linear_1870_4690)"/>
<path d="M84.71 88.3076C84.71 88.3076 84.3751 88.552 84.4644 88.8448C84.5536 89.1376 85.335 90.3107 85.8919 90.6436C86.4487 90.9766 86.2742 90.2829 86.1121 89.8509C85.9501 89.4188 85.536 88.4671 85.3744 88.3076C85.2127 88.1481 84.71 88.3076 84.71 88.3076Z" fill="url(#paint54_linear_1870_4690)"/>
<path d="M84.0996 87.1316C84.2615 87.5755 84.4172 87.9404 84.539 88.2096C84.8084 88.8052 84.9557 89.0286 85.1225 89.2223C85.2679 89.3911 85.6122 89.7511 85.7048 89.6912C85.7988 89.6304 85.5468 89.1927 85.0614 87.9105C84.9908 87.7245 84.7681 87.1316 84.7681 87.1316H84.0996Z" fill="url(#paint55_linear_1870_4690)"/>
<path d="M72.5051 68.5803C72.3896 69.696 72.2788 71.4278 72.4445 73.5296C72.6604 76.2679 73.217 78.0007 73.9149 80.9204C74.3415 82.7047 74.9162 85.3309 75.4364 88.6153C75.557 88.6832 75.9121 88.862 76.3692 88.7952C76.6252 88.7578 76.8166 88.6578 76.9296 88.5858C78.2943 84.4832 77.8912 81.9409 77.2327 80.357C76.952 79.6818 76.6116 79.1491 76.4297 78.1113C76.189 76.7382 76.4866 75.9706 76.9111 72.7899C77.2136 70.5229 77.1613 70.1724 76.96 69.8325C76.1553 68.4731 73.6941 68.4997 72.5051 68.5803Z" fill="url(#paint56_linear_1870_4690)"/>
<path d="M64.0135 57.101C64.0135 57.101 63.8219 56.362 63.5032 56.1668C63.1844 55.9718 62.7339 55.7632 62.6307 55.6775C62.5274 55.5918 62.4069 55.848 62.7043 56.044C63.0017 56.24 63.0017 56.24 63.0017 56.24C63.008 56.2941 62.9996 56.3361 62.9896 56.3657C62.9424 56.5045 62.7817 56.5997 62.583 56.6176C61.8198 56.7749 61.5216 56.7826 61.4052 56.749C61.388 56.7441 61.3216 56.7229 61.2935 56.7519C61.2486 56.7984 61.3294 56.9459 61.3638 56.9976C61.5703 57.3079 62.2871 57.4428 62.8238 57.2002C63.0198 57.1116 63.0948 57.0164 63.2379 57.0403C63.4651 57.0782 63.6046 57.3731 63.6871 57.6171L64.0135 57.101Z" fill="url(#paint57_linear_1870_4690)"/>
<path d="M77.2051 69.0569C78.0411 73.3044 78.8616 75.5353 79.4826 76.7971C79.6357 77.1083 80.1466 78.1122 80.6296 79.5516C81.0571 80.8256 81.2353 81.7628 81.3266 82.1753C81.6148 83.4773 82.3271 85.3783 84.2439 87.8717C84.2678 87.8856 84.5946 88.0674 84.907 87.9053C85.0651 87.8232 85.144 87.6923 85.1753 87.6314C84.9247 85.2475 84.6371 83.2442 84.3874 81.6982C84.335 81.374 84.1043 79.9553 83.7425 78.0809C83.6009 77.3474 83.3934 76.2727 83.1449 75.1688C82.8355 73.7941 82.361 71.924 81.6296 69.683C80.1548 69.4743 78.6799 69.2657 77.2051 69.0569Z" fill="url(#paint58_linear_1870_4690)"/>
<path d="M63.4082 57.3347C63.6255 57.1446 63.8429 56.9546 64.0602 56.7645C64.1398 56.8436 65.2999 57.9574 66.9218 57.6198C68.0385 57.3873 68.6826 56.4851 69.0951 55.9092C70.3344 54.1795 69.5932 52.9103 70.9275 51.735C71.2981 51.4087 72.0249 51.0135 72.5001 51.134C73.6323 51.4211 74.2841 54.771 73.1883 57.406C72.9672 57.9378 71.7492 60.8662 68.9864 61.1834C66.7558 61.4395 64.3904 59.8933 63.4082 57.3347Z" fill="url(#paint59_linear_1870_4690)"/>
<path d="M76.4854 52.2594C76.0113 51.8282 75.1042 51.3312 74.6493 50.1757C74.5124 49.828 74.0272 48.5957 74.7429 47.653C75.1676 47.0934 75.9567 46.7135 76.6521 46.848C77.2464 46.9629 77.3393 47.3701 78.3492 48.1897C78.7423 48.5086 79.3741 49.0214 80.0772 49.3064C81.282 49.7949 82.0058 49.3353 83.2153 49.3877C84.7011 49.4522 86.4272 50.268 87.2588 51.4544C88.7349 53.56 86.5967 55.696 88.2134 58.1627C88.7432 58.9708 89.0043 58.7896 90.259 60.354C91.5154 61.9205 92.1436 62.7036 92.0319 63.6635C91.8767 64.9955 90.4184 66.2679 89.0451 66.3544C87.7036 66.439 86.8508 65.4006 86.1678 65.8548C85.6817 66.178 85.9597 66.8067 85.4434 67.5622C84.7779 68.5364 83.4698 68.7305 83.2585 68.7617C81.2977 69.0527 78.6538 66.7906 77.5309 64.1107C75.5061 59.2779 79.063 54.6034 76.4854 52.2594Z" fill="url(#paint60_linear_1870_4690)"/>
<path opacity="0.3" d="M77.2306 80.3554C76.9499 79.6802 76.6095 79.1475 76.4276 78.1097C76.1869 76.7366 76.4846 75.969 76.909 72.7883C77.2116 70.5213 77.1592 70.1708 76.9579 69.8309C76.5206 69.0922 75.5939 68.7644 74.6482 68.6306C74.6609 68.6783 74.6736 68.7261 74.6839 68.7722C75.1801 71.0016 73.2864 72.3619 74.1406 74.8126C74.5616 76.0208 75.2336 76.2976 75.3902 77.6991C75.5369 79.012 75.0049 79.2855 75.1186 80.4787C75.2884 82.2625 76.5764 82.6942 76.9116 84.0602C77.1293 84.9478 76.9459 86.2457 75.3554 88.1243C75.3818 88.2862 75.4082 88.4486 75.4344 88.6138C75.5551 88.6817 75.9101 88.8604 76.3672 88.7937C76.6232 88.7563 76.8146 88.6562 76.9276 88.5842C78.2922 84.4816 77.8892 81.9393 77.2306 80.3554Z" fill="url(#paint61_linear_1870_4690)"/>
<path opacity="0.15" d="M72.2465 54.3412C70.2046 55.9278 70.4319 58.971 69.1766 59.1253C68.7932 59.1724 68.8143 58.8832 67.8998 58.5908C66.5622 58.1629 65.9338 58.5951 64.9929 58.27C64.6033 58.1354 64.0964 57.8478 63.5972 57.1694C63.5342 57.2245 63.4712 57.2795 63.4082 57.3346C64.3904 59.8932 66.7558 61.4394 68.9864 61.1833C71.7492 60.866 72.9671 57.9377 73.1883 57.4058C73.7025 56.1695 73.8318 54.7757 73.7074 53.6148C73.2361 53.7501 72.7241 53.97 72.2465 54.3412Z" fill="url(#paint62_linear_1870_4690)"/>
<path d="M70.7609 51.936C70.886 51.7448 71.2838 51.215 72.972 50.8245C73.8181 50.6288 75.3824 50.2935 77.3954 50.7131C80.1602 51.2894 81.8822 52.9216 82.5302 53.6077C81.9995 53.9476 80.535 54.985 79.8098 56.9529C79.5841 57.5652 78.9174 59.6584 79.8709 61.619C80.4202 62.7487 81.392 63.5969 82.1301 64.2412C83.2372 65.2073 83.8105 65.3558 84.1816 66.2215C84.5858 67.1641 84.1785 67.6238 84.6805 68.2691C85.2195 68.9621 85.8511 68.6399 86.7648 69.3408C87.7007 70.0587 87.3677 70.6495 88.2194 71.4428C89.4571 72.5954 91.0978 72.2211 91.1742 72.7397C91.2399 73.1859 90.0738 73.7912 89.0831 74.0367C87.1212 74.5229 85.4099 73.7068 84.901 73.4553C83.4921 72.759 83.7355 72.3083 82.6613 71.7774C80.8627 70.8885 79.6334 71.8776 75.5368 71.9795C73.3183 72.0347 72.1965 72.0471 71.582 71.3087C71.0207 70.6342 71.3158 69.8943 71.6526 66.7058C71.6526 66.7058 71.6526 66.7057 71.6526 66.7054C71.7608 65.6406 71.9874 63.411 71.9888 62.1405C71.9896 61.3896 71.7249 60.1628 71.1955 57.7091C71.1643 57.5644 70.8778 56.2388 70.6463 54.4679C70.4379 52.8733 70.4681 52.3836 70.7609 51.936Z" fill="url(#paint63_linear_1870_4690)"/>
<g opacity="0.15">
<path d="M88.221 71.4429C87.3692 70.6495 87.7023 70.0587 86.7663 69.3409C85.8526 68.64 85.2211 68.9622 84.682 68.2691C84.1801 67.6238 84.5873 67.1642 84.1832 66.2215C83.8121 65.3559 83.2387 65.2074 82.1316 64.2412C81.3935 63.5969 80.4217 62.7488 79.8724 61.619C78.9189 59.6584 79.5856 57.5652 79.8113 56.9529C80.5366 54.985 82.0011 53.9476 82.5318 53.6077C82.4807 53.5535 82.4204 53.4919 82.356 53.4269C78.8594 53.8996 76.8208 55.8873 76.5687 56.4758C75.9859 57.8363 76.9085 58.3362 76.9323 62.26C76.9437 64.1355 76.7381 64.876 77.3566 65.6589C78.064 66.5541 78.8792 66.2771 79.9022 67.4477C80.6882 68.347 80.5623 68.9173 81.2963 69.2962C82.0855 69.7036 82.5881 69.2288 83.4782 69.4155C84.9653 69.7275 85.2832 71.4143 86.2662 72.3372C87.0096 73.0351 88.3841 73.523 91.0948 72.9994C91.1575 72.9096 91.1878 72.8219 91.1757 72.7397C91.0993 72.2211 89.4586 72.5954 88.221 71.4429Z" fill="url(#paint64_linear_1870_4690)"/>
</g>
<path d="M76.2567 48.5887C76.2567 48.5887 76.4331 49.9756 76.9533 50.2933C77.4737 50.6109 78.3148 51.026 78.4075 51.1387C78.5001 51.2512 75.1842 51.602 73.541 50.7862C74.0826 50.6751 74.2298 50.6342 74.2298 50.6342C74.3767 50.5933 74.6509 50.5173 74.9258 50.3633C75.1128 50.2585 75.4144 50.0537 75.6909 49.6671L75.6849 48.8992L76.2567 48.5887Z" fill="url(#paint65_linear_1870_4690)"/>
<path d="M76.3363 49.0769C76.3363 49.0769 75.997 49.535 75.465 49.344C74.9887 49.1731 75.273 47.9627 75.6508 47.8247C75.7769 47.7786 76.0083 47.799 76.163 47.8939C76.2718 47.9607 76.5624 48.3158 76.3958 48.7137C76.5161 48.6794 76.6221 48.7106 76.6486 48.7692C76.6823 48.8436 76.5803 48.9448 76.5573 48.9678C76.4773 49.0473 76.3808 49.0696 76.3363 49.0769Z" fill="url(#paint66_linear_1870_4690)"/>
<path d="M76.8115 57.4916L74.1169 56.5553C74.067 56.5396 74.0273 56.5022 74.0093 56.4538L73.5624 55.2576C73.5163 55.134 73.6268 55.009 73.7576 55.0368L76.2895 55.5755C76.3474 55.5879 76.4765 55.6247 76.516 55.7307L77.0174 57.1896C77.063 57.3196 76.9446 57.5335 76.8115 57.4916Z" fill="url(#paint67_linear_1870_4690)"/>
<path d="M76.7766 57.5059L74.1725 56.6864C74.1227 56.6707 74.083 56.6333 74.0649 56.585L73.6181 55.3888C73.572 55.2652 73.6825 55.1401 73.8133 55.1679L76.3452 55.7067C76.4031 55.719 76.4503 55.7602 76.4697 55.8153L76.9887 57.2923C77.0344 57.4222 76.9097 57.5478 76.7766 57.5059Z" fill="url(#paint68_linear_1870_4690)"/>
<path d="M78.0935 57.4502C78.0935 57.4502 77.6393 56.5567 77.3669 56.378C77.0944 56.1993 75.8695 56.1215 75.5283 56.1604C75.1872 56.1993 75.1616 56.4496 75.4468 56.6372C75.7321 56.8248 76.5404 57.039 76.6812 57.1999C76.8219 57.3608 77.821 57.8076 78.0935 57.4502Z" fill="url(#paint69_linear_1870_4690)"/>
<path d="M77.6229 57.5127C77.2469 58.2872 78.9446 60.1052 80.8381 60.9743C81.2238 61.1515 83.9942 62.4231 85.239 61.2217C86.2675 60.2289 85.6191 58.161 85.3875 57.4227C84.2507 53.7974 80.7071 51.937 79.2214 51.2649C78.0943 53.9932 78.7421 55.2153 78.9976 55.5972C79.2645 55.9961 80.0111 56.835 80.8047 57.5749C81.363 58.0952 81.7111 58.3489 81.6636 58.4293C81.6046 58.5295 80.9478 58.3362 78.3996 57.0986C78.1031 57.1442 77.7515 57.2483 77.6229 57.5127Z" fill="url(#paint70_linear_1870_4690)"/>
<path d="M42.0132 89.9952C42.0132 90.715 41.5623 91.2985 41.0061 91.2985C40.4499 91.2985 39.999 90.715 39.999 89.9952C39.999 89.2754 40.4499 88.6918 41.0061 88.6918C41.5623 88.6918 42.0132 89.2754 42.0132 89.9952Z" fill="url(#paint71_linear_1870_4690)"/>
<path d="M42.2944 90.1431C42.2944 90.8629 41.8436 91.4464 41.2874 91.4464C40.7312 91.4464 40.2803 90.8629 40.2803 90.1431C40.2803 89.4233 40.7312 88.8398 41.2874 88.8398C41.8436 88.8398 42.2944 89.4233 42.2944 90.1431Z" fill="url(#paint72_linear_1870_4690)"/>
<path d="M41.7102 90.1689C41.7102 90.4705 41.5213 90.7151 41.2882 90.7151C41.0552 90.7151 40.8662 90.4705 40.8662 90.1689C40.8662 89.8673 41.0552 89.6228 41.2882 89.6228C41.5213 89.6228 41.7102 89.8673 41.7102 90.1689Z" fill="url(#paint73_linear_1870_4690)"/>
<path d="M41.0039 88.5538V89.985C41.0039 90.1951 41.1771 90.3655 41.3906 90.3655C41.5141 90.3655 41.6301 90.3075 41.7029 90.2094L43.1846 88.2914L41.0039 88.5538Z" fill="#BFC8D6"/>
<path d="M52.7974 88.8545C52.7974 89.5744 52.3465 90.1579 51.7903 90.1579C51.2341 90.1579 50.7832 89.5744 50.7832 88.8545C50.7832 88.1347 51.2341 87.5512 51.7903 87.5512C52.3465 87.5512 52.7974 88.1347 52.7974 88.8545Z" fill="url(#paint74_linear_1870_4690)"/>
<path d="M53.0786 88.9981C53.0786 89.7179 52.6277 90.3015 52.0715 90.3015C51.5153 90.3015 51.0645 89.7179 51.0645 88.9981C51.0645 88.2783 51.5153 87.6948 52.0715 87.6948C52.6277 87.6948 53.0786 88.2783 53.0786 88.9981Z" fill="url(#paint75_linear_1870_4690)"/>
<path d="M52.4846 89.028C52.4846 89.3296 52.2957 89.5741 52.0626 89.5741C51.8296 89.5741 51.6406 89.3296 51.6406 89.028C51.6406 88.7264 51.8296 88.4819 52.0626 88.4819C52.2957 88.4819 52.4846 88.7264 52.4846 89.028Z" fill="url(#paint76_linear_1870_4690)"/>
<path d="M51.79 87.4087V88.8399C51.79 89.05 51.9632 89.2203 52.1768 89.2203C52.3002 89.2203 52.4163 89.1623 52.4891 89.0642L53.8675 87.0678L51.79 87.4087Z" fill="#BFC8D6"/>
<path d="M40.8547 88.6374C40.7918 88.6374 40.7375 88.5908 40.7303 88.5278C40.7225 88.4602 40.772 88.3992 40.8408 88.3916L53.6095 86.9759C54.3655 86.8482 54.9884 86.2897 55.1893 85.554L60.5381 65.9627C60.8075 64.9758 61.6847 64.2656 62.7209 64.1954L66.6035 63.9676C66.6714 63.9621 66.7319 64.0153 66.736 64.0833C66.7402 64.1513 66.6875 64.2097 66.6184 64.2137L62.7369 64.4414C61.8086 64.5044 61.0218 65.1414 60.7801 66.0266L55.4313 85.6179C55.2052 86.4462 54.5039 87.0751 53.6446 87.22L40.8688 88.6366C40.8641 88.6371 40.8593 88.6374 40.8547 88.6374Z" fill="#D8DEE8"/>
<path d="M49.7414 80.9257C49.6869 80.9257 49.6367 80.8903 49.621 80.8362L46.6142 70.4853C46.5952 70.4198 46.6338 70.3516 46.7003 70.3329C46.7669 70.3141 46.8363 70.3521 46.8552 70.4175L49.862 80.7684C49.881 80.834 49.8424 80.9021 49.7759 80.9209C49.7644 80.9241 49.7528 80.9257 49.7414 80.9257Z" fill="#D8DEE8"/>
<path d="M52.8119 80.4921C52.7523 80.4921 52.6994 80.4501 52.6887 80.3904L50.834 70.137C50.8219 70.0699 50.8673 70.0059 50.9354 69.994C51.0039 69.9822 51.0686 70.0268 51.0807 70.0938L52.9354 80.3472C52.9475 80.4142 52.9021 80.4782 52.834 80.4901C52.8265 80.4915 52.8192 80.4921 52.8119 80.4921Z" fill="#D8DEE8"/>
<path d="M54.7221 80.1567C54.7203 80.1567 54.7186 80.1566 54.7168 80.1566C54.6476 80.1537 54.5939 80.0963 54.5968 80.0283L55.0247 69.8834C55.0275 69.8153 55.0823 69.7611 55.1551 69.7653C55.2242 69.7681 55.278 69.8256 55.2751 69.8936L54.8472 80.0385C54.8444 80.1048 54.7889 80.1567 54.7221 80.1567Z" fill="#D8DEE8"/>
<path d="M45.5434 81.3048C45.491 81.3048 45.4422 81.2723 45.4246 81.2207L41.8942 70.8652C41.8722 70.8007 41.9076 70.7308 41.9732 70.7091C42.0389 70.6877 42.1099 70.7222 42.1319 70.7868L45.6623 81.1423C45.6842 81.2068 45.6489 81.2767 45.5833 81.2984C45.57 81.3027 45.5566 81.3048 45.5434 81.3048Z" fill="#D8DEE8"/>
<path d="M75.6757 64.9793C75.6687 64.9793 75.6616 64.979 75.6544 64.9784L66.7685 64.2756C66.6274 64.2645 66.5225 64.1454 66.5341 64.0097C66.5457 63.8739 66.6696 63.7719 66.8105 63.7841L75.6964 64.4869C75.8375 64.4981 75.9425 64.6171 75.9308 64.7529C75.9199 64.8818 75.8078 64.9793 75.6757 64.9793Z" fill="url(#paint77_linear_1870_4690)"/>
<path d="M51.4732 93.5484C51.4732 94.2682 51.0223 94.8517 50.4661 94.8517C49.9098 94.8517 49.459 94.2682 49.459 93.5484C49.459 92.8286 49.9098 92.2451 50.4661 92.2451C51.0223 92.245 51.4732 92.8286 51.4732 93.5484Z" fill="url(#paint78_linear_1870_4690)"/>
<path d="M51.7534 93.6968C51.7534 94.4166 51.3026 95.0002 50.7463 95.0002C50.1902 95.0002 49.7393 94.4167 49.7393 93.6968C49.7393 92.977 50.1902 92.3935 50.7463 92.3935C51.3026 92.3935 51.7534 92.977 51.7534 93.6968Z" fill="url(#paint79_linear_1870_4690)"/>
<path d="M51.1721 93.722C51.1721 94.0236 50.9832 94.2681 50.7501 94.2681C50.5171 94.2681 50.3281 94.0236 50.3281 93.722C50.3281 93.4204 50.5171 93.1758 50.7501 93.1758C50.9832 93.1758 51.1721 93.4203 51.1721 93.722Z" fill="url(#paint80_linear_1870_4690)"/>
<path d="M50.4629 92.1082V93.5393C50.4629 93.7495 50.636 93.9198 50.8496 93.9198C50.9731 93.9198 51.0891 93.8618 51.1619 93.7637L52.4702 92.0012L50.4629 92.1082Z" fill="#BFC8D6"/>
<path d="M60.8023 92.6299C60.8023 93.3497 60.3514 93.9333 59.7952 93.9333C59.239 93.9333 58.7881 93.3497 58.7881 92.6299C58.7881 91.9101 59.239 91.3266 59.7952 91.3266C60.3513 91.3266 60.8023 91.9101 60.8023 92.6299Z" fill="url(#paint81_linear_1870_4690)"/>
<path d="M61.0835 92.7774C61.0835 93.4972 60.6326 94.0807 60.0764 94.0807C59.5202 94.0807 59.0693 93.4972 59.0693 92.7774C59.0693 92.0576 59.5203 91.4741 60.0764 91.4741C60.6326 91.4741 61.0835 92.0576 61.0835 92.7774Z" fill="url(#paint82_linear_1870_4690)"/>
<path d="M60.5022 92.8032C60.5022 93.1048 60.3133 93.3493 60.0802 93.3493C59.8471 93.3493 59.6582 93.1048 59.6582 92.8032C59.6582 92.5015 59.8471 92.257 60.0802 92.257C60.3133 92.257 60.5022 92.5016 60.5022 92.8032Z" fill="url(#paint83_linear_1870_4690)"/>
<path d="M59.793 91.1849V92.616C59.793 92.8262 59.9661 92.9965 60.1797 92.9965C60.3032 92.9965 60.4192 92.9385 60.492 92.8404L61.9569 90.8992L59.793 91.1849Z" fill="#BFC8D6"/>
<path d="M36.884 71.1833C36.8189 71.1833 36.7639 71.1338 36.7591 71.0689C36.7542 71.001 36.8061 70.9419 36.8751 70.937L59.616 69.3267C59.6259 69.3262 59.6361 69.3265 59.646 69.3281L69.0605 70.9057C69.1287 70.9171 69.1746 70.9809 69.163 71.048C69.1514 71.1151 69.0866 71.1606 69.0184 71.1488L59.6188 69.5737L36.8931 71.183C36.8901 71.1832 36.887 71.1833 36.884 71.1833Z" fill="#D8DEE8"/>
<path d="M44.6111 73.4915C44.5988 73.4915 44.5865 73.4897 44.5746 73.4863L36.8477 71.1782C36.7815 71.1583 36.7441 71.0895 36.7642 71.0244C36.7844 70.9592 36.8547 70.9227 36.9206 70.9422L44.6237 73.2432L69.0273 70.9047C69.0974 70.898 69.1575 70.9477 69.1642 71.0154C69.1709 71.0832 69.1205 71.1435 69.0517 71.1501L44.6232 73.4909C44.6191 73.4913 44.6151 73.4915 44.6111 73.4915Z" fill="#BFC8D6"/>
<path d="M66.09 81.6594C66.0837 81.6594 66.0773 81.6589 66.0708 81.6579L56.7896 80.257L42.6784 81.5933C42.6101 81.5993 42.5483 81.5501 42.5416 81.4824C42.535 81.4146 42.5855 81.3544 42.6544 81.3478L56.7812 80.01C56.7915 80.0091 56.802 80.0093 56.8122 80.0109L66.1089 81.4143C66.1773 81.4245 66.2242 81.4875 66.2137 81.5548C66.2042 81.6157 66.1508 81.6594 66.09 81.6594Z" fill="#C2C2C2"/>
<path d="M49.3002 83.2308C49.2521 83.2308 49.2079 83.2036 49.187 83.1603L44.4974 73.4228C44.4678 73.3613 44.4945 73.2878 44.557 73.2586C44.6194 73.2296 44.6944 73.2557 44.724 73.3172L49.3758 82.9765L66.0855 81.4134C66.1558 81.4073 66.2155 81.4567 66.2221 81.5244C66.2287 81.5922 66.1781 81.6524 66.1092 81.6589L49.3121 83.2302C49.3081 83.2306 49.3041 83.2308 49.3002 83.2308Z" fill="#BFC8D6"/>
<path d="M49.3007 83.2325C49.2905 83.2325 49.2803 83.2313 49.27 83.2288L42.6437 81.592C42.6098 81.5836 42.581 81.5617 42.5643 81.5316L36.7742 71.1229C36.741 71.0632 36.7633 70.9883 36.824 70.9555C36.8848 70.923 36.9608 70.9449 36.9941 71.0045L42.7579 81.3659L49.3311 82.9896C49.3983 83.0062 49.439 83.0732 49.4221 83.1392C49.4078 83.1952 49.3567 83.2325 49.3007 83.2325Z" fill="#BFC8D6"/>
<path d="M46.3197 77.0363C46.3078 77.0363 46.2959 77.0346 46.2845 77.0313L39.0071 74.9327C38.9407 74.9136 38.9026 74.8451 38.9221 74.7797C38.9415 74.7144 39.0114 74.6768 39.0776 74.6961L46.3323 76.7881L67.8472 74.942C67.917 74.9351 67.9769 74.9863 67.9829 75.0541C67.989 75.122 67.938 75.1817 67.869 75.1876L46.3306 77.0358C46.327 77.0361 46.3234 77.0363 46.3197 77.0363Z" fill="#BFC8D6"/>
<path d="M48.0903 80.7253C48.0788 80.7253 48.0675 80.7239 48.0564 80.7208L41.0847 78.7992C41.018 78.7808 40.9792 78.7128 40.9978 78.6472C41.0164 78.5816 41.0857 78.5432 41.1523 78.5618L48.1021 80.4773L66.7872 78.869C66.8574 78.8627 66.917 78.9133 66.923 78.9811C66.9291 79.0489 66.878 79.1088 66.8091 79.1147L48.1012 80.7249C48.0975 80.7251 48.0938 80.7253 48.0903 80.7253Z" fill="#BFC8D6"/>
<path d="M52.7253 82.9116C52.6713 82.9116 52.6214 82.877 52.6052 82.8234L49.6146 72.9523C49.5949 72.8871 49.6326 72.8184 49.6989 72.7989C49.7652 72.7795 49.8351 72.8166 49.8549 72.8819L52.8454 82.753C52.8652 82.8182 52.8274 82.8869 52.7611 82.9064C52.7492 82.9099 52.7371 82.9116 52.7253 82.9116Z" fill="#BFC8D6"/>
<path d="M56.04 82.6002C55.9803 82.6002 55.9274 82.5581 55.9167 82.4984L54.123 72.4976C54.111 72.4306 54.1565 72.3666 54.2246 72.3548C54.2928 72.3432 54.3578 72.3878 54.3699 72.4548L56.1636 82.4555C56.1756 82.5226 56.1301 82.5865 56.062 82.5984C56.0546 82.5996 56.0473 82.6002 56.04 82.6002Z" fill="#BFC8D6"/>
<path d="M59.7637 82.1846C59.6976 82.1846 59.6424 82.1338 59.6387 82.0682L59.0734 72.138C59.0696 72.0701 59.1224 72.0119 59.1916 72.0081C59.2597 72.0045 59.3199 72.0563 59.3237 72.1242L59.889 82.0545C59.8928 82.1224 59.84 82.1807 59.7709 82.1845C59.7684 82.1845 59.7661 82.1846 59.7637 82.1846Z" fill="#BFC8D6"/>
<path d="M63.3022 81.7938C63.3 81.7938 63.2977 81.7938 63.2955 81.7936C63.2264 81.7901 63.1733 81.7321 63.1769 81.6641L63.7149 71.5756C63.7185 71.5076 63.7771 71.4546 63.8465 71.4589C63.9157 71.4625 63.9687 71.5205 63.9651 71.5885L63.4272 81.6769C63.4237 81.7428 63.3684 81.7938 63.3022 81.7938Z" fill="#BFC8D6"/>
<path d="M47.2979 82.7375C47.2513 82.7375 47.2065 82.7117 47.1849 82.6676L42.3513 72.7836C42.3213 72.7222 42.3475 72.6485 42.4099 72.619C42.4722 72.5897 42.5472 72.6153 42.5772 72.6767L47.4108 82.5607C47.4408 82.6221 47.4145 82.6958 47.3522 82.7253C47.3347 82.7336 47.3161 82.7375 47.2979 82.7375Z" fill="#BFC8D6"/>
<path d="M44.6107 82.0726C44.5647 82.0726 44.5204 82.0476 44.4985 82.0044L39.3678 71.8928C39.3368 71.8318 39.3619 71.7578 39.4239 71.7274C39.4859 71.6968 39.561 71.7217 39.5919 71.7826L44.7227 81.8942C44.7537 81.9552 44.7286 82.0292 44.6666 82.0596C44.6486 82.0684 44.6295 82.0726 44.6107 82.0726Z" fill="#BFC8D6"/>
<path d="M50.4129 92.3697C50.3971 92.3697 50.3815 92.3668 50.3667 92.361L40.8077 88.6286C40.7433 88.6035 40.7119 88.5318 40.7374 88.4685C40.7628 88.4052 40.8357 88.3743 40.9001 88.3994L50.4294 92.1202L61.9958 90.7301C62.8727 90.6248 63.5908 90.0152 63.8255 89.1773L70.1465 66.6006C70.4195 65.6258 71.2916 64.9217 72.3166 64.8487L75.6704 64.6094C75.739 64.605 75.7995 64.6556 75.8045 64.7235C75.8095 64.7914 75.7576 64.8505 75.6886 64.8554L72.3347 65.0946C71.4153 65.1601 70.6331 65.7917 70.3882 66.6661L64.0671 89.2429C63.8054 90.1775 63.0043 90.8573 62.0261 90.9749L50.4281 92.3688C50.4231 92.3694 50.418 92.3697 50.4129 92.3697Z" fill="#BFC8D6"/>
<path d="M22.4256 88.9275C25.5558 88.1638 28.335 85.1338 28.7454 82.0336C29.4914 76.3965 23.1669 75.5995 21.1183 71.397C19.4523 67.9794 20.368 63.8632 18.565 60.4871C16.9789 57.5174 13.4653 55.473 10.0267 55.8625C7.06164 56.1983 4.32191 58.5467 3.61048 61.4565C3.08049 63.6244 3.40511 66.7547 4.40661 68.773C5.22501 70.4222 6.31214 71.9055 7.79866 73.031C9.00804 73.9466 10.5385 74.5439 11.4637 75.7821C13.2166 78.1279 12.6867 81.5526 13.5743 84.1768C14.1946 86.0107 15.8369 87.8167 17.6478 88.5661C19.2226 89.2178 20.8756 89.3057 22.4256 88.9275Z" fill="url(#paint84_linear_1870_4690)"/>
<g opacity="0.8">
<path d="M22.5101 88.023C22.4643 88.023 22.4227 87.9924 22.4113 87.9467C22.402 87.9096 21.4605 84.1769 19.565 79.326C17.8167 74.8516 14.876 68.4837 10.7954 63.5567C10.7598 63.5137 10.7664 63.4506 10.81 63.4157C10.8537 63.3806 10.9178 63.3871 10.9533 63.43C15.0516 68.3783 18.0025 74.7679 19.7564 79.2568C21.656 84.1188 22.5998 87.8615 22.6092 87.8987C22.6226 87.9525 22.5892 88.0068 22.5346 88.02C22.5264 88.0221 22.5181 88.023 22.5101 88.023Z" fill="white"/>
</g>
<path d="M16.9632 76.4771C10.6654 70.9632 5.3831 73.4234 4.69543 76.1763C4.01445 78.9026 4.15947 93.107 22.2323 89.2274C22.5538 89.1584 22.7817 88.8757 22.7758 88.5521C22.7433 86.7732 22.2081 81.0691 16.9632 76.4771Z" fill="url(#paint85_linear_1870_4690)"/>
<g opacity="0.8">
<path d="M22.2185 88.6705C22.1828 88.6705 22.1482 88.652 22.1295 88.6192C22.1206 88.6036 21.2141 87.0314 19.1562 84.9697C17.2572 83.0672 13.9613 80.347 9.04387 78.1918C8.99245 78.1692 8.96934 78.11 8.99224 78.0594C9.01514 78.0088 9.07532 77.9861 9.12677 78.0087C14.0774 80.1784 17.3958 82.9188 19.3078 84.8355C21.3822 86.915 22.2982 88.5055 22.3072 88.5212C22.3347 88.5696 22.3173 88.6306 22.2682 88.6577C22.2525 88.6663 22.2353 88.6705 22.2185 88.6705Z" fill="white"/>
<path d="M16.8445 82.8589C16.835 82.8589 16.8254 82.8576 16.8159 82.8549C16.7619 82.8394 16.7309 82.7837 16.7466 82.7306C16.756 82.6988 17.655 79.5283 14.8272 77.4579C14.782 77.4249 14.7727 77.3621 14.8063 77.3177C14.8398 77.2732 14.9037 77.2641 14.9489 77.2971C16.487 78.4233 16.9475 79.8556 17.0629 80.8588C17.1877 81.9443 16.9523 82.7529 16.9422 82.7868C16.9292 82.8305 16.8886 82.8589 16.8445 82.8589Z" fill="white"/>
<path d="M11.4246 82.2036C10.7459 82.2036 9.94473 82.0538 9.0411 81.6257C8.99041 81.6017 8.9691 81.5418 8.99351 81.4919C9.01793 81.442 9.07887 81.4212 9.12953 81.4451C12.3396 82.9659 14.2328 80.8885 14.2515 80.8673C14.2885 80.8256 14.3529 80.8213 14.3953 80.8576C14.4377 80.894 14.4421 80.9573 14.4052 80.999C14.3848 81.022 13.8969 81.5649 12.9881 81.9168C12.5844 82.0732 12.0577 82.2036 11.4246 82.2036Z" fill="white"/>
<path d="M16.7244 86.7479C16.0457 86.7479 15.2445 86.5981 14.3409 86.17C14.2902 86.146 14.2689 86.0861 14.2933 86.0362C14.3177 85.9863 14.3786 85.9654 14.4293 85.9894C17.6394 87.5102 19.5326 85.4327 19.5513 85.4116C19.5883 85.3699 19.6527 85.3656 19.6951 85.4019C19.7375 85.4383 19.742 85.5016 19.705 85.5433C19.6846 85.5663 19.1968 86.1092 18.2879 86.4611C17.8841 86.6175 17.3575 86.7479 16.7244 86.7479Z" fill="white"/>
</g>
<defs>
<linearGradient id="paint0_linear_1870_4690" x1="70.4884" y1="41.3828" x2="78.662" y2="43.9317" gradientUnits="userSpaceOnUse">
<stop stop-color="#FFC444"/>
<stop offset="0.3138" stop-color="#FBA94A"/>
<stop offset="0.9964" stop-color="#F36F56"/>
</linearGradient>
<linearGradient id="paint1_linear_1870_4690" x1="75.668" y1="28.5457" x2="79.2694" y2="29.6688" gradientUnits="userSpaceOnUse">
<stop stop-color="#FFC444"/>
<stop offset="0.3138" stop-color="#FBA94A"/>
<stop offset="0.9964" stop-color="#F36F56"/>
</linearGradient>
<linearGradient id="paint2_linear_1870_4690" x1="72.3965" y1="35.7818" x2="75.5121" y2="36.7534" gradientUnits="userSpaceOnUse">
<stop stop-color="#FFC444"/>
<stop offset="0.3138" stop-color="#FBA94A"/>
<stop offset="0.9964" stop-color="#F36F56"/>
</linearGradient>
<linearGradient id="paint3_linear_1870_4690" x1="70.0483" y1="42.8108" x2="72.2575" y2="43.4997" gradientUnits="userSpaceOnUse">
<stop stop-color="#FFC444"/>
<stop offset="0.3138" stop-color="#FBA94A"/>
<stop offset="0.9964" stop-color="#F36F56"/>
</linearGradient>
<linearGradient id="paint4_linear_1870_4690" x1="68.0534" y1="50.7546" x2="70.8786" y2="51.6356" gradientUnits="userSpaceOnUse">
<stop stop-color="#FFC444"/>
<stop offset="0.3138" stop-color="#FBA94A"/>
<stop offset="0.9964" stop-color="#F36F56"/>
</linearGradient>
<linearGradient id="paint5_linear_1870_4690" x1="67.257" y1="57.4767" x2="69.5981" y2="58.2068" gradientUnits="userSpaceOnUse">
<stop stop-color="#FFC444"/>
<stop offset="0.3138" stop-color="#FBA94A"/>
<stop offset="0.9964" stop-color="#F36F56"/>
</linearGradient>
<linearGradient id="paint6_linear_1870_4690" x1="75.478" y1="42.8915" x2="78.6711" y2="43.8873" gradientUnits="userSpaceOnUse">
<stop stop-color="#FFC444"/>
<stop offset="0.3138" stop-color="#FBA94A"/>
<stop offset="0.9964" stop-color="#F36F56"/>
</linearGradient>
<linearGradient id="paint7_linear_1870_4690" x1="73.0703" y1="49.3089" x2="81.2345" y2="49.3089" gradientUnits="userSpaceOnUse">
<stop offset="0.0036" stop-color="#E38DDD"/>
<stop offset="1" stop-color="#9571F6"/>
</linearGradient>
<linearGradient id="paint8_linear_1870_4690" x1="80.6797" y1="45.66" x2="75.047" y2="51.2732" gradientUnits="userSpaceOnUse">
<stop offset="0.0036" stop-color="#E38DDD"/>
<stop offset="1" stop-color="#9571F6"/>
</linearGradient>
<linearGradient id="paint9_linear_1870_4690" x1="99.4691" y1="33.7471" x2="76.288" y2="44.7129" gradientUnits="userSpaceOnUse">
<stop offset="0.0036" stop-color="#E38DDD"/>
<stop offset="1" stop-color="#9571F6"/>
</linearGradient>
<linearGradient id="paint10_linear_1870_4690" x1="73.2607" y1="43.3348" x2="88.3988" y2="43.3348" gradientUnits="userSpaceOnUse">
<stop offset="0.0036" stop-color="#E38DDD"/>
<stop offset="1" stop-color="#9571F6"/>
</linearGradient>
<linearGradient id="paint11_linear_1870_4690" x1="86.8079" y1="41.5163" x2="79.0013" y2="34.9053" gradientUnits="userSpaceOnUse">
<stop offset="0.0036" stop-color="#E38DDD"/>
<stop offset="1" stop-color="#9571F6"/>
</linearGradient>
<linearGradient id="paint12_linear_1870_4690" x1="84.4634" y1="50.1782" x2="72.7735" y2="40.2787" gradientUnits="userSpaceOnUse">
<stop offset="0.0036" stop-color="#E38DDD"/>
<stop offset="1" stop-color="#9571F6"/>
</linearGradient>
<linearGradient id="paint13_linear_1870_4690" x1="81.3863" y1="50.5303" x2="66.4621" y2="9.05159" gradientUnits="userSpaceOnUse">
<stop stop-color="#FFC444"/>
<stop offset="0.9964" stop-color="#F36F56"/>
</linearGradient>
<linearGradient id="paint14_linear_1870_4690" x1="82.916" y1="42.8835" x2="89.8106" y2="42.8835" gradientUnits="userSpaceOnUse">
<stop offset="0.0036" stop-color="#E38DDD"/>
<stop offset="1" stop-color="#9571F6"/>
</linearGradient>
<linearGradient id="paint15_linear_1870_4690" x1="88.4793" y1="44.899" x2="84.0418" y2="41.1412" gradientUnits="userSpaceOnUse">
<stop offset="0.0036" stop-color="#E38DDD"/>
<stop offset="1" stop-color="#9571F6"/>
</linearGradient>
<linearGradient id="paint16_linear_1870_4690" x1="70.9248" y1="46.3283" x2="79.0282" y2="46.3283" gradientUnits="userSpaceOnUse">
<stop offset="0.0036" stop-color="#E38DDD"/>
<stop offset="1" stop-color="#9571F6"/>
</linearGradient>
<linearGradient id="paint17_linear_1870_4690" x1="76.6262" y1="49.4244" x2="70.9494" y2="44.617" gradientUnits="userSpaceOnUse">
<stop offset="0.0036" stop-color="#E38DDD"/>
<stop offset="1" stop-color="#9571F6"/>
</linearGradient>
<linearGradient id="paint18_linear_1870_4690" x1="76.3017" y1="41.5" x2="85.6496" y2="41.5" gradientUnits="userSpaceOnUse">
<stop offset="0.0036" stop-color="#E38DDD"/>
<stop offset="1" stop-color="#9571F6"/>
</linearGradient>
<linearGradient id="paint19_linear_1870_4690" x1="84.1123" y1="44.0901" x2="77.6093" y2="38.583" gradientUnits="userSpaceOnUse">
<stop offset="0.0036" stop-color="#E38DDD"/>
<stop offset="1" stop-color="#9571F6"/>
</linearGradient>
<linearGradient id="paint20_linear_1870_4690" x1="84.4663" y1="48.5118" x2="79.5138" y2="54.7553" gradientUnits="userSpaceOnUse">
<stop stop-color="#FFC444"/>
<stop offset="0.9964" stop-color="#F36F56"/>
</linearGradient>
<linearGradient id="paint21_linear_1870_4690" x1="62.7294" y1="32.1055" x2="63.534" y2="24.4304" gradientUnits="userSpaceOnUse">
<stop stop-color="#AA80F9"/>
<stop offset="0.9964" stop-color="#6165D7"/>
</linearGradient>
<linearGradient id="paint22_linear_1870_4690" x1="65.4039" y1="48.146" x2="71.8908" y2="48.5094" gradientUnits="userSpaceOnUse">
<stop offset="0.0036" stop-color="#EBEFF2"/>
<stop offset="1" stop-color="white"/>
</linearGradient>
<linearGradient id="paint23_linear_1870_4690" x1="53.9932" y1="46.2019" x2="63.4448" y2="46.2019" gradientUnits="userSpaceOnUse">
<stop stop-color="#AA80F9"/>
<stop offset="0.9964" stop-color="#6165D7"/>
</linearGradient>
<linearGradient id="paint24_linear_1870_4690" x1="56.2745" y1="33.0291" x2="59.369" y2="34.3837" gradientUnits="userSpaceOnUse">
<stop offset="0.0036" stop-color="#EBEFF2"/>
<stop offset="1" stop-color="white"/>
</linearGradient>
<linearGradient id="paint25_linear_1870_4690" x1="54.958" y1="45.9421" x2="58.6899" y2="45.9421" gradientUnits="userSpaceOnUse">
<stop offset="0.0036" stop-color="#EBEFF2"/>
<stop offset="1" stop-color="white"/>
</linearGradient>
<linearGradient id="paint26_linear_1870_4690" x1="54.958" y1="42.9536" x2="58.6899" y2="42.9536" gradientUnits="userSpaceOnUse">
<stop offset="0.0036" stop-color="#EBEFF2"/>
<stop offset="1" stop-color="white"/>
</linearGradient>
<linearGradient id="paint27_linear_1870_4690" x1="54.958" y1="40.5139" x2="58.6899" y2="40.5139" gradientUnits="userSpaceOnUse">
<stop offset="0.0036" stop-color="#EBEFF2"/>
<stop offset="1" stop-color="white"/>
</linearGradient>
<linearGradient id="paint28_linear_1870_4690" x1="54.958" y1="37.2897" x2="58.6899" y2="37.2897" gradientUnits="userSpaceOnUse">
<stop offset="0.0036" stop-color="#EBEFF2"/>
<stop offset="1" stop-color="white"/>
</linearGradient>
<linearGradient id="paint29_linear_1870_4690" x1="65.3978" y1="33.4855" x2="66.0408" y2="27.3521" gradientUnits="userSpaceOnUse">
<stop offset="0.0036" stop-color="#EBEFF2"/>
<stop offset="1" stop-color="white"/>
</linearGradient>
<linearGradient id="paint30_linear_1870_4690" x1="69.7822" y1="37.8385" x2="71.1501" y2="37.8385" gradientUnits="userSpaceOnUse">
<stop stop-color="#311944"/>
<stop offset="1" stop-color="#893976"/>
</linearGradient>
<linearGradient id="paint31_linear_1870_4690" x1="65.1143" y1="44.4554" x2="77.9562" y2="44.4554" gradientUnits="userSpaceOnUse">
<stop stop-color="#FF9085"/>
<stop offset="1" stop-color="#FB6FBB"/>
</linearGradient>
<linearGradient id="paint32_linear_1870_4690" x1="65.1143" y1="45.0746" x2="77.2156" y2="45.0746" gradientUnits="userSpaceOnUse">
<stop stop-color="#FF9085"/>
<stop offset="1" stop-color="#FB6FBB"/>
</linearGradient>
<linearGradient id="paint33_linear_1870_4690" x1="46.1473" y1="29.0582" x2="57.5301" y2="71.5383" gradientUnits="userSpaceOnUse">
<stop stop-color="#FFC444"/>
<stop offset="0.3138" stop-color="#FBA94A"/>
<stop offset="0.9964" stop-color="#F36F56"/>
</linearGradient>
<linearGradient id="paint34_linear_1870_4690" x1="55.854" y1="60.415" x2="45.6981" y2="89.2974" gradientUnits="userSpaceOnUse">
<stop stop-color="#FFC444"/>
<stop offset="0.3138" stop-color="#FBA94A"/>
<stop offset="0.9964" stop-color="#F36F56"/>
</linearGradient>
<linearGradient id="paint35_linear_1870_4690" x1="73.2521" y1="61.0824" x2="59.8523" y2="99.1903" gradientUnits="userSpaceOnUse">
<stop stop-color="#FFC444"/>
<stop offset="0.3138" stop-color="#FBA94A"/>
<stop offset="0.9964" stop-color="#F36F56"/>
</linearGradient>
<linearGradient id="paint36_linear_1870_4690" x1="70.972" y1="66.3187" x2="60.988" y2="94.712" gradientUnits="userSpaceOnUse">
<stop stop-color="#FFC444"/>
<stop offset="0.3138" stop-color="#FBA94A"/>
<stop offset="0.9964" stop-color="#F36F56"/>
</linearGradient>
<linearGradient id="paint37_linear_1870_4690" x1="12.1139" y1="43.8301" x2="89.7435" y2="31.5999" gradientUnits="userSpaceOnUse">
<stop stop-color="#444B8C"/>
<stop offset="0.9964" stop-color="#26264F"/>
</linearGradient>
<linearGradient id="paint38_linear_1870_4690" x1="47.2037" y1="13.9989" x2="-27.2267" y2="170.921" gradientUnits="userSpaceOnUse">
<stop stop-color="#AA80F9"/>
<stop offset="0.9964" stop-color="#6165D7"/>
</linearGradient>
<linearGradient id="paint39_linear_1870_4690" x1="30.3398" y1="23.828" x2="35.9668" y2="23.828" gradientUnits="userSpaceOnUse">
<stop stop-color="#FF9085"/>
<stop offset="1" stop-color="#FB6FBB"/>
</linearGradient>
<linearGradient id="paint40_linear_1870_4690" x1="41.5362" y1="23.828" x2="47.1631" y2="23.828" gradientUnits="userSpaceOnUse">
<stop stop-color="#FF9085"/>
<stop offset="1" stop-color="#FB6FBB"/>
</linearGradient>
<linearGradient id="paint41_linear_1870_4690" x1="52.7412" y1="23.828" x2="58.3682" y2="23.828" gradientUnits="userSpaceOnUse">
<stop stop-color="#FF9085"/>
<stop offset="1" stop-color="#FB6FBB"/>
</linearGradient>
<linearGradient id="paint42_linear_1870_4690" x1="7.27442" y1="14.4176" x2="69.7952" y2="14.4176" gradientUnits="userSpaceOnUse">
<stop stop-color="#FF9085"/>
<stop offset="1" stop-color="#FB6FBB"/>
</linearGradient>
<linearGradient id="paint43_linear_1870_4690" x1="63.9678" y1="25.6817" x2="69.5372" y2="25.6817" gradientUnits="userSpaceOnUse">
<stop stop-color="#FF9085"/>
<stop offset="1" stop-color="#FB6FBB"/>
</linearGradient>
<linearGradient id="paint44_linear_1870_4690" x1="18.6943" y1="60.3061" x2="49.4866" y2="60.3061" gradientUnits="userSpaceOnUse">
<stop stop-color="#FFC444"/>
<stop offset="0.9964" stop-color="#F36F56"/>
</linearGradient>
<linearGradient id="paint45_linear_1870_4690" x1="20.2422" y1="68.9022" x2="50.0032" y2="68.9022" gradientUnits="userSpaceOnUse">
<stop stop-color="#FFC444"/>
<stop offset="0.9964" stop-color="#F36F56"/>
</linearGradient>
<linearGradient id="paint46_linear_1870_4690" x1="19.5342" y1="39.6687" x2="44.7392" y2="39.6687" gradientUnits="userSpaceOnUse">
<stop stop-color="#FFC444"/>
<stop offset="0.9964" stop-color="#F36F56"/>
</linearGradient>
<linearGradient id="paint47_linear_1870_4690" x1="21.5693" y1="45.7054" x2="43.387" y2="45.7054" gradientUnits="userSpaceOnUse">
<stop stop-color="#FFC444"/>
<stop offset="0.9964" stop-color="#F36F56"/>
</linearGradient>
<linearGradient id="paint48_linear_1870_4690" x1="22.2178" y1="36.8272" x2="24.0096" y2="36.8272" gradientUnits="userSpaceOnUse">
<stop stop-color="#FFC444"/>
<stop offset="0.9964" stop-color="#F36F56"/>
</linearGradient>
<linearGradient id="paint49_linear_1870_4690" x1="23.0215" y1="33.4529" x2="30.7589" y2="33.4529" gradientUnits="userSpaceOnUse">
<stop stop-color="#FFC444"/>
<stop offset="0.9964" stop-color="#F36F56"/>
</linearGradient>
<linearGradient id="paint50_linear_1870_4690" x1="40.2178" y1="36.8962" x2="41.835" y2="36.8962" gradientUnits="userSpaceOnUse">
<stop stop-color="#FFC444"/>
<stop offset="0.9964" stop-color="#F36F56"/>
</linearGradient>
<linearGradient id="paint51_linear_1870_4690" x1="32.3896" y1="33.5083" x2="41.08" y2="33.5083" gradientUnits="userSpaceOnUse">
<stop stop-color="#FFC444"/>
<stop offset="0.9964" stop-color="#F36F56"/>
</linearGradient>
<linearGradient id="paint52_linear_1870_4690" x1="75.2359" y1="85.8104" x2="75.7639" y2="95.4718" gradientUnits="userSpaceOnUse">
<stop stop-color="#444B8C"/>
<stop offset="0.9964" stop-color="#26264F"/>
</linearGradient>
<linearGradient id="paint53_linear_1870_4690" x1="75.8125" y1="88.907" x2="76.6294" y2="88.907" gradientUnits="userSpaceOnUse">
<stop stop-color="#FFC444"/>
<stop offset="0.9964" stop-color="#F36F56"/>
</linearGradient>
<linearGradient id="paint54_linear_1870_4690" x1="85.1147" y1="85.2718" x2="85.6427" y2="94.9325" gradientUnits="userSpaceOnUse">
<stop stop-color="#444B8C"/>
<stop offset="0.9964" stop-color="#26264F"/>
</linearGradient>
<linearGradient id="paint55_linear_1870_4690" x1="84.0996" y1="88.4147" x2="85.7242" y2="88.4147" gradientUnits="userSpaceOnUse">
<stop stop-color="#FFC444"/>
<stop offset="0.9964" stop-color="#F36F56"/>
</linearGradient>
<linearGradient id="paint56_linear_1870_4690" x1="72.0592" y1="82.0929" x2="77.45" y2="74.7387" gradientUnits="userSpaceOnUse">
<stop stop-color="#AA80F9"/>
<stop offset="0.9964" stop-color="#6165D7"/>
</linearGradient>
<linearGradient id="paint57_linear_1870_4690" x1="63.7402" y1="47.4631" x2="61.8513" y2="64.3862" gradientUnits="userSpaceOnUse">
<stop stop-color="#FFC444"/>
<stop offset="0.9964" stop-color="#F36F56"/>
</linearGradient>
<linearGradient id="paint58_linear_1870_4690" x1="76.1519" y1="82.9946" x2="88.8512" y2="70.9567" gradientUnits="userSpaceOnUse">
<stop stop-color="#AA80F9"/>
<stop offset="0.9964" stop-color="#6165D7"/>
</linearGradient>
<linearGradient id="paint59_linear_1870_4690" x1="63.4082" y1="56.1614" x2="73.7514" y2="56.1614" gradientUnits="userSpaceOnUse">
<stop offset="0.0036" stop-color="#E38DDD"/>
<stop offset="1" stop-color="#9571F6"/>
</linearGradient>
<linearGradient id="paint60_linear_1870_4690" x1="83.018" y1="50.2883" x2="83.2524" y2="57.9727" gradientUnits="userSpaceOnUse">
<stop stop-color="#444B8C"/>
<stop offset="0.9964" stop-color="#26264F"/>
</linearGradient>
<linearGradient id="paint61_linear_1870_4690" x1="72.7594" y1="82.6061" x2="78.1503" y2="75.252" gradientUnits="userSpaceOnUse">
<stop stop-color="#AA80F9"/>
<stop offset="0.9964" stop-color="#6165D7"/>
</linearGradient>
<linearGradient id="paint62_linear_1870_4690" x1="63.4082" y1="57.4129" x2="73.7514" y2="57.4129" gradientUnits="userSpaceOnUse">
<stop stop-color="#AA80F9"/>
<stop offset="0.9964" stop-color="#6165D7"/>
</linearGradient>
<linearGradient id="paint63_linear_1870_4690" x1="70.5117" y1="62.35" x2="91.1768" y2="62.35" gradientUnits="userSpaceOnUse">
<stop offset="0.0036" stop-color="#E38DDD"/>
<stop offset="1" stop-color="#9571F6"/>
</linearGradient>
<linearGradient id="paint64_linear_1870_4690" x1="81.0402" y1="50.5406" x2="84.0933" y2="69.5186" gradientUnits="userSpaceOnUse">
<stop stop-color="#AA80F9"/>
<stop offset="0.9964" stop-color="#6165D7"/>
</linearGradient>
<linearGradient id="paint65_linear_1870_4690" x1="76.5186" y1="46.2528" x2="74.6297" y2="63.1759" gradientUnits="userSpaceOnUse">
<stop stop-color="#FFC444"/>
<stop offset="0.9964" stop-color="#F36F56"/>
</linearGradient>
<linearGradient id="paint66_linear_1870_4690" x1="75.9299" y1="48.8218" x2="74.041" y2="65.7449" gradientUnits="userSpaceOnUse">
<stop stop-color="#FFC444"/>
<stop offset="0.9964" stop-color="#F36F56"/>
</linearGradient>
<linearGradient id="paint67_linear_1870_4690" x1="75.306" y1="56.4661" x2="75.833" y2="64.4343" gradientUnits="userSpaceOnUse">
<stop stop-color="#311944"/>
<stop offset="0.2251" stop-color="#45204F"/>
<stop offset="1" stop-color="#893976"/>
</linearGradient>
<linearGradient id="paint68_linear_1870_4690" x1="73.6074" y1="56.339" x2="76.9983" y2="56.339" gradientUnits="userSpaceOnUse">
<stop stop-color="#311944"/>
<stop offset="1" stop-color="#893976"/>
</linearGradient>
<linearGradient id="paint69_linear_1870_4690" x1="77.583" y1="49.0058" x2="75.6941" y2="65.9288" gradientUnits="userSpaceOnUse">
<stop stop-color="#FFC444"/>
<stop offset="0.9964" stop-color="#F36F56"/>
</linearGradient>
<linearGradient id="paint70_linear_1870_4690" x1="77.5776" y1="56.4772" x2="85.8203" y2="56.5241" gradientUnits="userSpaceOnUse">
<stop offset="0.0036" stop-color="#E38DDD"/>
<stop offset="1" stop-color="#9571F6"/>
</linearGradient>
<linearGradient id="paint71_linear_1870_4690" x1="39.9182" y1="89.0952" x2="40.4678" y2="89.5649" gradientUnits="userSpaceOnUse">
<stop stop-color="#AA80F9"/>
<stop offset="0.9964" stop-color="#6165D7"/>
</linearGradient>
<linearGradient id="paint72_linear_1870_4690" x1="40.2803" y1="90.1431" x2="42.2944" y2="90.1431" gradientUnits="userSpaceOnUse">
<stop stop-color="#AA80F9"/>
<stop offset="0.9964" stop-color="#6165D7"/>
</linearGradient>
<linearGradient id="paint73_linear_1870_4690" x1="40.8662" y1="90.1689" x2="41.7102" y2="90.1689" gradientUnits="userSpaceOnUse">
<stop stop-color="#40447E"/>
<stop offset="0.9964" stop-color="#3C3B6B"/>
</linearGradient>
<linearGradient id="paint74_linear_1870_4690" x1="50.7024" y1="87.9545" x2="51.252" y2="88.4243" gradientUnits="userSpaceOnUse">
<stop stop-color="#AA80F9"/>
<stop offset="0.9964" stop-color="#6165D7"/>
</linearGradient>
<linearGradient id="paint75_linear_1870_4690" x1="51.0645" y1="88.9981" x2="53.0786" y2="88.9981" gradientUnits="userSpaceOnUse">
<stop stop-color="#AA80F9"/>
<stop offset="0.9964" stop-color="#6165D7"/>
</linearGradient>
<linearGradient id="paint76_linear_1870_4690" x1="51.6406" y1="89.028" x2="52.4846" y2="89.028" gradientUnits="userSpaceOnUse">
<stop stop-color="#40447E"/>
<stop offset="0.9964" stop-color="#3C3B6B"/>
</linearGradient>
<linearGradient id="paint77_linear_1870_4690" x1="66.5332" y1="64.3812" x2="75.9318" y2="64.3812" gradientUnits="userSpaceOnUse">
<stop stop-color="#40447E"/>
<stop offset="0.9964" stop-color="#3C3B6B"/>
</linearGradient>
<linearGradient id="paint78_linear_1870_4690" x1="49.3782" y1="92.6484" x2="49.9278" y2="93.1182" gradientUnits="userSpaceOnUse">
<stop stop-color="#AA80F9"/>
<stop offset="0.9964" stop-color="#6165D7"/>
</linearGradient>
<linearGradient id="paint79_linear_1870_4690" x1="49.7393" y1="93.6969" x2="51.7534" y2="93.6969" gradientUnits="userSpaceOnUse">
<stop stop-color="#AA80F9"/>
<stop offset="0.9964" stop-color="#6165D7"/>
</linearGradient>
<linearGradient id="paint80_linear_1870_4690" x1="50.3281" y1="93.722" x2="51.1721" y2="93.722" gradientUnits="userSpaceOnUse">
<stop stop-color="#40447E"/>
<stop offset="0.9964" stop-color="#3C3B6B"/>
</linearGradient>
<linearGradient id="paint81_linear_1870_4690" x1="58.7073" y1="91.7299" x2="59.2569" y2="92.1997" gradientUnits="userSpaceOnUse">
<stop stop-color="#AA80F9"/>
<stop offset="0.9964" stop-color="#6165D7"/>
</linearGradient>
<linearGradient id="paint82_linear_1870_4690" x1="59.0693" y1="92.7774" x2="61.0835" y2="92.7774" gradientUnits="userSpaceOnUse">
<stop stop-color="#AA80F9"/>
<stop offset="0.9964" stop-color="#6165D7"/>
</linearGradient>
<linearGradient id="paint83_linear_1870_4690" x1="59.6582" y1="92.8032" x2="60.5022" y2="92.8032" gradientUnits="userSpaceOnUse">
<stop stop-color="#40447E"/>
<stop offset="0.9964" stop-color="#3C3B6B"/>
</linearGradient>
<linearGradient id="paint84_linear_1870_4690" x1="8.58799" y1="34.0789" x2="23.5238" y2="113.833" gradientUnits="userSpaceOnUse">
<stop stop-color="#FF9085"/>
<stop offset="1" stop-color="#FB6FBB"/>
</linearGradient>
<linearGradient id="paint85_linear_1870_4690" x1="9.38824" y1="61.5446" x2="17.2136" y2="103.33" gradientUnits="userSpaceOnUse">
<stop stop-color="#FFC444"/>
<stop offset="0.3138" stop-color="#FBA94A"/>
<stop offset="0.9964" stop-color="#F36F56"/>
</linearGradient>
</defs>
</svg>
