<svg width="30" height="30" viewBox="0 0 30 30" fill="none" xmlns="http://www.w3.org/2000/svg">
<g clip-path="url(#clip0_1848_2333)">
<path d="M30.0002 15C30.0002 12.9675 29.1077 11.05 27.594 9.84504C27.769 7.81754 27.044 5.83129 25.6065 4.39254C24.169 2.95629 22.1877 2.22879 20.2602 2.44879C17.7427 -0.74621 12.304 -0.80621 9.84524 2.40504C5.80399 1.92504 1.91774 5.73004 2.45024 9.74004C-0.744761 12.2575 -0.806011 17.6963 2.40649 20.1563C2.23149 22.1838 2.95649 24.17 4.39399 25.6088C5.83149 27.045 7.81524 27.7725 9.74024 27.5525C12.2577 30.7475 17.6965 30.8075 20.1552 27.5963C22.1802 27.77 24.1677 27.0475 25.6065 25.6088C27.0427 24.1713 27.7677 22.1838 27.5502 20.2625C29.1077 18.9525 30.0002 17.035 30.0002 15.0025V15ZM10.0002 11.25C10.0077 9.61504 12.4927 9.61504 12.5002 11.25C12.4927 12.885 10.0077 12.885 10.0002 11.25ZM13.5402 19.4438C13.1552 20.0225 12.374 20.17 11.8065 19.79C11.2315 19.4075 11.0765 18.6313 11.4602 18.0563L16.4602 10.5563C16.8427 9.98254 17.6177 9.82504 18.194 10.21C18.769 10.5925 18.924 11.3688 18.5402 11.9438L13.5402 19.4438ZM18.7502 20C17.1152 19.9925 17.1152 17.5075 18.7502 17.5C20.3852 17.5075 20.3852 19.9925 18.7502 20Z" fill="#1BC469"/>
</g>
<defs>
<clipPath id="clip0_1848_2333">
<rect width="30" height="30" fill="white"/>
</clipPath>
</defs>
</svg>
