<svg width="224" height="449" viewBox="0 0 224 449" fill="none" xmlns="http://www.w3.org/2000/svg">
<g filter="url(#filter0_d_1957_5200)">
<mask id="path-1-inside-1_1957_5200" fill="white">
<path d="M146.839 22.3999C154.824 22.3999 162.022 29.4795 163.211 37.3765L163.361 38.3765C164.584 46.4974 165.195 50.558 168.008 52.979C170.82 55.3999 174.926 55.3999 183.139 55.3999H187.753C189.914 55.3999 191.827 55.3998 193.527 55.3644C197.474 55.2823 201.4 58.4527 201.4 62.3999V386.4C201.4 405.256 201.401 414.685 195.543 420.542C189.685 426.4 180.257 426.4 161.4 426.4H62.4004C43.5442 426.4 34.1157 426.4 28.2578 420.542C22.4 414.685 22.4004 405.256 22.4004 386.4V62.3999C22.4004 43.5443 22.4004 34.1162 28.2578 28.2583C34.1157 22.4004 43.5442 22.3999 62.4004 22.3999H146.839Z"/>
</mask>
<path d="M146.839 22.3999C154.824 22.3999 162.022 29.4795 163.211 37.3765L163.361 38.3765C164.584 46.4974 165.195 50.558 168.008 52.979C170.82 55.3999 174.926 55.3999 183.139 55.3999H187.753C189.914 55.3999 191.827 55.3998 193.527 55.3644C197.474 55.2823 201.4 58.4527 201.4 62.3999V386.4C201.4 405.256 201.401 414.685 195.543 420.542C189.685 426.4 180.257 426.4 161.4 426.4H62.4004C43.5442 426.4 34.1157 426.4 28.2578 420.542C22.4 414.685 22.4004 405.256 22.4004 386.4V62.3999C22.4004 43.5443 22.4004 34.1162 28.2578 28.2583C34.1157 22.4004 43.5442 22.3999 62.4004 22.3999H146.839Z" fill="white"/>
<path d="M163.211 37.3765L164.2 37.2277L164.2 37.2276L163.211 37.3765ZM163.361 38.3765L162.372 38.5252L162.372 38.5253L163.361 38.3765ZM168.008 52.979L167.355 53.7369L167.355 53.7369L168.008 52.979ZM183.139 55.3999V56.3999V55.3999ZM187.753 55.3999V56.3999V55.3999ZM201.4 62.3999H202.4H201.4ZM195.543 420.542L196.25 421.25L195.543 420.542ZM62.4004 426.4V427.4V426.4ZM28.2578 420.542L27.5507 421.25H27.5507L28.2578 420.542ZM22.4004 62.3999H21.4004H22.4004ZM28.2578 28.2583L27.5507 27.5512L27.5507 27.5512L28.2578 28.2583ZM193.527 55.3644L193.507 54.3646L193.527 55.3644ZM163.211 37.3765L162.222 37.5252L162.372 38.5252L163.361 38.3765L164.35 38.2277L164.2 37.2277L163.211 37.3765ZM163.361 38.3765L162.372 38.5253C162.98 42.5601 163.447 45.6789 164.126 48.0864C164.812 50.5209 165.744 52.3495 167.355 53.7369L168.008 52.979L168.66 52.2211C167.459 51.1875 166.679 49.7753 166.051 47.544C165.414 45.2857 164.965 42.3137 164.35 38.2276L163.361 38.3765ZM168.008 52.979L167.355 53.7369C168.967 55.1243 170.914 55.7737 173.424 56.0895C175.905 56.4018 179.058 56.3999 183.139 56.3999V55.3999V54.3999C179.007 54.3999 176.001 54.3981 173.673 54.1051C171.373 53.8157 169.861 53.2546 168.66 52.2211L168.008 52.979ZM183.139 55.3999V56.3999H187.753V55.3999V54.3999H183.139V55.3999ZM187.753 55.3999V56.3999C189.911 56.3999 191.835 56.3998 193.548 56.3642L193.527 55.3644L193.507 54.3646C191.818 54.3998 189.917 54.3999 187.753 54.3999V55.3999ZM201.4 62.3999H200.4V386.4H201.4H202.4V62.3999H201.4ZM201.4 386.4H200.4C200.4 395.856 200.398 402.848 199.677 408.212C198.96 413.548 197.548 417.123 194.836 419.835L195.543 420.542L196.25 421.25C199.396 418.104 200.912 414.036 201.659 408.479C202.403 402.95 202.4 395.8 202.4 386.4H201.4ZM195.543 420.542L194.836 419.835C192.124 422.548 188.548 423.96 183.213 424.677C177.849 425.398 170.857 425.4 161.4 425.4V426.4V427.4C170.8 427.4 177.951 427.402 183.479 426.659C189.037 425.912 193.104 424.395 196.25 421.25L195.543 420.542ZM161.4 426.4V425.4H62.4004V426.4V427.4H161.4V426.4ZM62.4004 426.4V425.4C52.944 425.4 45.9522 425.398 40.588 424.677C35.2524 423.96 31.6771 422.548 28.9649 419.835L28.2578 420.542L27.5507 421.25C30.6964 424.395 34.7642 425.912 40.3215 426.659C45.85 427.402 53.0006 427.4 62.4004 427.4V426.4ZM28.2578 420.542L28.9649 419.835C26.2528 417.123 24.8408 413.548 24.1235 408.212C23.4024 402.848 23.4004 395.856 23.4004 386.4H22.4004H21.4004C21.4004 395.8 21.3982 402.95 22.1414 408.479C22.8884 414.036 24.405 418.104 27.5507 421.25L28.2578 420.542ZM22.4004 386.4H23.4004V62.3999H22.4004H21.4004V386.4H22.4004ZM22.4004 62.3999H23.4004C23.4004 52.9438 23.4025 45.9523 24.1236 40.5882C24.8409 35.2528 26.253 31.6775 28.9649 28.9654L28.2578 28.2583L27.5507 27.5512C24.4052 30.6969 22.8886 34.7646 22.1415 40.3217C21.3983 45.85 21.4004 53.0004 21.4004 62.3999H22.4004ZM28.2578 28.2583L28.9649 28.9654C31.6771 26.2532 35.2525 24.8409 40.588 24.1235C45.9523 23.4022 52.944 23.3999 62.4004 23.3999V22.3999V21.3999C53.0006 21.3999 45.85 21.3979 40.3215 22.1413C34.7642 22.8886 30.6964 24.4055 27.5507 27.5512L28.2578 28.2583ZM62.4004 22.3999V23.3999H146.839V22.3999V21.3999H62.4004V22.3999ZM193.527 55.3644L193.548 56.3642C195.255 56.3287 196.987 57.0005 198.29 58.1275C199.59 59.2521 200.4 60.7712 200.4 62.3999H201.4H202.4C202.4 60.0815 201.248 58.0417 199.598 56.6148C197.951 55.1903 195.746 54.318 193.507 54.3646L193.527 55.3644ZM163.211 37.3765L164.2 37.2276C162.949 28.9153 155.39 21.3999 146.839 21.3999V22.3999V23.3999C154.258 23.3999 161.096 30.0437 162.222 37.5253L163.211 37.3765Z" fill="#F2F2F2" mask="url(#path-1-inside-1_1957_5200)"/>
</g>
<defs>
<filter id="filter0_d_1957_5200" x="0.000391006" y="-9.72748e-05" width="223.8" height="448.8" filterUnits="userSpaceOnUse" color-interpolation-filters="sRGB">
<feFlood flood-opacity="0" result="BackgroundImageFix"/>
<feColorMatrix in="SourceAlpha" type="matrix" values="0 0 0 0 0 0 0 0 0 0 0 0 0 0 0 0 0 0 127 0" result="hardAlpha"/>
<feOffset/>
<feGaussianBlur stdDeviation="11.2"/>
<feComposite in2="hardAlpha" operator="out"/>
<feColorMatrix type="matrix" values="0 0 0 0 0.74902 0 0 0 0 0.74902 0 0 0 0 0.74902 0 0 0 0.25 0"/>
<feBlend mode="normal" in2="BackgroundImageFix" result="effect1_dropShadow_1957_5200"/>
<feBlend mode="normal" in="SourceGraphic" in2="effect1_dropShadow_1957_5200" result="shape"/>
</filter>
</defs>
</svg>
