<svg width="24" height="24" viewBox="0 0 24 24" fill="none" xmlns="http://www.w3.org/2000/svg">
<g clip-path="url(#clip0_1957_5204)">
<path d="M21.5948 7.22324C22.2408 4.32429 20.7578 1.57633 17.7249 0.0533352C17.5699 -0.0246637 17.3859 -0.0166482 17.2379 0.074335C17.0899 0.166349 16.9999 0.327316 16.9999 0.500329V17.5171C16.1749 16.6001 14.9209 16.0001 13.4999 16.0001C11.019 16.0001 9 17.7941 9 20C9 22.206 11.019 23.9999 13.4999 23.9999C15.9809 23.9999 17.9999 22.206 17.9999 20V1.35532C20.1428 2.7113 21.1148 4.77527 20.6179 7.00424L20.5549 7.28624C20.3818 8.03824 20.2029 8.81523 20.3308 9.62822C20.5058 10.7402 21.2788 11.6402 22.3488 11.9762C22.6178 12.0582 22.8938 11.9122 22.9758 11.6492C23.0588 11.3862 22.9118 11.1052 22.6498 11.0222C21.8058 10.7572 21.4088 10.0482 21.3188 9.47325C21.2208 8.85128 21.3708 8.20029 21.5288 7.5103L21.5948 7.22324ZM13.4999 23C11.5699 23 9.99992 21.654 9.99992 20.0001C9.99992 18.3461 11.5699 17.0001 13.4999 17.0001C15.4299 17.0001 16.9999 18.3461 16.9999 20.0001C16.9999 21.654 15.4299 23 13.4999 23Z" fill="url(#paint0_linear_1957_5204)"/>
<path d="M4.50099 4.00026H13.5009C13.7769 4.00026 14.0009 3.77625 14.0009 3.50025C14.0009 3.22426 13.7769 3.00024 13.5009 3.00024H4.50099C4.22499 3.00024 4.00098 3.22426 4.00098 3.50025C4.00098 3.77625 4.22499 4.00026 4.50099 4.00026Z" fill="url(#paint1_linear_1957_5204)"/>
<path d="M1.50099 4.00026H2.50096C2.77695 4.00026 3.00096 3.77625 3.00096 3.50025C3.00096 3.22426 2.77695 3.00024 2.50096 3.00024H1.50099C1.22499 3.00024 1.00098 3.22426 1.00098 3.50025C1.00098 3.77625 1.22499 4.00026 1.50099 4.00026Z" fill="url(#paint2_linear_1957_5204)"/>
<path d="M4.50099 7.00026H13.5009C13.7769 7.00026 14.0009 6.77625 14.0009 6.50025C14.0009 6.22426 13.7769 6.00024 13.5009 6.00024H4.50099C4.22499 6.00024 4.00098 6.22426 4.00098 6.50025C4.00098 6.77625 4.22499 7.00026 4.50099 7.00026Z" fill="url(#paint3_linear_1957_5204)"/>
<path d="M1.50099 7.00026H2.50096C2.77695 7.00026 3.00096 6.77625 3.00096 6.50025C3.00096 6.22426 2.77695 6.00024 2.50096 6.00024H1.50099C1.22499 6.00024 1.00098 6.22426 1.00098 6.50025C1.00098 6.77625 1.22499 7.00026 1.50099 7.00026Z" fill="url(#paint4_linear_1957_5204)"/>
<path d="M4.50099 10.0003H13.5009C13.7769 10.0003 14.0009 9.77625 14.0009 9.50025C14.0009 9.22426 13.7769 9.00024 13.5009 9.00024H4.50099C4.22499 9.00024 4.00098 9.22426 4.00098 9.50025C4.00098 9.77625 4.22499 10.0003 4.50099 10.0003Z" fill="url(#paint5_linear_1957_5204)"/>
<path d="M1.50099 10.0003H2.50096C2.77695 10.0003 3.00096 9.77625 3.00096 9.50025C3.00096 9.22426 2.77695 9.00024 2.50096 9.00024H1.50099C1.22499 9.00024 1.00098 9.22426 1.00098 9.50025C1.00098 9.77625 1.22499 10.0003 1.50099 10.0003Z" fill="url(#paint6_linear_1957_5204)"/>
<path d="M4.50099 13.0003H13.5009C13.7769 13.0003 14.0009 12.7763 14.0009 12.5003C14.0009 12.2243 13.7769 12.0002 13.5009 12.0002H4.50099C4.22499 12.0002 4.00098 12.2243 4.00098 12.5003C4.00098 12.7763 4.22499 13.0003 4.50099 13.0003Z" fill="url(#paint7_linear_1957_5204)"/>
<path d="M1.50099 13.0003H2.50096C2.77695 13.0003 3.00096 12.7763 3.00096 12.5003C3.00096 12.2243 2.77695 12.0002 2.50096 12.0002H1.50099C1.22499 12.0002 1.00098 12.2243 1.00098 12.5003C1.00098 12.7763 1.22499 13.0003 1.50099 13.0003Z" fill="url(#paint8_linear_1957_5204)"/>
</g>
<defs>
<linearGradient id="paint0_linear_1957_5204" x1="10.0915" y1="7.20113" x2="21.2038" y2="18.3165" gradientUnits="userSpaceOnUse">
<stop stop-color="#369CDC"/>
<stop offset="1" stop-color="#AA56D0"/>
</linearGradient>
<linearGradient id="paint1_linear_1957_5204" x1="6.39758" y1="0.89779" x2="11.6045" y2="6.10471" gradientUnits="userSpaceOnUse">
<stop stop-color="#369CDC"/>
<stop offset="1" stop-color="#AA56D0"/>
</linearGradient>
<linearGradient id="paint2_linear_1957_5204" x1="1.39762" y1="2.89776" x2="2.6046" y2="4.10474" gradientUnits="userSpaceOnUse">
<stop stop-color="#369CDC"/>
<stop offset="1" stop-color="#AA56D0"/>
</linearGradient>
<linearGradient id="paint3_linear_1957_5204" x1="6.39758" y1="3.89778" x2="11.6045" y2="9.1047" gradientUnits="userSpaceOnUse">
<stop stop-color="#369CDC"/>
<stop offset="1" stop-color="#AA56D0"/>
</linearGradient>
<linearGradient id="paint4_linear_1957_5204" x1="1.39762" y1="5.89775" x2="2.6046" y2="7.10474" gradientUnits="userSpaceOnUse">
<stop stop-color="#369CDC"/>
<stop offset="1" stop-color="#AA56D0"/>
</linearGradient>
<linearGradient id="paint5_linear_1957_5204" x1="6.39568" y1="6.89798" x2="11.6063" y2="12.1046" gradientUnits="userSpaceOnUse">
<stop stop-color="#369CDC"/>
<stop offset="1" stop-color="#AA56D0"/>
</linearGradient>
<linearGradient id="paint6_linear_1957_5204" x1="1.39612" y1="8.89845" x2="2.6041" y2="10.1023" gradientUnits="userSpaceOnUse">
<stop stop-color="#369CDC"/>
<stop offset="1" stop-color="#AA56D0"/>
</linearGradient>
<linearGradient id="paint7_linear_1957_5204" x1="6.39568" y1="9.89797" x2="11.6063" y2="15.1046" gradientUnits="userSpaceOnUse">
<stop stop-color="#369CDC"/>
<stop offset="1" stop-color="#AA56D0"/>
</linearGradient>
<linearGradient id="paint8_linear_1957_5204" x1="1.39612" y1="11.8984" x2="2.6041" y2="13.1023" gradientUnits="userSpaceOnUse">
<stop stop-color="#369CDC"/>
<stop offset="1" stop-color="#AA56D0"/>
</linearGradient>
<clipPath id="clip0_1957_5204">
<rect width="24" height="24" fill="white"/>
</clipPath>
</defs>
</svg>
