<svg width="214" height="127" viewBox="0 0 214 127" fill="none" xmlns="http://www.w3.org/2000/svg">
<g filter="url(#filter0_d_1957_5216)">
<mask id="path-1-inside-1_1957_5216" fill="white">
<path d="M134.603 22.3999C137.766 22.3999 139.347 22.3999 139.668 22.4206C145.468 22.794 147.241 24.2585 148.704 29.8835C148.785 30.1948 149.17 32.1987 149.941 36.2065C151.055 41.9953 151.612 44.8898 153.334 46.9019C154.084 47.7782 154.98 48.5185 155.982 49.0894C158.284 50.4 161.231 50.3999 167.126 50.3999H180.818C186.218 50.3999 191.397 54.9357 191.4 60.3352C191.4 61.0106 191.4 61.6987 191.4 62.3999V64.3999C191.4 83.256 191.401 92.6846 185.543 98.5425C179.685 104.4 170.257 104.4 151.4 104.4H62.4004C43.5442 104.4 34.1157 104.4 28.2578 98.5425C22.4 92.6846 22.4004 83.256 22.4004 64.3999V62.3999C22.4004 43.5443 22.4004 34.1162 28.2578 28.2583C34.1157 22.4004 43.5442 22.3999 62.4004 22.3999H134.603Z"/>
</mask>
<path d="M134.603 22.3999C137.766 22.3999 139.347 22.3999 139.668 22.4206C145.468 22.794 147.241 24.2585 148.704 29.8835C148.785 30.1948 149.17 32.1987 149.941 36.2065C151.055 41.9953 151.612 44.8898 153.334 46.9019C154.084 47.7782 154.98 48.5185 155.982 49.0894C158.284 50.4 161.231 50.3999 167.126 50.3999H180.818C186.218 50.3999 191.397 54.9357 191.4 60.3352C191.4 61.0106 191.4 61.6987 191.4 62.3999V64.3999C191.4 83.256 191.401 92.6846 185.543 98.5425C179.685 104.4 170.257 104.4 151.4 104.4H62.4004C43.5442 104.4 34.1157 104.4 28.2578 98.5425C22.4 92.6846 22.4004 83.256 22.4004 64.3999V62.3999C22.4004 43.5443 22.4004 34.1162 28.2578 28.2583C34.1157 22.4004 43.5442 22.3999 62.4004 22.3999H134.603Z" fill="white"/>
<path d="M149.941 36.2065L148.959 36.3955L149.941 36.2065ZM153.334 46.9019L152.574 47.552L152.574 47.5521L153.334 46.9019ZM155.982 49.0894L155.487 49.9583L155.488 49.9583L155.982 49.0894ZM167.126 50.3999V51.3999V50.3999ZM191.4 62.3999H192.4H191.4ZM185.543 98.5425L186.25 99.2496V99.2496L185.543 98.5425ZM62.4004 104.4V105.4V104.4ZM28.2578 98.5425L27.5507 99.2496L27.5507 99.2496L28.2578 98.5425ZM22.4004 62.3999H21.4004H22.4004ZM28.2578 28.2583L27.5507 27.5512L27.5507 27.5512L28.2578 28.2583ZM191.4 60.3352L192.4 60.3347L191.4 60.3352ZM148.704 29.8835L149.672 29.6319L148.704 29.8835ZM139.668 22.4206L139.604 23.4185L139.668 22.4206ZM149.941 36.2065L148.959 36.3955C149.513 39.2716 149.94 41.4959 150.449 43.2496C150.964 45.0198 151.585 46.3963 152.574 47.552L153.334 46.9019L154.094 46.2517C153.361 45.3954 152.843 44.3186 152.37 42.6914C151.892 41.0476 151.484 38.9303 150.923 36.0176L149.941 36.2065ZM153.334 46.9019L152.574 47.5521C153.399 48.516 154.385 49.3303 155.487 49.9583L155.982 49.0894L156.477 48.2204C155.575 47.7066 154.769 47.0404 154.094 46.2517L153.334 46.9019ZM155.982 49.0894L155.488 49.9583C156.809 50.7112 158.278 51.0611 160.114 51.2318C161.932 51.4009 164.197 51.3999 167.126 51.3999V50.3999V49.3999C164.16 49.3999 162.004 49.3989 160.299 49.2404C158.612 49.0835 157.457 48.7782 156.477 48.2204L155.982 49.0894ZM167.126 50.3999V51.3999H180.818V50.3999V49.3999H167.126V50.3999ZM191.4 60.3352L190.4 60.3357C190.4 61.0108 190.4 61.6987 190.4 62.3999H191.4H192.4C192.4 61.6987 192.4 61.0104 192.4 60.3347L191.4 60.3352ZM191.4 62.3999H190.4V64.3999H191.4H192.4V62.3999H191.4ZM191.4 64.3999H190.4C190.4 73.8562 190.398 80.848 189.677 86.2123C188.96 91.5478 187.548 95.1232 184.836 97.8354L185.543 98.5425L186.25 99.2496C189.396 96.1039 190.912 92.036 191.659 86.4787C192.403 80.9502 192.4 73.7997 192.4 64.3999H191.4ZM185.543 98.5425L184.836 97.8354C182.124 100.548 178.548 101.96 173.213 102.677C167.849 103.398 160.857 103.4 151.4 103.4V104.4V105.4C160.8 105.4 167.951 105.402 173.479 104.659C179.037 103.912 183.104 102.395 186.25 99.2496L185.543 98.5425ZM151.4 104.4V103.4H62.4004V104.4V105.4H151.4V104.4ZM62.4004 104.4V103.4C52.944 103.4 45.9522 103.398 40.588 102.677C35.2524 101.96 31.6771 100.548 28.9649 97.8354L28.2578 98.5425L27.5507 99.2496C30.6964 102.395 34.7642 103.912 40.3215 104.659C45.85 105.402 53.0006 105.4 62.4004 105.4V104.4ZM28.2578 98.5425L28.9649 97.8354C26.2528 95.1232 24.8408 91.5478 24.1235 86.2123C23.4024 80.848 23.4004 73.8562 23.4004 64.3999H22.4004H21.4004C21.4004 73.7997 21.3982 80.9502 22.1414 86.4787C22.8884 92.036 24.405 96.1039 27.5507 99.2496L28.2578 98.5425ZM22.4004 64.3999H23.4004V62.3999H22.4004H21.4004V64.3999H22.4004ZM22.4004 62.3999H23.4004C23.4004 52.9438 23.4025 45.9523 24.1236 40.5882C24.8409 35.2528 26.253 31.6775 28.9649 28.9654L28.2578 28.2583L27.5507 27.5512C24.4052 30.6969 22.8886 34.7646 22.1415 40.3217C21.3983 45.85 21.4004 53.0004 21.4004 62.3999H22.4004ZM28.2578 28.2583L28.9649 28.9654C31.6771 26.2532 35.2525 24.8409 40.588 24.1235C45.9523 23.4022 52.944 23.3999 62.4004 23.3999V22.3999V21.3999C53.0006 21.3999 45.85 21.3979 40.3215 22.1413C34.7642 22.8886 30.6964 24.4055 27.5507 27.5512L28.2578 28.2583ZM62.4004 22.3999V23.3999H134.603V22.3999V21.3999H62.4004V22.3999ZM180.818 50.3999V51.3999C185.747 51.3999 190.398 55.5665 190.4 60.3357L191.4 60.3352L192.4 60.3347C192.397 54.3049 186.688 49.3999 180.818 49.3999V50.3999ZM149.941 36.2065L150.923 36.0176C150.159 32.0456 149.763 29.9845 149.672 29.6319L148.704 29.8835L147.736 30.1351C147.806 30.405 148.181 32.3518 148.959 36.3955L149.941 36.2065ZM134.603 22.3999V23.3999C137.801 23.3999 139.326 23.4006 139.604 23.4185L139.668 22.4206L139.732 21.4226C139.369 21.3992 137.731 21.3999 134.603 21.3999V22.3999ZM148.704 29.8835L149.672 29.6319C148.932 26.7857 148.059 24.7415 146.449 23.4117C144.839 22.0818 142.667 21.6116 139.732 21.4226L139.668 22.4206L139.604 23.4185C142.469 23.603 144.084 24.0517 145.176 24.9537C146.268 25.8557 147.013 27.3563 147.736 30.1351L148.704 29.8835Z" fill="#F2F2F2" mask="url(#path-1-inside-1_1957_5216)"/>
</g>
<defs>
<filter id="filter0_d_1957_5216" x="0.000391006" y="-9.72748e-05" width="213.8" height="126.8" filterUnits="userSpaceOnUse" color-interpolation-filters="sRGB">
<feFlood flood-opacity="0" result="BackgroundImageFix"/>
<feColorMatrix in="SourceAlpha" type="matrix" values="0 0 0 0 0 0 0 0 0 0 0 0 0 0 0 0 0 0 127 0" result="hardAlpha"/>
<feOffset/>
<feGaussianBlur stdDeviation="11.2"/>
<feComposite in2="hardAlpha" operator="out"/>
<feColorMatrix type="matrix" values="0 0 0 0 0.74902 0 0 0 0 0.74902 0 0 0 0 0.74902 0 0 0 0.25 0"/>
<feBlend mode="normal" in2="BackgroundImageFix" result="effect1_dropShadow_1957_5216"/>
<feBlend mode="normal" in="SourceGraphic" in2="effect1_dropShadow_1957_5216" result="shape"/>
</filter>
</defs>
</svg>
