<svg width="224" height="257" viewBox="0 0 224 257" fill="none" xmlns="http://www.w3.org/2000/svg">
<g filter="url(#filter0_d_1870_736)">
<mask id="path-1-inside-1_1870_736" fill="white">
<path d="M137.458 22.3999C144.196 22.3999 150.033 27.5409 151.299 34.1587L151.873 37.1587C153.36 44.9287 154.104 48.8139 156.877 51.1069C159.65 53.3998 163.606 53.3999 171.517 53.3999H190.753C191.197 53.3999 191.63 53.3999 192.053 53.3995C197.032 53.3955 201.4 57.4208 201.4 62.3999V204.4C201.4 218.542 201.4 225.613 197.007 230.006C192.613 234.4 185.543 234.4 171.4 234.4H52.4004C38.2583 234.4 31.1873 234.4 26.7939 230.006C22.4005 225.613 22.4004 218.542 22.4004 204.4V62.3999C22.4004 43.5437 22.3999 34.1152 28.2578 28.2573C34.1157 22.3995 43.5442 22.3999 62.4004 22.3999H137.458Z"/>
</mask>
<path d="M137.458 22.3999C144.196 22.3999 150.033 27.5409 151.299 34.1587L151.873 37.1587C153.36 44.9287 154.104 48.8139 156.877 51.1069C159.65 53.3998 163.606 53.3999 171.517 53.3999H190.753C191.197 53.3999 191.63 53.3999 192.053 53.3995C197.032 53.3955 201.4 57.4208 201.4 62.3999V204.4C201.4 218.542 201.4 225.613 197.007 230.006C192.613 234.4 185.543 234.4 171.4 234.4H52.4004C38.2583 234.4 31.1873 234.4 26.7939 230.006C22.4005 225.613 22.4004 218.542 22.4004 204.4V62.3999C22.4004 43.5437 22.3999 34.1152 28.2578 28.2573C34.1157 22.3995 43.5442 22.3999 62.4004 22.3999H137.458Z" fill="white"/>
<path d="M151.299 34.1587L150.317 34.3466L150.317 34.3467L151.299 34.1587ZM151.873 37.1587L152.855 36.9708V36.9707L151.873 37.1587ZM156.877 51.1069L156.24 51.8776L156.24 51.8777L156.877 51.1069ZM171.517 53.3999V54.3999V53.3999ZM197.007 230.006L197.714 230.713L197.007 230.006ZM26.7939 230.006L27.5011 229.299L26.7939 230.006ZM151.299 34.1587L150.317 34.3467L150.891 37.3467L151.873 37.1587L152.855 36.9707L152.281 33.9707L151.299 34.1587ZM151.873 37.1587L150.891 37.3466C151.629 41.2068 152.199 44.192 152.941 46.4934C153.691 48.8212 154.651 50.564 156.24 51.8776L156.877 51.1069L157.514 50.3362C156.33 49.3568 155.531 48.0105 154.844 45.8799C154.149 43.723 153.603 40.8806 152.855 36.9708L151.873 37.1587ZM156.877 51.1069L156.24 51.8777C157.829 53.1912 159.721 53.8064 162.148 54.1057C164.548 54.4016 167.586 54.3999 171.517 54.3999V53.3999V52.3999C167.536 52.3999 164.642 52.3981 162.393 52.1208C160.171 51.8468 158.699 51.3155 157.514 50.3362L156.877 51.1069ZM171.517 53.3999V54.3999H190.753V53.3999V52.3999H171.517V53.3999ZM190.753 53.3999V54.3999C191.197 54.3999 191.63 54.3999 192.054 54.3995L192.053 53.3995L192.052 52.3995C191.629 52.3999 191.197 52.3999 190.753 52.3999V53.3999ZM201.4 62.3999H200.4V204.4H201.4H202.4V62.3999H201.4ZM201.4 204.4H200.4C200.4 211.499 200.398 216.723 199.86 220.726C199.326 224.699 198.28 227.319 196.3 229.299L197.007 230.006L197.714 230.713C200.127 228.3 201.278 225.188 201.842 220.992C202.402 216.825 202.4 211.443 202.4 204.4H201.4ZM197.007 230.006L196.3 229.299C194.32 231.279 191.7 232.325 187.726 232.86C183.724 233.398 178.5 233.4 171.4 233.4V234.4V235.4C178.443 235.4 183.826 235.402 187.993 234.842C192.188 234.278 195.3 233.127 197.714 230.713L197.007 230.006ZM171.4 234.4V233.4H52.4004V234.4V235.4H171.4V234.4ZM52.4004 234.4V233.4C45.3011 233.4 40.0772 233.398 36.0746 232.86C32.1009 232.325 29.481 231.279 27.5011 229.299L26.7939 230.006L26.0868 230.713C28.5003 233.127 31.6126 234.278 35.8081 234.842C39.9749 235.402 45.3576 235.4 52.4004 235.4V234.4ZM26.7939 230.006L27.5011 229.299C25.5211 227.319 24.475 224.699 23.9407 220.726C23.4026 216.723 23.4004 211.499 23.4004 204.4H22.4004H21.4004C21.4004 211.443 21.3983 216.825 21.9586 220.992C22.5227 225.188 23.6734 228.3 26.0868 230.713L26.7939 230.006ZM22.4004 204.4H23.4004V62.3999H22.4004H21.4004V204.4H22.4004ZM22.4004 62.3999H23.4004C23.4004 52.9435 23.4024 45.9517 24.1235 40.5875C24.8407 35.252 26.2528 31.6766 28.9649 28.9644L28.2578 28.2573L27.5507 27.5502C24.405 30.6959 22.8883 34.7638 22.1413 40.321C21.3982 45.8495 21.4004 53.0001 21.4004 62.3999H22.4004ZM28.2578 28.2573L28.9649 28.9644C31.6771 26.2523 35.2524 24.8402 40.588 24.123C45.9522 23.4019 52.944 23.3999 62.4004 23.3999V22.3999V21.3999C53.0006 21.3999 45.85 21.3977 40.3215 22.1408C34.7642 22.8879 30.6964 24.4045 27.5507 27.5502L28.2578 28.2573ZM62.4004 22.3999V23.3999H137.458V22.3999V21.3999H62.4004V22.3999ZM192.053 53.3995L192.054 54.3995C196.529 54.3959 200.4 58.0207 200.4 62.3999H201.4H202.4C202.4 56.8209 197.535 52.3951 192.052 52.3995L192.053 53.3995ZM151.299 34.1587L152.281 33.9708C150.931 26.9139 144.708 21.3999 137.458 21.3999V22.3999V23.3999C143.684 23.3999 149.134 28.1679 150.317 34.3466L151.299 34.1587Z" fill="#F2F2F2" mask="url(#path-1-inside-1_1870_736)"/>
</g>
<defs>
<filter id="filter0_d_1870_736" x="0.000391006" y="-9.72748e-05" width="223.8" height="256.8" filterUnits="userSpaceOnUse" color-interpolation-filters="sRGB">
<feFlood flood-opacity="0" result="BackgroundImageFix"/>
<feColorMatrix in="SourceAlpha" type="matrix" values="0 0 0 0 0 0 0 0 0 0 0 0 0 0 0 0 0 0 127 0" result="hardAlpha"/>
<feOffset/>
<feGaussianBlur stdDeviation="11.2"/>
<feComposite in2="hardAlpha" operator="out"/>
<feColorMatrix type="matrix" values="0 0 0 0 0.74902 0 0 0 0 0.74902 0 0 0 0 0.74902 0 0 0 0.25 0"/>
<feBlend mode="normal" in2="BackgroundImageFix" result="effect1_dropShadow_1870_736"/>
<feBlend mode="normal" in="SourceGraphic" in2="effect1_dropShadow_1870_736" result="shape"/>
</filter>
</defs>
</svg>
