<svg width="45" height="52" viewBox="0 0 45 52" fill="none" xmlns="http://www.w3.org/2000/svg">
<path d="M22.0293 16.0121C16.5935 16.0121 12.1714 20.4343 12.1714 25.8695C12.1714 31.3054 16.5935 35.7275 22.0293 35.7275C27.4648 35.7275 31.8867 31.3054 31.8867 25.8696C31.8867 20.4342 27.4648 16.0121 22.0293 16.0121ZM27.8819 24.0133L20.8198 31.0752C20.679 31.2164 20.5116 31.3284 20.3274 31.4048C20.1431 31.4812 19.9456 31.5204 19.7462 31.5201C19.5468 31.5204 19.3493 31.4812 19.1652 31.4049C18.981 31.3285 18.8137 31.2165 18.673 31.0752L15.9742 28.3765C15.3813 27.784 15.3813 26.8229 15.9742 26.23C16.5666 25.6371 17.5278 25.6371 18.1207 26.23L19.7462 27.8555L25.7354 21.8668C26.3278 21.2738 27.289 21.2738 27.8819 21.8668C28.4747 22.4592 28.4747 23.4204 27.8819 24.0133Z" fill="#1BC469"/>
<path d="M44.0058 14.0377L44.0043 13.9975C43.9808 13.4619 43.9653 12.9259 43.9577 12.3898C43.9155 9.53709 41.6477 7.17738 38.7947 7.01803C32.8462 6.68598 28.2445 4.74633 24.3127 0.913928L24.2792 0.881996C22.9966 -0.293917 21.0621 -0.293917 19.7792 0.881996L19.7457 0.913928C15.8138 4.74633 11.2121 6.68598 5.26365 7.01833C2.41102 7.17738 0.142864 9.53719 0.100625 12.3901C0.0932112 12.9261 0.0777152 13.462 0.0541422 13.9975L0.051717 14.091C-0.0639847 20.1568 -0.207677 27.7059 2.31775 34.5579C3.70648 38.326 5.80952 41.6013 8.56827 44.2938C11.7103 47.36 15.8256 49.7943 20.8 51.5287C20.9638 51.5857 21.1312 51.6313 21.3012 51.6652C21.5428 51.7135 21.7861 51.7375 22.0292 51.7375C22.2723 51.7375 22.5158 51.7135 22.757 51.6652C22.9277 51.6311 23.0959 51.5851 23.2603 51.5278C28.2287 49.7903 32.3398 47.3549 35.479 44.289C38.2366 41.5959 40.3397 38.3196 41.7295 34.5508C44.2644 27.6782 44.1211 20.1149 44.0058 14.0377ZM22.0284 38.7632C14.9185 38.7632 9.13465 32.9794 9.13465 25.8696C9.13465 18.7598 14.9186 12.9759 22.0284 12.9759C29.1378 12.9759 34.9221 18.7598 34.9221 25.8696C34.9221 32.9795 29.1378 38.7632 22.0284 38.7632Z" fill="#1BC469"/>
</svg>
