<svg width="224" height="127" viewBox="0 0 224 127" fill="none" xmlns="http://www.w3.org/2000/svg">
<g filter="url(#filter0_d_1892_3624)">
<mask id="path-1-inside-1_1892_3624" fill="white">
<path d="M161.4 22.3999C166.001 22.3999 169.942 26.7734 170.469 31.3439C170.629 32.736 170.827 34.2731 171.046 35.979L171.386 38.6245C172.245 45.3089 172.675 48.6515 174.633 50.9253C175.236 51.6257 175.934 52.2387 176.705 52.7476C179.21 54.3995 182.58 54.3999 189.319 54.3999C190.477 54.3999 191.546 54.3999 192.536 54.3929C196.9 54.362 201.4 58.0356 201.4 62.3999V64.3999C201.4 83.256 201.401 92.6846 195.543 98.5425C189.685 104.4 180.257 104.4 161.4 104.4H62.4004C43.5442 104.4 34.1157 104.4 28.2578 98.5425C22.4 92.6846 22.4004 83.256 22.4004 64.3999V62.3999C22.4004 43.5443 22.4004 34.1162 28.2578 28.2583C34.1157 22.4004 43.5442 22.3999 62.4004 22.3999H161.4Z"/>
</mask>
<path d="M161.4 22.3999C166.001 22.3999 169.942 26.7734 170.469 31.3439C170.629 32.736 170.827 34.2731 171.046 35.979L171.386 38.6245C172.245 45.3089 172.675 48.6515 174.633 50.9253C175.236 51.6257 175.934 52.2387 176.705 52.7476C179.21 54.3995 182.58 54.3999 189.319 54.3999C190.477 54.3999 191.546 54.3999 192.536 54.3929C196.9 54.362 201.4 58.0356 201.4 62.3999V64.3999C201.4 83.256 201.401 92.6846 195.543 98.5425C189.685 104.4 180.257 104.4 161.4 104.4H62.4004C43.5442 104.4 34.1157 104.4 28.2578 98.5425C22.4 92.6846 22.4004 83.256 22.4004 64.3999V62.3999C22.4004 43.5443 22.4004 34.1162 28.2578 28.2583C34.1157 22.4004 43.5442 22.3999 62.4004 22.3999H161.4Z" fill="white"/>
<path d="M171.046 35.979L172.038 35.8516L172.038 35.8515L171.046 35.979ZM171.386 38.6245L170.394 38.7519L170.394 38.752L171.386 38.6245ZM174.633 50.9253L173.875 51.5778L173.875 51.5778L174.633 50.9253ZM176.705 52.7476L176.154 53.5823L176.155 53.5824L176.705 52.7476ZM189.319 54.3999V55.3999V54.3999ZM201.4 62.3999H202.4H201.4ZM195.543 98.5425L196.25 99.2496V99.2496L195.543 98.5425ZM62.4004 104.4V105.4V104.4ZM28.2578 98.5425L27.5507 99.2496L27.5507 99.2496L28.2578 98.5425ZM22.4004 62.3999H21.4004H22.4004ZM28.2578 28.2583L27.5507 27.5512L27.5507 27.5512L28.2578 28.2583ZM170.469 31.3439L169.475 31.4584L170.469 31.3439ZM170.469 31.3439L169.475 31.4584C169.637 32.8582 169.835 34.4023 170.054 36.1065L171.046 35.979L172.038 35.8515C171.818 34.1439 171.622 32.6137 171.462 31.2294L170.469 31.3439ZM171.046 35.979L170.054 36.1064L170.394 38.7519L171.386 38.6245L172.378 38.4971L172.038 35.8516L171.046 35.979ZM171.386 38.6245L170.394 38.752C170.821 42.0734 171.15 44.6403 171.624 46.6577C172.103 48.694 172.75 50.2714 173.875 51.5778L174.633 50.9253L175.391 50.2728C174.558 49.3054 174.011 48.0746 173.571 46.2001C173.126 44.3066 172.81 41.86 172.378 38.497L171.386 38.6245ZM174.633 50.9253L173.875 51.5778C174.539 52.3485 175.306 53.0228 176.154 53.5823L176.705 52.7476L177.256 51.9128C176.561 51.4546 175.933 50.9028 175.391 50.2728L174.633 50.9253ZM176.705 52.7476L176.155 53.5824C177.594 54.5315 179.241 54.9728 181.321 55.1879C183.383 55.401 185.971 55.3999 189.319 55.3999V54.3999V53.3999C185.929 53.3999 183.462 53.3986 181.527 53.1985C179.612 53.0005 178.321 52.6156 177.256 51.9128L176.705 52.7476ZM189.319 54.3999V55.3999C190.476 55.3999 191.549 55.3999 192.543 55.3928L192.536 54.3929L192.529 53.3929C191.543 53.3999 190.478 53.3999 189.319 53.3999V54.3999ZM201.4 62.3999H200.4V64.3999H201.4H202.4V62.3999H201.4ZM201.4 64.3999H200.4C200.4 73.8562 200.398 80.848 199.677 86.2123C198.96 91.5478 197.548 95.1232 194.836 97.8354L195.543 98.5425L196.25 99.2496C199.396 96.1039 200.912 92.036 201.659 86.4787C202.403 80.9502 202.4 73.7997 202.4 64.3999H201.4ZM195.543 98.5425L194.836 97.8354C192.124 100.548 188.548 101.96 183.213 102.677C177.849 103.398 170.857 103.4 161.4 103.4V104.4V105.4C170.8 105.4 177.951 105.402 183.479 104.659C189.037 103.912 193.104 102.395 196.25 99.2496L195.543 98.5425ZM161.4 104.4V103.4H62.4004V104.4V105.4H161.4V104.4ZM62.4004 104.4V103.4C52.944 103.4 45.9522 103.398 40.588 102.677C35.2524 101.96 31.6771 100.548 28.9649 97.8354L28.2578 98.5425L27.5507 99.2496C30.6964 102.395 34.7642 103.912 40.3215 104.659C45.85 105.402 53.0006 105.4 62.4004 105.4V104.4ZM28.2578 98.5425L28.9649 97.8354C26.2528 95.1232 24.8408 91.5478 24.1235 86.2123C23.4024 80.848 23.4004 73.8562 23.4004 64.3999H22.4004H21.4004C21.4004 73.7997 21.3982 80.9502 22.1414 86.4787C22.8884 92.036 24.405 96.1039 27.5507 99.2496L28.2578 98.5425ZM22.4004 64.3999H23.4004V62.3999H22.4004H21.4004V64.3999H22.4004ZM22.4004 62.3999H23.4004C23.4004 52.9438 23.4025 45.9523 24.1236 40.5882C24.8409 35.2528 26.253 31.6775 28.9649 28.9654L28.2578 28.2583L27.5507 27.5512C24.4052 30.6969 22.8886 34.7646 22.1415 40.3217C21.3983 45.85 21.4004 53.0004 21.4004 62.3999H22.4004ZM28.2578 28.2583L28.9649 28.9654C31.6771 26.2532 35.2525 24.8409 40.588 24.1235C45.9523 23.4022 52.944 23.3999 62.4004 23.3999V22.3999V21.3999C53.0006 21.3999 45.85 21.3979 40.3215 22.1413C34.7642 22.8886 30.6964 24.4055 27.5507 27.5512L28.2578 28.2583ZM62.4004 22.3999V23.3999H161.4V22.3999V21.3999H62.4004V22.3999ZM192.536 54.3929L192.543 55.3928C194.453 55.3793 196.438 56.1828 197.947 57.5012C199.454 58.8187 200.4 60.5712 200.4 62.3999H201.4H202.4C202.4 59.8643 201.097 57.5979 199.263 55.9953C197.43 54.3935 194.983 53.3755 192.529 53.3929L192.536 54.3929ZM161.4 22.3999V23.3999C163.375 23.3999 165.266 24.3406 166.747 25.8567C168.229 27.3742 169.239 29.4086 169.475 31.4584L170.469 31.3439L171.462 31.2294C171.171 28.7087 169.947 26.2711 168.178 24.4592C166.406 22.646 164.026 21.3999 161.4 21.3999V22.3999Z" fill="#F2F2F2" mask="url(#path-1-inside-1_1892_3624)"/>
</g>
<defs>
<filter id="filter0_d_1892_3624" x="0.000391006" y="-9.72748e-05" width="223.8" height="126.8" filterUnits="userSpaceOnUse" color-interpolation-filters="sRGB">
<feFlood flood-opacity="0" result="BackgroundImageFix"/>
<feColorMatrix in="SourceAlpha" type="matrix" values="0 0 0 0 0 0 0 0 0 0 0 0 0 0 0 0 0 0 127 0" result="hardAlpha"/>
<feOffset/>
<feGaussianBlur stdDeviation="11.2"/>
<feComposite in2="hardAlpha" operator="out"/>
<feColorMatrix type="matrix" values="0 0 0 0 0.74902 0 0 0 0 0.74902 0 0 0 0 0.74902 0 0 0 0.25 0"/>
<feBlend mode="normal" in2="BackgroundImageFix" result="effect1_dropShadow_1892_3624"/>
<feBlend mode="normal" in="SourceGraphic" in2="effect1_dropShadow_1892_3624" result="shape"/>
</filter>
</defs>
</svg>
