<svg width="18" height="18" viewBox="0 0 18 18" fill="none" xmlns="http://www.w3.org/2000/svg">
<path d="M10.6563 0.0144855C10.5464 -0.00573975 10.4334 -0.00155277 10.3253 0.0267499C10.2172 0.0550525 10.1166 0.106778 10.0307 0.178264C9.94485 0.249749 9.87573 0.339244 9.82828 0.440411C9.78083 0.541578 9.75621 0.651941 9.75616 0.763682V2.95792C8.48463 2.79024 7.19253 3.02509 6.06134 3.62949C4.93015 4.23388 4.01671 5.17745 3.44933 6.32766C2.88196 7.47786 2.68916 8.77691 2.898 10.0423C3.10685 11.3077 3.70686 12.4759 4.61375 13.3828C5.52064 14.2897 6.68883 14.8897 7.95424 15.0986C9.21966 15.3074 10.5187 15.1146 11.6689 14.5472C12.8191 13.9799 13.7627 13.0664 14.3671 11.9352C14.9715 10.804 15.2063 9.51193 15.0386 8.24041H17.2382C17.35 8.24035 17.4603 8.21573 17.5615 8.16828C17.6627 8.12083 17.7521 8.05171 17.8236 7.96583C17.8951 7.87995 17.9468 7.77939 17.9751 7.6713C18.0035 7.5632 18.0076 7.4502 17.9874 7.3403C17.6453 5.52296 16.7624 3.85127 15.4543 2.54412C14.1462 1.23696 12.4739 0.355273 10.6563 0.0144855ZM12.0426 9.76471H10.3072C10.1908 9.96686 10.0294 10.1395 9.8356 10.2693C9.64177 10.399 9.42067 10.4824 9.18942 10.513C8.95818 10.5436 8.723 10.5205 8.5021 10.4456C8.28119 10.3707 8.0805 10.2459 7.91556 10.081C7.75062 9.91606 7.62587 9.71537 7.55095 9.49447C7.47604 9.27357 7.45298 9.03838 7.48356 8.80714C7.51414 8.5759 7.59754 8.35479 7.7273 8.16096C7.85707 7.96713 8.02971 7.80576 8.23185 7.68937V5.19179C8.23185 4.98966 8.31215 4.7958 8.45508 4.65287C8.59801 4.50994 8.79187 4.42964 8.994 4.42964C9.19614 4.42964 9.38999 4.50994 9.53293 4.65287C9.67586 4.7958 9.75616 4.98966 9.75616 5.19179V7.68937C9.98448 7.8222 10.1744 8.01209 10.3072 8.24041H12.0426C12.2448 8.24041 12.4386 8.32071 12.5815 8.46364C12.7245 8.60657 12.8048 8.80042 12.8048 9.00256C12.8048 9.2047 12.7245 9.39855 12.5815 9.54148C12.4386 9.68442 12.2448 9.76471 12.0426 9.76471ZM2.12395 3.6431C2.2719 3.67123 2.40819 3.74255 2.51564 3.84807C2.62308 3.95359 2.69686 4.08858 2.72765 4.23599C2.75844 4.38341 2.74487 4.53664 2.68866 4.67635C2.63244 4.81606 2.5361 4.93598 2.41178 5.02098C2.28747 5.10598 2.14076 5.15225 1.99017 5.15394C1.83959 5.15564 1.69188 5.11268 1.56568 5.0305C1.43949 4.94832 1.34047 4.83059 1.28112 4.69219C1.22178 4.55378 1.20476 4.40089 1.23223 4.25282C1.25054 4.15413 1.28816 4.06003 1.34294 3.97592C1.39771 3.89181 1.46856 3.81935 1.55142 3.7627C1.63427 3.70604 1.7275 3.66631 1.82575 3.64579C1.92401 3.62527 2.02534 3.62435 2.12395 3.6431ZM0.904506 6.6818C1.05245 6.70993 1.18875 6.78126 1.29619 6.88678C1.40364 6.9923 1.47741 7.12729 1.5082 7.2747C1.539 7.42211 1.52543 7.57535 1.46921 7.71505C1.413 7.85476 1.31665 7.97469 1.19234 8.05969C1.06802 8.14469 0.921315 8.19096 0.770729 8.19265C0.620143 8.19434 0.472431 8.15139 0.346236 8.06921C0.220041 7.98703 0.121022 7.8693 0.0616757 7.73089C0.00232962 7.59248 -0.0146826 7.4396 0.0127863 7.29153C0.0311083 7.19307 0.0686551 7.09919 0.12328 7.01525C0.177906 6.93131 0.248538 6.85896 0.331141 6.80233C0.413743 6.74571 0.506696 6.70592 0.604685 6.68524C0.702674 6.66455 0.803779 6.66339 0.902219 6.6818H0.904506ZM7.56725 16.4892C7.71532 16.5175 7.85166 16.5891 7.95903 16.6949C8.06641 16.8007 8.13999 16.936 8.17047 17.0837C8.20096 17.2313 8.18698 17.3846 8.1303 17.5243C8.07362 17.664 7.97678 17.7838 7.85204 17.8684C7.7273 17.9531 7.58026 17.9988 7.42952 17.9999C7.27877 18.001 7.13109 17.9573 7.00515 17.8745C6.87922 17.7916 6.78068 17.6733 6.72201 17.5344C6.66333 17.3955 6.64716 17.2424 6.67553 17.0943C6.71359 16.8963 6.82855 16.7215 6.99526 16.6081C7.16196 16.4946 7.36681 16.4519 7.56496 16.4892H7.56725ZM4.42718 1.30481C4.57512 1.33294 4.71142 1.40426 4.81886 1.50979C4.92631 1.61531 5.00008 1.75029 5.03088 1.89771C5.06167 2.04512 5.0481 2.19835 4.99189 2.33806C4.93567 2.47777 4.83932 2.59769 4.71501 2.6827C4.5907 2.7677 4.44399 2.81396 4.2934 2.81566C4.14282 2.81735 3.9951 2.7744 3.86891 2.69222C3.74271 2.61003 3.64369 2.49231 3.58435 2.3539C3.525 2.21549 3.50799 2.0626 3.53546 1.91453C3.55377 1.81585 3.59139 1.72174 3.64616 1.63763C3.70094 1.55353 3.77179 1.48106 3.85464 1.42441C3.9375 1.36776 4.03073 1.32803 4.12898 1.3075C4.22723 1.28698 4.32857 1.28606 4.42718 1.30481ZM7.60841 0.0160098C7.75611 0.0467691 7.89137 0.120677 7.99704 0.22837C8.10271 0.336063 8.17404 0.472696 8.20199 0.620961C8.22994 0.769226 8.21325 0.922451 8.15405 1.06123C8.09485 1.2 7.99578 1.31808 7.86942 1.40051C7.74305 1.48294 7.59505 1.52601 7.44419 1.52426C7.29332 1.52251 7.14637 1.47602 7.02194 1.39068C6.89752 1.30535 6.80122 1.185 6.74525 1.04489C6.68928 0.904778 6.67616 0.751207 6.70754 0.60363C6.74947 0.40646 6.8678 0.23393 7.03664 0.123801C7.20547 0.0136717 7.41106 -0.0250862 7.60841 0.0160098ZM0.0265051 10.5619C0.0546327 10.414 0.125959 10.2777 0.23148 10.1702C0.337002 10.0628 0.471988 9.98902 0.619402 9.95823C0.766815 9.92743 0.920047 9.941 1.05976 9.99722C1.19947 10.0534 1.31939 10.1498 1.40439 10.2741C1.48939 10.3984 1.53566 10.5451 1.53735 10.6957C1.53905 10.8463 1.49609 10.994 1.41391 11.1202C1.33173 11.2464 1.214 11.3454 1.07559 11.4048C0.937185 11.4641 0.784297 11.4811 0.636228 11.4536C0.537539 11.4353 0.443438 11.3977 0.359329 11.3429C0.275219 11.2882 0.202757 11.2173 0.146104 11.1345C0.0894504 11.0516 0.049721 10.9584 0.0291968 10.8601C0.0086726 10.7619 0.00775785 10.6605 0.0265051 10.5619ZM1.30768 13.5823C1.33581 13.4344 1.40714 13.2981 1.51266 13.1907C1.61818 13.0832 1.75317 13.0094 1.90058 12.9786C2.04799 12.9478 2.20123 12.9614 2.34094 13.0176C2.48064 13.0739 2.60057 13.1702 2.68557 13.2945C2.77057 13.4188 2.81684 13.5655 2.81853 13.7161C2.82023 13.8667 2.77727 14.0144 2.69509 14.1406C2.61291 14.2668 2.49518 14.3658 2.35677 14.4252C2.21836 14.4845 2.06548 14.5015 1.91741 14.4741C1.81872 14.4558 1.72462 14.4181 1.64051 14.3634C1.5564 14.3086 1.48394 14.2377 1.42728 14.1549C1.37063 14.072 1.3309 13.9788 1.31038 13.8805C1.28985 13.7823 1.28894 13.6809 1.30768 13.5823ZM3.63378 15.8619C3.6619 15.714 3.73323 15.5777 3.83875 15.4703C3.94427 15.3628 4.07926 15.289 4.22667 15.2582C4.37409 15.2274 4.52732 15.241 4.66703 15.2972C4.80674 15.3535 4.92666 15.4498 5.01166 15.5741C5.09666 15.6984 5.14293 15.8451 5.14462 15.9957C5.14632 16.1463 5.10336 16.294 5.02118 16.4202C4.939 16.5464 4.82127 16.6454 4.68287 16.7048C4.54446 16.7641 4.39157 16.7811 4.2435 16.7537C4.14481 16.7354 4.05071 16.6977 3.9666 16.643C3.88249 16.5882 3.81003 16.5173 3.75338 16.4345C3.69672 16.3516 3.65699 16.2584 3.63647 16.1601C3.61594 16.0619 3.61503 15.9605 3.63378 15.8619ZM15.8641 14.3628C15.7161 14.3347 15.5798 14.2633 15.4724 14.1578C15.3649 14.0523 15.2911 13.9173 15.2604 13.7699C15.2296 13.6225 15.2431 13.4692 15.2993 13.3295C15.3556 13.1898 15.4519 13.0699 15.5762 12.9849C15.7005 12.8999 15.8472 12.8536 15.9978 12.8519C16.1484 12.8502 16.2961 12.8932 16.4223 12.9754C16.5485 13.0576 16.6475 13.1753 16.7069 13.3137C16.7662 13.4521 16.7832 13.605 16.7558 13.7531C16.7374 13.8517 16.6997 13.9457 16.6449 14.0297C16.5901 14.1137 16.5192 14.1861 16.4364 14.2427C16.3535 14.2993 16.2603 14.3389 16.1621 14.3594C16.0639 14.3799 15.9626 14.3808 15.8641 14.362V14.3628ZM13.5608 16.7003C13.4129 16.6722 13.2766 16.6009 13.1691 16.4953C13.0617 16.3898 12.9879 16.2548 12.9571 16.1074C12.9263 15.96 12.9399 15.8068 12.9961 15.6671C13.0523 15.5273 13.1487 15.4074 13.273 15.3224C13.3973 15.2374 13.544 15.1912 13.6946 15.1895C13.8452 15.1878 13.9929 15.2307 14.1191 15.3129C14.2453 15.3951 14.3443 15.5128 14.4037 15.6512C14.463 15.7896 14.48 15.9425 14.4525 16.0906C14.4342 16.1893 14.3966 16.2834 14.3418 16.3675C14.2871 16.4516 14.2162 16.5241 14.1334 16.5807C14.0505 16.6374 13.9573 16.6771 13.859 16.6976C13.7608 16.7181 13.6594 16.7191 13.5608 16.7003ZM10.5587 17.9624C10.4107 17.9341 10.2743 17.8626 10.1669 17.7568C10.0596 17.6511 9.98594 17.5158 9.9554 17.3682C9.92486 17.2206 9.93878 17.0673 9.99538 16.9276C10.052 16.7879 10.1487 16.6681 10.2734 16.5834C10.3981 16.4987 10.5451 16.4529 10.6958 16.4517C10.8465 16.4505 10.9942 16.4941 11.1202 16.5768C11.2461 16.6595 11.3448 16.7778 11.4035 16.9166C11.4623 17.0554 11.4786 17.2085 11.4504 17.3565C11.4119 17.5546 11.2963 17.7293 11.1292 17.8423C10.962 17.9553 10.7569 17.9974 10.5587 17.9594V17.9624ZM17.9203 10.5269C17.9203 10.6776 17.8756 10.825 17.7919 10.9503C17.7082 11.0756 17.5891 11.1733 17.4499 11.231C17.3106 11.2887 17.1573 11.3038 17.0095 11.2744C16.8617 11.245 16.7259 11.1724 16.6193 11.0658C16.5127 10.9592 16.4401 10.8234 16.4107 10.6756C16.3813 10.5277 16.3964 10.3745 16.4541 10.2352C16.5117 10.0959 16.6094 9.97691 16.7348 9.89316C16.8601 9.80941 17.0075 9.76471 17.1582 9.76471C17.3603 9.76471 17.5542 9.84501 17.6971 9.98794C17.84 10.1309 17.9203 10.3247 17.9203 10.5269Z" fill="#F3B811"/>
</svg>
