<svg width="224" height="168" viewBox="0 0 224 168" fill="none" xmlns="http://www.w3.org/2000/svg">
<g filter="url(#filter0_d_1870_680)">
<mask id="path-1-inside-1_1870_680" fill="white">
<path d="M161.4 22.3999C165.952 22.3999 169.832 26.7248 170.312 31.251C170.46 32.6509 170.645 34.1971 170.85 35.9136L171.52 41.5298C172.317 48.2124 172.717 51.5542 174.643 53.8413C175.266 54.5815 175.994 55.2271 176.803 55.7583C179.302 57.3994 182.667 57.3999 189.396 57.3999C191.808 57.3999 193.832 57.3998 195.556 57.3362C198.438 57.2299 201.4 59.5153 201.4 62.3999V105.4C201.4 124.256 201.401 133.685 195.543 139.542C189.685 145.4 180.257 145.4 161.4 145.4H62.4004C43.5442 145.4 34.1157 145.4 28.2578 139.542C22.4 133.685 22.4004 124.256 22.4004 105.4V62.3999C22.4004 43.5443 22.4004 34.1162 28.2578 28.2583C34.1157 22.4004 43.5442 22.3999 62.4004 22.3999H161.4Z"/>
</mask>
<path d="M161.4 22.3999C165.952 22.3999 169.832 26.7248 170.312 31.251C170.46 32.6509 170.645 34.1971 170.85 35.9136L171.52 41.5298C172.317 48.2124 172.717 51.5542 174.643 53.8413C175.266 54.5815 175.994 55.2271 176.803 55.7583C179.302 57.3994 182.667 57.3999 189.396 57.3999C191.808 57.3999 193.832 57.3998 195.556 57.3362C198.438 57.2299 201.4 59.5153 201.4 62.3999V105.4C201.4 124.256 201.401 133.685 195.543 139.542C189.685 145.4 180.257 145.4 161.4 145.4H62.4004C43.5442 145.4 34.1157 145.4 28.2578 139.542C22.4 133.685 22.4004 124.256 22.4004 105.4V62.3999C22.4004 43.5443 22.4004 34.1162 28.2578 28.2583C34.1157 22.4004 43.5442 22.3999 62.4004 22.3999H161.4Z" fill="white"/>
<path d="M161.4 22.3999V21.3999V22.3999ZM170.85 35.9136L171.843 35.7951L171.843 35.795L170.85 35.9136ZM171.52 41.5298L170.527 41.6482L170.527 41.6483L171.52 41.5298ZM174.643 53.8413L173.878 54.4854L173.878 54.4855L174.643 53.8413ZM176.803 55.7583L176.254 56.5942L176.254 56.5942L176.803 55.7583ZM189.396 57.3999V58.3999V57.3999ZM201.4 62.3999H202.4H201.4ZM195.543 139.542L196.25 140.25V140.25L195.543 139.542ZM62.4004 145.4V146.4V145.4ZM28.2578 139.542L27.5507 140.25L27.5507 140.25L28.2578 139.542ZM22.4004 62.3999H21.4004H22.4004ZM28.2578 28.2583L27.5507 27.5512L27.5507 27.5512L28.2578 28.2583ZM195.556 57.3362L195.519 56.3369L195.556 57.3362ZM170.312 31.251L171.306 31.1455L170.312 31.251ZM170.312 31.251L169.317 31.3565C169.466 32.7642 169.652 34.3174 169.857 36.0321L170.85 35.9136L171.843 35.795C171.637 34.0768 171.454 32.5376 171.306 31.1455L170.312 31.251ZM170.85 35.9136L169.857 36.032L170.527 41.6482L171.52 41.5298L172.512 41.4113L171.843 35.7951L170.85 35.9136ZM171.52 41.5298L170.527 41.6483C170.923 44.969 171.228 47.535 171.682 49.5534C172.141 51.5906 172.771 53.1711 173.878 54.4854L174.643 53.8413L175.408 53.1972C174.588 52.2244 174.056 50.9905 173.634 49.1143C173.207 47.2195 172.914 44.7732 172.512 41.4113L171.52 41.5298ZM174.643 53.8413L173.878 54.4855C174.564 55.2999 175.364 56.01 176.254 56.5942L176.803 55.7583L177.352 54.9224C176.623 54.4442 175.968 53.8631 175.407 53.1972L174.643 53.8413ZM176.803 55.7583L176.254 56.5942C177.69 57.5373 179.334 57.9756 181.411 58.1893C183.469 58.401 186.052 58.3999 189.396 58.3999V57.3999V56.3999C186.011 56.3999 183.547 56.3985 181.615 56.1998C179.703 56.003 178.415 55.6205 177.352 54.9224L176.803 55.7583ZM189.396 57.3999V58.3999C191.802 58.3999 193.847 58.3999 195.593 58.3355L195.556 57.3362L195.519 56.3369C193.818 56.3997 191.814 56.3999 189.396 56.3999V57.3999ZM201.4 62.3999H200.4V105.4H201.4H202.4V62.3999H201.4ZM201.4 105.4H200.4C200.4 114.856 200.398 121.848 199.677 127.212C198.96 132.548 197.548 136.123 194.836 138.835L195.543 139.542L196.25 140.25C199.396 137.104 200.912 133.036 201.659 127.479C202.403 121.95 202.4 114.8 202.4 105.4H201.4ZM195.543 139.542L194.836 138.835C192.124 141.548 188.548 142.96 183.213 143.677C177.849 144.398 170.857 144.4 161.4 144.4V145.4V146.4C170.8 146.4 177.951 146.402 183.479 145.659C189.037 144.912 193.104 143.395 196.25 140.25L195.543 139.542ZM161.4 145.4V144.4H62.4004V145.4V146.4H161.4V145.4ZM62.4004 145.4V144.4C52.944 144.4 45.9522 144.398 40.588 143.677C35.2524 142.96 31.6771 141.548 28.9649 138.835L28.2578 139.542L27.5507 140.25C30.6964 143.395 34.7642 144.912 40.3215 145.659C45.85 146.402 53.0006 146.4 62.4004 146.4V145.4ZM28.2578 139.542L28.9649 138.835C26.2528 136.123 24.8408 132.548 24.1235 127.212C23.4024 121.848 23.4004 114.856 23.4004 105.4H22.4004H21.4004C21.4004 114.8 21.3982 121.95 22.1414 127.479C22.8884 133.036 24.405 137.104 27.5507 140.25L28.2578 139.542ZM22.4004 105.4H23.4004V62.3999H22.4004H21.4004V105.4H22.4004ZM22.4004 62.3999H23.4004C23.4004 52.9438 23.4025 45.9523 24.1236 40.5882C24.8409 35.2528 26.253 31.6775 28.9649 28.9654L28.2578 28.2583L27.5507 27.5512C24.4052 30.6969 22.8886 34.7646 22.1415 40.3217C21.3983 45.85 21.4004 53.0004 21.4004 62.3999H22.4004ZM28.2578 28.2583L28.9649 28.9654C31.6771 26.2532 35.2525 24.8409 40.588 24.1235C45.9523 23.4022 52.944 23.3999 62.4004 23.3999V22.3999V21.3999C53.0006 21.3999 45.85 21.3979 40.3215 22.1413C34.7642 22.8886 30.6964 24.4055 27.5507 27.5512L28.2578 28.2583ZM62.4004 22.3999V23.3999H161.4V22.3999V21.3999H62.4004V22.3999ZM195.556 57.3362L195.593 58.3355C196.767 58.2922 197.991 58.7404 198.918 59.5142C199.843 60.2857 200.4 61.315 200.4 62.3999H201.4H202.4C202.4 60.6001 201.477 59.0445 200.2 57.9787C198.925 56.9152 197.227 56.2739 195.519 56.3369L195.556 57.3362ZM161.4 22.3999V23.3999C163.351 23.3999 165.213 24.3282 166.665 25.8247C168.119 27.3226 169.102 29.3311 169.317 31.3565L170.312 31.251L171.306 31.1455C171.041 28.6446 169.844 26.2276 168.1 24.4316C166.355 22.634 164.002 21.3999 161.4 21.3999V22.3999Z" fill="#F2F2F2" mask="url(#path-1-inside-1_1870_680)"/>
</g>
<defs>
<filter id="filter0_d_1870_680" x="0.000391006" y="-9.72748e-05" width="223.8" height="167.8" filterUnits="userSpaceOnUse" color-interpolation-filters="sRGB">
<feFlood flood-opacity="0" result="BackgroundImageFix"/>
<feColorMatrix in="SourceAlpha" type="matrix" values="0 0 0 0 0 0 0 0 0 0 0 0 0 0 0 0 0 0 127 0" result="hardAlpha"/>
<feOffset/>
<feGaussianBlur stdDeviation="11.2"/>
<feComposite in2="hardAlpha" operator="out"/>
<feColorMatrix type="matrix" values="0 0 0 0 0.74902 0 0 0 0 0.74902 0 0 0 0 0.74902 0 0 0 0.25 0"/>
<feBlend mode="normal" in2="BackgroundImageFix" result="effect1_dropShadow_1870_680"/>
<feBlend mode="normal" in="SourceGraphic" in2="effect1_dropShadow_1870_680" result="shape"/>
</filter>
</defs>
</svg>
