<svg width="27" height="27" viewBox="0 0 27 27" fill="none" xmlns="http://www.w3.org/2000/svg">
<path d="M26.1837 6.84809C25.4754 4.23879 22.7617 1.52508 20.1524 0.816855C18.553 0.417656 16.4094 0.00685547 13.5 0C10.5912 0.00738281 8.44752 0.417656 6.84809 0.816855C4.23879 1.52561 1.52508 4.23879 0.816855 6.84809C0.417656 8.44752 0.00738281 10.5912 0 13.5C0.00738281 16.4094 0.417656 18.553 0.816855 20.1524C1.52508 22.7617 4.23879 25.4749 6.84809 26.1837C8.44752 26.5829 10.5922 26.9931 13.5 27.0005C16.4094 26.9931 18.553 26.5829 20.1524 26.1837C22.7617 25.4749 25.4754 22.7617 26.1837 20.1524C26.5829 18.553 26.9931 16.4083 27.0005 13.5C26.9931 10.5912 26.5829 8.44752 26.1837 6.84809Z" fill="#DFF8FF"/>
<path d="M18.6147 8.04417C18.1713 6.79015 17.0412 5.79189 15.7544 5.62683C14.8495 5.51398 13.6145 5.42169 11.9259 5.44437C10.2374 5.46704 9.00022 5.5973 8.09266 5.73441C6.59289 5.97066 5.25344 7.28954 4.99609 8.79986C4.99609 8.79986 4.599 10.9309 4.52148 13.8007H19.0582C19.0582 13.8007 19.0582 10.0001 18.6147 8.04417Z" fill="url(#paint0_linear_1870_747)"/>
<path d="M22.3267 11.6323C22.1558 10.297 20.9666 9.16747 19.575 8.9829C17.1228 8.73979 13.5005 8.71923 13.4994 8.72819C11.9327 8.71184 8.2645 8.86161 7.42444 8.9829C6.57331 9.09259 5.80444 9.56298 5.28976 10.2074C4.95729 10.6164 4.74383 11.109 4.67276 11.6312C4.5731 12.4381 4.49399 13.5402 4.53407 15.0484C4.57415 16.5566 4.71548 17.6619 4.85681 18.4714C5.10044 19.8114 6.30595 20.9884 7.64751 21.2136C8.46015 21.3686 11.9918 21.5827 13.501 21.5564C15.0092 21.5838 18.5408 21.3686 19.3545 21.2136C20.6961 20.9884 21.9016 19.8114 22.1452 18.4714C22.2866 17.6619 22.4253 16.5571 22.468 15.0484C22.5107 13.5397 22.4263 12.4391 22.3267 11.6323Z" fill="url(#paint1_linear_1870_747)"/>
<path d="M19.3436 16.3861C19.0976 16.3862 18.8571 16.3134 18.6526 16.1768C18.448 16.0402 18.2885 15.846 18.1944 15.6187C18.1002 15.3915 18.0755 15.1414 18.1235 14.9002C18.1714 14.6589 18.2899 14.4373 18.4638 14.2634C18.6378 14.0894 18.8594 13.971 19.1006 13.923C19.3419 13.8751 19.592 13.8997 19.8192 13.9939C20.0464 14.0881 20.2406 14.2476 20.3772 14.4521C20.5138 14.6567 20.5867 14.8972 20.5866 15.1432C20.5866 15.4728 20.4556 15.789 20.2225 16.0221C19.9894 16.2552 19.6733 16.3861 19.3436 16.3861Z" fill="url(#paint2_linear_1870_747)"/>
<defs>
<linearGradient id="paint0_linear_1870_747" x1="8.97754" y1="16.372" x2="15.4465" y2="5.16751" gradientUnits="userSpaceOnUse">
<stop stop-color="#34344F"/>
<stop offset="0.54" stop-color="#353551"/>
<stop offset="1" stop-color="#666684"/>
</linearGradient>
<linearGradient id="paint1_linear_1870_747" x1="19.9884" y1="21.4324" x2="7.01153" y2="8.45555" gradientUnits="userSpaceOnUse">
<stop stop-color="#1EB4EB"/>
<stop offset="0.54" stop-color="#1EB4EB"/>
<stop offset="1" stop-color="#92F4FE"/>
</linearGradient>
<linearGradient id="paint2_linear_1870_747" x1="20.2227" y1="16.0223" x2="18.4645" y2="14.2641" gradientUnits="userSpaceOnUse">
<stop stop-color="#BCE4ED"/>
<stop offset="0.57" stop-color="white"/>
<stop offset="1" stop-color="white"/>
</linearGradient>
</defs>
</svg>
