<svg width="32" height="32" viewBox="0 0 32 32" fill="none" xmlns="http://www.w3.org/2000/svg">
<path d="M11.9876 15.9861C7.57946 15.9861 3.99458 12.4012 3.99458 7.99306C3.99458 3.58489 7.57946 0 11.9876 0C16.3958 0 19.9807 3.58489 19.9807 7.99306C19.9807 12.4012 16.3958 15.9861 11.9876 15.9861ZM18.109 28.5152C17.0659 27.4721 17.0659 25.775 18.109 24.7319L20.0007 22.8402C21.0451 21.7971 22.7423 21.7971 23.7841 22.8402L25.6757 20.9485C23.5896 18.8623 20.1952 18.8623 18.109 20.9485L16.2173 22.8402C14.1311 24.9264 14.1311 28.3194 16.2146 30.4043C16.2146 30.4043 16.2146 30.4056 16.216 30.4069C18.3022 32.4931 21.6965 32.4931 23.7841 30.4069L24.2956 29.8954C23.1966 29.8368 22.1095 29.557 21.1064 29.0494C20.1206 29.4971 18.919 29.3239 18.109 28.5139V28.5152ZM30.4063 16.2192C28.3201 14.1331 24.9257 14.1331 22.8382 16.2192L22.3267 16.7308C23.4257 16.7894 24.5128 17.0692 25.5159 17.5767C26.5017 17.1291 27.7033 17.3023 28.5133 18.1123C29.555 19.1554 29.555 20.8526 28.5133 21.8957L26.6216 23.7873C25.5772 24.8304 23.88 24.8304 22.8382 23.7873L20.9465 25.679C21.9896 26.7221 23.3591 27.243 24.7299 27.243C26.1007 27.243 27.4702 26.7221 28.5133 25.679L30.405 23.7873C32.4912 21.7012 32.4912 18.3068 30.405 16.2206L30.4063 16.2192ZM14.3336 20.9565L16.6383 18.6505H6.65893C2.98079 18.6505 -0.00195312 21.6332 -0.00195312 25.3114V31.9722H14.0725C11.239 28.827 11.3082 23.9818 14.3336 20.9565Z" fill="#F35227"/>
</svg>
