<svg width="32" height="32" viewBox="0 0 32 32" fill="none" xmlns="http://www.w3.org/2000/svg">
<path d="M4.35448 7.99278C4.35448 2.54025 6.89503 0 12.3528 0C17.8105 0 20.3511 2.54025 20.3511 7.99278C20.3511 13.4453 17.8105 15.9856 12.3528 15.9856C6.89503 15.9856 4.35448 13.4453 4.35448 7.99278ZM30.7678 15.4886C30.5715 15.3912 28.7973 14.5323 26.8835 14.5323C22.3754 14.5323 19.8799 17.1162 19.115 18.6435C18.9637 18.9458 18.8852 19.28 18.8852 19.6186V24.7442C16.8275 24.9375 15.9767 26.0042 15.9767 28.3366C15.9767 30.9321 17.0151 31.9697 19.6123 31.9697C22.2096 31.9697 23.2479 30.9321 23.2479 28.3366V20.2886C23.6944 19.7727 24.7676 18.8906 26.8835 18.8906C27.1191 18.8906 27.3692 18.9255 27.6106 18.9792V23.2895C25.5529 23.4828 24.7022 24.5495 24.7022 26.8819C24.7022 29.4774 25.7405 30.515 28.3378 30.515C30.935 30.515 31.9734 29.4774 31.9734 26.8819V17.4359C31.9734 16.6105 31.5065 15.8562 30.7678 15.4857V15.4886ZM15.9767 22.6181V19.6172C15.9767 19.4719 16.0146 19.3295 16.0276 19.1856C14.9137 18.9952 13.698 18.8906 12.3513 18.8906C4.02291 18.8906 0.21281 22.4641 0.000491418 30.4787C-0.00968824 30.871 0.138644 31.2489 0.412041 31.5308C0.685437 31.8113 1.06208 31.9711 1.45327 31.9711H13.8885C13.3591 30.9873 13.0668 29.7826 13.0668 28.3366C13.0668 25.5653 14.0891 23.631 15.9753 22.6181H15.9767Z" fill="#F35227"/>
</svg>
