<svg width="32" height="32" viewBox="0 0 32 32" fill="none" xmlns="http://www.w3.org/2000/svg">
<path d="M21.9109 14.6536C21.3434 14.6536 20.7812 14.5031 20.2709 14.2047C19.2558 13.6119 18.651 12.5568 18.651 11.3819V3.2733C18.651 2.09837 19.2558 1.04334 20.2709 0.450543C21.2861 -0.139586 22.4997 -0.151575 23.5229 0.4239L30.3358 4.49619C31.3496 5.06633 31.9731 6.13203 31.9731 7.32827C31.9731 8.52451 31.3496 9.59021 30.3065 10.1777L23.5535 14.214C23.0313 14.5084 22.4691 14.6536 21.9109 14.6536ZM15.9865 5.17157L11.8154 3.08547C11.2625 2.80972 10.6457 2.66452 10.0289 2.66452H6.66106C2.98815 2.66452 0 5.65246 0 9.32511V10.6572H15.9865V5.17157ZM11.9899 19.9821H7.99327C7.25922 19.9821 6.66106 20.5802 6.66106 21.3142V23.9784C6.66106 24.7124 7.25922 25.3105 7.99327 25.3105H11.9899C12.7239 25.3105 13.3221 24.7124 13.3221 23.9784V21.3142C13.3221 20.5802 12.7239 19.9821 11.9899 19.9821ZM24.9203 16.4466C23.9518 16.9928 22.9327 17.2632 21.9109 17.2632C20.8691 17.2632 19.8366 16.9821 18.9267 16.4506C17.6864 15.7259 16.7952 14.6163 16.3369 13.3215H0V25.3105C0 28.9885 2.98282 31.9711 6.66106 31.9711H25.312C28.9902 31.9711 31.9731 28.9885 31.9731 25.3105V13.3215H30.1466L24.9203 16.4466ZM19.9832 25.2879C19.9832 26.4029 18.7109 27.0383 17.8183 26.3696L15.8733 24.8816C15.4616 26.6493 13.8803 27.9734 11.9886 27.9734H7.99193C5.78846 27.9734 3.9953 26.1804 3.9953 23.9771V21.3128C3.9953 19.1095 5.78846 17.3165 7.99193 17.3165H11.9886C13.883 17.3165 15.4643 18.6433 15.8746 20.415L17.817 18.9577C18.7082 18.2889 19.9818 18.9257 19.9818 20.0393V25.2866L19.9832 25.2879Z" fill="#F35227"/>
</svg>
