<svg width="32" height="32" viewBox="0 0 32 32" fill="none" xmlns="http://www.w3.org/2000/svg">
<path d="M27.9758 10.6574H23.9792V5.99479C23.9792 4.89308 24.8758 3.99653 25.9775 3.99653H27.0126C27.4735 4.78917 28.3235 5.32871 29.3079 5.32871C30.78 5.32871 31.9723 4.13641 31.9723 2.66435C31.9723 1.1923 30.78 0 29.3079 0C28.3248 0 27.4749 0.539531 27.0126 1.33218H25.9775C23.4064 1.33218 21.3149 3.42369 21.3149 5.99479V10.6574H17.3183V5.02497C18.111 4.56404 18.6505 3.71411 18.6505 2.72963C18.6505 1.25757 17.4582 0.0652767 15.9862 0.0652767C14.5141 0.0652767 13.3218 1.25757 13.3218 2.72963C13.3218 3.71278 13.8614 4.56271 14.654 5.02497V10.6574H6.66094C5.5166 10.6574 4.43354 10.1618 3.68352 9.32657C4.41622 8.50861 5.48063 7.99306 6.66094 7.99306H10.6575C11.3942 7.99306 11.9896 7.39624 11.9896 6.66088C11.9896 5.92552 11.3942 5.32871 10.6575 5.32871H6.66094C2.96015 5.32205 -0.0146 8.37273 5.39082e-05 11.9896V25.3114C5.39082e-05 28.9842 2.98813 31.9722 6.66094 31.9722H27.9758C30.1792 31.9722 31.9723 30.1791 31.9723 27.9757V14.6539C31.9723 12.4505 30.1792 10.6574 27.9758 10.6574ZM24.6453 23.3131C23.5423 23.3131 22.6471 22.4179 22.6471 21.3148C22.6471 20.2118 23.5423 19.3166 24.6453 19.3166C25.7484 19.3166 26.6436 20.2118 26.6436 21.3148C26.6436 22.4179 25.7484 23.3131 24.6453 23.3131Z" fill="#F35227"/>
</svg>
