<svg width="32" height="32" viewBox="0 0 32 32" fill="none" xmlns="http://www.w3.org/2000/svg">
<path d="M15.9861 17.6114V21.6878C15.9861 22.218 15.5572 22.647 15.027 22.647H10.9505C10.5628 22.647 10.2125 22.4139 10.0646 22.0555C9.91539 21.6972 9.99798 21.2842 10.2724 21.0098L11.3941 19.8881C10.4549 19.1087 9.26262 18.6505 7.99306 18.6505C5.87357 18.6505 3.95656 19.9054 3.10797 21.8477C2.81222 22.5231 2.02757 22.8308 1.35349 22.5351C0.67941 22.2407 0.371677 21.4547 0.666088 20.782C1.93965 17.8685 4.81582 15.9861 7.99306 15.9861C9.98333 15.9861 11.855 16.7255 13.2898 17.9924L14.3489 16.9333C14.6233 16.6589 15.0349 16.5776 15.3946 16.7255C15.753 16.8733 15.9861 17.2237 15.9861 17.6114ZM14.6326 25.4233C13.9585 25.1262 13.1739 25.4352 12.8782 26.1107C12.0296 28.053 10.1112 29.3079 7.99306 29.3079C6.7235 29.3079 5.5312 28.8496 4.59201 28.0703L5.71371 26.9486C5.98813 26.6742 6.07073 26.2625 5.92153 25.9028C5.77365 25.5445 5.42329 25.3114 5.03563 25.3114H0.959167C0.428961 25.3114 0 25.7403 0 26.2705V30.347C0 30.7346 0.233131 31.085 0.591486 31.2329C0.951174 31.3808 1.36282 31.2995 1.63724 31.0251L2.69633 29.966C4.12975 31.2329 6.00146 31.9722 7.99306 31.9722C11.1716 31.9722 14.0478 30.0899 15.32 27.1764C15.6144 26.5023 15.3067 25.7163 14.6326 25.4233ZM31.9722 9.32524V22.647C31.9722 24.8544 30.1831 26.6435 27.9757 26.6435H18.3014C18.5212 25.7909 18.6505 24.901 18.6505 23.9792V17.3183C18.6505 15.1109 16.8614 13.3218 14.6539 13.3218H7.99306C4.80516 13.3218 1.95297 14.7285 0 16.9466V6.66088C0 2.98274 2.98274 0 6.66088 0H30.6401C31.3768 0 31.9722 0.596815 31.9722 1.33218C31.9722 2.06754 31.3768 2.66435 30.6401 2.66435H6.66088C5.47924 2.66435 4.41483 3.17991 3.68347 3.99786C4.43348 4.83314 5.51654 5.32871 6.66088 5.32871H27.9757C30.1831 5.32871 31.9722 7.11782 31.9722 9.32524ZM27.9757 15.9861C27.9757 14.8831 27.0805 13.9879 25.9774 13.9879C24.8744 13.9879 23.9792 14.8831 23.9792 15.9861C23.9792 17.0892 24.8744 17.9844 25.9774 17.9844C27.0805 17.9844 27.9757 17.0892 27.9757 15.9861Z" fill="#F35227"/>
</svg>
