<svg width="32" height="10" viewBox="0 0 32 10" fill="none" xmlns="http://www.w3.org/2000/svg">
<path d="M27.3096 0C24.7385 0 22.647 2.09152 22.647 4.66262C22.647 7.23372 24.7385 9.32524 27.3096 9.32524C29.8807 9.32524 31.9722 7.23372 31.9722 4.66262C31.9722 2.09152 29.8807 0 27.3096 0ZM27.3096 6.66088C26.2079 6.66088 25.3114 5.76433 25.3114 4.66262C25.3114 3.56091 26.2079 2.66435 27.3096 2.66435C28.4113 2.66435 29.3079 3.56091 29.3079 4.66262C29.3079 5.76433 28.4113 6.66088 27.3096 6.66088ZM20.6487 4.66262C20.6487 7.23372 18.5572 9.32524 15.9861 9.32524C13.415 9.32524 11.3235 7.23372 11.3235 4.66262C11.3235 2.09152 13.415 0 15.9861 0C18.5572 0 20.6487 2.09152 20.6487 4.66262ZM9.32524 4.66262C9.32524 7.23372 7.23372 9.32524 4.66262 9.32524C2.09152 9.32524 0 7.23372 0 4.66262C0 2.09152 2.09152 0 4.66262 0C7.23372 0 9.32524 2.09152 9.32524 4.66262Z" fill="#F35227"/>
</svg>
