<svg width="30" height="30" viewBox="0 0 30 30" fill="none" xmlns="http://www.w3.org/2000/svg">
<path d="M4.08573 7.5C4.08573 2.38364 6.46948 0 11.5904 0C16.7113 0 19.095 2.38364 19.095 7.5C19.095 12.6164 16.7113 15 11.5904 15C6.46948 15 4.08573 12.6164 4.08573 7.5ZM28.8688 14.5336C28.6846 14.4423 27.02 13.6364 25.2243 13.6364C20.9944 13.6364 18.653 16.0609 17.9352 17.4941C17.7933 17.7777 17.7196 18.0914 17.7196 18.4091V23.2186C15.7889 23.4 14.9907 24.4009 14.9907 26.5895C14.9907 29.025 15.9649 29.9986 18.4019 29.9986C20.8389 29.9986 21.8131 29.025 21.8131 26.5895V19.0377C22.232 18.5536 23.239 17.7259 25.2243 17.7259C25.4454 17.7259 25.68 17.7586 25.9065 17.8091V21.8536C23.9758 22.035 23.1776 23.0359 23.1776 25.2245C23.1776 27.66 24.1518 28.6336 26.5888 28.6336C29.0258 28.6336 30 27.66 30 25.2245V16.3609C30 15.5864 29.562 14.8786 28.8688 14.5309V14.5336ZM14.9907 21.2236V18.4077C14.9907 18.2714 15.0262 18.1377 15.0384 18.0027C13.9932 17.8241 12.8525 17.7259 11.589 17.7259C3.77462 17.7259 0.199676 21.0791 0.000461088 28.5995C-0.0090903 28.9677 0.130087 29.3223 0.38661 29.5868C0.643133 29.85 0.996534 30 1.36358 30H13.0313C12.5346 29.0768 12.2603 27.9464 12.2603 26.5895C12.2603 23.9891 13.2196 22.1741 14.9893 21.2236H14.9907Z" fill="#F3B811"/>
</svg>
