<svg width="30" height="30" viewBox="0 0 30 30" fill="none" xmlns="http://www.w3.org/2000/svg">
<path d="M20.7 11.95C19.9688 12.6813 18.78 12.6813 18.0487 11.95C17.3175 11.2188 17.3175 10.03 18.0487 9.29875C18.78 8.5675 19.9688 8.5675 20.7 9.29875C21.4312 10.03 21.4312 11.2188 20.7 11.95ZM18.75 0V2.5C23.575 2.5 27.5 6.42625 27.5 11.25H30C30 5.04625 24.9525 0 18.75 0ZM18.75 4.375V6.875C21.1625 6.875 23.125 8.8375 23.125 11.25H25.625C25.625 7.46 22.5413 4.375 18.75 4.375ZM27.5 16.2575C27.4925 22.4675 22.46 27.5 16.25 27.5075H13.75C7.54 27.5 2.5075 22.4675 2.5 16.2575H0C0.00875 23.8475 6.16 29.99 13.75 30H16.25C23.84 29.9912 29.9912 23.8487 30 16.2575H27.5ZM19.375 15C16.9587 15 15 13.0413 15 10.625C15 9.435 15.4788 8.35875 16.25 7.57V0.095C15.4425 -0.02125 14.6062 -0.03125 13.7575 0.09C9.9125 0.64125 6.89125 3.655 6.33875 7.5H11.25V10.0075H6.25V13.75H11.25V16.2575H6.33875C7.025 21.0413 11.46 24.3625 16.2425 23.6763C20.0875 23.1238 23.1088 20.1038 23.6613 16.2575L23.75 13.7575V13.75H22.43C21.6413 14.5212 20.565 15 19.375 15Z" fill="#F3B811"/>
</svg>
