<svg width="30" height="30" viewBox="0 0 30 30" fill="none" xmlns="http://www.w3.org/2000/svg">
<path d="M25 10C22.2425 10 20 7.7575 20 5C20 2.2425 22.2425 0 25 0C27.7575 0 30 2.2425 30 5C30 7.7575 27.7575 10 25 10ZM11.25 13.75H7.5C6.81125 13.75 6.25 14.31 6.25 15V17.5C6.25 18.19 6.81125 18.75 7.5 18.75H11.25C11.9388 18.75 12.5 18.19 12.5 17.5V15C12.5 14.31 11.9388 13.75 11.25 13.75ZM25 12.5C20.865 12.5 17.5 9.13625 17.5 5C17.5 4.1225 17.6588 3.28375 17.9375 2.5H6.25C2.80375 2.5 0 5.30375 0 8.75V18.75C0 22.1963 2.80375 25 6.25 25H13.75V27.5H8.75C8.06 27.5 7.5 28.0588 7.5 28.75C7.5 29.4412 8.06 30 8.75 30H21.25C21.94 30 22.5 29.4412 22.5 28.75C22.5 28.0588 21.94 27.5 21.25 27.5H16.25V25H23.75C27.1963 25 30 22.1963 30 18.75V10.575C28.6712 11.7675 26.9212 12.5 25 12.5ZM18.75 18.7288C18.75 19.775 17.5562 20.3713 16.7188 19.7437L14.8938 18.3475C14.5075 20.0063 13.0237 21.2488 11.2487 21.2488H7.49875C5.43125 21.2488 3.74875 19.5662 3.74875 17.4987V14.9987C3.74875 12.9312 5.43125 11.2487 7.49875 11.2487H11.2487C13.0262 11.2487 14.51 12.4937 14.895 14.1562L16.7175 12.7887C17.5537 12.1613 18.7487 12.7587 18.7487 13.8038V18.7275L18.75 18.7288Z" fill="#F3B811"/>
</svg>
