<svg width="12" height="15" viewBox="0 0 12 15" fill="none" xmlns="http://www.w3.org/2000/svg">
<mask id="mask0_7_43501" style="mask-type:alpha" maskUnits="userSpaceOnUse" x="0" y="0" width="12" height="2">
<rect width="11.6471" height="1.11695" rx="0.558473" fill="#F3B811"/>
</mask>
<g mask="url(#mask0_7_43501)">
<path d="M0 0H4.30941V4.18855V6.14321H4.22025C2.59467 6.14321 1.05133 5.42839 0 4.18855V0Z" fill="#E52021"/>
<rect x="4.31018" width="3.02823" height="6.14321" fill="#F7F7F7"/>
<path d="M7.33569 0H11.6451V4.18855C10.5938 5.42839 9.05043 6.14321 7.42485 6.14321H7.33569V4.18855V0Z" fill="#268A42"/>
<rect width="11.6471" height="1.11695" rx="0.558473" fill="black" fill-opacity="0.05"/>
</g>
<path d="M4.3064 5.28271L4.29761 5.28076C3.80483 5.15436 3.2798 5.39618 3.07593 5.84326L2.94312 6.13428C2.92363 6.17711 2.8934 6.21451 2.85522 6.24365C2.81698 6.27281 2.77146 6.29263 2.72339 6.30127L2.39819 6.36084C2.30748 6.37719 2.22062 6.4037 2.14038 6.44092C1.88759 6.21846 1.66634 5.95629 1.48901 5.65869L1.27808 5.30518V1.1167H4.3064V5.28271Z" fill="#E52021"/>
<path d="M7.33948 5.28296L7.02991 5.36304C6.98281 5.37515 6.93294 5.37628 6.88538 5.36597C6.83768 5.35556 6.79254 5.33401 6.75549 5.30347L6.50452 5.09644C6.11795 4.77812 5.53467 4.77809 5.14807 5.09644L4.89709 5.30347C4.86017 5.33391 4.81571 5.35552 4.76819 5.36597C4.72061 5.37635 4.6708 5.37511 4.62366 5.36304L4.31116 5.28296V1.11694H7.33948V5.28296Z" fill="#F7F7F7"/>
<path d="M10.365 5.30542L10.1541 5.65991C9.97655 5.95772 9.75477 6.2196 9.50171 6.44214C9.42154 6.40498 9.33549 6.37742 9.24487 6.36108L8.9187 6.30151C8.87093 6.29288 8.82591 6.27378 8.78784 6.24487C8.74961 6.21572 8.71946 6.17739 8.69995 6.13452L8.56714 5.84351C8.36324 5.39631 7.83734 5.15439 7.34448 5.28101L7.33667 5.28296V1.11694H10.365V5.30542Z" fill="#268A42"/>
<path d="M5.88078 0.635742L6.0051 1.90083L6.49604 0.720575L6.24366 1.96801L7.06145 0.968201L6.45282 2.09692L7.53121 1.35856L6.61564 2.27712L7.86726 1.86002L6.71893 2.49401L8.04238 2.43197L6.75431 2.73002L8.04238 3.02807L6.71893 2.96603L7.86726 3.60001L6.61564 3.18292L7.53121 4.10148L6.45282 3.36312L7.06145 4.49184L6.24366 3.49203L6.49604 4.73946L6.0051 3.5592L5.88078 4.8243L5.75647 3.5592L5.26553 4.73946L5.51791 3.49203L4.70012 4.49184L5.30874 3.36312L4.23036 4.10148L5.14592 3.18292L3.89431 3.60001L5.04264 2.96603L3.71919 3.02807L5.00725 2.73002L3.71919 2.43197L5.04264 2.49401L3.89431 1.86002L5.14592 2.27712L4.23036 1.35856L5.30874 2.09692L4.70012 0.968201L5.51791 1.96801L5.26553 0.720575L5.75647 1.90083L5.88078 0.635742Z" fill="#F7B70F"/>
<path fill-rule="evenodd" clip-rule="evenodd" d="M10.1841 10.1287C10.1637 10.091 10.153 10.0489 10.153 10.0062C10.153 9.96352 10.1636 9.92146 10.184 9.88372L10.3223 9.6278C10.535 9.23403 10.4194 8.73775 10.0534 8.47341L9.81556 8.30161C9.78046 8.2763 9.75223 8.24295 9.73332 8.20448C9.71441 8.16601 9.7054 8.12358 9.70708 8.08091L9.71834 7.79153C9.73563 7.34634 9.41174 6.94836 8.96495 6.8658L8.67454 6.81215C8.63172 6.80426 8.59151 6.78621 8.55745 6.75958C8.52338 6.73296 8.49648 6.69856 8.4791 6.6594L8.3611 6.39391C8.17954 5.98545 7.71156 5.76453 7.27243 5.88016L6.98703 5.9553C6.94494 5.96639 6.90073 5.96722 6.85825 5.95772C6.81577 5.94822 6.7763 5.92867 6.7433 5.90079L6.51943 5.71174C6.17504 5.42096 5.65555 5.42096 5.31112 5.71174L5.08723 5.90079C5.05423 5.92867 5.01477 5.94822 4.97229 5.95772C4.92981 5.96722 4.8856 5.96639 4.84352 5.9553L4.55812 5.88016C4.11897 5.76458 3.65101 5.98545 3.46945 6.39391L3.35143 6.65942C3.33405 6.69858 3.30715 6.73297 3.27308 6.75959C3.23901 6.78621 3.19881 6.80426 3.15598 6.81215L2.86558 6.8658C2.41879 6.94836 2.0949 7.34634 2.11219 7.79153L2.12343 8.08091C2.12511 8.12358 2.1161 8.166 2.09719 8.20447C2.07829 8.24295 2.05006 8.2763 2.01497 8.30161L1.77708 8.47344C1.4111 8.73777 1.29551 9.23405 1.50821 9.62782L1.64646 9.88374C1.66687 9.92148 1.67754 9.96353 1.67754 10.0062C1.67754 10.0489 1.66687 10.091 1.64646 10.1287L1.50821 10.3846C1.29551 10.7784 1.4111 11.2747 1.77708 11.539L2.01495 11.7108C2.05004 11.7362 2.07828 11.7695 2.09718 11.808C2.11609 11.8465 2.12509 11.8889 2.1234 11.9316L2.11217 12.2209C2.09487 12.6661 2.41877 13.0641 2.86556 13.1467L3.01783 13.1748L3.01786 13.1748L3.15592 13.2003C3.19875 13.2082 3.23896 13.2262 3.27303 13.2528C3.3071 13.2795 3.334 13.3139 3.35139 13.353L3.46939 13.6185C3.65094 14.027 4.11893 14.2479 4.55806 14.1322L4.84346 14.0571C4.88554 14.046 4.92975 14.0452 4.97223 14.0547C5.01472 14.0642 5.05418 14.0838 5.08719 14.1116L5.31105 14.3007C5.32965 14.3163 5.34888 14.3312 5.3687 14.3453L5.36865 14.3454L5.36874 14.3453C5.53026 14.4609 5.72272 14.5188 5.91525 14.5188C6.10484 14.5188 6.29438 14.4628 6.45437 14.3507L6.45435 14.3507C6.47679 14.335 6.4985 14.3183 6.51939 14.3007L6.74328 14.1116C6.77628 14.0838 6.81574 14.0642 6.85822 14.0547C6.9007 14.0452 6.94491 14.046 6.98698 14.0571L7.27238 14.1322C7.35095 14.1529 7.43035 14.1628 7.50894 14.1628C7.86967 14.1628 8.21198 13.9539 8.36106 13.6185L8.47908 13.353C8.49645 13.3138 8.52334 13.2794 8.55741 13.2528C8.59148 13.2262 8.63168 13.2081 8.6745 13.2003L8.80308 13.1765L8.80312 13.1766L8.80312 13.1766L8.96497 13.1466C9.41176 13.0641 9.73565 12.6661 9.71836 12.2209L9.7071 11.9316C9.70542 11.8889 9.71443 11.8465 9.73334 11.808C9.75224 11.7695 9.78047 11.7362 9.81556 11.7108L10.0534 11.539C10.4195 11.2747 10.535 10.7784 10.3223 10.3846L10.1841 10.1287Z" fill="#F3B811"/>
<ellipse cx="5.91379" cy="10.0298" rx="2.95096" ry="2.89166" fill="url(#paint0_linear_7_43501)"/>
<g filter="url(#filter0_i_7_43501)">
<path d="M7.95157 9.95429C8.05839 9.8523 8.09625 9.70262 8.05014 9.56351C8.00403 9.42441 7.88366 9.32511 7.73623 9.30396L6.80972 9.1719C6.80124 9.17068 6.79319 9.16746 6.78626 9.16251C6.77933 9.15756 6.77373 9.15104 6.76995 9.1435L6.35577 8.32089C6.28977 8.18987 6.15609 8.1084 6.00696 8.1084C5.85783 8.1084 5.72414 8.19008 5.65814 8.32089L5.24396 9.1435C5.24021 9.15106 5.23462 9.1576 5.22769 9.16255C5.22075 9.16751 5.21269 9.17072 5.20419 9.1719L4.27811 9.30396C4.13046 9.32511 4.00989 9.42441 3.96399 9.56351C3.91808 9.70262 3.95574 9.8523 4.06256 9.95429L4.73269 10.5945C4.74538 10.6065 4.75088 10.6237 4.74792 10.6405L4.5897 11.5444C4.57712 11.6145 4.58497 11.6867 4.61236 11.7527C4.63975 11.8186 4.68556 11.8757 4.74454 11.9173C4.80311 11.9594 4.87259 11.9844 4.94501 11.9896C5.01744 11.9948 5.08989 11.9799 5.15406 11.9465L5.98242 11.5197C5.99004 11.5157 5.99854 11.5136 6.00717 11.5136C6.0158 11.5136 6.0243 11.5157 6.03192 11.5197L6.86027 11.9465C6.92444 11.9798 6.99684 11.9946 7.06921 11.9895C7.14158 11.9843 7.21102 11.9593 7.26959 11.9173C7.32858 11.8757 7.37441 11.8187 7.4018 11.7527C7.42919 11.6867 7.43703 11.6145 7.42443 11.5444L7.2662 10.6405C7.26477 10.6322 7.2654 10.6237 7.26805 10.6156C7.27071 10.6076 7.2753 10.6004 7.28143 10.5945L7.95157 9.95429Z" fill="#F3B811"/>
</g>
<defs>
<filter id="filter0_i_7_43501" x="3.94476" y="8.1084" width="4.12469" height="8.0781" filterUnits="userSpaceOnUse" color-interpolation-filters="sRGB">
<feFlood flood-opacity="0" result="BackgroundImageFix"/>
<feBlend mode="normal" in="SourceGraphic" in2="BackgroundImageFix" result="shape"/>
<feColorMatrix in="SourceAlpha" type="matrix" values="0 0 0 0 0 0 0 0 0 0 0 0 0 0 0 0 0 0 127 0" result="hardAlpha"/>
<feOffset dy="4.19578"/>
<feGaussianBlur stdDeviation="4.19578"/>
<feComposite in2="hardAlpha" operator="arithmetic" k2="-1" k3="1"/>
<feColorMatrix type="matrix" values="0 0 0 0 0 0 0 0 0 0 0 0 0 0 0 0 0 0 0.1 0"/>
<feBlend mode="normal" in2="shape" result="effect1_innerShadow_7_43501"/>
</filter>
<linearGradient id="paint0_linear_7_43501" x1="5.90857" y1="16.4986" x2="5.90857" y2="7.13818" gradientUnits="userSpaceOnUse">
<stop stop-color="#FFE59A"/>
<stop offset="1" stop-color="#FFFFD5"/>
</linearGradient>
</defs>
</svg>
