<svg width="25" height="40" viewBox="0 0 25 40" fill="none" xmlns="http://www.w3.org/2000/svg">
<path d="M13.4815 20.3156H14.1476C16.0374 20.3156 17.5753 18.8018 17.5753 16.9406C17.5753 15.0797 16.0376 13.5657 14.1476 13.5657H6.54973C6.18853 13.5657 5.89585 13.8541 5.89585 14.2095C5.89585 14.5651 6.18877 14.8533 6.54973 14.8533H14.1478C15.3167 14.8533 16.2675 15.7895 16.2675 16.9404C16.2675 18.0912 15.3167 19.0275 14.1478 19.0275H13.4818C13.1206 19.0275 12.8279 19.3159 12.8279 19.6713C12.8279 20.0267 13.1206 20.3156 13.4815 20.3156Z" fill="#F2BE1D"/>
<path d="M6.54937 13.5657H14.1475C16.0373 13.5657 17.5752 15.0797 17.5752 16.9406C17.5752 18.8016 16.0375 20.3156 14.1475 20.3156H13.4814C13.1202 20.3156 12.8275 20.0272 12.8275 19.6718C12.8275 19.3163 13.1205 19.0279 13.4814 19.0279H14.1475C15.3163 19.0279 16.2672 18.0917 16.2672 16.9409C16.2672 15.79 15.3163 14.8538 14.1475 14.8538H6.54961C6.18841 14.8538 5.89572 14.5654 5.89572 14.21C5.89548 13.8541 6.18817 13.5657 6.54937 13.5657Z" fill="#F2BE1D"/>
<path d="M9.85116 25.7821H17.4493C17.8105 25.7821 18.1031 25.4937 18.1031 25.1383C18.1031 24.7829 17.8102 24.4945 17.4493 24.4945H9.85116C8.68233 24.4945 7.73146 23.5583 7.73146 22.4074C7.73146 21.2566 8.68233 20.3204 9.85116 20.3204H10.5172C10.8784 20.3204 11.1711 20.0319 11.1711 19.6765C11.1711 19.3211 10.8782 19.0327 10.5172 19.0327H9.85116C7.96136 19.0327 6.42345 20.5465 6.42345 22.4077C6.42345 24.2684 7.96112 25.7821 9.85116 25.7821Z" fill="#F2BE1D"/>
<path d="M9.85128 19.0254H10.5173C10.8785 19.0254 11.1712 19.3138 11.1712 19.6692C11.1712 20.0246 10.8783 20.313 10.5173 20.313H9.85128C8.68245 20.313 7.73158 21.2493 7.73158 22.4001C7.73158 23.5507 8.68245 24.4872 9.85128 24.4872H17.4494C17.8106 24.4872 18.1033 24.7756 18.1033 25.131C18.1033 25.4864 17.8103 25.7748 17.4494 25.7748H9.85128C7.96148 25.7748 6.42357 24.261 6.42357 22.3999C6.42357 20.5392 7.96124 19.0254 9.85128 19.0254Z" fill="#F2BE1D"/>
<path d="M12.3802 22.2917C12.538 22.2917 12.6965 22.2358 12.8221 22.1222C13.0883 21.882 13.1062 21.4747 12.8622 21.2126L9.18094 17.2606C8.93695 16.998 8.52323 16.9804 8.25705 17.2213C7.99062 17.4615 7.97296 17.8689 8.21694 18.131L11.8982 22.083C12.0271 22.2217 12.2033 22.2917 12.3802 22.2917Z" fill="#F2BE1D"/>
<path d="M15.3186 22.2917C15.4764 22.2917 15.6349 22.2358 15.7605 22.1222C16.0269 21.882 16.0446 21.4747 15.8006 21.2126L12.1193 17.2606C11.8751 16.998 11.4616 16.9804 11.1954 17.2213C10.929 17.4615 10.9114 17.8689 11.1553 18.131L14.8366 22.083C14.9655 22.2217 15.1417 22.2917 15.3186 22.2917Z" fill="#F2BE1D"/>
<path d="M13.0958 7.50293V9.60717C17.8468 10.0783 21.6247 13.8511 22.0952 18.6H24.1986C23.7153 12.6936 19.0053 7.98625 13.0958 7.50293Z" fill="url(#paint0_linear_7_43989)"/>
<path d="M2.10353 20.606H9.44138e-05C0.483715 26.5114 5.19344 31.2188 11.1029 31.7021V29.5985C6.35254 29.128 2.57432 25.3539 2.10353 20.606Z" fill="url(#paint1_linear_7_43989)"/>
<path d="M21.4625 38.2994C21.4625 37.8854 21.1817 37.5398 20.8007 37.4329V28.0639C22.7089 26.1014 23.9621 23.4985 24.1986 20.606H22.0952C21.6244 25.3539 17.8465 29.128 13.0958 29.5985V31.7021C13.6326 31.6581 14.1593 31.5787 14.6741 31.4673V36.3032C14.2781 36.4 13.9842 36.7548 13.9842 37.1795C13.9842 37.6784 14.3881 38.0832 14.8876 38.0832C15.388 38.0832 15.7919 37.6784 15.7919 37.1795C15.7919 36.7646 15.5115 36.4189 15.1305 36.3118V31.358C16.1219 31.1028 17.0631 30.7251 17.9393 30.2433V34.5321C17.5443 34.6283 17.2498 34.983 17.2498 35.408C17.2498 35.9069 17.654 36.3118 18.1532 36.3118C18.6533 36.3118 19.0575 35.9069 19.0575 35.408C19.0575 34.9931 18.777 34.6475 18.3961 34.54V29.9792C19.0945 29.5542 19.7476 29.0626 20.3443 28.5106V37.4234C19.9493 37.5193 19.6545 37.8744 19.6545 38.2985C19.6545 38.7971 20.0587 39.2025 20.5579 39.2025C21.0583 39.2034 21.4625 38.798 21.4625 38.2994Z" fill="url(#paint2_linear_7_43989)"/>
<path d="M11.1028 9.60588V7.50164C10.566 7.54591 10.0393 7.62499 9.52483 7.73612V2.8996C9.92046 2.80312 10.2147 2.44864 10.2147 2.02364C10.2147 1.52475 9.81048 1.1196 9.31128 1.1196C8.81116 1.1196 8.40697 1.52475 8.40697 2.02364C8.40697 2.43826 8.68743 2.78419 9.0687 2.89135V7.84573C8.07763 8.10098 7.13605 8.47835 6.25985 8.96044V4.67043C6.65488 4.57456 6.94939 4.21979 6.94939 3.79509C6.94939 3.2959 6.5452 2.89135 6.04569 2.89135C5.54588 2.89135 5.14139 3.2959 5.14139 3.79509C5.14139 4.21002 5.42215 4.55533 5.80312 4.6628V9.22363C5.10473 9.64924 4.45155 10.1405 3.85489 10.6925V1.77878C4.25022 1.68321 4.54473 1.32843 4.54473 0.903738C4.54473 0.405155 4.14023 0 3.64103 0C3.14122 0 2.73673 0.405155 2.73673 0.903738C2.73673 1.31805 3.01779 1.66337 3.39876 1.76992V11.1398C1.48902 13.1024 0.236745 15.7052 0.00028038 18.5987H2.10371C2.57389 13.8498 6.35212 10.0761 11.1028 9.60588Z" fill="url(#paint3_linear_7_43989)"/>
<defs>
<linearGradient id="paint0_linear_7_43989" x1="18.6473" y1="-0.836922" x2="18.6473" y2="35.308" gradientUnits="userSpaceOnUse">
<stop stop-color="#FFFF00"/>
<stop offset="1" stop-color="#FF8800"/>
</linearGradient>
<linearGradient id="paint1_linear_7_43989" x1="5.5515" y1="-0.836525" x2="5.5515" y2="35.3083" gradientUnits="userSpaceOnUse">
<stop stop-color="#FFFF00"/>
<stop offset="1" stop-color="#FF8800"/>
</linearGradient>
<linearGradient id="paint2_linear_7_43989" x1="18.6473" y1="-0.837008" x2="18.6473" y2="35.3091" gradientUnits="userSpaceOnUse">
<stop stop-color="#FFFF00"/>
<stop offset="1" stop-color="#FF8800"/>
</linearGradient>
<linearGradient id="paint3_linear_7_43989" x1="5.55138" y1="-0.838645" x2="5.55138" y2="35.3072" gradientUnits="userSpaceOnUse">
<stop stop-color="#FFFF00"/>
<stop offset="1" stop-color="#FF8800"/>
</linearGradient>
</defs>
</svg>
